<?xml version="1.0" encoding="us-ascii" standalone="no"?><svg xmlns="http://www.w3.org/2000/svg" xmlns:xlink="http://www.w3.org/1999/xlink" contentStyleType="text/css" height="851px" preserveAspectRatio="none" style="width:1425px;height:851px;background:#FFFFFF;" version="1.1" viewBox="0 0 1425 851" width="1425px" zoomAndPan="magnify"><defs/><g><text fill="#000000" font-family="sans-serif" font-size="14" font-weight="bold" lengthAdjust="spacing" textLength="146" x="638.75" y="30.1074">WP#4A.15 Lend Book</text><rect fill="#FFFFFF" height="522.2773" style="stroke:#181818;stroke-width:1.0;" width="10" x="202" y="228.4063"/><rect fill="#FFFFFF" height="442.4043" style="stroke:#181818;stroke-width:1.0;" width="10" x="419" y="259.6973"/><rect fill="#FFFFFF" height="379.8223" style="stroke:#181818;stroke-width:1.0;" width="10" x="632" y="290.9883"/><rect fill="#FFFFFF" height="42.9365" style="stroke:#181818;stroke-width:1.0;" width="10" x="950" y="333.9248"/><rect fill="#FFFFFF" height="31.291" style="stroke:#181818;stroke-width:1.0;" width="10" x="950" y="608.2285"/><rect fill="#FFFFFF" height="31.291" style="stroke:#181818;stroke-width:1.0;" width="10" x="1087.5" y="408.1523"/><rect fill="#FFFFFF" height="31.291" style="stroke:#181818;stroke-width:1.0;" width="10" x="1223" y="470.7344"/><rect fill="#FFFFFF" height="33.6211" style="stroke:#181818;stroke-width:1.0;" width="10" x="1357" y="543.3164"/><line style="stroke:#181818;stroke-width:0.5;stroke-dasharray:5.0,5.0;" x1="54" x2="54" y1="123.2422" y2="768.6836"/><line style="stroke:#181818;stroke-width:0.5;stroke-dasharray:5.0,5.0;" x1="207" x2="207" y1="123.2422" y2="768.6836"/><line style="stroke:#181818;stroke-width:0.5;stroke-dasharray:5.0,5.0;" x1="423.5" x2="423.5" y1="123.2422" y2="768.6836"/><line style="stroke:#181818;stroke-width:0.5;stroke-dasharray:5.0,5.0;" x1="637" x2="637" y1="123.2422" y2="768.6836"/><line style="stroke:#181818;stroke-width:0.5;stroke-dasharray:5.0,5.0;" x1="954.5" x2="954.5" y1="123.2422" y2="768.6836"/><line style="stroke:#181818;stroke-width:0.5;stroke-dasharray:5.0,5.0;" x1="1092.5" x2="1092.5" y1="123.2422" y2="768.6836"/><line style="stroke:#181818;stroke-width:0.5;stroke-dasharray:5.0,5.0;" x1="1227.5" x2="1227.5" y1="123.2422" y2="768.6836"/><line style="stroke:#181818;stroke-width:0.5;stroke-dasharray:5.0,5.0;" x1="1361.5" x2="1361.5" y1="541.8359" y2="768.6836"/><text fill="#000000" font-family="sans-serif" font-size="14" lengthAdjust="spacing" textLength="56" x="23" y="119.7285">Librarian</text><ellipse cx="54" cy="53.1211" fill="#E2E2F0" rx="8" ry="8" style="stroke:#181818;stroke-width:0.5;"/><path d="M54,61.1211 L54,88.1211 M41,69.1211 L67,69.1211 M54,88.1211 L41,103.1211 M54,88.1211 L67,103.1211 " fill="none" style="stroke:#181818;stroke-width:0.5;"/><text fill="#000000" font-family="sans-serif" font-size="14" lengthAdjust="spacing" textLength="56" x="23" y="782.791">Librarian</text><ellipse cx="54" cy="794.8047" fill="#E2E2F0" rx="8" ry="8" style="stroke:#181818;stroke-width:0.5;"/><path d="M54,802.8047 L54,829.8047 M41,810.8047 L67,810.8047 M54,829.8047 L41,844.8047 M54,829.8047 L67,844.8047 " fill="none" style="stroke:#181818;stroke-width:0.5;"/><rect fill="#E2E2F0" height="32.6211" rx="2.5" ry="2.5" style="stroke:#181818;stroke-width:0.5;" width="60" x="177" y="89.6211"/><text fill="#000000" font-family="sans-serif" font-size="14" lengthAdjust="spacing" textLength="46" x="184" y="111.7285">System</text><rect fill="#E2E2F0" height="32.6211" rx="2.5" ry="2.5" style="stroke:#181818;stroke-width:0.5;" width="60" x="177" y="767.6836"/><text fill="#000000" font-family="sans-serif" font-size="14" lengthAdjust="spacing" textLength="46" x="184" y="789.791">System</text><rect fill="#E2E2F0" height="32.6211" rx="2.5" ry="2.5" style="stroke:#181818;stroke-width:0.5;" width="131" x="358.5" y="89.6211"/><text fill="#000000" font-family="sans-serif" font-size="14" lengthAdjust="spacing" textLength="117" x="365.5" y="111.7285">:LendingController</text><rect fill="#E2E2F0" height="32.6211" rx="2.5" ry="2.5" style="stroke:#181818;stroke-width:0.5;" width="131" x="358.5" y="767.6836"/><text fill="#000000" font-family="sans-serif" font-size="14" lengthAdjust="spacing" textLength="117" x="365.5" y="789.791">:LendingController</text><rect fill="#E2E2F0" height="32.6211" rx="2.5" ry="2.5" style="stroke:#181818;stroke-width:0.5;" width="116" x="579" y="89.6211"/><text fill="#000000" font-family="sans-serif" font-size="14" lengthAdjust="spacing" textLength="102" x="586" y="111.7285">:LendingService</text><rect fill="#E2E2F0" height="32.6211" rx="2.5" ry="2.5" style="stroke:#181818;stroke-width:0.5;" width="116" x="579" y="767.6836"/><text fill="#000000" font-family="sans-serif" font-size="14" lengthAdjust="spacing" textLength="102" x="586" y="789.791">:LendingService</text><rect fill="#E2E2F0" height="32.6211" rx="2.5" ry="2.5" style="stroke:#181818;stroke-width:0.5;" width="137" x="886.5" y="89.6211"/><text fill="#000000" font-family="sans-serif" font-size="14" lengthAdjust="spacing" textLength="123" x="893.5" y="111.7285">:LendingRepository</text><rect fill="#E2E2F0" height="32.6211" rx="2.5" ry="2.5" style="stroke:#181818;stroke-width:0.5;" width="137" x="886.5" y="767.6836"/><text fill="#000000" font-family="sans-serif" font-size="14" lengthAdjust="spacing" textLength="123" x="893.5" y="789.791">:LendingRepository</text><rect fill="#E2E2F0" height="32.6211" rx="2.5" ry="2.5" style="stroke:#181818;stroke-width:0.5;" width="118" x="1033.5" y="89.6211"/><text fill="#000000" font-family="sans-serif" font-size="14" lengthAdjust="spacing" textLength="104" x="1040.5" y="111.7285">:BookRepository</text><rect fill="#E2E2F0" height="32.6211" rx="2.5" ry="2.5" style="stroke:#181818;stroke-width:0.5;" width="118" x="1033.5" y="767.6836"/><text fill="#000000" font-family="sans-serif" font-size="14" lengthAdjust="spacing" textLength="104" x="1040.5" y="789.791">:BookRepository</text><rect fill="#E2E2F0" height="32.6211" rx="2.5" ry="2.5" style="stroke:#181818;stroke-width:0.5;" width="133" x="1161.5" y="89.6211"/><text fill="#000000" font-family="sans-serif" font-size="14" lengthAdjust="spacing" textLength="119" x="1168.5" y="111.7285">:ReaderRepository</text><rect fill="#E2E2F0" height="32.6211" rx="2.5" ry="2.5" style="stroke:#181818;stroke-width:0.5;" width="133" x="1161.5" y="767.6836"/><text fill="#000000" font-family="sans-serif" font-size="14" lengthAdjust="spacing" textLength="119" x="1168.5" y="789.791">:ReaderRepository</text><rect fill="#E2E2F0" height="32.6211" rx="2.5" ry="2.5" style="stroke:#181818;stroke-width:0.5;" width="115" x="1304.5" y="767.6836"/><text fill="#000000" font-family="sans-serif" font-size="14" lengthAdjust="spacing" textLength="101" x="1311.5" y="789.791">lending:Lending</text><rect fill="#FFFFFF" height="522.2773" style="stroke:#181818;stroke-width:1.0;" width="10" x="202" y="228.4063"/><rect fill="#FFFFFF" height="442.4043" style="stroke:#181818;stroke-width:1.0;" width="10" x="419" y="259.6973"/><rect fill="#FFFFFF" height="379.8223" style="stroke:#181818;stroke-width:1.0;" width="10" x="632" y="290.9883"/><rect fill="#FFFFFF" height="42.9365" style="stroke:#181818;stroke-width:1.0;" width="10" x="950" y="333.9248"/><rect fill="#FFFFFF" height="31.291" style="stroke:#181818;stroke-width:1.0;" width="10" x="950" y="608.2285"/><rect fill="#FFFFFF" height="31.291" style="stroke:#181818;stroke-width:1.0;" width="10" x="1087.5" y="408.1523"/><rect fill="#FFFFFF" height="31.291" style="stroke:#181818;stroke-width:1.0;" width="10" x="1223" y="470.7344"/><rect fill="#FFFFFF" height="33.6211" style="stroke:#181818;stroke-width:1.0;" width="10" x="1357" y="543.3164"/><path d="M5,138.2422 L5,182.2422 L104,182.2422 L104,148.2422 L94,138.2422 L5,138.2422 " fill="#FEFFDD" style="stroke:#181818;stroke-width:0.5;"/><path d="M94,138.2422 L94,148.2422 L104,148.2422 L94,138.2422 " fill="#FEFFDD" style="stroke:#181818;stroke-width:0.5;"/><text fill="#000000" font-family="sans-serif" font-size="13" lengthAdjust="spacing" textLength="63" x="11" y="157.2705">Librarian is</text><text fill="#000000" font-family="sans-serif" font-size="13" lengthAdjust="spacing" textLength="78" x="11" y="174.5615">authenticated</text><polygon fill="#181818" points="190,224.4063,200,228.4063,190,232.4063,194,228.4063" style="stroke:#181818;stroke-width:1.0;"/><line style="stroke:#181818;stroke-width:1.0;" x1="54" x2="196" y1="228.4063" y2="228.4063"/><text fill="#000000" font-family="sans-serif" font-size="13" font-weight="bold" lengthAdjust="spacing" textLength="7" x="61" y="214.498">1</text><text fill="#000000" font-family="sans-serif" font-size="13" lengthAdjust="spacing" textLength="105" x="72" y="205.8525">request to register</text><text fill="#000000" font-family="sans-serif" font-size="13" lengthAdjust="spacing" textLength="79" x="76" y="223.1436">a new lending</text><polygon fill="#181818" points="407,255.6973,417,259.6973,407,263.6973,411,259.6973" style="stroke:#181818;stroke-width:1.0;"/><line style="stroke:#181818;stroke-width:1.0;" x1="212" x2="413" y1="259.6973" y2="259.6973"/><text fill="#000000" font-family="sans-serif" font-size="13" font-weight="bold" lengthAdjust="spacing" textLength="7" x="219" y="254.4346">2</text><text fill="#000000" font-family="sans-serif" font-size="13" lengthAdjust="spacing" textLength="177" x="230" y="254.4346">create(createLendingRequest);</text><polygon fill="#181818" points="620,286.9883,630,290.9883,620,294.9883,624,290.9883" style="stroke:#181818;stroke-width:1.0;"/><line style="stroke:#181818;stroke-width:1.0;" x1="429" x2="626" y1="290.9883" y2="290.9883"/><text fill="#000000" font-family="sans-serif" font-size="13" font-weight="bold" lengthAdjust="spacing" textLength="7" x="436" y="285.7256">3</text><text fill="#000000" font-family="sans-serif" font-size="13" lengthAdjust="spacing" textLength="173" x="447" y="285.7256">create(createLendingRequest)</text><polygon fill="#181818" points="938,329.9248,948,333.9248,938,337.9248,942,333.9248" style="stroke:#181818;stroke-width:1.0;"/><line style="stroke:#181818;stroke-width:1.0;" x1="642" x2="944" y1="333.9248" y2="333.9248"/><text fill="#000000" font-family="sans-serif" font-size="13" font-weight="bold" lengthAdjust="spacing" textLength="7" x="649" y="328.6621">4</text><text fill="#000000" font-family="sans-serif" font-size="13" lengthAdjust="spacing" textLength="278" x="660" y="328.6621">listOutstandingByReaderNumber(readerNumber)</text><path d="M965,303.9883 L965,347.9883 L1193,347.9883 L1193,313.9883 L1183,303.9883 L965,303.9883 " fill="#FEFFDD" style="stroke:#181818;stroke-width:0.5;"/><path d="M1183,303.9883 L1183,313.9883 L1193,313.9883 L1183,303.9883 " fill="#FEFFDD" style="stroke:#181818;stroke-width:0.5;"/><text fill="#000000" font-family="sans-serif" font-size="13" lengthAdjust="spacing" textLength="207" x="971" y="323.0166">Check for any outstanding lendings,</text><text fill="#000000" font-family="sans-serif" font-size="13" lengthAdjust="spacing" textLength="177" x="971" y="340.3076">or if under the allowed number.</text><polygon fill="#181818" points="653,372.8613,643,376.8613,653,380.8613,649,376.8613" style="stroke:#181818;stroke-width:1.0;"/><line style="stroke:#181818;stroke-width:1.0;stroke-dasharray:2.0,2.0;" x1="647" x2="954" y1="376.8613" y2="376.8613"/><text fill="#000000" font-family="sans-serif" font-size="13" font-weight="bold" lengthAdjust="spacing" textLength="7" x="659" y="371.5986">5</text><text fill="#000000" font-family="sans-serif" font-size="13" lengthAdjust="spacing" textLength="4" x="670" y="371.5986">&#160;</text><polygon fill="#181818" points="1075.5,404.1523,1085.5,408.1523,1075.5,412.1523,1079.5,408.1523" style="stroke:#181818;stroke-width:1.0;"/><line style="stroke:#181818;stroke-width:1.0;" x1="642" x2="1081.5" y1="408.1523" y2="408.1523"/><text fill="#000000" font-family="sans-serif" font-size="13" font-weight="bold" lengthAdjust="spacing" textLength="7" x="649" y="402.8896">6</text><text fill="#000000" font-family="sans-serif" font-size="13" lengthAdjust="spacing" textLength="92" x="660" y="402.8896">findByIsbn(isbn)</text><polygon fill="#181818" points="653,435.4434,643,439.4434,653,443.4434,649,439.4434" style="stroke:#181818;stroke-width:1.0;"/><line style="stroke:#181818;stroke-width:1.0;stroke-dasharray:2.0,2.0;" x1="647" x2="1091.5" y1="439.4434" y2="439.4434"/><text fill="#000000" font-family="sans-serif" font-size="13" font-weight="bold" lengthAdjust="spacing" textLength="7" x="659" y="434.1807">7</text><text fill="#000000" font-family="sans-serif" font-size="13" lengthAdjust="spacing" textLength="36" x="670" y="434.1807">(book)</text><polygon fill="#181818" points="1211,466.7344,1221,470.7344,1211,474.7344,1215,470.7344" style="stroke:#181818;stroke-width:1.0;"/><line style="stroke:#181818;stroke-width:1.0;" x1="642" x2="1217" y1="470.7344" y2="470.7344"/><text fill="#000000" font-family="sans-serif" font-size="13" font-weight="bold" lengthAdjust="spacing" textLength="7" x="649" y="465.4717">8</text><text fill="#000000" font-family="sans-serif" font-size="13" lengthAdjust="spacing" textLength="122" x="660" y="465.4717">findByReaderNumber</text><polygon fill="#181818" points="653,498.0254,643,502.0254,653,506.0254,649,502.0254" style="stroke:#181818;stroke-width:1.0;"/><line style="stroke:#181818;stroke-width:1.0;stroke-dasharray:2.0,2.0;" x1="647" x2="1227" y1="502.0254" y2="502.0254"/><text fill="#000000" font-family="sans-serif" font-size="13" font-weight="bold" lengthAdjust="spacing" textLength="7" x="659" y="496.7627">9</text><text fill="#000000" font-family="sans-serif" font-size="13" lengthAdjust="spacing" textLength="44" x="670" y="496.7627">(reader)</text><polygon fill="#181818" points="1292.5,529.3164,1302.5,533.3164,1292.5,537.3164,1296.5,533.3164" style="stroke:#181818;stroke-width:1.0;"/><line style="stroke:#181818;stroke-width:1.0;" x1="642" x2="1298.5" y1="533.3164" y2="533.3164"/><text fill="#000000" font-family="sans-serif" font-size="13" font-weight="bold" lengthAdjust="spacing" textLength="14" x="649" y="528.0537">10</text><text fill="#000000" font-family="sans-serif" font-size="13" lengthAdjust="spacing" textLength="4" x="667" y="528.0537">&#160;</text><rect fill="#E2E2F0" height="32.6211" rx="2.5" ry="2.5" style="stroke:#181818;stroke-width:0.5;" width="115" x="1304.5" y="510.0254"/><text fill="#000000" font-family="sans-serif" font-size="14" lengthAdjust="spacing" textLength="101" x="1311.5" y="532.1328">lending:Lending</text><polygon fill="#181818" points="653,572.9375,643,576.9375,653,580.9375,649,576.9375" style="stroke:#181818;stroke-width:1.0;"/><line style="stroke:#181818;stroke-width:1.0;stroke-dasharray:2.0,2.0;" x1="647" x2="1361" y1="576.9375" y2="576.9375"/><text fill="#000000" font-family="sans-serif" font-size="13" font-weight="bold" lengthAdjust="spacing" textLength="14" x="659" y="571.6748">11</text><text fill="#000000" font-family="sans-serif" font-size="13" lengthAdjust="spacing" textLength="49" x="677" y="571.6748">(lending)</text><polygon fill="#181818" points="938,604.2285,948,608.2285,938,612.2285,942,608.2285" style="stroke:#181818;stroke-width:1.0;"/><line style="stroke:#181818;stroke-width:1.0;" x1="642" x2="944" y1="608.2285" y2="608.2285"/><text fill="#000000" font-family="sans-serif" font-size="13" font-weight="bold" lengthAdjust="spacing" textLength="14" x="649" y="602.9658">12</text><text fill="#000000" font-family="sans-serif" font-size="13" lengthAdjust="spacing" textLength="79" x="667" y="602.9658">save (lending)</text><polygon fill="#181818" points="653,635.5195,643,639.5195,653,643.5195,649,639.5195" style="stroke:#181818;stroke-width:1.0;"/><line style="stroke:#181818;stroke-width:1.0;stroke-dasharray:2.0,2.0;" x1="647" x2="954" y1="639.5195" y2="639.5195"/><text fill="#000000" font-family="sans-serif" font-size="13" font-weight="bold" lengthAdjust="spacing" textLength="14" x="659" y="634.2568">13</text><text fill="#000000" font-family="sans-serif" font-size="13" lengthAdjust="spacing" textLength="49" x="677" y="634.2568">(lending)</text><polygon fill="#181818" points="440,666.8105,430,670.8105,440,674.8105,436,670.8105" style="stroke:#181818;stroke-width:1.0;"/><line style="stroke:#181818;stroke-width:1.0;stroke-dasharray:2.0,2.0;" x1="434" x2="636" y1="670.8105" y2="670.8105"/><text fill="#000000" font-family="sans-serif" font-size="13" font-weight="bold" lengthAdjust="spacing" textLength="14" x="446" y="665.5479">14</text><text fill="#000000" font-family="sans-serif" font-size="13" lengthAdjust="spacing" textLength="49" x="464" y="665.5479">(lending)</text><polygon fill="#181818" points="223,698.1016,213,702.1016,223,706.1016,219,702.1016" style="stroke:#181818;stroke-width:1.0;"/><line style="stroke:#181818;stroke-width:1.0;stroke-dasharray:2.0,2.0;" x1="217" x2="423" y1="702.1016" y2="702.1016"/><text fill="#000000" font-family="sans-serif" font-size="13" font-weight="bold" lengthAdjust="spacing" textLength="14" x="229" y="696.8389">15</text><text fill="#000000" font-family="sans-serif" font-size="13" lengthAdjust="spacing" textLength="77" x="247" y="696.8389">(lendingView)</text><polygon fill="#181818" points="65,746.6836,55,750.6836,65,754.6836,61,750.6836" style="stroke:#181818;stroke-width:1.0;"/><line style="stroke:#181818;stroke-width:1.0;stroke-dasharray:2.0,2.0;" x1="59" x2="206" y1="750.6836" y2="750.6836"/><text fill="#000000" font-family="sans-serif" font-size="13" font-weight="bold" lengthAdjust="spacing" textLength="14" x="71" y="736.7754">16</text><text fill="#000000" font-family="sans-serif" font-size="13" lengthAdjust="spacing" textLength="89" x="89" y="728.1299">details of newly</text><text fill="#000000" font-family="sans-serif" font-size="13" lengthAdjust="spacing" textLength="102" x="93" y="745.4209">registered lending</text><!--SRC=[XLF1Zjem4BtFLupIGq4ge4hjnIjLAfmghTfgLselUp790DOwTcexeFnznp4cWGqjXs3Fl7dsFBzvVmYXyMArQhGqeQtrihJrojEVban9Yqh9lPCro3POMGPrb87GcdvlsdfB3Y2ee0b__tptwUlousTy95FXsjfN0Awm3ej7jNNIAMaAb1ulEsYa2wfK3H-CnNFd0zKz8YslqoBIAhFVM1ESrPfS3zq4fwU1p-IEggHqv5Le6lz4ZVMAxzkDIsBq1XzRkm7dq0toYMH5xWOx106CZMeUoGsYe1YjbNynhFI13BEoyXN0a5nyEGibqCNdyW63vULUST2z69Hew8GwDGAGmB4iYYQmTCIKi_HtQRSdcZy0H504NsltxpAu1e_AOxy2DL_jHnjya7rmtIKnllT6chdHPfwqSMf_283ysnoeVCKTsqcQ3kr0aXlq7teS0zGEMyDCoCAXrDgUgC9arYL4SqPg65qC5s_wdEWaFxB0dJBLkllcjsQc-3E7d9eW4ZZRSdPAci498Z6ErO0XEysQr9f3UeYSZmuhpefaPnVtdoLdfeyuy_ptMRqyqblq_QlVvRruSu0a6uwydbE_59tc5rF7O_9a2AmeIAKzsbqS0TtnCEIvO2laYVWB]--></g></svg>