<?xml version="1.0" encoding="us-ascii" standalone="no"?><svg xmlns="http://www.w3.org/2000/svg" xmlns:xlink="http://www.w3.org/1999/xlink" contentStyleType="text/css" height="1233px" preserveAspectRatio="none" style="width:1152px;height:1233px;background:#FFFFFF;" version="1.1" viewBox="0 0 1152 1233" width="1152px" zoomAndPan="magnify"><defs/><g><rect fill="#FFFFFF" height="1052.5469" style="stroke:#181818;stroke-width:1.0;" width="10" x="35" y="91.2969"/><rect fill="#FFFFFF" height="245.2266" style="stroke:#181818;stroke-width:1.0;" width="10" x="360" y="112.4297"/><rect fill="#FFFFFF" height="404.7266" style="stroke:#181818;stroke-width:1.0;" width="10" x="360" y="386.7891"/><rect fill="#FFFFFF" height="314.1953" style="stroke:#181818;stroke-width:1.0;" width="10" x="360" y="820.6484"/><rect fill="#FFFFFF" height="186.9609" style="stroke:#181818;stroke-width:1.0;" width="10" x="574" y="141.5625"/><rect fill="#FFFFFF" height="346.4609" style="stroke:#181818;stroke-width:1.0;" width="10" x="574" y="415.9219"/><rect fill="#FFFFFF" height="255.9297" style="stroke:#181818;stroke-width:1.0;" width="10" x="574" y="849.7813"/><rect fill="#FFFFFF" height="29.1328" style="stroke:#181818;stroke-width:1.0;" width="10" x="760" y="170.6953"/><rect fill="#FFFFFF" height="70.4297" style="stroke:#181818;stroke-width:1.0;" width="10" x="914" y="228.9609"/><rect fill="#FFFFFF" height="171.6641" style="stroke:#181818;stroke-width:1.0;" width="10" x="914" y="561.5859"/><rect fill="#FFFFFF" height="40.1328" style="stroke:#181818;stroke-width:1.0;" width="10" x="919" y="656.9844"/><rect fill="#FFFFFF" height="197.6641" style="stroke:#181818;stroke-width:1.0;" width="10" x="914" y="878.9141"/><rect fill="#FFFFFF" height="40.1328" style="stroke:#181818;stroke-width:1.0;" width="10" x="919" y="916.0469"/><rect fill="#FFFFFF" height="40.1328" style="stroke:#181818;stroke-width:1.0;" width="10" x="919" y="1000.3125"/><rect fill="#FFFFFF" height="29.1328" style="stroke:#181818;stroke-width:1.0;" width="10" x="1097" y="445.0547"/><rect fill="#FFFFFF" height="29.1328" style="stroke:#181818;stroke-width:1.0;" width="10" x="1097" y="503.3203"/><rect fill="#FFFFFF" height="29.1328" style="stroke:#181818;stroke-width:1.0;" width="10" x="1097" y="590.7188"/><line style="stroke:#181818;stroke-width:0.5;stroke-dasharray:5.0,5.0;" x1="40" x2="40" y1="81.2969" y2="1152.8438"/><line style="stroke:#181818;stroke-width:0.5;stroke-dasharray:5.0,5.0;" x1="364.5" x2="364.5" y1="81.2969" y2="1152.8438"/><line style="stroke:#181818;stroke-width:0.5;stroke-dasharray:5.0,5.0;" x1="579" x2="579" y1="81.2969" y2="1152.8438"/><line style="stroke:#181818;stroke-width:0.5;stroke-dasharray:5.0,5.0;" x1="764.5" x2="764.5" y1="81.2969" y2="1152.8438"/><line style="stroke:#181818;stroke-width:0.5;stroke-dasharray:5.0,5.0;" x1="918.5" x2="918.5" y1="81.2969" y2="1152.8438"/><line style="stroke:#181818;stroke-width:0.5;stroke-dasharray:5.0,5.0;" x1="1101.5" x2="1101.5" y1="267.6094" y2="1152.8438"/><text fill="#000000" font-family="sans-serif" font-size="14" lengthAdjust="spacing" textLength="64" x="5" y="77.9951">Librarian</text><ellipse cx="40" cy="13.5" fill="#E2E2F0" rx="8" ry="8" style="stroke:#181818;stroke-width:0.5;"/><path d="M40,21.5 L40,48.5 M27,29.5 L53,29.5 M40,48.5 L27,63.5 M40,48.5 L53,63.5 " fill="none" style="stroke:#181818;stroke-width:0.5;"/><text fill="#000000" font-family="sans-serif" font-size="14" lengthAdjust="spacing" textLength="64" x="5" y="1164.8389">Librarian</text><ellipse cx="40" cy="1176.6406" fill="#E2E2F0" rx="8" ry="8" style="stroke:#181818;stroke-width:0.5;"/><path d="M40,1184.6406 L40,1211.6406 M27,1192.6406 L53,1192.6406 M40,1211.6406 L27,1226.6406 M40,1211.6406 L53,1226.6406 " fill="none" style="stroke:#181818;stroke-width:0.5;"/><rect fill="#E2E2F0" height="30.2969" rx="2.5" ry="2.5" style="stroke:#181818;stroke-width:0.5;" width="149" x="290.5" y="50"/><text fill="#000000" font-family="sans-serif" font-size="14" lengthAdjust="spacing" textLength="135" x="297.5" y="69.9951">:CreateAuthorView</text><rect fill="#E2E2F0" height="30.2969" rx="2.5" ry="2.5" style="stroke:#181818;stroke-width:0.5;" width="149" x="290.5" y="1151.8438"/><text fill="#000000" font-family="sans-serif" font-size="14" lengthAdjust="spacing" textLength="135" x="297.5" y="1171.8389">:CreateAuthorView</text><rect fill="#E2E2F0" height="30.2969" rx="2.5" ry="2.5" style="stroke:#181818;stroke-width:0.5;" width="186" x="486" y="50"/><text fill="#000000" font-family="sans-serif" font-size="14" lengthAdjust="spacing" textLength="172" x="493" y="69.9951">:CreateAuthorController</text><rect fill="#E2E2F0" height="30.2969" rx="2.5" ry="2.5" style="stroke:#181818;stroke-width:0.5;" width="186" x="486" y="1151.8438"/><text fill="#000000" font-family="sans-serif" font-size="14" lengthAdjust="spacing" textLength="172" x="493" y="1171.8389">:CreateAuthorController</text><rect fill="#E2E2F0" height="30.2969" rx="2.5" ry="2.5" style="stroke:#181818;stroke-width:0.5;" width="83" x="723.5" y="50"/><text fill="#000000" font-family="sans-serif" font-size="14" lengthAdjust="spacing" textLength="69" x="730.5" y="69.9951">:Librarian</text><rect fill="#E2E2F0" height="30.2969" rx="2.5" ry="2.5" style="stroke:#181818;stroke-width:0.5;" width="83" x="723.5" y="1151.8438"/><text fill="#000000" font-family="sans-serif" font-size="14" lengthAdjust="spacing" textLength="69" x="730.5" y="1171.8389">:Librarian</text><rect fill="#E2E2F0" height="30.2969" rx="2.5" ry="2.5" style="stroke:#181818;stroke-width:0.5;" width="205" x="816.5" y="50"/><text fill="#000000" font-family="sans-serif" font-size="14" lengthAdjust="spacing" textLength="191" x="823.5" y="69.9951">container:AuthorContainer</text><rect fill="#E2E2F0" height="30.2969" rx="2.5" ry="2.5" style="stroke:#181818;stroke-width:0.5;" width="205" x="816.5" y="1151.8438"/><text fill="#000000" font-family="sans-serif" font-size="14" lengthAdjust="spacing" textLength="191" x="823.5" y="1171.8389">container:AuthorContainer</text><rect fill="#E2E2F0" height="30.2969" rx="2.5" ry="2.5" style="stroke:#181818;stroke-width:0.5;" width="89" x="1057.5" y="1151.8438"/><text fill="#000000" font-family="sans-serif" font-size="14" lengthAdjust="spacing" textLength="75" x="1064.5" y="1171.8389">cat:Author</text><rect fill="#FFFFFF" height="1052.5469" style="stroke:#181818;stroke-width:1.0;" width="10" x="35" y="91.2969"/><rect fill="#FFFFFF" height="245.2266" style="stroke:#181818;stroke-width:1.0;" width="10" x="360" y="112.4297"/><rect fill="#FFFFFF" height="404.7266" style="stroke:#181818;stroke-width:1.0;" width="10" x="360" y="386.7891"/><rect fill="#FFFFFF" height="314.1953" style="stroke:#181818;stroke-width:1.0;" width="10" x="360" y="820.6484"/><rect fill="#FFFFFF" height="186.9609" style="stroke:#181818;stroke-width:1.0;" width="10" x="574" y="141.5625"/><rect fill="#FFFFFF" height="346.4609" style="stroke:#181818;stroke-width:1.0;" width="10" x="574" y="415.9219"/><rect fill="#FFFFFF" height="255.9297" style="stroke:#181818;stroke-width:1.0;" width="10" x="574" y="849.7813"/><rect fill="#FFFFFF" height="29.1328" style="stroke:#181818;stroke-width:1.0;" width="10" x="760" y="170.6953"/><rect fill="#FFFFFF" height="70.4297" style="stroke:#181818;stroke-width:1.0;" width="10" x="914" y="228.9609"/><rect fill="#FFFFFF" height="171.6641" style="stroke:#181818;stroke-width:1.0;" width="10" x="914" y="561.5859"/><rect fill="#FFFFFF" height="40.1328" style="stroke:#181818;stroke-width:1.0;" width="10" x="919" y="656.9844"/><rect fill="#FFFFFF" height="197.6641" style="stroke:#181818;stroke-width:1.0;" width="10" x="914" y="878.9141"/><rect fill="#FFFFFF" height="40.1328" style="stroke:#181818;stroke-width:1.0;" width="10" x="919" y="916.0469"/><rect fill="#FFFFFF" height="40.1328" style="stroke:#181818;stroke-width:1.0;" width="10" x="919" y="1000.3125"/><rect fill="#FFFFFF" height="29.1328" style="stroke:#181818;stroke-width:1.0;" width="10" x="1097" y="445.0547"/><rect fill="#FFFFFF" height="29.1328" style="stroke:#181818;stroke-width:1.0;" width="10" x="1097" y="503.3203"/><rect fill="#FFFFFF" height="29.1328" style="stroke:#181818;stroke-width:1.0;" width="10" x="1097" y="590.7188"/><polygon fill="#181818" points="348,108.4297,358,112.4297,348,116.4297,352,112.4297" style="stroke:#181818;stroke-width:1.0;"/><line style="stroke:#181818;stroke-width:1.0;" x1="45" x2="354" y1="112.4297" y2="112.4297"/><text fill="#000000" font-family="sans-serif" font-size="13" font-weight="bold" lengthAdjust="spacing" textLength="9" x="52" y="107.3638">1</text><text fill="#000000" font-family="sans-serif" font-size="13" lengthAdjust="spacing" textLength="182" x="65" y="107.3638">asks to create a new Author</text><polygon fill="#181818" points="562,137.5625,572,141.5625,562,145.5625,566,141.5625" style="stroke:#181818;stroke-width:1.0;"/><line style="stroke:#181818;stroke-width:1.0;" x1="370" x2="568" y1="141.5625" y2="141.5625"/><text fill="#000000" font-family="sans-serif" font-size="13" font-weight="bold" lengthAdjust="spacing" textLength="9" x="377" y="136.4966">2</text><text fill="#000000" font-family="sans-serif" font-size="13" lengthAdjust="spacing" textLength="94" x="390" y="136.4966">createAuthor()</text><polygon fill="#181818" points="748,166.6953,758,170.6953,748,174.6953,752,170.6953" style="stroke:#181818;stroke-width:1.0;"/><line style="stroke:#181818;stroke-width:1.0;" x1="584" x2="754" y1="170.6953" y2="170.6953"/><text fill="#000000" font-family="sans-serif" font-size="13" font-weight="bold" lengthAdjust="spacing" textLength="9" x="591" y="165.6294">3</text><text fill="#000000" font-family="sans-serif" font-size="13" lengthAdjust="spacing" textLength="144" x="604" y="165.6294">getAuthorsContainer()</text><polygon fill="#181818" points="595,195.8281,585,199.8281,595,203.8281,591,199.8281" style="stroke:#181818;stroke-width:1.0;"/><line style="stroke:#181818;stroke-width:1.0;stroke-dasharray:2.0,2.0;" x1="589" x2="764" y1="199.8281" y2="199.8281"/><text fill="#000000" font-family="sans-serif" font-size="13" font-weight="bold" lengthAdjust="spacing" textLength="9" x="601" y="194.7622">4</text><text fill="#000000" font-family="sans-serif" font-size="13" lengthAdjust="spacing" textLength="61" x="614" y="194.7622">container</text><polygon fill="#181818" points="902,224.9609,912,228.9609,902,232.9609,906,228.9609" style="stroke:#181818;stroke-width:1.0;"/><line style="stroke:#181818;stroke-width:1.0;" x1="584" x2="908" y1="228.9609" y2="228.9609"/><text fill="#000000" font-family="sans-serif" font-size="13" font-weight="bold" lengthAdjust="spacing" textLength="9" x="591" y="223.895">5</text><text fill="#000000" font-family="sans-serif" font-size="13" lengthAdjust="spacing" textLength="51" x="604" y="223.895">create()</text><polygon fill="#181818" points="1045.5,254.0938,1055.5,258.0938,1045.5,262.0938,1049.5,258.0938" style="stroke:#181818;stroke-width:1.0;"/><line style="stroke:#181818;stroke-width:1.0;stroke-dasharray:2.0,2.0;" x1="924" x2="1051.5" y1="258.0938" y2="258.0938"/><text fill="#000000" font-family="sans-serif" font-size="13" font-weight="bold" lengthAdjust="spacing" textLength="9" x="931" y="253.0278">6</text><text fill="#000000" font-family="sans-serif" font-size="13" lengthAdjust="spacing" textLength="51" x="944" y="253.0278">create()</text><rect fill="#E2E2F0" height="30.2969" rx="2.5" ry="2.5" style="stroke:#181818;stroke-width:0.5;" width="89" x="1057.5" y="236.9609"/><text fill="#000000" font-family="sans-serif" font-size="14" lengthAdjust="spacing" textLength="75" x="1064.5" y="256.9561">cat:Author</text><polygon fill="#181818" points="595,295.3906,585,299.3906,595,303.3906,591,299.3906" style="stroke:#181818;stroke-width:1.0;"/><line style="stroke:#181818;stroke-width:1.0;stroke-dasharray:2.0,2.0;" x1="589" x2="918" y1="299.3906" y2="299.3906"/><text fill="#000000" font-family="sans-serif" font-size="13" font-weight="bold" lengthAdjust="spacing" textLength="9" x="601" y="294.3247">7</text><text fill="#000000" font-family="sans-serif" font-size="13" lengthAdjust="spacing" textLength="20" x="614" y="294.3247">cat</text><polygon fill="#181818" points="381,324.5234,371,328.5234,381,332.5234,377,328.5234" style="stroke:#181818;stroke-width:1.0;"/><line style="stroke:#181818;stroke-width:1.0;stroke-dasharray:2.0,2.0;" x1="375" x2="578" y1="328.5234" y2="328.5234"/><text fill="#000000" font-family="sans-serif" font-size="13" font-weight="bold" lengthAdjust="spacing" textLength="9" x="387" y="323.4575">8</text><text fill="#000000" font-family="sans-serif" font-size="13" lengthAdjust="spacing" textLength="16" x="400" y="323.4575">ok</text><polygon fill="#181818" points="56,353.6563,46,357.6563,56,361.6563,52,357.6563" style="stroke:#181818;stroke-width:1.0;"/><line style="stroke:#181818;stroke-width:1.0;stroke-dasharray:2.0,2.0;" x1="50" x2="364" y1="357.6563" y2="357.6563"/><text fill="#000000" font-family="sans-serif" font-size="13" font-weight="bold" lengthAdjust="spacing" textLength="9" x="62" y="352.5903">9</text><text fill="#000000" font-family="sans-serif" font-size="13" lengthAdjust="spacing" textLength="205" x="75" y="352.5903">requests data (name, short bio)</text><polygon fill="#181818" points="348,382.7891,358,386.7891,348,390.7891,352,386.7891" style="stroke:#181818;stroke-width:1.0;"/><line style="stroke:#181818;stroke-width:1.0;" x1="45" x2="354" y1="386.7891" y2="386.7891"/><text fill="#000000" font-family="sans-serif" font-size="13" font-weight="bold" lengthAdjust="spacing" textLength="18" x="52" y="381.7231">10</text><text fill="#000000" font-family="sans-serif" font-size="13" lengthAdjust="spacing" textLength="138" x="74" y="381.7231">types requested data</text><polygon fill="#181818" points="562,411.9219,572,415.9219,562,419.9219,566,415.9219" style="stroke:#181818;stroke-width:1.0;"/><line style="stroke:#181818;stroke-width:1.0;" x1="370" x2="568" y1="415.9219" y2="415.9219"/><text fill="#000000" font-family="sans-serif" font-size="13" font-weight="bold" lengthAdjust="spacing" textLength="18" x="377" y="410.856">11</text><text fill="#000000" font-family="sans-serif" font-size="13" lengthAdjust="spacing" textLength="163" x="399" y="410.856">setData(name, short bio)</text><polygon fill="#181818" points="1085,441.0547,1095,445.0547,1085,449.0547,1089,445.0547" style="stroke:#181818;stroke-width:1.0;"/><line style="stroke:#181818;stroke-width:1.0;" x1="584" x2="1091" y1="445.0547" y2="445.0547"/><text fill="#000000" font-family="sans-serif" font-size="13" font-weight="bold" lengthAdjust="spacing" textLength="18" x="591" y="439.9888">12</text><text fill="#000000" font-family="sans-serif" font-size="13" lengthAdjust="spacing" textLength="100" x="613" y="439.9888">setCode(name)</text><polygon fill="#181818" points="595,470.1875,585,474.1875,595,478.1875,591,474.1875" style="stroke:#181818;stroke-width:1.0;"/><line style="stroke:#181818;stroke-width:1.0;stroke-dasharray:2.0,2.0;" x1="589" x2="1101" y1="474.1875" y2="474.1875"/><text fill="#000000" font-family="sans-serif" font-size="13" font-weight="bold" lengthAdjust="spacing" textLength="18" x="601" y="469.1216">13</text><text fill="#000000" font-family="sans-serif" font-size="13" lengthAdjust="spacing" textLength="16" x="623" y="469.1216">ok</text><polygon fill="#181818" points="1085,499.3203,1095,503.3203,1085,507.3203,1089,503.3203" style="stroke:#181818;stroke-width:1.0;"/><line style="stroke:#181818;stroke-width:1.0;" x1="584" x2="1091" y1="503.3203" y2="503.3203"/><text fill="#000000" font-family="sans-serif" font-size="13" font-weight="bold" lengthAdjust="spacing" textLength="18" x="591" y="498.2544">14</text><text fill="#000000" font-family="sans-serif" font-size="13" lengthAdjust="spacing" textLength="161" x="613" y="498.2544">setDescription(short bio)</text><polygon fill="#181818" points="595,528.4531,585,532.4531,595,536.4531,591,532.4531" style="stroke:#181818;stroke-width:1.0;"/><line style="stroke:#181818;stroke-width:1.0;stroke-dasharray:2.0,2.0;" x1="589" x2="1101" y1="532.4531" y2="532.4531"/><text fill="#000000" font-family="sans-serif" font-size="13" font-weight="bold" lengthAdjust="spacing" textLength="18" x="601" y="527.3872">15</text><text fill="#000000" font-family="sans-serif" font-size="13" lengthAdjust="spacing" textLength="16" x="623" y="527.3872">ok</text><polygon fill="#181818" points="902,557.5859,912,561.5859,902,565.5859,906,561.5859" style="stroke:#181818;stroke-width:1.0;"/><line style="stroke:#181818;stroke-width:1.0;" x1="584" x2="908" y1="561.5859" y2="561.5859"/><text fill="#000000" font-family="sans-serif" font-size="13" font-weight="bold" lengthAdjust="spacing" textLength="18" x="591" y="556.52">16</text><text fill="#000000" font-family="sans-serif" font-size="13" lengthAdjust="spacing" textLength="83" x="613" y="556.52">validate(cat)</text><polygon fill="#181818" points="1085,586.7188,1095,590.7188,1085,594.7188,1089,590.7188" style="stroke:#181818;stroke-width:1.0;"/><line style="stroke:#181818;stroke-width:1.0;" x1="924" x2="1091" y1="590.7188" y2="590.7188"/><text fill="#000000" font-family="sans-serif" font-size="13" font-weight="bold" lengthAdjust="spacing" textLength="18" x="931" y="585.6528">17</text><text fill="#000000" font-family="sans-serif" font-size="13" lengthAdjust="spacing" textLength="54" x="953" y="585.6528">isValid()</text><polygon fill="#181818" points="935,615.8516,925,619.8516,935,623.8516,931,619.8516" style="stroke:#181818;stroke-width:1.0;"/><line style="stroke:#181818;stroke-width:1.0;stroke-dasharray:2.0,2.0;" x1="929" x2="1101" y1="619.8516" y2="619.8516"/><text fill="#000000" font-family="sans-serif" font-size="13" font-weight="bold" lengthAdjust="spacing" textLength="18" x="941" y="614.7856">18</text><text fill="#000000" font-family="sans-serif" font-size="13" lengthAdjust="spacing" textLength="16" x="963" y="614.7856">ok</text><line style="stroke:#181818;stroke-width:1.0;" x1="924" x2="971" y1="643.9844" y2="643.9844"/><line style="stroke:#181818;stroke-width:1.0;" x1="971" x2="971" y1="643.9844" y2="656.9844"/><line style="stroke:#181818;stroke-width:1.0;" x1="930" x2="971" y1="656.9844" y2="656.9844"/><polygon fill="#181818" points="940,652.9844,930,656.9844,940,660.9844,936,656.9844" style="stroke:#181818;stroke-width:1.0;"/><text fill="#000000" font-family="sans-serif" font-size="13" font-weight="bold" lengthAdjust="spacing" textLength="18" x="936" y="638.9185">19</text><text fill="#000000" font-family="sans-serif" font-size="13" lengthAdjust="spacing" textLength="137" x="958" y="638.9185">checkDuplicates(cat)</text><line style="stroke:#181818;stroke-width:1.0;stroke-dasharray:2.0,2.0;" x1="929" x2="971" y1="696.1172" y2="696.1172"/><line style="stroke:#181818;stroke-width:1.0;stroke-dasharray:2.0,2.0;" x1="971" x2="971" y1="696.1172" y2="709.1172"/><line style="stroke:#181818;stroke-width:1.0;stroke-dasharray:2.0,2.0;" x1="924" x2="971" y1="709.1172" y2="709.1172"/><polygon fill="#181818" points="934,705.1172,924,709.1172,934,713.1172,930,709.1172" style="stroke:#181818;stroke-width:1.0;"/><text fill="#000000" font-family="sans-serif" font-size="13" font-weight="bold" lengthAdjust="spacing" textLength="18" x="936" y="691.0513">20</text><text fill="#000000" font-family="sans-serif" font-size="13" lengthAdjust="spacing" textLength="16" x="958" y="691.0513">ok</text><polygon fill="#181818" points="595,729.25,585,733.25,595,737.25,591,733.25" style="stroke:#181818;stroke-width:1.0;"/><line style="stroke:#181818;stroke-width:1.0;stroke-dasharray:2.0,2.0;" x1="589" x2="918" y1="733.25" y2="733.25"/><text fill="#000000" font-family="sans-serif" font-size="13" font-weight="bold" lengthAdjust="spacing" textLength="18" x="601" y="728.1841">21</text><text fill="#000000" font-family="sans-serif" font-size="13" lengthAdjust="spacing" textLength="16" x="623" y="728.1841">ok</text><polygon fill="#181818" points="381,758.3828,371,762.3828,381,766.3828,377,762.3828" style="stroke:#181818;stroke-width:1.0;"/><line style="stroke:#181818;stroke-width:1.0;stroke-dasharray:2.0,2.0;" x1="375" x2="578" y1="762.3828" y2="762.3828"/><text fill="#000000" font-family="sans-serif" font-size="13" font-weight="bold" lengthAdjust="spacing" textLength="18" x="387" y="757.3169">22</text><text fill="#000000" font-family="sans-serif" font-size="13" lengthAdjust="spacing" textLength="16" x="409" y="757.3169">ok</text><polygon fill="#181818" points="56,787.5156,46,791.5156,56,795.5156,52,791.5156" style="stroke:#181818;stroke-width:1.0;"/><line style="stroke:#181818;stroke-width:1.0;stroke-dasharray:2.0,2.0;" x1="50" x2="364" y1="791.5156" y2="791.5156"/><text fill="#000000" font-family="sans-serif" font-size="13" font-weight="bold" lengthAdjust="spacing" textLength="18" x="62" y="786.4497">23</text><text fill="#000000" font-family="sans-serif" font-size="13" lengthAdjust="spacing" textLength="269" x="84" y="786.4497">shows all data and requests confirmation</text><polygon fill="#181818" points="348,816.6484,358,820.6484,348,824.6484,352,820.6484" style="stroke:#181818;stroke-width:1.0;"/><line style="stroke:#181818;stroke-width:1.0;" x1="45" x2="354" y1="820.6484" y2="820.6484"/><text fill="#000000" font-family="sans-serif" font-size="13" font-weight="bold" lengthAdjust="spacing" textLength="18" x="52" y="815.5825">24</text><text fill="#000000" font-family="sans-serif" font-size="13" lengthAdjust="spacing" textLength="115" x="74" y="815.5825">confirms the data</text><polygon fill="#181818" points="562,845.7813,572,849.7813,562,853.7813,566,849.7813" style="stroke:#181818;stroke-width:1.0;"/><line style="stroke:#181818;stroke-width:1.0;" x1="370" x2="568" y1="849.7813" y2="849.7813"/><text fill="#000000" font-family="sans-serif" font-size="13" font-weight="bold" lengthAdjust="spacing" textLength="18" x="377" y="844.7153">25</text><text fill="#000000" font-family="sans-serif" font-size="13" lengthAdjust="spacing" textLength="135" x="399" y="844.7153">saveCreatedAuthor()</text><polygon fill="#181818" points="902,874.9141,912,878.9141,902,882.9141,906,878.9141" style="stroke:#181818;stroke-width:1.0;"/><line style="stroke:#181818;stroke-width:1.0;" x1="584" x2="908" y1="878.9141" y2="878.9141"/><text fill="#000000" font-family="sans-serif" font-size="13" font-weight="bold" lengthAdjust="spacing" textLength="18" x="591" y="873.8481">26</text><text fill="#000000" font-family="sans-serif" font-size="13" lengthAdjust="spacing" textLength="61" x="613" y="873.8481">save(cat)</text><line style="stroke:#181818;stroke-width:1.0;" x1="924" x2="971" y1="903.0469" y2="903.0469"/><line style="stroke:#181818;stroke-width:1.0;" x1="971" x2="971" y1="903.0469" y2="916.0469"/><line style="stroke:#181818;stroke-width:1.0;" x1="930" x2="971" y1="916.0469" y2="916.0469"/><polygon fill="#181818" points="940,912.0469,930,916.0469,940,920.0469,936,916.0469" style="stroke:#181818;stroke-width:1.0;"/><text fill="#000000" font-family="sans-serif" font-size="13" font-weight="bold" lengthAdjust="spacing" textLength="18" x="936" y="897.981">27</text><text fill="#000000" font-family="sans-serif" font-size="13" lengthAdjust="spacing" textLength="83" x="958" y="897.981">validate(cat)</text><line style="stroke:#181818;stroke-width:1.0;stroke-dasharray:2.0,2.0;" x1="929" x2="971" y1="955.1797" y2="955.1797"/><line style="stroke:#181818;stroke-width:1.0;stroke-dasharray:2.0,2.0;" x1="971" x2="971" y1="955.1797" y2="968.1797"/><line style="stroke:#181818;stroke-width:1.0;stroke-dasharray:2.0,2.0;" x1="924" x2="971" y1="968.1797" y2="968.1797"/><polygon fill="#181818" points="934,964.1797,924,968.1797,934,972.1797,930,968.1797" style="stroke:#181818;stroke-width:1.0;"/><text fill="#000000" font-family="sans-serif" font-size="13" font-weight="bold" lengthAdjust="spacing" textLength="18" x="936" y="950.1138">28</text><text fill="#000000" font-family="sans-serif" font-size="13" lengthAdjust="spacing" textLength="16" x="958" y="950.1138">ok</text><line style="stroke:#181818;stroke-width:1.0;" x1="924" x2="971" y1="987.3125" y2="987.3125"/><line style="stroke:#181818;stroke-width:1.0;" x1="971" x2="971" y1="987.3125" y2="1000.3125"/><line style="stroke:#181818;stroke-width:1.0;" x1="930" x2="971" y1="1000.3125" y2="1000.3125"/><polygon fill="#181818" points="940,996.3125,930,1000.3125,940,1004.3125,936,1000.3125" style="stroke:#181818;stroke-width:1.0;"/><text fill="#000000" font-family="sans-serif" font-size="13" font-weight="bold" lengthAdjust="spacing" textLength="18" x="936" y="982.2466">29</text><text fill="#000000" font-family="sans-serif" font-size="13" lengthAdjust="spacing" textLength="54" x="958" y="982.2466">add(cat)</text><line style="stroke:#181818;stroke-width:1.0;stroke-dasharray:2.0,2.0;" x1="929" x2="971" y1="1039.4453" y2="1039.4453"/><line style="stroke:#181818;stroke-width:1.0;stroke-dasharray:2.0,2.0;" x1="971" x2="971" y1="1039.4453" y2="1052.4453"/><line style="stroke:#181818;stroke-width:1.0;stroke-dasharray:2.0,2.0;" x1="924" x2="971" y1="1052.4453" y2="1052.4453"/><polygon fill="#181818" points="934,1048.4453,924,1052.4453,934,1056.4453,930,1052.4453" style="stroke:#181818;stroke-width:1.0;"/><text fill="#000000" font-family="sans-serif" font-size="13" font-weight="bold" lengthAdjust="spacing" textLength="18" x="936" y="1034.3794">30</text><text fill="#000000" font-family="sans-serif" font-size="13" lengthAdjust="spacing" textLength="16" x="958" y="1034.3794">ok</text><polygon fill="#181818" points="595,1072.5781,585,1076.5781,595,1080.5781,591,1076.5781" style="stroke:#181818;stroke-width:1.0;"/><line style="stroke:#181818;stroke-width:1.0;stroke-dasharray:2.0,2.0;" x1="589" x2="918" y1="1076.5781" y2="1076.5781"/><text fill="#000000" font-family="sans-serif" font-size="13" font-weight="bold" lengthAdjust="spacing" textLength="18" x="601" y="1071.5122">31</text><text fill="#000000" font-family="sans-serif" font-size="13" lengthAdjust="spacing" textLength="16" x="623" y="1071.5122">ok</text><polygon fill="#181818" points="381,1101.7109,371,1105.7109,381,1109.7109,377,1105.7109" style="stroke:#181818;stroke-width:1.0;"/><line style="stroke:#181818;stroke-width:1.0;stroke-dasharray:2.0,2.0;" x1="375" x2="578" y1="1105.7109" y2="1105.7109"/><text fill="#000000" font-family="sans-serif" font-size="13" font-weight="bold" lengthAdjust="spacing" textLength="18" x="387" y="1100.645">32</text><text fill="#000000" font-family="sans-serif" font-size="13" lengthAdjust="spacing" textLength="16" x="409" y="1100.645">ok</text><polygon fill="#181818" points="56,1130.8438,46,1134.8438,56,1138.8438,52,1134.8438" style="stroke:#181818;stroke-width:1.0;"/><line style="stroke:#181818;stroke-width:1.0;stroke-dasharray:2.0,2.0;" x1="50" x2="364" y1="1134.8438" y2="1134.8438"/><text fill="#000000" font-family="sans-serif" font-size="13" font-weight="bold" lengthAdjust="spacing" textLength="18" x="62" y="1129.7778">33</text><text fill="#000000" font-family="sans-serif" font-size="13" lengthAdjust="spacing" textLength="171" x="84" y="1129.7778">informs operation success</text><!--SRC=[jLExRkCm4Epr5GitiOFpkLSH8B3Bwmv9loOtCM69r75NDlBtnuUULfnKQGnnTsQMCqi_d4GQBdUxfa8hRLtzLgxUCVrhoIhQQeFl7kkYm5OSAZ4N509dqzcszP5yw2bn7bP_pD6ZDsXNW0ml75eDUZ7AD44QLkNUKs0_jt9o_jNGDU7-Vh1G_GLoxwnuLrNa4tullhf1pmSFfpbA1HaqbdmvogPpLkrFDoIK3fvG-JCPpa4aaqNyXUrJPwKCo3E3E5391I1OklRSZ8deQAJiCBcvtXIn69k3YHBUINARXqi6u020xQWrcEXb1aO_A8xeQucPfHyVxm8wQPHETEBJdGSxeHfJAC77byF2e54GrXPh-WKSHWWSZTiimvAFXhYdaKwyHKfCSWZrfLnlDDj8mBtJb82R8bVZxR9CkF0dX0EnygOHu-nw8ZsIOS6Uv7h1okWON8Xebjqum_1h1AtdcgD459xofbixaJeVsgOoGPvuCMIAXbkbvSs_MLvmVsN0gihRGwl7VOR7zMPyZJ6cvHQxRdZs9xgpGhnG_blhnMkV68wmJwASchoR-9TXpAQWrZySfR5lBkRX6l8fC-1MAM8k_WC0]--></g></svg>