<?xml version="1.0" encoding="us-ascii" standalone="no"?><svg xmlns="http://www.w3.org/2000/svg" xmlns:xlink="http://www.w3.org/1999/xlink" contentStyleType="text/css" height="688.8px" preserveAspectRatio="none" style="width:659px;height:688px;background:#FFFFFF;" version="1.1" viewBox="0 0 659 688" width="659.4px" zoomAndPan="magnify"><defs/><g><!--class ReaderRepository--><g id="elem_ReaderRepository"><rect codeLine="3" fill="#F1F1F1" height="46.9475" id="ReaderRepository" rx="1.75" ry="1.75" style="stroke:#181818;stroke-width:0.3499999999999999;" width="219.8" x="434.7" y="565.6"/><ellipse cx="502.775" cy="576.8" fill="#B4A7E5" rx="7.7" ry="7.7" style="stroke:#181818;stroke-width:0.6999999999999998;"/><path d="M499.9969,581.35 L499.9969,580.1578 L501.6484,579.9719 L501.6484,574.2297 L499.9969,574.0437 L499.9969,572.8516 L504.9953,572.8516 L504.9953,574.0437 L503.3,574.2297 L503.3,579.9719 L504.9953,580.1578 L504.9953,581.35 L499.9969,581.35 Z " fill="#000000"/><text fill="#000000" font-family="sans-serif" font-size="9.8" font-style="italic" lengthAdjust="spacing" textLength="77.7" x="517.125" y="580.6024">ReaderRepository</text><line style="stroke:#181818;stroke-width:0.3499999999999999;" x1="435.4" x2="653.8" y1="588" y2="588"/><line style="stroke:#181818;stroke-width:0.3499999999999999;" x1="435.4" x2="653.8" y1="593.6" y2="593.6"/><ellipse cx="442.4" cy="604.1238" fill="#84BE84" rx="2.1" ry="2.1" style="stroke:#038048;stroke-width:0.6999999999999998;"/><text fill="#000000" font-family="sans-serif" font-size="9.8" lengthAdjust="spacing" textLength="201.6" x="448.7" y="606.8762">searchReaderDetails(): List&lt;ReaderDetails&gt;</text></g><!--class ReaderService--><g id="elem_ReaderService"><rect codeLine="7" fill="#F1F1F1" height="46.9475" id="ReaderService" rx="1.75" ry="1.75" style="stroke:#181818;stroke-width:0.3499999999999999;" width="296.1" x="282.45" y="220.647"/><ellipse cx="393.925" cy="231.847" fill="#ADD1B2" rx="7.7" ry="7.7" style="stroke:#181818;stroke-width:0.6999999999999998;"/><path d="M393.5531,236.6923 Q392.3281,236.6923 391.5297,236.1782 Q390.7422,235.6532 390.3484,234.7126 Q389.9656,233.7611 389.9656,232.5032 Q389.9656,231.0814 390.425,230.0642 Q390.8844,229.047 391.7812,228.5001 Q392.6781,227.9532 393.9906,227.9532 Q394.6141,227.9532 395.0844,228.0845 Q395.5547,228.2048 396.0359,228.4454 L395.4672,229.8564 Q395.0297,229.6376 394.6469,229.5501 Q394.275,229.4626 393.9359,229.4626 Q393.1156,229.4626 392.6234,229.8345 Q392.1312,230.2064 391.9234,230.8736 Q391.7156,231.5407 391.7156,232.4267 Q391.7156,233.8376 392.2187,234.5157 Q392.7219,235.1829 393.8375,235.1829 Q394.2531,235.1829 394.6906,235.0736 Q395.1281,234.9642 395.7078,234.7017 L395.7078,236.2548 Q395.1937,236.4736 394.6359,236.5829 Q394.0891,236.6923 393.5531,236.6923 Z " fill="#000000"/><text fill="#000000" font-family="sans-serif" font-size="9.8" lengthAdjust="spacing" textLength="67.2" x="408.275" y="235.6494">ReaderService</text><line style="stroke:#181818;stroke-width:0.3499999999999999;" x1="283.15" x2="577.85" y1="243.047" y2="243.047"/><line style="stroke:#181818;stroke-width:0.3499999999999999;" x1="283.15" x2="577.85" y1="248.647" y2="248.647"/><ellipse cx="290.15" cy="259.1708" fill="#84BE84" rx="2.1" ry="2.1" style="stroke:#038048;stroke-width:0.6999999999999998;"/><text fill="#000000" font-family="sans-serif" font-size="9.8" lengthAdjust="spacing" textLength="277.9" x="296.45" y="261.9232">searchReaders(phoneNumber: String): List&lt;ReaderDetails&gt;</text></g><!--class ReaderServiceImpl--><g id="elem_ReaderServiceImpl"><rect codeLine="11" fill="#F1F1F1" height="60.2951" id="ReaderServiceImpl" rx="1.75" ry="1.75" style="stroke:#181818;stroke-width:0.3499999999999999;" width="296.1" x="282.45" y="316.274"/><ellipse cx="383.075" cy="327.474" fill="#ADD1B2" rx="7.7" ry="7.7" style="stroke:#181818;stroke-width:0.6999999999999998;"/><path d="M382.7031,332.3193 Q381.4781,332.3193 380.6797,331.8052 Q379.8922,331.2802 379.4984,330.3396 Q379.1156,329.3881 379.1156,328.1303 Q379.1156,326.7084 379.575,325.6912 Q380.0344,324.674 380.9312,324.1271 Q381.8281,323.5803 383.1406,323.5803 Q383.7641,323.5803 384.2344,323.7115 Q384.7047,323.8318 385.1859,324.0724 L384.6172,325.4834 Q384.1797,325.2646 383.7969,325.1771 Q383.425,325.0896 383.0859,325.0896 Q382.2656,325.0896 381.7734,325.4615 Q381.2812,325.8334 381.0734,326.5006 Q380.8656,327.1677 380.8656,328.0537 Q380.8656,329.4646 381.3687,330.1428 Q381.8719,330.8099 382.9875,330.8099 Q383.4031,330.8099 383.8406,330.7006 Q384.2781,330.5912 384.8578,330.3287 L384.8578,331.8818 Q384.3437,332.1006 383.7859,332.2099 Q383.2391,332.3193 382.7031,332.3193 Z " fill="#000000"/><text fill="#000000" font-family="sans-serif" font-size="9.8" lengthAdjust="spacing" textLength="88.9" x="397.425" y="331.2764">ReaderServiceImpl</text><line style="stroke:#181818;stroke-width:0.3499999999999999;" x1="283.15" x2="577.85" y1="338.674" y2="338.674"/><rect fill="none" height="4.2" style="stroke:#C82930;stroke-width:0.6999999999999998;" width="4.2" x="288.05" y="347.0978"/><text fill="#000000" font-family="sans-serif" font-size="9.8" lengthAdjust="spacing" textLength="170.1" x="296.45" y="351.9502">readerRepository: ReaderRepository</text><line style="stroke:#181818;stroke-width:0.3499999999999999;" x1="283.15" x2="577.85" y1="357.6215" y2="357.6215"/><ellipse cx="290.15" cy="368.1453" fill="#84BE84" rx="2.1" ry="2.1" style="stroke:#038048;stroke-width:0.6999999999999998;"/><text fill="#000000" font-family="sans-serif" font-size="9.8" lengthAdjust="spacing" textLength="277.9" x="296.45" y="370.8977">searchReaders(phoneNumber: String): List&lt;ReaderDetails&gt;</text></g><!--class ReaderController--><g id="elem_ReaderController"><rect codeLine="16" fill="#F1F1F1" height="60.2951" id="ReaderController" rx="1.75" ry="1.75" style="stroke:#181818;stroke-width:0.3499999999999999;" width="221.2" x="36.4" y="213.976"/><ellipse cx="103.775" cy="225.176" fill="#ADD1B2" rx="7.7" ry="7.7" style="stroke:#181818;stroke-width:0.6999999999999998;"/><path d="M103.4031,230.0213 Q102.1781,230.0213 101.3797,229.5073 Q100.5922,228.9823 100.1984,228.0416 Q99.8156,227.0901 99.8156,225.8323 Q99.8156,224.4104 100.275,223.3932 Q100.7344,222.376 101.6312,221.8291 Q102.5281,221.2823 103.8406,221.2823 Q104.4641,221.2823 104.9344,221.4135 Q105.4047,221.5338 105.8859,221.7744 L105.3172,223.1854 Q104.8797,222.9666 104.4969,222.8791 Q104.125,222.7916 103.7859,222.7916 Q102.9656,222.7916 102.4734,223.1635 Q101.9812,223.5354 101.7734,224.2026 Q101.5656,224.8697 101.5656,225.7557 Q101.5656,227.1666 102.0687,227.8448 Q102.5719,228.5119 103.6875,228.5119 Q104.1031,228.5119 104.5406,228.4026 Q104.9781,228.2932 105.5578,228.0307 L105.5578,229.5838 Q105.0437,229.8026 104.4859,229.9119 Q103.9391,230.0213 103.4031,230.0213 Z " fill="#000000"/><text fill="#000000" font-family="sans-serif" font-size="9.8" lengthAdjust="spacing" textLength="80.5" x="118.125" y="228.9784">ReaderController</text><line style="stroke:#181818;stroke-width:0.3499999999999999;" x1="37.1" x2="256.9" y1="236.376" y2="236.376"/><rect fill="none" height="4.2" style="stroke:#C82930;stroke-width:0.6999999999999998;" width="4.2" x="42" y="244.7998"/><text fill="#000000" font-family="sans-serif" font-size="9.8" lengthAdjust="spacing" textLength="137.9" x="50.4" y="249.6522">readerService: ReaderService</text><line style="stroke:#181818;stroke-width:0.3499999999999999;" x1="37.1" x2="256.9" y1="255.3235" y2="255.3235"/><ellipse cx="44.1" cy="265.8473" fill="#84BE84" rx="2.1" ry="2.1" style="stroke:#038048;stroke-width:0.6999999999999998;"/><text fill="#000000" font-family="sans-serif" font-size="9.8" lengthAdjust="spacing" textLength="203" x="50.4" y="268.5997">findByPhoneNumber(): List&lt;ReaderDetails&gt;</text></g><!--class ReaderView--><g id="elem_ReaderView"><rect codeLine="21" fill="#F1F1F1" height="167.0754" id="ReaderView" rx="1.75" ry="1.75" style="stroke:#181818;stroke-width:0.3499999999999999;" width="186.9" x="313.25" y="4.9"/><ellipse cx="376.075" cy="16.1" fill="#ADD1B2" rx="7.7" ry="7.7" style="stroke:#181818;stroke-width:0.6999999999999998;"/><path d="M375.7031,20.9453 Q374.4781,20.9453 373.6797,20.4312 Q372.8922,19.9062 372.4984,18.9656 Q372.1156,18.0141 372.1156,16.7562 Q372.1156,15.3344 372.575,14.3172 Q373.0344,13.3 373.9312,12.7531 Q374.8281,12.2062 376.1406,12.2062 Q376.7641,12.2062 377.2344,12.3375 Q377.7047,12.4578 378.1859,12.6984 L377.6172,14.1094 Q377.1797,13.8906 376.7969,13.8031 Q376.425,13.7156 376.0859,13.7156 Q375.2656,13.7156 374.7734,14.0875 Q374.2812,14.4594 374.0734,15.1266 Q373.8656,15.7937 373.8656,16.6797 Q373.8656,18.0906 374.3687,18.7687 Q374.8719,19.4359 375.9875,19.4359 Q376.4031,19.4359 376.8406,19.3266 Q377.2781,19.2172 377.8578,18.9547 L377.8578,20.5078 Q377.3437,20.7266 376.7859,20.8359 Q376.2391,20.9453 375.7031,20.9453 Z " fill="#000000"/><text fill="#000000" font-family="sans-serif" font-size="9.8" lengthAdjust="spacing" textLength="55.3" x="390.425" y="19.9024">ReaderView</text><line style="stroke:#181818;stroke-width:0.3499999999999999;" x1="313.95" x2="499.45" y1="27.3" y2="27.3"/><rect fill="none" height="4.2" style="stroke:#C82930;stroke-width:0.6999999999999998;" width="4.2" x="318.85" y="35.7238"/><text fill="#000000" font-family="sans-serif" font-size="9.8" lengthAdjust="spacing" textLength="107.8" x="327.25" y="40.5762">readerNumber : String</text><rect fill="none" height="4.2" style="stroke:#C82930;stroke-width:0.6999999999999998;" width="4.2" x="318.85" y="49.0713"/><text fill="#000000" font-family="sans-serif" font-size="9.8" lengthAdjust="spacing" textLength="63" x="327.25" y="53.9237">email : String</text><rect fill="none" height="4.2" style="stroke:#C82930;stroke-width:0.6999999999999998;" width="4.2" x="318.85" y="62.4189"/><text fill="#000000" font-family="sans-serif" font-size="9.8" lengthAdjust="spacing" textLength="80.5" x="327.25" y="67.2712">fullName : String</text><rect fill="none" height="4.2" style="stroke:#C82930;stroke-width:0.6999999999999998;" width="4.2" x="318.85" y="75.7664"/><text fill="#000000" font-family="sans-serif" font-size="9.8" lengthAdjust="spacing" textLength="81.9" x="327.25" y="80.6188">birthDate : String</text><rect fill="none" height="4.2" style="stroke:#C82930;stroke-width:0.6999999999999998;" width="4.2" x="318.85" y="89.1139"/><text fill="#000000" font-family="sans-serif" font-size="9.8" lengthAdjust="spacing" textLength="106.4" x="327.25" y="93.9663">phoneNumber : String</text><rect fill="none" height="4.2" style="stroke:#C82930;stroke-width:0.6999999999999998;" width="4.2" x="318.85" y="102.4615"/><text fill="#000000" font-family="sans-serif" font-size="9.8" lengthAdjust="spacing" textLength="64.4" x="327.25" y="107.3139">photo : String</text><rect fill="none" height="4.2" style="stroke:#C82930;stroke-width:0.6999999999999998;" width="4.2" x="318.85" y="115.809"/><text fill="#000000" font-family="sans-serif" font-size="9.8" lengthAdjust="spacing" textLength="107.8" x="327.25" y="120.6614">gdprConsent : boolean</text><rect fill="none" height="4.2" style="stroke:#C82930;stroke-width:0.6999999999999998;" width="4.2" x="318.85" y="129.1566"/><text fill="#000000" font-family="sans-serif" font-size="9.8" lengthAdjust="spacing" textLength="133" x="327.25" y="134.0089">marketingConsent : boolean</text><rect fill="none" height="4.2" style="stroke:#C82930;stroke-width:0.6999999999999998;" width="4.2" x="318.85" y="142.5041"/><text fill="#000000" font-family="sans-serif" font-size="9.8" lengthAdjust="spacing" textLength="168.7" x="327.25" y="147.3565">thirdPartySharingConsent : boolean</text><rect fill="none" height="4.2" style="stroke:#C82930;stroke-width:0.6999999999999998;" width="4.2" x="318.85" y="155.8516"/><text fill="#000000" font-family="sans-serif" font-size="9.8" lengthAdjust="spacing" textLength="116.9" x="327.25" y="160.704">interestList : List&lt;String&gt;</text><line style="stroke:#181818;stroke-width:0.3499999999999999;" x1="313.95" x2="499.45" y1="166.3754" y2="166.3754"/></g><!--class ReaderDetails--><g id="elem_ReaderDetails"><rect codeLine="34" fill="#F1F1F1" height="189.8114" id="ReaderDetails" rx="1.75" ry="1.75" style="stroke:#181818;stroke-width:0.3499999999999999;" width="187.6" x="222.6" y="494.165"/><ellipse cx="280.525" cy="510.0592" fill="#ADD1B2" rx="7.7" ry="7.7" style="stroke:#181818;stroke-width:0.6999999999999998;"/><path d="M280.1531,514.9045 Q278.9281,514.9045 278.1297,514.3905 Q277.3422,513.8655 276.9484,512.9248 Q276.5656,511.9733 276.5656,510.7155 Q276.5656,509.2936 277.025,508.2764 Q277.4844,507.2592 278.3812,506.7123 Q279.2781,506.1655 280.5906,506.1655 Q281.2141,506.1655 281.6844,506.2967 Q282.1547,506.417 282.6359,506.6576 L282.0672,508.0686 Q281.6297,507.8498 281.2469,507.7623 Q280.875,507.6748 280.5359,507.6748 Q279.7156,507.6748 279.2234,508.0467 Q278.7312,508.4186 278.5234,509.0858 Q278.3156,509.753 278.3156,510.6389 Q278.3156,512.0498 278.8187,512.728 Q279.3219,513.3951 280.4375,513.3951 Q280.8531,513.3951 281.2906,513.2858 Q281.7281,513.1764 282.3078,512.9139 L282.3078,514.467 Q281.7937,514.6858 281.2359,514.7951 Q280.6891,514.9045 280.1531,514.9045 Z " fill="#000000"/><text fill="#000000" font-family="sans-serif" font-size="8.4" font-style="italic" lengthAdjust="spacing" textLength="29.4" x="313.075" y="506.6447">&#171;entity&#187;</text><text fill="#000000" font-family="sans-serif" font-size="9.8" lengthAdjust="spacing" textLength="65.8" x="294.875" y="519.582">ReaderDetails</text><line style="stroke:#181818;stroke-width:0.3499999999999999;" x1="223.3" x2="409.5" y1="525.9534" y2="525.9534"/><rect fill="none" height="4.2" style="stroke:#C82930;stroke-width:0.6999999999999998;" width="4.2" x="228.2" y="534.3772"/><text fill="#000000" font-family="sans-serif" font-size="9.8" lengthAdjust="spacing" textLength="42.7" x="236.6" y="539.2296">pk : Long</text><rect fill="none" height="4.2" style="stroke:#C82930;stroke-width:0.6999999999999998;" width="4.2" x="228.2" y="547.7247"/><text fill="#000000" font-family="sans-serif" font-size="9.8" lengthAdjust="spacing" textLength="65.8" x="236.6" y="552.5771">version : Long</text><rect fill="none" height="4.2" style="stroke:#C82930;stroke-width:0.6999999999999998;" width="4.2" x="228.2" y="561.0723"/><text fill="#000000" font-family="sans-serif" font-size="9.8" lengthAdjust="spacing" textLength="95.2" x="236.6" y="565.9247">birthDate: BirthDate</text><rect fill="none" height="4.2" style="stroke:#C82930;stroke-width:0.6999999999999998;" width="4.2" x="228.2" y="574.4198"/><text fill="#000000" font-family="sans-serif" font-size="9.8" lengthAdjust="spacing" textLength="146.3" x="236.6" y="579.2722">phoneNumber : PhoneNumber</text><rect fill="none" height="4.2" style="stroke:#C82930;stroke-width:0.6999999999999998;" width="4.2" x="228.2" y="587.7674"/><text fill="#000000" font-family="sans-serif" font-size="9.8" lengthAdjust="spacing" textLength="116.9" x="236.6" y="592.6197">interestList : List&lt;Genre&gt;</text><rect fill="none" height="4.2" style="stroke:#C82930;stroke-width:0.6999999999999998;" width="4.2" x="228.2" y="601.1149"/><text fill="#000000" font-family="sans-serif" font-size="9.8" lengthAdjust="spacing" textLength="62.3" x="236.6" y="605.9673">photo : Photo</text><rect fill="none" height="4.2" style="stroke:#C82930;stroke-width:0.6999999999999998;" width="4.2" x="228.2" y="614.4624"/><text fill="#000000" font-family="sans-serif" font-size="9.8" lengthAdjust="spacing" textLength="108.5" x="236.6" y="619.3148">gdprConsent - boolean</text><rect fill="none" height="4.2" style="stroke:#C82930;stroke-width:0.6999999999999998;" width="4.2" x="228.2" y="627.81"/><text fill="#000000" font-family="sans-serif" font-size="9.8" lengthAdjust="spacing" textLength="133.7" x="236.6" y="632.6624">marketingConsent - boolean</text><rect fill="none" height="4.2" style="stroke:#C82930;stroke-width:0.6999999999999998;" width="4.2" x="228.2" y="641.1575"/><text fill="#000000" font-family="sans-serif" font-size="9.8" lengthAdjust="spacing" textLength="169.4" x="236.6" y="646.0099">thirdPartySharingConsent - boolean</text><line style="stroke:#181818;stroke-width:0.3499999999999999;" x1="223.3" x2="409.5" y1="651.6813" y2="651.6813"/><ellipse cx="230.3" cy="662.2051" fill="#84BE84" rx="2.1" ry="2.1" style="stroke:#038048;stroke-width:0.6999999999999998;"/><text fill="#000000" font-family="sans-serif" font-size="9.8" lengthAdjust="spacing" textLength="119.7" x="236.6" y="664.9575">getBirthDate() : LocalDate</text><ellipse cx="230.3" cy="675.5526" fill="#84BE84" rx="2.1" ry="2.1" style="stroke:#038048;stroke-width:0.6999999999999998;"/><text fill="#000000" font-family="sans-serif" font-size="9.8" lengthAdjust="spacing" textLength="87.5" x="236.6" y="678.305">getVersion() : Long</text></g><!--class ReaderViewMapper--><g id="elem_ReaderViewMapper"><rect codeLine="48" fill="#F1F1F1" height="46.9475" id="ReaderViewMapper" rx="1.75" ry="1.75" style="stroke:#181818;stroke-width:0.3499999999999999;" width="284.2" x="4.9" y="64.967"/><ellipse cx="97.825" cy="76.167" fill="#ADD1B2" rx="7.7" ry="7.7" style="stroke:#181818;stroke-width:0.6999999999999998;"/><path d="M97.4531,81.0123 Q96.2281,81.0123 95.4297,80.4983 Q94.6422,79.9733 94.2484,79.0326 Q93.8656,78.0811 93.8656,76.8233 Q93.8656,75.4014 94.325,74.3842 Q94.7844,73.367 95.6812,72.8201 Q96.5781,72.2733 97.8906,72.2733 Q98.5141,72.2733 98.9844,72.4045 Q99.4547,72.5248 99.9359,72.7654 L99.3672,74.1764 Q98.9297,73.9576 98.5469,73.8701 Q98.175,73.7826 97.8359,73.7826 Q97.0156,73.7826 96.5234,74.1545 Q96.0312,74.5264 95.8234,75.1936 Q95.6156,75.8608 95.6156,76.7467 Q95.6156,78.1576 96.1187,78.8358 Q96.6219,79.5029 97.7375,79.5029 Q98.1531,79.5029 98.5906,79.3936 Q99.0281,79.2842 99.6078,79.0217 L99.6078,80.5748 Q99.0937,80.7936 98.5359,80.9029 Q97.9891,81.0123 97.4531,81.0123 Z " fill="#000000"/><text fill="#000000" font-family="sans-serif" font-size="9.8" lengthAdjust="spacing" textLength="92.4" x="112.175" y="79.9694">ReaderViewMapper</text><line style="stroke:#181818;stroke-width:0.3499999999999999;" x1="5.6" x2="288.4" y1="87.367" y2="87.367"/><line style="stroke:#181818;stroke-width:0.3499999999999999;" x1="5.6" x2="288.4" y1="92.967" y2="92.967"/><ellipse cx="12.6" cy="103.4908" fill="#84BE84" rx="2.1" ry="2.1" style="stroke:#038048;stroke-width:0.6999999999999998;"/><text fill="#000000" font-family="sans-serif" font-size="9.8" lengthAdjust="spacing" textLength="266" x="18.9" y="106.2432">toReaderView(ReaderDetails readerDetails) : ReaderView</text></g><!--class Reader--><g id="elem_Reader"><rect fill="#F1F1F1" height="33.6" id="Reader" rx="1.75" ry="1.75" style="stroke:#181818;stroke-width:0.3499999999999999;" width="56" x="370.3" y="418.565"/><ellipse cx="380.8" cy="429.765" fill="#ADD1B2" rx="7.7" ry="7.7" style="stroke:#181818;stroke-width:0.6999999999999998;"/><path d="M380.4281,434.6103 Q379.2031,434.6103 378.4047,434.0962 Q377.6172,433.5712 377.2234,432.6306 Q376.8406,431.6791 376.8406,430.4212 Q376.8406,428.9994 377.3,427.9822 Q377.7594,426.965 378.6562,426.4181 Q379.5531,425.8712 380.8656,425.8712 Q381.4891,425.8712 381.9594,426.0025 Q382.4297,426.1228 382.9109,426.3634 L382.3422,427.7744 Q381.9047,427.5556 381.5219,427.4681 Q381.15,427.3806 380.8109,427.3806 Q379.9906,427.3806 379.4984,427.7525 Q379.0062,428.1244 378.7984,428.7916 Q378.5906,429.4587 378.5906,430.3447 Q378.5906,431.7556 379.0937,432.4337 Q379.5969,433.1009 380.7125,433.1009 Q381.1281,433.1009 381.5656,432.9916 Q382.0031,432.8822 382.5828,432.6197 L382.5828,434.1728 Q382.0687,434.3916 381.5109,434.5009 Q380.9641,434.6103 380.4281,434.6103 Z " fill="#000000"/><text fill="#000000" font-family="sans-serif" font-size="9.8" lengthAdjust="spacing" textLength="33.6" x="390.6" y="433.5674">Reader</text><line style="stroke:#181818;stroke-width:0.3499999999999999;" x1="371" x2="425.6" y1="440.965" y2="440.965"/><line style="stroke:#181818;stroke-width:0.3499999999999999;" x1="371" x2="425.6" y1="446.565" y2="446.565"/></g><!--reverse link ReaderService to ReaderServiceImpl--><g id="link_ReaderService_ReaderServiceImpl"><path d="M430.5,280.315 C430.5,294.623 430.5,300.587 430.5,316.015 " fill="none" id="ReaderService-backto-ReaderServiceImpl" style="stroke:#181818;stroke-width:0.6999999999999998;stroke-dasharray:7.0,7.0;"/><polygon fill="none" points="430.5,267.715,426.3,280.315,434.7,280.315,430.5,267.715" style="stroke:#181818;stroke-width:0.6999999999999998;"/></g><!--link ReaderController to ReaderService--><g id="link_ReaderController_ReaderService"><path codeLine="52" d="M257.74,244.125 C265.951,244.125 269.962,244.125 278.173,244.125 " fill="none" id="ReaderController-to-ReaderService" style="stroke:#181818;stroke-width:0.6999999999999998;"/><polygon fill="#181818" points="282.373,244.125,276.073,241.325,278.873,244.125,276.073,246.925,282.373,244.125" style="stroke:#181818;stroke-width:0.6999999999999998;"/><text fill="#000000" font-family="sans-serif" font-size="9.1" lengthAdjust="spacing" textLength="4.9" x="263.2226" y="241.6767">1</text><text fill="#000000" font-family="sans-serif" font-size="9.1" lengthAdjust="spacing" textLength="4.9" x="272.0616" y="241.7481">1</text></g><!--link ReaderServiceImpl to ReaderRepository--><g id="link_ReaderServiceImpl_ReaderRepository"><path codeLine="53" d="M444.493,376.698 C467.523,425.397 511.1366,517.6121 531.9336,561.5931 " fill="none" id="ReaderServiceImpl-to-ReaderRepository" style="stroke:#181818;stroke-width:0.6999999999999998;"/><polygon fill="#181818" points="533.729,565.39,533.5671,558.4977,532.2328,562.2259,528.5046,560.8916,533.729,565.39" style="stroke:#181818;stroke-width:0.6999999999999998;"/><text fill="#000000" font-family="sans-serif" font-size="9.1" lengthAdjust="spacing" textLength="4.9" x="441.3605" y="392.0109">1</text><text fill="#000000" font-family="sans-serif" font-size="9.1" lengthAdjust="spacing" textLength="4.9" x="526.0815" y="557.1569">1</text></g><!--reverse link ReaderViewMapper to ReaderController--><g id="link_ReaderViewMapper_ReaderController"><path codeLine="55" d="M147,116.438 C147,143.507 147,184.212 147,213.815 " fill="none" id="ReaderViewMapper-backto-ReaderController" style="stroke:#181818;stroke-width:0.6999999999999998;stroke-dasharray:7.0,7.0;"/><polygon fill="#181818" points="147,112.238,144.2,118.538,147,115.738,149.8,118.538,147,112.238" style="stroke:#181818;stroke-width:0.6999999999999998;"/></g><!--link ReaderViewMapper to ReaderView--><g id="link_ReaderViewMapper_ReaderView"><path codeLine="56" d="M289.275,88.438 C297.227,88.438 300.979,88.438 308.931,88.438 " fill="none" id="ReaderViewMapper-to-ReaderView" style="stroke:#181818;stroke-width:0.6999999999999998;stroke-dasharray:7.0,7.0;"/><polygon fill="#181818" points="313.131,88.438,306.831,85.638,309.631,88.438,306.831,91.238,313.131,88.438" style="stroke:#181818;stroke-width:0.6999999999999998;"/></g><!--link Reader to ReaderDetails--><g id="link_Reader_ReaderDetails"><path codeLine="58" d="M389.536,452.368 C383.796,463.029 379.7676,470.5345 371.1366,486.5785 " fill="none" id="Reader-to-ReaderDetails" style="stroke:#181818;stroke-width:0.6999999999999998;"/><polygon fill="none" points="367.157,493.976,371.6126,491.6038,371.1366,486.5785,366.6809,488.9507,367.157,493.976" style="stroke:#181818;stroke-width:0.6999999999999998;"/><text fill="#000000" font-family="sans-serif" font-size="9.1" lengthAdjust="spacing" textLength="4.9" x="382.0428" y="467.4609">1</text><text fill="#000000" font-family="sans-serif" font-size="9.1" lengthAdjust="spacing" textLength="4.9" x="365.0497" y="485.9765">1</text></g><!--link ReaderServiceImpl to Reader--><g id="link_ReaderServiceImpl_Reader"><path codeLine="59" d="M419.601,376.761 C414.491,390.649 410.0473,402.7234 405.7563,414.3854 " fill="none" id="ReaderServiceImpl-to-Reader" style="stroke:#181818;stroke-width:0.6999999999999998;"/><polygon fill="#181818" points="404.306,418.327,409.1092,413.3814,405.5146,415.0423,403.8537,411.4477,404.306,418.327" style="stroke:#181818;stroke-width:0.6999999999999998;"/><text fill="#000000" font-family="sans-serif" font-size="9.1" lengthAdjust="spacing" textLength="4.9" x="412.7404" y="391.8552">1</text><text fill="#000000" font-family="sans-serif" font-size="9.1" lengthAdjust="spacing" textLength="14" x="390.0513" y="410.3276">0..*</text></g><!--SRC=[hPHDRvj048Rl_8fLBd5gWTihiZWaaQfARMJ5Kkvh6CCg-zNP8PLLzRztmO1P81-LoW7icNTdtddOvReYiYxTRApaccebazoeZOEVDUWSuaBm4hcA8g49yCXpO8_02y17iCO9CdXYloFchpLpm36lpkbx82waMzsaxBjmj0sYMVGdYdB9dUkAxG5VX2-zLCcjR6KqFDJg09YoFQ7GvJ-L_QQiPCBVG86cUS-OuMIaT3Ra_pLsPpIXaHAm6xctq9bAGuzTywFGnUrfTsdwGRfF0dw5RSxBMM-wou7oowV1Ootb0rSmZHy4KdNFQPOOGLb8aPa6oy8sF9n_DJvrC4O2rrrESNm6yjhN15G9B7OSwRIlEBuXRBSlE6fmiOxQsSOCLuUHRRU-aA1JblNmx7Epr0pMN_mc44Q7mG5CocxxdujeHY_o3PDVGIDa4u2xvhd0BtwFN_nHVg5mpKgWOPhLJJjnpkKmMojuEkFeqXx8mZxymQq5z43NZCmbl0hHu_XVK-wYR8hE3j7LboiMP-qZF3Zpxq0hZGFnw9JFIoUrJRBP0D4qm18KPKM1jA_MJzLqD75jur7lLnrwWv-JvDEW-mi0]--></g></svg>