<?xml version="1.0" encoding="us-ascii" standalone="no"?><svg xmlns="http://www.w3.org/2000/svg" xmlns:xlink="http://www.w3.org/1999/xlink" contentStyleType="text/css" height="479.2px" preserveAspectRatio="none" style="width:778px;height:479px;background:#FFFFFF;" version="1.1" viewBox="0 0 778 479" width="778.4px" zoomAndPan="magnify"><defs/><g><text fill="#000000" font-family="sans-serif" font-size="11.2" font-weight="bold" lengthAdjust="spacing" textLength="185.6" x="295.8" y="24.0859">WP#4B.23 Get Overdue Lendings</text><rect fill="#FFFFFF" height="230.0953" style="stroke:#181818;stroke-width:0.8000000000000002;" width="8" x="197.6" y="168.8922"/><rect fill="#FFFFFF" height="180.0297" style="stroke:#181818;stroke-width:0.8000000000000002;" width="8" x="352" y="193.925"/><rect fill="#FFFFFF" height="79.8984" style="stroke:#181818;stroke-width:0.8000000000000002;" width="8" x="471.2" y="218.9578"/><rect fill="#FFFFFF" height="27.4328" style="stroke:#181818;stroke-width:0.8000000000000002;" width="8" x="590.4" y="246.3906"/><rect fill="#FFFFFF" height="25.0328" style="stroke:#181818;stroke-width:0.8000000000000002;" width="8" x="711.6" y="323.8891"/><line style="stroke:#181818;stroke-width:0.4000000000000001;stroke-dasharray:5.0,5.0;" x1="43.2" x2="43.2" y1="98.5938" y2="413.3875"/><line style="stroke:#181818;stroke-width:0.4000000000000001;stroke-dasharray:5.0,5.0;" x1="201.6" x2="201.6" y1="98.5938" y2="413.3875"/><line style="stroke:#181818;stroke-width:0.4000000000000001;stroke-dasharray:5.0,5.0;" x1="355.6" x2="355.6" y1="98.5938" y2="413.3875"/><line style="stroke:#181818;stroke-width:0.4000000000000001;stroke-dasharray:5.0,5.0;" x1="475.2" x2="475.2" y1="98.5938" y2="413.3875"/><line style="stroke:#181818;stroke-width:0.4000000000000001;stroke-dasharray:5.0,5.0;" x1="594" x2="594" y1="98.5938" y2="413.3875"/><line style="stroke:#181818;stroke-width:0.4000000000000001;stroke-dasharray:5.0,5.0;" x1="715.6" x2="715.6" y1="98.5938" y2="413.3875"/><text fill="#000000" font-family="sans-serif" font-size="11.2" lengthAdjust="spacing" textLength="44.8" x="18.4" y="95.7828">Librarian</text><ellipse cx="43.2" cy="42.4969" fill="#E2E2F0" rx="6.4" ry="6.4" style="stroke:#181818;stroke-width:0.4000000000000001;"/><path d="M43.2,48.8969 L43.2,70.4969 M32.8,55.2969 L53.6,55.2969 M43.2,70.4969 L32.8,82.4969 M43.2,70.4969 L53.6,82.4969 " fill="none" style="stroke:#181818;stroke-width:0.4000000000000001;"/><text fill="#000000" font-family="sans-serif" font-size="11.2" lengthAdjust="spacing" textLength="44.8" x="18.4" y="424.6734">Librarian</text><ellipse cx="43.2" cy="434.2844" fill="#E2E2F0" rx="6.4" ry="6.4" style="stroke:#181818;stroke-width:0.4000000000000001;"/><path d="M43.2,440.6844 L43.2,462.2844 M32.8,447.0844 L53.6,447.0844 M43.2,462.2844 L32.8,474.2844 M43.2,462.2844 L53.6,474.2844 " fill="none" style="stroke:#181818;stroke-width:0.4000000000000001;"/><rect fill="#E2E2F0" height="26.0969" rx="2" ry="2" style="stroke:#181818;stroke-width:0.4000000000000001;" width="48" x="177.6" y="71.6969"/><text fill="#000000" font-family="sans-serif" font-size="11.2" lengthAdjust="spacing" textLength="36.8" x="183.2" y="89.3828">System</text><rect fill="#E2E2F0" height="26.0969" rx="2" ry="2" style="stroke:#181818;stroke-width:0.4000000000000001;" width="48" x="177.6" y="412.5875"/><text fill="#000000" font-family="sans-serif" font-size="11.2" lengthAdjust="spacing" textLength="36.8" x="183.2" y="430.2734">System</text><rect fill="#E2E2F0" height="26.0969" rx="2" ry="2" style="stroke:#181818;stroke-width:0.4000000000000001;" width="104.8" x="303.6" y="71.6969"/><text fill="#000000" font-family="sans-serif" font-size="11.2" lengthAdjust="spacing" textLength="93.6" x="309.2" y="89.3828">:LendingController</text><rect fill="#E2E2F0" height="26.0969" rx="2" ry="2" style="stroke:#181818;stroke-width:0.4000000000000001;" width="104.8" x="303.6" y="412.5875"/><text fill="#000000" font-family="sans-serif" font-size="11.2" lengthAdjust="spacing" textLength="93.6" x="309.2" y="430.2734">:LendingController</text><rect fill="#E2E2F0" height="26.0969" rx="2" ry="2" style="stroke:#181818;stroke-width:0.4000000000000001;" width="92.8" x="428.8" y="71.6969"/><text fill="#000000" font-family="sans-serif" font-size="11.2" lengthAdjust="spacing" textLength="81.6" x="434.4" y="89.3828">:LendingService</text><rect fill="#E2E2F0" height="26.0969" rx="2" ry="2" style="stroke:#181818;stroke-width:0.4000000000000001;" width="92.8" x="428.8" y="412.5875"/><text fill="#000000" font-family="sans-serif" font-size="11.2" lengthAdjust="spacing" textLength="81.6" x="434.4" y="430.2734">:LendingService</text><rect fill="#E2E2F0" height="26.0969" rx="2" ry="2" style="stroke:#181818;stroke-width:0.4000000000000001;" width="109.6" x="539.6" y="71.6969"/><text fill="#000000" font-family="sans-serif" font-size="11.2" lengthAdjust="spacing" textLength="98.4" x="545.2" y="89.3828">:LendingRepository</text><rect fill="#E2E2F0" height="26.0969" rx="2" ry="2" style="stroke:#181818;stroke-width:0.4000000000000001;" width="109.6" x="539.6" y="412.5875"/><text fill="#000000" font-family="sans-serif" font-size="11.2" lengthAdjust="spacing" textLength="98.4" x="545.2" y="430.2734">:LendingRepository</text><rect fill="#E2E2F0" height="26.0969" rx="2" ry="2" style="stroke:#181818;stroke-width:0.4000000000000001;" width="116.8" x="657.2" y="71.6969"/><text fill="#000000" font-family="sans-serif" font-size="11.2" lengthAdjust="spacing" textLength="105.6" x="662.8" y="89.3828">:LendingViewMapper</text><rect fill="#E2E2F0" height="26.0969" rx="2" ry="2" style="stroke:#181818;stroke-width:0.4000000000000001;" width="116.8" x="657.2" y="412.5875"/><text fill="#000000" font-family="sans-serif" font-size="11.2" lengthAdjust="spacing" textLength="105.6" x="662.8" y="430.2734">:LendingViewMapper</text><rect fill="#FFFFFF" height="230.0953" style="stroke:#181818;stroke-width:0.8000000000000002;" width="8" x="197.6" y="168.8922"/><rect fill="#FFFFFF" height="180.0297" style="stroke:#181818;stroke-width:0.8000000000000002;" width="8" x="352" y="193.925"/><rect fill="#FFFFFF" height="79.8984" style="stroke:#181818;stroke-width:0.8000000000000002;" width="8" x="471.2" y="218.9578"/><rect fill="#FFFFFF" height="27.4328" style="stroke:#181818;stroke-width:0.8000000000000002;" width="8" x="590.4" y="246.3906"/><rect fill="#FFFFFF" height="25.0328" style="stroke:#181818;stroke-width:0.8000000000000002;" width="8" x="711.6" y="323.8891"/><path d="M4,110.5938 L4,145.7938 L83.2,145.7938 L83.2,118.5938 L75.2,110.5938 L4,110.5938 " fill="#FEFFDD" style="stroke:#181818;stroke-width:0.4000000000000001;"/><path d="M75.2,110.5938 L75.2,118.5938 L83.2,118.5938 L75.2,110.5938 " fill="#FEFFDD" style="stroke:#181818;stroke-width:0.4000000000000001;"/><text fill="#000000" font-family="sans-serif" font-size="10.4" lengthAdjust="spacing" textLength="50.4" x="8.8" y="125.8164">Librarian is</text><text fill="#000000" font-family="sans-serif" font-size="10.4" lengthAdjust="spacing" textLength="62.4" x="8.8" y="139.6492">authenticated</text><polygon fill="#181818" points="188,165.6922,196,168.8922,188,172.0922,191.2,168.8922" style="stroke:#181818;stroke-width:0.8000000000000002;"/><line style="stroke:#181818;stroke-width:0.8000000000000002;" x1="43.2" x2="192.8" y1="168.8922" y2="168.8922"/><text fill="#000000" font-family="sans-serif" font-size="10.4" font-weight="bold" lengthAdjust="spacing" textLength="5.6" x="48.8" y="164.682">1</text><text fill="#000000" font-family="sans-serif" font-size="10.4" lengthAdjust="spacing" textLength="94.4" x="57.6" y="164.682">get overdue lendings</text><polygon fill="#181818" points="342.4,190.725,350.4,193.925,342.4,197.125,345.6,193.925" style="stroke:#181818;stroke-width:0.8000000000000002;"/><line style="stroke:#181818;stroke-width:0.8000000000000002;" x1="205.6" x2="347.2" y1="193.925" y2="193.925"/><text fill="#000000" font-family="sans-serif" font-size="10.4" font-weight="bold" lengthAdjust="spacing" textLength="5.6" x="211.2" y="189.7148">2</text><text fill="#000000" font-family="sans-serif" font-size="10.4" lengthAdjust="spacing" textLength="122.4" x="220" y="189.7148">getOverdueLendings(page)</text><polygon fill="#181818" points="461.6,215.7578,469.6,218.9578,461.6,222.1578,464.8,218.9578" style="stroke:#181818;stroke-width:0.8000000000000002;"/><line style="stroke:#181818;stroke-width:0.8000000000000002;" x1="360" x2="466.4" y1="218.9578" y2="218.9578"/><text fill="#000000" font-family="sans-serif" font-size="10.4" font-weight="bold" lengthAdjust="spacing" textLength="5.6" x="365.6" y="214.7477">3</text><text fill="#000000" font-family="sans-serif" font-size="10.4" lengthAdjust="spacing" textLength="80.8" x="374.4" y="214.7477">getOverdue(page)</text><polygon fill="#181818" points="580.8,243.1906,588.8,246.3906,580.8,249.5906,584,246.3906" style="stroke:#181818;stroke-width:0.8000000000000002;"/><line style="stroke:#181818;stroke-width:0.8000000000000002;" x1="479.2" x2="585.6" y1="246.3906" y2="246.3906"/><text fill="#000000" font-family="sans-serif" font-size="10.4" font-weight="bold" lengthAdjust="spacing" textLength="5.6" x="484.8" y="242.1805">4</text><text fill="#000000" font-family="sans-serif" font-size="10.4" lengthAdjust="spacing" textLength="80.8" x="493.6" y="242.1805">getOverdue(page)</text><path d="M602.4,229.3578 L602.4,250.9578 L700.8,250.9578 L700.8,237.3578 L692.8,229.3578 L602.4,229.3578 " fill="#FEFFDD" style="stroke:#181818;stroke-width:0.4000000000000001;"/><path d="M692.8,229.3578 L692.8,237.3578 L700.8,237.3578 L692.8,229.3578 " fill="#FEFFDD" style="stroke:#181818;stroke-width:0.4000000000000001;"/><text fill="#000000" font-family="sans-serif" font-size="10.4" lengthAdjust="spacing" textLength="81.6" x="607.2" y="244.5805">(Details ommited)</text><polygon fill="#181818" points="488,270.6234,480,273.8234,488,277.0234,484.8,273.8234" style="stroke:#181818;stroke-width:0.8000000000000002;"/><line style="stroke:#181818;stroke-width:0.8000000000000002;stroke-dasharray:2.0,2.0;" x1="483.2" x2="593.6" y1="273.8234" y2="273.8234"/><text fill="#000000" font-family="sans-serif" font-size="10.4" font-weight="bold" lengthAdjust="spacing" textLength="5.6" x="492.8" y="269.6133">5</text><text fill="#000000" font-family="sans-serif" font-size="10.4" lengthAdjust="spacing" textLength="83.2" x="501.6" y="269.6133">(overdueLendings)</text><polygon fill="#181818" points="368.8,295.6563,360.8,298.8563,368.8,302.0563,365.6,298.8563" style="stroke:#181818;stroke-width:0.8000000000000002;"/><line style="stroke:#181818;stroke-width:0.8000000000000002;stroke-dasharray:2.0,2.0;" x1="364" x2="474.4" y1="298.8563" y2="298.8563"/><text fill="#000000" font-family="sans-serif" font-size="10.4" font-weight="bold" lengthAdjust="spacing" textLength="5.6" x="373.6" y="294.6461">6</text><text fill="#000000" font-family="sans-serif" font-size="10.4" lengthAdjust="spacing" textLength="83.2" x="382.4" y="294.6461">(overdueLendings)</text><polygon fill="#181818" points="702,320.6891,710,323.8891,702,327.0891,705.2,323.8891" style="stroke:#181818;stroke-width:0.8000000000000002;"/><line style="stroke:#181818;stroke-width:0.8000000000000002;" x1="360" x2="706.8" y1="323.8891" y2="323.8891"/><text fill="#000000" font-family="sans-serif" font-size="10.4" font-weight="bold" lengthAdjust="spacing" textLength="5.6" x="365.6" y="319.6789">7</text><text fill="#000000" font-family="sans-serif" font-size="10.4" lengthAdjust="spacing" textLength="150.4" x="374.4" y="319.6789">toLendingView(overdueLendings)</text><polygon fill="#181818" points="368.8,345.7219,360.8,348.9219,368.8,352.1219,365.6,348.9219" style="stroke:#181818;stroke-width:0.8000000000000002;"/><line style="stroke:#181818;stroke-width:0.8000000000000002;stroke-dasharray:2.0,2.0;" x1="364" x2="714.8" y1="348.9219" y2="348.9219"/><text fill="#000000" font-family="sans-serif" font-size="10.4" font-weight="bold" lengthAdjust="spacing" textLength="5.6" x="373.6" y="344.7117">8</text><text fill="#000000" font-family="sans-serif" font-size="10.4" lengthAdjust="spacing" textLength="105.6" x="382.4" y="344.7117">(overdueLendingsView)</text><polygon fill="#181818" points="214.4,370.7547,206.4,373.9547,214.4,377.1547,211.2,373.9547" style="stroke:#181818;stroke-width:0.8000000000000002;"/><line style="stroke:#181818;stroke-width:0.8000000000000002;stroke-dasharray:2.0,2.0;" x1="209.6" x2="355.2" y1="373.9547" y2="373.9547"/><text fill="#000000" font-family="sans-serif" font-size="10.4" font-weight="bold" lengthAdjust="spacing" textLength="5.6" x="219.2" y="369.7445">9</text><text fill="#000000" font-family="sans-serif" font-size="10.4" lengthAdjust="spacing" textLength="105.6" x="228" y="369.7445">(overdueLendingsView)</text><polygon fill="#181818" points="52,395.7875,44,398.9875,52,402.1875,48.8,398.9875" style="stroke:#181818;stroke-width:0.8000000000000002;"/><line style="stroke:#181818;stroke-width:0.8000000000000002;stroke-dasharray:2.0,2.0;" x1="47.2" x2="200.8" y1="398.9875" y2="398.9875"/><text fill="#000000" font-family="sans-serif" font-size="10.4" font-weight="bold" lengthAdjust="spacing" textLength="11.2" x="56.8" y="394.7773">10</text><text fill="#000000" font-family="sans-serif" font-size="10.4" lengthAdjust="spacing" textLength="120.8" x="71.2" y="394.7773">(array of overdue lendings)</text><!--SRC=[VP4nJyCm48Nt-nMdCj0ERILWoi10aLYAG5I2XSLDZjIIOnlxKjH_ZnqdhQj6pNJEVVTyx_bsnsnziLnQ9JItZLgKfbbw-cr9bpIlfAYTQ42qR4J9SY-OqEZkhDjcImw09Il2h_URXwV5tJs-4EFRdbpL4gv9LrBN7Y0C6uUJjTmwuQJG4nGUZoUmmh4ifGqxu6Hpy4nDHwJol5tqgYkZsHcbo7NeYfqQ1pVazhAa99ZgSV23hF4oB7f8wvt-ZlEValvUXRNz1ga406rYIY63aqCiibhwRnqIt94EcY7H2k3Kd3_shWkiGvIcZr8TeqpTo4NB7TNdFSGzjQAc6SHs9vSyvsHFz9q8PMP7mCwHa_ME0SCtVIOMKdaqJIF3_ZC8qnWXo7Hmdby-DUTBPhSVhLmoWuUKRO5iikmlyOHTKOnZWsgMz3Ws91tZ6TudiC8vSK3pS_4sCu1_]--></g></svg>