<?xml version="1.0" encoding="us-ascii" standalone="no"?><svg xmlns="http://www.w3.org/2000/svg" xmlns:xlink="http://www.w3.org/1999/xlink" contentStyleType="text/css" height="656px" preserveAspectRatio="none" style="width:923px;height:656px;background:#FFFFFF;" version="1.1" viewBox="0 0 923 656" width="923px" zoomAndPan="magnify"><defs/><g><!--class BookService--><g id="elem_BookService"><rect codeLine="3" fill="#F1F1F1" height="67.0679" id="BookService" rx="2.5" ry="2.5" style="stroke:#181818;stroke-width:0.5;" width="390" x="526.5" y="258.01"/><ellipse cx="677.25" cy="274.01" fill="#ADD1B2" rx="11" ry="11" style="stroke:#181818;stroke-width:1.0;"/><path d="M676.7188,280.9319 Q674.9688,280.9319 673.8281,280.1975 Q672.7031,279.4475 672.1406,278.1038 Q671.5938,276.7444 671.5938,274.9475 Q671.5938,272.9163 672.25,271.4631 Q672.9063,270.01 674.1875,269.2288 Q675.4688,268.4475 677.3438,268.4475 Q678.2344,268.4475 678.9063,268.635 Q679.5781,268.8069 680.2656,269.1506 L679.4531,271.1663 Q678.8281,270.8538 678.2813,270.7288 Q677.75,270.6038 677.2656,270.6038 Q676.0938,270.6038 675.3906,271.135 Q674.6875,271.6663 674.3906,272.6194 Q674.0938,273.5725 674.0938,274.8381 Q674.0938,276.8538 674.8125,277.8225 Q675.5313,278.7756 677.125,278.7756 Q677.7188,278.7756 678.3438,278.6194 Q678.9688,278.4631 679.7969,278.0881 L679.7969,280.3069 Q679.0625,280.6194 678.2656,280.7756 Q677.4844,280.9319 676.7188,280.9319 Z " fill="#000000"/><text fill="#000000" font-family="sans-serif" font-size="14" lengthAdjust="spacing" textLength="80" x="697.75" y="279.442">BookService</text><line style="stroke:#181818;stroke-width:0.5;" x1="527.5" x2="915.5" y1="290.01" y2="290.01"/><line style="stroke:#181818;stroke-width:0.5;" x1="527.5" x2="915.5" y1="298.01" y2="298.01"/><ellipse cx="537.5" cy="313.044" fill="#84BE84" rx="3" ry="3" style="stroke:#038048;stroke-width:1.0;"/><text fill="#000000" font-family="sans-serif" font-size="14" lengthAdjust="spacing" textLength="364" x="546.5" y="316.9759">findByAuthorName(authorName: String): List&lt;Author&gt;</text></g><!--class BookServiceImpl--><g id="elem_BookServiceImpl"><rect codeLine="7" fill="#F1F1F1" height="67.0679" id="BookServiceImpl" rx="2.5" ry="2.5" style="stroke:#181818;stroke-width:0.5;" width="390" x="526.5" y="413.68"/><ellipse cx="661.75" cy="429.68" fill="#ADD1B2" rx="11" ry="11" style="stroke:#181818;stroke-width:1.0;"/><path d="M661.2188,436.6019 Q659.4688,436.6019 658.3281,435.8675 Q657.2031,435.1175 656.6406,433.7738 Q656.0938,432.4144 656.0938,430.6175 Q656.0938,428.5863 656.75,427.1331 Q657.4063,425.68 658.6875,424.8988 Q659.9688,424.1175 661.8438,424.1175 Q662.7344,424.1175 663.4063,424.305 Q664.0781,424.4769 664.7656,424.8206 L663.9531,426.8363 Q663.3281,426.5238 662.7813,426.3988 Q662.25,426.2738 661.7656,426.2738 Q660.5938,426.2738 659.8906,426.805 Q659.1875,427.3363 658.8906,428.2894 Q658.5938,429.2425 658.5938,430.5081 Q658.5938,432.5238 659.3125,433.4925 Q660.0313,434.4456 661.625,434.4456 Q662.2188,434.4456 662.8438,434.2894 Q663.4688,434.1331 664.2969,433.7581 L664.2969,435.9769 Q663.5625,436.2894 662.7656,436.4456 Q661.9844,436.6019 661.2188,436.6019 Z " fill="#000000"/><text fill="#000000" font-family="sans-serif" font-size="14" lengthAdjust="spacing" textLength="111" x="682.25" y="435.112">BookServiceImpl</text><line style="stroke:#181818;stroke-width:0.5;" x1="527.5" x2="915.5" y1="445.68" y2="445.68"/><line style="stroke:#181818;stroke-width:0.5;" x1="527.5" x2="915.5" y1="453.68" y2="453.68"/><ellipse cx="537.5" cy="468.714" fill="#84BE84" rx="3" ry="3" style="stroke:#038048;stroke-width:1.0;"/><text fill="#000000" font-family="sans-serif" font-size="14" lengthAdjust="spacing" textLength="364" x="546.5" y="472.6459">findByAuthorName(authorName: String): List&lt;Author&gt;</text></g><!--class BookController--><g id="elem_BookController"><rect codeLine="11" fill="#F1F1F1" height="86.1358" id="BookController" rx="2.5" ry="2.5" style="stroke:#181818;stroke-width:0.5;" width="194" x="297.5" y="248.48"/><ellipse cx="340.85" cy="264.48" fill="#ADD1B2" rx="11" ry="11" style="stroke:#181818;stroke-width:1.0;"/><path d="M340.3188,271.4019 Q338.5688,271.4019 337.4281,270.6675 Q336.3031,269.9175 335.7406,268.5738 Q335.1938,267.2144 335.1938,265.4175 Q335.1938,263.3863 335.85,261.9331 Q336.5063,260.48 337.7875,259.6988 Q339.0688,258.9175 340.9438,258.9175 Q341.8344,258.9175 342.5063,259.105 Q343.1781,259.2769 343.8656,259.6206 L343.0531,261.6363 Q342.4281,261.3238 341.8813,261.1988 Q341.35,261.0738 340.8656,261.0738 Q339.6938,261.0738 338.9906,261.605 Q338.2875,262.1363 337.9906,263.0894 Q337.6938,264.0425 337.6938,265.3081 Q337.6938,267.3238 338.4125,268.2925 Q339.1313,269.2456 340.725,269.2456 Q341.3188,269.2456 341.9438,269.0894 Q342.5688,268.9331 343.3969,268.5581 L343.3969,270.7769 Q342.6625,271.0894 341.8656,271.2456 Q341.0844,271.4019 340.3188,271.4019 Z " fill="#000000"/><text fill="#000000" font-family="sans-serif" font-size="14" lengthAdjust="spacing" textLength="99" x="361.15" y="269.912">BookController</text><line style="stroke:#181818;stroke-width:0.5;" x1="298.5" x2="490.5" y1="280.48" y2="280.48"/><rect fill="none" height="6" style="stroke:#C82930;stroke-width:1.0;" width="6" x="305.5" y="292.514"/><text fill="#000000" font-family="sans-serif" font-size="14" lengthAdjust="spacing" textLength="168" x="317.5" y="299.4459">bookService: BookService</text><line style="stroke:#181818;stroke-width:0.5;" x1="298.5" x2="490.5" y1="307.5479" y2="307.5479"/><ellipse cx="308.5" cy="322.5819" fill="#84BE84" rx="3" ry="3" style="stroke:#038048;stroke-width:1.0;"/><text fill="#000000" font-family="sans-serif" font-size="14" lengthAdjust="spacing" textLength="153" x="317.5" y="326.5139">findBooks(): List&lt;Book&gt;</text></g><!--class BookView--><g id="elem_BookView"><rect codeLine="16" fill="#F1F1F1" height="162.4075" id="BookView" rx="2.5" ry="2.5" style="stroke:#181818;stroke-width:0.5;" width="210" x="595.5" y="7"/><ellipse cx="664.75" cy="23" fill="#ADD1B2" rx="11" ry="11" style="stroke:#181818;stroke-width:1.0;"/><path d="M664.2188,29.9219 Q662.4688,29.9219 661.3281,29.1875 Q660.2031,28.4375 659.6406,27.0938 Q659.0938,25.7344 659.0938,23.9375 Q659.0938,21.9063 659.75,20.4531 Q660.4063,19 661.6875,18.2188 Q662.9688,17.4375 664.8438,17.4375 Q665.7344,17.4375 666.4063,17.625 Q667.0781,17.7969 667.7656,18.1406 L666.9531,20.1563 Q666.3281,19.8438 665.7813,19.7188 Q665.25,19.5938 664.7656,19.5938 Q663.5938,19.5938 662.8906,20.125 Q662.1875,20.6563 661.8906,21.6094 Q661.5938,22.5625 661.5938,23.8281 Q661.5938,25.8438 662.3125,26.8125 Q663.0313,27.7656 664.625,27.7656 Q665.2188,27.7656 665.8438,27.6094 Q666.4688,27.4531 667.2969,27.0781 L667.2969,29.2969 Q666.5625,29.6094 665.7656,29.7656 Q664.9844,29.9219 664.2188,29.9219 Z " fill="#000000"/><text fill="#000000" font-family="sans-serif" font-size="14" lengthAdjust="spacing" textLength="63" x="685.25" y="28.432">BookView</text><line style="stroke:#181818;stroke-width:0.5;" x1="596.5" x2="804.5" y1="39" y2="39"/><rect fill="none" height="6" style="stroke:#C82930;stroke-width:1.0;" width="6" x="603.5" y="51.034"/><text fill="#000000" font-family="sans-serif" font-size="14" lengthAdjust="spacing" textLength="75" x="615.5" y="57.9659">title: String</text><rect fill="none" height="6" style="stroke:#C82930;stroke-width:1.0;" width="6" x="603.5" y="70.1019"/><text fill="#000000" font-family="sans-serif" font-size="14" lengthAdjust="spacing" textLength="140" x="615.5" y="77.0339">authors: List&lt;String&gt;</text><rect fill="none" height="6" style="stroke:#C82930;stroke-width:1.0;" width="6" x="603.5" y="89.1698"/><text fill="#000000" font-family="sans-serif" font-size="14" lengthAdjust="spacing" textLength="89" x="615.5" y="96.1018">genre: String</text><rect fill="none" height="6" style="stroke:#C82930;stroke-width:1.0;" width="6" x="603.5" y="108.2377"/><text fill="#000000" font-family="sans-serif" font-size="14" lengthAdjust="spacing" textLength="125" x="615.5" y="115.1697">description: String</text><rect fill="none" height="6" style="stroke:#C82930;stroke-width:1.0;" width="6" x="603.5" y="127.3056"/><text fill="#000000" font-family="sans-serif" font-size="14" lengthAdjust="spacing" textLength="78" x="615.5" y="134.2376">isbn: String</text><rect fill="none" height="6" style="stroke:#C82930;stroke-width:1.0;" width="6" x="603.5" y="146.3735"/><text fill="#000000" font-family="sans-serif" font-size="14" lengthAdjust="spacing" textLength="184" x="615.5" y="153.3055">_links: Map&lt;String, Object&gt;</text><line style="stroke:#181818;stroke-width:0.5;" x1="596.5" x2="804.5" y1="161.4075" y2="161.4075"/></g><!--class BookViewMapper--><g id="elem_BookViewMapper"><rect codeLine="26" fill="#F1F1F1" height="67.0679" id="BookViewMapper" rx="2.5" ry="2.5" style="stroke:#181818;stroke-width:0.5;" width="331" x="229" y="54.67"/><ellipse cx="332.25" cy="70.67" fill="#ADD1B2" rx="11" ry="11" style="stroke:#181818;stroke-width:1.0;"/><path d="M331.7188,77.5919 Q329.9688,77.5919 328.8281,76.8575 Q327.7031,76.1075 327.1406,74.7637 Q326.5938,73.4044 326.5938,71.6075 Q326.5938,69.5762 327.25,68.1231 Q327.9063,66.67 329.1875,65.8887 Q330.4688,65.1075 332.3438,65.1075 Q333.2344,65.1075 333.9063,65.295 Q334.5781,65.4669 335.2656,65.8106 L334.4531,67.8262 Q333.8281,67.5137 333.2813,67.3887 Q332.75,67.2637 332.2656,67.2637 Q331.0938,67.2637 330.3906,67.795 Q329.6875,68.3262 329.3906,69.2794 Q329.0938,70.2325 329.0938,71.4981 Q329.0938,73.5137 329.8125,74.4825 Q330.5313,75.4356 332.125,75.4356 Q332.7188,75.4356 333.3438,75.2794 Q333.9688,75.1231 334.7969,74.7481 L334.7969,76.9669 Q334.0625,77.2794 333.2656,77.4356 Q332.4844,77.5919 331.7188,77.5919 Z " fill="#000000"/><text fill="#000000" font-family="sans-serif" font-size="14" lengthAdjust="spacing" textLength="116" x="352.75" y="76.102">BookViewMapper</text><line style="stroke:#181818;stroke-width:0.5;" x1="230" x2="559" y1="86.67" y2="86.67"/><line style="stroke:#181818;stroke-width:0.5;" x1="230" x2="559" y1="94.67" y2="94.67"/><ellipse cx="240" cy="109.704" fill="#84BE84" rx="3" ry="3" style="stroke:#038048;stroke-width:1.0;"/><text fill="#000000" font-family="sans-serif" font-size="14" lengthAdjust="spacing" textLength="305" x="249" y="113.6359">toBookView(List&lt;Book&gt; book) : List&lt;BookView&gt;</text></g><!--class Book--><g id="elem_Book"><rect codeLine="30" fill="#F1F1F1" height="124.2717" id="Book" rx="2.5" ry="2.5" style="stroke:#181818;stroke-width:0.5;" width="187" x="7" y="26.07"/><ellipse cx="80.25" cy="42.07" fill="#ADD1B2" rx="11" ry="11" style="stroke:#181818;stroke-width:1.0;"/><path d="M79.7188,48.9919 Q77.9688,48.9919 76.8281,48.2575 Q75.7031,47.5075 75.1406,46.1638 Q74.5938,44.8044 74.5938,43.0075 Q74.5938,40.9763 75.25,39.5231 Q75.9063,38.07 77.1875,37.2888 Q78.4688,36.5075 80.3438,36.5075 Q81.2344,36.5075 81.9063,36.695 Q82.5781,36.8669 83.2656,37.2106 L82.4531,39.2263 Q81.8281,38.9138 81.2813,38.7888 Q80.75,38.6638 80.2656,38.6638 Q79.0938,38.6638 78.3906,39.195 Q77.6875,39.7263 77.3906,40.6794 Q77.0938,41.6325 77.0938,42.8981 Q77.0938,44.9138 77.8125,45.8825 Q78.5313,46.8356 80.125,46.8356 Q80.7188,46.8356 81.3438,46.6794 Q81.9688,46.5231 82.7969,46.1481 L82.7969,48.3669 Q82.0625,48.6794 81.2656,48.8356 Q80.4844,48.9919 79.7188,48.9919 Z " fill="#000000"/><text fill="#000000" font-family="sans-serif" font-size="14" lengthAdjust="spacing" textLength="32" x="100.75" y="47.502">Book</text><line style="stroke:#181818;stroke-width:0.5;" x1="8" x2="193" y1="58.07" y2="58.07"/><rect fill="none" height="6" style="stroke:#C82930;stroke-width:1.0;" width="6" x="15" y="70.104"/><text fill="#000000" font-family="sans-serif" font-size="14" lengthAdjust="spacing" textLength="67" x="27" y="77.0359">isbn: Isbn</text><rect fill="none" height="6" style="stroke:#C82930;stroke-width:1.0;" width="6" x="15" y="89.1719"/><text fill="#000000" font-family="sans-serif" font-size="14" lengthAdjust="spacing" textLength="63" x="27" y="96.1039">title: Title</text><rect fill="none" height="6" style="stroke:#C82930;stroke-width:1.0;" width="6" x="15" y="108.2398"/><text fill="#000000" font-family="sans-serif" font-size="14" lengthAdjust="spacing" textLength="89" x="27" y="115.1718">genre: Genre</text><rect fill="none" height="6" style="stroke:#C82930;stroke-width:1.0;" width="6" x="15" y="127.3077"/><text fill="#000000" font-family="sans-serif" font-size="14" lengthAdjust="spacing" textLength="161" x="27" y="134.2397">description: Description</text><line style="stroke:#181818;stroke-width:0.5;" x1="8" x2="193" y1="142.3417" y2="142.3417"/></g><!--class Author--><g id="elem_Author"><rect codeLine="38" fill="#F1F1F1" height="124.2717" id="Author" rx="2.5" ry="2.5" style="stroke:#181818;stroke-width:0.5;" width="172" x="14.5" y="229.41"/><ellipse cx="73.25" cy="245.41" fill="#ADD1B2" rx="11" ry="11" style="stroke:#181818;stroke-width:1.0;"/><path d="M72.7188,252.3319 Q70.9688,252.3319 69.8281,251.5975 Q68.7031,250.8475 68.1406,249.5038 Q67.5938,248.1444 67.5938,246.3475 Q67.5938,244.3163 68.25,242.8631 Q68.9063,241.41 70.1875,240.6288 Q71.4688,239.8475 73.3438,239.8475 Q74.2344,239.8475 74.9063,240.035 Q75.5781,240.2069 76.2656,240.5506 L75.4531,242.5663 Q74.8281,242.2538 74.2813,242.1288 Q73.75,242.0038 73.2656,242.0038 Q72.0938,242.0038 71.3906,242.535 Q70.6875,243.0663 70.3906,244.0194 Q70.0938,244.9725 70.0938,246.2381 Q70.0938,248.2538 70.8125,249.2225 Q71.5313,250.1756 73.125,250.1756 Q73.7188,250.1756 74.3438,250.0194 Q74.9688,249.8631 75.7969,249.4881 L75.7969,251.7069 Q75.0625,252.0194 74.2656,252.1756 Q73.4844,252.3319 72.7188,252.3319 Z " fill="#000000"/><text fill="#000000" font-family="sans-serif" font-size="14" lengthAdjust="spacing" textLength="46" x="93.75" y="250.842">Author</text><line style="stroke:#181818;stroke-width:0.5;" x1="15.5" x2="185.5" y1="261.41" y2="261.41"/><rect fill="none" height="6" style="stroke:#C82930;stroke-width:1.0;" width="6" x="22.5" y="273.444"/><text fill="#000000" font-family="sans-serif" font-size="14" lengthAdjust="spacing" textLength="146" x="34.5" y="280.3759">authorNumber: Long;</text><rect fill="none" height="6" style="stroke:#C82930;stroke-width:1.0;" width="6" x="22.5" y="292.5119"/><text fill="#000000" font-family="sans-serif" font-size="14" lengthAdjust="spacing" textLength="91" x="34.5" y="299.4439">version: long;</text><rect fill="none" height="6" style="stroke:#C82930;stroke-width:1.0;" width="6" x="22.5" y="311.5798"/><text fill="#000000" font-family="sans-serif" font-size="14" lengthAdjust="spacing" textLength="86" x="34.5" y="318.5118">name: Name</text><rect fill="none" height="6" style="stroke:#C82930;stroke-width:1.0;" width="6" x="22.5" y="330.6477"/><text fill="#000000" font-family="sans-serif" font-size="14" lengthAdjust="spacing" textLength="50" x="34.5" y="337.5797">bio: Bio</text><line style="stroke:#181818;stroke-width:0.5;" x1="15.5" x2="185.5" y1="345.6817" y2="345.6817"/></g><!--class BookRepository--><g id="elem_BookRepository"><rect fill="#F1F1F1" height="48" id="BookRepository" rx="2.5" ry="2.5" style="stroke:#181818;stroke-width:0.5;" width="135" x="654" y="601.75"/><ellipse cx="669" cy="617.75" fill="#ADD1B2" rx="11" ry="11" style="stroke:#181818;stroke-width:1.0;"/><path d="M668.4688,624.6719 Q666.7188,624.6719 665.5781,623.9375 Q664.4531,623.1875 663.8906,621.8438 Q663.3438,620.4844 663.3438,618.6875 Q663.3438,616.6563 664,615.2031 Q664.6563,613.75 665.9375,612.9688 Q667.2188,612.1875 669.0938,612.1875 Q669.9844,612.1875 670.6563,612.375 Q671.3281,612.5469 672.0156,612.8906 L671.2031,614.9063 Q670.5781,614.5938 670.0313,614.4688 Q669.5,614.3438 669.0156,614.3438 Q667.8438,614.3438 667.1406,614.875 Q666.4375,615.4063 666.1406,616.3594 Q665.8438,617.3125 665.8438,618.5781 Q665.8438,620.5938 666.5625,621.5625 Q667.2813,622.5156 668.875,622.5156 Q669.4688,622.5156 670.0938,622.3594 Q670.7188,622.2031 671.5469,621.8281 L671.5469,624.0469 Q670.8125,624.3594 670.0156,624.5156 Q669.2344,624.6719 668.4688,624.6719 Z " fill="#000000"/><text fill="#000000" font-family="sans-serif" font-size="14" lengthAdjust="spacing" textLength="103" x="683" y="623.182">BookRepository</text><line style="stroke:#181818;stroke-width:0.5;" x1="655" x2="788" y1="633.75" y2="633.75"/><line style="stroke:#181818;stroke-width:0.5;" x1="655" x2="788" y1="641.75" y2="641.75"/></g><!--reverse link BookService to BookServiceImpl--><g id="link_BookService_BookServiceImpl"><path d="M721.5,343.51 C721.5,369.44 721.5,387.39 721.5,413.3 " fill="none" id="BookService-backto-BookServiceImpl" style="stroke:#181818;stroke-width:1.0;stroke-dasharray:7.0,7.0;"/><polygon fill="none" points="721.5,325.51,715.5,343.51,727.5,343.51,721.5,325.51" style="stroke:#181818;stroke-width:1.0;"/></g><!--link BookController to BookService--><g id="link_BookController_BookService"><path codeLine="45" d="M491.9,291.55 C503.41,291.55 508.92,291.55 520.43,291.55 " fill="none" id="BookController-to-BookService" style="stroke:#181818;stroke-width:1.0;"/><polygon fill="#181818" points="526.43,291.55,517.43,287.55,521.43,291.55,517.43,295.55,526.43,291.55" style="stroke:#181818;stroke-width:1.0;"/><text fill="#000000" font-family="sans-serif" font-size="13" lengthAdjust="spacing" textLength="7" x="499.6252" y="287.8234">1</text><text fill="#000000" font-family="sans-serif" font-size="13" lengthAdjust="spacing" textLength="7" x="511.6734" y="288.129">1</text></g><!--link BookServiceImpl to BookRepository--><g id="link_BookServiceImpl_BookRepository"><path codeLine="46" d="M721.5,481.01 C721.5,516.01 721.5,564.57 721.5,595.43 " fill="none" id="BookServiceImpl-to-BookRepository" style="stroke:#181818;stroke-width:1.0;"/><polygon fill="#181818" points="721.5,601.43,725.5,592.43,721.5,596.43,717.5,592.43,721.5,601.43" style="stroke:#181818;stroke-width:1.0;"/><text fill="#000000" font-family="sans-serif" font-size="13" lengthAdjust="spacing" textLength="7" x="713.8547" y="502.7704">1</text><text fill="#000000" font-family="sans-serif" font-size="13" lengthAdjust="spacing" textLength="7" x="713.6031" y="590.0073">1</text></g><!--reverse link BookViewMapper to BookController--><g id="link_BookViewMapper_BookController"><path codeLine="48" d="M394.5,128 C394.5,162.44 394.5,210.7 394.5,248.31 " fill="none" id="BookViewMapper-backto-BookController" style="stroke:#181818;stroke-width:1.0;stroke-dasharray:7.0,7.0;"/><polygon fill="#181818" points="394.5,122,390.5,131,394.5,127,398.5,131,394.5,122" style="stroke:#181818;stroke-width:1.0;"/></g><!--link BookViewMapper to BookView--><g id="link_BookViewMapper_BookView"><path codeLine="49" d="M560.35,88.21 C571.94,88.21 577.53,88.21 589.11,88.21 " fill="none" id="BookViewMapper-to-BookView" style="stroke:#181818;stroke-width:1.0;stroke-dasharray:7.0,7.0;"/><polygon fill="#181818" points="595.11,88.21,586.11,84.21,590.11,88.21,586.11,92.21,595.11,88.21" style="stroke:#181818;stroke-width:1.0;"/></g><!--link Book to Author--><g id="link_Book_Author"><path codeLine="51" d="M100.5,150.71 C100.5,175.57 100.5,192.21 100.5,217.07 " fill="none" id="Book-to-Author" style="stroke:#181818;stroke-width:1.0;"/><polygon fill="none" points="100.5,229.07,104.5,223.07,100.5,217.07,96.5,223.07,100.5,229.07" style="stroke:#181818;stroke-width:1.0;"/><text fill="#000000" font-family="sans-serif" font-size="13" lengthAdjust="spacing" textLength="7" x="93.1172" y="172.4117">1</text><text fill="#000000" font-family="sans-serif" font-size="13" lengthAdjust="spacing" textLength="20" x="79.3438" y="217.8012">1..*</text></g><!--SRC=[hL9DJyCm3BtdLqIxi37QQTU2AZ6Gq2G-98QuehOpdLcQX2GTcX3_dRHDkopiI0z9RJyzlnVxR6ECrCbi9bd6JLsnk13LJCDd3Ro0Q8rPgRAAa89bMjE54DiLg1qMGBy9jT-KlYDVB_RNjTa8zPXLCCw6tuIkZ49UJX9wZzfSTQ2K_9pWMrQIKRG7LC3DgLR_q-v6SAC4Ow0SRKJpGwl4x-iRj5azxecRAA1zHVZg-GmQDeXnkKwbTWHTANMr4hWAyMlGXK9fKF2WWZeFKsyC-TPoFsJIKL_Gf_m32jEg36HQb0HbnKwf4NroV33MliU4UbuRGE1tUBnEpjAUn-vVcklOu5rpdV9tUmWylTtuXaPkpdMLWxBQ12ylNMK7IhSyp4loTY6QjUYdZC9E5qNJ8LY4qNn4exIz_F67szd28W_u359eD4Bj_r36jOpJuCd9SKXZXUN6U312dEVHF8xFHrH4jOo6RkGN]--></g></svg>