<?xml version="1.0" encoding="us-ascii" standalone="no"?><svg xmlns="http://www.w3.org/2000/svg" xmlns:xlink="http://www.w3.org/1999/xlink" contentStyleType="text/css" height="356px" preserveAspectRatio="none" style="width:893px;height:356px;background:#FFFFFF;" version="1.1" viewBox="0 0 893 356" width="893px" zoomAndPan="magnify"><defs/><g><rect fill="#FFFFFF" height="145.6641" style="stroke:#181818;stroke-width:1.0;" width="10" x="325" y="112.4297"/><rect fill="#FFFFFF" height="87.3984" style="stroke:#181818;stroke-width:1.0;" width="10" x="588" y="141.5625"/><rect fill="#FFFFFF" height="29.1328" style="stroke:#181818;stroke-width:1.0;" width="10" x="850" y="170.6953"/><line style="stroke:#181818;stroke-width:0.5;stroke-dasharray:5.0,5.0;" x1="34" x2="34" y1="81.2969" y2="276.0938"/><line style="stroke:#181818;stroke-width:0.5;stroke-dasharray:5.0,5.0;" x1="329.5" x2="329.5" y1="81.2969" y2="276.0938"/><line style="stroke:#181818;stroke-width:0.5;stroke-dasharray:5.0,5.0;" x1="592.5" x2="592.5" y1="81.2969" y2="276.0938"/><line style="stroke:#181818;stroke-width:0.5;stroke-dasharray:5.0,5.0;" x1="855" x2="855" y1="81.2969" y2="276.0938"/><text fill="#000000" font-family="sans-serif" font-size="14" lengthAdjust="spacing" textLength="52" x="5" y="77.9951">Reader</text><ellipse cx="34" cy="13.5" fill="#E2E2F0" rx="8" ry="8" style="stroke:#181818;stroke-width:0.5;"/><path d="M34,21.5 L34,48.5 M21,29.5 L47,29.5 M34,48.5 L21,63.5 M34,48.5 L47,63.5 " fill="none" style="stroke:#181818;stroke-width:0.5;"/><text fill="#000000" font-family="sans-serif" font-size="14" lengthAdjust="spacing" textLength="52" x="5" y="288.0889">Reader</text><ellipse cx="34" cy="299.8906" fill="#E2E2F0" rx="8" ry="8" style="stroke:#181818;stroke-width:0.5;"/><path d="M34,307.8906 L34,334.8906 M21,315.8906 L47,315.8906 M34,334.8906 L21,349.8906 M34,334.8906 L47,349.8906 " fill="none" style="stroke:#181818;stroke-width:0.5;"/><rect fill="#E2E2F0" height="30.2969" rx="2.5" ry="2.5" style="stroke:#181818;stroke-width:0.5;" width="137" x="261.5" y="50"/><text fill="#000000" font-family="sans-serif" font-size="14" lengthAdjust="spacing" textLength="123" x="268.5" y="69.9951">ReaderController</text><rect fill="#E2E2F0" height="30.2969" rx="2.5" ry="2.5" style="stroke:#181818;stroke-width:0.5;" width="137" x="261.5" y="275.0938"/><text fill="#000000" font-family="sans-serif" font-size="14" lengthAdjust="spacing" textLength="123" x="268.5" y="295.0889">ReaderController</text><rect fill="#E2E2F0" height="30.2969" rx="2.5" ry="2.5" style="stroke:#181818;stroke-width:0.5;" width="103" x="541.5" y="50"/><text fill="#000000" font-family="sans-serif" font-size="14" lengthAdjust="spacing" textLength="89" x="548.5" y="69.9951">BookService</text><rect fill="#E2E2F0" height="30.2969" rx="2.5" ry="2.5" style="stroke:#181818;stroke-width:0.5;" width="103" x="541.5" y="275.0938"/><text fill="#000000" font-family="sans-serif" font-size="14" lengthAdjust="spacing" textLength="89" x="548.5" y="295.0889">BookService</text><text fill="#000000" font-family="sans-serif" font-size="14" lengthAdjust="spacing" textLength="68" x="818" y="77.9951">Database</text><path d="M837,29 C837,19 855,19 855,19 C855,19 873,19 873,29 L873,55 C873,65 855,65 855,65 C855,65 837,65 837,55 L837,29 " fill="#E2E2F0" style="stroke:#181818;stroke-width:1.5;"/><path d="M837,29 C837,39 855,39 855,39 C855,39 873,39 873,29 " fill="none" style="stroke:#181818;stroke-width:1.5;"/><text fill="#000000" font-family="sans-serif" font-size="14" lengthAdjust="spacing" textLength="68" x="818" y="288.0889">Database</text><path d="M837,301.3906 C837,291.3906 855,291.3906 855,291.3906 C855,291.3906 873,291.3906 873,301.3906 L873,327.3906 C873,337.3906 855,337.3906 855,337.3906 C855,337.3906 837,337.3906 837,327.3906 L837,301.3906 " fill="#E2E2F0" style="stroke:#181818;stroke-width:1.5;"/><path d="M837,301.3906 C837,311.3906 855,311.3906 855,311.3906 C855,311.3906 873,311.3906 873,301.3906 " fill="none" style="stroke:#181818;stroke-width:1.5;"/><rect fill="#FFFFFF" height="145.6641" style="stroke:#181818;stroke-width:1.0;" width="10" x="325" y="112.4297"/><rect fill="#FFFFFF" height="87.3984" style="stroke:#181818;stroke-width:1.0;" width="10" x="588" y="141.5625"/><rect fill="#FFFFFF" height="29.1328" style="stroke:#181818;stroke-width:1.0;" width="10" x="850" y="170.6953"/><polygon fill="#181818" points="313,108.4297,323,112.4297,313,116.4297,317,112.4297" style="stroke:#181818;stroke-width:1.0;"/><line style="stroke:#181818;stroke-width:1.0;" x1="34" x2="319" y1="112.4297" y2="112.4297"/><text fill="#000000" font-family="sans-serif" font-size="13" lengthAdjust="spacing" textLength="272" x="41" y="107.3638">GET /searchBooksByAuthor (authorName)</text><polygon fill="#181818" points="576,137.5625,586,141.5625,576,145.5625,580,141.5625" style="stroke:#181818;stroke-width:1.0;"/><line style="stroke:#181818;stroke-width:1.0;" x1="335" x2="582" y1="141.5625" y2="141.5625"/><text fill="#000000" font-family="sans-serif" font-size="13" lengthAdjust="spacing" textLength="234" x="342" y="136.4966">searchBooksByAuthor(authorName)</text><polygon fill="#181818" points="838,166.6953,848,170.6953,838,174.6953,842,170.6953" style="stroke:#181818;stroke-width:1.0;"/><line style="stroke:#181818;stroke-width:1.0;" x1="598" x2="844" y1="170.6953" y2="170.6953"/><text fill="#000000" font-family="sans-serif" font-size="13" lengthAdjust="spacing" textLength="233" x="605" y="165.6294">create search criteria (authorName)</text><polygon fill="#181818" points="609,195.8281,599,199.8281,609,203.8281,605,199.8281" style="stroke:#181818;stroke-width:1.0;"/><line style="stroke:#181818;stroke-width:1.0;stroke-dasharray:2.0,2.0;" x1="603" x2="854" y1="199.8281" y2="199.8281"/><text fill="#000000" font-family="sans-serif" font-size="13" lengthAdjust="spacing" textLength="121" x="615" y="194.7622">return List&lt;Book&gt;</text><polygon fill="#181818" points="346,224.9609,336,228.9609,346,232.9609,342,228.9609" style="stroke:#181818;stroke-width:1.0;"/><line style="stroke:#181818;stroke-width:1.0;" x1="340" x2="592" y1="228.9609" y2="228.9609"/><text fill="#000000" font-family="sans-serif" font-size="13" lengthAdjust="spacing" textLength="121" x="352" y="223.895">return List&lt;Book&gt;</text><polygon fill="#181818" points="45,254.0938,35,258.0938,45,262.0938,41,258.0938" style="stroke:#181818;stroke-width:1.0;"/><line style="stroke:#181818;stroke-width:1.0;" x1="39" x2="329" y1="258.0938" y2="258.0938"/><text fill="#000000" font-family="sans-serif" font-size="13" lengthAdjust="spacing" textLength="153" x="51" y="253.0278">return List&lt;BookView&gt;</text><!--SRC=[VP5F3u8m3CNl_HGxwe5u9uP4r7Wn7jHuhwC9YyX8AHY_lKEGW4DF-_EsNzzhKOjbTIHCY04AP37Q59XBTxUskR3DCgSEnTZQsucuDffWWu9NB4bzDW3jNnL47aM5QhSzgqL9o3fjC6NyN5MIEXSpVAy7lDCSK8kfKSZt0HxJrHaOSYKcwDFmOGuOCXoopnKgpTIyRh7kP8JOu0_3VHjwGE0PP9AASxKtfImR9OA4VC2teubc_WMDqarrhPkJZxaOUenGtXHU]--></g></svg>