<?xml version="1.0" encoding="us-ascii" standalone="no"?><svg xmlns="http://www.w3.org/2000/svg" xmlns:xlink="http://www.w3.org/1999/xlink" contentStyleType="text/css" height="984px" preserveAspectRatio="none" style="width:1054px;height:984px;background:#FFFFFF;" version="1.1" viewBox="0 0 1054 984" width="1054px" zoomAndPan="magnify"><defs/><g><!--class ReaderRepository--><g id="elem_ReaderRepository"><rect codeLine="3" fill="#F1F1F1" height="67.0679" id="ReaderRepository" rx="2.5" ry="2.5" style="stroke:#181818;stroke-width:0.5;" width="464" x="583" y="808"/><ellipse cx="755.25" cy="824" fill="#B4A7E5" rx="11" ry="11" style="stroke:#181818;stroke-width:1.0;"/><path d="M751.2813,830.5 L751.2813,828.7969 L753.6406,828.5313 L753.6406,820.3281 L751.2813,820.0625 L751.2813,818.3594 L758.4219,818.3594 L758.4219,820.0625 L756,820.3281 L756,828.5313 L758.4219,828.7969 L758.4219,830.5 L751.2813,830.5 Z " fill="#000000"/><text fill="#000000" font-family="sans-serif" font-size="14" font-style="italic" lengthAdjust="spacing" textLength="111" x="775.75" y="829.432">ReaderRepository</text><line style="stroke:#181818;stroke-width:0.5;" x1="584" x2="1046" y1="840" y2="840"/><line style="stroke:#181818;stroke-width:0.5;" x1="584" x2="1046" y1="848" y2="848"/><ellipse cx="594" cy="863.034" fill="#84BE84" rx="3" ry="3" style="stroke:#038048;stroke-width:1.0;"/><text fill="#000000" font-family="sans-serif" font-size="14" lengthAdjust="spacing" textLength="438" x="603" y="866.9659">findByPhoneNumber(phoneNumber: String): List&lt;ReaderDetails&gt;</text></g><!--class ReaderService--><g id="elem_ReaderService"><rect codeLine="7" fill="#F1F1F1" height="67.0679" id="ReaderService" rx="2.5" ry="2.5" style="stroke:#181818;stroke-width:0.5;" width="464" x="382" y="315.21"/><ellipse cx="561.75" cy="331.21" fill="#ADD1B2" rx="11" ry="11" style="stroke:#181818;stroke-width:1.0;"/><path d="M561.2188,338.1319 Q559.4688,338.1319 558.3281,337.3975 Q557.2031,336.6475 556.6406,335.3038 Q556.0938,333.9444 556.0938,332.1475 Q556.0938,330.1163 556.75,328.6631 Q557.4063,327.21 558.6875,326.4288 Q559.9688,325.6475 561.8438,325.6475 Q562.7344,325.6475 563.4063,325.835 Q564.0781,326.0069 564.7656,326.3506 L563.9531,328.3663 Q563.3281,328.0538 562.7813,327.9288 Q562.25,327.8038 561.7656,327.8038 Q560.5938,327.8038 559.8906,328.335 Q559.1875,328.8663 558.8906,329.8194 Q558.5938,330.7725 558.5938,332.0381 Q558.5938,334.0538 559.3125,335.0225 Q560.0313,335.9756 561.625,335.9756 Q562.2188,335.9756 562.8438,335.8194 Q563.4688,335.6631 564.2969,335.2881 L564.2969,337.5069 Q563.5625,337.8194 562.7656,337.9756 Q561.9844,338.1319 561.2188,338.1319 Z " fill="#000000"/><text fill="#000000" font-family="sans-serif" font-size="14" lengthAdjust="spacing" textLength="96" x="582.25" y="336.642">ReaderService</text><line style="stroke:#181818;stroke-width:0.5;" x1="383" x2="845" y1="347.21" y2="347.21"/><line style="stroke:#181818;stroke-width:0.5;" x1="383" x2="845" y1="355.21" y2="355.21"/><ellipse cx="393" cy="370.244" fill="#84BE84" rx="3" ry="3" style="stroke:#038048;stroke-width:1.0;"/><text fill="#000000" font-family="sans-serif" font-size="14" lengthAdjust="spacing" textLength="438" x="402" y="374.1759">findByPhoneNumber(phoneNumber: String): List&lt;ReaderDetails&gt;</text></g><!--class ReaderServiceImpl--><g id="elem_ReaderServiceImpl"><rect codeLine="11" fill="#F1F1F1" height="86.1358" id="ReaderServiceImpl" rx="2.5" ry="2.5" style="stroke:#181818;stroke-width:0.5;" width="464" x="382" y="451.82"/><ellipse cx="546.25" cy="467.82" fill="#ADD1B2" rx="11" ry="11" style="stroke:#181818;stroke-width:1.0;"/><path d="M545.7188,474.7419 Q543.9688,474.7419 542.8281,474.0075 Q541.7031,473.2575 541.1406,471.9138 Q540.5938,470.5544 540.5938,468.7575 Q540.5938,466.7263 541.25,465.2731 Q541.9063,463.82 543.1875,463.0388 Q544.4688,462.2575 546.3438,462.2575 Q547.2344,462.2575 547.9063,462.445 Q548.5781,462.6169 549.2656,462.9606 L548.4531,464.9763 Q547.8281,464.6638 547.2813,464.5388 Q546.75,464.4138 546.2656,464.4138 Q545.0938,464.4138 544.3906,464.945 Q543.6875,465.4763 543.3906,466.4294 Q543.0938,467.3825 543.0938,468.6481 Q543.0938,470.6638 543.8125,471.6325 Q544.5313,472.5856 546.125,472.5856 Q546.7188,472.5856 547.3438,472.4294 Q547.9688,472.2731 548.7969,471.8981 L548.7969,474.1169 Q548.0625,474.4294 547.2656,474.5856 Q546.4844,474.7419 545.7188,474.7419 Z " fill="#000000"/><text fill="#000000" font-family="sans-serif" font-size="14" lengthAdjust="spacing" textLength="127" x="566.75" y="473.252">ReaderServiceImpl</text><line style="stroke:#181818;stroke-width:0.5;" x1="383" x2="845" y1="483.82" y2="483.82"/><rect fill="none" height="6" style="stroke:#C82930;stroke-width:1.0;" width="6" x="390" y="495.854"/><text fill="#000000" font-family="sans-serif" font-size="14" lengthAdjust="spacing" textLength="243" x="402" y="502.7859">readerRepository: ReaderRepository</text><line style="stroke:#181818;stroke-width:0.5;" x1="383" x2="845" y1="510.8879" y2="510.8879"/><ellipse cx="393" cy="525.9219" fill="#84BE84" rx="3" ry="3" style="stroke:#038048;stroke-width:1.0;"/><text fill="#000000" font-family="sans-serif" font-size="14" lengthAdjust="spacing" textLength="438" x="402" y="529.8539">findByPhoneNumber(phoneNumber: String): List&lt;ReaderDetails&gt;</text></g><!--class ReaderController--><g id="elem_ReaderController"><rect codeLine="16" fill="#F1F1F1" height="86.1358" id="ReaderController" rx="2.5" ry="2.5" style="stroke:#181818;stroke-width:0.5;" width="275" x="72.5" y="305.68"/><ellipse cx="148.25" cy="321.68" fill="#ADD1B2" rx="11" ry="11" style="stroke:#181818;stroke-width:1.0;"/><path d="M147.7188,328.6019 Q145.9688,328.6019 144.8281,327.8675 Q143.7031,327.1175 143.1406,325.7738 Q142.5938,324.4144 142.5938,322.6175 Q142.5938,320.5863 143.25,319.1331 Q143.9063,317.68 145.1875,316.8988 Q146.4688,316.1175 148.3438,316.1175 Q149.2344,316.1175 149.9063,316.305 Q150.5781,316.4769 151.2656,316.8206 L150.4531,318.8363 Q149.8281,318.5238 149.2813,318.3988 Q148.75,318.2738 148.2656,318.2738 Q147.0938,318.2738 146.3906,318.805 Q145.6875,319.3363 145.3906,320.2894 Q145.0938,321.2425 145.0938,322.5081 Q145.0938,324.5238 145.8125,325.4925 Q146.5313,326.4456 148.125,326.4456 Q148.7188,326.4456 149.3438,326.2894 Q149.9688,326.1331 150.7969,325.7581 L150.7969,327.9769 Q150.0625,328.2894 149.2656,328.4456 Q148.4844,328.6019 147.7188,328.6019 Z " fill="#000000"/><text fill="#000000" font-family="sans-serif" font-size="14" lengthAdjust="spacing" textLength="115" x="168.75" y="327.112">ReaderController</text><line style="stroke:#181818;stroke-width:0.5;" x1="73.5" x2="346.5" y1="337.68" y2="337.68"/><rect fill="none" height="6" style="stroke:#C82930;stroke-width:1.0;" width="6" x="80.5" y="349.714"/><text fill="#000000" font-family="sans-serif" font-size="14" lengthAdjust="spacing" textLength="197" x="92.5" y="356.6459">readerService: ReaderService</text><line style="stroke:#181818;stroke-width:0.5;" x1="73.5" x2="346.5" y1="364.7479" y2="364.7479"/><ellipse cx="83.5" cy="379.7819" fill="#84BE84" rx="3" ry="3" style="stroke:#038048;stroke-width:1.0;"/><text fill="#000000" font-family="sans-serif" font-size="14" lengthAdjust="spacing" textLength="249" x="92.5" y="383.7139">searchReaders(): List&lt;ReaderDetails&gt;</text></g><!--class ReaderView--><g id="elem_ReaderView"><rect codeLine="21" fill="#F1F1F1" height="238.6792" id="ReaderView" rx="2.5" ry="2.5" style="stroke:#181818;stroke-width:0.5;" width="267" x="447.5" y="7"/><ellipse cx="537.25" cy="23" fill="#ADD1B2" rx="11" ry="11" style="stroke:#181818;stroke-width:1.0;"/><path d="M536.7188,29.9219 Q534.9688,29.9219 533.8281,29.1875 Q532.7031,28.4375 532.1406,27.0938 Q531.5938,25.7344 531.5938,23.9375 Q531.5938,21.9063 532.25,20.4531 Q532.9063,19 534.1875,18.2188 Q535.4688,17.4375 537.3438,17.4375 Q538.2344,17.4375 538.9063,17.625 Q539.5781,17.7969 540.2656,18.1406 L539.4531,20.1563 Q538.8281,19.8438 538.2813,19.7188 Q537.75,19.5938 537.2656,19.5938 Q536.0938,19.5938 535.3906,20.125 Q534.6875,20.6563 534.3906,21.6094 Q534.0938,22.5625 534.0938,23.8281 Q534.0938,25.8438 534.8125,26.8125 Q535.5313,27.7656 537.125,27.7656 Q537.7188,27.7656 538.3438,27.6094 Q538.9688,27.4531 539.7969,27.0781 L539.7969,29.2969 Q539.0625,29.6094 538.2656,29.7656 Q537.4844,29.9219 536.7188,29.9219 Z " fill="#000000"/><text fill="#000000" font-family="sans-serif" font-size="14" lengthAdjust="spacing" textLength="79" x="557.75" y="28.432">ReaderView</text><line style="stroke:#181818;stroke-width:0.5;" x1="448.5" x2="713.5" y1="39" y2="39"/><rect fill="none" height="6" style="stroke:#C82930;stroke-width:1.0;" width="6" x="455.5" y="51.034"/><text fill="#000000" font-family="sans-serif" font-size="14" lengthAdjust="spacing" textLength="154" x="467.5" y="57.9659">readerNumber : String</text><rect fill="none" height="6" style="stroke:#C82930;stroke-width:1.0;" width="6" x="455.5" y="70.1019"/><text fill="#000000" font-family="sans-serif" font-size="14" lengthAdjust="spacing" textLength="90" x="467.5" y="77.0339">email : String</text><rect fill="none" height="6" style="stroke:#C82930;stroke-width:1.0;" width="6" x="455.5" y="89.1698"/><text fill="#000000" font-family="sans-serif" font-size="14" lengthAdjust="spacing" textLength="115" x="467.5" y="96.1018">fullName : String</text><rect fill="none" height="6" style="stroke:#C82930;stroke-width:1.0;" width="6" x="455.5" y="108.2377"/><text fill="#000000" font-family="sans-serif" font-size="14" lengthAdjust="spacing" textLength="117" x="467.5" y="115.1697">birthDate : String</text><rect fill="none" height="6" style="stroke:#C82930;stroke-width:1.0;" width="6" x="455.5" y="127.3056"/><text fill="#000000" font-family="sans-serif" font-size="14" lengthAdjust="spacing" textLength="152" x="467.5" y="134.2376">phoneNumber : String</text><rect fill="none" height="6" style="stroke:#C82930;stroke-width:1.0;" width="6" x="455.5" y="146.3735"/><text fill="#000000" font-family="sans-serif" font-size="14" lengthAdjust="spacing" textLength="92" x="467.5" y="153.3055">photo : String</text><rect fill="none" height="6" style="stroke:#C82930;stroke-width:1.0;" width="6" x="455.5" y="165.4415"/><text fill="#000000" font-family="sans-serif" font-size="14" lengthAdjust="spacing" textLength="154" x="467.5" y="172.3734">gdprConsent : boolean</text><rect fill="none" height="6" style="stroke:#C82930;stroke-width:1.0;" width="6" x="455.5" y="184.5094"/><text fill="#000000" font-family="sans-serif" font-size="14" lengthAdjust="spacing" textLength="190" x="467.5" y="191.4414">marketingConsent : boolean</text><rect fill="none" height="6" style="stroke:#C82930;stroke-width:1.0;" width="6" x="455.5" y="203.5773"/><text fill="#000000" font-family="sans-serif" font-size="14" lengthAdjust="spacing" textLength="241" x="467.5" y="210.5093">thirdPartySharingConsent : boolean</text><rect fill="none" height="6" style="stroke:#C82930;stroke-width:1.0;" width="6" x="455.5" y="222.6452"/><text fill="#000000" font-family="sans-serif" font-size="14" lengthAdjust="spacing" textLength="167" x="467.5" y="229.5772">interestList : List&lt;String&gt;</text><line style="stroke:#181818;stroke-width:0.5;" x1="448.5" x2="713.5" y1="237.6792" y2="237.6792"/></g><!--class ReaderDetails--><g id="elem_ReaderDetails"><rect codeLine="34" fill="#F1F1F1" height="271.1591" id="ReaderDetails" rx="2.5" ry="2.5" style="stroke:#181818;stroke-width:0.5;" width="268" x="280" y="705.95"/><ellipse cx="362.75" cy="728.656" fill="#ADD1B2" rx="11" ry="11" style="stroke:#181818;stroke-width:1.0;"/><path d="M362.2188,735.5779 Q360.4688,735.5779 359.3281,734.8435 Q358.2031,734.0935 357.6406,732.7498 Q357.0938,731.3904 357.0938,729.5935 Q357.0938,727.5623 357.75,726.1091 Q358.4063,724.656 359.6875,723.8748 Q360.9688,723.0935 362.8438,723.0935 Q363.7344,723.0935 364.4063,723.281 Q365.0781,723.4529 365.7656,723.7966 L364.9531,725.8123 Q364.3281,725.4998 363.7813,725.3748 Q363.25,725.2498 362.7656,725.2498 Q361.5938,725.2498 360.8906,725.781 Q360.1875,726.3123 359.8906,727.2654 Q359.5938,728.2185 359.5938,729.4841 Q359.5938,731.4998 360.3125,732.4685 Q361.0313,733.4216 362.625,733.4216 Q363.2188,733.4216 363.8438,733.2654 Q364.4688,733.1091 365.2969,732.7341 L365.2969,734.9529 Q364.5625,735.2654 363.7656,735.4216 Q362.9844,735.5779 362.2188,735.5779 Z " fill="#000000"/><text fill="#000000" font-family="sans-serif" font-size="12" font-style="italic" lengthAdjust="spacing" textLength="42" x="409.25" y="723.7781">&#171;entity&#187;</text><text fill="#000000" font-family="sans-serif" font-size="14" lengthAdjust="spacing" textLength="94" x="383.25" y="742.26">ReaderDetails</text><line style="stroke:#181818;stroke-width:0.5;" x1="281" x2="547" y1="751.362" y2="751.362"/><rect fill="none" height="6" style="stroke:#C82930;stroke-width:1.0;" width="6" x="288" y="763.396"/><text fill="#000000" font-family="sans-serif" font-size="14" lengthAdjust="spacing" textLength="61" x="300" y="770.328">pk : Long</text><rect fill="none" height="6" style="stroke:#C82930;stroke-width:1.0;" width="6" x="288" y="782.4639"/><text fill="#000000" font-family="sans-serif" font-size="14" lengthAdjust="spacing" textLength="94" x="300" y="789.3959">version : Long</text><rect fill="none" height="6" style="stroke:#C82930;stroke-width:1.0;" width="6" x="288" y="801.5318"/><text fill="#000000" font-family="sans-serif" font-size="14" lengthAdjust="spacing" textLength="136" x="300" y="808.4638">birthDate: BirthDate</text><rect fill="none" height="6" style="stroke:#C82930;stroke-width:1.0;" width="6" x="288" y="820.5997"/><text fill="#000000" font-family="sans-serif" font-size="14" lengthAdjust="spacing" textLength="209" x="300" y="827.5317">phoneNumber : PhoneNumber</text><rect fill="none" height="6" style="stroke:#C82930;stroke-width:1.0;" width="6" x="288" y="839.6677"/><text fill="#000000" font-family="sans-serif" font-size="14" lengthAdjust="spacing" textLength="167" x="300" y="846.5996">interestList : List&lt;Genre&gt;</text><rect fill="none" height="6" style="stroke:#C82930;stroke-width:1.0;" width="6" x="288" y="858.7356"/><text fill="#000000" font-family="sans-serif" font-size="14" lengthAdjust="spacing" textLength="89" x="300" y="865.6676">photo : Photo</text><rect fill="none" height="6" style="stroke:#C82930;stroke-width:1.0;" width="6" x="288" y="877.8035"/><text fill="#000000" font-family="sans-serif" font-size="14" lengthAdjust="spacing" textLength="155" x="300" y="884.7355">gdprConsent - boolean</text><rect fill="none" height="6" style="stroke:#C82930;stroke-width:1.0;" width="6" x="288" y="896.8714"/><text fill="#000000" font-family="sans-serif" font-size="14" lengthAdjust="spacing" textLength="191" x="300" y="903.8034">marketingConsent - boolean</text><rect fill="none" height="6" style="stroke:#C82930;stroke-width:1.0;" width="6" x="288" y="915.9393"/><text fill="#000000" font-family="sans-serif" font-size="14" lengthAdjust="spacing" textLength="242" x="300" y="922.8713">thirdPartySharingConsent - boolean</text><line style="stroke:#181818;stroke-width:0.5;" x1="281" x2="547" y1="930.9733" y2="930.9733"/><ellipse cx="291" cy="946.0072" fill="#84BE84" rx="3" ry="3" style="stroke:#038048;stroke-width:1.0;"/><text fill="#000000" font-family="sans-serif" font-size="14" lengthAdjust="spacing" textLength="171" x="300" y="949.9392">getBirthDate() : LocalDate</text><ellipse cx="291" cy="965.0752" fill="#84BE84" rx="3" ry="3" style="stroke:#038048;stroke-width:1.0;"/><text fill="#000000" font-family="sans-serif" font-size="14" lengthAdjust="spacing" textLength="125" x="300" y="969.0071">getVersion() : Long</text></g><!--class ReaderViewMapper--><g id="elem_ReaderViewMapper"><rect codeLine="48" fill="#F1F1F1" height="67.0679" id="ReaderViewMapper" rx="2.5" ry="2.5" style="stroke:#181818;stroke-width:0.5;" width="406" x="7" y="92.81"/><ellipse cx="139.75" cy="108.81" fill="#ADD1B2" rx="11" ry="11" style="stroke:#181818;stroke-width:1.0;"/><path d="M139.2188,115.7319 Q137.4688,115.7319 136.3281,114.9975 Q135.2031,114.2475 134.6406,112.9038 Q134.0938,111.5444 134.0938,109.7475 Q134.0938,107.7163 134.75,106.2631 Q135.4063,104.81 136.6875,104.0288 Q137.9688,103.2475 139.8438,103.2475 Q140.7344,103.2475 141.4063,103.435 Q142.0781,103.6069 142.7656,103.9506 L141.9531,105.9663 Q141.3281,105.6538 140.7813,105.5288 Q140.25,105.4038 139.7656,105.4038 Q138.5938,105.4038 137.8906,105.935 Q137.1875,106.4663 136.8906,107.4194 Q136.5938,108.3725 136.5938,109.6381 Q136.5938,111.6538 137.3125,112.6225 Q138.0313,113.5756 139.625,113.5756 Q140.2188,113.5756 140.8438,113.4194 Q141.4688,113.2631 142.2969,112.8881 L142.2969,115.1069 Q141.5625,115.4194 140.7656,115.5756 Q139.9844,115.7319 139.2188,115.7319 Z " fill="#000000"/><text fill="#000000" font-family="sans-serif" font-size="14" lengthAdjust="spacing" textLength="132" x="160.25" y="114.242">ReaderViewMapper</text><line style="stroke:#181818;stroke-width:0.5;" x1="8" x2="412" y1="124.81" y2="124.81"/><line style="stroke:#181818;stroke-width:0.5;" x1="8" x2="412" y1="132.81" y2="132.81"/><ellipse cx="18" cy="147.844" fill="#84BE84" rx="3" ry="3" style="stroke:#038048;stroke-width:1.0;"/><text fill="#000000" font-family="sans-serif" font-size="14" lengthAdjust="spacing" textLength="380" x="27" y="151.7759">toReaderView(ReaderDetails readerDetails) : ReaderView</text></g><!--class Reader--><g id="elem_Reader"><rect fill="#F1F1F1" height="48" id="Reader" rx="2.5" ry="2.5" style="stroke:#181818;stroke-width:0.5;" width="80" x="528" y="597.95"/><ellipse cx="543" cy="613.95" fill="#ADD1B2" rx="11" ry="11" style="stroke:#181818;stroke-width:1.0;"/><path d="M542.4688,620.8719 Q540.7188,620.8719 539.5781,620.1375 Q538.4531,619.3875 537.8906,618.0437 Q537.3438,616.6844 537.3438,614.8875 Q537.3438,612.8562 538,611.4031 Q538.6563,609.95 539.9375,609.1687 Q541.2188,608.3875 543.0938,608.3875 Q543.9844,608.3875 544.6563,608.575 Q545.3281,608.7469 546.0156,609.0906 L545.2031,611.1062 Q544.5781,610.7937 544.0313,610.6687 Q543.5,610.5437 543.0156,610.5437 Q541.8438,610.5437 541.1406,611.075 Q540.4375,611.6062 540.1406,612.5594 Q539.8438,613.5125 539.8438,614.7781 Q539.8438,616.7937 540.5625,617.7625 Q541.2813,618.7156 542.875,618.7156 Q543.4688,618.7156 544.0938,618.5594 Q544.7188,618.4031 545.5469,618.0281 L545.5469,620.2469 Q544.8125,620.5594 544.0156,620.7156 Q543.2344,620.8719 542.4688,620.8719 Z " fill="#000000"/><text fill="#000000" font-family="sans-serif" font-size="14" lengthAdjust="spacing" textLength="48" x="557" y="619.382">Reader</text><line style="stroke:#181818;stroke-width:0.5;" x1="529" x2="607" y1="629.95" y2="629.95"/><line style="stroke:#181818;stroke-width:0.5;" x1="529" x2="607" y1="637.95" y2="637.95"/></g><!--reverse link ReaderService to ReaderServiceImpl--><g id="link_ReaderService_ReaderServiceImpl"><path d="M614,400.45 C614,420.89 614,429.41 614,451.45 " fill="none" id="ReaderService-backto-ReaderServiceImpl" style="stroke:#181818;stroke-width:1.0;stroke-dasharray:7.0,7.0;"/><polygon fill="none" points="614,382.45,608,400.45,620,400.45,614,382.45" style="stroke:#181818;stroke-width:1.0;"/></g><!--link ReaderController to ReaderService--><g id="link_ReaderController_ReaderService"><path codeLine="52" d="M347.69,348.75 C358.96,348.75 364.23,348.75 375.5,348.75 " fill="none" id="ReaderController-to-ReaderService" style="stroke:#181818;stroke-width:1.0;"/><polygon fill="#181818" points="381.5,348.75,372.5,344.75,376.5,348.75,372.5,352.75,381.5,348.75" style="stroke:#181818;stroke-width:1.0;"/><text fill="#000000" font-family="sans-serif" font-size="13" lengthAdjust="spacing" textLength="7" x="355.4113" y="345.2016">1</text><text fill="#000000" font-family="sans-serif" font-size="13" lengthAdjust="spacing" textLength="7" x="366.7563" y="345.3799">1</text></g><!--link ReaderServiceImpl to ReaderRepository--><g id="link_ReaderServiceImpl_ReaderRepository"><path codeLine="53" d="M638.65,538.14 C679.22,607.71 756.1874,739.6869 792.8274,802.5169 " fill="none" id="ReaderServiceImpl-to-ReaderRepository" style="stroke:#181818;stroke-width:1.0;"/><polygon fill="#181818" points="795.85,807.7,794.7715,797.9104,793.3312,803.3808,787.8608,801.9404,795.85,807.7" style="stroke:#181818;stroke-width:1.0;"/><text fill="#000000" font-family="sans-serif" font-size="13" lengthAdjust="spacing" textLength="7" x="634.8886" y="560.0156">1</text><text fill="#000000" font-family="sans-serif" font-size="13" lengthAdjust="spacing" textLength="7" x="784.1784" y="795.9384">1</text></g><!--reverse link ReaderViewMapper to ReaderController--><g id="link_ReaderViewMapper_ReaderController"><path codeLine="55" d="M210,166.34 C210,205.01 210,263.16 210,305.45 " fill="none" id="ReaderViewMapper-backto-ReaderController" style="stroke:#181818;stroke-width:1.0;stroke-dasharray:7.0,7.0;"/><polygon fill="#181818" points="210,160.34,206,169.34,210,165.34,214,169.34,210,160.34" style="stroke:#181818;stroke-width:1.0;"/></g><!--link ReaderViewMapper to ReaderView--><g id="link_ReaderViewMapper_ReaderView"><path codeLine="56" d="M413.25,126.34 C424.61,126.34 429.97,126.34 441.33,126.34 " fill="none" id="ReaderViewMapper-to-ReaderView" style="stroke:#181818;stroke-width:1.0;stroke-dasharray:7.0,7.0;"/><polygon fill="#181818" points="447.33,126.34,438.33,122.34,442.33,126.34,438.33,130.34,447.33,126.34" style="stroke:#181818;stroke-width:1.0;"/></g><!--link Reader to ReaderDetails--><g id="link_Reader_ReaderDetails"><path codeLine="58" d="M551.52,646.24 C540.73,661.47 532.6048,672.9667 516.3748,695.8867 " fill="none" id="Reader-to-ReaderDetails" style="stroke:#181818;stroke-width:1.0;"/><polygon fill="none" points="509.44,705.68,516.1718,703.0949,516.3748,695.8867,509.643,698.4718,509.44,705.68" style="stroke:#181818;stroke-width:1.0;"/><text fill="#000000" font-family="sans-serif" font-size="13" lengthAdjust="spacing" textLength="7" x="539.8996" y="667.8013">1</text><text fill="#000000" font-family="sans-serif" font-size="13" lengthAdjust="spacing" textLength="7" x="507.7553" y="694.2522">1</text></g><!--link ReaderServiceImpl to Reader--><g id="link_ReaderServiceImpl_Reader"><path codeLine="59" d="M598.43,538.23 C591.13,558.07 584.7819,575.3191 578.6519,591.9791 " fill="none" id="ReaderServiceImpl-to-Reader" style="stroke:#181818;stroke-width:1.0;"/><polygon fill="#181818" points="576.58,597.61,583.4418,590.5449,578.3066,592.9176,575.9339,587.7824,576.58,597.61" style="stroke:#181818;stroke-width:1.0;"/><text fill="#000000" font-family="sans-serif" font-size="13" lengthAdjust="spacing" textLength="7" x="588.6291" y="559.7932">1</text><text fill="#000000" font-family="sans-serif" font-size="13" lengthAdjust="spacing" textLength="20" x="556.2161" y="586.1822">0..*</text></g><!--SRC=[jPJ9Rjj038RlUef1Bd5gI6wlWg534g0ea0H63EG-bcXfaDd2eH8OHT-zezNQiXnQ7RIGlyYVdsPqMH1P5sysLd9DfP9HQjJ6mKi9EeKm4pn7he90Q08yyXJO8_0Cy16iSO8CdjZlWFbZpOv2PzUdNM4qF9Jg0BYov_kOxGc5pgzYTYSSRPigjq1SI9S4Vu8WbTovjleUy5NuNl-lz2zb9HF-10eqBVSD6KvcZMVJry9_RlB6Q48Z9U34Icim7ljjAJdWc1PDngs-rkb9mDkuHUENTORR72Z_-ZHuBALyu0gcyOD0AcuvpH8380ifCjDWdjcAXVEVoASEnaZWkiqfZiz0NlkUW0g1sOuZdVO5nm-4zTe6HnKkrb9hRCnmjHZPTkiB2JebIGVFFbUlcjxwg_y6mkXni0SJi-lkTX7DO1LzOF8dQ8Ha0d1NNHVuXP_n2x_ARonSinoedsPrLK-SSjdFLWkU6XnjsWDPM8Vtt5f03tJDo9p3gp5w73vLvSxAgkXi0rtyk61XKb_6csR-FwYbuKWysEdpqb5fesGsG30Di0X5Nj18sbNhfgewch2quQ3tkmwzmUzHzAtN_GK0]--></g></svg>