<?xml version="1.0" encoding="us-ascii" standalone="no"?><svg xmlns="http://www.w3.org/2000/svg" xmlns:xlink="http://www.w3.org/1999/xlink" contentStyleType="text/css" height="399px" preserveAspectRatio="none" style="width:1061px;height:399px;background:#FFFFFF;" version="1.1" viewBox="0 0 1061 399" width="1061px" zoomAndPan="magnify"><defs/><g><rect fill="#FFFFFF" height="187.7969" style="stroke:#181818;stroke-width:1.0;" width="10" x="293" y="112.4297"/><rect fill="#FFFFFF" height="129.5313" style="stroke:#181818;stroke-width:1.0;" width="10" x="675" y="141.5625"/><rect fill="#FFFFFF" height="29.1328" style="stroke:#181818;stroke-width:1.0;" width="10" x="1018" y="212.8281"/><line style="stroke:#181818;stroke-width:0.5;stroke-dasharray:5.0,5.0;" x1="40" x2="40" y1="81.2969" y2="318.2266"/><line style="stroke:#181818;stroke-width:0.5;stroke-dasharray:5.0,5.0;" x1="297.5" x2="297.5" y1="81.2969" y2="318.2266"/><line style="stroke:#181818;stroke-width:0.5;stroke-dasharray:5.0,5.0;" x1="679.5" x2="679.5" y1="81.2969" y2="318.2266"/><line style="stroke:#181818;stroke-width:0.5;stroke-dasharray:5.0,5.0;" x1="1023" x2="1023" y1="81.2969" y2="318.2266"/><text fill="#000000" font-family="sans-serif" font-size="14" lengthAdjust="spacing" textLength="64" x="5" y="77.9951">Librarian</text><ellipse cx="40" cy="13.5" fill="#E2E2F0" rx="8" ry="8" style="stroke:#181818;stroke-width:0.5;"/><path d="M40,21.5 L40,48.5 M27,29.5 L53,29.5 M40,48.5 L27,63.5 M40,48.5 L53,63.5 " fill="none" style="stroke:#181818;stroke-width:0.5;"/><text fill="#000000" font-family="sans-serif" font-size="14" lengthAdjust="spacing" textLength="64" x="5" y="330.2217">Librarian</text><ellipse cx="40" cy="342.0234" fill="#E2E2F0" rx="8" ry="8" style="stroke:#181818;stroke-width:0.5;"/><path d="M40,350.0234 L40,377.0234 M27,358.0234 L53,358.0234 M40,377.0234 L27,392.0234 M40,377.0234 L53,392.0234 " fill="none" style="stroke:#181818;stroke-width:0.5;"/><rect fill="#E2E2F0" height="30.2969" rx="2.5" ry="2.5" style="stroke:#181818;stroke-width:0.5;" width="137" x="229.5" y="50"/><text fill="#000000" font-family="sans-serif" font-size="14" lengthAdjust="spacing" textLength="123" x="236.5" y="69.9951">ReaderController</text><rect fill="#E2E2F0" height="30.2969" rx="2.5" ry="2.5" style="stroke:#181818;stroke-width:0.5;" width="137" x="229.5" y="317.2266"/><text fill="#000000" font-family="sans-serif" font-size="14" lengthAdjust="spacing" textLength="123" x="236.5" y="337.2217">ReaderController</text><rect fill="#E2E2F0" height="30.2969" rx="2.5" ry="2.5" style="stroke:#181818;stroke-width:0.5;" width="119" x="620.5" y="50"/><text fill="#000000" font-family="sans-serif" font-size="14" lengthAdjust="spacing" textLength="105" x="627.5" y="69.9951">ReaderService</text><rect fill="#E2E2F0" height="30.2969" rx="2.5" ry="2.5" style="stroke:#181818;stroke-width:0.5;" width="119" x="620.5" y="317.2266"/><text fill="#000000" font-family="sans-serif" font-size="14" lengthAdjust="spacing" textLength="105" x="627.5" y="337.2217">ReaderService</text><text fill="#000000" font-family="sans-serif" font-size="14" lengthAdjust="spacing" textLength="68" x="986" y="77.9951">Database</text><path d="M1005,29 C1005,19 1023,19 1023,19 C1023,19 1041,19 1041,29 L1041,55 C1041,65 1023,65 1023,65 C1023,65 1005,65 1005,55 L1005,29 " fill="#E2E2F0" style="stroke:#181818;stroke-width:1.5;"/><path d="M1005,29 C1005,39 1023,39 1023,39 C1023,39 1041,39 1041,29 " fill="none" style="stroke:#181818;stroke-width:1.5;"/><text fill="#000000" font-family="sans-serif" font-size="14" lengthAdjust="spacing" textLength="68" x="986" y="330.2217">Database</text><path d="M1005,343.5234 C1005,333.5234 1023,333.5234 1023,333.5234 C1023,333.5234 1041,333.5234 1041,343.5234 L1041,369.5234 C1041,379.5234 1023,379.5234 1023,379.5234 C1023,379.5234 1005,379.5234 1005,369.5234 L1005,343.5234 " fill="#E2E2F0" style="stroke:#181818;stroke-width:1.5;"/><path d="M1005,343.5234 C1005,353.5234 1023,353.5234 1023,353.5234 C1023,353.5234 1041,353.5234 1041,343.5234 " fill="none" style="stroke:#181818;stroke-width:1.5;"/><rect fill="#FFFFFF" height="187.7969" style="stroke:#181818;stroke-width:1.0;" width="10" x="293" y="112.4297"/><rect fill="#FFFFFF" height="129.5313" style="stroke:#181818;stroke-width:1.0;" width="10" x="675" y="141.5625"/><rect fill="#FFFFFF" height="29.1328" style="stroke:#181818;stroke-width:1.0;" width="10" x="1018" y="212.8281"/><polygon fill="#181818" points="281,108.4297,291,112.4297,281,116.4297,285,112.4297" style="stroke:#181818;stroke-width:1.0;"/><line style="stroke:#181818;stroke-width:1.0;" x1="40" x2="287" y1="112.4297" y2="112.4297"/><text fill="#000000" font-family="sans-serif" font-size="13" lengthAdjust="spacing" textLength="196" x="47" y="107.3638">POST /search (SearchRequest)</text><polygon fill="#181818" points="663,137.5625,673,141.5625,663,145.5625,667,141.5625" style="stroke:#181818;stroke-width:1.0;"/><line style="stroke:#181818;stroke-width:1.0;" x1="303" x2="669" y1="141.5625" y2="141.5625"/><text fill="#000000" font-family="sans-serif" font-size="13" lengthAdjust="spacing" textLength="353" x="310" y="136.4966">searchReaders(request.getPage(), request.getQuery())</text><line style="stroke:#181818;stroke-width:1.0;" x1="685" x2="727" y1="170.6953" y2="170.6953"/><line style="stroke:#181818;stroke-width:1.0;" x1="727" x2="727" y1="170.6953" y2="183.6953"/><line style="stroke:#181818;stroke-width:1.0;" x1="686" x2="727" y1="183.6953" y2="183.6953"/><polygon fill="#181818" points="696,179.6953,686,183.6953,696,187.6953,692,183.6953" style="stroke:#181818;stroke-width:1.0;"/><text fill="#000000" font-family="sans-serif" font-size="13" lengthAdjust="spacing" textLength="319" x="692" y="165.6294">validatePhoneNumber(query.getPhoneNumber())</text><polygon fill="#181818" points="1006,208.8281,1016,212.8281,1006,216.8281,1010,212.8281" style="stroke:#181818;stroke-width:1.0;"/><line style="stroke:#181818;stroke-width:1.0;" x1="685" x2="1012" y1="212.8281" y2="212.8281"/><text fill="#000000" font-family="sans-serif" font-size="13" lengthAdjust="spacing" textLength="244" x="692" y="207.7622">create search criteria (phoneNumber)</text><polygon fill="#181818" points="696,237.9609,686,241.9609,696,245.9609,692,241.9609" style="stroke:#181818;stroke-width:1.0;"/><line style="stroke:#181818;stroke-width:1.0;stroke-dasharray:2.0,2.0;" x1="690" x2="1022" y1="241.9609" y2="241.9609"/><text fill="#000000" font-family="sans-serif" font-size="13" lengthAdjust="spacing" textLength="135" x="702" y="236.895">return ReaderDetails</text><polygon fill="#181818" points="314,267.0938,304,271.0938,314,275.0938,310,271.0938" style="stroke:#181818;stroke-width:1.0;"/><line style="stroke:#181818;stroke-width:1.0;" x1="308" x2="679" y1="271.0938" y2="271.0938"/><text fill="#000000" font-family="sans-serif" font-size="13" lengthAdjust="spacing" textLength="180" x="320" y="266.0278">return List&lt;ReaderDetails&gt;</text><polygon fill="#181818" points="51,296.2266,41,300.2266,51,304.2266,47,300.2266" style="stroke:#181818;stroke-width:1.0;"/><line style="stroke:#181818;stroke-width:1.0;" x1="45" x2="297" y1="300.2266" y2="300.2266"/><text fill="#000000" font-family="sans-serif" font-size="13" lengthAdjust="spacing" textLength="229" x="57" y="295.1606">return ListResponse&lt;ReaderView&gt;</text><!--SRC=[TTAnReCm40RWtK_XqKXDkqTLbcQCMWfLzyFvbLYYXfmFghvz8NK8o7IoTOZlphzDLXhM1rSniIElL4iiphgMlEW2T0I_D5wugMlmoiSIt3iBjIUXYWBqRQFKXEhDBg7qLkTlvOT-2Y2sPstAwrhWqY58fiYAwqcGpg0IQkBZC8CTeZPMW-4_zV44oUa4apteMUcz0_-OBEbvEvfQuYlTUghTSVWnFpSUhzrN1JQNKRrsd1M79gasHRVLbZ7sZvbOTe8XG6tQkp4RSufw4ZOhmp6aOn_BUmYvEgWZKkM_SoukBMe75-HvGUxcvcg0onkxluu5MY2qZG-8-AV3zueyUmw_]--></g></svg>