<?xml version="1.0" encoding="us-ascii" standalone="no"?><svg xmlns="http://www.w3.org/2000/svg" xmlns:xlink="http://www.w3.org/1999/xlink" contentStyleType="text/css" height="637px" preserveAspectRatio="none" style="width:896px;height:637px;background:#FFFFFF;" version="1.1" viewBox="0 0 896 637" width="896px" zoomAndPan="magnify"><defs/><g><rect fill="none" height="354.3984" style="stroke:#000000;stroke-width:1.5;" width="879.5" x="10" y="185.6953"/><rect fill="none" height="133.6641" style="stroke:#000000;stroke-width:1.5;" width="647" x="232.5" y="268.0938"/><line style="stroke:#181818;stroke-width:0.5;stroke-dasharray:5.0,5.0;" x1="49" x2="49" y1="81.2969" y2="557.0938"/><line style="stroke:#181818;stroke-width:0.5;stroke-dasharray:5.0,5.0;" x1="284.5" x2="284.5" y1="81.2969" y2="557.0938"/><line style="stroke:#181818;stroke-width:0.5;stroke-dasharray:5.0,5.0;" x1="651.5" x2="651.5" y1="81.2969" y2="557.0938"/><line style="stroke:#181818;stroke-width:0.5;stroke-dasharray:5.0,5.0;" x1="794.5" x2="794.5" y1="81.2969" y2="557.0938"/><text fill="#000000" font-family="sans-serif" font-size="14" lengthAdjust="spacing" textLength="52" x="20" y="77.9951">Reader</text><ellipse cx="49" cy="13.5" fill="#E2E2F0" rx="8" ry="8" style="stroke:#181818;stroke-width:0.5;"/><path d="M49,21.5 L49,48.5 M36,29.5 L62,29.5 M49,48.5 L36,63.5 M49,48.5 L62,63.5 " fill="none" style="stroke:#181818;stroke-width:0.5;"/><text fill="#000000" font-family="sans-serif" font-size="14" lengthAdjust="spacing" textLength="52" x="20" y="569.0889">Reader</text><ellipse cx="49" cy="580.8906" fill="#E2E2F0" rx="8" ry="8" style="stroke:#181818;stroke-width:0.5;"/><path d="M49,588.8906 L49,615.8906 M36,596.8906 L62,596.8906 M49,615.8906 L36,630.8906 M49,615.8906 L62,630.8906 " fill="none" style="stroke:#181818;stroke-width:0.5;"/><rect fill="#E2E2F0" height="30.2969" rx="2.5" ry="2.5" style="stroke:#181818;stroke-width:0.5;" width="85" x="242.5" y="50"/><text fill="#000000" font-family="sans-serif" font-size="14" lengthAdjust="spacing" textLength="71" x="249.5" y="69.9951">Controller</text><rect fill="#E2E2F0" height="30.2969" rx="2.5" ry="2.5" style="stroke:#181818;stroke-width:0.5;" width="85" x="242.5" y="556.0938"/><text fill="#000000" font-family="sans-serif" font-size="14" lengthAdjust="spacing" textLength="71" x="249.5" y="576.0889">Controller</text><rect fill="#E2E2F0" height="30.2969" rx="2.5" ry="2.5" style="stroke:#181818;stroke-width:0.5;" width="115" x="594.5" y="50"/><text fill="#000000" font-family="sans-serif" font-size="14" lengthAdjust="spacing" textLength="101" x="601.5" y="69.9951">AuthorService</text><rect fill="#E2E2F0" height="30.2969" rx="2.5" ry="2.5" style="stroke:#181818;stroke-width:0.5;" width="115" x="594.5" y="556.0938"/><text fill="#000000" font-family="sans-serif" font-size="14" lengthAdjust="spacing" textLength="101" x="601.5" y="576.0889">AuthorService</text><rect fill="#E2E2F0" height="30.2969" rx="2.5" ry="2.5" style="stroke:#181818;stroke-width:0.5;" width="150" x="719.5" y="50"/><text fill="#000000" font-family="sans-serif" font-size="14" lengthAdjust="spacing" textLength="136" x="726.5" y="69.9951">AuthorViewMapper</text><rect fill="#E2E2F0" height="30.2969" rx="2.5" ry="2.5" style="stroke:#181818;stroke-width:0.5;" width="150" x="719.5" y="556.0938"/><text fill="#000000" font-family="sans-serif" font-size="14" lengthAdjust="spacing" textLength="136" x="726.5" y="576.0889">AuthorViewMapper</text><polygon fill="#181818" points="273,108.4297,283,112.4297,273,116.4297,277,112.4297" style="stroke:#181818;stroke-width:1.0;"/><line style="stroke:#181818;stroke-width:1.0;" x1="49" x2="279" y1="112.4297" y2="112.4297"/><text fill="#000000" font-family="sans-serif" font-size="13" lengthAdjust="spacing" textLength="212" x="56" y="107.3638">GET /{authorNumber}/coauthors</text><polygon fill="#181818" points="640,137.5625,650,141.5625,640,145.5625,644,141.5625" style="stroke:#181818;stroke-width:1.0;"/><line style="stroke:#181818;stroke-width:1.0;" x1="285" x2="646" y1="141.5625" y2="141.5625"/><text fill="#000000" font-family="sans-serif" font-size="13" lengthAdjust="spacing" textLength="241" x="292" y="136.4966">findByAuthorNumber(authorNumber)</text><polygon fill="#181818" points="296,166.6953,286,170.6953,296,174.6953,292,170.6953" style="stroke:#181818;stroke-width:1.0;"/><line style="stroke:#181818;stroke-width:1.0;stroke-dasharray:2.0,2.0;" x1="290" x2="651" y1="170.6953" y2="170.6953"/><text fill="#000000" font-family="sans-serif" font-size="13" lengthAdjust="spacing" textLength="242" x="302" y="165.6294">Author (ou lan&#231;a NotFoundException)</text><path d="M10,185.6953 L74,185.6953 L74,192.8281 L64,202.8281 L10,202.8281 L10,185.6953 " fill="#EEEEEE" style="stroke:#000000;stroke-width:1.5;"/><rect fill="none" height="354.3984" style="stroke:#000000;stroke-width:1.5;" width="879.5" x="10" y="185.6953"/><text fill="#000000" font-family="sans-serif" font-size="13" font-weight="bold" lengthAdjust="spacing" textLength="19" x="25" y="198.7622">alt</text><text fill="#000000" font-family="sans-serif" font-size="11" font-weight="bold" lengthAdjust="spacing" textLength="128" x="89" y="197.9058">[Author encontrado]</text><polygon fill="#181818" points="640,219.9609,650,223.9609,640,227.9609,644,223.9609" style="stroke:#181818;stroke-width:1.0;"/><line style="stroke:#181818;stroke-width:1.0;" x1="285" x2="646" y1="223.9609" y2="223.9609"/><text fill="#000000" font-family="sans-serif" font-size="13" lengthAdjust="spacing" textLength="308" x="292" y="218.895">findCoAuthorsByAuthorNumber(authorNumber)</text><polygon fill="#181818" points="296,249.0938,286,253.0938,296,257.0938,292,253.0938" style="stroke:#181818;stroke-width:1.0;"/><line style="stroke:#181818;stroke-width:1.0;stroke-dasharray:2.0,2.0;" x1="290" x2="651" y1="253.0938" y2="253.0938"/><text fill="#000000" font-family="sans-serif" font-size="13" lengthAdjust="spacing" textLength="88" x="302" y="248.0278">List&lt;Author&gt;</text><path d="M232.5,268.0938 L308.5,268.0938 L308.5,275.2266 L298.5,285.2266 L232.5,285.2266 L232.5,268.0938 " fill="#EEEEEE" style="stroke:#000000;stroke-width:1.5;"/><rect fill="none" height="133.6641" style="stroke:#000000;stroke-width:1.5;" width="647" x="232.5" y="268.0938"/><text fill="#000000" font-family="sans-serif" font-size="13" font-weight="bold" lengthAdjust="spacing" textLength="31" x="247.5" y="281.1606">loop</text><text fill="#000000" font-family="sans-serif" font-size="11" font-weight="bold" lengthAdjust="spacing" textLength="122" x="323.5" y="280.3042">[para cada coautor]</text><polygon fill="#181818" points="640,302.3594,650,306.3594,640,310.3594,644,306.3594" style="stroke:#181818;stroke-width:1.0;"/><line style="stroke:#181818;stroke-width:1.0;" x1="285" x2="646" y1="306.3594" y2="306.3594"/><text fill="#000000" font-family="sans-serif" font-size="13" lengthAdjust="spacing" textLength="343" x="292" y="301.2935">findBooksByAuthorNumber(coAuthor.authorNumber)</text><polygon fill="#181818" points="296,331.4922,286,335.4922,296,339.4922,292,335.4922" style="stroke:#181818;stroke-width:1.0;"/><line style="stroke:#181818;stroke-width:1.0;stroke-dasharray:2.0,2.0;" x1="290" x2="651" y1="335.4922" y2="335.4922"/><text fill="#000000" font-family="sans-serif" font-size="13" lengthAdjust="spacing" textLength="78" x="302" y="330.4263">List&lt;Book&gt;</text><polygon fill="#181818" points="782.5,360.625,792.5,364.625,782.5,368.625,786.5,364.625" style="stroke:#181818;stroke-width:1.0;"/><line style="stroke:#181818;stroke-width:1.0;" x1="285" x2="788.5" y1="364.625" y2="364.625"/><text fill="#000000" font-family="sans-serif" font-size="13" lengthAdjust="spacing" textLength="220" x="292" y="359.5591">toCoAuthorView(coAuthor, books)</text><polygon fill="#181818" points="296,389.7578,286,393.7578,296,397.7578,292,393.7578" style="stroke:#181818;stroke-width:1.0;"/><line style="stroke:#181818;stroke-width:1.0;stroke-dasharray:2.0,2.0;" x1="290" x2="793.5" y1="393.7578" y2="393.7578"/><text fill="#000000" font-family="sans-serif" font-size="13" lengthAdjust="spacing" textLength="92" x="302" y="388.6919">CoAuthorView</text><polygon fill="#181818" points="782.5,425.8906,792.5,429.8906,782.5,433.8906,786.5,429.8906" style="stroke:#181818;stroke-width:1.0;"/><line style="stroke:#181818;stroke-width:1.0;" x1="285" x2="788.5" y1="429.8906" y2="429.8906"/><text fill="#000000" font-family="sans-serif" font-size="13" lengthAdjust="spacing" textLength="345" x="292" y="424.8247">toAuthorCoAuthorBooksView(author, coAuthorViews)</text><polygon fill="#181818" points="296,455.0234,286,459.0234,296,463.0234,292,459.0234" style="stroke:#181818;stroke-width:1.0;"/><line style="stroke:#181818;stroke-width:1.0;stroke-dasharray:2.0,2.0;" x1="290" x2="793.5" y1="459.0234" y2="459.0234"/><text fill="#000000" font-family="sans-serif" font-size="13" lengthAdjust="spacing" textLength="175" x="302" y="453.9575">AuthorCoAuthorBooksView</text><polygon fill="#181818" points="60,484.1563,50,488.1563,60,492.1563,56,488.1563" style="stroke:#181818;stroke-width:1.0;"/><line style="stroke:#181818;stroke-width:1.0;stroke-dasharray:2.0,2.0;" x1="54" x2="284" y1="488.1563" y2="488.1563"/><text fill="#000000" font-family="sans-serif" font-size="13" lengthAdjust="spacing" textLength="175" x="66" y="483.0903">AuthorCoAuthorBooksView</text><line style="stroke:#000000;stroke-width:1.0;stroke-dasharray:2.0,2.0;" x1="10" x2="889.5" y1="497.1563" y2="497.1563"/><text fill="#000000" font-family="sans-serif" font-size="11" font-weight="bold" lengthAdjust="spacing" textLength="147" x="15" y="507.3667">[Autor n&#227;o encontrado]</text><polygon fill="#181818" points="60,528.0938,50,532.0938,60,536.0938,56,532.0938" style="stroke:#181818;stroke-width:1.0;"/><line style="stroke:#181818;stroke-width:1.0;" x1="54" x2="284" y1="532.0938" y2="532.0938"/><text fill="#000000" font-family="sans-serif" font-size="13" lengthAdjust="spacing" textLength="126" x="66" y="527.0278">NotFoundException</text><!--SRC=[ZPDDJiCm48NtFiMegrQYT1-XI6rLs40NWDXF7QDQ18zbE_m8SHeM7AGN8xORyaT3ieYKyNjlFeqdo1qPk1MO2SCq6YUvrAWSJDQadA4y5sO2QA7-RCkMXTkJkHFcHN8HbAtAN-87ALvlKEjZShV8MCI1UTheci3LvXuM7nZKs-9v9ypdWbFyjgnMUb-B8O57gRBL-x9XdJPpPgobXtcdSpo5AHMGepfy8sp9NLAXiiqR5zf9KZF6C7ULKYZkxPWHW_BvbsrDiMW78NtKCEYrjEuYIb8Mz3cHXl8E43XcvSlFYqmu6aMs8dhgKl4ZxNaVRoIYJqq78UfrIC1HDHzV_Mr_1ZiFrsrSEtkzcp719LGM9iJOE8vOgsB2R08I7e5ueu5jNjW0r8dC7b5fY__5QOl8hV27vGQgmnSDhs4LrbjbLaxb1m00]--></g></svg>