<?xml version="1.0" encoding="us-ascii" standalone="no"?><svg xmlns="http://www.w3.org/2000/svg" xmlns:xlink="http://www.w3.org/1999/xlink" contentStyleType="text/css" height="714.6px" preserveAspectRatio="none" style="width:1454px;height:714px;background:#FFFFFF;" version="1.1" viewBox="0 0 1454 714" width="1454.4px" zoomAndPan="magnify"><defs/><g><!--class AuthorCoAuthorBooksView--><g id="elem_AuthorCoAuthorBooksView"><rect codeLine="3" fill="#F1F1F1" height="72.5344" id="AuthorCoAuthorBooksView" rx="2.25" ry="2.25" style="stroke:#181818;stroke-width:0.45;" width="216.9" x="210.141" y="6.3"/><ellipse cx="230.526" cy="20.7" fill="#ADD1B2" rx="9.9" ry="9.9" style="stroke:#181818;stroke-width:0.9;"/><path d="M230.0479,26.9297 Q228.4729,26.9297 227.4463,26.2688 Q226.4338,25.5938 225.9276,24.3844 Q225.4354,23.1609 225.4354,21.5438 Q225.4354,19.7156 226.026,18.4078 Q226.6166,17.1 227.7698,16.3969 Q228.9229,15.6938 230.6104,15.6938 Q231.4119,15.6938 232.0166,15.8625 Q232.6213,16.0172 233.2401,16.3266 L232.5088,18.1406 Q231.9463,17.8594 231.4541,17.7469 Q230.976,17.6344 230.5401,17.6344 Q229.4854,17.6344 228.8526,18.1125 Q228.2198,18.5906 227.9526,19.4484 Q227.6854,20.3063 227.6854,21.4453 Q227.6854,23.2594 228.3323,24.1313 Q228.9791,24.9891 230.4135,24.9891 Q230.9479,24.9891 231.5104,24.8484 Q232.0729,24.7078 232.8182,24.3703 L232.8182,26.3672 Q232.1573,26.6484 231.4401,26.7891 Q230.7369,26.9297 230.0479,26.9297 Z " fill="#000000"/><text fill="#000000" font-family="sans-serif" font-size="12.6" lengthAdjust="spacing" textLength="172.8" x="244.656" y="25.062">AuthorCoAuthorBooksView</text><line style="stroke:#181818;stroke-width:0.45;" x1="211.041" x2="426.141" y1="35.1" y2="35.1"/><text fill="#000000" font-family="sans-serif" font-size="12.6" lengthAdjust="spacing" textLength="124.2" x="215.541" y="50.3956">-AuthorView author</text><text fill="#000000" font-family="sans-serif" font-size="12.6" lengthAdjust="spacing" textLength="206.1" x="215.541" y="65.0628">-List&lt;CoAuthorView&gt; coauthors</text><line style="stroke:#181818;stroke-width:0.45;" x1="211.041" x2="426.141" y1="71.6344" y2="71.6344"/></g><!--class CoAuthorView--><g id="elem_CoAuthorView"><rect codeLine="8" fill="#F1F1F1" height="87.2016" id="CoAuthorView" rx="2.25" ry="2.25" style="stroke:#181818;stroke-width:0.45;" width="197.1" x="746.541" y="134.1"/><ellipse cx="795.816" cy="148.5" fill="#ADD1B2" rx="9.9" ry="9.9" style="stroke:#181818;stroke-width:0.9;"/><path d="M795.3379,154.7297 Q793.7629,154.7297 792.7363,154.0688 Q791.7238,153.3938 791.2176,152.1844 Q790.7254,150.9609 790.7254,149.3438 Q790.7254,147.5156 791.316,146.2078 Q791.9066,144.9 793.0598,144.1969 Q794.2129,143.4938 795.9004,143.4938 Q796.7019,143.4938 797.3066,143.6625 Q797.9113,143.8172 798.5301,144.1266 L797.7988,145.9406 Q797.2363,145.6594 796.7441,145.5469 Q796.266,145.4344 795.8301,145.4344 Q794.7754,145.4344 794.1426,145.9125 Q793.5098,146.3906 793.2426,147.2484 Q792.9754,148.1063 792.9754,149.2453 Q792.9754,151.0594 793.6223,151.9313 Q794.2691,152.7891 795.7035,152.7891 Q796.2379,152.7891 796.8004,152.6484 Q797.3629,152.5078 798.1082,152.1703 L798.1082,154.1672 Q797.4473,154.4484 796.7301,154.5891 Q796.0269,154.7297 795.3379,154.7297 Z " fill="#000000"/><text fill="#000000" font-family="sans-serif" font-size="12.6" lengthAdjust="spacing" textLength="90.9" x="814.266" y="152.862">CoAuthorView</text><line style="stroke:#181818;stroke-width:0.45;" x1="747.441" x2="942.741" y1="162.9" y2="162.9"/><text fill="#000000" font-family="sans-serif" font-size="12.6" lengthAdjust="spacing" textLength="82.8" x="751.941" y="178.1956">-String name</text><text fill="#000000" font-family="sans-serif" font-size="12.6" lengthAdjust="spacing" textLength="178.2" x="751.941" y="192.8628">-Map&lt;String, Object&gt; _links</text><text fill="#000000" font-family="sans-serif" font-size="12.6" lengthAdjust="spacing" textLength="186.3" x="751.941" y="207.53">-List&lt;BookShortView&gt; books</text><line style="stroke:#181818;stroke-width:0.45;" x1="747.441" x2="942.741" y1="214.1016" y2="214.1016"/></g><!--class AuthorView--><g id="elem_AuthorView"><rect codeLine="14" fill="#F1F1F1" height="116.5359" id="AuthorView" rx="2.25" ry="2.25" style="stroke:#181818;stroke-width:0.45;" width="189" x="80.091" y="248.4"/><ellipse cx="133.866" cy="262.8" fill="#ADD1B2" rx="9.9" ry="9.9" style="stroke:#181818;stroke-width:0.9;"/><path d="M133.3879,269.0297 Q131.8129,269.0297 130.7863,268.3688 Q129.7738,267.6938 129.2676,266.4844 Q128.7754,265.2609 128.7754,263.6438 Q128.7754,261.8156 129.366,260.5078 Q129.9566,259.2 131.1098,258.4969 Q132.2629,257.7938 133.9504,257.7938 Q134.7519,257.7938 135.3566,257.9625 Q135.9613,258.1172 136.5801,258.4266 L135.8488,260.2406 Q135.2863,259.9594 134.7941,259.8469 Q134.316,259.7344 133.8801,259.7344 Q132.8254,259.7344 132.1926,260.2125 Q131.5598,260.6906 131.2926,261.5484 Q131.0254,262.4063 131.0254,263.5453 Q131.0254,265.3594 131.6723,266.2313 Q132.3191,267.0891 133.7535,267.0891 Q134.2879,267.0891 134.8504,266.9484 Q135.4129,266.8078 136.1582,266.4703 L136.1582,268.4672 Q135.4973,268.7484 134.7801,268.8891 Q134.0769,269.0297 133.3879,269.0297 Z " fill="#000000"/><text fill="#000000" font-family="sans-serif" font-size="12.6" lengthAdjust="spacing" textLength="73.8" x="152.316" y="267.162">AuthorView</text><line style="stroke:#181818;stroke-width:0.45;" x1="80.991" x2="268.191" y1="277.2" y2="277.2"/><text fill="#000000" font-family="sans-serif" font-size="12.6" lengthAdjust="spacing" textLength="133.2" x="85.491" y="292.4956">-Long authorNumber</text><text fill="#000000" font-family="sans-serif" font-size="12.6" lengthAdjust="spacing" textLength="82.8" x="85.491" y="307.1628">-String name</text><text fill="#000000" font-family="sans-serif" font-size="12.6" lengthAdjust="spacing" textLength="65.7" x="85.491" y="321.83">-String bio</text><text fill="#000000" font-family="sans-serif" font-size="12.6" lengthAdjust="spacing" textLength="82.8" x="85.491" y="336.4972">-String photo</text><text fill="#000000" font-family="sans-serif" font-size="12.6" lengthAdjust="spacing" textLength="178.2" x="85.491" y="351.1644">-Map&lt;String, Object&gt; _links</text><line style="stroke:#181818;stroke-width:0.45;" x1="80.991" x2="268.191" y1="357.7359" y2="357.7359"/></g><!--class AuthorViewMapper--><g id="elem_AuthorViewMapper"><rect codeLine="22" fill="#F1F1F1" height="145.8703" id="AuthorViewMapper" rx="2.25" ry="2.25" style="stroke:#181818;stroke-width:0.45;" width="690.3" x="537.741" y="391.5"/><ellipse cx="817.866" cy="405.9" fill="#ADD1B2" rx="9.9" ry="9.9" style="stroke:#181818;stroke-width:0.9;"/><path d="M817.3879,412.1297 Q815.8129,412.1297 814.7863,411.4688 Q813.7738,410.7938 813.2676,409.5844 Q812.7754,408.3609 812.7754,406.7438 Q812.7754,404.9156 813.366,403.6078 Q813.9566,402.3 815.1098,401.5969 Q816.2629,400.8938 817.9504,400.8938 Q818.7519,400.8938 819.3566,401.0625 Q819.9613,401.2172 820.5801,401.5266 L819.8488,403.3406 Q819.2863,403.0594 818.7941,402.9469 Q818.316,402.8344 817.8801,402.8344 Q816.8254,402.8344 816.1926,403.3125 Q815.5598,403.7906 815.2926,404.6484 Q815.0254,405.5063 815.0254,406.6453 Q815.0254,408.4594 815.6723,409.3313 Q816.3191,410.1891 817.7535,410.1891 Q818.2879,410.1891 818.8504,410.0484 Q819.4129,409.9078 820.1582,409.5703 L820.1582,411.5672 Q819.4973,411.8484 818.7801,411.9891 Q818.0769,412.1297 817.3879,412.1297 Z " fill="#000000"/><text fill="#000000" font-family="sans-serif" font-size="12.6" lengthAdjust="spacing" textLength="122.4" x="836.316" y="410.262">AuthorViewMapper</text><line style="stroke:#181818;stroke-width:0.45;" x1="538.641" x2="1227.141" y1="420.3" y2="420.3"/><line style="stroke:#181818;stroke-width:0.45;" x1="538.641" x2="1227.141" y1="427.5" y2="427.5"/><text fill="#000000" font-family="sans-serif" font-size="12.6" lengthAdjust="spacing" textLength="272.7" x="543.141" y="442.7956">+AuthorView toAuthorView(Author author)</text><text fill="#000000" font-family="sans-serif" font-size="12.6" lengthAdjust="spacing" textLength="365.4" x="543.141" y="457.4628">+List&lt;AuthorView&gt; toAuthorView(List&lt;Author&gt; authors)</text><text fill="#000000" font-family="sans-serif" font-size="12.6" lengthAdjust="spacing" textLength="431.1" x="543.141" y="472.13">+CoAuthorView toCoAuthorView(Author author, List&lt;Book&gt; books)</text><text fill="#000000" font-family="sans-serif" font-size="12.6" lengthAdjust="spacing" textLength="399.6" x="543.141" y="486.7972">+List&lt;CoAuthorView&gt; toCoAuthorView(List&lt;Author&gt; authors)</text><text fill="#000000" font-family="sans-serif" font-size="12.6" lengthAdjust="spacing" textLength="679.5" x="543.141" y="501.4644">+AuthorCoAuthorBooksView toAuthorCoAuthorBooksView(Author author, List&lt;CoAuthorView&gt; coauthors)</text><text fill="#000000" font-family="sans-serif" font-size="12.6" lengthAdjust="spacing" textLength="256.5" x="543.141" y="516.1315">-String generatePhotoUrl(Author author)</text><text fill="#000000" font-family="sans-serif" font-size="12.6" lengthAdjust="spacing" textLength="302.4" x="543.141" y="530.7987">-Map&lt;String, Object&gt; mapLinks(Author author)</text></g><!--class BookShortView--><g id="elem_BookShortView"><rect codeLine="34" fill="#F1F1F1" height="101.8688" id="BookShortView" rx="2.25" ry="2.25" style="stroke:#181818;stroke-width:0.45;" width="189" x="1259.991" y="413.55"/><ellipse cx="1302.066" cy="427.95" fill="#ADD1B2" rx="9.9" ry="9.9" style="stroke:#181818;stroke-width:0.9;"/><path d="M1301.5879,434.1797 Q1300.0129,434.1797 1298.9863,433.5188 Q1297.9738,432.8438 1297.4676,431.6344 Q1296.9754,430.4109 1296.9754,428.7938 Q1296.9754,426.9656 1297.566,425.6578 Q1298.1566,424.35 1299.3098,423.6469 Q1300.4629,422.9438 1302.1504,422.9438 Q1302.9519,422.9438 1303.5566,423.1125 Q1304.1613,423.2672 1304.7801,423.5766 L1304.0488,425.3906 Q1303.4863,425.1094 1302.9941,424.9969 Q1302.516,424.8844 1302.0801,424.8844 Q1301.0254,424.8844 1300.3926,425.3625 Q1299.7598,425.8406 1299.4926,426.6984 Q1299.2254,427.5563 1299.2254,428.6953 Q1299.2254,430.5094 1299.8723,431.3813 Q1300.5191,432.2391 1301.9535,432.2391 Q1302.4879,432.2391 1303.0504,432.0984 Q1303.6129,431.9578 1304.3582,431.6203 L1304.3582,433.6172 Q1303.6973,433.8984 1302.9801,434.0391 Q1302.2769,434.1797 1301.5879,434.1797 Z " fill="#000000"/><text fill="#000000" font-family="sans-serif" font-size="12.6" lengthAdjust="spacing" textLength="97.2" x="1320.516" y="432.312">BookShortView</text><line style="stroke:#181818;stroke-width:0.45;" x1="1260.891" x2="1448.091" y1="442.35" y2="442.35"/><text fill="#000000" font-family="sans-serif" font-size="12.6" lengthAdjust="spacing" textLength="70.2" x="1265.391" y="457.6456">-String title</text><text fill="#000000" font-family="sans-serif" font-size="12.6" lengthAdjust="spacing" textLength="72" x="1265.391" y="472.3128">-String isbn</text><text fill="#000000" font-family="sans-serif" font-size="12.6" lengthAdjust="spacing" textLength="137.7" x="1265.391" y="486.98">-List&lt;String&gt; authors</text><text fill="#000000" font-family="sans-serif" font-size="12.6" lengthAdjust="spacing" textLength="178.2" x="1265.391" y="501.6472">-Map&lt;String, Object&gt; _links</text><line style="stroke:#181818;stroke-width:0.45;" x1="1260.891" x2="1448.091" y1="508.2188" y2="508.2188"/></g><!--class Author--><g id="elem_Author"><rect codeLine="42" fill="#F1F1F1" height="101.8688" id="Author" rx="2.25" ry="2.25" style="stroke:#181818;stroke-width:0.45;" width="144" x="208.791" y="606.6"/><ellipse cx="255.366" cy="621" fill="#ADD1B2" rx="9.9" ry="9.9" style="stroke:#181818;stroke-width:0.9;"/><path d="M254.8879,627.2297 Q253.3129,627.2297 252.2863,626.5688 Q251.2738,625.8938 250.7676,624.6844 Q250.2754,623.4609 250.2754,621.8438 Q250.2754,620.0156 250.866,618.7078 Q251.4566,617.4 252.6098,616.6969 Q253.7629,615.9938 255.4504,615.9938 Q256.2519,615.9938 256.8566,616.1625 Q257.4613,616.3172 258.0801,616.6266 L257.3488,618.4406 Q256.7863,618.1594 256.2941,618.0469 Q255.816,617.9344 255.3801,617.9344 Q254.3254,617.9344 253.6926,618.4125 Q253.0598,618.8906 252.7926,619.7484 Q252.5254,620.6063 252.5254,621.7453 Q252.5254,623.5594 253.1723,624.4313 Q253.8191,625.2891 255.2535,625.2891 Q255.7879,625.2891 256.3504,625.1484 Q256.9129,625.0078 257.6582,624.6703 L257.6582,626.6672 Q256.9973,626.9484 256.2801,627.0891 Q255.5769,627.2297 254.8879,627.2297 Z " fill="#000000"/><text fill="#000000" font-family="sans-serif" font-size="12.6" lengthAdjust="spacing" textLength="43.2" x="273.816" y="625.362">Author</text><line style="stroke:#181818;stroke-width:0.45;" x1="209.691" x2="351.891" y1="635.4" y2="635.4"/><text fill="#000000" font-family="sans-serif" font-size="12.6" lengthAdjust="spacing" textLength="133.2" x="214.191" y="650.6956">-Long authorNumber</text><text fill="#000000" font-family="sans-serif" font-size="12.6" lengthAdjust="spacing" textLength="82.8" x="214.191" y="665.3628">-String name</text><text fill="#000000" font-family="sans-serif" font-size="12.6" lengthAdjust="spacing" textLength="65.7" x="214.191" y="680.03">-String bio</text><text fill="#000000" font-family="sans-serif" font-size="12.6" lengthAdjust="spacing" textLength="82.8" x="214.191" y="694.6972">-String photo</text><line style="stroke:#181818;stroke-width:0.45;" x1="209.691" x2="351.891" y1="701.2688" y2="701.2688"/></g><!--class AuthorService--><g id="elem_AuthorService"><rect codeLine="51" fill="#F1F1F1" height="87.2016" id="AuthorService" rx="2.25" ry="2.25" style="stroke:#181818;stroke-width:0.45;" width="450.9" x="55.341" y="420.75"/><ellipse cx="231.516" cy="435.15" fill="#ADD1B2" rx="9.9" ry="9.9" style="stroke:#181818;stroke-width:0.9;"/><path d="M231.0379,441.3797 Q229.4629,441.3797 228.4363,440.7188 Q227.4238,440.0438 226.9176,438.8344 Q226.4254,437.6109 226.4254,435.9938 Q226.4254,434.1656 227.016,432.8578 Q227.6066,431.55 228.7598,430.8469 Q229.9129,430.1438 231.6004,430.1438 Q232.4019,430.1438 233.0066,430.3125 Q233.6113,430.4672 234.2301,430.7766 L233.4988,432.5906 Q232.9363,432.3094 232.4441,432.1969 Q231.966,432.0844 231.5301,432.0844 Q230.4754,432.0844 229.8426,432.5625 Q229.2098,433.0406 228.9426,433.8984 Q228.6754,434.7563 228.6754,435.8953 Q228.6754,437.7094 229.3223,438.5813 Q229.9691,439.4391 231.4035,439.4391 Q231.9379,439.4391 232.5004,439.2984 Q233.0629,439.1578 233.8082,438.8203 L233.8082,440.8172 Q233.1473,441.0984 232.4301,441.2391 Q231.7269,441.3797 231.0379,441.3797 Z " fill="#000000"/><text fill="#000000" font-family="sans-serif" font-size="12.6" lengthAdjust="spacing" textLength="90.9" x="249.966" y="439.512">AuthorService</text><line style="stroke:#181818;stroke-width:0.45;" x1="56.241" x2="505.341" y1="449.55" y2="449.55"/><line style="stroke:#181818;stroke-width:0.45;" x1="56.241" x2="505.341" y1="456.75" y2="456.75"/><text fill="#000000" font-family="sans-serif" font-size="12.6" lengthAdjust="spacing" textLength="405.9" x="60.741" y="472.0456">+Optional&lt;Author&gt; findByAuthorNumber(Long authorNumber)</text><text fill="#000000" font-family="sans-serif" font-size="12.6" lengthAdjust="spacing" textLength="440.1" x="60.741" y="486.7128">+List&lt;Author&gt; findCoAuthorsByAuthorNumber(Long authorNumber)</text><text fill="#000000" font-family="sans-serif" font-size="12.6" lengthAdjust="spacing" textLength="401.4" x="60.741" y="501.38">+List&lt;Book&gt; findBooksByAuthorNumber(Long authorNumber)</text></g><!--class Book--><g id="elem_Book"><rect fill="#F1F1F1" height="43.2" id="Book" rx="2.25" ry="2.25" style="stroke:#181818;stroke-width:0.45;" width="61.2" x="852.291" y="635.85"/><ellipse cx="865.791" cy="650.25" fill="#ADD1B2" rx="9.9" ry="9.9" style="stroke:#181818;stroke-width:0.9;"/><path d="M865.3129,656.4797 Q863.7379,656.4797 862.7113,655.8188 Q861.6988,655.1438 861.1926,653.9344 Q860.7004,652.7109 860.7004,651.0938 Q860.7004,649.2656 861.291,647.9578 Q861.8816,646.65 863.0348,645.9469 Q864.1879,645.2438 865.8754,645.2438 Q866.6769,645.2438 867.2816,645.4125 Q867.8863,645.5672 868.5051,645.8766 L867.7738,647.6906 Q867.2113,647.4094 866.7191,647.2969 Q866.241,647.1844 865.8051,647.1844 Q864.7504,647.1844 864.1176,647.6625 Q863.4848,648.1406 863.2176,648.9984 Q862.9504,649.8563 862.9504,650.9953 Q862.9504,652.8094 863.5973,653.6813 Q864.2441,654.5391 865.6785,654.5391 Q866.2129,654.5391 866.7754,654.3984 Q867.3379,654.2578 868.0832,653.9203 L868.0832,655.9172 Q867.4223,656.1984 866.7051,656.3391 Q866.0019,656.4797 865.3129,656.4797 Z " fill="#000000"/><text fill="#000000" font-family="sans-serif" font-size="12.6" lengthAdjust="spacing" textLength="32.4" x="878.391" y="654.612">Book</text><line style="stroke:#181818;stroke-width:0.45;" x1="853.191" x2="912.591" y1="664.65" y2="664.65"/><line style="stroke:#181818;stroke-width:0.45;" x1="853.191" x2="912.591" y1="671.85" y2="671.85"/></g><!--class AuthorController--><g id="elem_AuthorController"><rect fill="#F1F1F1" height="43.2" id="AuthorController" rx="2.25" ry="2.25" style="stroke:#181818;stroke-width:0.45;" width="135.9" x="355.941" y="156.15"/><ellipse cx="369.441" cy="170.55" fill="#ADD1B2" rx="9.9" ry="9.9" style="stroke:#181818;stroke-width:0.9;"/><path d="M368.9629,176.7797 Q367.3879,176.7797 366.3613,176.1188 Q365.3488,175.4438 364.8426,174.2344 Q364.3504,173.0109 364.3504,171.3938 Q364.3504,169.5656 364.941,168.2578 Q365.5316,166.95 366.6848,166.2469 Q367.8379,165.5438 369.5254,165.5438 Q370.3269,165.5438 370.9316,165.7125 Q371.5363,165.8672 372.1551,166.1766 L371.4238,167.9906 Q370.8613,167.7094 370.3691,167.5969 Q369.891,167.4844 369.4551,167.4844 Q368.4004,167.4844 367.7676,167.9625 Q367.1348,168.4406 366.8676,169.2984 Q366.6004,170.1563 366.6004,171.2953 Q366.6004,173.1094 367.2473,173.9813 Q367.8941,174.8391 369.3285,174.8391 Q369.8629,174.8391 370.4254,174.6984 Q370.9879,174.5578 371.7332,174.2203 L371.7332,176.2172 Q371.0723,176.4984 370.3551,176.6391 Q369.6519,176.7797 368.9629,176.7797 Z " fill="#000000"/><text fill="#000000" font-family="sans-serif" font-size="12.6" lengthAdjust="spacing" textLength="107.1" x="382.041" y="174.912">AuthorController</text><line style="stroke:#181818;stroke-width:0.45;" x1="356.841" x2="490.941" y1="184.95" y2="184.95"/><line style="stroke:#181818;stroke-width:0.45;" x1="356.841" x2="490.941" y1="192.15" y2="192.15"/></g><!--link AuthorViewMapper to Author--><g id="link_AuthorViewMapper_Author"><path codeLine="58" d="M656.127,537.327 C548.622,571.482 432.7816,608.2773 357.9466,632.0463 " fill="none" id="AuthorViewMapper-to-Author" style="stroke:#181818;stroke-width:0.9;stroke-dasharray:7.0,7.0;"/><polygon fill="#181818" points="352.8,633.681,361.6097,634.6601,357.0889,632.3188,359.4302,627.7979,352.8,633.681" style="stroke:#181818;stroke-width:0.9;"/><text fill="#000000" font-family="sans-serif" font-size="11.7" lengthAdjust="spacing" textLength="20.7" x="565.191" y="576.0602">use</text></g><!--link AuthorViewMapper to Book--><g id="link_AuthorViewMapper_Book"><path codeLine="59" d="M882.891,537.327 C882.891,572.481 882.891,606.78 882.891,630.342 " fill="none" id="AuthorViewMapper-to-Book" style="stroke:#181818;stroke-width:0.9;stroke-dasharray:7.0,7.0;"/><polygon fill="#181818" points="882.891,635.742,886.491,627.642,882.891,631.242,879.291,627.642,882.891,635.742" style="stroke:#181818;stroke-width:0.9;"/><text fill="#000000" font-family="sans-serif" font-size="11.7" lengthAdjust="spacing" textLength="20.7" x="883.791" y="576.0602">use</text></g><!--link AuthorService to Author--><g id="link_AuthorService_Author"><path codeLine="60" d="M280.791,508.221 C280.791,537.291 280.791,570.42 280.791,600.921 " fill="none" id="AuthorService-to-Author" style="stroke:#181818;stroke-width:0.9;stroke-dasharray:7.0,7.0;"/><polygon fill="#181818" points="280.791,606.321,284.391,598.221,280.791,601.821,277.191,598.221,280.791,606.321" style="stroke:#181818;stroke-width:0.9;"/><text fill="#000000" font-family="sans-serif" font-size="11.7" lengthAdjust="spacing" textLength="20.7" x="281.691" y="576.0602">use</text></g><!--link AuthorService to Book--><g id="link_AuthorService_Book"><path codeLine="61" d="M349.839,508.059 C391.554,532.215 446.571,561.168 498.591,579.6 C625.59,624.591 780.6664,645.4201 846.8434,652.8181 " fill="none" id="AuthorService-to-Book" style="stroke:#181818;stroke-width:0.9;stroke-dasharray:7.0,7.0;"/><polygon fill="#181818" points="852.21,653.418,844.5601,648.9404,847.7379,652.9181,843.7602,656.0958,852.21,653.418" style="stroke:#181818;stroke-width:0.9;"/><text fill="#000000" font-family="sans-serif" font-size="11.7" lengthAdjust="spacing" textLength="20.7" x="499.491" y="576.0602">use</text></g><!--link AuthorController to AuthorService--><g id="link_AuthorController_AuthorService"><path codeLine="62" d="M413.487,199.368 C390.204,245.709 335.9372,353.7347 304.7162,415.8797 " fill="none" id="AuthorController-to-AuthorService" style="stroke:#181818;stroke-width:0.9;stroke-dasharray:7.0,7.0;"/><polygon fill="#181818" points="302.292,420.705,309.1451,415.0832,304.3121,416.6839,302.7114,411.851,302.292,420.705" style="stroke:#181818;stroke-width:0.9;"/><text fill="#000000" font-family="sans-serif" font-size="11.7" lengthAdjust="spacing" textLength="20.7" x="386.991" y="310.5602">use</text></g><!--link AuthorController to AuthorViewMapper--><g id="link_AuthorController_AuthorViewMapper"><path codeLine="63" d="M457.272,199.368 C521.334,239.121 659.6386,324.9508 762.1936,388.5898 " fill="none" id="AuthorController-to-AuthorViewMapper" style="stroke:#181818;stroke-width:0.9;stroke-dasharray:7.0,7.0;"/><polygon fill="#181818" points="766.782,391.437,761.7976,384.1072,762.9584,389.0643,758.0013,390.225,766.782,391.437" style="stroke:#181818;stroke-width:0.9;"/><text fill="#000000" font-family="sans-serif" font-size="11.7" lengthAdjust="spacing" textLength="20.7" x="722.691" y="310.5602">use</text></g><!--link AuthorCoAuthorBooksView to AuthorView--><g id="link_AuthorCoAuthorBooksView_AuthorView"><path codeLine="64" d="M299.025,79.245 C275.148,122.67 237.0699,191.9272 208.7469,243.4342 " fill="none" id="AuthorCoAuthorBooksView-to-AuthorView" style="stroke:#181818;stroke-width:0.9;"/><polygon fill="#181818" points="206.145,248.166,213.2025,242.8029,208.3133,244.2228,206.8934,239.3337,206.145,248.166" style="stroke:#181818;stroke-width:0.9;"/></g><!--link AuthorCoAuthorBooksView to CoAuthorView--><g id="link_AuthorCoAuthorBooksView_CoAuthorView"><path codeLine="65" d="M427.05,71.091 C520.821,94.815 649.9919,127.4926 740.8829,150.4876 " fill="none" id="AuthorCoAuthorBooksView-to-CoAuthorView" style="stroke:#181818;stroke-width:0.9;"/><polygon fill="#181818" points="746.118,151.812,739.1484,146.3353,741.7555,150.7083,737.3824,153.3154,746.118,151.812" style="stroke:#181818;stroke-width:0.9;"/></g><!--link CoAuthorView to BookShortView--><g id="link_CoAuthorView_BookShortView"><path codeLine="66" d="M930.267,221.418 C1011.798,262.989 1137.726,328.851 1243.791,391.5 C1255.446,398.376 1263.0409,403.0088 1274.8579,410.5328 " fill="none" id="CoAuthorView-to-BookShortView" style="stroke:#181818;stroke-width:0.9;"/><polygon fill="#181818" points="1279.413,413.433,1274.5139,406.0459,1275.6171,411.0161,1270.6469,412.1193,1279.413,413.433" style="stroke:#181818;stroke-width:0.9;"/></g><!--link AuthorView to Author--><g id="link_AuthorView_Author"><path codeLine="67" d="M79.893,348.813 C63.729,360.243 49.113,374.355 39.591,391.5 C8.145,448.155 5.4,482.256 39.591,537.3 C76.257,596.322 146.536,625.6123 203.353,640.9663 " fill="none" id="AuthorView-to-Author" style="stroke:#181818;stroke-width:0.9;"/><polygon fill="#181818" points="208.566,642.375,201.6857,636.7865,204.2218,641.201,199.8073,643.7372,208.566,642.375" style="stroke:#181818;stroke-width:0.9;"/></g><!--link BookShortView to Book--><g id="link_BookShortView_Book"><path codeLine="68" d="M1283.409,515.331 C1270.548,523.269 1257.021,530.946 1243.791,537.3 C1127.07,593.379 982.4536,632.2699 918.8686,647.9659 " fill="none" id="BookShortView-to-Book" style="stroke:#181818;stroke-width:0.9;"/><polygon fill="#181818" points="913.626,649.26,922.3527,650.8139,917.9949,648.1815,920.6272,643.8237,913.626,649.26" style="stroke:#181818;stroke-width:0.9;"/></g><!--SRC=[lLHDJyCm3BttL-IuYMtYZAPAsqv8Wo5LS4Lf2LjOcrI92mB4VwTfsk4qpJukzB8kVYz-jf-hzroKLD62P3dLUW6WU5e1kysaIFWN8zTHHEgdYP951JkfLjB-BgNSwoVEFiXtWp7FjCKqnxHvHR4rrp3lw0OIaqnQb6vWFpWR1Zefabgas1912uPExsWvjv49sQHlB8EOFETSx7LVWH6Ur1U3bP2QElpqWUHhMQUsck-h8cNgfB3sDENIFont4kJvHGG4rgoIAIJp2gi7rCUHVMqB62D2qnay6OU6ed5BrfZjp0haAfXoyZU2jlEU2DSWlSjE2GbPjAl6YmpA2tXqx0zmomHJ5DY36UIZoaCD7XvjGSkr6UuGgvurdhPZsg5r00xvWEsuJaL_0MpeqB-B_ESPy5-sezSCcpbXwfrdpF7zfWGk1SqF7ddbucNvkK2IHfx8m1vOSkS5VV4jrkID0EEsy_YcKc-pPxEuw_ODgJGRHfWiJhnhK82Emnvt9GKecUTEzevn4eYKkTZ-Nawdc78KXfSoSZuu9khiHzGBsh-HkqCTwnS0]--></g></svg>