<?xml version="1.0" encoding="us-ascii" standalone="no"?><svg xmlns="http://www.w3.org/2000/svg" xmlns:xlink="http://www.w3.org/1999/xlink" contentStyleType="text/css" height="641px" preserveAspectRatio="none" style="width:1663px;height:641px;background:#FFFFFF;" version="1.1" viewBox="0 0 1663 641" width="1663px" zoomAndPan="magnify"><defs/><g><text fill="#000000" font-family="sans-serif" font-size="14" font-weight="bold" lengthAdjust="spacing" textLength="256" x="702.75" y="29.9659">Register a new reader as anonymous</text><rect fill="#FFFFFF" height="415.1782" style="stroke:#181818;stroke-width:1.0;" width="10" x="57.5" y="134.1358"/><rect fill="#FFFFFF" height="79.412" style="stroke:#181818;stroke-width:1.0;" width="10" x="62.5" y="469.902"/><rect fill="#FFFFFF" height="391.4722" style="stroke:#181818;stroke-width:1.0;" width="10" x="388.5" y="157.8419"/><rect fill="#FFFFFF" height="102.118" style="stroke:#181818;stroke-width:1.0;" width="10" x="393.5" y="438.196"/><rect fill="#FFFFFF" height="319.0602" style="stroke:#181818;stroke-width:1.0;" width="10" x="545.5" y="189.5479"/><rect fill="#FFFFFF" height="31.706" style="stroke:#181818;stroke-width:1.0;" width="10" x="754" y="221.2539"/><rect fill="#FFFFFF" height="95.118" style="stroke:#181818;stroke-width:1.0;" width="10" x="964.5" y="284.6659"/><rect fill="#FFFFFF" height="201.2361" style="stroke:#181818;stroke-width:1.0;" width="10" x="1161.5" y="348.0779"/><rect fill="#FFFFFF" height="232.9421" style="stroke:#181818;stroke-width:1.0;" width="10" x="1347.5" y="316.3719"/><rect fill="none" height="83.118" style="stroke:#000000;stroke-width:1.5;" width="629" x="10" y="394.784"/><line style="stroke:#181818;stroke-width:0.5;stroke-dasharray:5.0,5.0;" x1="62" x2="62" y1="124.1358" y2="558.314"/><line style="stroke:#181818;stroke-width:0.5;stroke-dasharray:5.0,5.0;" x1="393.5" x2="393.5" y1="124.1358" y2="558.314"/><line style="stroke:#181818;stroke-width:0.5;stroke-dasharray:5.0,5.0;" x1="550" x2="550" y1="124.1358" y2="558.314"/><line style="stroke:#181818;stroke-width:0.5;stroke-dasharray:5.0,5.0;" x1="759" x2="759" y1="124.1358" y2="558.314"/><line style="stroke:#181818;stroke-width:0.5;stroke-dasharray:5.0,5.0;" x1="969" x2="969" y1="124.1358" y2="558.314"/><line style="stroke:#181818;stroke-width:0.5;stroke-dasharray:5.0,5.0;" x1="1166.5" x2="1166.5" y1="124.1358" y2="558.314"/><line style="stroke:#181818;stroke-width:0.5;stroke-dasharray:5.0,5.0;" x1="1352.5" x2="1352.5" y1="124.1358" y2="558.314"/><line style="stroke:#181818;stroke-width:0.5;stroke-dasharray:5.0,5.0;" x1="1555.5" x2="1555.5" y1="124.1358" y2="558.314"/><text fill="#000000" font-family="sans-serif" font-size="14" lengthAdjust="spacing" textLength="79" x="20" y="120.0339">Anonymous</text><ellipse cx="62.5" cy="53.5679" fill="#E2E2F0" rx="8" ry="8" style="stroke:#181818;stroke-width:0.5;"/><path d="M62.5,61.5679 L62.5,88.5679 M49.5,69.5679 L75.5,69.5679 M62.5,88.5679 L49.5,103.5679 M62.5,88.5679 L75.5,103.5679 " fill="none" style="stroke:#181818;stroke-width:0.5;"/><text fill="#000000" font-family="sans-serif" font-size="14" lengthAdjust="spacing" textLength="79" x="20" y="572.28">Anonymous</text><ellipse cx="62.5" cy="584.882" fill="#E2E2F0" rx="8" ry="8" style="stroke:#181818;stroke-width:0.5;"/><path d="M62.5,592.882 L62.5,619.882 M49.5,600.882 L75.5,600.882 M62.5,619.882 L49.5,634.882 M62.5,619.882 L75.5,634.882 " fill="none" style="stroke:#181818;stroke-width:0.5;"/><rect fill="#E2E2F0" height="33.0679" rx="2.5" ry="2.5" style="stroke:#181818;stroke-width:0.5;" width="66" x="360.5" y="90.0679"/><text fill="#000000" font-family="sans-serif" font-size="14" lengthAdjust="spacing" textLength="52" x="367.5" y="112.0339">:System</text><rect fill="#E2E2F0" height="33.0679" rx="2.5" ry="2.5" style="stroke:#181818;stroke-width:0.5;" width="66" x="360.5" y="557.314"/><text fill="#000000" font-family="sans-serif" font-size="14" lengthAdjust="spacing" textLength="52" x="367.5" y="579.28">:System</text><rect fill="#E2E2F0" height="33.0679" rx="2.5" ry="2.5" style="stroke:#181818;stroke-width:0.5;" width="157" x="472" y="90.0679"/><text fill="#000000" font-family="sans-serif" font-size="14" lengthAdjust="spacing" textLength="143" x="479" y="112.0339">Ctrl:ReaderController</text><rect fill="#E2E2F0" height="33.0679" rx="2.5" ry="2.5" style="stroke:#181818;stroke-width:0.5;" width="157" x="472" y="557.314"/><text fill="#000000" font-family="sans-serif" font-size="14" lengthAdjust="spacing" textLength="143" x="479" y="579.28">Ctrl:ReaderController</text><rect fill="#E2E2F0" height="33.0679" rx="2.5" ry="2.5" style="stroke:#181818;stroke-width:0.5;" width="240" x="639" y="90.0679"/><text fill="#000000" font-family="sans-serif" font-size="14" lengthAdjust="spacing" textLength="226" x="646" y="112.0339">storageService:FileStorageService</text><rect fill="#E2E2F0" height="33.0679" rx="2.5" ry="2.5" style="stroke:#181818;stroke-width:0.5;" width="240" x="639" y="557.314"/><text fill="#000000" font-family="sans-serif" font-size="14" lengthAdjust="spacing" textLength="226" x="646" y="579.28">storageService:FileStorageService</text><rect fill="#E2E2F0" height="33.0679" rx="2.5" ry="2.5" style="stroke:#181818;stroke-width:0.5;" width="161" x="889" y="90.0679"/><text fill="#000000" font-family="sans-serif" font-size="14" lengthAdjust="spacing" textLength="147" x="896" y="112.0339">service:ReaderService</text><rect fill="#E2E2F0" height="33.0679" rx="2.5" ry="2.5" style="stroke:#181818;stroke-width:0.5;" width="161" x="889" y="557.314"/><text fill="#000000" font-family="sans-serif" font-size="14" lengthAdjust="spacing" textLength="147" x="896" y="579.28">service:ReaderService</text><rect fill="#E2E2F0" height="33.0679" rx="2.5" ry="2.5" style="stroke:#181818;stroke-width:0.5;" width="168" x="1082.5" y="90.0679"/><text fill="#000000" font-family="sans-serif" font-size="14" lengthAdjust="spacing" textLength="154" x="1089.5" y="112.0339">repo:ReaderRepository</text><rect fill="#E2E2F0" height="33.0679" rx="2.5" ry="2.5" style="stroke:#181818;stroke-width:0.5;" width="168" x="1082.5" y="557.314"/><text fill="#000000" font-family="sans-serif" font-size="14" lengthAdjust="spacing" textLength="154" x="1089.5" y="579.28">repo:ReaderRepository</text><rect fill="#E2E2F0" height="33.0679" rx="2.5" ry="2.5" style="stroke:#181818;stroke-width:0.5;" width="184" x="1260.5" y="90.0679"/><text fill="#000000" font-family="sans-serif" font-size="14" lengthAdjust="spacing" textLength="170" x="1267.5" y="112.0339">userRepo:UserRepository</text><rect fill="#E2E2F0" height="33.0679" rx="2.5" ry="2.5" style="stroke:#181818;stroke-width:0.5;" width="184" x="1260.5" y="557.314"/><text fill="#000000" font-family="sans-serif" font-size="14" lengthAdjust="spacing" textLength="170" x="1267.5" y="579.28">userRepo:UserRepository</text><rect fill="#E2E2F0" height="33.0679" rx="2.5" ry="2.5" style="stroke:#181818;stroke-width:0.5;" width="203" x="1454.5" y="90.0679"/><text fill="#000000" font-family="sans-serif" font-size="14" lengthAdjust="spacing" textLength="189" x="1461.5" y="112.0339">readerDetails:ReaderDetails</text><rect fill="#E2E2F0" height="33.0679" rx="2.5" ry="2.5" style="stroke:#181818;stroke-width:0.5;" width="203" x="1454.5" y="557.314"/><text fill="#000000" font-family="sans-serif" font-size="14" lengthAdjust="spacing" textLength="189" x="1461.5" y="579.28">readerDetails:ReaderDetails</text><rect fill="#FFFFFF" height="415.1782" style="stroke:#181818;stroke-width:1.0;" width="10" x="57.5" y="134.1358"/><rect fill="#FFFFFF" height="79.412" style="stroke:#181818;stroke-width:1.0;" width="10" x="62.5" y="469.902"/><rect fill="#FFFFFF" height="391.4722" style="stroke:#181818;stroke-width:1.0;" width="10" x="388.5" y="157.8419"/><rect fill="#FFFFFF" height="102.118" style="stroke:#181818;stroke-width:1.0;" width="10" x="393.5" y="438.196"/><rect fill="#FFFFFF" height="319.0602" style="stroke:#181818;stroke-width:1.0;" width="10" x="545.5" y="189.5479"/><rect fill="#FFFFFF" height="31.706" style="stroke:#181818;stroke-width:1.0;" width="10" x="754" y="221.2539"/><rect fill="#FFFFFF" height="95.118" style="stroke:#181818;stroke-width:1.0;" width="10" x="964.5" y="284.6659"/><rect fill="#FFFFFF" height="201.2361" style="stroke:#181818;stroke-width:1.0;" width="10" x="1161.5" y="348.0779"/><rect fill="#FFFFFF" height="232.9421" style="stroke:#181818;stroke-width:1.0;" width="10" x="1347.5" y="316.3719"/><polygon fill="#181818" points="376.5,153.8419,386.5,157.8419,376.5,161.8419,380.5,157.8419" style="stroke:#181818;stroke-width:1.0;"/><line style="stroke:#181818;stroke-width:1.0;" x1="67.5" x2="382.5" y1="157.8419" y2="157.8419"/><text fill="#000000" font-family="sans-serif" font-size="13" font-weight="bold" lengthAdjust="spacing" textLength="7" x="74.5" y="152.0328">1</text><text fill="#000000" font-family="sans-serif" font-size="13" lengthAdjust="spacing" textLength="291" x="85.5" y="152.0328">requests reader registration based on given data</text><polygon fill="#181818" points="533.5,185.5479,543.5,189.5479,533.5,193.5479,537.5,189.5479" style="stroke:#181818;stroke-width:1.0;"/><line style="stroke:#181818;stroke-width:1.0;" x1="398.5" x2="539.5" y1="189.5479" y2="189.5479"/><text fill="#000000" font-family="sans-serif" font-size="13" font-weight="bold" lengthAdjust="spacing" textLength="7" x="405.5" y="183.7389">2</text><text fill="#000000" font-family="sans-serif" font-size="13" lengthAdjust="spacing" textLength="90" x="416.5" y="183.7389">createReader();</text><polygon fill="#181818" points="742,217.2539,752,221.2539,742,225.2539,746,221.2539" style="stroke:#181818;stroke-width:1.0;"/><line style="stroke:#181818;stroke-width:1.0;" x1="555.5" x2="748" y1="221.2539" y2="221.2539"/><text fill="#000000" font-family="sans-serif" font-size="13" font-weight="bold" lengthAdjust="spacing" textLength="7" x="562.5" y="215.4449">3</text><text fill="#000000" font-family="sans-serif" font-size="13" lengthAdjust="spacing" textLength="114" x="573.5" y="215.4449">getRequestFile(file)</text><polygon fill="#181818" points="566.5,248.9599,556.5,252.9599,566.5,256.9599,562.5,252.9599" style="stroke:#181818;stroke-width:1.0;"/><line style="stroke:#181818;stroke-width:1.0;stroke-dasharray:2.0,2.0;" x1="560.5" x2="758" y1="252.9599" y2="252.9599"/><text fill="#000000" font-family="sans-serif" font-size="13" font-weight="bold" lengthAdjust="spacing" textLength="7" x="572.5" y="247.1509">4</text><text fill="#000000" font-family="sans-serif" font-size="13" lengthAdjust="spacing" textLength="53" x="583.5" y="247.1509">fileName</text><polygon fill="#181818" points="952.5,280.6659,962.5,284.6659,952.5,288.6659,956.5,284.6659" style="stroke:#181818;stroke-width:1.0;"/><line style="stroke:#181818;stroke-width:1.0;" x1="555.5" x2="958.5" y1="284.6659" y2="284.6659"/><text fill="#000000" font-family="sans-serif" font-size="13" font-weight="bold" lengthAdjust="spacing" textLength="7" x="562.5" y="278.8569">5</text><text fill="#000000" font-family="sans-serif" font-size="13" lengthAdjust="spacing" textLength="112" x="573.5" y="278.8569">create(readerData)</text><polygon fill="#181818" points="1335.5,312.3719,1345.5,316.3719,1335.5,320.3719,1339.5,316.3719" style="stroke:#181818;stroke-width:1.0;"/><line style="stroke:#181818;stroke-width:1.0;" x1="974.5" x2="1341.5" y1="316.3719" y2="316.3719"/><text fill="#000000" font-family="sans-serif" font-size="13" font-weight="bold" lengthAdjust="spacing" textLength="7" x="981.5" y="310.5629">6</text><text fill="#000000" font-family="sans-serif" font-size="13" lengthAdjust="spacing" textLength="90" x="992.5" y="310.5629">User(userData)</text><polygon fill="#181818" points="1149.5,344.0779,1159.5,348.0779,1149.5,352.0779,1153.5,348.0779" style="stroke:#181818;stroke-width:1.0;"/><line style="stroke:#181818;stroke-width:1.0;" x1="974.5" x2="1155.5" y1="348.0779" y2="348.0779"/><text fill="#000000" font-family="sans-serif" font-size="13" font-weight="bold" lengthAdjust="spacing" textLength="7" x="981.5" y="342.2689">7</text><text fill="#000000" font-family="sans-serif" font-size="13" lengthAdjust="spacing" textLength="157" x="992.5" y="342.2689">ReaderDetails(readerData)</text><polygon fill="#181818" points="566.5,375.784,556.5,379.784,566.5,383.784,562.5,379.784" style="stroke:#181818;stroke-width:1.0;"/><line style="stroke:#181818;stroke-width:1.0;stroke-dasharray:2.0,2.0;" x1="560.5" x2="968.5" y1="379.784" y2="379.784"/><text fill="#000000" font-family="sans-serif" font-size="13" font-weight="bold" lengthAdjust="spacing" textLength="7" x="572.5" y="373.975">8</text><text fill="#000000" font-family="sans-serif" font-size="13" lengthAdjust="spacing" textLength="120" x="583.5" y="373.975">Reader or exception</text><path d="M10,394.784 L73,394.784 L73,404.49 L63,414.49 L10,414.49 L10,394.784 " fill="#EEEEEE" style="stroke:#000000;stroke-width:1.5;"/><rect fill="none" height="83.118" style="stroke:#000000;stroke-width:1.5;" width="629" x="10" y="394.784"/><text fill="#000000" font-family="sans-serif" font-size="13" font-weight="bold" lengthAdjust="spacing" textLength="18" x="25" y="409.681">alt</text><text fill="#000000" font-family="sans-serif" font-size="11" font-weight="bold" lengthAdjust="spacing" textLength="138" x="88" y="408.5429">[If exception is returned]</text><polygon fill="#181818" points="414.5,434.196,404.5,438.196,414.5,442.196,410.5,438.196" style="stroke:#181818;stroke-width:1.0;"/><line style="stroke:#181818;stroke-width:1.0;" x1="408.5" x2="544.5" y1="438.196" y2="438.196"/><text fill="#000000" font-family="sans-serif" font-size="13" font-weight="bold" lengthAdjust="spacing" textLength="7" x="420.5" y="432.387">9</text><text fill="#000000" font-family="sans-serif" font-size="13" lengthAdjust="spacing" textLength="112" x="431.5" y="432.387">Reader is duplicate</text><polygon fill="#181818" points="83.5,465.902,73.5,469.902,83.5,473.902,79.5,469.902" style="stroke:#181818;stroke-width:1.0;"/><line style="stroke:#181818;stroke-width:1.0;" x1="77.5" x2="392.5" y1="469.902" y2="469.902"/><text fill="#000000" font-family="sans-serif" font-size="13" font-weight="bold" lengthAdjust="spacing" textLength="14" x="89.5" y="464.093">10</text><text fill="#000000" font-family="sans-serif" font-size="13" lengthAdjust="spacing" textLength="112" x="107.5" y="464.093">Reader is duplicate</text><polygon fill="#181818" points="414.5,504.608,404.5,508.608,414.5,512.608,410.5,508.608" style="stroke:#181818;stroke-width:1.0;"/><line style="stroke:#181818;stroke-width:1.0;stroke-dasharray:2.0,2.0;" x1="408.5" x2="549.5" y1="508.608" y2="508.608"/><text fill="#000000" font-family="sans-serif" font-size="13" font-weight="bold" lengthAdjust="spacing" textLength="14" x="420.5" y="502.799">11</text><text fill="#000000" font-family="sans-serif" font-size="13" lengthAdjust="spacing" textLength="39" x="438.5" y="502.799">reader</text><polygon fill="#181818" points="83.5,536.314,73.5,540.314,83.5,544.314,79.5,540.314" style="stroke:#181818;stroke-width:1.0;"/><line style="stroke:#181818;stroke-width:1.0;stroke-dasharray:2.0,2.0;" x1="77.5" x2="387.5" y1="540.314" y2="540.314"/><text fill="#000000" font-family="sans-serif" font-size="13" font-weight="bold" lengthAdjust="spacing" textLength="14" x="89.5" y="534.505">12</text><text fill="#000000" font-family="sans-serif" font-size="13" lengthAdjust="spacing" textLength="103" x="107.5" y="534.505">registered reader</text><!--SRC=[RLFBRkCm3BphAuXScXpIt5qWmAAB0htqa60_WBKPhm1PSYKwtVnzgKUKTPmS0f4SpiWpzjDVvZ4qkzreqF8qcEVM3Rj0NnFPbhQTnjxZe71YXothCpA1iwcsq_19NYdMR0WErEl0v071qZTumYuM0T0wUndS59GI1kTXzUlQMSLvhTI8ddMhHxa8h9hZHUY61Cd7-VoLlMaEIUNLMVRE6F897ITpR11PxEb8_gnRQjwqeUEibVQMxJkMifv5_zzy2FSqke8zo35eeRuaU2pds2baKFCdBD3prhr6fFzDZDg48bQgeXGxoVWStSriLO-mtHU76ubDWWyShldvbAf7rix29mRg97tezPaiTCYeLDwC72aHQ6MJAGklDoygTkDqwMu3FV4X2yRf-YH_6xK4mhQoHyW73bHfArVMNHT7v6eRLTVtToOsgLv7rnV850FCh7nCMk-KiI1lDlrhQOnMYUE6uVrqwu2EdlBaBNKAv5SVe3XVM0JMJQFHhJnCmjtyhO4z1fFjLB5b5cXw0wuiSnfVlbb9jU1-0000]--></g></svg>