<?xml version="1.0" encoding="us-ascii" standalone="no"?><svg xmlns="http://www.w3.org/2000/svg" xmlns:xlink="http://www.w3.org/1999/xlink" contentStyleType="text/css" height="754px" preserveAspectRatio="none" style="width:590px;height:754px;background:#FFFFFF;" version="1.1" viewBox="0 0 590 754" width="590px" zoomAndPan="magnify"><defs/><g><!--class Authors--><g id="elem_Authors"><rect codeLine="4" fill="#F1F1F1" height="72.5625" id="Authors" rx="2.5" ry="2.5" style="stroke:#181818;stroke-width:0.5;" width="159" x="287" y="526"/><ellipse cx="334.75" cy="546.1328" fill="#ADD1B2" rx="11" ry="11" style="stroke:#181818;stroke-width:1.0;"/><path d="M334.2188,553.0547 Q332.4688,553.0547 331.3281,552.3203 Q330.2031,551.5703 329.6406,550.2266 Q329.0938,548.8672 329.0938,547.0703 Q329.0938,545.0391 329.75,543.5859 Q330.4063,542.1328 331.6875,541.3516 Q332.9688,540.5703 334.8438,540.5703 Q335.7344,540.5703 336.4063,540.7578 Q337.0781,540.9297 337.7656,541.2734 L336.9531,543.2891 Q336.3281,542.9766 335.7813,542.8516 Q335.25,542.7266 334.7656,542.7266 Q333.5938,542.7266 332.8906,543.2578 Q332.1875,543.7891 331.8906,544.7422 Q331.5938,545.6953 331.5938,546.9609 Q331.5938,548.9766 332.3125,549.9453 Q333.0313,550.8984 334.625,550.8984 Q335.2188,550.8984 335.8438,550.7422 Q336.4688,550.5859 337.2969,550.2109 L337.2969,552.4297 Q336.5625,552.7422 335.7656,552.8984 Q334.9844,553.0547 334.2188,553.0547 Z " fill="#000000"/><text fill="#000000" font-family="sans-serif" font-size="12" font-style="italic" lengthAdjust="spacing" textLength="49" x="358.25" y="542.1387">&#171;entity&#187;</text><text fill="#000000" font-family="sans-serif" font-size="14" lengthAdjust="spacing" textLength="55" x="355.25" y="557.9639">Authors</text><line style="stroke:#181818;stroke-width:0.5;" x1="288" x2="445" y1="566.2656" y2="566.2656"/><text fill="#000000" font-family="sans-serif" font-size="14" lengthAdjust="spacing" textLength="147" x="293" y="583.2607">-authorsNumber : int</text><line style="stroke:#181818;stroke-width:0.5;" x1="288" x2="445" y1="590.5625" y2="590.5625"/></g><!--class Name--><g id="elem_Name"><rect codeLine="7" fill="#F1F1F1" height="88.8594" id="Name" rx="2.5" ry="2.5" style="stroke:#181818;stroke-width:0.5;" width="145" x="114" y="659"/><ellipse cx="159.75" cy="679.1328" fill="#ADD1B2" rx="11" ry="11" style="stroke:#181818;stroke-width:1.0;"/><path d="M159.2188,686.0547 Q157.4688,686.0547 156.3281,685.3203 Q155.2031,684.5703 154.6406,683.2266 Q154.0938,681.8672 154.0938,680.0703 Q154.0938,678.0391 154.75,676.5859 Q155.4063,675.1328 156.6875,674.3516 Q157.9688,673.5703 159.8438,673.5703 Q160.7344,673.5703 161.4063,673.7578 Q162.0781,673.9297 162.7656,674.2734 L161.9531,676.2891 Q161.3281,675.9766 160.7813,675.8516 Q160.25,675.7266 159.7656,675.7266 Q158.5938,675.7266 157.8906,676.2578 Q157.1875,676.7891 156.8906,677.7422 Q156.5938,678.6953 156.5938,679.9609 Q156.5938,681.9766 157.3125,682.9453 Q158.0313,683.8984 159.625,683.8984 Q160.2188,683.8984 160.8438,683.7422 Q161.4688,683.5859 162.2969,683.2109 L162.2969,685.4297 Q161.5625,685.7422 160.7656,685.8984 Q159.9844,686.0547 159.2188,686.0547 Z " fill="#000000"/><text fill="#000000" font-family="sans-serif" font-size="12" font-style="italic" lengthAdjust="spacing" textLength="49" x="178.25" y="675.1387">&#171;entity&#187;</text><text fill="#000000" font-family="sans-serif" font-size="14" lengthAdjust="spacing" textLength="42" x="181.75" y="690.9639">Name</text><line style="stroke:#181818;stroke-width:0.5;" x1="115" x2="258" y1="699.2656" y2="699.2656"/><text fill="#000000" font-family="sans-serif" font-size="14" lengthAdjust="spacing" textLength="95" x="120" y="716.2607">-name: string</text><line style="stroke:#181818;stroke-width:0.5;" x1="115" x2="258" y1="723.5625" y2="723.5625"/><text fill="#000000" font-family="sans-serif" font-size="14" lengthAdjust="spacing" textLength="133" x="120" y="740.5576">+toString() : String</text></g><!--class AuthorBio--><g id="elem_AuthorBio"><rect codeLine="12" fill="#F1F1F1" height="88.8594" id="AuthorBio" rx="2.5" ry="2.5" style="stroke:#181818;stroke-width:0.5;" width="145" x="294" y="659"/><ellipse cx="327.9" cy="679.1328" fill="#ADD1B2" rx="11" ry="11" style="stroke:#181818;stroke-width:1.0;"/><path d="M327.3688,686.0547 Q325.6188,686.0547 324.4781,685.3203 Q323.3531,684.5703 322.7906,683.2266 Q322.2438,681.8672 322.2438,680.0703 Q322.2438,678.0391 322.9,676.5859 Q323.5563,675.1328 324.8375,674.3516 Q326.1188,673.5703 327.9938,673.5703 Q328.8844,673.5703 329.5563,673.7578 Q330.2281,673.9297 330.9156,674.2734 L330.1031,676.2891 Q329.4781,675.9766 328.9313,675.8516 Q328.4,675.7266 327.9156,675.7266 Q326.7438,675.7266 326.0406,676.2578 Q325.3375,676.7891 325.0406,677.7422 Q324.7438,678.6953 324.7438,679.9609 Q324.7438,681.9766 325.4625,682.9453 Q326.1813,683.8984 327.775,683.8984 Q328.3688,683.8984 328.9938,683.7422 Q329.6188,683.5859 330.4469,683.2109 L330.4469,685.4297 Q329.7125,685.7422 328.9156,685.8984 Q328.1344,686.0547 327.3688,686.0547 Z " fill="#000000"/><text fill="#000000" font-family="sans-serif" font-size="12" font-style="italic" lengthAdjust="spacing" textLength="46" x="358.6" y="675.1387">&#171;value&#187;</text><text fill="#000000" font-family="sans-serif" font-size="14" lengthAdjust="spacing" textLength="71" x="346.1" y="690.9639">AuthorBio</text><line style="stroke:#181818;stroke-width:0.5;" x1="295" x2="438" y1="699.2656" y2="699.2656"/><text fill="#000000" font-family="sans-serif" font-size="14" lengthAdjust="spacing" textLength="119" x="300" y="716.2607">-Short Bio: string</text><line style="stroke:#181818;stroke-width:0.5;" x1="295" x2="438" y1="723.5625" y2="723.5625"/><text fill="#000000" font-family="sans-serif" font-size="14" lengthAdjust="spacing" textLength="133" x="300" y="740.5576">+toString() : String</text></g><!--class Photo--><g id="elem_Photo"><rect codeLine="17" fill="#F1F1F1" height="72.5625" id="Photo" rx="2.5" ry="2.5" style="stroke:#181818;stroke-width:0.5;" width="109" x="474" y="667"/><ellipse cx="502.95" cy="687.1328" fill="#ADD1B2" rx="11" ry="11" style="stroke:#181818;stroke-width:1.0;"/><path d="M502.4188,694.0547 Q500.6688,694.0547 499.5281,693.3203 Q498.4031,692.5703 497.8406,691.2266 Q497.2938,689.8672 497.2938,688.0703 Q497.2938,686.0391 497.95,684.5859 Q498.6063,683.1328 499.8875,682.3516 Q501.1688,681.5703 503.0438,681.5703 Q503.9344,681.5703 504.6063,681.7578 Q505.2781,681.9297 505.9656,682.2734 L505.1531,684.2891 Q504.5281,683.9766 503.9813,683.8516 Q503.45,683.7266 502.9656,683.7266 Q501.7938,683.7266 501.0906,684.2578 Q500.3875,684.7891 500.0906,685.7422 Q499.7938,686.6953 499.7938,687.9609 Q499.7938,689.9766 500.5125,690.9453 Q501.2313,691.8984 502.825,691.8984 Q503.4188,691.8984 504.0438,691.7422 Q504.6688,691.5859 505.4969,691.2109 L505.4969,693.4297 Q504.7625,693.7422 503.9656,693.8984 Q503.1844,694.0547 502.4188,694.0547 Z " fill="#000000"/><text fill="#000000" font-family="sans-serif" font-size="12" font-style="italic" lengthAdjust="spacing" textLength="50" x="518.05" y="683.1387">&#171;Entity&#187;</text><text fill="#000000" font-family="sans-serif" font-size="14" lengthAdjust="spacing" textLength="40" x="523.05" y="698.9639">Photo</text><line style="stroke:#181818;stroke-width:0.5;" x1="475" x2="582" y1="707.2656" y2="707.2656"/><text fill="#000000" font-family="sans-serif" font-size="14" lengthAdjust="spacing" textLength="97" x="480" y="724.2607">-photo: Byte[]</text><line style="stroke:#181818;stroke-width:0.5;" x1="475" x2="582" y1="731.5625" y2="731.5625"/></g><!--class AuthorsController--><g id="elem_AuthorsController"><rect codeLine="21" fill="#F1F1F1" height="113.1875" id="AuthorsController" rx="2.5" ry="2.5" style="stroke:#181818;stroke-width:0.5;" width="333" x="200" y="7"/><ellipse cx="299.25" cy="23" fill="#ADD1B2" rx="11" ry="11" style="stroke:#181818;stroke-width:1.0;"/><path d="M298.7188,29.9219 Q296.9688,29.9219 295.8281,29.1875 Q294.7031,28.4375 294.1406,27.0938 Q293.5938,25.7344 293.5938,23.9375 Q293.5938,21.9063 294.25,20.4531 Q294.9063,19 296.1875,18.2188 Q297.4688,17.4375 299.3438,17.4375 Q300.2344,17.4375 300.9063,17.625 Q301.5781,17.7969 302.2656,18.1406 L301.4531,20.1563 Q300.8281,19.8438 300.2813,19.7188 Q299.75,19.5938 299.2656,19.5938 Q298.0938,19.5938 297.3906,20.125 Q296.6875,20.6563 296.3906,21.6094 Q296.0938,22.5625 296.0938,23.8281 Q296.0938,25.8438 296.8125,26.8125 Q297.5313,27.7656 299.125,27.7656 Q299.7188,27.7656 300.3438,27.6094 Q300.9688,27.4531 301.7969,27.0781 L301.7969,29.2969 Q301.0625,29.6094 300.2656,29.7656 Q299.4844,29.9219 298.7188,29.9219 Z " fill="#000000"/><text fill="#000000" font-family="sans-serif" font-size="14" lengthAdjust="spacing" textLength="126" x="319.75" y="27.8467">AuthorsController</text><line style="stroke:#181818;stroke-width:0.5;" x1="201" x2="532" y1="39" y2="39"/><line style="stroke:#181818;stroke-width:0.5;" x1="201" x2="532" y1="47" y2="47"/><text fill="#000000" font-family="sans-serif" font-size="14" lengthAdjust="spacing" textLength="307" x="206" y="63.9951">+createAuthor(name,short bio,photo): void</text><text fill="#000000" font-family="sans-serif" font-size="14" lengthAdjust="spacing" textLength="321" x="206" y="80.292">+UpdateAuthors(name,short bio,photo): data</text><text fill="#000000" font-family="sans-serif" font-size="14" lengthAdjust="spacing" textLength="281" x="206" y="96.5889">+getDetailsByNumber(AuthorsNumber)</text><text fill="#000000" font-family="sans-serif" font-size="14" lengthAdjust="spacing" textLength="226" x="206" y="112.8857">+searchAuthorsByName(name)</text></g><!--class AuthorsServiceImpl--><g id="elem_AuthorsServiceImpl"><rect codeLine="28" fill="#F1F1F1" height="48" id="AuthorsServiceImpl" rx="2.5" ry="2.5" style="stroke:#181818;stroke-width:0.5;" width="171" x="281" y="385.5"/><ellipse cx="296" cy="401.5" fill="#ADD1B2" rx="11" ry="11" style="stroke:#181818;stroke-width:1.0;"/><path d="M295.4688,408.4219 Q293.7188,408.4219 292.5781,407.6875 Q291.4531,406.9375 290.8906,405.5938 Q290.3438,404.2344 290.3438,402.4375 Q290.3438,400.4063 291,398.9531 Q291.6563,397.5 292.9375,396.7188 Q294.2188,395.9375 296.0938,395.9375 Q296.9844,395.9375 297.6563,396.125 Q298.3281,396.2969 299.0156,396.6406 L298.2031,398.6563 Q297.5781,398.3438 297.0313,398.2188 Q296.5,398.0938 296.0156,398.0938 Q294.8438,398.0938 294.1406,398.625 Q293.4375,399.1563 293.1406,400.1094 Q292.8438,401.0625 292.8438,402.3281 Q292.8438,404.3438 293.5625,405.3125 Q294.2813,406.2656 295.875,406.2656 Q296.4688,406.2656 297.0938,406.1094 Q297.7188,405.9531 298.5469,405.5781 L298.5469,407.7969 Q297.8125,408.1094 297.0156,408.2656 Q296.2344,408.4219 295.4688,408.4219 Z " fill="#000000"/><text fill="#000000" font-family="sans-serif" font-size="14" lengthAdjust="spacing" textLength="139" x="310" y="406.3467">AuthorsServiceImpl</text><line style="stroke:#181818;stroke-width:0.5;" x1="282" x2="451" y1="417.5" y2="417.5"/><line style="stroke:#181818;stroke-width:0.5;" x1="282" x2="451" y1="425.5" y2="425.5"/></g><!--class AuthorsService--><g id="elem_AuthorsService"><rect codeLine="31" fill="#F1F1F1" height="113.1875" id="AuthorsService" rx="2.5" ry="2.5" style="stroke:#181818;stroke-width:0.5;" width="259" x="237" y="180"/><ellipse cx="308.25" cy="196" fill="#B4A7E5" rx="11" ry="11" style="stroke:#181818;stroke-width:1.0;"/><path d="M304.2813,202.5 L304.2813,200.7969 L306.6406,200.5313 L306.6406,192.3281 L304.2813,192.0625 L304.2813,190.3594 L311.4219,190.3594 L311.4219,192.0625 L309,192.3281 L309,200.5313 L311.4219,200.7969 L311.4219,202.5 L304.2813,202.5 Z " fill="#000000"/><text fill="#000000" font-family="sans-serif" font-size="14" font-style="italic" lengthAdjust="spacing" textLength="108" x="328.75" y="200.8467">AuthorsService</text><line style="stroke:#181818;stroke-width:0.5;" x1="238" x2="495" y1="212" y2="212"/><line style="stroke:#181818;stroke-width:0.5;" x1="238" x2="495" y1="220" y2="220"/><text fill="#000000" font-family="sans-serif" font-size="14" lengthAdjust="spacing" textLength="247" x="243" y="236.9951">+create(name, short bio) : Authors</text><text fill="#000000" font-family="sans-serif" font-size="14" lengthAdjust="spacing" textLength="206" x="243" y="253.292">+findByName(AuthorsName)</text><text fill="#000000" font-family="sans-serif" font-size="14" lengthAdjust="spacing" textLength="192" x="243" y="269.5889">+findById(AuthorsNumber)</text><text fill="#000000" font-family="sans-serif" font-size="14" lengthAdjust="spacing" textLength="161" x="243" y="285.8857">+update(AuthorsData)</text></g><!--class AuthorsRepository--><g id="elem_AuthorsRepository"><rect codeLine="38" fill="#F1F1F1" height="113.1875" id="AuthorsRepository" rx="2.5" ry="2.5" style="stroke:#181818;stroke-width:0.5;" width="239" x="7" y="353"/><ellipse cx="56.75" cy="369" fill="#B4A7E5" rx="11" ry="11" style="stroke:#181818;stroke-width:1.0;"/><path d="M52.7813,375.5 L52.7813,373.7969 L55.1406,373.5313 L55.1406,365.3281 L52.7813,365.0625 L52.7813,363.3594 L59.9219,363.3594 L59.9219,365.0625 L57.5,365.3281 L57.5,373.5313 L59.9219,373.7969 L59.9219,375.5 L52.7813,375.5 Z " fill="#000000"/><text fill="#000000" font-family="sans-serif" font-size="14" font-style="italic" lengthAdjust="spacing" textLength="131" x="77.25" y="373.8467">AuthorsRepository</text><line style="stroke:#181818;stroke-width:0.5;" x1="8" x2="245" y1="385" y2="385"/><line style="stroke:#181818;stroke-width:0.5;" x1="8" x2="245" y1="393" y2="393"/><text fill="#000000" font-family="sans-serif" font-size="14" lengthAdjust="spacing" textLength="224" x="13" y="409.9951">+saveCreatedAuthor(): Authors</text><text fill="#000000" font-family="sans-serif" font-size="14" lengthAdjust="spacing" textLength="206" x="13" y="426.292">+findByName(AuthorsName)</text><text fill="#000000" font-family="sans-serif" font-size="14" lengthAdjust="spacing" textLength="192" x="13" y="442.5889">+findById(AuthorsNumber)</text><text fill="#000000" font-family="sans-serif" font-size="14" lengthAdjust="spacing" textLength="227" x="13" y="458.8857">+searchAuthorsByName(Name)</text></g><!--reverse link AuthorsService to AuthorsServiceImpl--><g id="link_AuthorsService_AuthorsServiceImpl"><path d="M366.5,311.02 C366.5,342.23 366.5,361.53 366.5,385.13 " fill="none" id="AuthorsService-backto-AuthorsServiceImpl" style="stroke:#181818;stroke-width:1.0;stroke-dasharray:7.0,7.0;"/><polygon fill="none" points="366.5,293.02,360.5,311.02,372.5,311.02,366.5,293.02" style="stroke:#181818;stroke-width:1.0;"/></g><!--link AuthorsServiceImpl to Authors--><g id="link_AuthorsServiceImpl_Authors"><path codeLine="46" d="M366.5,433.76 C366.5,458.33 366.5,491.38 366.5,519.84 " fill="none" id="AuthorsServiceImpl-to-Authors" style="stroke:#181818;stroke-width:1.0;stroke-dasharray:7.0,7.0;"/><polygon fill="#181818" points="366.5,525.84,370.5,516.84,366.5,520.84,362.5,516.84,366.5,525.84" style="stroke:#181818;stroke-width:1.0;"/></g><!--link AuthorsController to AuthorsService--><g id="link_AuthorsController_AuthorsService"><path codeLine="47" d="M366.5,120.02 C366.5,139.23 366.5,154.75 366.5,173.97 " fill="none" id="AuthorsController-to-AuthorsService" style="stroke:#181818;stroke-width:1.0;stroke-dasharray:7.0,7.0;"/><polygon fill="#181818" points="366.5,179.97,370.5,170.97,366.5,174.97,362.5,170.97,366.5,179.97" style="stroke:#181818;stroke-width:1.0;"/></g><!--reverse link AuthorsRepository to AuthorsServiceImpl--><g id="link_AuthorsRepository_AuthorsServiceImpl"><path codeLine="48" d="M252.03,409.5 C263.64,409.5 269.25,409.5 280.85,409.5 " fill="none" id="AuthorsRepository-backto-AuthorsServiceImpl" style="stroke:#181818;stroke-width:1.0;stroke-dasharray:7.0,7.0;"/><polygon fill="#181818" points="246.03,409.5,255.03,413.5,251.03,409.5,255.03,405.5,246.03,409.5" style="stroke:#181818;stroke-width:1.0;"/></g><!--link Authors to Name--><g id="link_Authors_Name"><path codeLine="50" d="M320.15,599.3 C296.6,617.48 277.3067,632.3743 252.4767,651.5543 " fill="none" id="Authors-to-Name" style="stroke:#181818;stroke-width:1.0;"/><polygon fill="none" points="242.98,658.89,250.1736,658.3877,252.4767,651.5543,245.2831,652.0566,242.98,658.89" style="stroke:#181818;stroke-width:1.0;"/></g><!--link Authors to Photo--><g id="link_Authors_Photo"><path codeLine="51" d="M408.22,599.3 C432.41,620.05 453.6548,638.2737 477.8148,659.0137 " fill="none" id="Authors-to-Photo" style="stroke:#181818;stroke-width:1.0;"/><polygon fill="none" points="486.92,666.83,484.9728,659.8868,477.8148,659.0137,479.7619,665.9569,486.92,666.83" style="stroke:#181818;stroke-width:1.0;"/></g><!--link Authors to AuthorBio--><g id="link_Authors_AuthorBio"><path codeLine="52" d="M366.5,599.3 C366.5,617.48 366.5,627.71 366.5,646.89 " fill="none" id="Authors-to-AuthorBio" style="stroke:#181818;stroke-width:1.0;"/><polygon fill="none" points="366.5,658.89,370.5,652.89,366.5,646.89,362.5,652.89,366.5,658.89" style="stroke:#181818;stroke-width:1.0;"/></g><!--SRC=[hLEnRi8m4Dtp5RULY0AT8uG4RGUMgYhgL7KmoG5M7JkoBqYqwh_tOfi08HqgDKEKt7ltxhrpShCZgbmscLHAQAfBDSvDEScLS6vKIB6reamIzo5r9VWHF30did9T4ovperVo4-4kyG3CQzePws0wHKsI3hFPLm9yZK04vAakrsWX0waf-OvTJwB4dXRDvGmSpz9RNne2cPL_7QGi4HvPvMBuGXhMsWjLuqbgnG01Gt_HUzuPQhGUExwgffx1ua3uzjuTx-wD9ckKufIXOPXR58G17ZIXRfstivRcrckb6UoDB0BxjIfQjlkDpXGH8soH7f24L6vn2DiTpCztdKQUGs7pNOIOoi9UFRrAi4Axbpakoqg1v1kMV39TzAjfuqD4kn4vTi1ZSWZHGmfeOpJBZWsHjv6wY9wEvhsrStHPz0Uh_SAEs0Dl9ktrzeALSPACFHpjER77U- -mYAUJ_gUnles7xiPVpxB7urax_lfhEaDZKw-6mWsTcAVGxKGOZOp_vIuA_cE_gBI_qmy0]--></g></svg>