<?xml version="1.0" encoding="us-ascii" standalone="no"?><svg xmlns="http://www.w3.org/2000/svg" xmlns:xlink="http://www.w3.org/1999/xlink" contentStyleType="text/css" height="394px" preserveAspectRatio="none" style="width:940px;height:394px;background:#FFFFFF;" version="1.1" viewBox="0 0 940 394" width="940px" zoomAndPan="magnify"><defs/><g><text fill="#000000" font-family="sans-serif" font-size="14" font-weight="bold" lengthAdjust="spacing" textLength="592" x="173" y="27.9951">Want to know an author&#8217;s detail  by author number as Librarian or Reader</text><rect fill="#FFFFFF" height="175.7969" style="stroke:#181818;stroke-width:1.0;" width="10" x="72.5" y="128.5938"/><rect fill="#FFFFFF" height="145.6641" style="stroke:#181818;stroke-width:1.0;" width="10" x="266.5" y="149.7266"/><rect fill="#FFFFFF" height="145.6641" style="stroke:#181818;stroke-width:1.0;" width="10" x="266.5" y="149.7266"/><rect fill="#FFFFFF" height="87.3984" style="stroke:#181818;stroke-width:1.0;" width="10" x="554.5" y="178.8594"/><rect fill="#FFFFFF" height="87.3984" style="stroke:#181818;stroke-width:1.0;" width="10" x="554.5" y="178.8594"/><rect fill="#FFFFFF" height="29.1328" style="stroke:#181818;stroke-width:1.0;" width="10" x="842.5" y="207.9922"/><rect fill="#FFFFFF" height="29.1328" style="stroke:#181818;stroke-width:1.0;" width="10" x="842.5" y="207.9922"/><line style="stroke:#181818;stroke-width:0.5;stroke-dasharray:5.0,5.0;" x1="77" x2="77" y1="118.5938" y2="313.3906"/><line style="stroke:#181818;stroke-width:0.5;stroke-dasharray:5.0,5.0;" x1="266.5" x2="266.5" y1="118.5938" y2="313.3906"/><line style="stroke:#181818;stroke-width:0.5;stroke-dasharray:5.0,5.0;" x1="554.5" x2="554.5" y1="118.5938" y2="313.3906"/><line style="stroke:#181818;stroke-width:0.5;stroke-dasharray:5.0,5.0;" x1="842" x2="842" y1="118.5938" y2="313.3906"/><text fill="#000000" font-family="sans-serif" font-size="14" lengthAdjust="spacing" textLength="139" x="5" y="115.292">Librarian or Reader</text><ellipse cx="77.5" cy="50.7969" fill="#E2E2F0" rx="8" ry="8" style="stroke:#181818;stroke-width:0.5;"/><path d="M77.5,58.7969 L77.5,85.7969 M64.5,66.7969 L90.5,66.7969 M77.5,85.7969 L64.5,100.7969 M77.5,85.7969 L90.5,100.7969 " fill="none" style="stroke:#181818;stroke-width:0.5;"/><text fill="#000000" font-family="sans-serif" font-size="14" lengthAdjust="spacing" textLength="139" x="5" y="325.3857">Librarian or Reader</text><ellipse cx="77.5" cy="337.1875" fill="#E2E2F0" rx="8" ry="8" style="stroke:#181818;stroke-width:0.5;"/><path d="M77.5,345.1875 L77.5,372.1875 M64.5,353.1875 L90.5,353.1875 M77.5,372.1875 L64.5,387.1875 M77.5,372.1875 L90.5,387.1875 " fill="none" style="stroke:#181818;stroke-width:0.5;"/><rect fill="#E2E2F0" height="30.2969" rx="2.5" ry="2.5" style="stroke:#181818;stroke-width:0.5;" width="170" x="181.5" y="87.2969"/><text fill="#000000" font-family="sans-serif" font-size="14" lengthAdjust="spacing" textLength="156" x="188.5" y="107.292">Ctrl:AuthorsController</text><rect fill="#E2E2F0" height="30.2969" rx="2.5" ry="2.5" style="stroke:#181818;stroke-width:0.5;" width="170" x="181.5" y="312.3906"/><text fill="#000000" font-family="sans-serif" font-size="14" lengthAdjust="spacing" textLength="156" x="188.5" y="332.3857">Ctrl:AuthorsController</text><rect fill="#E2E2F0" height="30.2969" rx="2.5" ry="2.5" style="stroke:#181818;stroke-width:0.5;" width="178" x="465.5" y="87.2969"/><text fill="#000000" font-family="sans-serif" font-size="14" lengthAdjust="spacing" textLength="164" x="472.5" y="107.292">service:AuthorsService</text><rect fill="#E2E2F0" height="30.2969" rx="2.5" ry="2.5" style="stroke:#181818;stroke-width:0.5;" width="178" x="465.5" y="312.3906"/><text fill="#000000" font-family="sans-serif" font-size="14" lengthAdjust="spacing" textLength="164" x="472.5" y="332.3857">service:AuthorsService</text><rect fill="#E2E2F0" height="30.2969" rx="2.5" ry="2.5" style="stroke:#181818;stroke-width:0.5;" width="183" x="751" y="87.2969"/><text fill="#000000" font-family="sans-serif" font-size="14" lengthAdjust="spacing" textLength="169" x="758" y="107.292">repo:AuthorsRepository</text><rect fill="#E2E2F0" height="30.2969" rx="2.5" ry="2.5" style="stroke:#181818;stroke-width:0.5;" width="183" x="751" y="312.3906"/><text fill="#000000" font-family="sans-serif" font-size="14" lengthAdjust="spacing" textLength="169" x="758" y="332.3857">repo:AuthorsRepository</text><rect fill="#FFFFFF" height="175.7969" style="stroke:#181818;stroke-width:1.0;" width="10" x="72.5" y="128.5938"/><rect fill="#FFFFFF" height="145.6641" style="stroke:#181818;stroke-width:1.0;" width="10" x="266.5" y="149.7266"/><rect fill="#FFFFFF" height="145.6641" style="stroke:#181818;stroke-width:1.0;" width="10" x="266.5" y="149.7266"/><rect fill="#FFFFFF" height="87.3984" style="stroke:#181818;stroke-width:1.0;" width="10" x="554.5" y="178.8594"/><rect fill="#FFFFFF" height="87.3984" style="stroke:#181818;stroke-width:1.0;" width="10" x="554.5" y="178.8594"/><rect fill="#FFFFFF" height="29.1328" style="stroke:#181818;stroke-width:1.0;" width="10" x="842.5" y="207.9922"/><rect fill="#FFFFFF" height="29.1328" style="stroke:#181818;stroke-width:1.0;" width="10" x="842.5" y="207.9922"/><polygon fill="#181818" points="254.5,145.7266,264.5,149.7266,254.5,153.7266,258.5,149.7266" style="stroke:#181818;stroke-width:1.0;"/><line style="stroke:#181818;stroke-width:1.0;" x1="82.5" x2="260.5" y1="149.7266" y2="149.7266"/><text fill="#000000" font-family="sans-serif" font-size="13" font-weight="bold" lengthAdjust="spacing" textLength="9" x="89.5" y="144.6606">1</text><text fill="#000000" font-family="sans-serif" font-size="13" lengthAdjust="spacing" textLength="147" x="102.5" y="144.6606">Request author details</text><polygon fill="#181818" points="542.5,174.8594,552.5,178.8594,542.5,182.8594,546.5,178.8594" style="stroke:#181818;stroke-width:1.0;"/><line style="stroke:#181818;stroke-width:1.0;" x1="276.5" x2="548.5" y1="178.8594" y2="178.8594"/><text fill="#000000" font-family="sans-serif" font-size="13" font-weight="bold" lengthAdjust="spacing" textLength="9" x="283.5" y="173.7935">2</text><text fill="#000000" font-family="sans-serif" font-size="13" lengthAdjust="spacing" textLength="241" x="296.5" y="173.7935">findByAuthorNumber(authorNumber)</text><polygon fill="#181818" points="830.5,203.9922,840.5,207.9922,830.5,211.9922,834.5,207.9922" style="stroke:#181818;stroke-width:1.0;"/><line style="stroke:#181818;stroke-width:1.0;" x1="564.5" x2="836.5" y1="207.9922" y2="207.9922"/><text fill="#000000" font-family="sans-serif" font-size="13" font-weight="bold" lengthAdjust="spacing" textLength="9" x="571.5" y="202.9263">3</text><text fill="#000000" font-family="sans-serif" font-size="13" lengthAdjust="spacing" textLength="241" x="584.5" y="202.9263">findByAuthorNumber(authorNumber)</text><polygon fill="#181818" points="575.5,233.125,565.5,237.125,575.5,241.125,571.5,237.125" style="stroke:#181818;stroke-width:1.0;"/><line style="stroke:#181818;stroke-width:1.0;stroke-dasharray:2.0,2.0;" x1="569.5" x2="841.5" y1="237.125" y2="237.125"/><text fill="#000000" font-family="sans-serif" font-size="13" font-weight="bold" lengthAdjust="spacing" textLength="9" x="581.5" y="232.0591">4</text><text fill="#000000" font-family="sans-serif" font-size="13" lengthAdjust="spacing" textLength="88" x="594.5" y="232.0591">authorDetails</text><polygon fill="#181818" points="287.5,262.2578,277.5,266.2578,287.5,270.2578,283.5,266.2578" style="stroke:#181818;stroke-width:1.0;"/><line style="stroke:#181818;stroke-width:1.0;stroke-dasharray:2.0,2.0;" x1="281.5" x2="553.5" y1="266.2578" y2="266.2578"/><text fill="#000000" font-family="sans-serif" font-size="13" font-weight="bold" lengthAdjust="spacing" textLength="9" x="293.5" y="261.1919">5</text><text fill="#000000" font-family="sans-serif" font-size="13" lengthAdjust="spacing" textLength="88" x="306.5" y="261.1919">authorDetails</text><polygon fill="#181818" points="93.5,291.3906,83.5,295.3906,93.5,299.3906,89.5,295.3906" style="stroke:#181818;stroke-width:1.0;"/><line style="stroke:#181818;stroke-width:1.0;stroke-dasharray:2.0,2.0;" x1="87.5" x2="265.5" y1="295.3906" y2="295.3906"/><text fill="#000000" font-family="sans-serif" font-size="13" font-weight="bold" lengthAdjust="spacing" textLength="9" x="99.5" y="290.3247">6</text><text fill="#000000" font-family="sans-serif" font-size="13" lengthAdjust="spacing" textLength="88" x="112.5" y="290.3247">authorDetails</text><!--SRC=[bP2nJiGm38RtF8Lr2p2KxXsGu1WHmo74xBQ1YqYJahY7kl4Ql1vFWfsqlQi4I2nEd7o__TjdUw8-LcNPMtGqTFQoyLqPzTkWNQEBrk1Bm4xXG1uRCWSa3Twbt0rThODIPCXgU68va8TNvzy17J2nz-7hupD2gmcD1QZ7wHMo5332dQa31iC2VjvfRAKYT-9iyyFVHZIFaQ4U0vd6zD9siwLWg-jKEswze-2jdM3vMiEiFfX6p_n3JXCytTTyqBsVuHtVes5tO-8bLSjUaYyb4OghrBXYWZSPQHuyho8UDScU195CxIjuDgwz6NFF-xIhSpn9BexwsV5qIXKnzPyIQGWb4OfJ4nc_dHotUYrO6YwZ_ihF7lEOpCkA_k3JJhu1]--></g></svg>