<?xml version="1.0" encoding="us-ascii" standalone="no"?><svg xmlns="http://www.w3.org/2000/svg" xmlns:xlink="http://www.w3.org/1999/xlink" contentStyleType="text/css" height="394px" preserveAspectRatio="none" style="width:719px;height:394px;background:#FFFFFF;" version="1.1" viewBox="0 0 719 394" width="719px" zoomAndPan="magnify"><defs/><g><text fill="#000000" font-family="sans-serif" font-size="14" font-weight="bold" lengthAdjust="spacing" textLength="375" x="171.25" y="27.9951">Search authors by name as Librarian or Reader</text><rect fill="#FFFFFF" height="175.7969" style="stroke:#181818;stroke-width:1.0;" width="10" x="72.5" y="128.5938"/><rect fill="#FFFFFF" height="145.6641" style="stroke:#181818;stroke-width:1.0;" width="10" x="247.5" y="149.7266"/><rect fill="#FFFFFF" height="145.6641" style="stroke:#181818;stroke-width:1.0;" width="10" x="247.5" y="149.7266"/><rect fill="#FFFFFF" height="87.3984" style="stroke:#181818;stroke-width:1.0;" width="10" x="431.5" y="178.8594"/><rect fill="#FFFFFF" height="87.3984" style="stroke:#181818;stroke-width:1.0;" width="10" x="431.5" y="178.8594"/><rect fill="#FFFFFF" height="29.1328" style="stroke:#181818;stroke-width:1.0;" width="10" x="622" y="207.9922"/><rect fill="#FFFFFF" height="29.1328" style="stroke:#181818;stroke-width:1.0;" width="10" x="622" y="207.9922"/><line style="stroke:#181818;stroke-width:0.5;stroke-dasharray:5.0,5.0;" x1="77" x2="77" y1="118.5938" y2="313.3906"/><line style="stroke:#181818;stroke-width:0.5;stroke-dasharray:5.0,5.0;" x1="247.5" x2="247.5" y1="118.5938" y2="313.3906"/><line style="stroke:#181818;stroke-width:0.5;stroke-dasharray:5.0,5.0;" x1="431.5" x2="431.5" y1="118.5938" y2="313.3906"/><line style="stroke:#181818;stroke-width:0.5;stroke-dasharray:5.0,5.0;" x1="621.5" x2="621.5" y1="118.5938" y2="313.3906"/><text fill="#000000" font-family="sans-serif" font-size="14" lengthAdjust="spacing" textLength="139" x="5" y="115.292">Librarian or Reader</text><ellipse cx="77.5" cy="50.7969" fill="#E2E2F0" rx="8" ry="8" style="stroke:#181818;stroke-width:0.5;"/><path d="M77.5,58.7969 L77.5,85.7969 M64.5,66.7969 L90.5,66.7969 M77.5,85.7969 L64.5,100.7969 M77.5,85.7969 L90.5,100.7969 " fill="none" style="stroke:#181818;stroke-width:0.5;"/><text fill="#000000" font-family="sans-serif" font-size="14" lengthAdjust="spacing" textLength="139" x="5" y="325.3857">Librarian or Reader</text><ellipse cx="77.5" cy="337.1875" fill="#E2E2F0" rx="8" ry="8" style="stroke:#181818;stroke-width:0.5;"/><path d="M77.5,345.1875 L77.5,372.1875 M64.5,353.1875 L90.5,353.1875 M77.5,372.1875 L64.5,387.1875 M77.5,372.1875 L90.5,387.1875 " fill="none" style="stroke:#181818;stroke-width:0.5;"/><rect fill="#E2E2F0" height="30.2969" rx="2.5" ry="2.5" style="stroke:#181818;stroke-width:0.5;" width="170" x="162.5" y="87.2969"/><text fill="#000000" font-family="sans-serif" font-size="14" lengthAdjust="spacing" textLength="156" x="169.5" y="107.292">Ctrl:AuthorsController</text><rect fill="#E2E2F0" height="30.2969" rx="2.5" ry="2.5" style="stroke:#181818;stroke-width:0.5;" width="170" x="162.5" y="312.3906"/><text fill="#000000" font-family="sans-serif" font-size="14" lengthAdjust="spacing" textLength="156" x="169.5" y="332.3857">Ctrl:AuthorsController</text><rect fill="#E2E2F0" height="30.2969" rx="2.5" ry="2.5" style="stroke:#181818;stroke-width:0.5;" width="178" x="342.5" y="87.2969"/><text fill="#000000" font-family="sans-serif" font-size="14" lengthAdjust="spacing" textLength="164" x="349.5" y="107.292">service:AuthorsService</text><rect fill="#E2E2F0" height="30.2969" rx="2.5" ry="2.5" style="stroke:#181818;stroke-width:0.5;" width="178" x="342.5" y="312.3906"/><text fill="#000000" font-family="sans-serif" font-size="14" lengthAdjust="spacing" textLength="164" x="349.5" y="332.3857">service:AuthorsService</text><rect fill="#E2E2F0" height="30.2969" rx="2.5" ry="2.5" style="stroke:#181818;stroke-width:0.5;" width="183" x="530.5" y="87.2969"/><text fill="#000000" font-family="sans-serif" font-size="14" lengthAdjust="spacing" textLength="169" x="537.5" y="107.292">repo:AuthorsRepository</text><rect fill="#E2E2F0" height="30.2969" rx="2.5" ry="2.5" style="stroke:#181818;stroke-width:0.5;" width="183" x="530.5" y="312.3906"/><text fill="#000000" font-family="sans-serif" font-size="14" lengthAdjust="spacing" textLength="169" x="537.5" y="332.3857">repo:AuthorsRepository</text><rect fill="#FFFFFF" height="175.7969" style="stroke:#181818;stroke-width:1.0;" width="10" x="72.5" y="128.5938"/><rect fill="#FFFFFF" height="145.6641" style="stroke:#181818;stroke-width:1.0;" width="10" x="247.5" y="149.7266"/><rect fill="#FFFFFF" height="145.6641" style="stroke:#181818;stroke-width:1.0;" width="10" x="247.5" y="149.7266"/><rect fill="#FFFFFF" height="87.3984" style="stroke:#181818;stroke-width:1.0;" width="10" x="431.5" y="178.8594"/><rect fill="#FFFFFF" height="87.3984" style="stroke:#181818;stroke-width:1.0;" width="10" x="431.5" y="178.8594"/><rect fill="#FFFFFF" height="29.1328" style="stroke:#181818;stroke-width:1.0;" width="10" x="622" y="207.9922"/><rect fill="#FFFFFF" height="29.1328" style="stroke:#181818;stroke-width:1.0;" width="10" x="622" y="207.9922"/><polygon fill="#181818" points="235.5,145.7266,245.5,149.7266,235.5,153.7266,239.5,149.7266" style="stroke:#181818;stroke-width:1.0;"/><line style="stroke:#181818;stroke-width:1.0;" x1="82.5" x2="241.5" y1="149.7266" y2="149.7266"/><text fill="#000000" font-family="sans-serif" font-size="13" font-weight="bold" lengthAdjust="spacing" textLength="9" x="89.5" y="144.6606">1</text><text fill="#000000" font-family="sans-serif" font-size="13" lengthAdjust="spacing" textLength="128" x="102.5" y="144.6606">findByName(name)</text><polygon fill="#181818" points="419.5,174.8594,429.5,178.8594,419.5,182.8594,423.5,178.8594" style="stroke:#181818;stroke-width:1.0;"/><line style="stroke:#181818;stroke-width:1.0;" x1="257.5" x2="425.5" y1="178.8594" y2="178.8594"/><text fill="#000000" font-family="sans-serif" font-size="13" font-weight="bold" lengthAdjust="spacing" textLength="9" x="264.5" y="173.7935">2</text><text fill="#000000" font-family="sans-serif" font-size="13" lengthAdjust="spacing" textLength="130" x="277.5" y="173.7935">FindByName(name)</text><polygon fill="#181818" points="610,203.9922,620,207.9922,610,211.9922,614,207.9922" style="stroke:#181818;stroke-width:1.0;"/><line style="stroke:#181818;stroke-width:1.0;" x1="441.5" x2="616" y1="207.9922" y2="207.9922"/><text fill="#000000" font-family="sans-serif" font-size="13" font-weight="bold" lengthAdjust="spacing" textLength="9" x="448.5" y="202.9263">3</text><text fill="#000000" font-family="sans-serif" font-size="13" lengthAdjust="spacing" textLength="128" x="461.5" y="202.9263">findByName(name)</text><polygon fill="#181818" points="452.5,233.125,442.5,237.125,452.5,241.125,448.5,237.125" style="stroke:#181818;stroke-width:1.0;"/><line style="stroke:#181818;stroke-width:1.0;stroke-dasharray:2.0,2.0;" x1="446.5" x2="621" y1="237.125" y2="237.125"/><text fill="#000000" font-family="sans-serif" font-size="13" font-weight="bold" lengthAdjust="spacing" textLength="9" x="458.5" y="232.0591">4</text><text fill="#000000" font-family="sans-serif" font-size="13" lengthAdjust="spacing" textLength="42" x="471.5" y="232.0591">author</text><polygon fill="#181818" points="268.5,262.2578,258.5,266.2578,268.5,270.2578,264.5,266.2578" style="stroke:#181818;stroke-width:1.0;"/><line style="stroke:#181818;stroke-width:1.0;stroke-dasharray:2.0,2.0;" x1="262.5" x2="430.5" y1="266.2578" y2="266.2578"/><text fill="#000000" font-family="sans-serif" font-size="13" font-weight="bold" lengthAdjust="spacing" textLength="9" x="274.5" y="261.1919">5</text><text fill="#000000" font-family="sans-serif" font-size="13" lengthAdjust="spacing" textLength="42" x="287.5" y="261.1919">author</text><polygon fill="#181818" points="93.5,291.3906,83.5,295.3906,93.5,299.3906,89.5,295.3906" style="stroke:#181818;stroke-width:1.0;"/><line style="stroke:#181818;stroke-width:1.0;stroke-dasharray:2.0,2.0;" x1="87.5" x2="246.5" y1="295.3906" y2="295.3906"/><text fill="#000000" font-family="sans-serif" font-size="13" font-weight="bold" lengthAdjust="spacing" textLength="9" x="99.5" y="290.3247">6</text><text fill="#000000" font-family="sans-serif" font-size="13" lengthAdjust="spacing" textLength="42" x="112.5" y="290.3247">author</text><!--SRC=[VP5DJiGm38NtEONLpS2YTDy54ep42h6OqHp0JGsDb2R5IKVgxOdJ7wWOsBYn_DdlFVNGnJY4kge6YowElNtGlgy2VOxaD9MjmG_6Nk4OFUfehXW9lCkz6_k6MAbeeYKu4xBk80qwpm6Q2Hps11ZWrJICRD21PpWHjhAKZgMkk34hPESI4ZGWHwFDa8n1SOniwwVv-j6xoDxQ1PRH7axRLwDfvSzpc-7blUUP1h_2f_GE9hcRCY-jsg9dNqegb8zPk8PtuzhdwIsblPF8zzzqDYP5u4MuXfS_-TNRyfKjaVzF8jkJ0kLFZVatg9Rsu7PuC_yRN4tClXCeQM-1ETqN]--></g></svg>