<?xml version="1.0" encoding="us-ascii" standalone="no"?><svg xmlns="http://www.w3.org/2000/svg" xmlns:xlink="http://www.w3.org/1999/xlink" contentStyleType="text/css" height="735px" preserveAspectRatio="none" style="width:2160px;height:735px;background:#FFFFFF;" version="1.1" viewBox="0 0 2160 735" width="2160px" zoomAndPan="magnify"><defs/><g><text fill="#000000" font-family="sans-serif" font-size="14" font-weight="bold" lengthAdjust="spacing" textLength="153" x="1002.5" y="29.9659">Get Book Suggestions</text><rect fill="#FFFFFF" height="508.2963" style="stroke:#181818;stroke-width:1.0;" width="10" x="27" y="134.1358"/><rect fill="#FFFFFF" height="475.5902" style="stroke:#181818;stroke-width:1.0;" width="10" x="229" y="157.8419"/><rect fill="#FFFFFF" height="412.1782" style="stroke:#181818;stroke-width:1.0;" width="10" x="541" y="189.5479"/><rect fill="#FFFFFF" height="221.9421" style="stroke:#181818;stroke-width:1.0;" width="10" x="803" y="348.0779"/><rect fill="#FFFFFF" height="31.706" style="stroke:#181818;stroke-width:1.0;" width="10" x="1340" y="506.608"/><rect fill="#FFFFFF" height="95.118" style="stroke:#181818;stroke-width:1.0;" width="10" x="1529.5" y="221.2539"/><rect fill="#FFFFFF" height="95.118" style="stroke:#181818;stroke-width:1.0;" width="10" x="1529.5" y="379.784"/><rect fill="#FFFFFF" height="31.706" style="stroke:#181818;stroke-width:1.0;" width="10" x="1809.5" y="252.9599"/><rect fill="#FFFFFF" height="31.706" style="stroke:#181818;stroke-width:1.0;" width="10" x="1809.5" y="411.49"/><line style="stroke:#181818;stroke-width:0.5;stroke-dasharray:5.0,5.0;" x1="32" x2="32" y1="124.1358" y2="651.4321"/><line style="stroke:#181818;stroke-width:0.5;stroke-dasharray:5.0,5.0;" x1="234" x2="234" y1="124.1358" y2="651.4321"/><line style="stroke:#181818;stroke-width:0.5;stroke-dasharray:5.0,5.0;" x1="545.5" x2="545.5" y1="124.1358" y2="651.4321"/><line style="stroke:#181818;stroke-width:0.5;stroke-dasharray:5.0,5.0;" x1="807.5" x2="807.5" y1="124.1358" y2="651.4321"/><line style="stroke:#181818;stroke-width:0.5;stroke-dasharray:5.0,5.0;" x1="1345" x2="1345" y1="124.1358" y2="651.4321"/><line style="stroke:#181818;stroke-width:0.5;stroke-dasharray:5.0,5.0;" x1="1534" x2="1534" y1="124.1358" y2="651.4321"/><line style="stroke:#181818;stroke-width:0.5;stroke-dasharray:5.0,5.0;" x1="1814" x2="1814" y1="124.1358" y2="651.4321"/><line style="stroke:#181818;stroke-width:0.5;stroke-dasharray:5.0,5.0;" x1="2052" x2="2052" y1="124.1358" y2="651.4321"/><text fill="#000000" font-family="sans-serif" font-size="14" lengthAdjust="spacing" textLength="48" x="5" y="120.0339">Reader</text><ellipse cx="32" cy="53.5679" fill="#E2E2F0" rx="8" ry="8" style="stroke:#181818;stroke-width:0.5;"/><path d="M32,61.5679 L32,88.5679 M19,69.5679 L45,69.5679 M32,88.5679 L19,103.5679 M32,88.5679 L45,103.5679 " fill="none" style="stroke:#181818;stroke-width:0.5;"/><text fill="#000000" font-family="sans-serif" font-size="14" lengthAdjust="spacing" textLength="48" x="5" y="665.398">Reader</text><ellipse cx="32" cy="678" fill="#E2E2F0" rx="8" ry="8" style="stroke:#181818;stroke-width:0.5;"/><path d="M32,686 L32,713 M19,694 L45,694 M32,713 L19,728 M32,713 L45,728 " fill="none" style="stroke:#181818;stroke-width:0.5;"/><rect fill="#E2E2F0" height="33.0679" rx="2.5" ry="2.5" style="stroke:#181818;stroke-width:0.5;" width="66" x="201" y="90.0679"/><text fill="#000000" font-family="sans-serif" font-size="14" lengthAdjust="spacing" textLength="52" x="208" y="112.0339">:System</text><rect fill="#E2E2F0" height="33.0679" rx="2.5" ry="2.5" style="stroke:#181818;stroke-width:0.5;" width="66" x="201" y="650.4321"/><text fill="#000000" font-family="sans-serif" font-size="14" lengthAdjust="spacing" textLength="52" x="208" y="672.398">:System</text><rect fill="#E2E2F0" height="33.0679" rx="2.5" ry="2.5" style="stroke:#181818;stroke-width:0.5;" width="141" x="475.5" y="90.0679"/><text fill="#000000" font-family="sans-serif" font-size="14" lengthAdjust="spacing" textLength="127" x="482.5" y="112.0339">Ctrl:BookController</text><rect fill="#E2E2F0" height="33.0679" rx="2.5" ry="2.5" style="stroke:#181818;stroke-width:0.5;" width="141" x="475.5" y="650.4321"/><text fill="#000000" font-family="sans-serif" font-size="14" lengthAdjust="spacing" textLength="127" x="482.5" y="672.398">Ctrl:BookController</text><rect fill="#E2E2F0" height="33.0679" rx="2.5" ry="2.5" style="stroke:#181818;stroke-width:0.5;" width="145" x="735.5" y="90.0679"/><text fill="#000000" font-family="sans-serif" font-size="14" lengthAdjust="spacing" textLength="131" x="742.5" y="112.0339">service:BookService</text><rect fill="#E2E2F0" height="33.0679" rx="2.5" ry="2.5" style="stroke:#181818;stroke-width:0.5;" width="145" x="735.5" y="650.4321"/><text fill="#000000" font-family="sans-serif" font-size="14" lengthAdjust="spacing" textLength="131" x="742.5" y="672.398">service:BookService</text><rect fill="#E2E2F0" height="33.0679" rx="2.5" ry="2.5" style="stroke:#181818;stroke-width:0.5;" width="152" x="1269" y="90.0679"/><text fill="#000000" font-family="sans-serif" font-size="14" lengthAdjust="spacing" textLength="138" x="1276" y="112.0339">repo:BookRepository</text><rect fill="#E2E2F0" height="33.0679" rx="2.5" ry="2.5" style="stroke:#181818;stroke-width:0.5;" width="152" x="1269" y="650.4321"/><text fill="#000000" font-family="sans-serif" font-size="14" lengthAdjust="spacing" textLength="138" x="1276" y="672.398">repo:BookRepository</text><rect fill="#E2E2F0" height="33.0679" rx="2.5" ry="2.5" style="stroke:#181818;stroke-width:0.5;" width="207" x="1431" y="90.0679"/><text fill="#000000" font-family="sans-serif" font-size="14" lengthAdjust="spacing" textLength="193" x="1438" y="112.0339">readerService:ReaderService</text><rect fill="#E2E2F0" height="33.0679" rx="2.5" ry="2.5" style="stroke:#181818;stroke-width:0.5;" width="207" x="1431" y="650.4321"/><text fill="#000000" font-family="sans-serif" font-size="14" lengthAdjust="spacing" textLength="193" x="1438" y="672.398">readerService:ReaderService</text><rect fill="#E2E2F0" height="33.0679" rx="2.5" ry="2.5" style="stroke:#181818;stroke-width:0.5;" width="253" x="1688" y="90.0679"/><text fill="#000000" font-family="sans-serif" font-size="14" lengthAdjust="spacing" textLength="239" x="1695" y="112.0339">readerRepository:ReaderRepository</text><rect fill="#E2E2F0" height="33.0679" rx="2.5" ry="2.5" style="stroke:#181818;stroke-width:0.5;" width="253" x="1688" y="650.4321"/><text fill="#000000" font-family="sans-serif" font-size="14" lengthAdjust="spacing" textLength="239" x="1695" y="672.398">readerRepository:ReaderRepository</text><rect fill="#E2E2F0" height="33.0679" rx="2.5" ry="2.5" style="stroke:#181818;stroke-width:0.5;" width="203" x="1951" y="90.0679"/><text fill="#000000" font-family="sans-serif" font-size="14" lengthAdjust="spacing" textLength="189" x="1958" y="112.0339">readerDetails:ReaderDetails</text><rect fill="#E2E2F0" height="33.0679" rx="2.5" ry="2.5" style="stroke:#181818;stroke-width:0.5;" width="203" x="1951" y="650.4321"/><text fill="#000000" font-family="sans-serif" font-size="14" lengthAdjust="spacing" textLength="189" x="1958" y="672.398">readerDetails:ReaderDetails</text><rect fill="#FFFFFF" height="508.2963" style="stroke:#181818;stroke-width:1.0;" width="10" x="27" y="134.1358"/><rect fill="#FFFFFF" height="475.5902" style="stroke:#181818;stroke-width:1.0;" width="10" x="229" y="157.8419"/><rect fill="#FFFFFF" height="412.1782" style="stroke:#181818;stroke-width:1.0;" width="10" x="541" y="189.5479"/><rect fill="#FFFFFF" height="221.9421" style="stroke:#181818;stroke-width:1.0;" width="10" x="803" y="348.0779"/><rect fill="#FFFFFF" height="31.706" style="stroke:#181818;stroke-width:1.0;" width="10" x="1340" y="506.608"/><rect fill="#FFFFFF" height="95.118" style="stroke:#181818;stroke-width:1.0;" width="10" x="1529.5" y="221.2539"/><rect fill="#FFFFFF" height="95.118" style="stroke:#181818;stroke-width:1.0;" width="10" x="1529.5" y="379.784"/><rect fill="#FFFFFF" height="31.706" style="stroke:#181818;stroke-width:1.0;" width="10" x="1809.5" y="252.9599"/><rect fill="#FFFFFF" height="31.706" style="stroke:#181818;stroke-width:1.0;" width="10" x="1809.5" y="411.49"/><polygon fill="#181818" points="217,153.8419,227,157.8419,217,161.8419,221,157.8419" style="stroke:#181818;stroke-width:1.0;"/><line style="stroke:#181818;stroke-width:1.0;" x1="37" x2="223" y1="157.8419" y2="157.8419"/><text fill="#000000" font-family="sans-serif" font-size="13" font-weight="bold" lengthAdjust="spacing" textLength="7" x="44" y="152.0328">1</text><text fill="#000000" font-family="sans-serif" font-size="13" lengthAdjust="spacing" textLength="162" x="55" y="152.0328">requests book suggestions</text><polygon fill="#181818" points="529,185.5479,539,189.5479,529,193.5479,533,189.5479" style="stroke:#181818;stroke-width:1.0;"/><line style="stroke:#181818;stroke-width:1.0;" x1="239" x2="535" y1="189.5479" y2="189.5479"/><text fill="#000000" font-family="sans-serif" font-size="13" font-weight="bold" lengthAdjust="spacing" textLength="7" x="246" y="183.7389">2</text><text fill="#000000" font-family="sans-serif" font-size="13" lengthAdjust="spacing" textLength="272" x="257" y="183.7389">getBookSuggestions(UpdateReaderRequest);</text><polygon fill="#181818" points="1517.5,217.2539,1527.5,221.2539,1517.5,225.2539,1521.5,221.2539" style="stroke:#181818;stroke-width:1.0;"/><line style="stroke:#181818;stroke-width:1.0;" x1="551" x2="1523.5" y1="221.2539" y2="221.2539"/><text fill="#000000" font-family="sans-serif" font-size="13" font-weight="bold" lengthAdjust="spacing" textLength="7" x="558" y="215.4449">3</text><text fill="#000000" font-family="sans-serif" font-size="13" lengthAdjust="spacing" textLength="240" x="569" y="215.4449">findByUsername(loggedUserUsername)</text><polygon fill="#181818" points="1797.5,248.9599,1807.5,252.9599,1797.5,256.9599,1801.5,252.9599" style="stroke:#181818;stroke-width:1.0;"/><line style="stroke:#181818;stroke-width:1.0;" x1="1539.5" x2="1803.5" y1="252.9599" y2="252.9599"/><text fill="#000000" font-family="sans-serif" font-size="13" font-weight="bold" lengthAdjust="spacing" textLength="7" x="1546.5" y="247.1509">4</text><text fill="#000000" font-family="sans-serif" font-size="13" lengthAdjust="spacing" textLength="240" x="1557.5" y="247.1509">findByUsername(loggedUserUsername)</text><polygon fill="#181818" points="1550.5,280.6659,1540.5,284.6659,1550.5,288.6659,1546.5,284.6659" style="stroke:#181818;stroke-width:1.0;"/><line style="stroke:#181818;stroke-width:1.0;stroke-dasharray:2.0,2.0;" x1="1544.5" x2="1813.5" y1="284.6659" y2="284.6659"/><text fill="#000000" font-family="sans-serif" font-size="13" font-weight="bold" lengthAdjust="spacing" textLength="7" x="1556.5" y="278.8569">5</text><text fill="#000000" font-family="sans-serif" font-size="13" lengthAdjust="spacing" textLength="79" x="1567.5" y="278.8569">readerDetails</text><polygon fill="#181818" points="562,312.3719,552,316.3719,562,320.3719,558,316.3719" style="stroke:#181818;stroke-width:1.0;"/><line style="stroke:#181818;stroke-width:1.0;stroke-dasharray:2.0,2.0;" x1="556" x2="1533.5" y1="316.3719" y2="316.3719"/><text fill="#000000" font-family="sans-serif" font-size="13" font-weight="bold" lengthAdjust="spacing" textLength="7" x="568" y="310.5629">6</text><text fill="#000000" font-family="sans-serif" font-size="13" lengthAdjust="spacing" textLength="79" x="579" y="310.5629">readerDetails</text><polygon fill="#181818" points="791,344.0779,801,348.0779,791,352.0779,795,348.0779" style="stroke:#181818;stroke-width:1.0;"/><line style="stroke:#181818;stroke-width:1.0;" x1="551" x2="797" y1="348.0779" y2="348.0779"/><text fill="#000000" font-family="sans-serif" font-size="13" font-weight="bold" lengthAdjust="spacing" textLength="7" x="558" y="342.2689">7</text><text fill="#000000" font-family="sans-serif" font-size="13" lengthAdjust="spacing" textLength="222" x="569" y="342.2689">getBookSuggestions(readerNumber)</text><polygon fill="#181818" points="1517.5,375.784,1527.5,379.784,1517.5,383.784,1521.5,379.784" style="stroke:#181818;stroke-width:1.0;"/><line style="stroke:#181818;stroke-width:1.0;" x1="813" x2="1523.5" y1="379.784" y2="379.784"/><text fill="#000000" font-family="sans-serif" font-size="13" font-weight="bold" lengthAdjust="spacing" textLength="7" x="820" y="373.975">8</text><text fill="#000000" font-family="sans-serif" font-size="13" lengthAdjust="spacing" textLength="130" x="831" y="373.975">findByReaderNumber</text><polygon fill="#181818" points="1797.5,407.49,1807.5,411.49,1797.5,415.49,1801.5,411.49" style="stroke:#181818;stroke-width:1.0;"/><line style="stroke:#181818;stroke-width:1.0;" x1="1539.5" x2="1803.5" y1="411.49" y2="411.49"/><text fill="#000000" font-family="sans-serif" font-size="13" font-weight="bold" lengthAdjust="spacing" textLength="7" x="1546.5" y="405.681">9</text><text fill="#000000" font-family="sans-serif" font-size="13" lengthAdjust="spacing" textLength="227" x="1557.5" y="405.681">findByReaderNumber(readerNumber)</text><polygon fill="#181818" points="1550.5,439.196,1540.5,443.196,1550.5,447.196,1546.5,443.196" style="stroke:#181818;stroke-width:1.0;"/><line style="stroke:#181818;stroke-width:1.0;stroke-dasharray:2.0,2.0;" x1="1544.5" x2="1813.5" y1="443.196" y2="443.196"/><text fill="#000000" font-family="sans-serif" font-size="13" font-weight="bold" lengthAdjust="spacing" textLength="14" x="1556.5" y="437.387">10</text><text fill="#000000" font-family="sans-serif" font-size="13" lengthAdjust="spacing" textLength="79" x="1574.5" y="437.387">readerDetails</text><polygon fill="#181818" points="824,470.902,814,474.902,824,478.902,820,474.902" style="stroke:#181818;stroke-width:1.0;"/><line style="stroke:#181818;stroke-width:1.0;stroke-dasharray:2.0,2.0;" x1="818" x2="1533.5" y1="474.902" y2="474.902"/><text fill="#000000" font-family="sans-serif" font-size="13" font-weight="bold" lengthAdjust="spacing" textLength="14" x="830" y="469.093">11</text><text fill="#000000" font-family="sans-serif" font-size="13" lengthAdjust="spacing" textLength="79" x="848" y="469.093">readerDetails</text><polygon fill="#181818" points="1328,502.608,1338,506.608,1328,510.608,1332,506.608" style="stroke:#181818;stroke-width:1.0;"/><line style="stroke:#181818;stroke-width:1.0;" x1="813" x2="1334" y1="506.608" y2="506.608"/><text fill="#000000" font-family="sans-serif" font-size="13" font-weight="bold" lengthAdjust="spacing" textLength="14" x="820" y="500.799">12</text><text fill="#000000" font-family="sans-serif" font-size="13" lengthAdjust="spacing" textLength="490" x="838" y="500.799">for readerDetails.getInterestList() - interestGenre loop: findByGenre(interestGenre)</text><polygon fill="#181818" points="824,534.314,814,538.314,824,542.314,820,538.314" style="stroke:#181818;stroke-width:1.0;"/><line style="stroke:#181818;stroke-width:1.0;stroke-dasharray:2.0,2.0;" x1="818" x2="1344" y1="538.314" y2="538.314"/><text fill="#000000" font-family="sans-serif" font-size="13" font-weight="bold" lengthAdjust="spacing" textLength="14" x="830" y="532.505">13</text><text fill="#000000" font-family="sans-serif" font-size="13" lengthAdjust="spacing" textLength="254" x="848" y="532.505">bookList (merged with all genres searches)</text><polygon fill="#181818" points="562,566.0201,552,570.0201,562,574.0201,558,570.0201" style="stroke:#181818;stroke-width:1.0;"/><line style="stroke:#181818;stroke-width:1.0;stroke-dasharray:2.0,2.0;" x1="556" x2="807" y1="570.0201" y2="570.0201"/><text fill="#000000" font-family="sans-serif" font-size="13" font-weight="bold" lengthAdjust="spacing" textLength="14" x="568" y="564.2111">14</text><text fill="#000000" font-family="sans-serif" font-size="13" lengthAdjust="spacing" textLength="52" x="586" y="564.2111">bookList</text><polygon fill="#181818" points="250,597.7261,240,601.7261,250,605.7261,246,601.7261" style="stroke:#181818;stroke-width:1.0;"/><line style="stroke:#181818;stroke-width:1.0;stroke-dasharray:2.0,2.0;" x1="244" x2="545" y1="601.7261" y2="601.7261"/><text fill="#000000" font-family="sans-serif" font-size="13" font-weight="bold" lengthAdjust="spacing" textLength="14" x="256" y="595.9171">15</text><text fill="#000000" font-family="sans-serif" font-size="13" lengthAdjust="spacing" textLength="52" x="274" y="595.9171">bookList</text><polygon fill="#181818" points="48,629.4321,38,633.4321,48,637.4321,44,633.4321" style="stroke:#181818;stroke-width:1.0;"/><line style="stroke:#181818;stroke-width:1.0;stroke-dasharray:2.0,2.0;" x1="42" x2="233" y1="633.4321" y2="633.4321"/><text fill="#000000" font-family="sans-serif" font-size="13" font-weight="bold" lengthAdjust="spacing" textLength="14" x="54" y="627.6231">16</text><text fill="#000000" font-family="sans-serif" font-size="13" lengthAdjust="spacing" textLength="52" x="72" y="627.6231">bookList</text><!--SRC=[hLD1RiCW4BppYbKkTGvfxgxKGrAfgbJra2WF8FOsGSNWmZfLVb_0s0OtbNheoR0xCx0pvkvCrDfolMubLzGryhxIpThYPuUgmbKj-CdmXl6EDAz8N3WXQ1NsgckEQ1WZGHBX6GasMd_0lZkTq9BGoZBcEDh0OeUyHhC0Rg5VifOR4fLetQ6mAFTNIzY4Vh_C-rioilJYMwt8Q2cZbg_dI8lc8YeCu7s_3iXadnCCjZgWTsvXXRljTIHCfJd7Zn3bobswIqRyvJZVceGZUtRul7XBumc92scZGDmbx5W94VInHUTP_uNLO_Iw1EFZjcJXw0EqQO0zn8D327122bvEcEBGrav-k7DGMZum3_Uqp8mIteMgDzU3oqdn1WkfdKxjjqDfoJB6996OzdULYGIhdvV9d9oVEuwSeuQvaZ_gfYizwosyaILBqB-QiaiOVpSXPSqE_GyBiZ5py6oc_CMuwxc7dn7kdKilYj0uYrw5fM89An2ny8pA84Yjss6mK2coVk_ZRA3iXlu7zjfGD6ZSFm5VWix0fNGHEG4B5hcfpcXdaOnX3m8nv-IHZ9tXIOncJhrl]--></g></svg>