<?xml version="1.0" encoding="us-ascii" standalone="no"?><svg xmlns="http://www.w3.org/2000/svg" xmlns:xlink="http://www.w3.org/1999/xlink" contentStyleType="text/css" height="483px" preserveAspectRatio="none" style="width:898px;height:483px;background:#FFFFFF;" version="1.1" viewBox="0 0 898 483" width="898px" zoomAndPan="magnify"><defs/><g><!--class AuthorController--><g id="elem_AuthorController"><rect codeLine="3" fill="#F1F1F1" height="64.2969" id="AuthorController" rx="2.5" ry="2.5" style="stroke:#181818;stroke-width:0.5;" width="343" x="117" y="7"/><ellipse cx="224.75" cy="23" fill="#ADD1B2" rx="11" ry="11" style="stroke:#181818;stroke-width:1.0;"/><path d="M224.2188,29.9219 Q222.4688,29.9219 221.3281,29.1875 Q220.2031,28.4375 219.6406,27.0938 Q219.0938,25.7344 219.0938,23.9375 Q219.0938,21.9063 219.75,20.4531 Q220.4063,19 221.6875,18.2188 Q222.9688,17.4375 224.8438,17.4375 Q225.7344,17.4375 226.4063,17.625 Q227.0781,17.7969 227.7656,18.1406 L226.9531,20.1563 Q226.3281,19.8438 225.7813,19.7188 Q225.25,19.5938 224.7656,19.5938 Q223.5938,19.5938 222.8906,20.125 Q222.1875,20.6563 221.8906,21.6094 Q221.5938,22.5625 221.5938,23.8281 Q221.5938,25.8438 222.3125,26.8125 Q223.0313,27.7656 224.625,27.7656 Q225.2188,27.7656 225.8438,27.6094 Q226.4688,27.4531 227.2969,27.0781 L227.2969,29.2969 Q226.5625,29.6094 225.7656,29.7656 Q224.9844,29.9219 224.2188,29.9219 Z " fill="#000000"/><text fill="#000000" font-family="sans-serif" font-size="14" lengthAdjust="spacing" textLength="119" x="245.25" y="27.8467">AuthorController</text><line style="stroke:#181818;stroke-width:0.5;" x1="118" x2="459" y1="39" y2="39"/><line style="stroke:#181818;stroke-width:0.5;" x1="118" x2="459" y1="47" y2="47"/><text fill="#000000" font-family="sans-serif" font-size="14" lengthAdjust="spacing" textLength="331" x="123" y="63.9951">+getTop5(): ListResponse&lt;AuthorCountView&gt;</text></g><!--class AuthorService--><g id="elem_AuthorService"><rect codeLine="7" fill="#F1F1F1" height="64.2969" id="AuthorService" rx="2.5" ry="2.5" style="stroke:#181818;stroke-width:0.5;" width="396" x="495.5" y="7"/><ellipse cx="638.75" cy="23" fill="#ADD1B2" rx="11" ry="11" style="stroke:#181818;stroke-width:1.0;"/><path d="M638.2188,29.9219 Q636.4688,29.9219 635.3281,29.1875 Q634.2031,28.4375 633.6406,27.0938 Q633.0938,25.7344 633.0938,23.9375 Q633.0938,21.9063 633.75,20.4531 Q634.4063,19 635.6875,18.2188 Q636.9688,17.4375 638.8438,17.4375 Q639.7344,17.4375 640.4063,17.625 Q641.0781,17.7969 641.7656,18.1406 L640.9531,20.1563 Q640.3281,19.8438 639.7813,19.7188 Q639.25,19.5938 638.7656,19.5938 Q637.5938,19.5938 636.8906,20.125 Q636.1875,20.6563 635.8906,21.6094 Q635.5938,22.5625 635.5938,23.8281 Q635.5938,25.8438 636.3125,26.8125 Q637.0313,27.7656 638.625,27.7656 Q639.2188,27.7656 639.8438,27.6094 Q640.4688,27.4531 641.2969,27.0781 L641.2969,29.2969 Q640.5625,29.6094 639.7656,29.7656 Q638.9844,29.9219 638.2188,29.9219 Z " fill="#000000"/><text fill="#000000" font-family="sans-serif" font-size="14" lengthAdjust="spacing" textLength="101" x="659.25" y="27.8467">AuthorService</text><line style="stroke:#181818;stroke-width:0.5;" x1="496.5" x2="890.5" y1="39" y2="39"/><line style="stroke:#181818;stroke-width:0.5;" x1="496.5" x2="890.5" y1="47" y2="47"/><text fill="#000000" font-family="sans-serif" font-size="14" lengthAdjust="spacing" textLength="384" x="501.5" y="63.9951">+findTopAuthorByLendings(): List&lt;AuthorCountDTO&gt;</text></g><!--class AuthorServiceImpl--><g id="elem_AuthorServiceImpl"><rect codeLine="11" fill="#F1F1F1" height="48" id="AuthorServiceImpl" rx="2.5" ry="2.5" style="stroke:#181818;stroke-width:0.5;" width="164" x="611.5" y="139"/><ellipse cx="626.5" cy="155" fill="#ADD1B2" rx="11" ry="11" style="stroke:#181818;stroke-width:1.0;"/><path d="M625.9688,161.9219 Q624.2188,161.9219 623.0781,161.1875 Q621.9531,160.4375 621.3906,159.0938 Q620.8438,157.7344 620.8438,155.9375 Q620.8438,153.9063 621.5,152.4531 Q622.1563,151 623.4375,150.2188 Q624.7188,149.4375 626.5938,149.4375 Q627.4844,149.4375 628.1563,149.625 Q628.8281,149.7969 629.5156,150.1406 L628.7031,152.1563 Q628.0781,151.8438 627.5313,151.7188 Q627,151.5938 626.5156,151.5938 Q625.3438,151.5938 624.6406,152.125 Q623.9375,152.6563 623.6406,153.6094 Q623.3438,154.5625 623.3438,155.8281 Q623.3438,157.8438 624.0625,158.8125 Q624.7813,159.7656 626.375,159.7656 Q626.9688,159.7656 627.5938,159.6094 Q628.2188,159.4531 629.0469,159.0781 L629.0469,161.2969 Q628.3125,161.6094 627.5156,161.7656 Q626.7344,161.9219 625.9688,161.9219 Z " fill="#000000"/><text fill="#000000" font-family="sans-serif" font-size="14" lengthAdjust="spacing" textLength="132" x="640.5" y="159.8467">AuthorServiceImpl</text><line style="stroke:#181818;stroke-width:0.5;" x1="612.5" x2="774.5" y1="171" y2="171"/><line style="stroke:#181818;stroke-width:0.5;" x1="612.5" x2="774.5" y1="179" y2="179"/></g><!--class AuthorRepository--><g id="elem_AuthorRepository"><rect codeLine="14" fill="#F1F1F1" height="64.2969" id="AuthorRepository" rx="2.5" ry="2.5" style="stroke:#181818;stroke-width:0.5;" width="275" x="545" y="263.5"/><ellipse cx="616.25" cy="279.5" fill="#B4A7E5" rx="11" ry="11" style="stroke:#181818;stroke-width:1.0;"/><path d="M612.2813,286 L612.2813,284.2969 L614.6406,284.0313 L614.6406,275.8281 L612.2813,275.5625 L612.2813,273.8594 L619.4219,273.8594 L619.4219,275.5625 L617,275.8281 L617,284.0313 L619.4219,284.2969 L619.4219,286 L612.2813,286 Z " fill="#000000"/><text fill="#000000" font-family="sans-serif" font-size="14" font-style="italic" lengthAdjust="spacing" textLength="124" x="636.75" y="284.3467">AuthorRepository</text><line style="stroke:#181818;stroke-width:0.5;" x1="546" x2="819" y1="295.5" y2="295.5"/><line style="stroke:#181818;stroke-width:0.5;" x1="546" x2="819" y1="303.5" y2="303.5"/><text fill="#000000" font-family="sans-serif" font-size="14" lengthAdjust="spacing" textLength="263" x="551" y="320.4951">+findTop5(): List&lt;AuthorCountDTO&gt;</text></g><!--class AuthorViewMapper--><g id="elem_AuthorViewMapper"><rect codeLine="18" fill="#F1F1F1" height="64.2969" id="AuthorViewMapper" rx="2.5" ry="2.5" style="stroke:#181818;stroke-width:0.5;" width="567" x="7" y="131"/><ellipse cx="218.25" cy="147" fill="#ADD1B2" rx="11" ry="11" style="stroke:#181818;stroke-width:1.0;"/><path d="M217.7188,153.9219 Q215.9688,153.9219 214.8281,153.1875 Q213.7031,152.4375 213.1406,151.0938 Q212.5938,149.7344 212.5938,147.9375 Q212.5938,145.9063 213.25,144.4531 Q213.9063,143 215.1875,142.2188 Q216.4688,141.4375 218.3438,141.4375 Q219.2344,141.4375 219.9063,141.625 Q220.5781,141.7969 221.2656,142.1406 L220.4531,144.1563 Q219.8281,143.8438 219.2813,143.7188 Q218.75,143.5938 218.2656,143.5938 Q217.0938,143.5938 216.3906,144.125 Q215.6875,144.6563 215.3906,145.6094 Q215.0938,146.5625 215.0938,147.8281 Q215.0938,149.8438 215.8125,150.8125 Q216.5313,151.7656 218.125,151.7656 Q218.7188,151.7656 219.3438,151.6094 Q219.9688,151.4531 220.7969,151.0781 L220.7969,153.2969 Q220.0625,153.6094 219.2656,153.7656 Q218.4844,153.9219 217.7188,153.9219 Z " fill="#000000"/><text fill="#000000" font-family="sans-serif" font-size="14" lengthAdjust="spacing" textLength="136" x="238.75" y="151.8467">AuthorViewMapper</text><line style="stroke:#181818;stroke-width:0.5;" x1="8" x2="573" y1="163" y2="163"/><line style="stroke:#181818;stroke-width:0.5;" x1="8" x2="573" y1="171" y2="171"/><text fill="#000000" font-family="sans-serif" font-size="14" lengthAdjust="spacing" textLength="555" x="13" y="187.9951">+toAuthorViewList(authors: List&lt;AuthorCountDTO&gt;): List&lt;AuthorCountView&gt;</text></g><!--class AuthorCountDTO--><g id="elem_AuthorCountDTO"><rect codeLine="22" fill="#F1F1F1" height="80.5938" id="AuthorCountDTO" rx="2.5" ry="2.5" style="stroke:#181818;stroke-width:0.5;" width="157" x="403" y="396"/><ellipse cx="419.8" cy="412" fill="#ADD1B2" rx="11" ry="11" style="stroke:#181818;stroke-width:1.0;"/><path d="M419.2688,418.9219 Q417.5188,418.9219 416.3781,418.1875 Q415.2531,417.4375 414.6906,416.0938 Q414.1438,414.7344 414.1438,412.9375 Q414.1438,410.9063 414.8,409.4531 Q415.4563,408 416.7375,407.2188 Q418.0188,406.4375 419.8938,406.4375 Q420.7844,406.4375 421.4563,406.625 Q422.1281,406.7969 422.8156,407.1406 L422.0031,409.1563 Q421.3781,408.8438 420.8313,408.7188 Q420.3,408.5938 419.8156,408.5938 Q418.6438,408.5938 417.9406,409.125 Q417.2375,409.6563 416.9406,410.6094 Q416.6438,411.5625 416.6438,412.8281 Q416.6438,414.8438 417.3625,415.8125 Q418.0813,416.7656 419.675,416.7656 Q420.2688,416.7656 420.8938,416.6094 Q421.5188,416.4531 422.3469,416.0781 L422.3469,418.2969 Q421.6125,418.6094 420.8156,418.7656 Q420.0344,418.9219 419.2688,418.9219 Z " fill="#000000"/><text fill="#000000" font-family="sans-serif" font-size="14" lengthAdjust="spacing" textLength="121" x="434.2" y="416.8467">AuthorCountDTO</text><line style="stroke:#181818;stroke-width:0.5;" x1="404" x2="559" y1="428" y2="428"/><text fill="#000000" font-family="sans-serif" font-size="14" lengthAdjust="spacing" textLength="145" x="409" y="444.9951">-authorName: String</text><text fill="#000000" font-family="sans-serif" font-size="14" lengthAdjust="spacing" textLength="92" x="409" y="461.292">-lendings: int</text><line style="stroke:#181818;stroke-width:0.5;" x1="404" x2="559" y1="468.5938" y2="468.5938"/></g><!--class AuthorCountView--><g id="elem_AuthorCountView"><rect codeLine="27" fill="#F1F1F1" height="80.5938" id="AuthorCountView" rx="2.5" ry="2.5" style="stroke:#181818;stroke-width:0.5;" width="157" x="344" y="255"/><ellipse cx="359.45" cy="271" fill="#ADD1B2" rx="11" ry="11" style="stroke:#181818;stroke-width:1.0;"/><path d="M358.9188,277.9219 Q357.1688,277.9219 356.0281,277.1875 Q354.9031,276.4375 354.3406,275.0938 Q353.7938,273.7344 353.7938,271.9375 Q353.7938,269.9063 354.45,268.4531 Q355.1063,267 356.3875,266.2188 Q357.6688,265.4375 359.5438,265.4375 Q360.4344,265.4375 361.1063,265.625 Q361.7781,265.7969 362.4656,266.1406 L361.6531,268.1563 Q361.0281,267.8438 360.4813,267.7188 Q359.95,267.5938 359.4656,267.5938 Q358.2938,267.5938 357.5906,268.125 Q356.8875,268.6563 356.5906,269.6094 Q356.2938,270.5625 356.2938,271.8281 Q356.2938,273.8438 357.0125,274.8125 Q357.7313,275.7656 359.325,275.7656 Q359.9188,275.7656 360.5438,275.6094 Q361.1688,275.4531 361.9969,275.0781 L361.9969,277.2969 Q361.2625,277.6094 360.4656,277.7656 Q359.6844,277.9219 358.9188,277.9219 Z " fill="#000000"/><text fill="#000000" font-family="sans-serif" font-size="14" lengthAdjust="spacing" textLength="124" x="373.55" y="275.8467">AuthorCountView</text><line style="stroke:#181818;stroke-width:0.5;" x1="345" x2="500" y1="287" y2="287"/><text fill="#000000" font-family="sans-serif" font-size="14" lengthAdjust="spacing" textLength="145" x="350" y="303.9951">-authorName: String</text><text fill="#000000" font-family="sans-serif" font-size="14" lengthAdjust="spacing" textLength="92" x="350" y="320.292">-lendings: int</text><line style="stroke:#181818;stroke-width:0.5;" x1="345" x2="500" y1="327.5938" y2="327.5938"/></g><!--reverse link AuthorService to AuthorServiceImpl--><g id="link_AuthorService_AuthorServiceImpl"><path d="M680.306,88.998 C678.056,110.038 680.3,119.48 683.22,138.66 " fill="none" id="AuthorService-backto-AuthorServiceImpl" style="stroke:#181818;stroke-width:1.0;stroke-dasharray:7.0,7.0;"/><polygon fill="none" points="682.22,71.1,674.34,88.36,686.272,89.6359,682.22,71.1" style="stroke:#181818;stroke-width:1.0;"/></g><!--reverse link AuthorService to AuthorServiceImpl--><g id="link_AuthorService_AuthorServiceImpl"><path codeLine="33" d="M706.1172,77.0617 C708.5072,98.1017 707.47,119.48 704.39,138.66 " fill="none" id="AuthorService-backto-AuthorServiceImpl-1" style="stroke:#181818;stroke-width:1.0;stroke-dasharray:7.0,7.0;"/><polygon fill="#181818" points="705.44,71.1,702.4814,80.494,706.0043,76.0681,710.4302,79.591,705.44,71.1" style="stroke:#181818;stroke-width:1.0;"/></g><!--link AuthorController to AuthorService--><g id="link_AuthorController_AuthorService"><path codeLine="32" d="M460.15,39 C471.85,39 477.55,39 489.24,39 " fill="none" id="AuthorController-to-AuthorService" style="stroke:#181818;stroke-width:1.0;"/><polygon fill="#181818" points="495.24,39,486.24,35,490.24,39,486.24,43,495.24,39" style="stroke:#181818;stroke-width:1.0;"/></g><!--link AuthorServiceImpl to AuthorRepository--><g id="link_AuthorServiceImpl_AuthorRepository"><path codeLine="34" d="M691.56,187.03 C689.77,208.25 687.6044,233.9312 685.6244,257.4012 " fill="none" id="AuthorServiceImpl-to-AuthorRepository" style="stroke:#181818;stroke-width:1.0;stroke-dasharray:7.0,7.0;"/><polygon fill="#181818" points="685.12,263.38,689.8624,254.7481,685.5403,258.3977,681.8907,254.0756,685.12,263.38" style="stroke:#181818;stroke-width:1.0;"/></g><!--link AuthorController to AuthorViewMapper--><g id="link_AuthorController_AuthorViewMapper"><path codeLine="35" d="M289.01,71.1 C289.31,89.46 289.5919,106.6108 289.8919,124.9608 " fill="none" id="AuthorController-to-AuthorViewMapper" style="stroke:#181818;stroke-width:1.0;stroke-dasharray:7.0,7.0;"/><polygon fill="#181818" points="289.99,130.96,293.8423,121.8958,289.9083,125.9607,285.8434,122.0266,289.99,130.96" style="stroke:#181818;stroke-width:1.0;"/></g><!--link AuthorRepository to AuthorCountDTO--><g id="link_AuthorRepository_AuthorCountDTO"><path codeLine="36" d="M637.64,327.52 C608.49,347.68 575.1354,370.748 543.7754,392.428 " fill="none" id="AuthorRepository-to-AuthorCountDTO" style="stroke:#181818;stroke-width:1.0;stroke-dasharray:7.0,7.0;"/><polygon fill="#181818" points="538.84,395.84,548.5178,394.0123,542.9528,392.9967,543.9685,387.4317,538.84,395.84" style="stroke:#181818;stroke-width:1.0;"/></g><!--link AuthorViewMapper to AuthorCountDTO--><g id="link_AuthorViewMapper_AuthorCountDTO"><path codeLine="37" d="M290.01,195.06 C290.89,231.82 297.16,293.41 326.5,336 C345.46,363.52 369.5459,382.1814 397.5959,398.1514 " fill="none" id="AuthorViewMapper-to-AuthorCountDTO" style="stroke:#181818;stroke-width:1.0;stroke-dasharray:7.0,7.0;"/><polygon fill="#181818" points="402.81,401.12,396.9679,393.191,398.4649,398.6461,393.0097,400.1432,402.81,401.12" style="stroke:#181818;stroke-width:1.0;"/></g><!--link AuthorViewMapper to AuthorCountView--><g id="link_AuthorViewMapper_AuthorCountView"><path codeLine="38" d="M322.12,195.26 C340.12,213.05 358.5831,231.3118 377.8631,250.3718 " fill="none" id="AuthorViewMapper-to-AuthorCountView" style="stroke:#181818;stroke-width:1.0;stroke-dasharray:7.0,7.0;"/><polygon fill="#181818" points="382.13,254.59,378.5418,245.4181,378.5742,251.0748,372.9175,251.1073,382.13,254.59" style="stroke:#181818;stroke-width:1.0;"/></g><!--SRC=[dP91IyD048Nl-olcM94MBxq4ALIz5Af2KxolwJGE9hFBxaIfudztqoHDwqOepI6ml9dlPT-BVoUsskaIia9xFnTnz5e9BZB3ANqXt2YrLs1UoPjnzuR5cQ901zyAmdCDEShQsEdeAe4bULcXjuOztdOB5SiBuUTC_PoYKdGVbE61ioNU150ZtksMo1lYt7VSOzx3-la_tAAq1L1uOOaiiLVO8XPqMnsEZRX2Qpo9SRk_tp8zrxo-uAEszYWMCRrK8qPwV_J3m06VmT2wXTPc30trIPUOG1hAuxmLYZQ_1C9z1p6rmGMSw4SOpqvJLd4XayfEpfWwpFILn7RzL9-wYfhifxh8L5JL1JEredu1]--></g></svg>
