<?xml version="1.0" encoding="us-ascii" standalone="no"?><svg xmlns="http://www.w3.org/2000/svg" xmlns:xlink="http://www.w3.org/1999/xlink" contentStyleType="text/css" height="641px" preserveAspectRatio="none" style="width:1121px;height:641px;background:#FFFFFF;" version="1.1" viewBox="0 0 1121 641" width="1121px" zoomAndPan="magnify"><defs/><g><text fill="#000000" font-family="sans-serif" font-size="14" font-weight="bold" lengthAdjust="spacing" textLength="223" x="448" y="29.9659">Register a new book as librarian</text><rect fill="#FFFFFF" height="415.1782" style="stroke:#181818;stroke-width:1.0;" width="10" x="42.5" y="134.1358"/><rect fill="#FFFFFF" height="391.4722" style="stroke:#181818;stroke-width:1.0;" width="10" x="365.5" y="157.8419"/><rect fill="#FFFFFF" height="197.2361" style="stroke:#181818;stroke-width:1.0;" width="10" x="370.5" y="343.0779"/><rect fill="#FFFFFF" height="319.0602" style="stroke:#181818;stroke-width:1.0;" width="10" x="622.5" y="189.5479"/><rect fill="#FFFFFF" height="63.412" style="stroke:#181818;stroke-width:1.0;" width="10" x="783.5" y="221.2539"/><rect fill="#FFFFFF" height="95.118" style="stroke:#181818;stroke-width:1.0;" width="10" x="783.5" y="381.784"/><rect fill="#FFFFFF" height="31.706" style="stroke:#181818;stroke-width:1.0;" width="10" x="942" y="413.49"/><rect fill="#FFFFFF" height="296.3541" style="stroke:#181818;stroke-width:1.0;" width="10" x="1069" y="252.9599"/><rect fill="none" height="51.412" style="stroke:#000000;stroke-width:1.5;" width="380.5" x="327.5" y="299.6659"/><line style="stroke:#181818;stroke-width:0.5;stroke-dasharray:5.0,5.0;" x1="47" x2="47" y1="124.1358" y2="558.314"/><line style="stroke:#181818;stroke-width:0.5;stroke-dasharray:5.0,5.0;" x1="370.5" x2="370.5" y1="124.1358" y2="558.314"/><line style="stroke:#181818;stroke-width:0.5;stroke-dasharray:5.0,5.0;" x1="627" x2="627" y1="124.1358" y2="558.314"/><line style="stroke:#181818;stroke-width:0.5;stroke-dasharray:5.0,5.0;" x1="788" x2="788" y1="124.1358" y2="558.314"/><line style="stroke:#181818;stroke-width:0.5;stroke-dasharray:5.0,5.0;" x1="947" x2="947" y1="124.1358" y2="558.314"/><line style="stroke:#181818;stroke-width:0.5;stroke-dasharray:5.0,5.0;" x1="1074" x2="1074" y1="124.1358" y2="558.314"/><text fill="#000000" font-family="sans-serif" font-size="14" lengthAdjust="spacing" textLength="79" x="5" y="120.0339">Anonymous</text><ellipse cx="47.5" cy="53.5679" fill="#E2E2F0" rx="8" ry="8" style="stroke:#181818;stroke-width:0.5;"/><path d="M47.5,61.5679 L47.5,88.5679 M34.5,69.5679 L60.5,69.5679 M47.5,88.5679 L34.5,103.5679 M47.5,88.5679 L60.5,103.5679 " fill="none" style="stroke:#181818;stroke-width:0.5;"/><text fill="#000000" font-family="sans-serif" font-size="14" lengthAdjust="spacing" textLength="79" x="5" y="572.28">Anonymous</text><ellipse cx="47.5" cy="584.882" fill="#E2E2F0" rx="8" ry="8" style="stroke:#181818;stroke-width:0.5;"/><path d="M47.5,592.882 L47.5,619.882 M34.5,600.882 L60.5,600.882 M47.5,619.882 L34.5,634.882 M47.5,619.882 L60.5,634.882 " fill="none" style="stroke:#181818;stroke-width:0.5;"/><rect fill="#E2E2F0" height="33.0679" rx="2.5" ry="2.5" style="stroke:#181818;stroke-width:0.5;" width="66" x="337.5" y="90.0679"/><text fill="#000000" font-family="sans-serif" font-size="14" lengthAdjust="spacing" textLength="52" x="344.5" y="112.0339">:System</text><rect fill="#E2E2F0" height="33.0679" rx="2.5" ry="2.5" style="stroke:#181818;stroke-width:0.5;" width="66" x="337.5" y="557.314"/><text fill="#000000" font-family="sans-serif" font-size="14" lengthAdjust="spacing" textLength="52" x="344.5" y="579.28">:System</text><rect fill="#E2E2F0" height="33.0679" rx="2.5" ry="2.5" style="stroke:#181818;stroke-width:0.5;" width="141" x="557" y="90.0679"/><text fill="#000000" font-family="sans-serif" font-size="14" lengthAdjust="spacing" textLength="127" x="564" y="112.0339">Ctrl:BookController</text><rect fill="#E2E2F0" height="33.0679" rx="2.5" ry="2.5" style="stroke:#181818;stroke-width:0.5;" width="141" x="557" y="557.314"/><text fill="#000000" font-family="sans-serif" font-size="14" lengthAdjust="spacing" textLength="127" x="564" y="579.28">Ctrl:BookController</text><rect fill="#E2E2F0" height="33.0679" rx="2.5" ry="2.5" style="stroke:#181818;stroke-width:0.5;" width="145" x="716" y="90.0679"/><text fill="#000000" font-family="sans-serif" font-size="14" lengthAdjust="spacing" textLength="131" x="723" y="112.0339">service:BookService</text><rect fill="#E2E2F0" height="33.0679" rx="2.5" ry="2.5" style="stroke:#181818;stroke-width:0.5;" width="145" x="716" y="557.314"/><text fill="#000000" font-family="sans-serif" font-size="14" lengthAdjust="spacing" textLength="131" x="723" y="579.28">service:BookService</text><rect fill="#E2E2F0" height="33.0679" rx="2.5" ry="2.5" style="stroke:#181818;stroke-width:0.5;" width="152" x="871" y="90.0679"/><text fill="#000000" font-family="sans-serif" font-size="14" lengthAdjust="spacing" textLength="138" x="878" y="112.0339">repo:BookRepository</text><rect fill="#E2E2F0" height="33.0679" rx="2.5" ry="2.5" style="stroke:#181818;stroke-width:0.5;" width="152" x="871" y="557.314"/><text fill="#000000" font-family="sans-serif" font-size="14" lengthAdjust="spacing" textLength="138" x="878" y="579.28">repo:BookRepository</text><rect fill="#E2E2F0" height="33.0679" rx="2.5" ry="2.5" style="stroke:#181818;stroke-width:0.5;" width="82" x="1033" y="90.0679"/><text fill="#000000" font-family="sans-serif" font-size="14" lengthAdjust="spacing" textLength="68" x="1040" y="112.0339">book:Book</text><rect fill="#E2E2F0" height="33.0679" rx="2.5" ry="2.5" style="stroke:#181818;stroke-width:0.5;" width="82" x="1033" y="557.314"/><text fill="#000000" font-family="sans-serif" font-size="14" lengthAdjust="spacing" textLength="68" x="1040" y="579.28">book:Book</text><rect fill="#FFFFFF" height="415.1782" style="stroke:#181818;stroke-width:1.0;" width="10" x="42.5" y="134.1358"/><rect fill="#FFFFFF" height="391.4722" style="stroke:#181818;stroke-width:1.0;" width="10" x="365.5" y="157.8419"/><rect fill="#FFFFFF" height="197.2361" style="stroke:#181818;stroke-width:1.0;" width="10" x="370.5" y="343.0779"/><rect fill="#FFFFFF" height="319.0602" style="stroke:#181818;stroke-width:1.0;" width="10" x="622.5" y="189.5479"/><rect fill="#FFFFFF" height="63.412" style="stroke:#181818;stroke-width:1.0;" width="10" x="783.5" y="221.2539"/><rect fill="#FFFFFF" height="95.118" style="stroke:#181818;stroke-width:1.0;" width="10" x="783.5" y="381.784"/><rect fill="#FFFFFF" height="31.706" style="stroke:#181818;stroke-width:1.0;" width="10" x="942" y="413.49"/><rect fill="#FFFFFF" height="296.3541" style="stroke:#181818;stroke-width:1.0;" width="10" x="1069" y="252.9599"/><polygon fill="#181818" points="353.5,153.8419,363.5,157.8419,353.5,161.8419,357.5,157.8419" style="stroke:#181818;stroke-width:1.0;"/><line style="stroke:#181818;stroke-width:1.0;" x1="52.5" x2="359.5" y1="157.8419" y2="157.8419"/><text fill="#000000" font-family="sans-serif" font-size="13" font-weight="bold" lengthAdjust="spacing" textLength="7" x="59.5" y="152.0328">1</text><text fill="#000000" font-family="sans-serif" font-size="13" lengthAdjust="spacing" textLength="283" x="70.5" y="152.0328">requests book registration based on given data</text><polygon fill="#181818" points="610.5,185.5479,620.5,189.5479,610.5,193.5479,614.5,189.5479" style="stroke:#181818;stroke-width:1.0;"/><line style="stroke:#181818;stroke-width:1.0;" x1="375.5" x2="616.5" y1="189.5479" y2="189.5479"/><text fill="#000000" font-family="sans-serif" font-size="13" font-weight="bold" lengthAdjust="spacing" textLength="7" x="382.5" y="183.7389">2</text><text fill="#000000" font-family="sans-serif" font-size="13" lengthAdjust="spacing" textLength="217" x="393.5" y="183.7389">registerBook(RegisterBookRequest);</text><polygon fill="#181818" points="771.5,217.2539,781.5,221.2539,771.5,225.2539,775.5,221.2539" style="stroke:#181818;stroke-width:1.0;"/><line style="stroke:#181818;stroke-width:1.0;" x1="632.5" x2="777.5" y1="221.2539" y2="221.2539"/><text fill="#000000" font-family="sans-serif" font-size="13" font-weight="bold" lengthAdjust="spacing" textLength="7" x="639.5" y="215.4449">3</text><text fill="#000000" font-family="sans-serif" font-size="13" lengthAdjust="spacing" textLength="114" x="650.5" y="215.4449">create(title, isbn, ...)</text><polygon fill="#181818" points="1057,248.9599,1067,252.9599,1057,256.9599,1061,252.9599" style="stroke:#181818;stroke-width:1.0;"/><line style="stroke:#181818;stroke-width:1.0;" x1="793.5" x2="1063" y1="252.9599" y2="252.9599"/><text fill="#000000" font-family="sans-serif" font-size="13" font-weight="bold" lengthAdjust="spacing" textLength="7" x="800.5" y="247.1509">4</text><text fill="#000000" font-family="sans-serif" font-size="13" lengthAdjust="spacing" textLength="108" x="811.5" y="247.1509">Book(title, isbn, ...)</text><polygon fill="#181818" points="643.5,280.6659,633.5,284.6659,643.5,288.6659,639.5,284.6659" style="stroke:#181818;stroke-width:1.0;"/><line style="stroke:#181818;stroke-width:1.0;stroke-dasharray:2.0,2.0;" x1="637.5" x2="787.5" y1="284.6659" y2="284.6659"/><text fill="#000000" font-family="sans-serif" font-size="13" font-weight="bold" lengthAdjust="spacing" textLength="7" x="649.5" y="278.8569">5</text><text fill="#000000" font-family="sans-serif" font-size="13" lengthAdjust="spacing" textLength="109" x="660.5" y="278.8569">Book or exception</text><path d="M327.5,299.6659 L390.5,299.6659 L390.5,309.3719 L380.5,319.3719 L327.5,319.3719 L327.5,299.6659 " fill="#EEEEEE" style="stroke:#000000;stroke-width:1.5;"/><rect fill="none" height="51.412" style="stroke:#000000;stroke-width:1.5;" width="380.5" x="327.5" y="299.6659"/><text fill="#000000" font-family="sans-serif" font-size="13" font-weight="bold" lengthAdjust="spacing" textLength="18" x="342.5" y="314.5629">alt</text><text fill="#000000" font-family="sans-serif" font-size="11" font-weight="bold" lengthAdjust="spacing" textLength="138" x="405.5" y="313.4248">[If exception is returned]</text><polygon fill="#181818" points="391.5,339.0779,381.5,343.0779,391.5,347.0779,387.5,343.0779" style="stroke:#181818;stroke-width:1.0;"/><line style="stroke:#181818;stroke-width:1.0;" x1="385.5" x2="621.5" y1="343.0779" y2="343.0779"/><text fill="#000000" font-family="sans-serif" font-size="13" font-weight="bold" lengthAdjust="spacing" textLength="7" x="397.5" y="337.2689">6</text><text fill="#000000" font-family="sans-serif" font-size="13" lengthAdjust="spacing" textLength="101" x="408.5" y="337.2689">Book is duplicate</text><polygon fill="#181818" points="771.5,377.784,781.5,381.784,771.5,385.784,775.5,381.784" style="stroke:#181818;stroke-width:1.0;"/><line style="stroke:#181818;stroke-width:1.0;" x1="632.5" x2="777.5" y1="381.784" y2="381.784"/><text fill="#000000" font-family="sans-serif" font-size="13" font-weight="bold" lengthAdjust="spacing" textLength="7" x="639.5" y="375.975">7</text><text fill="#000000" font-family="sans-serif" font-size="13" lengthAdjust="spacing" textLength="66" x="650.5" y="375.975">save(book)</text><polygon fill="#181818" points="930,409.49,940,413.49,930,417.49,934,413.49" style="stroke:#181818;stroke-width:1.0;"/><line style="stroke:#181818;stroke-width:1.0;" x1="793.5" x2="936" y1="413.49" y2="413.49"/><text fill="#000000" font-family="sans-serif" font-size="13" font-weight="bold" lengthAdjust="spacing" textLength="7" x="800.5" y="407.681">8</text><text fill="#000000" font-family="sans-serif" font-size="13" lengthAdjust="spacing" textLength="66" x="811.5" y="407.681">save(book)</text><polygon fill="#181818" points="804.5,441.196,794.5,445.196,804.5,449.196,800.5,445.196" style="stroke:#181818;stroke-width:1.0;"/><line style="stroke:#181818;stroke-width:1.0;stroke-dasharray:2.0,2.0;" x1="798.5" x2="946" y1="445.196" y2="445.196"/><text fill="#000000" font-family="sans-serif" font-size="13" font-weight="bold" lengthAdjust="spacing" textLength="7" x="810.5" y="439.387">9</text><text fill="#000000" font-family="sans-serif" font-size="13" lengthAdjust="spacing" textLength="109" x="821.5" y="439.387">Book or exception</text><polygon fill="#181818" points="643.5,472.902,633.5,476.902,643.5,480.902,639.5,476.902" style="stroke:#181818;stroke-width:1.0;"/><line style="stroke:#181818;stroke-width:1.0;stroke-dasharray:2.0,2.0;" x1="637.5" x2="787.5" y1="476.902" y2="476.902"/><text fill="#000000" font-family="sans-serif" font-size="13" font-weight="bold" lengthAdjust="spacing" textLength="14" x="649.5" y="471.093">10</text><text fill="#000000" font-family="sans-serif" font-size="13" lengthAdjust="spacing" textLength="109" x="667.5" y="471.093">Book or exception</text><polygon fill="#181818" points="391.5,504.608,381.5,508.608,391.5,512.608,387.5,508.608" style="stroke:#181818;stroke-width:1.0;"/><line style="stroke:#181818;stroke-width:1.0;stroke-dasharray:2.0,2.0;" x1="385.5" x2="626.5" y1="508.608" y2="508.608"/><text fill="#000000" font-family="sans-serif" font-size="13" font-weight="bold" lengthAdjust="spacing" textLength="14" x="397.5" y="502.799">11</text><text fill="#000000" font-family="sans-serif" font-size="13" lengthAdjust="spacing" textLength="31" x="415.5" y="502.799">book</text><polygon fill="#181818" points="63.5,536.314,53.5,540.314,63.5,544.314,59.5,540.314" style="stroke:#181818;stroke-width:1.0;"/><line style="stroke:#181818;stroke-width:1.0;stroke-dasharray:2.0,2.0;" x1="57.5" x2="364.5" y1="540.314" y2="540.314"/><text fill="#000000" font-family="sans-serif" font-size="13" font-weight="bold" lengthAdjust="spacing" textLength="14" x="69.5" y="534.505">12</text><text fill="#000000" font-family="sans-serif" font-size="13" lengthAdjust="spacing" textLength="103" x="87.5" y="534.505">registered reader</text><!--SRC=[ZLDDJyCm3BtdLrYxi4biknS92NRYsls2j3KZ8asAumxsxx6Jgbi5GknG-UFvvVbPktjZ7bArtm_U1XvxlsjZlq_uCM9eSTivUoBR6pjoj2sxisM4678Unhv1CeOTUuGQJoun4bW8-0bDZEzW4tZNa2LdWp4o7mbMJo66In_7jDB-d9d14hlM3I83LjNn8cHzXfHmsJym-UfPtZZ4m1IzHyfOhI-H2UdiMipWOuaBQucNOC8XPcGjGNAYzvB1cYwHkbz6vhu6US5Yq7KfCuUmVPmsgO3KtiIfk4JPERBiOe369kp4OJYvCmReB5jZofmovBsd2IHzTbtV97KXtZmOeyZyvhG_j8IYRPslTGykDU4UThlTnam81Ij7bRz_uMOT2WIvANwrEAXyyS0plBnUAq8WSdcaW9q1-Ssw9YyoXu2wSV2k5OK6G_UB_6JFk5Q_5eBrC8kU5hB2UV2do7yjKWJS25N- -H9IdozxlOTSJapkv4_n3G00]--></g></svg>