<?xml version="1.0" encoding="us-ascii" standalone="no"?><svg xmlns="http://www.w3.org/2000/svg" xmlns:xlink="http://www.w3.org/1999/xlink" contentStyleType="text/css" height="854.1px" preserveAspectRatio="none" style="width:975px;height:854px;background:#FFFFFF;" version="1.1" viewBox="0 0 975 854" width="975.6px" zoomAndPan="magnify"><defs/><g><!--class Authors--><g id="elem_Authors"><rect codeLine="4" fill="#F1F1F1" height="65.3063" id="Authors" rx="2.25" ry="2.25" style="stroke:#181818;stroke-width:0.45;" width="143.1" x="499.05" y="648.9"/><ellipse cx="542.025" cy="667.0195" fill="#ADD1B2" rx="9.9" ry="9.9" style="stroke:#181818;stroke-width:0.9;"/><path d="M541.5469,673.2492 Q539.9719,673.2492 538.9453,672.5883 Q537.9328,671.9133 537.4266,670.7039 Q536.9344,669.4805 536.9344,667.8633 Q536.9344,666.0352 537.525,664.7273 Q538.1156,663.4195 539.2688,662.7164 Q540.4219,662.0133 542.1094,662.0133 Q542.9109,662.0133 543.5156,662.182 Q544.1203,662.3367 544.7391,662.6461 L544.0078,664.4602 Q543.4453,664.1789 542.9531,664.0664 Q542.475,663.9539 542.0391,663.9539 Q540.9844,663.9539 540.3516,664.432 Q539.7188,664.9102 539.4516,665.768 Q539.1844,666.6258 539.1844,667.7648 Q539.1844,669.5789 539.8313,670.4508 Q540.4781,671.3086 541.9125,671.3086 Q542.4469,671.3086 543.0094,671.168 Q543.5719,671.0273 544.3172,670.6898 L544.3172,672.6867 Q543.6563,672.968 542.9391,673.1086 Q542.2359,673.2492 541.5469,673.2492 Z " fill="#000000"/><text fill="#000000" font-family="sans-serif" font-size="10.8" font-style="italic" lengthAdjust="spacing" textLength="44.1" x="563.175" y="663.4248">&#171;entity&#187;</text><text fill="#000000" font-family="sans-serif" font-size="12.6" lengthAdjust="spacing" textLength="49.5" x="560.475" y="677.6675">Authors</text><line style="stroke:#181818;stroke-width:0.45;" x1="499.95" x2="641.25" y1="685.1391" y2="685.1391"/><text fill="#000000" font-family="sans-serif" font-size="12.6" lengthAdjust="spacing" textLength="132.3" x="504.45" y="700.4347">-authorsNumber : int</text><line style="stroke:#181818;stroke-width:0.45;" x1="499.95" x2="641.25" y1="707.0063" y2="707.0063"/></g><!--class Name--><g id="elem_Name"><rect codeLine="7" fill="#F1F1F1" height="79.9734" id="Name" rx="2.25" ry="2.25" style="stroke:#181818;stroke-width:0.45;" width="130.5" x="343.35" y="768.6"/><ellipse cx="384.525" cy="786.7195" fill="#ADD1B2" rx="9.9" ry="9.9" style="stroke:#181818;stroke-width:0.9;"/><path d="M384.0469,792.9492 Q382.4719,792.9492 381.4453,792.2883 Q380.4328,791.6133 379.9266,790.4039 Q379.4344,789.1805 379.4344,787.5633 Q379.4344,785.7352 380.025,784.4273 Q380.6156,783.1195 381.7688,782.4164 Q382.9219,781.7133 384.6094,781.7133 Q385.4109,781.7133 386.0156,781.882 Q386.6203,782.0367 387.2391,782.3461 L386.5078,784.1602 Q385.9453,783.8789 385.4531,783.7664 Q384.975,783.6539 384.5391,783.6539 Q383.4844,783.6539 382.8516,784.132 Q382.2188,784.6102 381.9516,785.468 Q381.6844,786.3258 381.6844,787.4648 Q381.6844,789.2789 382.3313,790.1508 Q382.9781,791.0086 384.4125,791.0086 Q384.9469,791.0086 385.5094,790.868 Q386.0719,790.7273 386.8172,790.3898 L386.8172,792.3867 Q386.1563,792.668 385.4391,792.8086 Q384.7359,792.9492 384.0469,792.9492 Z " fill="#000000"/><text fill="#000000" font-family="sans-serif" font-size="10.8" font-style="italic" lengthAdjust="spacing" textLength="44.1" x="401.175" y="783.1248">&#171;entity&#187;</text><text fill="#000000" font-family="sans-serif" font-size="12.6" lengthAdjust="spacing" textLength="37.8" x="404.325" y="797.3675">Name</text><line style="stroke:#181818;stroke-width:0.45;" x1="344.25" x2="472.95" y1="804.8391" y2="804.8391"/><text fill="#000000" font-family="sans-serif" font-size="12.6" lengthAdjust="spacing" textLength="85.5" x="348.75" y="820.1347">-name: string</text><line style="stroke:#181818;stroke-width:0.45;" x1="344.25" x2="472.95" y1="826.7063" y2="826.7063"/><text fill="#000000" font-family="sans-serif" font-size="12.6" lengthAdjust="spacing" textLength="119.7" x="348.75" y="842.0019">+toString() : String</text></g><!--class AuthorBio--><g id="elem_AuthorBio"><rect codeLine="12" fill="#F1F1F1" height="79.9734" id="AuthorBio" rx="2.25" ry="2.25" style="stroke:#181818;stroke-width:0.45;" width="130.5" x="505.35" y="768.6"/><ellipse cx="535.86" cy="786.7195" fill="#ADD1B2" rx="9.9" ry="9.9" style="stroke:#181818;stroke-width:0.9;"/><path d="M535.3819,792.9492 Q533.8069,792.9492 532.7803,792.2883 Q531.7678,791.6133 531.2616,790.4039 Q530.7694,789.1805 530.7694,787.5633 Q530.7694,785.7352 531.36,784.4273 Q531.9506,783.1195 533.1038,782.4164 Q534.2569,781.7133 535.9444,781.7133 Q536.7459,781.7133 537.3506,781.882 Q537.9553,782.0367 538.5741,782.3461 L537.8428,784.1602 Q537.2803,783.8789 536.7881,783.7664 Q536.31,783.6539 535.8741,783.6539 Q534.8194,783.6539 534.1866,784.132 Q533.5538,784.6102 533.2866,785.468 Q533.0194,786.3258 533.0194,787.4648 Q533.0194,789.2789 533.6663,790.1508 Q534.3131,791.0086 535.7475,791.0086 Q536.2819,791.0086 536.8444,790.868 Q537.4069,790.7273 538.1522,790.3898 L538.1522,792.3867 Q537.4913,792.668 536.7741,792.8086 Q536.0709,792.9492 535.3819,792.9492 Z " fill="#000000"/><text fill="#000000" font-family="sans-serif" font-size="10.8" font-style="italic" lengthAdjust="spacing" textLength="41.4" x="563.49" y="783.1248">&#171;value&#187;</text><text fill="#000000" font-family="sans-serif" font-size="12.6" lengthAdjust="spacing" textLength="63.9" x="552.24" y="797.3675">AuthorBio</text><line style="stroke:#181818;stroke-width:0.45;" x1="506.25" x2="634.95" y1="804.8391" y2="804.8391"/><text fill="#000000" font-family="sans-serif" font-size="12.6" lengthAdjust="spacing" textLength="107.1" x="510.75" y="820.1347">-Short Bio: string</text><line style="stroke:#181818;stroke-width:0.45;" x1="506.25" x2="634.95" y1="826.7063" y2="826.7063"/><text fill="#000000" font-family="sans-serif" font-size="12.6" lengthAdjust="spacing" textLength="119.7" x="510.75" y="842.0019">+toString() : String</text></g><!--class Photo--><g id="elem_Photo"><rect codeLine="17" fill="#F1F1F1" height="72.5344" id="Photo" rx="2.25" ry="2.25" style="stroke:#181818;stroke-width:0.45;" width="97.2" x="667.8" y="772.2"/><ellipse cx="695.88" cy="786.6" fill="#ADD1B2" rx="9.9" ry="9.9" style="stroke:#181818;stroke-width:0.9;"/><path d="M695.4019,792.8297 Q693.8269,792.8297 692.8003,792.1688 Q691.7878,791.4938 691.2816,790.2844 Q690.7894,789.0609 690.7894,787.4438 Q690.7894,785.6156 691.38,784.3078 Q691.9706,783 693.1238,782.2969 Q694.2769,781.5938 695.9644,781.5938 Q696.7659,781.5938 697.3706,781.7625 Q697.9753,781.9172 698.5941,782.2266 L697.8628,784.0406 Q697.3003,783.7594 696.8081,783.6469 Q696.33,783.5344 695.8941,783.5344 Q694.8394,783.5344 694.2066,784.0125 Q693.5738,784.4906 693.3066,785.3484 Q693.0394,786.2063 693.0394,787.3453 Q693.0394,789.1594 693.6863,790.0313 Q694.3331,790.8891 695.7675,790.8891 Q696.3019,790.8891 696.8644,790.7484 Q697.4269,790.6078 698.1722,790.2703 L698.1722,792.2672 Q697.5113,792.5484 696.7941,792.6891 Q696.0909,792.8297 695.4019,792.8297 Z " fill="#000000"/><text fill="#000000" font-family="sans-serif" font-size="12.6" lengthAdjust="spacing" textLength="36" x="711.72" y="790.962">Photo</text><line style="stroke:#181818;stroke-width:0.45;" x1="668.7" x2="764.1" y1="801" y2="801"/><text fill="#000000" font-family="sans-serif" font-size="12.6" lengthAdjust="spacing" textLength="55.8" x="673.2" y="816.2956">-id: Long</text><text fill="#000000" font-family="sans-serif" font-size="12.6" lengthAdjust="spacing" textLength="86.4" x="673.2" y="830.9628">-photo: byte[]</text><line style="stroke:#181818;stroke-width:0.45;" x1="668.7" x2="764.1" y1="837.5344" y2="837.5344"/></g><!--class AuthorsController--><g id="elem_AuthorsController"><rect codeLine="22" fill="#F1F1F1" height="160.5375" id="AuthorsController" rx="2.25" ry="2.25" style="stroke:#181818;stroke-width:0.45;" width="797.4" x="171.9" y="6.3"/><ellipse cx="510.075" cy="20.7" fill="#ADD1B2" rx="9.9" ry="9.9" style="stroke:#181818;stroke-width:0.9;"/><path d="M509.5969,26.9297 Q508.0219,26.9297 506.9953,26.2688 Q505.9828,25.5938 505.4766,24.3844 Q504.9844,23.1609 504.9844,21.5438 Q504.9844,19.7156 505.575,18.4078 Q506.1656,17.1 507.3188,16.3969 Q508.4719,15.6938 510.1594,15.6938 Q510.9609,15.6938 511.5656,15.8625 Q512.1703,16.0172 512.7891,16.3266 L512.0578,18.1406 Q511.4953,17.8594 511.0031,17.7469 Q510.525,17.6344 510.0891,17.6344 Q509.0344,17.6344 508.4016,18.1125 Q507.7688,18.5906 507.5016,19.4484 Q507.2344,20.3063 507.2344,21.4453 Q507.2344,23.2594 507.8813,24.1313 Q508.5281,24.9891 509.9625,24.9891 Q510.4969,24.9891 511.0594,24.8484 Q511.6219,24.7078 512.3672,24.3703 L512.3672,26.3672 Q511.7063,26.6484 510.9891,26.7891 Q510.2859,26.9297 509.5969,26.9297 Z " fill="#000000"/><text fill="#000000" font-family="sans-serif" font-size="12.6" lengthAdjust="spacing" textLength="113.4" x="528.525" y="25.062">AuthorsController</text><line style="stroke:#181818;stroke-width:0.45;" x1="172.8" x2="968.4" y1="35.1" y2="35.1"/><line style="stroke:#181818;stroke-width:0.45;" x1="172.8" x2="968.4" y1="42.3" y2="42.3"/><text fill="#000000" font-family="sans-serif" font-size="12.6" lengthAdjust="spacing" textLength="461.7" x="177.3" y="57.5956">+create(CreateAuthorRequest resource): ResponseEntity&lt;AuthorView&gt;</text><text fill="#000000" font-family="sans-serif" font-size="12.6" lengthAdjust="spacing" textLength="786.6" x="177.3" y="72.2628">+partialUpdate(Long authorNumber, WebRequest request, UpdateAuthorRequest resource): ResponseEntity&lt;AuthorView&gt;</text><text fill="#000000" font-family="sans-serif" font-size="12.6" lengthAdjust="spacing" textLength="485.1" x="177.3" y="86.93">+findByAuthorNumber(Long authorNumber): ResponseEntity&lt;AuthorView&gt;</text><text fill="#000000" font-family="sans-serif" font-size="12.6" lengthAdjust="spacing" textLength="363.6" x="177.3" y="101.5972">+findByName(String name): ListResponse&lt;AuthorView&gt;</text><text fill="#000000" font-family="sans-serif" font-size="12.6" lengthAdjust="spacing" textLength="495" x="177.3" y="116.2644">+getBooksByAuthorNumber(Long authorNumber): ListResponse&lt;BookView&gt;</text><text fill="#000000" font-family="sans-serif" font-size="12.6" lengthAdjust="spacing" textLength="260.1" x="177.3" y="130.9315">+getTop5(): ListResponse&lt;AuthorView&gt;</text><text fill="#000000" font-family="sans-serif" font-size="12.6" lengthAdjust="spacing" textLength="263.7" x="177.3" y="145.5987">+getSpecificAuthorPhoto(authorNumber)</text><text fill="#000000" font-family="sans-serif" font-size="12.6" lengthAdjust="spacing" textLength="276.3" x="177.3" y="160.2659">+getAuthorWithCoAuthors (authorNumber)</text></g><!--class AuthorsServiceImpl--><g id="elem_AuthorsServiceImpl"><rect codeLine="33" fill="#F1F1F1" height="43.2" id="AuthorsServiceImpl" rx="2.25" ry="2.25" style="stroke:#181818;stroke-width:0.45;" width="153.9" x="493.65" y="493.2"/><ellipse cx="507.15" cy="507.6" fill="#ADD1B2" rx="9.9" ry="9.9" style="stroke:#181818;stroke-width:0.9;"/><path d="M506.6719,513.8297 Q505.0969,513.8297 504.0703,513.1688 Q503.0578,512.4938 502.5516,511.2844 Q502.0594,510.0609 502.0594,508.4438 Q502.0594,506.6156 502.65,505.3078 Q503.2406,504 504.3938,503.2969 Q505.5469,502.5938 507.2344,502.5938 Q508.0359,502.5938 508.6406,502.7625 Q509.2453,502.9172 509.8641,503.2266 L509.1328,505.0406 Q508.5703,504.7594 508.0781,504.6469 Q507.6,504.5344 507.1641,504.5344 Q506.1094,504.5344 505.4766,505.0125 Q504.8438,505.4906 504.5766,506.3484 Q504.3094,507.2063 504.3094,508.3453 Q504.3094,510.1594 504.9563,511.0313 Q505.6031,511.8891 507.0375,511.8891 Q507.5719,511.8891 508.1344,511.7484 Q508.6969,511.6078 509.4422,511.2703 L509.4422,513.2672 Q508.7813,513.5484 508.0641,513.6891 Q507.3609,513.8297 506.6719,513.8297 Z " fill="#000000"/><text fill="#000000" font-family="sans-serif" font-size="12.6" lengthAdjust="spacing" textLength="125.1" x="519.75" y="511.962">AuthorsServiceImpl</text><line style="stroke:#181818;stroke-width:0.45;" x1="494.55" x2="646.65" y1="522" y2="522"/><line style="stroke:#181818;stroke-width:0.45;" x1="494.55" x2="646.65" y1="529.2" y2="529.2"/></g><!--class AuthorsService--><g id="elem_AuthorsService"><rect codeLine="36" fill="#F1F1F1" height="160.5375" id="AuthorsService" rx="2.25" ry="2.25" style="stroke:#181818;stroke-width:0.45;" width="641.7" x="249.75" y="220.5"/><ellipse cx="518.175" cy="234.9" fill="#B4A7E5" rx="9.9" ry="9.9" style="stroke:#181818;stroke-width:0.9;"/><path d="M514.6031,240.75 L514.6031,239.2172 L516.7266,238.9781 L516.7266,231.5953 L514.6031,231.3563 L514.6031,229.8234 L521.0297,229.8234 L521.0297,231.3563 L518.85,231.5953 L518.85,238.9781 L521.0297,239.2172 L521.0297,240.75 L514.6031,240.75 Z " fill="#000000"/><text fill="#000000" font-family="sans-serif" font-size="12.6" font-style="italic" lengthAdjust="spacing" textLength="97.2" x="536.625" y="239.262">AuthorsService</text><line style="stroke:#181818;stroke-width:0.45;" x1="250.65" x2="890.55" y1="249.3" y2="249.3"/><line style="stroke:#181818;stroke-width:0.45;" x1="250.65" x2="890.55" y1="256.5" y2="256.5"/><text fill="#000000" font-family="sans-serif" font-size="12.6" lengthAdjust="spacing" textLength="182.7" x="255.15" y="271.7956">+Iterable&lt;Author&gt; findAll();</text><text fill="#000000" font-family="sans-serif" font-size="12.6" lengthAdjust="spacing" textLength="410.4" x="255.15" y="286.4628">+Optional&lt;Author&gt; findByAuthorNumber(Long authorNumber);</text><text fill="#000000" font-family="sans-serif" font-size="12.6" lengthAdjust="spacing" textLength="270.9" x="255.15" y="301.13">+List&lt;Author&gt; findByName(String name);</text><text fill="#000000" font-family="sans-serif" font-size="12.6" lengthAdjust="spacing" textLength="311.4" x="255.15" y="315.7972">+Author create(CreateAuthorRequest resource);</text><text fill="#000000" font-family="sans-serif" font-size="12.6" lengthAdjust="spacing" textLength="630.9" x="255.15" y="330.4644">+Author partialUpdate(Long authorNumber, UpdateAuthorRequest resource, long desiredVersion);</text><text fill="#000000" font-family="sans-serif" font-size="12.6" lengthAdjust="spacing" textLength="279.9" x="255.15" y="345.1315">+List&lt;Author&gt; findTopAuthorByLendings();</text><text fill="#000000" font-family="sans-serif" font-size="12.6" lengthAdjust="spacing" textLength="405.9" x="255.15" y="359.7987">+List&lt;Book&gt; findBooksByAuthorNumber(Long authorNumber);</text><text fill="#000000" font-family="sans-serif" font-size="12.6" lengthAdjust="spacing" textLength="444.6" x="255.15" y="374.4659">+List&lt;Author&gt; findCoAuthorsByAuthorNumber(Long authorNumber);</text></g><!--class AuthorsRepository--><g id="elem_AuthorsRepository"><rect codeLine="48" fill="#F1F1F1" height="160.5375" id="AuthorsRepository" rx="2.25" ry="2.25" style="stroke:#181818;stroke-width:0.45;" width="455.4" x="6.3" y="434.7"/><ellipse cx="171.225" cy="449.1" fill="#B4A7E5" rx="9.9" ry="9.9" style="stroke:#181818;stroke-width:0.9;"/><path d="M167.6531,454.95 L167.6531,453.4172 L169.7766,453.1781 L169.7766,445.7953 L167.6531,445.5563 L167.6531,444.0234 L174.0797,444.0234 L174.0797,445.5563 L171.9,445.7953 L171.9,453.1781 L174.0797,453.4172 L174.0797,454.95 L167.6531,454.95 Z " fill="#000000"/><text fill="#000000" font-family="sans-serif" font-size="12.6" font-style="italic" lengthAdjust="spacing" textLength="117.9" x="189.675" y="453.462">AuthorsRepository</text><line style="stroke:#181818;stroke-width:0.45;" x1="7.2" x2="460.8" y1="463.5" y2="463.5"/><line style="stroke:#181818;stroke-width:0.45;" x1="7.2" x2="460.8" y1="470.7" y2="470.7"/><text fill="#000000" font-family="sans-serif" font-size="12.6" lengthAdjust="spacing" textLength="283.5" x="11.7" y="485.9956">+findByAuthorNumber(Long authorNumber)</text><text fill="#000000" font-family="sans-serif" font-size="12.6" lengthAdjust="spacing" textLength="393.3" x="11.7" y="500.6628">+List&lt;Author&gt; searchByNameNameStartsWith(String name);</text><text fill="#000000" font-family="sans-serif" font-size="12.6" lengthAdjust="spacing" textLength="236.7" x="11.7" y="515.33">+searchByNameName (String name)</text><text fill="#000000" font-family="sans-serif" font-size="12.6" lengthAdjust="spacing" textLength="138.6" x="11.7" y="529.9972">+save(Author author)</text><text fill="#000000" font-family="sans-serif" font-size="12.6" lengthAdjust="spacing" textLength="60.3" x="11.7" y="544.6644">+findAll()</text><text fill="#000000" font-family="sans-serif" font-size="12.6" lengthAdjust="spacing" textLength="347.4" x="11.7" y="559.3315">+findTopAuthorByLendings (Pageable pageableRules)</text><text fill="#000000" font-family="sans-serif" font-size="12.6" lengthAdjust="spacing" textLength="153.9" x="11.7" y="573.9987">+delete(Author author);</text><text fill="#000000" font-family="sans-serif" font-size="12.6" lengthAdjust="spacing" textLength="444.6" x="11.7" y="588.6659">+List&lt;Author&gt; findCoAuthorsByAuthorNumber(Long authorNumber);</text></g><!--reverse link AuthorsService to AuthorsServiceImpl--><g id="link_AuthorsService_AuthorsServiceImpl"><path d="M570.6,397.089 C570.6,437.391 570.6,467.001 570.6,492.975 " fill="none" id="AuthorsService-backto-AuthorsServiceImpl" style="stroke:#181818;stroke-width:0.9;stroke-dasharray:7.0,7.0;"/><polygon fill="none" points="570.6,380.889,565.2,397.089,576,397.089,570.6,380.889" style="stroke:#181818;stroke-width:0.9;"/></g><!--link AuthorsServiceImpl to Authors--><g id="link_AuthorsServiceImpl_Authors"><path codeLine="61" d="M570.6,536.616 C570.6,564.912 570.6,610.245 570.6,643.374 " fill="none" id="AuthorsServiceImpl-to-Authors" style="stroke:#181818;stroke-width:0.9;stroke-dasharray:7.0,7.0;"/><polygon fill="#181818" points="570.6,648.774,574.2,640.674,570.6,644.274,567,640.674,570.6,648.774" style="stroke:#181818;stroke-width:0.9;"/></g><!--link AuthorsController to AuthorsService--><g id="link_AuthorsController_AuthorsService"><path codeLine="62" d="M570.6,166.689 C570.6,184.248 570.6,197.451 570.6,215.001 " fill="none" id="AuthorsController-to-AuthorsService" style="stroke:#181818;stroke-width:0.9;stroke-dasharray:7.0,7.0;"/><polygon fill="#181818" points="570.6,220.401,574.2,212.301,570.6,215.901,567,212.301,570.6,220.401" style="stroke:#181818;stroke-width:0.9;"/></g><!--reverse link AuthorsRepository to AuthorsServiceImpl--><g id="link_AuthorsRepository_AuthorsServiceImpl"><path codeLine="63" d="M467.199,514.8 C477.684,514.8 482.76,514.8 493.245,514.8 " fill="none" id="AuthorsRepository-backto-AuthorsServiceImpl" style="stroke:#181818;stroke-width:0.9;stroke-dasharray:7.0,7.0;"/><polygon fill="#181818" points="461.799,514.8,469.899,518.4,466.299,514.8,469.899,511.2,461.799,514.8" style="stroke:#181818;stroke-width:0.9;"/></g><!--link Authors to Name--><g id="link_Authors_Name"><path codeLine="65" d="M528.885,714.87 C507.69,731.232 490.326,744.6368 467.979,761.8988 " fill="none" id="Authors-to-Name" style="stroke:#181818;stroke-width:0.9;"/><polygon fill="none" points="459.432,768.501,465.9062,768.0489,467.979,761.8988,461.5048,762.3509,459.432,768.501" style="stroke:#181818;stroke-width:0.9;"/></g><!--link Authors to Photo--><g id="link_Authors_Photo"><path codeLine="66" d="M608.148,714.87 C628.569,732.384 645.6722,747.0585 666.6782,765.0855 " fill="none" id="Authors-to-Photo" style="stroke:#181818;stroke-width:0.9;"/><polygon fill="none" points="674.874,772.119,673.1206,765.8704,666.6782,765.0855,668.4316,771.3342,674.874,772.119" style="stroke:#181818;stroke-width:0.9;"/></g><!--link Authors to AuthorBio--><g id="link_Authors_AuthorBio"><path codeLine="67" d="M570.6,714.87 C570.6,731.232 570.6,740.439 570.6,757.701 " fill="none" id="Authors-to-AuthorBio" style="stroke:#181818;stroke-width:0.9;"/><polygon fill="none" points="570.6,768.501,574.2,763.101,570.6,757.701,567,763.101,570.6,768.501" style="stroke:#181818;stroke-width:0.9;"/></g><!--SRC=[fLLDZzem4BtpA-RMe5sWbrwo20bG3qXekoBjxg7gmIG3MEl4gJsXegl-z_eZ0H92DwX8aE1vxyruvZdvi2FATJWQvO9bLAHY6Cjq50kczI3XRAjOsklfLvxbpDo22qo955yNX8jOPX7_ZV2nvm8mBMWdbORn63FYT9XCtdfWFWDWFl9Of6jK40BFgFUdP3so55iecLaEGPjSsTOjtG79oFqD-aR2tngLMl8PbqPhpqI19wd810XCw1Qzfvqa2PK4Jq9Oof8vWDm6GrWV2B__QDQWvp8Z9OKmM_LydovMo0Y3kRjuw0f_5gW956fPg1Zx8QnGvpBJ-DdrO-nnpnn_JSwap3Y8C_4jJwoYBQniiU_mFRpW-gJjhlVWqV-NUCEpP7QOdkMwp7wRbXr_u9llPcxOIwwfKhZ2tIBDf7pL7MgfgLbIYzPNcNyAEcUESepvXiSUu8mIr9BMuHxsmcatbzKHQU2R3efGxNcCYpGNmCqFfkPuDADlbcPE4geDYx4HB9rtjp1XjXRLRYQkwrCXWlw31tp9YSkCYHhWtRQMPDkl1l5YdYNKepeTWZhZNQ__ozVt82mXGSqL9i-ejDdirUgD3Sh7o669MMAse8CQsDgdt6WdzrrBT3H21uNMAQymbvgJL8TgqDtcLc9h1MbaAjxvoTblHARZslgrROuNSAYXAX3ROr0Eq1VGFolJ-U_iVqlV8NXYMxJEDGRmDwj2eAve2GgaPeg7jktTt6_Ry9PpE1nEgkxtBX_qPz6IrAeXS4Cdv6cAnumm64ZtIgmjk6TCRUNukliB]--></g></svg>