<?xml version="1.0" encoding="us-ascii" standalone="no"?><svg xmlns="http://www.w3.org/2000/svg" xmlns:xlink="http://www.w3.org/1999/xlink" contentStyleType="text/css" height="492.1px" preserveAspectRatio="none" style="width:885px;height:492px;background:#FFFFFF;" version="1.1" viewBox="0 0 885 492" width="885.5px" zoomAndPan="magnify"><defs/><g><text fill="#000000" font-family="sans-serif" font-size="9.8" font-weight="bold" lengthAdjust="spacing" textLength="300.3" x="291.9" y="21.0752">WP#5B.16 Get Lendings Per Month Per Genre Last 12 Months</text><rect fill="#FFFFFF" height="237.6445" style="stroke:#181818;stroke-width:0.6999999999999998;" width="7" x="150.5" y="184.0918"/><rect fill="#FFFFFF" height="157.526" style="stroke:#181818;stroke-width:0.6999999999999998;" width="7" x="344.4" y="205.9955"/><rect fill="#FFFFFF" height="69.9111" style="stroke:#181818;stroke-width:0.6999999999999998;" width="7" x="538.3" y="227.8992"/><rect fill="#FFFFFF" height="24.0037" style="stroke:#181818;stroke-width:0.6999999999999998;" width="7" x="732.2" y="251.9029"/><rect fill="#FFFFFF" height="21.9037" style="stroke:#181818;stroke-width:0.6999999999999998;" width="7" x="830.55" y="319.7141"/><line style="stroke:#181818;stroke-width:0.3499999999999999;stroke-dasharray:5.0,5.0;" x1="37.8" x2="37.8" y1="86.2695" y2="434.3363"/><line style="stroke:#181818;stroke-width:0.3499999999999999;stroke-dasharray:5.0,5.0;" x1="154" x2="154" y1="86.2695" y2="434.3363"/><line style="stroke:#181818;stroke-width:0.3499999999999999;stroke-dasharray:5.0,5.0;" x1="347.9" x2="347.9" y1="86.2695" y2="434.3363"/><line style="stroke:#181818;stroke-width:0.3499999999999999;stroke-dasharray:5.0,5.0;" x1="541.45" x2="541.45" y1="86.2695" y2="434.3363"/><line style="stroke:#181818;stroke-width:0.3499999999999999;stroke-dasharray:5.0,5.0;" x1="735.7" x2="735.7" y1="86.2695" y2="434.3363"/><line style="stroke:#181818;stroke-width:0.3499999999999999;stroke-dasharray:5.0,5.0;" x1="833.7" x2="833.7" y1="86.2695" y2="434.3363"/><text fill="#000000" font-family="sans-serif" font-size="9.8" lengthAdjust="spacing" textLength="39.2" x="16.1" y="83.81">Librarian</text><ellipse cx="37.8" cy="37.1848" fill="#E2E2F0" rx="5.6" ry="5.6" style="stroke:#181818;stroke-width:0.3499999999999999;"/><path d="M37.8,42.7848 L37.8,61.6848 M28.7,48.3848 L46.9,48.3848 M37.8,61.6848 L28.7,72.1848 M37.8,61.6848 L46.9,72.1848 " fill="none" style="stroke:#181818;stroke-width:0.3499999999999999;"/><text fill="#000000" font-family="sans-serif" font-size="9.8" lengthAdjust="spacing" textLength="39.2" x="16.1" y="444.2115">Librarian</text><ellipse cx="37.8" cy="452.6211" fill="#E2E2F0" rx="5.6" ry="5.6" style="stroke:#181818;stroke-width:0.3499999999999999;"/><path d="M37.8,458.2211 L37.8,477.1211 M28.7,463.8211 L46.9,463.8211 M37.8,477.1211 L28.7,487.6211 M37.8,477.1211 L46.9,487.6211 " fill="none" style="stroke:#181818;stroke-width:0.3499999999999999;"/><rect fill="#E2E2F0" height="22.8348" rx="1.75" ry="1.75" style="stroke:#181818;stroke-width:0.3499999999999999;" width="42" x="133" y="62.7348"/><text fill="#000000" font-family="sans-serif" font-size="9.8" lengthAdjust="spacing" textLength="32.2" x="137.9" y="78.21">System</text><rect fill="#E2E2F0" height="22.8348" rx="1.75" ry="1.75" style="stroke:#181818;stroke-width:0.3499999999999999;" width="42" x="133" y="433.6363"/><text fill="#000000" font-family="sans-serif" font-size="9.8" lengthAdjust="spacing" textLength="32.2" x="137.9" y="449.1115">System</text><rect fill="#E2E2F0" height="22.8348" rx="1.75" ry="1.75" style="stroke:#181818;stroke-width:0.3499999999999999;" width="84" x="305.9" y="62.7348"/><text fill="#000000" font-family="sans-serif" font-size="9.8" lengthAdjust="spacing" textLength="74.2" x="310.8" y="78.21">:GenreController</text><rect fill="#E2E2F0" height="22.8348" rx="1.75" ry="1.75" style="stroke:#181818;stroke-width:0.3499999999999999;" width="84" x="305.9" y="433.6363"/><text fill="#000000" font-family="sans-serif" font-size="9.8" lengthAdjust="spacing" textLength="74.2" x="310.8" y="449.1115">:GenreController</text><rect fill="#E2E2F0" height="22.8348" rx="1.75" ry="1.75" style="stroke:#181818;stroke-width:0.3499999999999999;" width="73.5" x="505.05" y="62.7348"/><text fill="#000000" font-family="sans-serif" font-size="9.8" lengthAdjust="spacing" textLength="63.7" x="509.95" y="78.21">:GenreService</text><rect fill="#E2E2F0" height="22.8348" rx="1.75" ry="1.75" style="stroke:#181818;stroke-width:0.3499999999999999;" width="73.5" x="505.05" y="433.6363"/><text fill="#000000" font-family="sans-serif" font-size="9.8" lengthAdjust="spacing" textLength="63.7" x="509.95" y="449.1115">:GenreService</text><rect fill="#E2E2F0" height="22.8348" rx="1.75" ry="1.75" style="stroke:#181818;stroke-width:0.3499999999999999;" width="88.2" x="691.6" y="62.7348"/><text fill="#000000" font-family="sans-serif" font-size="9.8" lengthAdjust="spacing" textLength="78.4" x="696.5" y="78.21">:GenreRepository</text><rect fill="#E2E2F0" height="22.8348" rx="1.75" ry="1.75" style="stroke:#181818;stroke-width:0.3499999999999999;" width="88.2" x="691.6" y="433.6363"/><text fill="#000000" font-family="sans-serif" font-size="9.8" lengthAdjust="spacing" textLength="78.4" x="696.5" y="449.1115">:GenreRepository</text><rect fill="#E2E2F0" height="22.8348" rx="1.75" ry="1.75" style="stroke:#181818;stroke-width:0.3499999999999999;" width="94.5" x="786.8" y="62.7348"/><text fill="#000000" font-family="sans-serif" font-size="9.8" lengthAdjust="spacing" textLength="84.7" x="791.7" y="78.21">:GenreViewMapper</text><rect fill="#E2E2F0" height="22.8348" rx="1.75" ry="1.75" style="stroke:#181818;stroke-width:0.3499999999999999;" width="94.5" x="786.8" y="433.6363"/><text fill="#000000" font-family="sans-serif" font-size="9.8" lengthAdjust="spacing" textLength="84.7" x="791.7" y="449.1115">:GenreViewMapper</text><rect fill="#FFFFFF" height="237.6445" style="stroke:#181818;stroke-width:0.6999999999999998;" width="7" x="150.5" y="184.0918"/><rect fill="#FFFFFF" height="157.526" style="stroke:#181818;stroke-width:0.6999999999999998;" width="7" x="344.4" y="205.9955"/><rect fill="#FFFFFF" height="69.9111" style="stroke:#181818;stroke-width:0.6999999999999998;" width="7" x="538.3" y="227.8992"/><rect fill="#FFFFFF" height="24.0037" style="stroke:#181818;stroke-width:0.6999999999999998;" width="7" x="732.2" y="251.9029"/><rect fill="#FFFFFF" height="21.9037" style="stroke:#181818;stroke-width:0.6999999999999998;" width="7" x="830.55" y="319.7141"/><path d="M3.5,96.7695 L3.5,127.5695 L72.8,127.5695 L72.8,103.7695 L65.8,96.7695 L3.5,96.7695 " fill="#FEFFDD" style="stroke:#181818;stroke-width:0.3499999999999999;"/><path d="M65.8,96.7695 L65.8,103.7695 L72.8,103.7695 L65.8,96.7695 " fill="#FEFFDD" style="stroke:#181818;stroke-width:0.3499999999999999;"/><text fill="#000000" font-family="sans-serif" font-size="9.1" lengthAdjust="spacing" textLength="44.1" x="7.7" y="110.0894">Librarian is</text><text fill="#000000" font-family="sans-serif" font-size="9.1" lengthAdjust="spacing" textLength="54.6" x="7.7" y="122.1931">authenticated</text><polygon fill="#181818" points="142.1,181.2918,149.1,184.0918,142.1,186.8918,144.9,184.0918" style="stroke:#181818;stroke-width:0.6999999999999998;"/><line style="stroke:#181818;stroke-width:0.6999999999999998;" x1="37.8" x2="146.3" y1="184.0918" y2="184.0918"/><text fill="#000000" font-family="sans-serif" font-size="9.1" font-weight="bold" lengthAdjust="spacing" textLength="4.9" x="42.7" y="162.2523">1</text><text fill="#000000" font-family="sans-serif" font-size="9.1" lengthAdjust="spacing" textLength="64.4" x="50.4" y="144.0968">get lendings per</text><text fill="#000000" font-family="sans-serif" font-size="9.1" lengthAdjust="spacing" textLength="73.5" x="50.4" y="156.2005">month for the past</text><text fill="#000000" font-family="sans-serif" font-size="9.1" lengthAdjust="spacing" textLength="67.9" x="50.4" y="168.3042">year, grouped by</text><text fill="#000000" font-family="sans-serif" font-size="9.1" lengthAdjust="spacing" textLength="67.9" x="50.4" y="180.4079">month and genre</text><polygon fill="#181818" points="336,203.1955,343,205.9955,336,208.7955,338.8,205.9955" style="stroke:#181818;stroke-width:0.6999999999999998;"/><line style="stroke:#181818;stroke-width:0.6999999999999998;" x1="157.5" x2="340.2" y1="205.9955" y2="205.9955"/><text fill="#000000" font-family="sans-serif" font-size="9.1" font-weight="bold" lengthAdjust="spacing" textLength="4.9" x="162.4" y="202.3116">2</text><text fill="#000000" font-family="sans-serif" font-size="9.1" lengthAdjust="spacing" textLength="165.9" x="170.1" y="202.3116">getLendingsPerMonthLastYearByGenre()</text><polygon fill="#181818" points="529.9,225.0992,536.9,227.8992,529.9,230.6992,532.7,227.8992" style="stroke:#181818;stroke-width:0.6999999999999998;"/><line style="stroke:#181818;stroke-width:0.6999999999999998;" x1="351.4" x2="534.1" y1="227.8992" y2="227.8992"/><text fill="#000000" font-family="sans-serif" font-size="9.1" font-weight="bold" lengthAdjust="spacing" textLength="4.9" x="356.3" y="224.2153">3</text><text fill="#000000" font-family="sans-serif" font-size="9.1" lengthAdjust="spacing" textLength="165.9" x="364" y="224.2153">getLendingsPerMonthLastYearByGenre()</text><polygon fill="#181818" points="723.8,249.1029,730.8,251.9029,723.8,254.7029,726.6,251.9029" style="stroke:#181818;stroke-width:0.6999999999999998;"/><line style="stroke:#181818;stroke-width:0.6999999999999998;" x1="545.3" x2="728" y1="251.9029" y2="251.9029"/><text fill="#000000" font-family="sans-serif" font-size="9.1" font-weight="bold" lengthAdjust="spacing" textLength="4.9" x="550.2" y="248.219">4</text><text fill="#000000" font-family="sans-serif" font-size="9.1" lengthAdjust="spacing" textLength="165.9" x="557.9" y="248.219">getLendingsPerMonthLastYearByGenre()</text><path d="M742.7,236.9992 L742.7,255.8992 L828.8,255.8992 L828.8,243.9992 L821.8,236.9992 L742.7,236.9992 " fill="#FEFFDD" style="stroke:#181818;stroke-width:0.3499999999999999;"/><path d="M821.8,236.9992 L821.8,243.9992 L828.8,243.9992 L821.8,236.9992 " fill="#FEFFDD" style="stroke:#181818;stroke-width:0.3499999999999999;"/><text fill="#000000" font-family="sans-serif" font-size="9.1" lengthAdjust="spacing" textLength="71.4" x="746.9" y="250.319">(Details ommited)</text><polygon fill="#181818" points="553,273.1066,546,275.9066,553,278.7066,550.2,275.9066" style="stroke:#181818;stroke-width:0.6999999999999998;"/><line style="stroke:#181818;stroke-width:0.6999999999999998;stroke-dasharray:2.0,2.0;" x1="548.8" x2="735" y1="275.9066" y2="275.9066"/><text fill="#000000" font-family="sans-serif" font-size="9.1" font-weight="bold" lengthAdjust="spacing" textLength="4.9" x="557.2" y="272.2228">5</text><text fill="#000000" font-family="sans-serif" font-size="9.1" lengthAdjust="spacing" textLength="125.3" x="564.9" y="272.2228">(genreAverageLendingsDtoList)</text><polygon fill="#181818" points="359.1,295.0104,352.1,297.8104,359.1,300.6104,356.3,297.8104" style="stroke:#181818;stroke-width:0.6999999999999998;"/><line style="stroke:#181818;stroke-width:0.6999999999999998;stroke-dasharray:2.0,2.0;" x1="354.9" x2="541.1" y1="297.8104" y2="297.8104"/><text fill="#000000" font-family="sans-serif" font-size="9.1" font-weight="bold" lengthAdjust="spacing" textLength="4.9" x="363.3" y="294.1265">6</text><text fill="#000000" font-family="sans-serif" font-size="9.1" lengthAdjust="spacing" textLength="125.3" x="371" y="294.1265">(genreAverageLendingsDtoList)</text><polygon fill="#181818" points="822.15,316.9141,829.15,319.7141,822.15,322.5141,824.95,319.7141" style="stroke:#181818;stroke-width:0.6999999999999998;"/><line style="stroke:#181818;stroke-width:0.6999999999999998;" x1="351.4" x2="826.35" y1="319.7141" y2="319.7141"/><text fill="#000000" font-family="sans-serif" font-size="9.1" font-weight="bold" lengthAdjust="spacing" textLength="4.9" x="356.3" y="316.0302">7</text><text fill="#000000" font-family="sans-serif" font-size="9.1" lengthAdjust="spacing" textLength="276.5" x="364" y="316.0302">toGenreLendingsCountPerMonthView(genreAverageLendingsDtoList)</text><polygon fill="#181818" points="359.1,338.8178,352.1,341.6178,359.1,344.4178,356.3,341.6178" style="stroke:#181818;stroke-width:0.6999999999999998;"/><line style="stroke:#181818;stroke-width:0.6999999999999998;stroke-dasharray:2.0,2.0;" x1="354.9" x2="833.35" y1="341.6178" y2="341.6178"/><text fill="#000000" font-family="sans-serif" font-size="9.1" font-weight="bold" lengthAdjust="spacing" textLength="4.9" x="363.3" y="337.9339">8</text><text fill="#000000" font-family="sans-serif" font-size="9.1" lengthAdjust="spacing" textLength="161.7" x="371" y="337.9339">(genreLendingsCountPerMonthViewList)</text><polygon fill="#181818" points="165.2,360.7215,158.2,363.5215,165.2,366.3215,162.4,363.5215" style="stroke:#181818;stroke-width:0.6999999999999998;"/><line style="stroke:#181818;stroke-width:0.6999999999999998;stroke-dasharray:2.0,2.0;" x1="161" x2="347.2" y1="363.5215" y2="363.5215"/><text fill="#000000" font-family="sans-serif" font-size="9.1" font-weight="bold" lengthAdjust="spacing" textLength="4.9" x="169.4" y="359.8376">9</text><text fill="#000000" font-family="sans-serif" font-size="9.1" lengthAdjust="spacing" textLength="161.7" x="177.1" y="359.8376">(genreLendingsCountPerMonthViewList)</text><polygon fill="#181818" points="45.5,418.9363,38.5,421.7363,45.5,424.5363,42.7,421.7363" style="stroke:#181818;stroke-width:0.6999999999999998;"/><line style="stroke:#181818;stroke-width:0.6999999999999998;stroke-dasharray:2.0,2.0;" x1="41.3" x2="153.3" y1="421.7363" y2="421.7363"/><text fill="#000000" font-family="sans-serif" font-size="9.1" font-weight="bold" lengthAdjust="spacing" textLength="9.8" x="49.7" y="399.8969">10</text><text fill="#000000" font-family="sans-serif" font-size="9.1" lengthAdjust="spacing" textLength="63" x="62.3" y="381.7413">(array of genres</text><text fill="#000000" font-family="sans-serif" font-size="9.1" lengthAdjust="spacing" textLength="66.5" x="62.3" y="393.845">and their lending</text><text fill="#000000" font-family="sans-serif" font-size="9.1" lengthAdjust="spacing" textLength="73.5" x="62.3" y="405.9487">averages, grouped</text><text fill="#000000" font-family="sans-serif" font-size="9.1" lengthAdjust="spacing" textLength="83.3" x="62.3" y="418.0524">by month and genre)</text><!--SRC=[ZLB1YXin3BtxAqHwQ0BDXYsqXpaKkbdOInQMBhGKSb5cj1F3ZEtQcfJv-yfsF9sswHAVPFlfINfwRu_CBbIRZUlGyD1tDxNjDu5-36HgMZSQMu-zme4jrgnFo0JMfBiP-WDvfLXpH_3jwSs7kvlRZ_1033ioZJPjW2Voy6WD7rFqGCOJx30mtBxFxq4fuRKU5ZjzyEWrcWLWWEcc77hMjNRI7YoUny3K9qGE__okKeMj47lRTUGJSCk-kmHx9d_IDMMo75-2VI5dWvOMnuIStYvXlshw-OZEdIldK2bZesedKM0Q2wfPhCFUYA97Ca8e2ZTA_VvSVpgFMa4hqdP5Mc7Ucpvf-oBwIJOuKNPlHaB_3bfl1qSD7CQ2GjC8WtIfCbzaZjeath8nMLFQIrpITo6w6zDWovMAqDHCbkhAh3Cw9axANPcQLFEwFR82ESjxOjHT0DltMZHQAM60258JCwpd3IxJj9z5TsofrBjdkzE1PvrDChoEB_FdfLR0DfKjkAqT39TXeWzUPyii_nJ_BzkyXvaZhiegwvQyoLQIYjxZ2FObco9QKFGK6sbVJ2PFkVqm-Mbl3YFyvQUL-WK0]--></g></svg>