<?xml version="1.0" encoding="us-ascii" standalone="no"?><svg xmlns="http://www.w3.org/2000/svg" xmlns:xlink="http://www.w3.org/1999/xlink" contentStyleType="text/css" height="589px" preserveAspectRatio="none" style="width:1240px;height:589px;background:#FFFFFF;" version="1.1" viewBox="0 0 1240 589" width="1240px" zoomAndPan="magnify"><defs/><g><text fill="#000000" font-family="sans-serif" font-size="14" font-weight="bold" lengthAdjust="spacing" textLength="157" x="540.5" y="30.1074">WP#4A.17 Get Lending</text><rect fill="#FFFFFF" height="259.6191" style="stroke:#181818;stroke-width:1.0;" width="10" x="195.5" y="228.4063"/><rect fill="#FFFFFF" height="168.1006" style="stroke:#181818;stroke-width:1.0;" width="10" x="369.5" y="271.3428"/><rect fill="#FFFFFF" height="93.873" style="stroke:#181818;stroke-width:1.0;" width="10" x="629.5" y="314.2793"/><rect fill="#FFFFFF" height="31.291" style="stroke:#181818;stroke-width:1.0;" width="10" x="889.5" y="345.5703"/><line style="stroke:#181818;stroke-width:0.5;stroke-dasharray:5.0,5.0;" x1="54" x2="54" y1="123.2422" y2="506.0254"/><line style="stroke:#181818;stroke-width:0.5;stroke-dasharray:5.0,5.0;" x1="200.5" x2="200.5" y1="123.2422" y2="506.0254"/><line style="stroke:#181818;stroke-width:0.5;stroke-dasharray:5.0,5.0;" x1="374" x2="374" y1="123.2422" y2="506.0254"/><line style="stroke:#181818;stroke-width:0.5;stroke-dasharray:5.0,5.0;" x1="634.5" x2="634.5" y1="123.2422" y2="506.0254"/><line style="stroke:#181818;stroke-width:0.5;stroke-dasharray:5.0,5.0;" x1="894" x2="894" y1="123.2422" y2="506.0254"/><line style="stroke:#181818;stroke-width:0.5;stroke-dasharray:5.0,5.0;" x1="1032" x2="1032" y1="123.2422" y2="506.0254"/><line style="stroke:#181818;stroke-width:0.5;stroke-dasharray:5.0,5.0;" x1="1167" x2="1167" y1="123.2422" y2="506.0254"/><text fill="#000000" font-family="sans-serif" font-size="14" lengthAdjust="spacing" textLength="29" x="37" y="119.7285">User</text><ellipse cx="54.5" cy="53.1211" fill="#E2E2F0" rx="8" ry="8" style="stroke:#181818;stroke-width:0.5;"/><path d="M54.5,61.1211 L54.5,88.1211 M41.5,69.1211 L67.5,69.1211 M54.5,88.1211 L41.5,103.1211 M54.5,88.1211 L67.5,103.1211 " fill="none" style="stroke:#181818;stroke-width:0.5;"/><text fill="#000000" font-family="sans-serif" font-size="14" lengthAdjust="spacing" textLength="29" x="37" y="520.1328">User</text><ellipse cx="54.5" cy="532.1465" fill="#E2E2F0" rx="8" ry="8" style="stroke:#181818;stroke-width:0.5;"/><path d="M54.5,540.1465 L54.5,567.1465 M41.5,548.1465 L67.5,548.1465 M54.5,567.1465 L41.5,582.1465 M54.5,567.1465 L67.5,582.1465 " fill="none" style="stroke:#181818;stroke-width:0.5;"/><rect fill="#E2E2F0" height="32.6211" rx="2.5" ry="2.5" style="stroke:#181818;stroke-width:0.5;" width="60" x="170.5" y="89.6211"/><text fill="#000000" font-family="sans-serif" font-size="14" lengthAdjust="spacing" textLength="46" x="177.5" y="111.7285">System</text><rect fill="#E2E2F0" height="32.6211" rx="2.5" ry="2.5" style="stroke:#181818;stroke-width:0.5;" width="60" x="170.5" y="505.0254"/><text fill="#000000" font-family="sans-serif" font-size="14" lengthAdjust="spacing" textLength="46" x="177.5" y="527.1328">System</text><rect fill="#E2E2F0" height="32.6211" rx="2.5" ry="2.5" style="stroke:#181818;stroke-width:0.5;" width="131" x="309" y="89.6211"/><text fill="#000000" font-family="sans-serif" font-size="14" lengthAdjust="spacing" textLength="117" x="316" y="111.7285">:LendingController</text><rect fill="#E2E2F0" height="32.6211" rx="2.5" ry="2.5" style="stroke:#181818;stroke-width:0.5;" width="131" x="309" y="505.0254"/><text fill="#000000" font-family="sans-serif" font-size="14" lengthAdjust="spacing" textLength="117" x="316" y="527.1328">:LendingController</text><rect fill="#E2E2F0" height="32.6211" rx="2.5" ry="2.5" style="stroke:#181818;stroke-width:0.5;" width="116" x="576.5" y="89.6211"/><text fill="#000000" font-family="sans-serif" font-size="14" lengthAdjust="spacing" textLength="102" x="583.5" y="111.7285">:LendingService</text><rect fill="#E2E2F0" height="32.6211" rx="2.5" ry="2.5" style="stroke:#181818;stroke-width:0.5;" width="116" x="576.5" y="505.0254"/><text fill="#000000" font-family="sans-serif" font-size="14" lengthAdjust="spacing" textLength="102" x="583.5" y="527.1328">:LendingService</text><rect fill="#E2E2F0" height="32.6211" rx="2.5" ry="2.5" style="stroke:#181818;stroke-width:0.5;" width="137" x="826" y="89.6211"/><text fill="#000000" font-family="sans-serif" font-size="14" lengthAdjust="spacing" textLength="123" x="833" y="111.7285">:LendingRepository</text><rect fill="#E2E2F0" height="32.6211" rx="2.5" ry="2.5" style="stroke:#181818;stroke-width:0.5;" width="137" x="826" y="505.0254"/><text fill="#000000" font-family="sans-serif" font-size="14" lengthAdjust="spacing" textLength="123" x="833" y="527.1328">:LendingRepository</text><rect fill="#E2E2F0" height="32.6211" rx="2.5" ry="2.5" style="stroke:#181818;stroke-width:0.5;" width="118" x="973" y="89.6211"/><text fill="#000000" font-family="sans-serif" font-size="14" lengthAdjust="spacing" textLength="104" x="980" y="111.7285">:BookRepository</text><rect fill="#E2E2F0" height="32.6211" rx="2.5" ry="2.5" style="stroke:#181818;stroke-width:0.5;" width="118" x="973" y="505.0254"/><text fill="#000000" font-family="sans-serif" font-size="14" lengthAdjust="spacing" textLength="104" x="980" y="527.1328">:BookRepository</text><rect fill="#E2E2F0" height="32.6211" rx="2.5" ry="2.5" style="stroke:#181818;stroke-width:0.5;" width="133" x="1101" y="89.6211"/><text fill="#000000" font-family="sans-serif" font-size="14" lengthAdjust="spacing" textLength="119" x="1108" y="111.7285">:ReaderRepository</text><rect fill="#E2E2F0" height="32.6211" rx="2.5" ry="2.5" style="stroke:#181818;stroke-width:0.5;" width="133" x="1101" y="505.0254"/><text fill="#000000" font-family="sans-serif" font-size="14" lengthAdjust="spacing" textLength="119" x="1108" y="527.1328">:ReaderRepository</text><rect fill="#FFFFFF" height="259.6191" style="stroke:#181818;stroke-width:1.0;" width="10" x="195.5" y="228.4063"/><rect fill="#FFFFFF" height="168.1006" style="stroke:#181818;stroke-width:1.0;" width="10" x="369.5" y="271.3428"/><rect fill="#FFFFFF" height="93.873" style="stroke:#181818;stroke-width:1.0;" width="10" x="629.5" y="314.2793"/><rect fill="#FFFFFF" height="31.291" style="stroke:#181818;stroke-width:1.0;" width="10" x="889.5" y="345.5703"/><path d="M5,138.2422 L5,182.2422 L104,182.2422 L104,148.2422 L94,138.2422 L5,138.2422 " fill="#FEFFDD" style="stroke:#181818;stroke-width:0.5;"/><path d="M94,138.2422 L94,148.2422 L104,148.2422 L94,138.2422 " fill="#FEFFDD" style="stroke:#181818;stroke-width:0.5;"/><text fill="#000000" font-family="sans-serif" font-size="13" lengthAdjust="spacing" textLength="41" x="11" y="157.2705">User is</text><text fill="#000000" font-family="sans-serif" font-size="13" lengthAdjust="spacing" textLength="78" x="11" y="174.5615">authenticated</text><polygon fill="#181818" points="183.5,224.4063,193.5,228.4063,183.5,232.4063,187.5,228.4063" style="stroke:#181818;stroke-width:1.0;"/><line style="stroke:#181818;stroke-width:1.0;" x1="54.5" x2="189.5" y1="228.4063" y2="228.4063"/><text fill="#000000" font-family="sans-serif" font-size="13" font-weight="bold" lengthAdjust="spacing" textLength="7" x="61.5" y="214.498">1</text><text fill="#000000" font-family="sans-serif" font-size="13" lengthAdjust="spacing" textLength="105" x="72.5" y="205.8525">request to see the</text><text fill="#000000" font-family="sans-serif" font-size="13" lengthAdjust="spacing" textLength="108" x="72.5" y="223.1436">details of a lending</text><polygon fill="#181818" points="357.5,267.3428,367.5,271.3428,357.5,275.3428,361.5,271.3428" style="stroke:#181818;stroke-width:1.0;"/><line style="stroke:#181818;stroke-width:1.0;" x1="205.5" x2="363.5" y1="271.3428" y2="271.3428"/><text fill="#000000" font-family="sans-serif" font-size="13" font-weight="bold" lengthAdjust="spacing" textLength="7" x="212.5" y="266.0801">2</text><text fill="#000000" font-family="sans-serif" font-size="13" lengthAdjust="spacing" textLength="134" x="223.5" y="266.0801">findByLendingNumber()</text><path d="M384,241.4063 L384,285.4063 L500,285.4063 L500,251.4063 L490,241.4063 L384,241.4063 " fill="#FEFFDD" style="stroke:#181818;stroke-width:0.5;"/><path d="M490,241.4063 L490,251.4063 L500,251.4063 L490,241.4063 " fill="#FEFFDD" style="stroke:#181818;stroke-width:0.5;"/><text fill="#000000" font-family="sans-serif" font-size="13" lengthAdjust="spacing" textLength="72" x="390" y="260.4346">Check if any</text><text fill="#000000" font-family="sans-serif" font-size="13" lengthAdjust="spacing" textLength="95" x="390" y="277.7256">user is logged in</text><polygon fill="#181818" points="617.5,310.2793,627.5,314.2793,617.5,318.2793,621.5,314.2793" style="stroke:#181818;stroke-width:1.0;"/><line style="stroke:#181818;stroke-width:1.0;" x1="379.5" x2="623.5" y1="314.2793" y2="314.2793"/><text fill="#000000" font-family="sans-serif" font-size="13" font-weight="bold" lengthAdjust="spacing" textLength="7" x="386.5" y="309.0166">3</text><text fill="#000000" font-family="sans-serif" font-size="13" lengthAdjust="spacing" textLength="220" x="397.5" y="309.0166">findByLendingNumber(lendingNumber)</text><polygon fill="#181818" points="877.5,341.5703,887.5,345.5703,877.5,349.5703,881.5,345.5703" style="stroke:#181818;stroke-width:1.0;"/><line style="stroke:#181818;stroke-width:1.0;" x1="639.5" x2="883.5" y1="345.5703" y2="345.5703"/><text fill="#000000" font-family="sans-serif" font-size="13" font-weight="bold" lengthAdjust="spacing" textLength="7" x="646.5" y="340.3076">4</text><text fill="#000000" font-family="sans-serif" font-size="13" lengthAdjust="spacing" textLength="220" x="657.5" y="340.3076">findByLendingNumber(lendingNumber)</text><polygon fill="#181818" points="650.5,372.8613,640.5,376.8613,650.5,380.8613,646.5,376.8613" style="stroke:#181818;stroke-width:1.0;"/><line style="stroke:#181818;stroke-width:1.0;stroke-dasharray:2.0,2.0;" x1="644.5" x2="893.5" y1="376.8613" y2="376.8613"/><text fill="#000000" font-family="sans-serif" font-size="13" font-weight="bold" lengthAdjust="spacing" textLength="7" x="656.5" y="371.5986">5</text><text fill="#000000" font-family="sans-serif" font-size="13" lengthAdjust="spacing" textLength="49" x="667.5" y="371.5986">(lending)</text><polygon fill="#181818" points="390.5,404.1523,380.5,408.1523,390.5,412.1523,386.5,408.1523" style="stroke:#181818;stroke-width:1.0;"/><line style="stroke:#181818;stroke-width:1.0;stroke-dasharray:2.0,2.0;" x1="384.5" x2="633.5" y1="408.1523" y2="408.1523"/><text fill="#000000" font-family="sans-serif" font-size="13" font-weight="bold" lengthAdjust="spacing" textLength="7" x="396.5" y="402.8896">6</text><text fill="#000000" font-family="sans-serif" font-size="13" lengthAdjust="spacing" textLength="49" x="407.5" y="402.8896">(lending)</text><polygon fill="#181818" points="216.5,435.4434,206.5,439.4434,216.5,443.4434,212.5,439.4434" style="stroke:#181818;stroke-width:1.0;"/><line style="stroke:#181818;stroke-width:1.0;stroke-dasharray:2.0,2.0;" x1="210.5" x2="373.5" y1="439.4434" y2="439.4434"/><text fill="#000000" font-family="sans-serif" font-size="13" font-weight="bold" lengthAdjust="spacing" textLength="7" x="222.5" y="434.1807">7</text><text fill="#000000" font-family="sans-serif" font-size="13" lengthAdjust="spacing" textLength="77" x="233.5" y="434.1807">(lendingView)</text><polygon fill="#181818" points="65.5,484.0254,55.5,488.0254,65.5,492.0254,61.5,488.0254" style="stroke:#181818;stroke-width:1.0;"/><line style="stroke:#181818;stroke-width:1.0;stroke-dasharray:2.0,2.0;" x1="59.5" x2="199.5" y1="488.0254" y2="488.0254"/><text fill="#000000" font-family="sans-serif" font-size="13" font-weight="bold" lengthAdjust="spacing" textLength="7" x="71.5" y="474.1172">8</text><text fill="#000000" font-family="sans-serif" font-size="13" lengthAdjust="spacing" textLength="89" x="82.5" y="465.4717">details of newly</text><text fill="#000000" font-family="sans-serif" font-size="13" lengthAdjust="spacing" textLength="102" x="86.5" y="482.7627">registered lending</text><!--SRC=[ZP4_JyCm4CLtVufJ6Q13Mo4X8ML0eXrO44AjWAMBIQx9gOuTx4khV7li_6cJa84iiS_llJl_V9in5ovQhGebDPUvMiOcNpdyAL77k4X8fbRcGfPiPCnqaenWTBtNPVwDLWWcLWXVxpSFpylxHtX1XbVK2UbK2Eyn5cOV3kqCf8Em48MqJ34LlY7CTfLZpEl3PZayZjgeZT5iZL9jpeQjcXRkq9uenberB4thjrWOHtxAgcy9rP5-RSnn9EvA8-KMPO9sfBqMXT0cK3oXhNb0rFp8xRNdcg7sMPvp8aHTNporP2AmuLqS0njmYE2rUvqWIr8Ep04ag0vyumZUW2g20-baNRMtUwjVxcxUJc8fpLY0_pOPnaSWdwIhkb0sWu4oQOe9a1O-0O9BY10S6WmfJxTI_TrS32szaC3dNmcYPu35n1ITuM-p2vEhfBbA3tHtz4budbzWUa5uaGXwp3MULRNN_cbIyYhhARNUNm00]--></g></svg>