<?xml version="1.0" encoding="us-ascii" standalone="no"?><svg xmlns="http://www.w3.org/2000/svg" xmlns:xlink="http://www.w3.org/1999/xlink" contentStyleType="text/css" height="481px" preserveAspectRatio="none" style="width:908px;height:481px;background:#FFFFFF;" version="1.1" viewBox="0 0 908 481" width="908px" zoomAndPan="magnify"><defs/><g><text fill="#000000" font-family="sans-serif" font-size="14" font-weight="bold" lengthAdjust="spacing" textLength="217" x="344.75" y="29.9659">Get books by genre as librarian</text><rect fill="#FFFFFF" height="254.6481" style="stroke:#181818;stroke-width:1.0;" width="10" x="33.5" y="134.1358"/><rect fill="#FFFFFF" height="221.9421" style="stroke:#181818;stroke-width:1.0;" width="10" x="229.5" y="157.8419"/><rect fill="#FFFFFF" height="158.5301" style="stroke:#181818;stroke-width:1.0;" width="10" x="459.5" y="189.5479"/><rect fill="#FFFFFF" height="95.118" style="stroke:#181818;stroke-width:1.0;" width="10" x="640.5" y="221.2539"/><rect fill="#FFFFFF" height="31.706" style="stroke:#181818;stroke-width:1.0;" width="10" x="821.5" y="252.9599"/><line style="stroke:#181818;stroke-width:0.5;stroke-dasharray:5.0,5.0;" x1="38" x2="38" y1="124.1358" y2="397.784"/><line style="stroke:#181818;stroke-width:0.5;stroke-dasharray:5.0,5.0;" x1="234" x2="234" y1="124.1358" y2="397.784"/><line style="stroke:#181818;stroke-width:0.5;stroke-dasharray:5.0,5.0;" x1="464" x2="464" y1="124.1358" y2="397.784"/><line style="stroke:#181818;stroke-width:0.5;stroke-dasharray:5.0,5.0;" x1="645" x2="645" y1="124.1358" y2="397.784"/><line style="stroke:#181818;stroke-width:0.5;stroke-dasharray:5.0,5.0;" x1="826.5" x2="826.5" y1="124.1358" y2="397.784"/><text fill="#000000" font-family="sans-serif" font-size="14" lengthAdjust="spacing" textLength="61" x="5" y="120.0339">Librarian</text><ellipse cx="38.5" cy="53.5679" fill="#E2E2F0" rx="8" ry="8" style="stroke:#181818;stroke-width:0.5;"/><path d="M38.5,61.5679 L38.5,88.5679 M25.5,69.5679 L51.5,69.5679 M38.5,88.5679 L25.5,103.5679 M38.5,88.5679 L51.5,103.5679 " fill="none" style="stroke:#181818;stroke-width:0.5;"/><text fill="#000000" font-family="sans-serif" font-size="14" lengthAdjust="spacing" textLength="61" x="5" y="411.7499">Librarian</text><ellipse cx="38.5" cy="424.3519" fill="#E2E2F0" rx="8" ry="8" style="stroke:#181818;stroke-width:0.5;"/><path d="M38.5,432.3519 L38.5,459.3519 M25.5,440.3519 L51.5,440.3519 M38.5,459.3519 L25.5,474.3519 M38.5,459.3519 L51.5,474.3519 " fill="none" style="stroke:#181818;stroke-width:0.5;"/><rect fill="#E2E2F0" height="33.0679" rx="2.5" ry="2.5" style="stroke:#181818;stroke-width:0.5;" width="47" x="211" y="90.0679"/><text fill="#000000" font-family="sans-serif" font-size="14" lengthAdjust="spacing" textLength="33" x="218" y="112.0339">:Rest</text><rect fill="#E2E2F0" height="33.0679" rx="2.5" ry="2.5" style="stroke:#181818;stroke-width:0.5;" width="47" x="211" y="396.784"/><text fill="#000000" font-family="sans-serif" font-size="14" lengthAdjust="spacing" textLength="33" x="218" y="418.7499">:Rest</text><rect fill="#E2E2F0" height="33.0679" rx="2.5" ry="2.5" style="stroke:#181818;stroke-width:0.5;" width="141" x="394" y="90.0679"/><text fill="#000000" font-family="sans-serif" font-size="14" lengthAdjust="spacing" textLength="127" x="401" y="112.0339">Ctrl:BookController</text><rect fill="#E2E2F0" height="33.0679" rx="2.5" ry="2.5" style="stroke:#181818;stroke-width:0.5;" width="141" x="394" y="396.784"/><text fill="#000000" font-family="sans-serif" font-size="14" lengthAdjust="spacing" textLength="127" x="401" y="418.7499">Ctrl:BookController</text><rect fill="#E2E2F0" height="33.0679" rx="2.5" ry="2.5" style="stroke:#181818;stroke-width:0.5;" width="145" x="573" y="90.0679"/><text fill="#000000" font-family="sans-serif" font-size="14" lengthAdjust="spacing" textLength="131" x="580" y="112.0339">service:BookService</text><rect fill="#E2E2F0" height="33.0679" rx="2.5" ry="2.5" style="stroke:#181818;stroke-width:0.5;" width="145" x="573" y="396.784"/><text fill="#000000" font-family="sans-serif" font-size="14" lengthAdjust="spacing" textLength="131" x="580" y="418.7499">service:BookService</text><rect fill="#E2E2F0" height="33.0679" rx="2.5" ry="2.5" style="stroke:#181818;stroke-width:0.5;" width="152" x="750.5" y="90.0679"/><text fill="#000000" font-family="sans-serif" font-size="14" lengthAdjust="spacing" textLength="138" x="757.5" y="112.0339">repo:BookRepository</text><rect fill="#E2E2F0" height="33.0679" rx="2.5" ry="2.5" style="stroke:#181818;stroke-width:0.5;" width="152" x="750.5" y="396.784"/><text fill="#000000" font-family="sans-serif" font-size="14" lengthAdjust="spacing" textLength="138" x="757.5" y="418.7499">repo:BookRepository</text><rect fill="#FFFFFF" height="254.6481" style="stroke:#181818;stroke-width:1.0;" width="10" x="33.5" y="134.1358"/><rect fill="#FFFFFF" height="221.9421" style="stroke:#181818;stroke-width:1.0;" width="10" x="229.5" y="157.8419"/><rect fill="#FFFFFF" height="158.5301" style="stroke:#181818;stroke-width:1.0;" width="10" x="459.5" y="189.5479"/><rect fill="#FFFFFF" height="95.118" style="stroke:#181818;stroke-width:1.0;" width="10" x="640.5" y="221.2539"/><rect fill="#FFFFFF" height="31.706" style="stroke:#181818;stroke-width:1.0;" width="10" x="821.5" y="252.9599"/><polygon fill="#181818" points="217.5,153.8419,227.5,157.8419,217.5,161.8419,221.5,157.8419" style="stroke:#181818;stroke-width:1.0;"/><line style="stroke:#181818;stroke-width:1.0;" x1="43.5" x2="223.5" y1="157.8419" y2="157.8419"/><text fill="#000000" font-family="sans-serif" font-size="13" font-weight="bold" lengthAdjust="spacing" textLength="7" x="50.5" y="152.0328">1</text><text fill="#000000" font-family="sans-serif" font-size="13" lengthAdjust="spacing" textLength="151" x="61.5" y="152.0328">requests the books detail</text><polygon fill="#181818" points="447.5,185.5479,457.5,189.5479,447.5,193.5479,451.5,189.5479" style="stroke:#181818;stroke-width:1.0;"/><line style="stroke:#181818;stroke-width:1.0;" x1="239.5" x2="453.5" y1="189.5479" y2="189.5479"/><text fill="#000000" font-family="sans-serif" font-size="13" font-weight="bold" lengthAdjust="spacing" textLength="7" x="246.5" y="183.7389">2</text><text fill="#000000" font-family="sans-serif" font-size="13" lengthAdjust="spacing" textLength="190" x="257.5" y="183.7389">getBookByGenre(requestBody);</text><polygon fill="#181818" points="628.5,217.2539,638.5,221.2539,628.5,225.2539,632.5,221.2539" style="stroke:#181818;stroke-width:1.0;"/><line style="stroke:#181818;stroke-width:1.0;" x1="469.5" x2="634.5" y1="221.2539" y2="221.2539"/><text fill="#000000" font-family="sans-serif" font-size="13" font-weight="bold" lengthAdjust="spacing" textLength="7" x="476.5" y="215.4449">3</text><text fill="#000000" font-family="sans-serif" font-size="13" lengthAdjust="spacing" textLength="141" x="487.5" y="215.4449">getBookByGenre(Book)</text><polygon fill="#181818" points="809.5,248.9599,819.5,252.9599,809.5,256.9599,813.5,252.9599" style="stroke:#181818;stroke-width:1.0;"/><line style="stroke:#181818;stroke-width:1.0;" x1="650.5" x2="815.5" y1="252.9599" y2="252.9599"/><text fill="#000000" font-family="sans-serif" font-size="13" font-weight="bold" lengthAdjust="spacing" textLength="7" x="657.5" y="247.1509">4</text><text fill="#000000" font-family="sans-serif" font-size="13" lengthAdjust="spacing" textLength="141" x="668.5" y="247.1509">getBookByGenre(book)</text><polygon fill="#181818" points="661.5,280.6659,651.5,284.6659,661.5,288.6659,657.5,284.6659" style="stroke:#181818;stroke-width:1.0;"/><line style="stroke:#181818;stroke-width:1.0;stroke-dasharray:2.0,2.0;" x1="655.5" x2="825.5" y1="284.6659" y2="284.6659"/><text fill="#000000" font-family="sans-serif" font-size="13" font-weight="bold" lengthAdjust="spacing" textLength="7" x="667.5" y="278.8569">5</text><text fill="#000000" font-family="sans-serif" font-size="13" lengthAdjust="spacing" textLength="80" x="678.5" y="278.8569">book or error</text><polygon fill="#181818" points="480.5,312.3719,470.5,316.3719,480.5,320.3719,476.5,316.3719" style="stroke:#181818;stroke-width:1.0;"/><line style="stroke:#181818;stroke-width:1.0;stroke-dasharray:2.0,2.0;" x1="474.5" x2="644.5" y1="316.3719" y2="316.3719"/><text fill="#000000" font-family="sans-serif" font-size="13" font-weight="bold" lengthAdjust="spacing" textLength="7" x="486.5" y="310.5629">6</text><text fill="#000000" font-family="sans-serif" font-size="13" lengthAdjust="spacing" textLength="80" x="497.5" y="310.5629">book or error</text><polygon fill="#181818" points="250.5,344.0779,240.5,348.0779,250.5,352.0779,246.5,348.0779" style="stroke:#181818;stroke-width:1.0;"/><line style="stroke:#181818;stroke-width:1.0;stroke-dasharray:2.0,2.0;" x1="244.5" x2="463.5" y1="348.0779" y2="348.0779"/><text fill="#000000" font-family="sans-serif" font-size="13" font-weight="bold" lengthAdjust="spacing" textLength="7" x="256.5" y="342.2689">7</text><text fill="#000000" font-family="sans-serif" font-size="13" lengthAdjust="spacing" textLength="80" x="267.5" y="342.2689">book or error</text><polygon fill="#181818" points="54.5,375.784,44.5,379.784,54.5,383.784,50.5,379.784" style="stroke:#181818;stroke-width:1.0;"/><line style="stroke:#181818;stroke-width:1.0;stroke-dasharray:2.0,2.0;" x1="48.5" x2="233.5" y1="379.784" y2="379.784"/><text fill="#000000" font-family="sans-serif" font-size="13" font-weight="bold" lengthAdjust="spacing" textLength="7" x="60.5" y="373.975">8</text><text fill="#000000" font-family="sans-serif" font-size="13" lengthAdjust="spacing" textLength="151" x="71.5" y="373.975">get books details or error</text><!--SRC=[PP0nRiCm34LtdOB8qcPmlRj01sV8aYb53o3RH29KbbIA3k3RLvJLf6eNWzP_eXxvT6KEiMlROBNZPROlev_RY5yBkX6RoUWBwLdfXRqUsTmq8tYN_zqo3qXAiM6BS4I6mVlF2CCA5tI4e2DOCv0cevrIwReds9r-JdQIVyJK8MXYCvgG163NdJ5opgIeimEJxVhqoC4x9cyjKYRbl2PJsviPCSFlMvt9KjSmOV2PFASYcgIv5e7Wi_SsTdPLyeNcBTjrGBAeo17uYcNy2LaRgvG00cRfj16M5_hrAAjvBlTwFwtxLwM44RRe_SEbtgkIRgydvR_Ka2c9eFdTJCuXxHw9F3swtDtgV7EvJrY7sr0fb3LaWMhg-22_0G00]--></g></svg>