<?xml version="1.0" encoding="us-ascii" standalone="no"?><svg xmlns="http://www.w3.org/2000/svg" xmlns:xlink="http://www.w3.org/1999/xlink" contentStyleType="text/css" height="593px" preserveAspectRatio="none" style="width:939px;height:593px;background:#FFFFFF;" version="1.1" viewBox="0 0 939 593" width="939px" zoomAndPan="magnify"><defs/><g><text fill="#000000" font-family="sans-serif" font-size="14" font-weight="bold" lengthAdjust="spacing" textLength="285" x="326.25" y="30.1074">WP#4B.15 Get Average Lending Duration</text><rect fill="#FFFFFF" height="281.6191" style="stroke:#181818;stroke-width:1.0;" width="10" x="245" y="211.1152"/><rect fill="#FFFFFF" height="219.0371" style="stroke:#181818;stroke-width:1.0;" width="10" x="384" y="242.4063"/><rect fill="#FFFFFF" height="93.873" style="stroke:#181818;stroke-width:1.0;" width="10" x="544" y="273.6973"/><rect fill="#FFFFFF" height="31.291" style="stroke:#181818;stroke-width:1.0;" width="10" x="704" y="304.9883"/><rect fill="#FFFFFF" height="31.291" style="stroke:#181818;stroke-width:1.0;" width="10" x="855.5" y="398.8613"/><line style="stroke:#181818;stroke-width:0.5;stroke-dasharray:5.0,5.0;" x1="54" x2="54" y1="123.2422" y2="510.7344"/><line style="stroke:#181818;stroke-width:0.5;stroke-dasharray:5.0,5.0;" x1="250" x2="250" y1="123.2422" y2="510.7344"/><line style="stroke:#181818;stroke-width:0.5;stroke-dasharray:5.0,5.0;" x1="388.5" x2="388.5" y1="123.2422" y2="510.7344"/><line style="stroke:#181818;stroke-width:0.5;stroke-dasharray:5.0,5.0;" x1="549" x2="549" y1="123.2422" y2="510.7344"/><line style="stroke:#181818;stroke-width:0.5;stroke-dasharray:5.0,5.0;" x1="708.5" x2="708.5" y1="123.2422" y2="510.7344"/><line style="stroke:#181818;stroke-width:0.5;stroke-dasharray:5.0,5.0;" x1="860.5" x2="860.5" y1="123.2422" y2="510.7344"/><text fill="#000000" font-family="sans-serif" font-size="14" lengthAdjust="spacing" textLength="56" x="23" y="119.7285">Librarian</text><ellipse cx="54" cy="53.1211" fill="#E2E2F0" rx="8" ry="8" style="stroke:#181818;stroke-width:0.5;"/><path d="M54,61.1211 L54,88.1211 M41,69.1211 L67,69.1211 M54,88.1211 L41,103.1211 M54,88.1211 L67,103.1211 " fill="none" style="stroke:#181818;stroke-width:0.5;"/><text fill="#000000" font-family="sans-serif" font-size="14" lengthAdjust="spacing" textLength="56" x="23" y="524.8418">Librarian</text><ellipse cx="54" cy="536.8555" fill="#E2E2F0" rx="8" ry="8" style="stroke:#181818;stroke-width:0.5;"/><path d="M54,544.8555 L54,571.8555 M41,552.8555 L67,552.8555 M54,571.8555 L41,586.8555 M54,571.8555 L67,586.8555 " fill="none" style="stroke:#181818;stroke-width:0.5;"/><rect fill="#E2E2F0" height="32.6211" rx="2.5" ry="2.5" style="stroke:#181818;stroke-width:0.5;" width="60" x="220" y="89.6211"/><text fill="#000000" font-family="sans-serif" font-size="14" lengthAdjust="spacing" textLength="46" x="227" y="111.7285">System</text><rect fill="#E2E2F0" height="32.6211" rx="2.5" ry="2.5" style="stroke:#181818;stroke-width:0.5;" width="60" x="220" y="509.7344"/><text fill="#000000" font-family="sans-serif" font-size="14" lengthAdjust="spacing" textLength="46" x="227" y="531.8418">System</text><rect fill="#E2E2F0" height="32.6211" rx="2.5" ry="2.5" style="stroke:#181818;stroke-width:0.5;" width="131" x="323.5" y="89.6211"/><text fill="#000000" font-family="sans-serif" font-size="14" lengthAdjust="spacing" textLength="117" x="330.5" y="111.7285">:LendingController</text><rect fill="#E2E2F0" height="32.6211" rx="2.5" ry="2.5" style="stroke:#181818;stroke-width:0.5;" width="131" x="323.5" y="509.7344"/><text fill="#000000" font-family="sans-serif" font-size="14" lengthAdjust="spacing" textLength="117" x="330.5" y="531.8418">:LendingController</text><rect fill="#E2E2F0" height="32.6211" rx="2.5" ry="2.5" style="stroke:#181818;stroke-width:0.5;" width="116" x="491" y="89.6211"/><text fill="#000000" font-family="sans-serif" font-size="14" lengthAdjust="spacing" textLength="102" x="498" y="111.7285">:LendingService</text><rect fill="#E2E2F0" height="32.6211" rx="2.5" ry="2.5" style="stroke:#181818;stroke-width:0.5;" width="116" x="491" y="509.7344"/><text fill="#000000" font-family="sans-serif" font-size="14" lengthAdjust="spacing" textLength="102" x="498" y="531.8418">:LendingService</text><rect fill="#E2E2F0" height="32.6211" rx="2.5" ry="2.5" style="stroke:#181818;stroke-width:0.5;" width="137" x="640.5" y="89.6211"/><text fill="#000000" font-family="sans-serif" font-size="14" lengthAdjust="spacing" textLength="123" x="647.5" y="111.7285">:LendingRepository</text><rect fill="#E2E2F0" height="32.6211" rx="2.5" ry="2.5" style="stroke:#181818;stroke-width:0.5;" width="137" x="640.5" y="509.7344"/><text fill="#000000" font-family="sans-serif" font-size="14" lengthAdjust="spacing" textLength="123" x="647.5" y="531.8418">:LendingRepository</text><rect fill="#E2E2F0" height="32.6211" rx="2.5" ry="2.5" style="stroke:#181818;stroke-width:0.5;" width="146" x="787.5" y="89.6211"/><text fill="#000000" font-family="sans-serif" font-size="14" lengthAdjust="spacing" textLength="132" x="794.5" y="111.7285">:LendingViewMapper</text><rect fill="#E2E2F0" height="32.6211" rx="2.5" ry="2.5" style="stroke:#181818;stroke-width:0.5;" width="146" x="787.5" y="509.7344"/><text fill="#000000" font-family="sans-serif" font-size="14" lengthAdjust="spacing" textLength="132" x="794.5" y="531.8418">:LendingViewMapper</text><rect fill="#FFFFFF" height="281.6191" style="stroke:#181818;stroke-width:1.0;" width="10" x="245" y="211.1152"/><rect fill="#FFFFFF" height="219.0371" style="stroke:#181818;stroke-width:1.0;" width="10" x="384" y="242.4063"/><rect fill="#FFFFFF" height="93.873" style="stroke:#181818;stroke-width:1.0;" width="10" x="544" y="273.6973"/><rect fill="#FFFFFF" height="31.291" style="stroke:#181818;stroke-width:1.0;" width="10" x="704" y="304.9883"/><rect fill="#FFFFFF" height="31.291" style="stroke:#181818;stroke-width:1.0;" width="10" x="855.5" y="398.8613"/><path d="M5,138.2422 L5,182.2422 L104,182.2422 L104,148.2422 L94,138.2422 L5,138.2422 " fill="#FEFFDD" style="stroke:#181818;stroke-width:0.5;"/><path d="M94,138.2422 L94,148.2422 L104,148.2422 L94,138.2422 " fill="#FEFFDD" style="stroke:#181818;stroke-width:0.5;"/><text fill="#000000" font-family="sans-serif" font-size="13" lengthAdjust="spacing" textLength="63" x="11" y="157.2705">Librarian is</text><text fill="#000000" font-family="sans-serif" font-size="13" lengthAdjust="spacing" textLength="78" x="11" y="174.5615">authenticated</text><polygon fill="#181818" points="233,207.1152,243,211.1152,233,215.1152,237,211.1152" style="stroke:#181818;stroke-width:1.0;"/><line style="stroke:#181818;stroke-width:1.0;" x1="54" x2="239" y1="211.1152" y2="211.1152"/><text fill="#000000" font-family="sans-serif" font-size="13" font-weight="bold" lengthAdjust="spacing" textLength="7" x="61" y="205.8525">1</text><text fill="#000000" font-family="sans-serif" font-size="13" lengthAdjust="spacing" textLength="161" x="72" y="205.8525">get average lending duration</text><polygon fill="#181818" points="372,238.4063,382,242.4063,372,246.4063,376,242.4063" style="stroke:#181818;stroke-width:1.0;"/><line style="stroke:#181818;stroke-width:1.0;" x1="255" x2="378" y1="242.4063" y2="242.4063"/><text fill="#000000" font-family="sans-serif" font-size="13" font-weight="bold" lengthAdjust="spacing" textLength="7" x="262" y="237.1436">2</text><text fill="#000000" font-family="sans-serif" font-size="13" lengthAdjust="spacing" textLength="99" x="273" y="237.1436">getAvgDuration();</text><polygon fill="#181818" points="532,269.6973,542,273.6973,532,277.6973,536,273.6973" style="stroke:#181818;stroke-width:1.0;"/><line style="stroke:#181818;stroke-width:1.0;" x1="394" x2="538" y1="273.6973" y2="273.6973"/><text fill="#000000" font-family="sans-serif" font-size="13" font-weight="bold" lengthAdjust="spacing" textLength="7" x="401" y="268.4346">3</text><text fill="#000000" font-family="sans-serif" font-size="13" lengthAdjust="spacing" textLength="120" x="412" y="268.4346">getAverageDuration()</text><polygon fill="#181818" points="692,300.9883,702,304.9883,692,308.9883,696,304.9883" style="stroke:#181818;stroke-width:1.0;"/><line style="stroke:#181818;stroke-width:1.0;" x1="554" x2="698" y1="304.9883" y2="304.9883"/><text fill="#000000" font-family="sans-serif" font-size="13" font-weight="bold" lengthAdjust="spacing" textLength="7" x="561" y="299.7256">4</text><text fill="#000000" font-family="sans-serif" font-size="13" lengthAdjust="spacing" textLength="120" x="572" y="299.7256">getAverageDuration()</text><polygon fill="#181818" points="565,332.2793,555,336.2793,565,340.2793,561,336.2793" style="stroke:#181818;stroke-width:1.0;"/><line style="stroke:#181818;stroke-width:1.0;stroke-dasharray:2.0,2.0;" x1="559" x2="708" y1="336.2793" y2="336.2793"/><text fill="#000000" font-family="sans-serif" font-size="13" font-weight="bold" lengthAdjust="spacing" textLength="7" x="571" y="331.0166">5</text><text fill="#000000" font-family="sans-serif" font-size="13" lengthAdjust="spacing" textLength="52" x="582" y="331.0166">(average)</text><polygon fill="#181818" points="405,363.5703,395,367.5703,405,371.5703,401,367.5703" style="stroke:#181818;stroke-width:1.0;"/><line style="stroke:#181818;stroke-width:1.0;stroke-dasharray:2.0,2.0;" x1="399" x2="548" y1="367.5703" y2="367.5703"/><text fill="#000000" font-family="sans-serif" font-size="13" font-weight="bold" lengthAdjust="spacing" textLength="7" x="411" y="362.3076">6</text><text fill="#000000" font-family="sans-serif" font-size="13" lengthAdjust="spacing" textLength="86" x="422" y="362.3076">(averageString)</text><polygon fill="#181818" points="843.5,394.8613,853.5,398.8613,843.5,402.8613,847.5,398.8613" style="stroke:#181818;stroke-width:1.0;"/><line style="stroke:#181818;stroke-width:1.0;" x1="394" x2="849.5" y1="398.8613" y2="398.8613"/><text fill="#000000" font-family="sans-serif" font-size="13" font-weight="bold" lengthAdjust="spacing" textLength="7" x="401" y="393.5986">7</text><text fill="#000000" font-family="sans-serif" font-size="13" lengthAdjust="spacing" textLength="289" x="412" y="393.5986">toLendingsAverageDurationView(overdueLendings)</text><polygon fill="#181818" points="405,426.1523,395,430.1523,405,434.1523,401,430.1523" style="stroke:#181818;stroke-width:1.0;"/><line style="stroke:#181818;stroke-width:1.0;stroke-dasharray:2.0,2.0;" x1="399" x2="859.5" y1="430.1523" y2="430.1523"/><text fill="#000000" font-family="sans-serif" font-size="13" font-weight="bold" lengthAdjust="spacing" textLength="7" x="411" y="424.8896">8</text><text fill="#000000" font-family="sans-serif" font-size="13" lengthAdjust="spacing" textLength="32" x="422" y="424.8896">(view)</text><polygon fill="#181818" points="266,457.4434,256,461.4434,266,465.4434,262,461.4434" style="stroke:#181818;stroke-width:1.0;"/><line style="stroke:#181818;stroke-width:1.0;stroke-dasharray:2.0,2.0;" x1="260" x2="388" y1="461.4434" y2="461.4434"/><text fill="#000000" font-family="sans-serif" font-size="13" font-weight="bold" lengthAdjust="spacing" textLength="7" x="272" y="456.1807">9</text><text fill="#000000" font-family="sans-serif" font-size="13" lengthAdjust="spacing" textLength="32" x="283" y="456.1807">(view)</text><polygon fill="#181818" points="65,488.7344,55,492.7344,65,496.7344,61,492.7344" style="stroke:#181818;stroke-width:1.0;"/><line style="stroke:#181818;stroke-width:1.0;stroke-dasharray:2.0,2.0;" x1="59" x2="249" y1="492.7344" y2="492.7344"/><text fill="#000000" font-family="sans-serif" font-size="13" font-weight="bold" lengthAdjust="spacing" textLength="14" x="71" y="487.4717">10</text><text fill="#000000" font-family="sans-serif" font-size="13" lengthAdjust="spacing" textLength="147" x="89" y="487.4717">(average lending duration)</text><!--SRC=[TP2nJiCm48RtUmgh33H3Mo714YIaKYIM8Y4gmS9YabDgoR6DVGdgssF7JcAWR7Rkyv__liiZaN7bPcCaLzIrSbtfTkFmiqDLuQeMlB6y1TwHvXM9dXCohOQxwjeFj00aI29xUxwulbzVtR179BRjqV86sHvLBLJ37ZhBIVXtu4EqPOkz-B3S2guMZ3istS1mIw8IndTXYyF94RO34Oy_nsLAtsb5Lak9Ta1tPELvy82s5nN6m7W-3xwWqKxuegTOR_vwddyL-FN4ZKaDuX40b0wsl8jvGrPcP-7UbJTvHEKplTaQO1wkxjBM9MkyKfwKogIqdfH6Al1XzO7UziseV5dS0eJ141YtJimGE7EGfW7CLlu7pWYsogENgMcMDrKRPmUo_cqnzOh6IaOwnRfVFmo6by5atU68512VvVczvyROJ63wFfeA2uwUvr9_r1Rm3G00]--></g></svg>