<?xml version="1.0" encoding="us-ascii" standalone="no"?><svg xmlns="http://www.w3.org/2000/svg" xmlns:xlink="http://www.w3.org/1999/xlink" contentStyleType="text/css" height="567.6px" preserveAspectRatio="none" style="width:703px;height:567px;background:#FFFFFF;" version="1.1" viewBox="0 0 703 567" width="703.8px" zoomAndPan="magnify"><defs/><g><!--class GenreController--><g id="elem_GenreController"><rect codeLine="5" fill="#F1F1F1" height="39.9727" id="GenreController" rx="1.5" ry="1.5" style="stroke:#181818;stroke-width:0.3;" width="451.8" x="4.2" y="91.2"/><ellipse cx="196.95" cy="100.8" fill="#ADD1B2" rx="6.6" ry="6.6" style="stroke:#181818;stroke-width:0.6;"/><path d="M198.6094,98.325 Q198.7031,98.1938 198.8156,98.1281 Q198.9281,98.0625 199.0594,98.0625 Q199.2844,98.0625 199.425,98.2219 Q199.5656,98.3719 199.5656,98.7375 L199.5656,99.6094 Q199.5656,99.975 199.425,100.1344 Q199.2844,100.2938 199.0594,100.2938 Q198.8531,100.2938 198.7313,100.1719 Q198.6094,100.0594 198.5438,99.75 Q198.5156,99.5344 198.4031,99.4219 Q198.2062,99.1969 197.8406,99.0656 Q197.475,98.9344 197.1,98.9344 Q196.6406,98.9344 196.2563,99.1313 Q195.8813,99.3281 195.5812,99.7781 Q195.2906,100.2281 195.2906,100.8469 L195.2906,101.5031 Q195.2906,102.2437 195.825,102.7406 Q196.3594,103.2281 197.3156,103.2281 Q197.8781,103.2281 198.2719,103.0781 Q198.5063,102.9844 198.7594,102.7219 Q198.9188,102.5625 199.0031,102.5156 Q199.0969,102.4688 199.2188,102.4688 Q199.4156,102.4688 199.5656,102.6281 Q199.725,102.7781 199.725,102.9844 Q199.725,103.1906 199.5187,103.4344 Q199.2188,103.7813 198.7406,103.9781 Q198.0938,104.25 197.3156,104.25 Q196.4063,104.25 195.6844,103.875 Q195.0938,103.575 194.6813,102.9375 Q194.2687,102.2906 194.2687,101.5219 L194.2687,100.8281 Q194.2687,100.0313 194.6344,99.3469 Q195.0094,98.6531 195.6656,98.2875 Q196.3219,97.9125 197.0625,97.9125 Q197.5031,97.9125 197.8875,98.0156 Q198.2813,98.1094 198.6094,98.325 Z " fill="#000000"/><text fill="#000000" font-family="sans-serif" font-size="8.4" lengthAdjust="spacing" textLength="61.2" x="209.25" y="104.2781">GenreController</text><line style="stroke:#181818;stroke-width:0.3;" x1="4.8" x2="455.4" y1="110.4" y2="110.4"/><line style="stroke:#181818;stroke-width:0.3;" x1="4.8" x2="455.4" y1="115.2" y2="115.2"/><text fill="#000000" font-family="sans-serif" font-size="8.4" lengthAdjust="spacing" textLength="444.6" x="7.8" y="126.6645">+getAverageLendings(SearchRequest&lt;GetAverageLendingsQuery&gt; query) : ListResponse&lt;GenreAvgLendingsView&gt;</text></g><!--class GenreService--><g id="elem_GenreService"><rect codeLine="9" fill="#F1F1F1" height="39.9727" id="GenreService" rx="1.5" ry="1.5" style="stroke:#181818;stroke-width:0.3;" width="409.2" x="25.5" y="167.4"/><ellipse cx="201.75" cy="177" fill="#B4A7E5" rx="6.6" ry="6.6" style="stroke:#181818;stroke-width:0.6;"/><path d="M202.3219,174.9844 L202.3219,178.9781 L203.3531,178.9781 Q203.7188,178.9781 203.8781,179.1188 Q204.0375,179.2594 204.0375,179.4938 Q204.0375,179.7188 203.8781,179.8594 Q203.7188,180 203.3531,180 L200.2687,180 Q199.9031,180 199.7438,179.8594 Q199.5844,179.7188 199.5844,179.4844 Q199.5844,179.2594 199.7438,179.1188 Q199.9031,178.9781 200.2687,178.9781 L201.3,178.9781 L201.3,174.9844 L200.2687,174.9844 Q199.9031,174.9844 199.7438,174.8438 Q199.5844,174.7031 199.5844,174.4688 Q199.5844,174.2438 199.7438,174.1031 Q199.9031,173.9625 200.2687,173.9625 L203.3531,173.9625 Q203.7188,173.9625 203.8781,174.1031 Q204.0375,174.2438 204.0375,174.4688 Q204.0375,174.7031 203.8781,174.8438 Q203.7188,174.9844 203.3531,174.9844 L202.3219,174.9844 Z " fill="#000000"/><text fill="#000000" font-family="sans-serif" font-size="8.4" font-style="italic" lengthAdjust="spacing" textLength="51.6" x="214.05" y="180.4781">GenreService</text><line style="stroke:#181818;stroke-width:0.3;" x1="26.1" x2="434.1" y1="186.6" y2="186.6"/><line style="stroke:#181818;stroke-width:0.3;" x1="26.1" x2="434.1" y1="191.4" y2="191.4"/><text fill="#000000" font-family="sans-serif" font-size="8.4" lengthAdjust="spacing" textLength="402" x="29.1" y="202.8645">+getAverageLendings(GetAverageLendingsQuery query, Page page) : List&lt;GenreAverageLendingsDTO&gt;</text></g><!--class GenreServiceImpl--><g id="elem_GenreServiceImpl"><rect codeLine="13" fill="#F1F1F1" height="39.9727" id="GenreServiceImpl" rx="1.5" ry="1.5" style="stroke:#181818;stroke-width:0.3;" width="409.2" x="25.5" y="258.3"/><ellipse cx="193.95" cy="267.9" fill="#ADD1B2" rx="6.6" ry="6.6" style="stroke:#181818;stroke-width:0.6;"/><path d="M195.6094,265.425 Q195.7031,265.2938 195.8156,265.2281 Q195.9281,265.1625 196.0594,265.1625 Q196.2844,265.1625 196.425,265.3219 Q196.5656,265.4719 196.5656,265.8375 L196.5656,266.7094 Q196.5656,267.075 196.425,267.2344 Q196.2844,267.3938 196.0594,267.3938 Q195.8531,267.3938 195.7313,267.2719 Q195.6094,267.1594 195.5438,266.85 Q195.5156,266.6344 195.4031,266.5219 Q195.2062,266.2969 194.8406,266.1656 Q194.475,266.0344 194.1,266.0344 Q193.6406,266.0344 193.2563,266.2313 Q192.8813,266.4281 192.5812,266.8781 Q192.2906,267.3281 192.2906,267.9469 L192.2906,268.6031 Q192.2906,269.3438 192.825,269.8406 Q193.3594,270.3281 194.3156,270.3281 Q194.8781,270.3281 195.2719,270.1781 Q195.5063,270.0844 195.7594,269.8219 Q195.9188,269.6625 196.0031,269.6156 Q196.0969,269.5687 196.2188,269.5687 Q196.4156,269.5687 196.5656,269.7281 Q196.725,269.8781 196.725,270.0844 Q196.725,270.2906 196.5187,270.5344 Q196.2188,270.8812 195.7406,271.0781 Q195.0938,271.35 194.3156,271.35 Q193.4063,271.35 192.6844,270.975 Q192.0938,270.675 191.6813,270.0375 Q191.2687,269.3906 191.2687,268.6219 L191.2687,267.9281 Q191.2687,267.1312 191.6344,266.4469 Q192.0094,265.7531 192.6656,265.3875 Q193.3219,265.0125 194.0625,265.0125 Q194.5031,265.0125 194.8875,265.1156 Q195.2813,265.2094 195.6094,265.425 Z " fill="#000000"/><text fill="#000000" font-family="sans-serif" font-size="8.4" lengthAdjust="spacing" textLength="67.2" x="206.25" y="271.3781">GenreServiceImpl</text><line style="stroke:#181818;stroke-width:0.3;" x1="26.1" x2="434.1" y1="277.5" y2="277.5"/><line style="stroke:#181818;stroke-width:0.3;" x1="26.1" x2="434.1" y1="282.3" y2="282.3"/><text fill="#000000" font-family="sans-serif" font-size="8.4" lengthAdjust="spacing" textLength="402" x="29.1" y="293.7645">+getAverageLendings(GetAverageLendingsQuery query, Page page) : List&lt;GenreAverageLendingsDTO&gt;</text></g><!--class GenreRepository--><g id="elem_GenreRepository"><rect codeLine="17" fill="#F1F1F1" height="39.9727" id="GenreRepository" rx="1.5" ry="1.5" style="stroke:#181818;stroke-width:0.3;" width="345.6" x="57.3" y="349.2"/><ellipse cx="195.15" cy="358.8" fill="#B4A7E5" rx="6.6" ry="6.6" style="stroke:#181818;stroke-width:0.6;"/><path d="M195.7219,356.7844 L195.7219,360.7781 L196.7531,360.7781 Q197.1188,360.7781 197.2781,360.9188 Q197.4375,361.0594 197.4375,361.2938 Q197.4375,361.5188 197.2781,361.6594 Q197.1188,361.8 196.7531,361.8 L193.6688,361.8 Q193.3031,361.8 193.1437,361.6594 Q192.9844,361.5188 192.9844,361.2844 Q192.9844,361.0594 193.1437,360.9188 Q193.3031,360.7781 193.6688,360.7781 L194.7,360.7781 L194.7,356.7844 L193.6688,356.7844 Q193.3031,356.7844 193.1437,356.6438 Q192.9844,356.5031 192.9844,356.2688 Q192.9844,356.0438 193.1437,355.9031 Q193.3031,355.7625 193.6688,355.7625 L196.7531,355.7625 Q197.1188,355.7625 197.2781,355.9031 Q197.4375,356.0438 197.4375,356.2688 Q197.4375,356.5031 197.2781,356.6438 Q197.1188,356.7844 196.7531,356.7844 L195.7219,356.7844 Z " fill="#000000"/><text fill="#000000" font-family="sans-serif" font-size="8.4" font-style="italic" lengthAdjust="spacing" textLength="64.8" x="207.45" y="362.2781">GenreRepository</text><line style="stroke:#181818;stroke-width:0.3;" x1="57.9" x2="402.3" y1="368.4" y2="368.4"/><line style="stroke:#181818;stroke-width:0.3;" x1="57.9" x2="402.3" y1="373.2" y2="373.2"/><text fill="#000000" font-family="sans-serif" font-size="8.4" lengthAdjust="spacing" textLength="338.4" x="60.9" y="384.6645">+getAverageLendings(LocalDate month, Page page) : List&lt;GenreAverageLendingsDTO&gt;</text></g><!--class GenreRepoCustom--><g id="elem_GenreRepoCustom"><rect codeLine="21" fill="#F1F1F1" height="39.9727" id="GenreRepoCustom" rx="1.5" ry="1.5" style="stroke:#181818;stroke-width:0.3;" width="345.6" x="57.3" y="425.4"/><ellipse cx="190.95" cy="435" fill="#B4A7E5" rx="6.6" ry="6.6" style="stroke:#181818;stroke-width:0.6;"/><path d="M191.5219,432.9844 L191.5219,436.9781 L192.5531,436.9781 Q192.9188,436.9781 193.0781,437.1188 Q193.2375,437.2594 193.2375,437.4938 Q193.2375,437.7188 193.0781,437.8594 Q192.9188,438 192.5531,438 L189.4688,438 Q189.1031,438 188.9438,437.8594 Q188.7844,437.7188 188.7844,437.4844 Q188.7844,437.2594 188.9438,437.1188 Q189.1031,436.9781 189.4688,436.9781 L190.5,436.9781 L190.5,432.9844 L189.4688,432.9844 Q189.1031,432.9844 188.9438,432.8438 Q188.7844,432.7031 188.7844,432.4688 Q188.7844,432.2438 188.9438,432.1031 Q189.1031,431.9625 189.4688,431.9625 L192.5531,431.9625 Q192.9188,431.9625 193.0781,432.1031 Q193.2375,432.2438 193.2375,432.4688 Q193.2375,432.7031 193.0781,432.8438 Q192.9188,432.9844 192.5531,432.9844 L191.5219,432.9844 Z " fill="#000000"/><text fill="#000000" font-family="sans-serif" font-size="8.4" font-style="italic" lengthAdjust="spacing" textLength="73.2" x="203.25" y="438.4781">GenreRepoCustom</text><line style="stroke:#181818;stroke-width:0.3;" x1="57.9" x2="402.3" y1="444.6" y2="444.6"/><line style="stroke:#181818;stroke-width:0.3;" x1="57.9" x2="402.3" y1="449.4" y2="449.4"/><text fill="#000000" font-family="sans-serif" font-size="8.4" lengthAdjust="spacing" textLength="338.4" x="60.9" y="460.8645">+getAverageLendings(LocalDate month, Page page) : List&lt;GenreAverageLendingsDTO&gt;</text></g><!--class GenreRepoCustomImpl--><g id="elem_GenreRepoCustomImpl"><rect codeLine="25" fill="#F1F1F1" height="39.9727" id="GenreRepoCustomImpl" rx="1.5" ry="1.5" style="stroke:#181818;stroke-width:0.3;" width="345.6" x="57.3" y="512.7"/><ellipse cx="183.45" cy="522.3" fill="#ADD1B2" rx="6.6" ry="6.6" style="stroke:#181818;stroke-width:0.6;"/><path d="M185.1094,519.825 Q185.2031,519.6938 185.3156,519.6281 Q185.4281,519.5625 185.5594,519.5625 Q185.7844,519.5625 185.925,519.7219 Q186.0656,519.8719 186.0656,520.2375 L186.0656,521.1094 Q186.0656,521.475 185.925,521.6344 Q185.7844,521.7937 185.5594,521.7937 Q185.3531,521.7937 185.2313,521.6719 Q185.1094,521.5594 185.0438,521.25 Q185.0156,521.0344 184.9031,520.9219 Q184.7062,520.6969 184.3406,520.5656 Q183.975,520.4344 183.6,520.4344 Q183.1406,520.4344 182.7563,520.6313 Q182.3813,520.8281 182.0812,521.2781 Q181.7906,521.7281 181.7906,522.3469 L181.7906,523.0031 Q181.7906,523.7438 182.325,524.2406 Q182.8594,524.7281 183.8156,524.7281 Q184.3781,524.7281 184.7719,524.5781 Q185.0063,524.4844 185.2594,524.2219 Q185.4188,524.0625 185.5031,524.0156 Q185.5969,523.9688 185.7188,523.9688 Q185.9156,523.9688 186.0656,524.1281 Q186.225,524.2781 186.225,524.4844 Q186.225,524.6906 186.0187,524.9344 Q185.7188,525.2813 185.2406,525.4781 Q184.5938,525.75 183.8156,525.75 Q182.9063,525.75 182.1844,525.375 Q181.5938,525.075 181.1813,524.4375 Q180.7687,523.7906 180.7687,523.0219 L180.7687,522.3281 Q180.7687,521.5313 181.1344,520.8469 Q181.5094,520.1531 182.1656,519.7875 Q182.8219,519.4125 183.5625,519.4125 Q184.0031,519.4125 184.3875,519.5156 Q184.7813,519.6094 185.1094,519.825 Z " fill="#000000"/><text fill="#000000" font-family="sans-serif" font-size="8.4" lengthAdjust="spacing" textLength="88.2" x="195.75" y="525.7781">GenreRepoCustomImpl</text><line style="stroke:#181818;stroke-width:0.3;" x1="57.9" x2="402.3" y1="531.9" y2="531.9"/><line style="stroke:#181818;stroke-width:0.3;" x1="57.9" x2="402.3" y1="536.7" y2="536.7"/><text fill="#000000" font-family="sans-serif" font-size="8.4" lengthAdjust="spacing" textLength="338.4" x="60.9" y="548.1645">+getAverageLendings(LocalDate month, Page page) : List&lt;GenreAverageLendingsDTO&gt;</text></g><!--class Genre--><g id="elem_Genre"><rect codeLine="29" fill="#F1F1F1" height="69.8672" id="Genre" rx="1.5" ry="1.5" style="stroke:#181818;stroke-width:0.3;" width="123" x="456" y="243.6"/><ellipse cx="502.95" cy="256.9746" fill="#ADD1B2" rx="6.6" ry="6.6" style="stroke:#181818;stroke-width:0.6;"/><path d="M504.6094,254.4996 Q504.7031,254.3684 504.8156,254.3027 Q504.9281,254.2371 505.0594,254.2371 Q505.2844,254.2371 505.425,254.3965 Q505.5656,254.5465 505.5656,254.9121 L505.5656,255.784 Q505.5656,256.1496 505.425,256.309 Q505.2844,256.4684 505.0594,256.4684 Q504.8531,256.4684 504.7313,256.3465 Q504.6094,256.234 504.5438,255.9246 Q504.5156,255.709 504.4031,255.5965 Q504.2062,255.3715 503.8406,255.2402 Q503.475,255.109 503.1,255.109 Q502.6406,255.109 502.2562,255.3059 Q501.8812,255.5027 501.5812,255.9527 Q501.2906,256.4027 501.2906,257.0215 L501.2906,257.6777 Q501.2906,258.4184 501.825,258.9152 Q502.3594,259.4027 503.3156,259.4027 Q503.8781,259.4027 504.2719,259.2527 Q504.5062,259.159 504.7594,258.8965 Q504.9188,258.7371 505.0031,258.6902 Q505.0969,258.6434 505.2188,258.6434 Q505.4156,258.6434 505.5656,258.8027 Q505.725,258.9527 505.725,259.159 Q505.725,259.3652 505.5187,259.609 Q505.2188,259.9559 504.7406,260.1527 Q504.0938,260.4246 503.3156,260.4246 Q502.4063,260.4246 501.6844,260.0496 Q501.0938,259.7496 500.6813,259.1121 Q500.2687,258.4652 500.2687,257.6965 L500.2687,257.0027 Q500.2687,256.2059 500.6344,255.5215 Q501.0094,254.8277 501.6656,254.4621 Q502.3219,254.0871 503.0625,254.0871 Q503.5031,254.0871 503.8875,254.1902 Q504.2813,254.284 504.6094,254.4996 Z " fill="#000000"/><text fill="#000000" font-family="sans-serif" font-size="7.2" font-style="italic" lengthAdjust="spacing" textLength="25.8" x="514.35" y="254.3695">&#171;entity&#187;</text><text fill="#000000" font-family="sans-serif" font-size="8.4" lengthAdjust="spacing" textLength="24" x="515.25" y="265.241">Genre</text><line style="stroke:#181818;stroke-width:0.3;" x1="456.6" x2="578.4" y1="270.3492" y2="270.3492"/><text fill="#000000" font-family="sans-serif" font-size="8.4" lengthAdjust="spacing" textLength="35.4" x="459.6" y="281.8137">-pk : long</text><text fill="#000000" font-family="sans-serif" font-size="8.4" lengthAdjust="spacing" textLength="54.6" x="459.6" y="292.9863">-genre : String</text><line style="stroke:#181818;stroke-width:0.3;" x1="456.6" x2="578.4" y1="297.4945" y2="297.4945"/><text fill="#000000" font-family="sans-serif" font-size="8.4" lengthAdjust="spacing" textLength="115.8" x="459.6" y="308.959">+setGenre(String genre) : void</text></g><!--class GenreViewMapper--><g id="elem_GenreViewMapper"><rect codeLine="35" fill="#F1F1F1" height="51.1453" id="GenreViewMapper" rx="1.5" ry="1.5" style="stroke:#181818;stroke-width:0.3;" width="386.4" x="36.9" y="4.2"/><ellipse cx="192.45" cy="13.8" fill="#ADD1B2" rx="6.6" ry="6.6" style="stroke:#181818;stroke-width:0.6;"/><path d="M194.1094,11.325 Q194.2031,11.1938 194.3156,11.1281 Q194.4281,11.0625 194.5594,11.0625 Q194.7844,11.0625 194.925,11.2219 Q195.0656,11.3719 195.0656,11.7375 L195.0656,12.6094 Q195.0656,12.975 194.925,13.1344 Q194.7844,13.2938 194.5594,13.2938 Q194.3531,13.2938 194.2313,13.1719 Q194.1094,13.0594 194.0438,12.75 Q194.0156,12.5344 193.9031,12.4219 Q193.7062,12.1969 193.3406,12.0656 Q192.975,11.9344 192.6,11.9344 Q192.1406,11.9344 191.7563,12.1313 Q191.3813,12.3281 191.0812,12.7781 Q190.7906,13.2281 190.7906,13.8469 L190.7906,14.5031 Q190.7906,15.2437 191.325,15.7406 Q191.8594,16.2281 192.8156,16.2281 Q193.3781,16.2281 193.7719,16.0781 Q194.0063,15.9844 194.2594,15.7219 Q194.4188,15.5625 194.5031,15.5156 Q194.5969,15.4688 194.7188,15.4688 Q194.9156,15.4688 195.0656,15.6281 Q195.225,15.7781 195.225,15.9844 Q195.225,16.1906 195.0187,16.4344 Q194.7188,16.7813 194.2406,16.9781 Q193.5938,17.25 192.8156,17.25 Q191.9063,17.25 191.1844,16.875 Q190.5938,16.575 190.1813,15.9375 Q189.7687,15.2906 189.7687,14.5219 L189.7687,13.8281 Q189.7687,13.0313 190.1344,12.3469 Q190.5094,11.6531 191.1656,11.2875 Q191.8219,10.9125 192.5625,10.9125 Q193.0031,10.9125 193.3875,11.0156 Q193.7813,11.1094 194.1094,11.325 Z " fill="#000000"/><text fill="#000000" font-family="sans-serif" font-size="8.4" lengthAdjust="spacing" textLength="70.2" x="204.75" y="17.2781">GenreViewMapper</text><line style="stroke:#181818;stroke-width:0.3;" x1="37.5" x2="422.7" y1="23.4" y2="23.4"/><line style="stroke:#181818;stroke-width:0.3;" x1="37.5" x2="422.7" y1="28.2" y2="28.2"/><text fill="#000000" font-family="sans-serif" font-size="8.4" lengthAdjust="spacing" textLength="379.2" x="40.5" y="39.6645">+toGenreAvgLendingsView(List&lt;GenreAverageLendingsDTO&gt; dtos) : List&lt;GenreAvgLendingsView&gt;</text><text fill="#000000" font-family="sans-serif" font-size="8.4" lengthAdjust="spacing" textLength="329.4" x="40.5" y="50.8371">+toGenreAvgLendingsView(GenreAverageLendingsDTO dto) : GenreAvgLendingsView</text></g><!--class GenreAvgLendingsView--><g id="elem_GenreAvgLendingsView"><rect codeLine="40" fill="#F1F1F1" height="51.1453" id="GenreAvgLendingsView" rx="1.5" ry="1.5" style="stroke:#181818;stroke-width:0.3;" width="109.8" x="444.6" y="4.2"/><ellipse cx="453.6" cy="13.8" fill="#ADD1B2" rx="6.6" ry="6.6" style="stroke:#181818;stroke-width:0.6;"/><path d="M455.2594,11.325 Q455.3531,11.1938 455.4656,11.1281 Q455.5781,11.0625 455.7094,11.0625 Q455.9344,11.0625 456.075,11.2219 Q456.2156,11.3719 456.2156,11.7375 L456.2156,12.6094 Q456.2156,12.975 456.075,13.1344 Q455.9344,13.2938 455.7094,13.2938 Q455.5031,13.2938 455.3812,13.1719 Q455.2594,13.0594 455.1937,12.75 Q455.1656,12.5344 455.0531,12.4219 Q454.8563,12.1969 454.4906,12.0656 Q454.125,11.9344 453.75,11.9344 Q453.2906,11.9344 452.9063,12.1313 Q452.5313,12.3281 452.2313,12.7781 Q451.9406,13.2281 451.9406,13.8469 L451.9406,14.5031 Q451.9406,15.2437 452.475,15.7406 Q453.0094,16.2281 453.9656,16.2281 Q454.5281,16.2281 454.9219,16.0781 Q455.1563,15.9844 455.4094,15.7219 Q455.5687,15.5625 455.6531,15.5156 Q455.7469,15.4688 455.8688,15.4688 Q456.0656,15.4688 456.2156,15.6281 Q456.375,15.7781 456.375,15.9844 Q456.375,16.1906 456.1688,16.4344 Q455.8688,16.7813 455.3906,16.9781 Q454.7438,17.25 453.9656,17.25 Q453.0563,17.25 452.3344,16.875 Q451.7438,16.575 451.3313,15.9375 Q450.9188,15.2906 450.9188,14.5219 L450.9188,13.8281 Q450.9188,13.0313 451.2844,12.3469 Q451.6594,11.6531 452.3156,11.2875 Q452.9719,10.9125 453.7125,10.9125 Q454.1531,10.9125 454.5375,11.0156 Q454.9313,11.1094 455.2594,11.325 Z " fill="#000000"/><text fill="#000000" font-family="sans-serif" font-size="8.4" lengthAdjust="spacing" textLength="90.6" x="462" y="17.2781">GenreAvgLendingsView</text><line style="stroke:#181818;stroke-width:0.3;" x1="445.2" x2="553.8" y1="23.4" y2="23.4"/><text fill="#000000" font-family="sans-serif" font-size="8.4" lengthAdjust="spacing" textLength="52.2" x="448.2" y="34.8645">-genre: String</text><text fill="#000000" font-family="sans-serif" font-size="8.4" lengthAdjust="spacing" textLength="98.4" x="448.2" y="46.0371">-averageLendings : String</text><line style="stroke:#181818;stroke-width:0.3;" x1="445.2" x2="553.8" y1="50.5453" y2="50.5453"/></g><!--class GenreAverageLendingsDTO--><g id="elem_GenreAverageLendingsDTO"><rect codeLine="45" fill="#F1F1F1" height="62.318" id="GenreAverageLendingsDTO" rx="1.5" ry="1.5" style="stroke:#181818;stroke-width:0.3;" width="275.4" x="424.2" y="501.6"/><ellipse cx="505.05" cy="511.2" fill="#ADD1B2" rx="6.6" ry="6.6" style="stroke:#181818;stroke-width:0.6;"/><path d="M506.7094,508.725 Q506.8031,508.5938 506.9156,508.5281 Q507.0281,508.4625 507.1594,508.4625 Q507.3844,508.4625 507.525,508.6219 Q507.6656,508.7719 507.6656,509.1375 L507.6656,510.0094 Q507.6656,510.375 507.525,510.5344 Q507.3844,510.6937 507.1594,510.6937 Q506.9531,510.6937 506.8312,510.5719 Q506.7094,510.4594 506.6437,510.15 Q506.6156,509.9344 506.5031,509.8219 Q506.3063,509.5969 505.9406,509.4656 Q505.575,509.3344 505.2,509.3344 Q504.7406,509.3344 504.3563,509.5313 Q503.9813,509.7281 503.6813,510.1781 Q503.3906,510.6281 503.3906,511.2469 L503.3906,511.9031 Q503.3906,512.6438 503.925,513.1406 Q504.4594,513.6281 505.4156,513.6281 Q505.9781,513.6281 506.3719,513.4781 Q506.6063,513.3844 506.8594,513.1219 Q507.0187,512.9625 507.1031,512.9156 Q507.1969,512.8688 507.3187,512.8688 Q507.5156,512.8688 507.6656,513.0281 Q507.825,513.1781 507.825,513.3844 Q507.825,513.5906 507.6188,513.8344 Q507.3187,514.1813 506.8406,514.3781 Q506.1937,514.65 505.4156,514.65 Q504.5062,514.65 503.7844,514.275 Q503.1937,513.975 502.7813,513.3375 Q502.3688,512.6906 502.3688,511.9219 L502.3688,511.2281 Q502.3688,510.4313 502.7344,509.7469 Q503.1094,509.0531 503.7656,508.6875 Q504.4219,508.3125 505.1625,508.3125 Q505.6031,508.3125 505.9875,508.4156 Q506.3812,508.5094 506.7094,508.725 Z " fill="#000000"/><text fill="#000000" font-family="sans-serif" font-size="8.4" lengthAdjust="spacing" textLength="108.6" x="517.35" y="514.6781">GenreAverageLendingsDTO</text><line style="stroke:#181818;stroke-width:0.3;" x1="424.8" x2="699" y1="520.8" y2="520.8"/><text fill="#000000" font-family="sans-serif" font-size="8.4" lengthAdjust="spacing" textLength="52.2" x="427.8" y="532.2645">-genre: String</text><text fill="#000000" font-family="sans-serif" font-size="8.4" lengthAdjust="spacing" textLength="98.4" x="427.8" y="543.4371">-averageLendings : String</text><line style="stroke:#181818;stroke-width:0.3;" x1="424.8" x2="699" y1="547.9453" y2="547.9453"/><text fill="#000000" font-family="sans-serif" font-size="8.4" lengthAdjust="spacing" textLength="268.2" x="427.8" y="559.4098">+GenreAverageLendingsDTO(Genre genre, Double averageLendings)</text></g><!--reverse link GenreService to GenreServiceImpl--><g id="link_GenreService_GenreServiceImpl"><path d="M230.1,218.586 C230.1,233.538 230.1,243.216 230.1,258.162 " fill="none" id="GenreService-backto-GenreServiceImpl" style="stroke:#181818;stroke-width:0.6;stroke-dasharray:7.0,7.0;"/><polygon fill="none" points="230.1,207.786,226.5,218.586,233.7,218.586,230.1,207.786" style="stroke:#181818;stroke-width:0.6;"/></g><!--reverse link GenreRepoCustom to GenreRepoCustomImpl--><g id="link_GenreRepoCustom_GenreRepoCustomImpl"><path d="M230.1,476.436 C230.1,490.428 230.1,498.402 230.1,512.442 " fill="none" id="GenreRepoCustom-backto-GenreRepoCustomImpl" style="stroke:#181818;stroke-width:0.6;stroke-dasharray:7.0,7.0;"/><polygon fill="none" points="230.1,465.636,226.5,476.436,233.7,476.436,230.1,465.636" style="stroke:#181818;stroke-width:0.6;"/></g><!--link GenreServiceImpl to Genre--><g id="link_GenreServiceImpl_Genre"><path codeLine="51" d="M434.706,278.4 C441.768,278.4 445.224,278.4 452.286,278.4 " fill="none" id="GenreServiceImpl-to-Genre" style="stroke:#181818;stroke-width:0.6;stroke-dasharray:7.0,7.0;"/><polygon fill="#181818" points="455.886,278.4,450.486,276,452.886,278.4,450.486,280.8,455.886,278.4" style="stroke:#181818;stroke-width:0.6;"/></g><!--link GenreController to GenreService--><g id="link_GenreController_GenreService"><path codeLine="53" d="M230.1,131.412 C230.1,142.434 230.1,152.574 230.1,163.626 " fill="none" id="GenreController-to-GenreService" style="stroke:#181818;stroke-width:0.6;stroke-dasharray:7.0,7.0;"/><polygon fill="#181818" points="230.1,167.226,232.5,161.826,230.1,164.226,227.7,161.826,230.1,167.226" style="stroke:#181818;stroke-width:0.6;"/></g><!--link GenreServiceImpl to GenreRepository--><g id="link_GenreServiceImpl_GenreRepository"><path codeLine="54" d="M230.1,298.686 C230.1,313.638 230.1,330.516 230.1,345.462 " fill="none" id="GenreServiceImpl-to-GenreRepository" style="stroke:#181818;stroke-width:0.6;stroke-dasharray:7.0,7.0;"/><polygon fill="#181818" points="230.1,349.062,232.5,343.662,230.1,346.062,227.7,343.662,230.1,349.062" style="stroke:#181818;stroke-width:0.6;"/></g><!--reverse link GenreViewMapper to GenreController--><g id="link_GenreViewMapper_GenreController"><path codeLine="56" d="M230.1,58.896 C230.1,70.422 230.1,80.304 230.1,91.08 " fill="none" id="GenreViewMapper-backto-GenreController" style="stroke:#181818;stroke-width:0.6;stroke-dasharray:7.0,7.0;"/><polygon fill="#181818" points="230.1,55.296,227.7,60.696,230.1,58.296,232.5,60.696,230.1,55.296" style="stroke:#181818;stroke-width:0.6;"/></g><!--link GenreViewMapper to GenreAvgLendingsView--><g id="link_GenreViewMapper_GenreAvgLendingsView"><path codeLine="57" d="M423.468,29.7 C430.5,29.7 433.926,29.7 440.958,29.7 " fill="none" id="GenreViewMapper-to-GenreAvgLendingsView" style="stroke:#181818;stroke-width:0.6;stroke-dasharray:7.0,7.0;"/><polygon fill="#181818" points="444.558,29.7,439.158,27.3,441.558,29.7,439.158,32.1,444.558,29.7" style="stroke:#181818;stroke-width:0.6;"/></g><!--reverse link GenreRepository to GenreRepoCustom--><g id="link_GenreRepository_GenreRepoCustom"><path codeLine="59" d="M230.1,393.012 C230.1,404.034 230.1,414.174 230.1,425.226 " fill="none" id="GenreRepository-backto-GenreRepoCustom" style="stroke:#181818;stroke-width:0.6;stroke-dasharray:7.0,7.0;"/><polygon fill="#181818" points="230.1,389.412,227.7,394.812,230.1,392.412,232.5,394.812,230.1,389.412" style="stroke:#181818;stroke-width:0.6;"/></g><!--link GenreRepoCustomImpl to GenreAverageLendingsDTO--><g id="link_GenreRepoCustomImpl_GenreAverageLendingsDTO"><path codeLine="61" d="M402.966,532.8 C410.004,532.8 413.436,532.8 420.474,532.8 " fill="none" id="GenreRepoCustomImpl-to-GenreAverageLendingsDTO" style="stroke:#181818;stroke-width:0.6;stroke-dasharray:7.0,7.0;"/><polygon fill="#181818" points="424.074,532.8,418.674,530.4,421.074,532.8,418.674,535.2,424.074,532.8" style="stroke:#181818;stroke-width:0.6;"/></g><!--SRC=[lPHHJuCm4CVV-odkpPdDnMUpa2nROancrCtuti796g6jxJ4p5x-xXKB6EiQ3KNc0bBl-_l-xSbniH88G2nDdoEoRa9eRdaESSMkdH4Qi2yAxMCcL-4IuPgoAm2rAWpCboQWiGmDx1kuQGeeqtQBXAIvG9aAcTh12RkBD4jyBj3IvFKbuAj3i8dWl7vTm0mjXQObMAsbnKkbCjscJ_2Bm8s9VZ0b9Q5vvZDxA2irMk4MFZpFANdW4Zou0sjqQ3utsqPRvyqCbt-f2BNsNwmo4ks6EaevZ_-KgQCeIjRA2bCFrE5Yec6TpJWYvEy_DBsZE2aig_qFDLlSFUfq7yDzsO39nue9sKUJrha2_EKQcP5glqohl1bPkkEgNGx18rVw1V-kJIl6j4acWKSx0FTSQJLCIgQuv6VGQXuIK3SiBvgoNVWPSSajirvwWa22wRpVeg3zNm8zr3kqBYQ6T7q5ztMU8ld0F7C5S5UiCGzHbwUlaxp0s8jtGEFBaEg7r4nqteNfJ1o5H7xB9Eent1whGJThXSs71EZ0K7XOB9wW5FT4EvZ0aXqrax1i0]--></g></svg>