<?xml version="1.0" encoding="us-ascii" standalone="no"?><svg xmlns="http://www.w3.org/2000/svg" xmlns:xlink="http://www.w3.org/1999/xlink" contentStyleType="text/css" height="585.9px" preserveAspectRatio="none" style="width:986px;height:585px;background:#FFFFFF;" version="1.1" viewBox="0 0 986 585" width="986.4px" zoomAndPan="magnify"><defs/><g><text fill="#000000" font-family="sans-serif" font-size="12.6" font-weight="bold" lengthAdjust="spacing" textLength="274.5" x="355.05" y="27.0967">WP#4B.14 Get Average Lendings Per Genre</text><rect fill="#FFFFFF" height="289.9811" style="stroke:#181818;stroke-width:0.9;" width="9" x="181.8" y="205.5656"/><rect fill="#FFFFFF" height="202.5334" style="stroke:#181818;stroke-width:0.9;" width="9" x="368.1" y="233.7275"/><rect fill="#FFFFFF" height="89.8857" style="stroke:#181818;stroke-width:0.9;" width="9" x="576.9" y="261.8895"/><rect fill="#FFFFFF" height="30.8619" style="stroke:#181818;stroke-width:0.9;" width="9" x="789.3" y="292.7514"/><rect fill="#FFFFFF" height="28.1619" style="stroke:#181818;stroke-width:0.9;" width="9" x="915.75" y="379.9371"/><line style="stroke:#181818;stroke-width:0.45;stroke-dasharray:5.0,5.0;" x1="48.6" x2="48.6" y1="110.918" y2="511.7467"/><line style="stroke:#181818;stroke-width:0.45;stroke-dasharray:5.0,5.0;" x1="186.3" x2="186.3" y1="110.918" y2="511.7467"/><line style="stroke:#181818;stroke-width:0.45;stroke-dasharray:5.0,5.0;" x1="372.6" x2="372.6" y1="110.918" y2="511.7467"/><line style="stroke:#181818;stroke-width:0.45;stroke-dasharray:5.0,5.0;" x1="580.95" x2="580.95" y1="110.918" y2="511.7467"/><line style="stroke:#181818;stroke-width:0.45;stroke-dasharray:5.0,5.0;" x1="793.8" x2="793.8" y1="110.918" y2="511.7467"/><line style="stroke:#181818;stroke-width:0.45;stroke-dasharray:5.0,5.0;" x1="919.8" x2="919.8" y1="110.918" y2="511.7467"/><text fill="#000000" font-family="sans-serif" font-size="12.6" lengthAdjust="spacing" textLength="50.4" x="20.7" y="107.7557">Librarian</text><ellipse cx="48.6" cy="47.809" fill="#E2E2F0" rx="7.2" ry="7.2" style="stroke:#181818;stroke-width:0.45;"/><path d="M48.6,55.009 L48.6,79.309 M36.9,62.209 L60.3,62.209 M48.6,79.309 L36.9,92.809 M48.6,79.309 L60.3,92.809 " fill="none" style="stroke:#181818;stroke-width:0.45;"/><text fill="#000000" font-family="sans-serif" font-size="12.6" lengthAdjust="spacing" textLength="50.4" x="20.7" y="524.4434">Librarian</text><ellipse cx="48.6" cy="535.2557" fill="#E2E2F0" rx="7.2" ry="7.2" style="stroke:#181818;stroke-width:0.45;"/><path d="M48.6,542.4557 L48.6,566.7557 M36.9,549.6557 L60.3,549.6557 M48.6,566.7557 L36.9,580.2557 M48.6,566.7557 L60.3,580.2557 " fill="none" style="stroke:#181818;stroke-width:0.45;"/><rect fill="#E2E2F0" height="29.359" rx="2.25" ry="2.25" style="stroke:#181818;stroke-width:0.45;" width="54" x="159.3" y="80.659"/><text fill="#000000" font-family="sans-serif" font-size="12.6" lengthAdjust="spacing" textLength="41.4" x="165.6" y="100.5557">System</text><rect fill="#E2E2F0" height="29.359" rx="2.25" ry="2.25" style="stroke:#181818;stroke-width:0.45;" width="54" x="159.3" y="510.8467"/><text fill="#000000" font-family="sans-serif" font-size="12.6" lengthAdjust="spacing" textLength="41.4" x="165.6" y="530.7434">System</text><rect fill="#E2E2F0" height="29.359" rx="2.25" ry="2.25" style="stroke:#181818;stroke-width:0.45;" width="108" x="318.6" y="80.659"/><text fill="#000000" font-family="sans-serif" font-size="12.6" lengthAdjust="spacing" textLength="95.4" x="324.9" y="100.5557">:GenreController</text><rect fill="#E2E2F0" height="29.359" rx="2.25" ry="2.25" style="stroke:#181818;stroke-width:0.45;" width="108" x="318.6" y="510.8467"/><text fill="#000000" font-family="sans-serif" font-size="12.6" lengthAdjust="spacing" textLength="95.4" x="324.9" y="530.7434">:GenreController</text><rect fill="#E2E2F0" height="29.359" rx="2.25" ry="2.25" style="stroke:#181818;stroke-width:0.45;" width="94.5" x="534.15" y="80.659"/><text fill="#000000" font-family="sans-serif" font-size="12.6" lengthAdjust="spacing" textLength="81.9" x="540.45" y="100.5557">:GenreService</text><rect fill="#E2E2F0" height="29.359" rx="2.25" ry="2.25" style="stroke:#181818;stroke-width:0.45;" width="94.5" x="534.15" y="510.8467"/><text fill="#000000" font-family="sans-serif" font-size="12.6" lengthAdjust="spacing" textLength="81.9" x="540.45" y="530.7434">:GenreService</text><rect fill="#E2E2F0" height="29.359" rx="2.25" ry="2.25" style="stroke:#181818;stroke-width:0.45;" width="113.4" x="737.1" y="80.659"/><text fill="#000000" font-family="sans-serif" font-size="12.6" lengthAdjust="spacing" textLength="100.8" x="743.4" y="100.5557">:GenreRepository</text><rect fill="#E2E2F0" height="29.359" rx="2.25" ry="2.25" style="stroke:#181818;stroke-width:0.45;" width="113.4" x="737.1" y="510.8467"/><text fill="#000000" font-family="sans-serif" font-size="12.6" lengthAdjust="spacing" textLength="100.8" x="743.4" y="530.7434">:GenreRepository</text><rect fill="#E2E2F0" height="29.359" rx="2.25" ry="2.25" style="stroke:#181818;stroke-width:0.45;" width="121.5" x="859.5" y="80.659"/><text fill="#000000" font-family="sans-serif" font-size="12.6" lengthAdjust="spacing" textLength="108.9" x="865.8" y="100.5557">:GenreViewMapper</text><rect fill="#E2E2F0" height="29.359" rx="2.25" ry="2.25" style="stroke:#181818;stroke-width:0.45;" width="121.5" x="859.5" y="510.8467"/><text fill="#000000" font-family="sans-serif" font-size="12.6" lengthAdjust="spacing" textLength="108.9" x="865.8" y="530.7434">:GenreViewMapper</text><rect fill="#FFFFFF" height="289.9811" style="stroke:#181818;stroke-width:0.9;" width="9" x="181.8" y="205.5656"/><rect fill="#FFFFFF" height="202.5334" style="stroke:#181818;stroke-width:0.9;" width="9" x="368.1" y="233.7275"/><rect fill="#FFFFFF" height="89.8857" style="stroke:#181818;stroke-width:0.9;" width="9" x="576.9" y="261.8895"/><rect fill="#FFFFFF" height="30.8619" style="stroke:#181818;stroke-width:0.9;" width="9" x="789.3" y="292.7514"/><rect fill="#FFFFFF" height="28.1619" style="stroke:#181818;stroke-width:0.9;" width="9" x="915.75" y="379.9371"/><path d="M4.5,124.418 L4.5,164.018 L93.6,164.018 L93.6,133.418 L84.6,124.418 L4.5,124.418 " fill="#FEFFDD" style="stroke:#181818;stroke-width:0.45;"/><path d="M84.6,124.418 L84.6,133.418 L93.6,133.418 L84.6,124.418 " fill="#FEFFDD" style="stroke:#181818;stroke-width:0.45;"/><text fill="#000000" font-family="sans-serif" font-size="11.7" lengthAdjust="spacing" textLength="56.7" x="9.9" y="141.5435">Librarian is</text><text fill="#000000" font-family="sans-serif" font-size="11.7" lengthAdjust="spacing" textLength="70.2" x="9.9" y="157.1054">authenticated</text><polygon fill="#181818" points="171,201.9656,180,205.5656,171,209.1656,174.6,205.5656" style="stroke:#181818;stroke-width:0.9;"/><line style="stroke:#181818;stroke-width:0.9;" x1="48.6" x2="176.4" y1="205.5656" y2="205.5656"/><text fill="#000000" font-family="sans-serif" font-size="11.7" font-weight="bold" lengthAdjust="spacing" textLength="6.3" x="54.9" y="193.0482">1</text><text fill="#000000" font-family="sans-serif" font-size="11.7" lengthAdjust="spacing" textLength="106.2" x="64.8" y="185.2673">get average lendings</text><text fill="#000000" font-family="sans-serif" font-size="11.7" lengthAdjust="spacing" textLength="98.1" x="64.8" y="200.8292">for specified month</text><polygon fill="#181818" points="357.3,230.1275,366.3,233.7275,357.3,237.3275,360.9,233.7275" style="stroke:#181818;stroke-width:0.9;"/><line style="stroke:#181818;stroke-width:0.9;" x1="190.8" x2="362.7" y1="233.7275" y2="233.7275"/><text fill="#000000" font-family="sans-serif" font-size="11.7" font-weight="bold" lengthAdjust="spacing" textLength="6.3" x="197.1" y="228.9911">2</text><text fill="#000000" font-family="sans-serif" font-size="11.7" lengthAdjust="spacing" textLength="144" x="207" y="228.9911">getAverageLendings(query);</text><polygon fill="#181818" points="566.1,258.2895,575.1,261.8895,566.1,265.4895,569.7,261.8895" style="stroke:#181818;stroke-width:0.9;"/><line style="stroke:#181818;stroke-width:0.9;" x1="377.1" x2="571.5" y1="261.8895" y2="261.8895"/><text fill="#000000" font-family="sans-serif" font-size="11.7" font-weight="bold" lengthAdjust="spacing" textLength="6.3" x="383.4" y="257.153">3</text><text fill="#000000" font-family="sans-serif" font-size="11.7" lengthAdjust="spacing" textLength="172.8" x="393.3" y="257.153">getAverageLendings(query, page)</text><polygon fill="#181818" points="778.5,289.1514,787.5,292.7514,778.5,296.3514,782.1,292.7514" style="stroke:#181818;stroke-width:0.9;"/><line style="stroke:#181818;stroke-width:0.9;" x1="585.9" x2="783.9" y1="292.7514" y2="292.7514"/><text fill="#000000" font-family="sans-serif" font-size="11.7" font-weight="bold" lengthAdjust="spacing" textLength="6.3" x="592.2" y="288.0149">4</text><text fill="#000000" font-family="sans-serif" font-size="11.7" lengthAdjust="spacing" textLength="176.4" x="602.1" y="288.0149">getAverageLendings(month, page)</text><path d="M802.8,273.5895 L802.8,297.8895 L913.5,297.8895 L913.5,282.5895 L904.5,273.5895 L802.8,273.5895 " fill="#FEFFDD" style="stroke:#181818;stroke-width:0.45;"/><path d="M904.5,273.5895 L904.5,282.5895 L913.5,282.5895 L904.5,273.5895 " fill="#FEFFDD" style="stroke:#181818;stroke-width:0.45;"/><text fill="#000000" font-family="sans-serif" font-size="11.7" lengthAdjust="spacing" textLength="91.8" x="808.2" y="290.7149">(Details ommited)</text><polygon fill="#181818" points="595.8,320.0133,586.8,323.6133,595.8,327.2133,592.2,323.6133" style="stroke:#181818;stroke-width:0.9;"/><line style="stroke:#181818;stroke-width:0.9;stroke-dasharray:2.0,2.0;" x1="590.4" x2="792.9" y1="323.6133" y2="323.6133"/><text fill="#000000" font-family="sans-serif" font-size="11.7" font-weight="bold" lengthAdjust="spacing" textLength="6.3" x="601.2" y="318.8769">5</text><text fill="#000000" font-family="sans-serif" font-size="11.7" lengthAdjust="spacing" textLength="161.1" x="611.1" y="318.8769">(genreAverageLendingsDtoList)</text><polygon fill="#181818" points="387,348.1752,378,351.7752,387,355.3752,383.4,351.7752" style="stroke:#181818;stroke-width:0.9;"/><line style="stroke:#181818;stroke-width:0.9;stroke-dasharray:2.0,2.0;" x1="381.6" x2="580.5" y1="351.7752" y2="351.7752"/><text fill="#000000" font-family="sans-serif" font-size="11.7" font-weight="bold" lengthAdjust="spacing" textLength="6.3" x="392.4" y="347.0388">6</text><text fill="#000000" font-family="sans-serif" font-size="11.7" lengthAdjust="spacing" textLength="161.1" x="402.3" y="347.0388">(genreAverageLendingsDtoList)</text><polygon fill="#181818" points="904.95,376.3371,913.95,379.9371,904.95,383.5371,908.55,379.9371" style="stroke:#181818;stroke-width:0.9;"/><line style="stroke:#181818;stroke-width:0.9;" x1="377.1" x2="910.35" y1="379.9371" y2="379.9371"/><text fill="#000000" font-family="sans-serif" font-size="11.7" font-weight="bold" lengthAdjust="spacing" textLength="6.3" x="383.4" y="375.2007">7</text><text fill="#000000" font-family="sans-serif" font-size="11.7" lengthAdjust="spacing" textLength="293.4" x="393.3" y="375.2007">toGenreAvgLendingsView(genreAverageLendingsDtoList)</text><polygon fill="#181818" points="387,404.499,378,408.099,387,411.699,383.4,408.099" style="stroke:#181818;stroke-width:0.9;"/><line style="stroke:#181818;stroke-width:0.9;stroke-dasharray:2.0,2.0;" x1="381.6" x2="919.35" y1="408.099" y2="408.099"/><text fill="#000000" font-family="sans-serif" font-size="11.7" font-weight="bold" lengthAdjust="spacing" textLength="6.3" x="392.4" y="403.3626">8</text><text fill="#000000" font-family="sans-serif" font-size="11.7" lengthAdjust="spacing" textLength="145.8" x="402.3" y="403.3626">(genreAvgLendingsViewList)</text><polygon fill="#181818" points="200.7,432.6609,191.7,436.2609,200.7,439.8609,197.1,436.2609" style="stroke:#181818;stroke-width:0.9;"/><line style="stroke:#181818;stroke-width:0.9;stroke-dasharray:2.0,2.0;" x1="195.3" x2="371.7" y1="436.2609" y2="436.2609"/><text fill="#000000" font-family="sans-serif" font-size="11.7" font-weight="bold" lengthAdjust="spacing" textLength="6.3" x="206.1" y="431.5245">9</text><text fill="#000000" font-family="sans-serif" font-size="11.7" lengthAdjust="spacing" textLength="145.8" x="216" y="431.5245">(genreAvgLendingsViewList)</text><polygon fill="#181818" points="58.5,491.9467,49.5,495.5467,58.5,499.1467,54.9,495.5467" style="stroke:#181818;stroke-width:0.9;"/><line style="stroke:#181818;stroke-width:0.9;stroke-dasharray:2.0,2.0;" x1="53.1" x2="185.4" y1="495.5467" y2="495.5467"/><text fill="#000000" font-family="sans-serif" font-size="11.7" font-weight="bold" lengthAdjust="spacing" textLength="12.6" x="63.9" y="475.2483">10</text><text fill="#000000" font-family="sans-serif" font-size="11.7" lengthAdjust="spacing" textLength="81" x="80.1" y="459.6864">(array of genres</text><text fill="#000000" font-family="sans-serif" font-size="11.7" lengthAdjust="spacing" textLength="85.5" x="80.1" y="475.2483">and their lending</text><text fill="#000000" font-family="sans-serif" font-size="11.7" lengthAdjust="spacing" textLength="49.5" x="80.1" y="490.8103">averages)</text><!--SRC=[VLB1Rjim3BthAuZii0HO6WpeoGC6R2tGImOKBT1UUb4TnY5WInh5fCZVZv9irntS-4HJxpsIZ_nw40cnscn2QvqSk_QgzjqcujyZkXhNEx8DsyxOetXR2vsi87YN_zsnUqKsHaXQXEVxBzU_hxvVmnqA_3eXsmPXYsv7hebmZwmFZj4ObV4CYoszicMoRW4smlXdWcMXce9s0ul7SnJiCgA47v-hB7dZdR1lM-GCl15kvs2Fo2UgiOYLU0xsWC57qXRF6Jdcvh1FX6z_R0XzvH8QutmoIIru7mkgIKpnnQc11tGgg8RkZ7b_NF_iHwsWKITjxsJRE_dYzkfU35ZJdd07dGv_C8MHk6dwpEnNC6nWgGlby-g7IO1Sf5ZmEVOR1CsjJ0zCdD6CMLPkPM1b3vYQWnZGRtcBOgcDuBkETEALKHOaa1b5OJrjQzca_7yrRiLlASgagN7ao_XXwhAY2iJV5NWpGDCkBsiKxap93nhJUfDTNi0EorFqU0PAiCps37uFcPbEHXtJeo4UZa5JfTMuCly0]--></g></svg>