<?xml version="1.0" encoding="us-ascii" standalone="no"?><svg xmlns="http://www.w3.org/2000/svg" xmlns:xlink="http://www.w3.org/1999/xlink" contentStyleType="text/css" height="453.6px" preserveAspectRatio="none" style="width:849px;height:453px;background:#FFFFFF;" version="1.1" viewBox="0 0 849 453" width="849px" zoomAndPan="magnify"><defs/><g><text fill="#000000" font-family="sans-serif" font-size="8.4" font-weight="bold" lengthAdjust="spacing" textLength="102.6" x="369.15" y="15.0645">PSOFT-G1 Rest Mapping</text><!--class Resource--><g id="elem_Resource"><rect codeLine="7" fill="#F1F1F1" height="92.2125" id="Resource" rx="1.5" ry="1.5" style="stroke:#181818;stroke-width:0.3;" width="39.6" x="460.8" y="27.9727"/><text fill="#000000" font-family="sans-serif" font-size="7.2" font-style="italic" lengthAdjust="spacing" textLength="36.6" x="462.3" y="38.7422">&#171;interface&#187;</text><text fill="#000000" font-family="sans-serif" font-size="8.4" lengthAdjust="spacing" textLength="13.8" x="473.7" y="49.6137">/api</text><line style="stroke:#181818;stroke-width:0.3;" x1="461.4" x2="499.8" y1="54.7219" y2="54.7219"/><text fill="#000000" font-family="sans-serif" font-size="8.4" lengthAdjust="spacing" textLength="17.4" x="464.4" y="66.1863">GET</text><text fill="#000000" font-family="sans-serif" font-size="8.4" lengthAdjust="spacing" textLength="16.2" x="464.4" y="77.359">PUT</text><text fill="#000000" font-family="sans-serif" font-size="8.4" lengthAdjust="spacing" textLength="27.6" x="464.4" y="88.5316">PATCH</text><text fill="#000000" font-family="sans-serif" font-size="8.4" lengthAdjust="spacing" textLength="22.8" x="464.4" y="99.7043">POST</text><text fill="#000000" font-family="sans-serif" font-size="8.4" lengthAdjust="spacing" textLength="32.4" x="464.4" y="110.877">DELETE</text><line style="stroke:#181818;stroke-width:0.3;" x1="461.4" x2="499.8" y1="115.3852" y2="115.3852"/></g><!--class /readers--><g id="elem_/readers"><rect codeLine="15" fill="#F1F1F1" height="37.9453" id="/readers" rx="1.5" ry="1.5" style="stroke:#181818;stroke-width:0.3;" width="180.6" x="69.9" y="156.3727"/><text fill="#000000" font-family="sans-serif" font-size="8.4" lengthAdjust="spacing" textLength="31.8" x="144.3" y="168.4371">/readers</text><line style="stroke:#181818;stroke-width:0.3;" x1="70.5" x2="249.9" y1="173.5453" y2="173.5453"/><line style="stroke:#181818;stroke-width:0.3;" x1="70.5" x2="249.9" y1="178.3453" y2="178.3453"/><text fill="#000000" font-family="sans-serif" font-size="8.4" lengthAdjust="spacing" textLength="173.4" x="73.5" y="189.8098">POST : create an entity in the collection (A11)</text></g><!--class SearchReader--><g id="elem_SearchReader"><rect codeLine="20" fill="#F1F1F1" height="49.118" id="SearchReader" rx="1.5" ry="1.5" style="stroke:#181818;stroke-width:0.3;" width="72" x="4.2" y="241.2727"/><text fill="#000000" font-family="sans-serif" font-size="8.4" lengthAdjust="spacing" textLength="57.6" x="11.4" y="253.3371">?name={name}</text><line style="stroke:#181818;stroke-width:0.3;" x1="4.8" x2="75.6" y1="258.4453" y2="258.4453"/><line style="stroke:#181818;stroke-width:0.3;" x1="4.8" x2="75.6" y1="263.2453" y2="263.2453"/><text fill="#000000" font-family="sans-serif" font-size="8.4" lengthAdjust="spacing" textLength="64.8" x="7.8" y="274.7098">GET : get filtered</text><text fill="#000000" font-family="sans-serif" font-size="8.4" lengthAdjust="spacing" textLength="50.4" x="10.2" y="285.8824">entities (A14)</text></g><!--class ReaderID--><g id="elem_ReaderID"><rect codeLine="24" fill="#F1F1F1" height="60.2906" id="ReaderID" rx="1.5" ry="1.5" style="stroke:#181818;stroke-width:0.3;" width="125.4" x="97.5" y="235.8727"/><text fill="#000000" font-family="sans-serif" font-size="8.4" lengthAdjust="spacing" textLength="47.4" x="136.5" y="247.9371">/{year}/{seq}</text><line style="stroke:#181818;stroke-width:0.3;" x1="98.1" x2="222.3" y1="253.0453" y2="253.0453"/><line style="stroke:#181818;stroke-width:0.3;" x1="98.1" x2="222.3" y1="257.8453" y2="257.8453"/><text fill="#000000" font-family="sans-serif" font-size="8.4" lengthAdjust="spacing" textLength="118.2" x="101.1" y="269.3098">GET : get specific reader (A13)</text><text fill="#000000" font-family="sans-serif" font-size="8.4" lengthAdjust="spacing" textLength="91.8" x="101.1" y="280.4824">PATCH : update specific</text><text fill="#000000" font-family="sans-serif" font-size="8.4" lengthAdjust="spacing" textLength="75.6" x="122.7" y="291.6551">reader details (A12)</text></g><!--class ReaderLendings--><g id="elem_ReaderLendings"><rect codeLine="29" fill="#F1F1F1" height="26.7727" id="ReaderLendings" rx="1.5" ry="1.5" style="stroke:#181818;stroke-width:0.3;" width="37.8" x="141.3" y="337.5727"/><text fill="#000000" font-family="sans-serif" font-size="8.4" lengthAdjust="spacing" textLength="34.2" x="143.1" y="349.6371">/lendings</text><line style="stroke:#181818;stroke-width:0.3;" x1="141.9" x2="178.5" y1="354.7453" y2="354.7453"/><line style="stroke:#181818;stroke-width:0.3;" x1="141.9" x2="178.5" y1="359.5453" y2="359.5453"/></g><!--class ?isbn={isbn}--><g id="elem_?isbn={isbn}"><rect codeLine="32" fill="#F1F1F1" height="49.118" id="?isbn={isbn}" rx="1.5" ry="1.5" style="stroke:#181818;stroke-width:0.3;" width="110.4" x="105" y="400.5727"/><text fill="#000000" font-family="sans-serif" font-size="8.4" lengthAdjust="spacing" textLength="46.8" x="136.8" y="412.6371">?isbn={isbn}</text><line style="stroke:#181818;stroke-width:0.3;" x1="105.6" x2="214.8" y1="417.7453" y2="417.7453"/><line style="stroke:#181818;stroke-width:0.3;" x1="105.6" x2="214.8" y1="422.5453" y2="422.5453"/><text fill="#000000" font-family="sans-serif" font-size="8.4" lengthAdjust="spacing" textLength="103.2" x="108.6" y="434.0098">GET : lendings of a reader,</text><text fill="#000000" font-family="sans-serif" font-size="8.4" lengthAdjust="spacing" textLength="90.6" x="111" y="445.1824">searched by ISBN (A16)</text></g><!--class /authors--><g id="elem_/authors"><rect codeLine="36" fill="#F1F1F1" height="37.9453" id="/authors" rx="1.5" ry="1.5" style="stroke:#181818;stroke-width:0.3;" width="175.8" x="330.9" y="156.3727"/><text fill="#000000" font-family="sans-serif" font-size="8.4" lengthAdjust="spacing" textLength="31.2" x="403.2" y="168.4371">/authors</text><line style="stroke:#181818;stroke-width:0.3;" x1="331.5" x2="506.1" y1="173.5453" y2="173.5453"/><line style="stroke:#181818;stroke-width:0.3;" x1="331.5" x2="506.1" y1="178.3453" y2="178.3453"/><text fill="#000000" font-family="sans-serif" font-size="8.4" lengthAdjust="spacing" textLength="168.6" x="334.5" y="189.8098">POST : create an entity in the collection (A3)</text></g><!--class AuthorID--><g id="elem_AuthorID"><rect codeLine="41" fill="#F1F1F1" height="60.2906" id="AuthorID" rx="1.5" ry="1.5" style="stroke:#181818;stroke-width:0.3;" width="120" x="244.2" y="235.8727"/><text fill="#000000" font-family="sans-serif" font-size="8.4" lengthAdjust="spacing" textLength="15" x="296.7" y="247.9371">/{id}</text><line style="stroke:#181818;stroke-width:0.3;" x1="244.8" x2="363.6" y1="253.0453" y2="253.0453"/><line style="stroke:#181818;stroke-width:0.3;" x1="244.8" x2="363.6" y1="257.8453" y2="257.8453"/><text fill="#000000" font-family="sans-serif" font-size="8.4" lengthAdjust="spacing" textLength="112.8" x="247.8" y="269.3098">GET : get specific author (A5)</text><text fill="#000000" font-family="sans-serif" font-size="8.4" lengthAdjust="spacing" textLength="91.8" x="247.8" y="280.4824">PATCH : update specific</text><text fill="#000000" font-family="sans-serif" font-size="8.4" lengthAdjust="spacing" textLength="70.2" x="250.2" y="291.6551">author details (A4)</text></g><!--class SearchAuthor--><g id="elem_SearchAuthor"><rect codeLine="52" fill="#F1F1F1" height="49.118" id="SearchAuthor" rx="1.5" ry="1.5" style="stroke:#181818;stroke-width:0.3;" width="72" x="385.2" y="241.2727"/><text fill="#000000" font-family="sans-serif" font-size="8.4" lengthAdjust="spacing" textLength="57.6" x="392.4" y="253.3371">?name={name}</text><line style="stroke:#181818;stroke-width:0.3;" x1="385.8" x2="456.6" y1="258.4453" y2="258.4453"/><line style="stroke:#181818;stroke-width:0.3;" x1="385.8" x2="456.6" y1="263.2453" y2="263.2453"/><text fill="#000000" font-family="sans-serif" font-size="8.4" lengthAdjust="spacing" textLength="64.8" x="388.8" y="274.7098">GET : get filtered</text><text fill="#000000" font-family="sans-serif" font-size="8.4" lengthAdjust="spacing" textLength="45.6" x="391.2" y="285.8824">entities (A6)</text></g><!--class /books--><g id="elem_/books"><rect codeLine="56" fill="#F1F1F1" height="26.7727" id="/books" rx="1.5" ry="1.5" style="stroke:#181818;stroke-width:0.3;" width="28.8" x="528" y="161.7727"/><text fill="#000000" font-family="sans-serif" font-size="8.4" lengthAdjust="spacing" textLength="25.2" x="529.8" y="173.8371">/books</text><line style="stroke:#181818;stroke-width:0.3;" x1="528.6" x2="556.2" y1="178.9453" y2="178.9453"/><line style="stroke:#181818;stroke-width:0.3;" x1="528.6" x2="556.2" y1="183.7453" y2="183.7453"/></g><!--class /{isbn}--><g id="elem_/{isbn}"><rect codeLine="59" fill="#F1F1F1" height="71.4633" id="/{isbn}" rx="1.5" ry="1.5" style="stroke:#181818;stroke-width:0.3;" width="124.8" x="478.2" y="230.1727"/><text fill="#000000" font-family="sans-serif" font-size="8.4" lengthAdjust="spacing" textLength="24" x="528.6" y="242.2371">/{isbn}</text><line style="stroke:#181818;stroke-width:0.3;" x1="478.8" x2="602.4" y1="247.3453" y2="247.3453"/><line style="stroke:#181818;stroke-width:0.3;" x1="478.8" x2="602.4" y1="252.1453" y2="252.1453"/><text fill="#000000" font-family="sans-serif" font-size="8.4" lengthAdjust="spacing" textLength="106.8" x="481.8" y="263.6098">GET : get specific book (A9)</text><text fill="#000000" font-family="sans-serif" font-size="8.4" lengthAdjust="spacing" textLength="117.6" x="481.8" y="274.7824">PUT : create specific book (A7)</text><text fill="#000000" font-family="sans-serif" font-size="8.4" lengthAdjust="spacing" textLength="91.8" x="481.8" y="285.9551">PATCH : update specific</text><text fill="#000000" font-family="sans-serif" font-size="8.4" lengthAdjust="spacing" textLength="64.2" x="484.2" y="297.1277">book details (A8)</text></g><!--class ?genre={genre}--><g id="elem_?genre={genre}"><rect codeLine="65" fill="#F1F1F1" height="49.118" id="?genre={genre}" rx="1.5" ry="1.5" style="stroke:#181818;stroke-width:0.3;" width="72" x="624" y="241.2727"/><text fill="#000000" font-family="sans-serif" font-size="8.4" lengthAdjust="spacing" textLength="60" x="630" y="253.3371">?genre={genre}</text><line style="stroke:#181818;stroke-width:0.3;" x1="624.6" x2="695.4" y1="258.4453" y2="258.4453"/><line style="stroke:#181818;stroke-width:0.3;" x1="624.6" x2="695.4" y1="263.2453" y2="263.2453"/><text fill="#000000" font-family="sans-serif" font-size="8.4" lengthAdjust="spacing" textLength="64.8" x="627.6" y="274.7098">GET : get filtered</text><text fill="#000000" font-family="sans-serif" font-size="8.4" lengthAdjust="spacing" textLength="45.6" x="630" y="285.8824">entities (A6)</text></g><!--class /lendings--><g id="elem_/lendings"><rect codeLine="69" fill="#F1F1F1" height="37.9453" id="/lendings" rx="1.5" ry="1.5" style="stroke:#181818;stroke-width:0.3;" width="180.6" x="635.1" y="156.3727"/><text fill="#000000" font-family="sans-serif" font-size="8.4" lengthAdjust="spacing" textLength="34.2" x="708.3" y="168.4371">/lendings</text><line style="stroke:#181818;stroke-width:0.3;" x1="635.7" x2="815.1" y1="173.5453" y2="173.5453"/><line style="stroke:#181818;stroke-width:0.3;" x1="635.7" x2="815.1" y1="178.3453" y2="178.3453"/><text fill="#000000" font-family="sans-serif" font-size="8.4" lengthAdjust="spacing" textLength="173.4" x="638.7" y="189.8098">POST : create an entity in the collection (A15)</text></g><!--class LendingID--><g id="elem_LendingID"><rect codeLine="73" fill="#F1F1F1" height="60.2906" id="LendingID" rx="1.5" ry="1.5" style="stroke:#181818;stroke-width:0.3;" width="127.8" x="717.3" y="235.8727"/><text fill="#000000" font-family="sans-serif" font-size="8.4" lengthAdjust="spacing" textLength="47.4" x="757.5" y="247.9371">/{year}/{seq}</text><line style="stroke:#181818;stroke-width:0.3;" x1="717.9" x2="844.5" y1="253.0453" y2="253.0453"/><line style="stroke:#181818;stroke-width:0.3;" x1="717.9" x2="844.5" y1="257.8453" y2="257.8453"/><text fill="#000000" font-family="sans-serif" font-size="8.4" lengthAdjust="spacing" textLength="120.6" x="720.9" y="269.3098">GET : get specific lending (A17)</text><text fill="#000000" font-family="sans-serif" font-size="8.4" lengthAdjust="spacing" textLength="91.2" x="720.9" y="280.4824">PATCH : update lending</text><text fill="#000000" font-family="sans-serif" font-size="8.4" lengthAdjust="spacing" textLength="73.2" x="723.3" y="291.6551">(return book) (A16)</text></g><!--reverse link Resource to /readers--><g id="link_Resource_/readers"><path d="M450.4894,84.161 C403.1434,98.921 292.212,133.5127 218.982,156.3427 " fill="none" id="Resource-backto-/readers" style="stroke:#181818;stroke-width:0.6;"/><polygon fill="none" points="460.8,80.9467,449.418,80.7241,451.5608,87.5978,460.8,80.9467" style="stroke:#181818;stroke-width:0.6;"/></g><!--reverse link /readers to SearchReader--><g id="link_/readers_SearchReader"><path d="M126.7645,200.6177 C112.5685,211.1297 103.11,218.1607 87,230.1727 C82.194,233.7547 77.124,237.5527 72.156,241.2727 " fill="none" id="/readers-backto-SearchReader" style="stroke:#181818;stroke-width:0.6;"/><polygon fill="none" points="135.444,194.1907,124.6222,197.7246,128.9069,203.5109,135.444,194.1907" style="stroke:#181818;stroke-width:0.6;"/></g><!--reverse link /readers to ReaderID--><g id="link_/readers_ReaderID"><path d="M160.2,204.9787 C160.2,216.9307 160.2,222.0127 160.2,235.7287 " fill="none" id="/readers-backto-ReaderID" style="stroke:#181818;stroke-width:0.6;"/><polygon fill="none" points="160.2,194.1787,156.6,204.9787,163.8,204.9787,160.2,194.1787" style="stroke:#181818;stroke-width:0.6;"/></g><!--reverse link ReaderID to ReaderLendings--><g id="link_ReaderID_ReaderLendings"><path d="M160.2,306.8887 C160.2,321.0607 160.2,326.4967 160.2,337.5127 " fill="none" id="ReaderID-backto-ReaderLendings" style="stroke:#181818;stroke-width:0.6;"/><polygon fill="none" points="160.2,296.0887,156.6,306.8887,163.8,306.8887,160.2,296.0887" style="stroke:#181818;stroke-width:0.6;"/></g><!--reverse link ReaderLendings to ?isbn={isbn}--><g id="link_ReaderLendings_?isbn={isbn}"><path d="M160.2,375.5047 C160.2,385.4167 160.2,388.5307 160.2,400.4527 " fill="none" id="ReaderLendings-backto-?isbn={isbn}" style="stroke:#181818;stroke-width:0.6;"/><polygon fill="none" points="160.2,364.7047,156.6,375.5047,163.8,375.5047,160.2,364.7047" style="stroke:#181818;stroke-width:0.6;"/></g><!--reverse link Resource to /authors--><g id="link_Resource_/authors"><path d="M455.0223,116.1173 C444.9303,132.4313 438.72,142.4707 430.188,156.2647 " fill="none" id="Resource-backto-/authors" style="stroke:#181818;stroke-width:0.6;"/><polygon fill="none" points="460.704,106.9327,451.9607,114.2234,458.0838,118.0112,460.704,106.9327" style="stroke:#181818;stroke-width:0.6;"/></g><!--reverse link /authors to AuthorID--><g id="link_/authors_AuthorID"><path d="M386.818,200.8208 C371.494,212.7728 359.658,222.0127 342.072,235.7287 " fill="none" id="/authors-backto-AuthorID" style="stroke:#181818;stroke-width:0.6;"/><polygon fill="none" points="395.334,194.1787,384.6039,197.9821,389.032,203.6594,395.334,194.1787" style="stroke:#181818;stroke-width:0.6;"/></g><!--reverse link /authors to SearchAuthor--><g id="link_/authors_SearchAuthor"><path d="M419.5828,204.9747 C419.9488,218.5647 420.156,226.4287 420.552,241.2187 " fill="none" id="/authors-backto-SearchAuthor" style="stroke:#181818;stroke-width:0.6;"/><polygon fill="none" points="419.292,194.1787,415.9841,205.0717,423.1815,204.8778,419.292,194.1787" style="stroke:#181818;stroke-width:0.6;"/></g><!--reverse link Resource to /books--><g id="link_Resource_/books"><path d="M506.1776,116.1174 C517.6796,134.7114 525.84,147.9067 534.384,161.7127 " fill="none" id="Resource-backto-/books" style="stroke:#181818;stroke-width:0.6;"/><polygon fill="none" points="500.496,106.9327,503.116,118.0113,509.2392,114.2236,500.496,106.9327" style="stroke:#181818;stroke-width:0.6;"/></g><!--reverse link /books to /{isbn}--><g id="link_/books_/{isbn}"><path d="M541.9199,199.6725 C541.7039,210.4665 541.602,215.5567 541.308,230.0467 " fill="none" id="/books-backto-/{isbn}" style="stroke:#181818;stroke-width:0.6;"/><polygon fill="none" points="542.136,188.8747,538.3206,199.6005,545.5192,199.7445,542.136,188.8747" style="stroke:#181818;stroke-width:0.6;"/></g><!--reverse link /books to ?genre={genre}--><g id="link_/books_?genre={genre}"><path d="M565.4163,193.3699 C583.1463,206.8459 605.136,223.5607 628.416,241.2667 " fill="none" id="/books-backto-?genre={genre}" style="stroke:#181818;stroke-width:0.6;"/><polygon fill="none" points="556.818,186.8347,563.2378,196.236,567.5947,190.5038,556.818,186.8347" style="stroke:#181818;stroke-width:0.6;"/></g><!--reverse link Resource to /lendings--><g id="link_Resource_/lendings"><path d="M510.4232,86.9417 C549.3512,102.8297 626.658,134.3767 680.34,156.2827 " fill="none" id="Resource-backto-/lendings" style="stroke:#181818;stroke-width:0.6;"/><polygon fill="none" points="500.424,82.8607,509.0629,90.2748,511.7836,83.6086,500.424,82.8607" style="stroke:#181818;stroke-width:0.6;"/></g><!--reverse link /lendings to LendingID--><g id="link_/lendings_LendingID"><path d="M742.5447,203.3391 C750.0087,215.2911 754.2,222.0127 762.762,235.7287 " fill="none" id="/lendings-backto-LendingID" style="stroke:#181818;stroke-width:0.6;"/><polygon fill="none" points="736.824,194.1787,739.4912,205.246,745.5982,201.4322,736.824,194.1787" style="stroke:#181818;stroke-width:0.6;"/></g><!--SRC=[jPHTRzem58RlyokEkA58cpBMTLzgEy7AEgHkhHfsnurn3c3LTJBRaSOY_ljinyu7BODTZ8iunCVlUSvxRAzPYa2Pf1mZzS14JYHv1Cg9KYEj9LiK6gSq4mdxZV0gYZJJ7E4kkVqoUtazX7jK6hwHF6TY5KLk6VHYahCU46Ldiq9IXFDp9ZJA9Q5uULb6O7xNavaRxtxuSJJx_BLwkqsgJrUJcybi4cqROOaaHQbwWByqYhJ9K4PzBmeVOOKQ2EU0mj0oLBMgcQD6GYCGKSrkW0dGQsD1nZbIpJ819wFXSD3A-acGHxmexNFhoagGIBg-TomrIGDNr-THbeoRsZ6TYvh8vdZJpX6N6oEwZKk5FxVUEwislJeYWSgHiYMZK0LOyTD1Owg9AlBKLXq2vsAkGt2AcZ3kY5vtYBZ9QhggMZGt_bFB_WgoRDl5r49SbFQvxUr41e5s1I4FP4iWdkg5yKevbp65nGQcoVYx9NpR8II5NcV_VpUSTXl5qgf18vUzqw00jBT1LO3HF3lGdn3PTAVQBd6_1bbasODgaOpj_necqEsYk5NMqe0oTiBz-D1shmIFAFRvxTxjd6T_shUEqTqT55RjDTTEcqmV1k5UQHgy6_FkaFqkhZ7_VUS-MA6GnY4t705uZ27DONlgoJ_VNcT_lrdy8Upit3h_NdTzXDL_tZqVOAeyaQWBMPaug8_j7m00]--></g></svg>