<?xml version="1.0" encoding="us-ascii" standalone="no"?><svg xmlns="http://www.w3.org/2000/svg" xmlns:xlink="http://www.w3.org/1999/xlink" contentStyleType="text/css" height="589px" preserveAspectRatio="none" style="width:1285px;height:589px;background:#FFFFFF;" version="1.1" viewBox="0 0 1285 589" width="1285px" zoomAndPan="magnify"><defs/><g><line style="stroke:#181818;stroke-width:0.5;stroke-dasharray:5.0,5.0;" x1="28" x2="28" y1="81.2969" y2="509.1563"/><line style="stroke:#181818;stroke-width:0.5;stroke-dasharray:5.0,5.0;" x1="239" x2="239" y1="81.2969" y2="509.1563"/><line style="stroke:#181818;stroke-width:0.5;stroke-dasharray:5.0,5.0;" x1="544" x2="544" y1="81.2969" y2="509.1563"/><line style="stroke:#181818;stroke-width:0.5;stroke-dasharray:5.0,5.0;" x1="809.5" x2="809.5" y1="81.2969" y2="509.1563"/><line style="stroke:#181818;stroke-width:0.5;stroke-dasharray:5.0,5.0;" x1="951.5" x2="951.5" y1="81.2969" y2="509.1563"/><line style="stroke:#181818;stroke-width:0.5;stroke-dasharray:5.0,5.0;" x1="1093.5" x2="1093.5" y1="81.2969" y2="509.1563"/><line style="stroke:#181818;stroke-width:0.5;stroke-dasharray:5.0,5.0;" x1="1225.5" x2="1225.5" y1="81.2969" y2="509.1563"/><text fill="#000000" font-family="sans-serif" font-size="14" lengthAdjust="spacing" textLength="41" x="5" y="77.9951">Client</text><ellipse cx="28.5" cy="13.5" fill="#E2E2F0" rx="8" ry="8" style="stroke:#181818;stroke-width:0.5;"/><path d="M28.5,21.5 L28.5,48.5 M15.5,29.5 L41.5,29.5 M28.5,48.5 L15.5,63.5 M28.5,48.5 L41.5,63.5 " fill="none" style="stroke:#181818;stroke-width:0.5;"/><text fill="#000000" font-family="sans-serif" font-size="14" lengthAdjust="spacing" textLength="41" x="5" y="521.1514">Client</text><ellipse cx="28.5" cy="532.9531" fill="#E2E2F0" rx="8" ry="8" style="stroke:#181818;stroke-width:0.5;"/><path d="M28.5,540.9531 L28.5,567.9531 M15.5,548.9531 L41.5,548.9531 M28.5,567.9531 L15.5,582.9531 M28.5,567.9531 L41.5,582.9531 " fill="none" style="stroke:#181818;stroke-width:0.5;"/><rect fill="#E2E2F0" height="30.2969" rx="2.5" ry="2.5" style="stroke:#181818;stroke-width:0.5;" width="85" x="197" y="50"/><text fill="#000000" font-family="sans-serif" font-size="14" lengthAdjust="spacing" textLength="71" x="204" y="69.9951">Controller</text><rect fill="#E2E2F0" height="30.2969" rx="2.5" ry="2.5" style="stroke:#181818;stroke-width:0.5;" width="85" x="197" y="508.1563"/><text fill="#000000" font-family="sans-serif" font-size="14" lengthAdjust="spacing" textLength="71" x="204" y="528.1514">Controller</text><rect fill="#E2E2F0" height="30.2969" rx="2.5" ry="2.5" style="stroke:#181818;stroke-width:0.5;" width="115" x="487" y="50"/><text fill="#000000" font-family="sans-serif" font-size="14" lengthAdjust="spacing" textLength="101" x="494" y="69.9951">AuthorService</text><rect fill="#E2E2F0" height="30.2969" rx="2.5" ry="2.5" style="stroke:#181818;stroke-width:0.5;" width="115" x="487" y="508.1563"/><text fill="#000000" font-family="sans-serif" font-size="14" lengthAdjust="spacing" textLength="101" x="494" y="528.1514">AuthorService</text><rect fill="#E2E2F0" height="30.2969" rx="2.5" ry="2.5" style="stroke:#181818;stroke-width:0.5;" width="138" x="740.5" y="50"/><text fill="#000000" font-family="sans-serif" font-size="14" lengthAdjust="spacing" textLength="124" x="747.5" y="69.9951">AuthorRepository</text><rect fill="#E2E2F0" height="30.2969" rx="2.5" ry="2.5" style="stroke:#181818;stroke-width:0.5;" width="138" x="740.5" y="508.1563"/><text fill="#000000" font-family="sans-serif" font-size="14" lengthAdjust="spacing" textLength="124" x="747.5" y="528.1514">AuthorRepository</text><rect fill="#E2E2F0" height="30.2969" rx="2.5" ry="2.5" style="stroke:#181818;stroke-width:0.5;" width="126" x="888.5" y="50"/><text fill="#000000" font-family="sans-serif" font-size="14" lengthAdjust="spacing" textLength="112" x="895.5" y="69.9951">BookRepository</text><rect fill="#E2E2F0" height="30.2969" rx="2.5" ry="2.5" style="stroke:#181818;stroke-width:0.5;" width="126" x="888.5" y="508.1563"/><text fill="#000000" font-family="sans-serif" font-size="14" lengthAdjust="spacing" textLength="112" x="895.5" y="528.1514">BookRepository</text><rect fill="#E2E2F0" height="30.2969" rx="2.5" ry="2.5" style="stroke:#181818;stroke-width:0.5;" width="138" x="1024.5" y="50"/><text fill="#000000" font-family="sans-serif" font-size="14" lengthAdjust="spacing" textLength="124" x="1031.5" y="69.9951">BookViewMapper</text><rect fill="#E2E2F0" height="30.2969" rx="2.5" ry="2.5" style="stroke:#181818;stroke-width:0.5;" width="138" x="1024.5" y="508.1563"/><text fill="#000000" font-family="sans-serif" font-size="14" lengthAdjust="spacing" textLength="124" x="1031.5" y="528.1514">BookViewMapper</text><rect fill="#E2E2F0" height="30.2969" rx="2.5" ry="2.5" style="stroke:#181818;stroke-width:0.5;" width="107" x="1172.5" y="50"/><text fill="#000000" font-family="sans-serif" font-size="14" lengthAdjust="spacing" textLength="93" x="1179.5" y="69.9951">ListResponse</text><rect fill="#E2E2F0" height="30.2969" rx="2.5" ry="2.5" style="stroke:#181818;stroke-width:0.5;" width="107" x="1172.5" y="508.1563"/><text fill="#000000" font-family="sans-serif" font-size="14" lengthAdjust="spacing" textLength="93" x="1179.5" y="528.1514">ListResponse</text><polygon fill="#181818" points="227.5,108.4297,237.5,112.4297,227.5,116.4297,231.5,112.4297" style="stroke:#181818;stroke-width:1.0;"/><line style="stroke:#181818;stroke-width:1.0;" x1="28.5" x2="233.5" y1="112.4297" y2="112.4297"/><text fill="#000000" font-family="sans-serif" font-size="13" lengthAdjust="spacing" textLength="187" x="35.5" y="107.3638">GET /{authorNumber}/books</text><polygon fill="#181818" points="532.5,137.5625,542.5,141.5625,532.5,145.5625,536.5,141.5625" style="stroke:#181818;stroke-width:1.0;"/><line style="stroke:#181818;stroke-width:1.0;" x1="239.5" x2="538.5" y1="141.5625" y2="141.5625"/><text fill="#000000" font-family="sans-serif" font-size="13" lengthAdjust="spacing" textLength="241" x="246.5" y="136.4966">findByAuthorNumber(authorNumber)</text><polygon fill="#181818" points="797.5,166.6953,807.5,170.6953,797.5,174.6953,801.5,170.6953" style="stroke:#181818;stroke-width:1.0;"/><line style="stroke:#181818;stroke-width:1.0;" x1="544.5" x2="803.5" y1="170.6953" y2="170.6953"/><text fill="#000000" font-family="sans-serif" font-size="13" lengthAdjust="spacing" textLength="241" x="551.5" y="165.6294">findByAuthorNumber(authorNumber)</text><polygon fill="#181818" points="555.5,195.8281,545.5,199.8281,555.5,203.8281,551.5,199.8281" style="stroke:#181818;stroke-width:1.0;"/><line style="stroke:#181818;stroke-width:1.0;" x1="549.5" x2="808.5" y1="199.8281" y2="199.8281"/><text fill="#000000" font-family="sans-serif" font-size="13" lengthAdjust="spacing" textLength="190" x="561.5" y="194.7622">Author or NotFoundException</text><polygon fill="#181818" points="250.5,224.9609,240.5,228.9609,250.5,232.9609,246.5,228.9609" style="stroke:#181818;stroke-width:1.0;"/><line style="stroke:#181818;stroke-width:1.0;" x1="244.5" x2="543.5" y1="228.9609" y2="228.9609"/><text fill="#000000" font-family="sans-serif" font-size="13" lengthAdjust="spacing" textLength="43" x="256.5" y="223.895">Author</text><polygon fill="#181818" points="532.5,254.0938,542.5,258.0938,532.5,262.0938,536.5,258.0938" style="stroke:#181818;stroke-width:1.0;"/><line style="stroke:#181818;stroke-width:1.0;" x1="239.5" x2="538.5" y1="258.0938" y2="258.0938"/><text fill="#000000" font-family="sans-serif" font-size="13" lengthAdjust="spacing" textLength="281" x="246.5" y="253.0278">findBooksByAuthorNumber(authorNumber)</text><polygon fill="#181818" points="939.5,283.2266,949.5,287.2266,939.5,291.2266,943.5,287.2266" style="stroke:#181818;stroke-width:1.0;"/><line style="stroke:#181818;stroke-width:1.0;" x1="544.5" x2="945.5" y1="287.2266" y2="287.2266"/><text fill="#000000" font-family="sans-serif" font-size="13" lengthAdjust="spacing" textLength="281" x="551.5" y="282.1606">findBooksByAuthorNumber(authorNumber)</text><polygon fill="#181818" points="555.5,312.3594,545.5,316.3594,555.5,320.3594,551.5,316.3594" style="stroke:#181818;stroke-width:1.0;"/><line style="stroke:#181818;stroke-width:1.0;" x1="549.5" x2="950.5" y1="316.3594" y2="316.3594"/><text fill="#000000" font-family="sans-serif" font-size="13" lengthAdjust="spacing" textLength="78" x="561.5" y="311.2935">List&lt;Book&gt;</text><polygon fill="#181818" points="250.5,341.4922,240.5,345.4922,250.5,349.4922,246.5,345.4922" style="stroke:#181818;stroke-width:1.0;"/><line style="stroke:#181818;stroke-width:1.0;" x1="244.5" x2="543.5" y1="345.4922" y2="345.4922"/><text fill="#000000" font-family="sans-serif" font-size="13" lengthAdjust="spacing" textLength="78" x="256.5" y="340.4263">List&lt;Book&gt;</text><polygon fill="#181818" points="1081.5,370.625,1091.5,374.625,1081.5,378.625,1085.5,374.625" style="stroke:#181818;stroke-width:1.0;"/><line style="stroke:#181818;stroke-width:1.0;" x1="239.5" x2="1087.5" y1="374.625" y2="374.625"/><text fill="#000000" font-family="sans-serif" font-size="13" lengthAdjust="spacing" textLength="166" x="246.5" y="369.5591">toBookView(List&lt;Book&gt;)</text><polygon fill="#181818" points="250.5,399.7578,240.5,403.7578,250.5,407.7578,246.5,403.7578" style="stroke:#181818;stroke-width:1.0;"/><line style="stroke:#181818;stroke-width:1.0;" x1="244.5" x2="1092.5" y1="403.7578" y2="403.7578"/><text fill="#000000" font-family="sans-serif" font-size="13" lengthAdjust="spacing" textLength="110" x="256.5" y="398.6919">List&lt;BookView&gt;</text><polygon fill="#181818" points="1214,428.8906,1224,432.8906,1214,436.8906,1218,432.8906" style="stroke:#181818;stroke-width:1.0;"/><line style="stroke:#181818;stroke-width:1.0;" x1="239.5" x2="1220" y1="432.8906" y2="432.8906"/><text fill="#000000" font-family="sans-serif" font-size="13" lengthAdjust="spacing" textLength="237" x="246.5" y="427.8247">new ListResponse(List&lt;BookView&gt;)</text><polygon fill="#181818" points="250.5,458.0234,240.5,462.0234,250.5,466.0234,246.5,462.0234" style="stroke:#181818;stroke-width:1.0;"/><line style="stroke:#181818;stroke-width:1.0;" x1="244.5" x2="1225" y1="462.0234" y2="462.0234"/><text fill="#000000" font-family="sans-serif" font-size="13" lengthAdjust="spacing" textLength="173" x="256.5" y="456.9575">ListResponse&lt;BookView&gt;</text><polygon fill="#181818" points="39.5,487.1563,29.5,491.1563,39.5,495.1563,35.5,491.1563" style="stroke:#181818;stroke-width:1.0;"/><line style="stroke:#181818;stroke-width:1.0;" x1="33.5" x2="238.5" y1="491.1563" y2="491.1563"/><text fill="#000000" font-family="sans-serif" font-size="13" lengthAdjust="spacing" textLength="173" x="45.5" y="486.0903">ListResponse&lt;BookView&gt;</text><!--SRC=[bL8zRy8m4DtzApo6eMAFAYH0j4lB01Mx2LVLQkgpx0iK8VuxSIra7oGebRB4x-FUiqzLX4xEQms6X5METAMjCYJdQCXXNODZnzE6lj2jmUrr1Ht82YnwtNeU6JX3_7u0RJGStfMrDyFUjASLU8l6Wn0nf7oQPDbA-RhuaEEJ-Xk-R7wsuCxZRMlfHM853GjUoazjThFZD9CLkST8C7uoI2K6UoH9HuxuAzjlYVI2ZTajVYkmfD7SHyXxHr0CQ1akutzL-MiDjU6gZZJXEPy3Q_AuMiQxgSTtfPI4rvCYYMAIHEkr3vIx4VdEbTB0WPqKN3mIETWrw8hr3unhtSk-0000]--></g></svg>