<?xml version="1.0" encoding="us-ascii" standalone="no"?><svg xmlns="http://www.w3.org/2000/svg" xmlns:xlink="http://www.w3.org/1999/xlink" contentStyleType="text/css" height="407px" preserveAspectRatio="none" style="width:1692px;height:407px;background:#FFFFFF;" version="1.1" viewBox="0 0 1692 407" width="1692px" zoomAndPan="magnify"><defs/><g><!--class Controller--><g id="elem_Controller"><rect codeLine="3" fill="#F1F1F1" height="64.2969" id="Controller" rx="2.5" ry="2.5" style="stroke:#181818;stroke-width:0.5;" width="567" x="202.5" y="31.5"/><ellipse cx="446.25" cy="47.5" fill="#ADD1B2" rx="11" ry="11" style="stroke:#181818;stroke-width:1.0;"/><path d="M445.7188,54.4219 Q443.9688,54.4219 442.8281,53.6875 Q441.7031,52.9375 441.1406,51.5938 Q440.5938,50.2344 440.5938,48.4375 Q440.5938,46.4063 441.25,44.9531 Q441.9063,43.5 443.1875,42.7188 Q444.4688,41.9375 446.3438,41.9375 Q447.2344,41.9375 447.9063,42.125 Q448.5781,42.2969 449.2656,42.6406 L448.4531,44.6563 Q447.8281,44.3438 447.2813,44.2188 Q446.75,44.0938 446.2656,44.0938 Q445.0938,44.0938 444.3906,44.625 Q443.6875,45.1563 443.3906,46.1094 Q443.0938,47.0625 443.0938,48.3281 Q443.0938,50.3438 443.8125,51.3125 Q444.5313,52.2656 446.125,52.2656 Q446.7188,52.2656 447.3438,52.1094 Q447.9688,51.9531 448.7969,51.5781 L448.7969,53.7969 Q448.0625,54.1094 447.2656,54.2656 Q446.4844,54.4219 445.7188,54.4219 Z " fill="#000000"/><text fill="#000000" font-family="sans-serif" font-size="14" lengthAdjust="spacing" textLength="71" x="466.75" y="52.3467">Controller</text><line style="stroke:#181818;stroke-width:0.5;" x1="203.5" x2="768.5" y1="63.5" y2="63.5"/><line style="stroke:#181818;stroke-width:0.5;" x1="203.5" x2="768.5" y1="71.5" y2="71.5"/><text fill="#000000" font-family="sans-serif" font-size="14" lengthAdjust="spacing" textLength="555" x="208.5" y="88.4951">+getBooksByAuthorNumber(authorNumber: Long): ListResponse&lt;BookView&gt;</text></g><!--class AuthorService--><g id="elem_AuthorService"><rect codeLine="7" fill="#F1F1F1" height="80.5938" id="AuthorService" rx="2.5" ry="2.5" style="stroke:#181818;stroke-width:0.5;" width="468" x="805" y="23"/><ellipse cx="984.25" cy="39" fill="#B4A7E5" rx="11" ry="11" style="stroke:#181818;stroke-width:1.0;"/><path d="M980.2813,45.5 L980.2813,43.7969 L982.6406,43.5313 L982.6406,35.3281 L980.2813,35.0625 L980.2813,33.3594 L987.4219,33.3594 L987.4219,35.0625 L985,35.3281 L985,43.5313 L987.4219,43.7969 L987.4219,45.5 L980.2813,45.5 Z " fill="#000000"/><text fill="#000000" font-family="sans-serif" font-size="14" font-style="italic" lengthAdjust="spacing" textLength="101" x="1004.75" y="43.8467">AuthorService</text><line style="stroke:#181818;stroke-width:0.5;" x1="806" x2="1272" y1="55" y2="55"/><line style="stroke:#181818;stroke-width:0.5;" x1="806" x2="1272" y1="63" y2="63"/><text fill="#000000" font-family="sans-serif" font-size="14" lengthAdjust="spacing" textLength="377" x="811" y="79.9951">+findByAuthorNumber(authorNumber: Long): Author</text><text fill="#000000" font-family="sans-serif" font-size="14" lengthAdjust="spacing" textLength="456" x="811" y="96.292">+findBooksByAuthorNumber(authorNumber: Long): List&lt;Book&gt;</text></g><!--class AuthorRepository--><g id="elem_AuthorRepository"><rect codeLine="12" fill="#F1F1F1" height="64.2969" id="AuthorRepository" rx="2.5" ry="2.5" style="stroke:#181818;stroke-width:0.5;" width="389" x="792.5" y="180"/><ellipse cx="920.75" cy="196" fill="#B4A7E5" rx="11" ry="11" style="stroke:#181818;stroke-width:1.0;"/><path d="M916.7813,202.5 L916.7813,200.7969 L919.1406,200.5313 L919.1406,192.3281 L916.7813,192.0625 L916.7813,190.3594 L923.9219,190.3594 L923.9219,192.0625 L921.5,192.3281 L921.5,200.5313 L923.9219,200.7969 L923.9219,202.5 L916.7813,202.5 Z " fill="#000000"/><text fill="#000000" font-family="sans-serif" font-size="14" font-style="italic" lengthAdjust="spacing" textLength="124" x="941.25" y="200.8467">AuthorRepository</text><line style="stroke:#181818;stroke-width:0.5;" x1="793.5" x2="1180.5" y1="212" y2="212"/><line style="stroke:#181818;stroke-width:0.5;" x1="793.5" x2="1180.5" y1="220" y2="220"/><text fill="#000000" font-family="sans-serif" font-size="14" lengthAdjust="spacing" textLength="377" x="798.5" y="236.9951">+findByAuthorNumber(authorNumber: Long): Author</text></g><!--class BookRepository--><g id="elem_BookRepository"><rect codeLine="16" fill="#F1F1F1" height="64.2969" id="BookRepository" rx="2.5" ry="2.5" style="stroke:#181818;stroke-width:0.5;" width="468" x="1217" y="180"/><ellipse cx="1390.75" cy="196" fill="#B4A7E5" rx="11" ry="11" style="stroke:#181818;stroke-width:1.0;"/><path d="M1386.7813,202.5 L1386.7813,200.7969 L1389.1406,200.5313 L1389.1406,192.3281 L1386.7813,192.0625 L1386.7813,190.3594 L1393.9219,190.3594 L1393.9219,192.0625 L1391.5,192.3281 L1391.5,200.5313 L1393.9219,200.7969 L1393.9219,202.5 L1386.7813,202.5 Z " fill="#000000"/><text fill="#000000" font-family="sans-serif" font-size="14" font-style="italic" lengthAdjust="spacing" textLength="112" x="1411.25" y="200.8467">BookRepository</text><line style="stroke:#181818;stroke-width:0.5;" x1="1218" x2="1684" y1="212" y2="212"/><line style="stroke:#181818;stroke-width:0.5;" x1="1218" x2="1684" y1="220" y2="220"/><text fill="#000000" font-family="sans-serif" font-size="14" lengthAdjust="spacing" textLength="456" x="1223" y="236.9951">+findBooksByAuthorNumber(authorNumber: Long): List&lt;Book&gt;</text></g><!--class BookViewMapper--><g id="elem_BookViewMapper"><rect codeLine="20" fill="#F1F1F1" height="64.2969" id="BookViewMapper" rx="2.5" ry="2.5" style="stroke:#181818;stroke-width:0.5;" width="380" x="7" y="180"/><ellipse cx="130.75" cy="196" fill="#ADD1B2" rx="11" ry="11" style="stroke:#181818;stroke-width:1.0;"/><path d="M130.2188,202.9219 Q128.4688,202.9219 127.3281,202.1875 Q126.2031,201.4375 125.6406,200.0938 Q125.0938,198.7344 125.0938,196.9375 Q125.0938,194.9063 125.75,193.4531 Q126.4063,192 127.6875,191.2188 Q128.9688,190.4375 130.8438,190.4375 Q131.7344,190.4375 132.4063,190.625 Q133.0781,190.7969 133.7656,191.1406 L132.9531,193.1563 Q132.3281,192.8438 131.7813,192.7188 Q131.25,192.5938 130.7656,192.5938 Q129.5938,192.5938 128.8906,193.125 Q128.1875,193.6563 127.8906,194.6094 Q127.5938,195.5625 127.5938,196.8281 Q127.5938,198.8438 128.3125,199.8125 Q129.0313,200.7656 130.625,200.7656 Q131.2188,200.7656 131.8438,200.6094 Q132.4688,200.4531 133.2969,200.0781 L133.2969,202.2969 Q132.5625,202.6094 131.7656,202.7656 Q130.9844,202.9219 130.2188,202.9219 Z " fill="#000000"/><text fill="#000000" font-family="sans-serif" font-size="14" lengthAdjust="spacing" textLength="124" x="151.25" y="200.8467">BookViewMapper</text><line style="stroke:#181818;stroke-width:0.5;" x1="8" x2="386" y1="212" y2="212"/><line style="stroke:#181818;stroke-width:0.5;" x1="8" x2="386" y1="220" y2="220"/><text fill="#000000" font-family="sans-serif" font-size="14" lengthAdjust="spacing" textLength="368" x="13" y="236.9951">+toBookView(books: List&lt;Book&gt;): List&lt;BookView&gt;</text></g><!--class ListResponse--><g id="elem_ListResponse"><rect codeLine="24" fill="#F1F1F1" height="64.2969" id="ListResponse" rx="2.5" ry="2.5" style="stroke:#181818;stroke-width:0.5;" width="232" x="422" y="180"/><ellipse cx="481.75" cy="196" fill="#ADD1B2" rx="11" ry="11" style="stroke:#181818;stroke-width:1.0;"/><path d="M481.2188,202.9219 Q479.4688,202.9219 478.3281,202.1875 Q477.2031,201.4375 476.6406,200.0938 Q476.0938,198.7344 476.0938,196.9375 Q476.0938,194.9063 476.75,193.4531 Q477.4063,192 478.6875,191.2188 Q479.9688,190.4375 481.8438,190.4375 Q482.7344,190.4375 483.4063,190.625 Q484.0781,190.7969 484.7656,191.1406 L483.9531,193.1563 Q483.3281,192.8438 482.7813,192.7188 Q482.25,192.5938 481.7656,192.5938 Q480.5938,192.5938 479.8906,193.125 Q479.1875,193.6563 478.8906,194.6094 Q478.5938,195.5625 478.5938,196.8281 Q478.5938,198.8438 479.3125,199.8125 Q480.0313,200.7656 481.625,200.7656 Q482.2188,200.7656 482.8438,200.6094 Q483.4688,200.4531 484.2969,200.0781 L484.2969,202.2969 Q483.5625,202.6094 482.7656,202.7656 Q481.9844,202.9219 481.2188,202.9219 Z " fill="#000000"/><text fill="#000000" font-family="sans-serif" font-size="14" lengthAdjust="spacing" textLength="93" x="502.25" y="200.8467">ListResponse</text><rect fill="#FFFFFF" height="15.9688" style="stroke:#181818;stroke-width:1.0;stroke-dasharray:2.0,2.0;" width="9" x="648" y="177"/><text fill="#000000" font-family="sans-serif" font-size="12" font-style="italic" lengthAdjust="spacing" textLength="7" x="649" y="189.1387">T</text><line style="stroke:#181818;stroke-width:0.5;" x1="423" x2="653" y1="212" y2="212"/><line style="stroke:#181818;stroke-width:0.5;" x1="423" x2="653" y1="220" y2="220"/><text fill="#000000" font-family="sans-serif" font-size="14" lengthAdjust="spacing" textLength="220" x="428" y="236.9951">+ListResponse(items: List&lt;T&gt;)</text></g><!--class Author--><g id="elem_Author"><rect codeLine="28" fill="#F1F1F1" height="113.1875" id="Author" rx="2.5" ry="2.5" style="stroke:#181818;stroke-width:0.5;" width="165" x="1308.5" y="7"/><ellipse cx="1362.75" cy="23" fill="#ADD1B2" rx="11" ry="11" style="stroke:#181818;stroke-width:1.0;"/><path d="M1362.2188,29.9219 Q1360.4688,29.9219 1359.3281,29.1875 Q1358.2031,28.4375 1357.6406,27.0938 Q1357.0938,25.7344 1357.0938,23.9375 Q1357.0938,21.9063 1357.75,20.4531 Q1358.4063,19 1359.6875,18.2188 Q1360.9688,17.4375 1362.8438,17.4375 Q1363.7344,17.4375 1364.4063,17.625 Q1365.0781,17.7969 1365.7656,18.1406 L1364.9531,20.1563 Q1364.3281,19.8438 1363.7813,19.7188 Q1363.25,19.5938 1362.7656,19.5938 Q1361.5938,19.5938 1360.8906,20.125 Q1360.1875,20.6563 1359.8906,21.6094 Q1359.5938,22.5625 1359.5938,23.8281 Q1359.5938,25.8438 1360.3125,26.8125 Q1361.0313,27.7656 1362.625,27.7656 Q1363.2188,27.7656 1363.8438,27.6094 Q1364.4688,27.4531 1365.2969,27.0781 L1365.2969,29.2969 Q1364.5625,29.6094 1363.7656,29.7656 Q1362.9844,29.9219 1362.2188,29.9219 Z " fill="#000000"/><text fill="#000000" font-family="sans-serif" font-size="14" lengthAdjust="spacing" textLength="48" x="1383.25" y="27.8467">Author</text><line style="stroke:#181818;stroke-width:0.5;" x1="1309.5" x2="1472.5" y1="39" y2="39"/><text fill="#000000" font-family="sans-serif" font-size="14" lengthAdjust="spacing" textLength="153" x="1314.5" y="55.9951">-authorNumber: Long</text><text fill="#000000" font-family="sans-serif" font-size="14" lengthAdjust="spacing" textLength="97" x="1314.5" y="72.292">-name: String</text><text fill="#000000" font-family="sans-serif" font-size="14" lengthAdjust="spacing" textLength="107" x="1314.5" y="88.5889">-bio: AuthorBio</text><text fill="#000000" font-family="sans-serif" font-size="14" lengthAdjust="spacing" textLength="95" x="1314.5" y="104.8857">-photo: Photo</text><line style="stroke:#181818;stroke-width:0.5;" x1="1309.5" x2="1472.5" y1="112.1875" y2="112.1875"/></g><!--class Book--><g id="elem_Book"><rect codeLine="35" fill="#F1F1F1" height="96.8906" id="Book" rx="2.5" ry="2.5" style="stroke:#181818;stroke-width:0.5;" width="121" x="136.5" y="304"/><ellipse cx="175.35" cy="320" fill="#ADD1B2" rx="11" ry="11" style="stroke:#181818;stroke-width:1.0;"/><path d="M174.8188,326.9219 Q173.0688,326.9219 171.9281,326.1875 Q170.8031,325.4375 170.2406,324.0938 Q169.6938,322.7344 169.6938,320.9375 Q169.6938,318.9063 170.35,317.4531 Q171.0063,316 172.2875,315.2188 Q173.5688,314.4375 175.4438,314.4375 Q176.3344,314.4375 177.0063,314.625 Q177.6781,314.7969 178.3656,315.1406 L177.5531,317.1563 Q176.9281,316.8438 176.3813,316.7188 Q175.85,316.5938 175.3656,316.5938 Q174.1938,316.5938 173.4906,317.125 Q172.7875,317.6563 172.4906,318.6094 Q172.1938,319.5625 172.1938,320.8281 Q172.1938,322.8438 172.9125,323.8125 Q173.6313,324.7656 175.225,324.7656 Q175.8188,324.7656 176.4438,324.6094 Q177.0688,324.4531 177.8969,324.0781 L177.8969,326.2969 Q177.1625,326.6094 176.3656,326.7656 Q175.5844,326.9219 174.8188,326.9219 Z " fill="#000000"/><text fill="#000000" font-family="sans-serif" font-size="14" lengthAdjust="spacing" textLength="36" x="194.65" y="324.8467">Book</text><line style="stroke:#181818;stroke-width:0.5;" x1="137.5" x2="256.5" y1="336" y2="336"/><text fill="#000000" font-family="sans-serif" font-size="14" lengthAdjust="spacing" textLength="97" x="142.5" y="352.9951">-bookId: Long</text><text fill="#000000" font-family="sans-serif" font-size="14" lengthAdjust="spacing" textLength="83" x="142.5" y="369.292">-title: String</text><text fill="#000000" font-family="sans-serif" font-size="14" lengthAdjust="spacing" textLength="109" x="142.5" y="385.5889">-author: Author</text><line style="stroke:#181818;stroke-width:0.5;" x1="137.5" x2="256.5" y1="392.8906" y2="392.8906"/></g><!--class BookView--><g id="elem_BookView"><rect codeLine="41" fill="#F1F1F1" height="96.8906" id="BookView" rx="2.5" ry="2.5" style="stroke:#181818;stroke-width:0.5;" width="157" x="375.5" y="304"/><ellipse cx="415.25" cy="320" fill="#ADD1B2" rx="11" ry="11" style="stroke:#181818;stroke-width:1.0;"/><path d="M414.7188,326.9219 Q412.9688,326.9219 411.8281,326.1875 Q410.7031,325.4375 410.1406,324.0938 Q409.5938,322.7344 409.5938,320.9375 Q409.5938,318.9063 410.25,317.4531 Q410.9063,316 412.1875,315.2188 Q413.4688,314.4375 415.3438,314.4375 Q416.2344,314.4375 416.9063,314.625 Q417.5781,314.7969 418.2656,315.1406 L417.4531,317.1563 Q416.8281,316.8438 416.2813,316.7188 Q415.75,316.5938 415.2656,316.5938 Q414.0938,316.5938 413.3906,317.125 Q412.6875,317.6563 412.3906,318.6094 Q412.0938,319.5625 412.0938,320.8281 Q412.0938,322.8438 412.8125,323.8125 Q413.5313,324.7656 415.125,324.7656 Q415.7188,324.7656 416.3438,324.6094 Q416.9688,324.4531 417.7969,324.0781 L417.7969,326.2969 Q417.0625,326.6094 416.2656,326.7656 Q415.4844,326.9219 414.7188,326.9219 Z " fill="#000000"/><text fill="#000000" font-family="sans-serif" font-size="14" lengthAdjust="spacing" textLength="70" x="434.75" y="324.8467">BookView</text><line style="stroke:#181818;stroke-width:0.5;" x1="376.5" x2="531.5" y1="336" y2="336"/><text fill="#000000" font-family="sans-serif" font-size="14" lengthAdjust="spacing" textLength="97" x="381.5" y="352.9951">-bookId: Long</text><text fill="#000000" font-family="sans-serif" font-size="14" lengthAdjust="spacing" textLength="83" x="381.5" y="369.292">-title: String</text><text fill="#000000" font-family="sans-serif" font-size="14" lengthAdjust="spacing" textLength="145" x="381.5" y="385.5889">-authorName: String</text><line style="stroke:#181818;stroke-width:0.5;" x1="376.5" x2="531.5" y1="392.8906" y2="392.8906"/></g><!--link Controller to AuthorService--><g id="link_Controller_AuthorService"><path codeLine="47" d="M769.52,63.5 C781.28,63.5 787.03,63.5 798.78,63.5 " fill="none" id="Controller-to-AuthorService" style="stroke:#181818;stroke-width:1.0;"/><polygon fill="#181818" points="804.78,63.5,795.78,59.5,799.78,63.5,795.78,67.5,804.78,63.5" style="stroke:#181818;stroke-width:1.0;"/></g><!--link AuthorService to AuthorRepository--><g id="link_AuthorService_AuthorRepository"><path codeLine="48" d="M1024.93,104.15 C1016.51,127.87 1007.9562,151.9553 1000.1262,174.0253 " fill="none" id="AuthorService-to-AuthorRepository" style="stroke:#181818;stroke-width:1.0;stroke-dasharray:7.0,7.0;"/><polygon fill="#181818" points="998.12,179.68,1004.899,172.5354,999.7918,174.9678,997.3595,169.8606,998.12,179.68" style="stroke:#181818;stroke-width:1.0;"/></g><!--link AuthorService to BookRepository--><g id="link_AuthorService_BookRepository"><path codeLine="49" d="M1150.22,104.05 C1217.31,127.9 1295.8966,155.8502 1358.1466,177.9802 " fill="none" id="AuthorService-to-BookRepository" style="stroke:#181818;stroke-width:1.0;stroke-dasharray:7.0,7.0;"/><polygon fill="#181818" points="1363.8,179.99,1356.6598,173.2064,1359.0888,178.3152,1353.9801,180.7442,1363.8,179.99" style="stroke:#181818;stroke-width:1.0;"/></g><!--link Controller to BookViewMapper--><g id="link_Controller_BookViewMapper"><path codeLine="50" d="M424.71,95.57 C375.67,120.43 312.5716,152.4171 263.5516,177.2671 " fill="none" id="Controller-to-BookViewMapper" style="stroke:#181818;stroke-width:1.0;stroke-dasharray:7.0,7.0;"/><polygon fill="#181818" points="258.2,179.98,268.0361,179.4784,262.6597,177.7192,264.4188,172.3428,258.2,179.98" style="stroke:#181818;stroke-width:1.0;"/></g><!--link Controller to ListResponse--><g id="link_Controller_ListResponse"><path codeLine="51" d="M497.03,95.57 C505.85,120.43 516.1631,149.4756 524.9831,174.3256 " fill="none" id="Controller-to-ListResponse" style="stroke:#181818;stroke-width:1.0;stroke-dasharray:7.0,7.0;"/><polygon fill="#181818" points="526.99,179.98,527.7492,170.1604,525.3176,175.268,520.21,172.8363,526.99,179.98" style="stroke:#181818;stroke-width:1.0;"/></g><!--link BookViewMapper to Book--><g id="link_BookViewMapper_Book"><path codeLine="52" d="M197,244.08 C197,261.71 197,278.13 197,297.93 " fill="none" id="BookViewMapper-to-Book" style="stroke:#181818;stroke-width:1.0;stroke-dasharray:7.0,7.0;"/><polygon fill="#181818" points="197,303.93,201,294.93,197,298.93,193,294.93,197,303.93" style="stroke:#181818;stroke-width:1.0;"/></g><!--link BookViewMapper to BookView--><g id="link_BookViewMapper_BookView"><path codeLine="53" d="M254.68,244.08 C290.19,263.22 330.9283,285.1733 369.7983,306.1233 " fill="none" id="BookViewMapper-to-BookView" style="stroke:#181818;stroke-width:1.0;stroke-dasharray:7.0,7.0;"/><polygon fill="#181818" points="375.08,308.97,369.0553,301.1788,370.6786,306.5977,365.2597,308.2211,375.08,308.97" style="stroke:#181818;stroke-width:1.0;"/></g><!--link ListResponse to BookView--><g id="link_ListResponse_BookView"><path codeLine="54" d="M519.15,244.08 C508.46,261.71 497.9717,279 485.9617,298.8 " fill="none" id="ListResponse-to-BookView" style="stroke:#181818;stroke-width:1.0;stroke-dasharray:7.0,7.0;"/><polygon fill="#181818" points="482.85,303.93,490.9376,298.3094,485.4431,299.655,484.0975,294.1605,482.85,303.93" style="stroke:#181818;stroke-width:1.0;"/></g><!--SRC=[dPDDRy8m38Rl-HKv5asWdT5K2NP2sj14qUvfCM3HnbNYRcBJ_ljQIafIGDhQInGxVlpnklQ0kbH65JBBbRKpPeDfnR38I2Vu1V9HY9D7FfDcGtaEHduBMNyFSWSy9phO-N5MyPxCiYfIC97oBbFvGdetgW-ql09RahRmr4Iz8tp6uaS8r0ncgpAGBIK1yu7rpMNPejxy9KFxmW_wJssdccxMiuAIB3APuz2I0cYJvnvoMC6jFcwchweiFOsOd2DA6xmVx9CwELfQ8DSwxd2-FKA6mW7NyUWItNPm3XhBwnxE3gqAcCgathdEb2AvkSsHpiPoJroRtveZxBZBqJIts0HqHixx-BOKNvbmUiDuIx-FckdzA-CuN6iHBlba4b-jsOqduTBuVEUzID_t-fA9tfQuw7lsnYHyGEZv1G00]--></g></svg>
