<?xml version="1.0" encoding="us-ascii" standalone="no"?><svg xmlns="http://www.w3.org/2000/svg" xmlns:xlink="http://www.w3.org/1999/xlink" contentStyleType="text/css" height="947px" preserveAspectRatio="none" style="width:934px;height:947px;background:#FFFFFF;" version="1.1" viewBox="0 0 934 947" width="934px" zoomAndPan="magnify"><defs/><g><!--class LendingController--><g id="elem_LendingController"><rect codeLine="5" fill="#F1F1F1" height="103.8633" id="LendingController" rx="2.5" ry="2.5" style="stroke:#181818;stroke-width:0.5;" width="246" x="402.5" y="7"/><ellipse cx="464.75" cy="23" fill="#ADD1B2" rx="11" ry="11" style="stroke:#181818;stroke-width:1.0;"/><path d="M467.5156,18.875 Q467.6719,18.6563 467.8594,18.5469 Q468.0469,18.4375 468.2656,18.4375 Q468.6406,18.4375 468.875,18.7031 Q469.1094,18.9531 469.1094,19.5625 L469.1094,21.0156 Q469.1094,21.625 468.875,21.8906 Q468.6406,22.1563 468.2656,22.1563 Q467.9219,22.1563 467.7188,21.9531 Q467.5156,21.7656 467.4063,21.25 Q467.3594,20.8906 467.1719,20.7031 Q466.8438,20.3281 466.2344,20.1094 Q465.625,19.8906 465,19.8906 Q464.2344,19.8906 463.5938,20.2188 Q462.9688,20.5469 462.4688,21.2969 Q461.9844,22.0469 461.9844,23.0781 L461.9844,24.1719 Q461.9844,25.4063 462.875,26.2344 Q463.7656,27.0469 465.3594,27.0469 Q466.2969,27.0469 466.9531,26.7969 Q467.3438,26.6406 467.7656,26.2031 Q468.0313,25.9375 468.1719,25.8594 Q468.3281,25.7813 468.5313,25.7813 Q468.8594,25.7813 469.1094,26.0469 Q469.375,26.2969 469.375,26.6406 Q469.375,26.9844 469.0313,27.3906 Q468.5313,27.9688 467.7344,28.2969 Q466.6563,28.75 465.3594,28.75 Q463.8438,28.75 462.6406,28.125 Q461.6563,27.625 460.9688,26.5625 Q460.2813,25.4844 460.2813,24.2031 L460.2813,23.0469 Q460.2813,21.7188 460.8906,20.5781 Q461.5156,19.4219 462.6094,18.8125 Q463.7031,18.1875 464.9375,18.1875 Q465.6719,18.1875 466.3125,18.3594 Q466.9688,18.5156 467.5156,18.875 Z " fill="#000000"/><text fill="#000000" font-family="sans-serif" font-size="14" lengthAdjust="spacing" textLength="113" x="485.25" y="28.7969">LendingController</text><line style="stroke:#181818;stroke-width:0.5;" x1="403.5" x2="647.5" y1="39" y2="39"/><line style="stroke:#181818;stroke-width:0.5;" x1="403.5" x2="647.5" y1="47" y2="47"/><text fill="#000000" font-family="sans-serif" font-size="14" lengthAdjust="spacing" textLength="234" x="408.5" y="66.1074">+createLending(isbn, readerNumber)</text><text fill="#000000" font-family="sans-serif" font-size="14" lengthAdjust="spacing" textLength="213" x="408.5" y="84.7285">+returnBook(isbn, readerNumber)</text><text fill="#000000" font-family="sans-serif" font-size="14" lengthAdjust="spacing" textLength="184" x="408.5" y="103.3496">+getLending(lendingNumber)</text></g><!--class LendingRepository--><g id="elem_LendingRepository"><rect codeLine="11" fill="#F1F1F1" height="85.2422" id="LendingRepository" rx="2.5" ry="2.5" style="stroke:#181818;stroke-width:0.5;" width="238" x="40.5" y="372"/><ellipse cx="95.75" cy="388" fill="#B4A7E5" rx="11" ry="11" style="stroke:#181818;stroke-width:1.0;"/><path d="M96.7031,384.6406 L96.7031,391.2969 L98.4219,391.2969 Q99.0313,391.2969 99.2969,391.5313 Q99.5625,391.7656 99.5625,392.1563 Q99.5625,392.5313 99.2969,392.7656 Q99.0313,393 98.4219,393 L93.2813,393 Q92.6719,393 92.4063,392.7656 Q92.1406,392.5313 92.1406,392.1406 Q92.1406,391.7656 92.4063,391.5313 Q92.6719,391.2969 93.2813,391.2969 L95,391.2969 L95,384.6406 L93.2813,384.6406 Q92.6719,384.6406 92.4063,384.4063 Q92.1406,384.1719 92.1406,383.7813 Q92.1406,383.4063 92.4063,383.1719 Q92.6719,382.9375 93.2813,382.9375 L98.4219,382.9375 Q99.0313,382.9375 99.2969,383.1719 Q99.5625,383.4063 99.5625,383.7813 Q99.5625,384.1719 99.2969,384.4063 Q99.0313,384.6406 98.4219,384.6406 L96.7031,384.6406 Z " fill="#000000"/><text fill="#000000" font-family="sans-serif" font-size="14" font-style="italic" lengthAdjust="spacing" textLength="119" x="116.25" y="393.7969">LendingRepository</text><line style="stroke:#181818;stroke-width:0.5;" x1="41.5" x2="277.5" y1="404" y2="404"/><line style="stroke:#181818;stroke-width:0.5;" x1="41.5" x2="277.5" y1="412" y2="412"/><text fill="#000000" font-family="sans-serif" font-size="14" lengthAdjust="spacing" textLength="226" x="46.5" y="431.1074">+findById(lendingNumber) : Lending</text><text fill="#000000" font-family="sans-serif" font-size="14" lengthAdjust="spacing" textLength="157" x="46.5" y="449.7285">+save(lending) : Lending</text></g><!--class LendingService--><g id="elem_LendingService"><rect codeLine="16" fill="#F1F1F1" height="141.1055" id="LendingService" rx="2.5" ry="2.5" style="stroke:#181818;stroke-width:0.5;" width="258" x="396.5" y="171"/><ellipse cx="472.75" cy="187" fill="#B4A7E5" rx="11" ry="11" style="stroke:#181818;stroke-width:1.0;"/><path d="M473.7031,183.6406 L473.7031,190.2969 L475.4219,190.2969 Q476.0313,190.2969 476.2969,190.5313 Q476.5625,190.7656 476.5625,191.1563 Q476.5625,191.5313 476.2969,191.7656 Q476.0313,192 475.4219,192 L470.2813,192 Q469.6719,192 469.4063,191.7656 Q469.1406,191.5313 469.1406,191.1406 Q469.1406,190.7656 469.4063,190.5313 Q469.6719,190.2969 470.2813,190.2969 L472,190.2969 L472,183.6406 L470.2813,183.6406 Q469.6719,183.6406 469.4063,183.4063 Q469.1406,183.1719 469.1406,182.7813 Q469.1406,182.4063 469.4063,182.1719 Q469.6719,181.9375 470.2813,181.9375 L475.4219,181.9375 Q476.0313,181.9375 476.2969,182.1719 Q476.5625,182.4063 476.5625,182.7813 Q476.5625,183.1719 476.2969,183.4063 Q476.0313,183.6406 475.4219,183.6406 L473.7031,183.6406 Z " fill="#000000"/><text fill="#000000" font-family="sans-serif" font-size="14" font-style="italic" lengthAdjust="spacing" textLength="97" x="493.25" y="192.7969">LendingService</text><line style="stroke:#181818;stroke-width:0.5;" x1="397.5" x2="653.5" y1="203" y2="203"/><line style="stroke:#181818;stroke-width:0.5;" x1="397.5" x2="653.5" y1="211" y2="211"/><text fill="#000000" font-family="sans-serif" font-size="14" lengthAdjust="spacing" textLength="246" x="402.5" y="230.1074">+create(isbn, readerNumber) : Lending</text><text fill="#000000" font-family="sans-serif" font-size="14" lengthAdjust="spacing" textLength="163" x="402.5" y="248.7285">+findById(lendingNumber)</text><text fill="#000000" font-family="sans-serif" font-size="14" lengthAdjust="spacing" textLength="195" x="402.5" y="267.3496">+findByReader(readerNumber)</text><text fill="#000000" font-family="sans-serif" font-size="14" lengthAdjust="spacing" textLength="115" x="402.5" y="285.9707">+findByBook(Isbn)</text><text fill="#000000" font-family="sans-serif" font-size="14" lengthAdjust="spacing" textLength="157" x="402.5" y="304.5918">+update(lendingNumber)</text></g><!--class LendingServiceImpl--><g id="elem_LendingServiceImpl"><rect codeLine="24" fill="#F1F1F1" height="48" id="LendingServiceImpl" rx="2.5" ry="2.5" style="stroke:#181818;stroke-width:0.5;" width="155" x="314" y="390.5"/><ellipse cx="329" cy="406.5" fill="#ADD1B2" rx="11" ry="11" style="stroke:#181818;stroke-width:1.0;"/><path d="M331.7656,402.375 Q331.9219,402.1563 332.1094,402.0469 Q332.2969,401.9375 332.5156,401.9375 Q332.8906,401.9375 333.125,402.2031 Q333.3594,402.4531 333.3594,403.0625 L333.3594,404.5156 Q333.3594,405.125 333.125,405.3906 Q332.8906,405.6563 332.5156,405.6563 Q332.1719,405.6563 331.9688,405.4531 Q331.7656,405.2656 331.6563,404.75 Q331.6094,404.3906 331.4219,404.2031 Q331.0938,403.8281 330.4844,403.6094 Q329.875,403.3906 329.25,403.3906 Q328.4844,403.3906 327.8438,403.7188 Q327.2188,404.0469 326.7188,404.7969 Q326.2344,405.5469 326.2344,406.5781 L326.2344,407.6719 Q326.2344,408.9063 327.125,409.7344 Q328.0156,410.5469 329.6094,410.5469 Q330.5469,410.5469 331.2031,410.2969 Q331.5938,410.1406 332.0156,409.7031 Q332.2813,409.4375 332.4219,409.3594 Q332.5781,409.2813 332.7813,409.2813 Q333.1094,409.2813 333.3594,409.5469 Q333.625,409.7969 333.625,410.1406 Q333.625,410.4844 333.2813,410.8906 Q332.7813,411.4688 331.9844,411.7969 Q330.9063,412.25 329.6094,412.25 Q328.0938,412.25 326.8906,411.625 Q325.9063,411.125 325.2188,410.0625 Q324.5313,408.9844 324.5313,407.7031 L324.5313,406.5469 Q324.5313,405.2188 325.1406,404.0781 Q325.7656,402.9219 326.8594,402.3125 Q327.9531,401.6875 329.1875,401.6875 Q329.9219,401.6875 330.5625,401.8594 Q331.2188,402.0156 331.7656,402.375 Z " fill="#000000"/><text fill="#000000" font-family="sans-serif" font-size="14" lengthAdjust="spacing" textLength="123" x="343" y="412.2969">LendingServiceImpl</text><line style="stroke:#181818;stroke-width:0.5;" x1="315" x2="468" y1="422.5" y2="422.5"/><line style="stroke:#181818;stroke-width:0.5;" x1="315" x2="468" y1="430.5" y2="430.5"/></g><!--class ReaderRepository--><g id="elem_ReaderRepository"><rect codeLine="27" fill="#F1F1F1" height="66.6211" id="ReaderRepository" rx="2.5" ry="2.5" style="stroke:#181818;stroke-width:0.5;" width="171" x="123" y="588.5"/><ellipse cx="148.8" cy="604.5" fill="#B4A7E5" rx="11" ry="11" style="stroke:#181818;stroke-width:1.0;"/><path d="M149.7531,601.1406 L149.7531,607.7969 L151.4719,607.7969 Q152.0813,607.7969 152.3469,608.0313 Q152.6125,608.2656 152.6125,608.6563 Q152.6125,609.0313 152.3469,609.2656 Q152.0813,609.5 151.4719,609.5 L146.3313,609.5 Q145.7219,609.5 145.4563,609.2656 Q145.1906,609.0313 145.1906,608.6406 Q145.1906,608.2656 145.4563,608.0313 Q145.7219,607.7969 146.3313,607.7969 L148.05,607.7969 L148.05,601.1406 L146.3313,601.1406 Q145.7219,601.1406 145.4563,600.9063 Q145.1906,600.6719 145.1906,600.2813 Q145.1906,599.9063 145.4563,599.6719 Q145.7219,599.4375 146.3313,599.4375 L151.4719,599.4375 Q152.0813,599.4375 152.3469,599.6719 Q152.6125,599.9063 152.6125,600.2813 Q152.6125,600.6719 152.3469,600.9063 Q152.0813,601.1406 151.4719,601.1406 L149.7531,601.1406 Z " fill="#000000"/><text fill="#000000" font-family="sans-serif" font-size="14" font-style="italic" lengthAdjust="spacing" textLength="115" x="165.2" y="610.2969">ReaderRepository</text><line style="stroke:#181818;stroke-width:0.5;" x1="124" x2="293" y1="620.5" y2="620.5"/><line style="stroke:#181818;stroke-width:0.5;" x1="124" x2="293" y1="628.5" y2="628.5"/><text fill="#000000" font-family="sans-serif" font-size="14" lengthAdjust="spacing" textLength="159" x="129" y="647.6074">+findById(readerNumber)</text></g><!--class BookRepository--><g id="elem_BookRepository"><rect codeLine="31" fill="#F1F1F1" height="66.6211" id="BookRepository" rx="2.5" ry="2.5" style="stroke:#181818;stroke-width:0.5;" width="133" x="504" y="381"/><ellipse cx="519" cy="397" fill="#B4A7E5" rx="11" ry="11" style="stroke:#181818;stroke-width:1.0;"/><path d="M519.9531,393.6406 L519.9531,400.2969 L521.6719,400.2969 Q522.2813,400.2969 522.5469,400.5313 Q522.8125,400.7656 522.8125,401.1563 Q522.8125,401.5313 522.5469,401.7656 Q522.2813,402 521.6719,402 L516.5313,402 Q515.9219,402 515.6563,401.7656 Q515.3906,401.5313 515.3906,401.1406 Q515.3906,400.7656 515.6563,400.5313 Q515.9219,400.2969 516.5313,400.2969 L518.25,400.2969 L518.25,393.6406 L516.5313,393.6406 Q515.9219,393.6406 515.6563,393.4063 Q515.3906,393.1719 515.3906,392.7813 Q515.3906,392.4063 515.6563,392.1719 Q515.9219,391.9375 516.5313,391.9375 L521.6719,391.9375 Q522.2813,391.9375 522.5469,392.1719 Q522.8125,392.4063 522.8125,392.7813 Q522.8125,393.1719 522.5469,393.4063 Q522.2813,393.6406 521.6719,393.6406 L519.9531,393.6406 Z " fill="#000000"/><text fill="#000000" font-family="sans-serif" font-size="14" font-style="italic" lengthAdjust="spacing" textLength="101" x="533" y="402.7969">BookRepository</text><line style="stroke:#181818;stroke-width:0.5;" x1="505" x2="636" y1="413" y2="413"/><line style="stroke:#181818;stroke-width:0.5;" x1="505" x2="636" y1="421" y2="421"/><text fill="#000000" font-family="sans-serif" font-size="14" lengthAdjust="spacing" textLength="94" x="510" y="440.1074">+findById(isbn)</text></g><!--class Lending--><g id="elem_Lending"><rect codeLine="35" fill="#F1F1F1" height="209.5508" id="Lending" rx="2.5" ry="2.5" style="stroke:#181818;stroke-width:0.5;" width="164" x="492.5" y="517"/><ellipse cx="544.75" cy="539.291" fill="#ADD1B2" rx="11" ry="11" style="stroke:#181818;stroke-width:1.0;"/><path d="M547.5156,535.166 Q547.6719,534.9473 547.8594,534.8379 Q548.0469,534.7285 548.2656,534.7285 Q548.6406,534.7285 548.875,534.9941 Q549.1094,535.2441 549.1094,535.8535 L549.1094,537.3066 Q549.1094,537.916 548.875,538.1816 Q548.6406,538.4473 548.2656,538.4473 Q547.9219,538.4473 547.7188,538.2441 Q547.5156,538.0566 547.4063,537.541 Q547.3594,537.1816 547.1719,536.9941 Q546.8438,536.6191 546.2344,536.4004 Q545.625,536.1816 545,536.1816 Q544.2344,536.1816 543.5938,536.5098 Q542.9688,536.8379 542.4688,537.5879 Q541.9844,538.3379 541.9844,539.3691 L541.9844,540.4629 Q541.9844,541.6973 542.875,542.5254 Q543.7656,543.3379 545.3594,543.3379 Q546.2969,543.3379 546.9531,543.0879 Q547.3438,542.9316 547.7656,542.4941 Q548.0313,542.2285 548.1719,542.1504 Q548.3281,542.0723 548.5313,542.0723 Q548.8594,542.0723 549.1094,542.3379 Q549.375,542.5879 549.375,542.9316 Q549.375,543.2754 549.0313,543.6816 Q548.5313,544.2598 547.7344,544.5879 Q546.6563,545.041 545.3594,545.041 Q543.8438,545.041 542.6406,544.416 Q541.6563,543.916 540.9688,542.8535 Q540.2813,541.7754 540.2813,540.4941 L540.2813,539.3379 Q540.2813,538.0098 540.8906,536.8691 Q541.5156,535.7129 542.6094,535.1035 Q543.7031,534.4785 544.9375,534.4785 Q545.6719,534.4785 546.3125,534.6504 Q546.9688,534.8066 547.5156,535.166 Z " fill="#000000"/><text fill="#000000" font-family="sans-serif" font-size="12" font-style="italic" lengthAdjust="spacing" textLength="43" x="569.25" y="534.9492">&#171;entity&#187;</text><text fill="#000000" font-family="sans-serif" font-size="14" lengthAdjust="spacing" textLength="51" x="565.25" y="553.0684">Lending</text><line style="stroke:#181818;stroke-width:0.5;" x1="493.5" x2="655.5" y1="561.582" y2="561.582"/><text fill="#000000" font-family="sans-serif" font-size="14" lengthAdjust="spacing" textLength="105" x="498.5" y="580.6895">-startDate : Date</text><text fill="#000000" font-family="sans-serif" font-size="14" lengthAdjust="spacing" textLength="101" x="498.5" y="599.3105">-limitDate : Date</text><text fill="#000000" font-family="sans-serif" font-size="14" lengthAdjust="spacing" textLength="115" x="498.5" y="617.9316">-returnDate : Date</text><line style="stroke:#181818;stroke-width:0.5;" x1="493.5" x2="655.5" y1="625.4453" y2="625.4453"/><text fill="#000000" font-family="sans-serif" font-size="14" lengthAdjust="spacing" textLength="150" x="498.5" y="644.5527">+getNumber() : Lending</text><text fill="#000000" font-family="sans-serif" font-size="14" lengthAdjust="spacing" textLength="152" x="498.5" y="663.1738">+getOverdueDays() : int</text><text fill="#000000" font-family="sans-serif" font-size="14" lengthAdjust="spacing" textLength="122" x="498.5" y="681.7949">+isOverdue() : bool</text><text fill="#000000" font-family="sans-serif" font-size="14" lengthAdjust="spacing" textLength="126" x="498.5" y="700.416">+isReturned() : bool</text><text fill="#000000" font-family="sans-serif" font-size="14" lengthAdjust="spacing" textLength="108" x="498.5" y="719.0371">+hasFine() : bool</text></g><!--class LendingNumber--><g id="elem_LendingNumber"><rect codeLine="46" fill="#F1F1F1" height="116.4453" id="LendingNumber" rx="2.5" ry="2.5" style="stroke:#181818;stroke-width:0.5;" width="132" x="508.5" y="806"/><ellipse cx="523.5" cy="828.291" fill="#ADD1B2" rx="11" ry="11" style="stroke:#181818;stroke-width:1.0;"/><path d="M526.2656,824.166 Q526.4219,823.9473 526.6094,823.8379 Q526.7969,823.7285 527.0156,823.7285 Q527.3906,823.7285 527.625,823.9941 Q527.8594,824.2441 527.8594,824.8535 L527.8594,826.3066 Q527.8594,826.916 527.625,827.1816 Q527.3906,827.4473 527.0156,827.4473 Q526.6719,827.4473 526.4688,827.2441 Q526.2656,827.0566 526.1563,826.541 Q526.1094,826.1816 525.9219,825.9941 Q525.5938,825.6191 524.9844,825.4004 Q524.375,825.1816 523.75,825.1816 Q522.9844,825.1816 522.3438,825.5098 Q521.7188,825.8379 521.2188,826.5879 Q520.7344,827.3379 520.7344,828.3691 L520.7344,829.4629 Q520.7344,830.6973 521.625,831.5254 Q522.5156,832.3379 524.1094,832.3379 Q525.0469,832.3379 525.7031,832.0879 Q526.0938,831.9316 526.5156,831.4941 Q526.7813,831.2285 526.9219,831.1504 Q527.0781,831.0723 527.2813,831.0723 Q527.6094,831.0723 527.8594,831.3379 Q528.125,831.5879 528.125,831.9316 Q528.125,832.2754 527.7813,832.6816 Q527.2813,833.2598 526.4844,833.5879 Q525.4063,834.041 524.1094,834.041 Q522.5938,834.041 521.3906,833.416 Q520.4063,832.916 519.7188,831.8535 Q519.0313,830.7754 519.0313,829.4941 L519.0313,828.3379 Q519.0313,827.0098 519.6406,825.8691 Q520.2656,824.7129 521.3594,824.1035 Q522.4531,823.4785 523.6875,823.4785 Q524.4219,823.4785 525.0625,823.6504 Q525.7188,823.8066 526.2656,824.166 Z " fill="#000000"/><text fill="#000000" font-family="sans-serif" font-size="12" font-style="italic" lengthAdjust="spacing" textLength="44" x="565.5" y="823.9492">&#171;value&#187;</text><text fill="#000000" font-family="sans-serif" font-size="14" lengthAdjust="spacing" textLength="100" x="537.5" y="842.0684">LendingNumber</text><line style="stroke:#181818;stroke-width:0.5;" x1="509.5" x2="639.5" y1="850.582" y2="850.582"/><text fill="#000000" font-family="sans-serif" font-size="14" lengthAdjust="spacing" textLength="105" x="514.5" y="869.6895">-registryYear :int</text><text fill="#000000" font-family="sans-serif" font-size="14" lengthAdjust="spacing" textLength="76" x="514.5" y="888.3105">-number :int</text><line style="stroke:#181818;stroke-width:0.5;" x1="509.5" x2="639.5" y1="895.8242" y2="895.8242"/><text fill="#000000" font-family="sans-serif" font-size="14" lengthAdjust="spacing" textLength="116" x="514.5" y="914.9316">+toString() : String</text></g><!--class Isbn--><g id="elem_Isbn"><rect codeLine="52" fill="#F1F1F1" height="79.2031" id="Isbn" rx="2.5" ry="2.5" style="stroke:#181818;stroke-width:0.5;" width="86" x="691.5" y="582.5"/><ellipse cx="712.8" cy="604.791" fill="#ADD1B2" rx="11" ry="11" style="stroke:#181818;stroke-width:1.0;"/><path d="M715.5656,600.666 Q715.7219,600.4473 715.9094,600.3379 Q716.0969,600.2285 716.3156,600.2285 Q716.6906,600.2285 716.925,600.4941 Q717.1594,600.7441 717.1594,601.3535 L717.1594,602.8066 Q717.1594,603.416 716.925,603.6816 Q716.6906,603.9473 716.3156,603.9473 Q715.9719,603.9473 715.7688,603.7441 Q715.5656,603.5566 715.4563,603.041 Q715.4094,602.6816 715.2219,602.4941 Q714.8938,602.1191 714.2844,601.9004 Q713.675,601.6816 713.05,601.6816 Q712.2844,601.6816 711.6438,602.0098 Q711.0188,602.3379 710.5188,603.0879 Q710.0344,603.8379 710.0344,604.8691 L710.0344,605.9629 Q710.0344,607.1973 710.925,608.0254 Q711.8156,608.8379 713.4094,608.8379 Q714.3469,608.8379 715.0031,608.5879 Q715.3938,608.4316 715.8156,607.9941 Q716.0813,607.7285 716.2219,607.6504 Q716.3781,607.5723 716.5813,607.5723 Q716.9094,607.5723 717.1594,607.8379 Q717.425,608.0879 717.425,608.4316 Q717.425,608.7754 717.0813,609.1816 Q716.5813,609.7598 715.7844,610.0879 Q714.7063,610.541 713.4094,610.541 Q711.8938,610.541 710.6906,609.916 Q709.7063,609.416 709.0188,608.3535 Q708.3313,607.2754 708.3313,605.9941 L708.3313,604.8379 Q708.3313,603.5098 708.9406,602.3691 Q709.5656,601.2129 710.6594,600.6035 Q711.7531,599.9785 712.9875,599.9785 Q713.7219,599.9785 714.3625,600.1504 Q715.0188,600.3066 715.5656,600.666 Z " fill="#000000"/><text fill="#000000" font-family="sans-serif" font-size="12" font-style="italic" lengthAdjust="spacing" textLength="44" x="726.2" y="600.4492">&#171;value&#187;</text><text fill="#000000" font-family="sans-serif" font-size="14" lengthAdjust="spacing" textLength="26" x="735.2" y="618.5684">Isbn</text><line style="stroke:#181818;stroke-width:0.5;" x1="692.5" x2="776.5" y1="627.082" y2="627.082"/><text fill="#000000" font-family="sans-serif" font-size="14" lengthAdjust="spacing" textLength="74" x="697.5" y="646.1895">-isbn: string</text><line style="stroke:#181818;stroke-width:0.5;" x1="692.5" x2="776.5" y1="653.7031" y2="653.7031"/></g><!--class ReaderNumber--><g id="elem_ReaderNumber"><rect codeLine="56" fill="#F1F1F1" height="116.4453" id="ReaderNumber" rx="2.5" ry="2.5" style="stroke:#181818;stroke-width:0.5;" width="128" x="329.5" y="564"/><ellipse cx="344.5" cy="586.291" fill="#ADD1B2" rx="11" ry="11" style="stroke:#181818;stroke-width:1.0;"/><path d="M347.2656,582.166 Q347.4219,581.9473 347.6094,581.8379 Q347.7969,581.7285 348.0156,581.7285 Q348.3906,581.7285 348.625,581.9941 Q348.8594,582.2441 348.8594,582.8535 L348.8594,584.3066 Q348.8594,584.916 348.625,585.1816 Q348.3906,585.4473 348.0156,585.4473 Q347.6719,585.4473 347.4688,585.2441 Q347.2656,585.0566 347.1563,584.541 Q347.1094,584.1816 346.9219,583.9941 Q346.5938,583.6191 345.9844,583.4004 Q345.375,583.1816 344.75,583.1816 Q343.9844,583.1816 343.3438,583.5098 Q342.7188,583.8379 342.2188,584.5879 Q341.7344,585.3379 341.7344,586.3691 L341.7344,587.4629 Q341.7344,588.6973 342.625,589.5254 Q343.5156,590.3379 345.1094,590.3379 Q346.0469,590.3379 346.7031,590.0879 Q347.0938,589.9316 347.5156,589.4941 Q347.7813,589.2285 347.9219,589.1504 Q348.0781,589.0723 348.2813,589.0723 Q348.6094,589.0723 348.8594,589.3379 Q349.125,589.5879 349.125,589.9316 Q349.125,590.2754 348.7813,590.6816 Q348.2813,591.2598 347.4844,591.5879 Q346.4063,592.041 345.1094,592.041 Q343.5938,592.041 342.3906,591.416 Q341.4063,590.916 340.7188,589.8535 Q340.0313,588.7754 340.0313,587.4941 L340.0313,586.3379 Q340.0313,585.0098 340.6406,583.8691 Q341.2656,582.7129 342.3594,582.1035 Q343.4531,581.4785 344.6875,581.4785 Q345.4219,581.4785 346.0625,581.6504 Q346.7188,581.8066 347.2656,582.166 Z " fill="#000000"/><text fill="#000000" font-family="sans-serif" font-size="12" font-style="italic" lengthAdjust="spacing" textLength="44" x="384.5" y="581.9492">&#171;value&#187;</text><text fill="#000000" font-family="sans-serif" font-size="14" lengthAdjust="spacing" textLength="96" x="358.5" y="600.0684">ReaderNumber</text><line style="stroke:#181818;stroke-width:0.5;" x1="330.5" x2="456.5" y1="608.582" y2="608.582"/><text fill="#000000" font-family="sans-serif" font-size="14" lengthAdjust="spacing" textLength="105" x="335.5" y="627.6895">-registryYear :int</text><text fill="#000000" font-family="sans-serif" font-size="14" lengthAdjust="spacing" textLength="76" x="335.5" y="646.3105">-number :int</text><line style="stroke:#181818;stroke-width:0.5;" x1="330.5" x2="456.5" y1="653.8242" y2="653.8242"/><text fill="#000000" font-family="sans-serif" font-size="14" lengthAdjust="spacing" textLength="116" x="335.5" y="672.9316">+toString() : String</text></g><!--class Fine--><g id="elem_Fine"><rect codeLine="62" fill="#F1F1F1" height="153.6875" id="Fine" rx="2.5" ry="2.5" style="stroke:#181818;stroke-width:0.5;" width="252" x="675.5" y="787"/><ellipse cx="777.75" cy="809.291" fill="#ADD1B2" rx="11" ry="11" style="stroke:#181818;stroke-width:1.0;"/><path d="M780.5156,805.166 Q780.6719,804.9473 780.8594,804.8379 Q781.0469,804.7285 781.2656,804.7285 Q781.6406,804.7285 781.875,804.9941 Q782.1094,805.2441 782.1094,805.8535 L782.1094,807.3066 Q782.1094,807.916 781.875,808.1816 Q781.6406,808.4473 781.2656,808.4473 Q780.9219,808.4473 780.7188,808.2441 Q780.5156,808.0566 780.4063,807.541 Q780.3594,807.1816 780.1719,806.9941 Q779.8438,806.6191 779.2344,806.4004 Q778.625,806.1816 778,806.1816 Q777.2344,806.1816 776.5938,806.5098 Q775.9688,806.8379 775.4688,807.5879 Q774.9844,808.3379 774.9844,809.3691 L774.9844,810.4629 Q774.9844,811.6973 775.875,812.5254 Q776.7656,813.3379 778.3594,813.3379 Q779.2969,813.3379 779.9531,813.0879 Q780.3438,812.9316 780.7656,812.4941 Q781.0313,812.2285 781.1719,812.1504 Q781.3281,812.0723 781.5313,812.0723 Q781.8594,812.0723 782.1094,812.3379 Q782.375,812.5879 782.375,812.9316 Q782.375,813.2754 782.0313,813.6816 Q781.5313,814.2598 780.7344,814.5879 Q779.6563,815.041 778.3594,815.041 Q776.8438,815.041 775.6406,814.416 Q774.6563,813.916 773.9688,812.8535 Q773.2813,811.7754 773.2813,810.4941 L773.2813,809.3379 Q773.2813,808.0098 773.8906,806.8691 Q774.5156,805.7129 775.6094,805.1035 Q776.7031,804.4785 777.9375,804.4785 Q778.6719,804.4785 779.3125,804.6504 Q779.9688,804.8066 780.5156,805.166 Z " fill="#000000"/><text fill="#000000" font-family="sans-serif" font-size="12" font-style="italic" lengthAdjust="spacing" textLength="43" x="796.25" y="804.9492">&#171;entity&#187;</text><text fill="#000000" font-family="sans-serif" font-size="14" lengthAdjust="spacing" textLength="28" x="803.75" y="823.0684">Fine</text><line style="stroke:#181818;stroke-width:0.5;" x1="676.5" x2="926.5" y1="831.582" y2="831.582"/><text fill="#000000" font-family="sans-serif" font-size="14" lengthAdjust="spacing" textLength="102" x="681.5" y="850.6895">-centsValue : int</text><text fill="#000000" font-family="sans-serif" font-size="14" lengthAdjust="spacing" textLength="67" x="681.5" y="869.3105">-paid :bool</text><line style="stroke:#181818;stroke-width:0.5;" x1="676.5" x2="926.5" y1="876.8242" y2="876.8242"/><text fill="#000000" font-family="sans-serif" font-size="14" lengthAdjust="spacing" textLength="240" x="681.5" y="895.9316">+updateValue(int daysOverdue) : void</text><text fill="#000000" font-family="sans-serif" font-size="14" lengthAdjust="spacing" textLength="101" x="681.5" y="914.5527">+getValue() : int</text><text fill="#000000" font-family="sans-serif" font-size="14" lengthAdjust="spacing" textLength="95" x="681.5" y="933.1738">+isPaid() : bool</text></g><!--class LendingDTO--><g id="elem_LendingDTO"><rect codeLine="70" fill="#F1F1F1" height="48" id="LendingDTO" rx="2.5" ry="2.5" style="stroke:#181818;stroke-width:0.5;" width="113" x="7" y="217.5"/><ellipse cx="22" cy="233.5" fill="#ADD1B2" rx="11" ry="11" style="stroke:#181818;stroke-width:1.0;"/><path d="M24.7656,229.375 Q24.9219,229.1563 25.1094,229.0469 Q25.2969,228.9375 25.5156,228.9375 Q25.8906,228.9375 26.125,229.2031 Q26.3594,229.4531 26.3594,230.0625 L26.3594,231.5156 Q26.3594,232.125 26.125,232.3906 Q25.8906,232.6563 25.5156,232.6563 Q25.1719,232.6563 24.9688,232.4531 Q24.7656,232.2656 24.6563,231.75 Q24.6094,231.3906 24.4219,231.2031 Q24.0938,230.8281 23.4844,230.6094 Q22.875,230.3906 22.25,230.3906 Q21.4844,230.3906 20.8438,230.7188 Q20.2188,231.0469 19.7188,231.7969 Q19.2344,232.5469 19.2344,233.5781 L19.2344,234.6719 Q19.2344,235.9063 20.125,236.7344 Q21.0156,237.5469 22.6094,237.5469 Q23.5469,237.5469 24.2031,237.2969 Q24.5938,237.1406 25.0156,236.7031 Q25.2813,236.4375 25.4219,236.3594 Q25.5781,236.2813 25.7813,236.2813 Q26.1094,236.2813 26.3594,236.5469 Q26.625,236.7969 26.625,237.1406 Q26.625,237.4844 26.2813,237.8906 Q25.7813,238.4688 24.9844,238.7969 Q23.9063,239.25 22.6094,239.25 Q21.0938,239.25 19.8906,238.625 Q18.9063,238.125 18.2188,237.0625 Q17.5313,235.9844 17.5313,234.7031 L17.5313,233.5469 Q17.5313,232.2188 18.1406,231.0781 Q18.7656,229.9219 19.8594,229.3125 Q20.9531,228.6875 22.1875,228.6875 Q22.9219,228.6875 23.5625,228.8594 Q24.2188,229.0156 24.7656,229.375 Z " fill="#000000"/><text fill="#000000" font-family="sans-serif" font-size="14" lengthAdjust="spacing" textLength="81" x="36" y="239.2969">LendingDTO</text><line style="stroke:#181818;stroke-width:0.5;" x1="8" x2="119" y1="249.5" y2="249.5"/><line style="stroke:#181818;stroke-width:0.5;" x1="8" x2="119" y1="257.5" y2="257.5"/></g><!--class LendingMapper--><g id="elem_LendingMapper"><rect codeLine="74" fill="#F1F1F1" height="85.2422" id="LendingMapper" rx="2.5" ry="2.5" style="stroke:#181818;stroke-width:0.5;" width="206" x="155.5" y="199"/><ellipse cx="204.75" cy="215" fill="#ADD1B2" rx="11" ry="11" style="stroke:#181818;stroke-width:1.0;"/><path d="M207.5156,210.875 Q207.6719,210.6563 207.8594,210.5469 Q208.0469,210.4375 208.2656,210.4375 Q208.6406,210.4375 208.875,210.7031 Q209.1094,210.9531 209.1094,211.5625 L209.1094,213.0156 Q209.1094,213.625 208.875,213.8906 Q208.6406,214.1563 208.2656,214.1563 Q207.9219,214.1563 207.7188,213.9531 Q207.5156,213.7656 207.4063,213.25 Q207.3594,212.8906 207.1719,212.7031 Q206.8438,212.3281 206.2344,212.1094 Q205.625,211.8906 205,211.8906 Q204.2344,211.8906 203.5938,212.2188 Q202.9688,212.5469 202.4688,213.2969 Q201.9844,214.0469 201.9844,215.0781 L201.9844,216.1719 Q201.9844,217.4063 202.875,218.2344 Q203.7656,219.0469 205.3594,219.0469 Q206.2969,219.0469 206.9531,218.7969 Q207.3438,218.6406 207.7656,218.2031 Q208.0313,217.9375 208.1719,217.8594 Q208.3281,217.7813 208.5313,217.7813 Q208.8594,217.7813 209.1094,218.0469 Q209.375,218.2969 209.375,218.6406 Q209.375,218.9844 209.0313,219.3906 Q208.5313,219.9688 207.7344,220.2969 Q206.6563,220.75 205.3594,220.75 Q203.8438,220.75 202.6406,220.125 Q201.6563,219.625 200.9688,218.5625 Q200.2813,217.4844 200.2813,216.2031 L200.2813,215.0469 Q200.2813,213.7188 200.8906,212.5781 Q201.5156,211.4219 202.6094,210.8125 Q203.7031,210.1875 204.9375,210.1875 Q205.6719,210.1875 206.3125,210.3594 Q206.9688,210.5156 207.5156,210.875 Z " fill="#000000"/><text fill="#000000" font-family="sans-serif" font-size="14" lengthAdjust="spacing" textLength="99" x="225.25" y="220.7969">LendingMapper</text><line style="stroke:#181818;stroke-width:0.5;" x1="156.5" x2="360.5" y1="231" y2="231"/><text fill="#000000" font-family="sans-serif" font-size="14" lengthAdjust="spacing" textLength="5" x="161.5" y="250.1074">-</text><line style="stroke:#181818;stroke-width:0.5;" x1="156.5" x2="360.5" y1="257.6211" y2="257.6211"/><text fill="#000000" font-family="sans-serif" font-size="14" lengthAdjust="spacing" textLength="194" x="161.5" y="276.7285">-create(lendingDTO) : Lending</text></g><!--reverse link LendingService to LendingServiceImpl--><g id="link_LendingService_LendingServiceImpl"><path d="M459.8965,326.2173 C438.0065,354.1473 425.39,370.25 409.61,390.39 " fill="none" id="LendingService-backto-LendingServiceImpl" style="stroke:#181818;stroke-width:1.0;stroke-dasharray:7.0,7.0;"/><polygon fill="none" points="471,312.05,455.174,322.5161,464.6189,329.9184,471,312.05" style="stroke:#181818;stroke-width:1.0;"/></g><!--reverse link Lending to Isbn--><g id="link_Lending_Isbn"><path codeLine="81" d="M668.69,622 C680.24,622 679.79,622 691.34,622 " fill="none" id="Lending-backto-Isbn" style="stroke:#181818;stroke-width:1.0;"/><polygon fill="none" points="656.69,622,662.69,626,668.69,622,662.69,618,656.69,622" style="stroke:#181818;stroke-width:1.0;"/></g><!--link ReaderNumber to Lending--><g id="link_ReaderNumber_Lending"><path codeLine="82" d="M457.84,622 C469.38,622 468.93,622 480.47,622 " fill="none" id="ReaderNumber-to-Lending" style="stroke:#181818;stroke-width:1.0;"/><polygon fill="none" points="492.47,622,486.47,618,480.47,622,486.47,626,492.47,622" style="stroke:#181818;stroke-width:1.0;"/></g><!--reverse link Lending to LendingNumber--><g id="link_Lending_LendingNumber"><path codeLine="83" d="M574.5,739.22 C574.5,766.17 574.5,782.19 574.5,805.73 " fill="none" id="Lending-backto-LendingNumber" style="stroke:#181818;stroke-width:1.0;"/><polygon fill="#181818" points="574.5,727.22,570.5,733.22,574.5,739.22,578.5,733.22,574.5,727.22" style="stroke:#181818;stroke-width:1.0;"/></g><!--link LendingNumber to Fine--><g id="link_LendingNumber_Fine"><path codeLine="84" d="M640.56,864 C652.19,864 651.82,864 663.45,864 " fill="none" id="LendingNumber-to-Fine" style="stroke:#181818;stroke-width:1.0;"/><polygon fill="none" points="675.45,864,669.45,860,663.45,864,669.45,868,675.45,864" style="stroke:#181818;stroke-width:1.0;"/></g><!--link LendingServiceImpl to Lending--><g id="link_LendingServiceImpl_Lending"><path codeLine="86" d="M412.14,438.67 C431.77,460.72 458.6202,490.8687 488.1702,524.0587 " fill="none" id="LendingServiceImpl-to-Lending" style="stroke:#181818;stroke-width:1.0;stroke-dasharray:7.0,7.0;"/><polygon fill="#181818" points="492.16,528.54,489.1628,519.1583,488.8352,524.8056,483.1878,524.478,492.16,528.54" style="stroke:#181818;stroke-width:1.0;"/></g><!--link LendingController to LendingService--><g id="link_LendingController_LendingService"><path codeLine="88" d="M525.5,111.24 C525.5,129.79 525.5,145.07 525.5,164.93 " fill="none" id="LendingController-to-LendingService" style="stroke:#181818;stroke-width:1.0;stroke-dasharray:7.0,7.0;"/><polygon fill="#181818" points="525.5,170.93,529.5,161.93,525.5,165.93,521.5,161.93,525.5,170.93" style="stroke:#181818;stroke-width:1.0;"/></g><!--reverse link LendingRepository to LendingServiceImpl--><g id="link_LendingRepository_LendingServiceImpl"><path codeLine="89" d="M284.67,414.5 C296.42,414.5 302.18,414.5 313.93,414.5 " fill="none" id="LendingRepository-backto-LendingServiceImpl" style="stroke:#181818;stroke-width:1.0;stroke-dasharray:7.0,7.0;"/><polygon fill="#181818" points="278.67,414.5,287.67,418.5,283.67,414.5,287.67,410.5,278.67,414.5" style="stroke:#181818;stroke-width:1.0;"/></g><!--link LendingServiceImpl to ReaderRepository--><g id="link_LendingServiceImpl_ReaderRepository"><path codeLine="90" d="M370.86,438.67 C338.24,475.31 278.6398,542.2287 241.4598,583.9887 " fill="none" id="LendingServiceImpl-to-ReaderRepository" style="stroke:#181818;stroke-width:1.0;stroke-dasharray:7.0,7.0;"/><polygon fill="#181818" points="237.47,588.47,246.4422,584.408,240.7948,584.7356,240.4672,579.0883,237.47,588.47" style="stroke:#181818;stroke-width:1.0;"/></g><!--link LendingServiceImpl to BookRepository--><g id="link_LendingServiceImpl_BookRepository"><path codeLine="91" d="M469.11,414.5 C480.73,414.5 486.35,414.5 497.96,414.5 " fill="none" id="LendingServiceImpl-to-BookRepository" style="stroke:#181818;stroke-width:1.0;stroke-dasharray:7.0,7.0;"/><polygon fill="#181818" points="503.96,414.5,494.96,410.5,498.96,414.5,494.96,418.5,503.96,414.5" style="stroke:#181818;stroke-width:1.0;"/></g><!--link LendingMapper to LendingServiceImpl--><g id="link_LendingMapper_LendingServiceImpl"><path codeLine="93" d="M291.04,284.33 C317.03,317.75 348.8067,358.6036 369.8967,385.7236 " fill="none" id="LendingMapper-to-LendingServiceImpl" style="stroke:#181818;stroke-width:1.0;stroke-dasharray:7.0,7.0;"/><polygon fill="#181818" points="373.58,390.46,371.2127,380.8999,370.5106,386.513,364.8975,385.8109,373.58,390.46" style="stroke:#181818;stroke-width:1.0;"/></g><!--reverse link LendingDTO to LendingMapper--><g id="link_LendingDTO_LendingMapper"><path codeLine="94" d="M126.25,241.5 C137.95,241.5 143.65,241.5 155.35,241.5 " fill="none" id="LendingDTO-backto-LendingMapper" style="stroke:#181818;stroke-width:1.0;stroke-dasharray:7.0,7.0;"/><polygon fill="#181818" points="120.25,241.5,129.25,245.5,125.25,241.5,129.25,237.5,120.25,241.5" style="stroke:#181818;stroke-width:1.0;"/></g><!--SRC=[hLJBhjem4DtxAxmhVGHrZH1IxqMLaDhU2gfANPfuWD5rxCXsKb7KVwyVUJa9hCg297FEp9nvs6yko87cg7C1nBoYB9bc1Sq5C-QJjHgFbOLThkG1_m3zI4X0w1UG7ENvMKchbH2WwOrGztjFSmtCGeClq1pb1-fC7FItgZY2VjlmDDXAooUbNX-Gpc3RI28-M_ml8IWjw1FBeLMpXr8Pj4fVEpKdbFpfkkCZTxfgVHgUOJMqd24wb-O0kaRtcLOyLyKapHqv2ReF4HPpxOY4qBETozQQgv9x0TCE9RDgPE-AKb1qVr20j6FqbbOSjJpgQoepSVOw7xbYA64iawxNJXVQwsOJFJ9gBDDswqfq_VIFnYomm1bpNAonFUnIbBcOpiLXBpLeNi6MNKqWk3eQ44s31VjHAT41-v0B-1YvCFCPvS1XN6LKucgjcQXWiw6tJlqPZTNNNy0qNRKYCYgZmwgNPTN17KztCdoI-DgdyUlHHs-3-uwlN3jJxdummgdFVnBasp4psjplu4-VST3oZ9OCELqD6XfNF10NZaQv6rCp5P-jLiZxKKRQU8ZVNSpx0zd-UBcHYVKhAqlGdTXuq4NdCLwaB4GWxIQhBCnXy2tWPBEauHtuBkFgjypI1I7fkcGQpnURgT3DBi_mO2-NcquHcLxI0xZncWtYPVRC_WpVopY-9cPvGRiZfzV2R1NhPLKkqncGv6iiqSs2_0C0]--></g></svg>