<?xml version="1.0" encoding="us-ascii" standalone="no"?><svg xmlns="http://www.w3.org/2000/svg" xmlns:xlink="http://www.w3.org/1999/xlink" contentStyleType="text/css" height="592.9px" preserveAspectRatio="none" style="width:1162px;height:592px;background:#FFFFFF;" version="1.1" viewBox="0 0 1162 592" width="1162.7px" zoomAndPan="magnify"><defs/><g><text fill="#000000" font-family="sans-serif" font-size="9.8" font-weight="bold" lengthAdjust="spacing" textLength="93.1" x="534.275" y="21.0752">US 26 Funny Quote</text><rect fill="#FFFFFF" height="400.5941" style="stroke:#181818;stroke-width:0.6999999999999998;" width="7" x="164.85" y="121.677"/><rect fill="#FFFFFF" height="332.5793" style="stroke:#181818;stroke-width:0.6999999999999998;" width="7" x="318.85" y="143.5807"/><rect fill="#FFFFFF" height="65.7111" style="stroke:#181818;stroke-width:0.6999999999999998;" width="7" x="494.55" y="165.4844"/><rect fill="#FFFFFF" height="21.9037" style="stroke:#181818;stroke-width:0.6999999999999998;" width="7" x="670.25" y="187.3881"/><rect fill="#FFFFFF" height="52.4385" style="stroke:#181818;stroke-width:0.6999999999999998;" width="7" x="773.5" y="253.0992"/><rect fill="#FFFFFF" height="83.9111" style="stroke:#181818;stroke-width:0.6999999999999998;" width="7" x="873.25" y="327.4414"/><rect fill="#FFFFFF" height="29.6037" style="stroke:#181818;stroke-width:0.6999999999999998;" width="7" x="876.75" y="354.9451"/><rect fill="#FFFFFF" height="23.5348" style="stroke:#181818;stroke-width:0.6999999999999998;" width="7" x="1099.35" y="282.0029"/><rect fill="#FFFFFF" height="21" style="stroke:#181818;stroke-width:0.6999999999999998;" width="7" x="1099.35" y="433.2562"/><line style="stroke:#181818;stroke-width:0.3499999999999999;stroke-dasharray:5.0,5.0;" x1="42.7" x2="42.7" y1="86.2695" y2="534.8711"/><line style="stroke:#181818;stroke-width:0.3499999999999999;stroke-dasharray:5.0,5.0;" x1="168.35" x2="168.35" y1="86.2695" y2="534.8711"/><line style="stroke:#181818;stroke-width:0.3499999999999999;stroke-dasharray:5.0,5.0;" x1="322" x2="322" y1="86.2695" y2="534.8711"/><line style="stroke:#181818;stroke-width:0.3499999999999999;stroke-dasharray:5.0,5.0;" x1="498.05" x2="498.05" y1="86.2695" y2="534.8711"/><line style="stroke:#181818;stroke-width:0.3499999999999999;stroke-dasharray:5.0,5.0;" x1="673.4" x2="673.4" y1="86.2695" y2="534.8711"/><line style="stroke:#181818;stroke-width:0.3499999999999999;stroke-dasharray:5.0,5.0;" x1="777" x2="777" y1="86.2695" y2="534.8711"/><line style="stroke:#181818;stroke-width:0.3499999999999999;stroke-dasharray:5.0,5.0;" x1="876.4" x2="876.4" y1="86.2695" y2="534.8711"/><line style="stroke:#181818;stroke-width:0.3499999999999999;stroke-dasharray:5.0,5.0;" x1="1102.85" x2="1102.85" y1="280.9666" y2="534.8711"/><text fill="#000000" font-family="sans-serif" font-size="9.8" lengthAdjust="spacing" textLength="74.9" x="3.5" y="83.81">Librarian/Reader</text><ellipse cx="43.05" cy="37.1848" fill="#E2E2F0" rx="5.6" ry="5.6" style="stroke:#181818;stroke-width:0.3499999999999999;"/><path d="M43.05,42.7848 L43.05,61.6848 M33.95,48.3848 L52.15,48.3848 M43.05,61.6848 L33.95,72.1848 M43.05,61.6848 L52.15,72.1848 " fill="none" style="stroke:#181818;stroke-width:0.3499999999999999;"/><text fill="#000000" font-family="sans-serif" font-size="9.8" lengthAdjust="spacing" textLength="74.9" x="3.5" y="544.7463">Librarian/Reader</text><ellipse cx="43.05" cy="553.1559" fill="#E2E2F0" rx="5.6" ry="5.6" style="stroke:#181818;stroke-width:0.3499999999999999;"/><path d="M43.05,558.7559 L43.05,577.6559 M33.95,564.3559 L52.15,564.3559 M43.05,577.6559 L33.95,588.1559 M43.05,577.6559 L52.15,588.1559 " fill="none" style="stroke:#181818;stroke-width:0.3499999999999999;"/><rect fill="#E2E2F0" height="22.8348" rx="1.75" ry="1.75" style="stroke:#181818;stroke-width:0.3499999999999999;" width="42" x="147.35" y="62.7348"/><text fill="#000000" font-family="sans-serif" font-size="9.8" lengthAdjust="spacing" textLength="32.2" x="152.25" y="78.21">System</text><rect fill="#E2E2F0" height="22.8348" rx="1.75" ry="1.75" style="stroke:#181818;stroke-width:0.3499999999999999;" width="42" x="147.35" y="534.1711"/><text fill="#000000" font-family="sans-serif" font-size="9.8" lengthAdjust="spacing" textLength="32.2" x="152.25" y="549.6463">System</text><rect fill="#E2E2F0" height="22.8348" rx="1.75" ry="1.75" style="stroke:#181818;stroke-width:0.3499999999999999;" width="88.9" x="277.9" y="62.7348"/><text fill="#000000" font-family="sans-serif" font-size="9.8" lengthAdjust="spacing" textLength="79.1" x="282.8" y="78.21">:ReaderController</text><rect fill="#E2E2F0" height="22.8348" rx="1.75" ry="1.75" style="stroke:#181818;stroke-width:0.3499999999999999;" width="88.9" x="277.9" y="534.1711"/><text fill="#000000" font-family="sans-serif" font-size="9.8" lengthAdjust="spacing" textLength="79.1" x="282.8" y="549.6463">:ReaderController</text><rect fill="#E2E2F0" height="22.8348" rx="1.75" ry="1.75" style="stroke:#181818;stroke-width:0.3499999999999999;" width="78.4" x="458.85" y="62.7348"/><text fill="#000000" font-family="sans-serif" font-size="9.8" lengthAdjust="spacing" textLength="68.6" x="463.75" y="78.21">:ReaderService</text><rect fill="#E2E2F0" height="22.8348" rx="1.75" ry="1.75" style="stroke:#181818;stroke-width:0.3499999999999999;" width="78.4" x="458.85" y="534.1711"/><text fill="#000000" font-family="sans-serif" font-size="9.8" lengthAdjust="spacing" textLength="68.6" x="463.75" y="549.6463">:ReaderService</text><rect fill="#E2E2F0" height="22.8348" rx="1.75" ry="1.75" style="stroke:#181818;stroke-width:0.3499999999999999;" width="93.1" x="627.2" y="62.7348"/><text fill="#000000" font-family="sans-serif" font-size="9.8" lengthAdjust="spacing" textLength="83.3" x="632.1" y="78.21">:ReaderRepository</text><rect fill="#E2E2F0" height="22.8348" rx="1.75" ry="1.75" style="stroke:#181818;stroke-width:0.3499999999999999;" width="93.1" x="627.2" y="534.1711"/><text fill="#000000" font-family="sans-serif" font-size="9.8" lengthAdjust="spacing" textLength="83.3" x="632.1" y="549.6463">:ReaderRepository</text><rect fill="#E2E2F0" height="22.8348" rx="1.75" ry="1.75" style="stroke:#181818;stroke-width:0.3499999999999999;" width="99.4" x="727.3" y="62.7348"/><text fill="#000000" font-family="sans-serif" font-size="9.8" lengthAdjust="spacing" textLength="89.6" x="732.2" y="78.21">:ReaderViewMapper</text><rect fill="#E2E2F0" height="22.8348" rx="1.75" ry="1.75" style="stroke:#181818;stroke-width:0.3499999999999999;" width="99.4" x="727.3" y="534.1711"/><text fill="#000000" font-family="sans-serif" font-size="9.8" lengthAdjust="spacing" textLength="89.6" x="732.2" y="549.6463">:ReaderViewMapper</text><rect fill="#E2E2F0" height="22.8348" rx="1.75" ry="1.75" style="stroke:#181818;stroke-width:0.3499999999999999;" width="86.1" x="833.7" y="62.7348"/><text fill="#000000" font-family="sans-serif" font-size="9.8" lengthAdjust="spacing" textLength="76.3" x="838.6" y="78.21">:ApiNinjasService</text><rect fill="#E2E2F0" height="22.8348" rx="1.75" ry="1.75" style="stroke:#181818;stroke-width:0.3499999999999999;" width="86.1" x="833.7" y="534.1711"/><text fill="#000000" font-family="sans-serif" font-size="9.8" lengthAdjust="spacing" textLength="76.3" x="838.6" y="549.6463">:ApiNinjasService</text><rect fill="#E2E2F0" height="22.8348" rx="1.75" ry="1.75" style="stroke:#181818;stroke-width:0.3499999999999999;" width="112" x="1046.85" y="534.1711"/><text fill="#000000" font-family="sans-serif" font-size="9.8" lengthAdjust="spacing" textLength="102.2" x="1051.75" y="549.6463">view:ReaderQuoteView</text><rect fill="#FFFFFF" height="400.5941" style="stroke:#181818;stroke-width:0.6999999999999998;" width="7" x="164.85" y="121.677"/><rect fill="#FFFFFF" height="332.5793" style="stroke:#181818;stroke-width:0.6999999999999998;" width="7" x="318.85" y="143.5807"/><rect fill="#FFFFFF" height="65.7111" style="stroke:#181818;stroke-width:0.6999999999999998;" width="7" x="494.55" y="165.4844"/><rect fill="#FFFFFF" height="21.9037" style="stroke:#181818;stroke-width:0.6999999999999998;" width="7" x="670.25" y="187.3881"/><rect fill="#FFFFFF" height="52.4385" style="stroke:#181818;stroke-width:0.6999999999999998;" width="7" x="773.5" y="253.0992"/><rect fill="#FFFFFF" height="83.9111" style="stroke:#181818;stroke-width:0.6999999999999998;" width="7" x="873.25" y="327.4414"/><rect fill="#FFFFFF" height="29.6037" style="stroke:#181818;stroke-width:0.6999999999999998;" width="7" x="876.75" y="354.9451"/><rect fill="#FFFFFF" height="23.5348" style="stroke:#181818;stroke-width:0.6999999999999998;" width="7" x="1099.35" y="282.0029"/><rect fill="#FFFFFF" height="21" style="stroke:#181818;stroke-width:0.6999999999999998;" width="7" x="1099.35" y="433.2562"/><polygon fill="#181818" points="156.45,118.877,163.45,121.677,156.45,124.477,159.25,121.677" style="stroke:#181818;stroke-width:0.6999999999999998;"/><line style="stroke:#181818;stroke-width:0.6999999999999998;" x1="43.05" x2="160.65" y1="121.677" y2="121.677"/><text fill="#000000" font-family="sans-serif" font-size="9.1" font-weight="bold" lengthAdjust="spacing" textLength="4.9" x="47.95" y="111.9412">1</text><text fill="#000000" font-family="sans-serif" font-size="9.1" lengthAdjust="spacing" textLength="49.7" x="55.65" y="105.8894">asks to view</text><text fill="#000000" font-family="sans-serif" font-size="9.1" lengthAdjust="spacing" textLength="32.9" x="55.65" y="117.9931">a reader</text><polygon fill="#181818" points="310.45,140.7807,317.45,143.5807,310.45,146.3807,313.25,143.5807" style="stroke:#181818;stroke-width:0.6999999999999998;"/><line style="stroke:#181818;stroke-width:0.6999999999999998;" x1="171.85" x2="314.65" y1="143.5807" y2="143.5807"/><text fill="#000000" font-family="sans-serif" font-size="9.1" font-weight="bold" lengthAdjust="spacing" textLength="4.9" x="176.75" y="139.8968">2</text><text fill="#000000" font-family="sans-serif" font-size="9.1" lengthAdjust="spacing" textLength="126" x="184.45" y="139.8968">findByReaderNumber(year,seq)</text><polygon fill="#181818" points="486.15,162.6844,493.15,165.4844,486.15,168.2844,488.95,165.4844" style="stroke:#181818;stroke-width:0.6999999999999998;"/><line style="stroke:#181818;stroke-width:0.6999999999999998;" x1="325.85" x2="490.35" y1="165.4844" y2="165.4844"/><text fill="#000000" font-family="sans-serif" font-size="9.1" font-weight="bold" lengthAdjust="spacing" textLength="4.9" x="330.75" y="161.8005">3</text><text fill="#000000" font-family="sans-serif" font-size="9.1" lengthAdjust="spacing" textLength="147.7" x="338.45" y="161.8005">findByReaderNumber(readerNumber)</text><polygon fill="#181818" points="661.85,184.5881,668.85,187.3881,661.85,190.1881,664.65,187.3881" style="stroke:#181818;stroke-width:0.6999999999999998;"/><line style="stroke:#181818;stroke-width:0.6999999999999998;" x1="501.55" x2="666.05" y1="187.3881" y2="187.3881"/><text fill="#000000" font-family="sans-serif" font-size="9.1" font-weight="bold" lengthAdjust="spacing" textLength="4.9" x="506.45" y="183.7042">4</text><text fill="#000000" font-family="sans-serif" font-size="9.1" lengthAdjust="spacing" textLength="147.7" x="514.15" y="183.7042">findByReaderNumber(readerNumber)</text><polygon fill="#181818" points="509.25,206.4918,502.25,209.2918,509.25,212.0918,506.45,209.2918" style="stroke:#181818;stroke-width:0.6999999999999998;"/><line style="stroke:#181818;stroke-width:0.6999999999999998;stroke-dasharray:2.0,2.0;" x1="505.05" x2="673.05" y1="209.2918" y2="209.2918"/><text fill="#000000" font-family="sans-serif" font-size="9.1" font-weight="bold" lengthAdjust="spacing" textLength="4.9" x="513.45" y="205.6079">5</text><text fill="#000000" font-family="sans-serif" font-size="9.1" lengthAdjust="spacing" textLength="58.8" x="521.15" y="205.6079">(readerDetails)</text><polygon fill="#181818" points="333.55,228.3955,326.55,231.1955,333.55,233.9955,330.75,231.1955" style="stroke:#181818;stroke-width:0.6999999999999998;"/><line style="stroke:#181818;stroke-width:0.6999999999999998;stroke-dasharray:2.0,2.0;" x1="329.35" x2="497.35" y1="231.1955" y2="231.1955"/><text fill="#000000" font-family="sans-serif" font-size="9.1" font-weight="bold" lengthAdjust="spacing" textLength="4.9" x="337.75" y="227.5116">6</text><text fill="#000000" font-family="sans-serif" font-size="9.1" lengthAdjust="spacing" textLength="58.8" x="345.45" y="227.5116">(readerDetails)</text><polygon fill="#181818" points="765.1,250.2992,772.1,253.0992,765.1,255.8992,767.9,253.0992" style="stroke:#181818;stroke-width:0.6999999999999998;"/><line style="stroke:#181818;stroke-width:0.6999999999999998;" x1="325.85" x2="769.3" y1="253.0992" y2="253.0992"/><text fill="#000000" font-family="sans-serif" font-size="9.1" font-weight="bold" lengthAdjust="spacing" textLength="4.9" x="330.75" y="249.4153">7</text><text fill="#000000" font-family="sans-serif" font-size="9.1" lengthAdjust="spacing" textLength="139.3" x="338.45" y="249.4153">toReaderQuoteView(readerDetails)</text><polygon fill="#181818" points="1038.45,272.2029,1045.45,275.0029,1038.45,277.8029,1041.25,275.0029" style="stroke:#181818;stroke-width:0.6999999999999998;"/><line style="stroke:#181818;stroke-width:0.6999999999999998;" x1="780.5" x2="1042.65" y1="275.0029" y2="275.0029"/><text fill="#000000" font-family="sans-serif" font-size="9.1" font-weight="bold" lengthAdjust="spacing" textLength="4.9" x="785.4" y="271.319">8</text><text fill="#000000" font-family="sans-serif" font-size="9.1" lengthAdjust="spacing" textLength="2.8" x="793.1" y="271.319">&#160;</text><rect fill="#E2E2F0" height="22.8348" rx="1.75" ry="1.75" style="stroke:#181818;stroke-width:0.3499999999999999;" width="112" x="1046.85" y="258.6992"/><text fill="#000000" font-family="sans-serif" font-size="9.8" lengthAdjust="spacing" textLength="102.2" x="1051.75" y="274.1744">view:ReaderQuoteView</text><polygon fill="#181818" points="333.55,302.7377,326.55,305.5377,333.55,308.3377,330.75,305.5377" style="stroke:#181818;stroke-width:0.6999999999999998;"/><line style="stroke:#181818;stroke-width:0.6999999999999998;stroke-dasharray:2.0,2.0;" x1="329.35" x2="776.3" y1="305.5377" y2="305.5377"/><text fill="#000000" font-family="sans-serif" font-size="9.1" font-weight="bold" lengthAdjust="spacing" textLength="4.9" x="337.75" y="301.8538">9</text><text fill="#000000" font-family="sans-serif" font-size="9.1" lengthAdjust="spacing" textLength="74.9" x="345.45" y="301.8538">(readerQuoteView)</text><polygon fill="#181818" points="864.85,324.6414,871.85,327.4414,864.85,330.2414,867.65,327.4414" style="stroke:#181818;stroke-width:0.6999999999999998;"/><line style="stroke:#181818;stroke-width:0.6999999999999998;" x1="325.85" x2="869.05" y1="327.4414" y2="327.4414"/><text fill="#000000" font-family="sans-serif" font-size="9.1" font-weight="bold" lengthAdjust="spacing" textLength="9.8" x="330.75" y="323.7575">10</text><text fill="#000000" font-family="sans-serif" font-size="9.1" lengthAdjust="spacing" textLength="221.2" x="343.35" y="323.7575">getRandomEventFromYearMonth(birthYear, birhMonth)</text><line style="stroke:#181818;stroke-width:0.6999999999999998;" x1="880.25" x2="913.15" y1="345.8451" y2="345.8451"/><line style="stroke:#181818;stroke-width:0.6999999999999998;" x1="913.15" x2="913.15" y1="345.8451" y2="354.9451"/><line style="stroke:#181818;stroke-width:0.6999999999999998;" x1="884.45" x2="913.15" y1="354.9451" y2="354.9451"/><polygon fill="#181818" points="891.45,352.1451,884.45,354.9451,891.45,357.7451,888.65,354.9451" style="stroke:#181818;stroke-width:0.6999999999999998;"/><text fill="#000000" font-family="sans-serif" font-size="9.1" font-weight="bold" lengthAdjust="spacing" textLength="9.8" x="888.65" y="342.1612">11</text><text fill="#000000" font-family="sans-serif" font-size="9.1" lengthAdjust="spacing" textLength="196.7" x="901.25" y="342.1612">getHistoricalEventsFromYearMonth(year, month)</text><line style="stroke:#181818;stroke-width:0.6999999999999998;stroke-dasharray:2.0,2.0;" x1="883.75" x2="913.15" y1="383.8488" y2="383.8488"/><line style="stroke:#181818;stroke-width:0.6999999999999998;stroke-dasharray:2.0,2.0;" x1="913.15" x2="913.15" y1="383.8488" y2="392.9488"/><line style="stroke:#181818;stroke-width:0.6999999999999998;stroke-dasharray:2.0,2.0;" x1="880.25" x2="913.15" y1="392.9488" y2="392.9488"/><polygon fill="#181818" points="887.25,390.1488,880.25,392.9488,887.25,395.7488,884.45,392.9488" style="stroke:#181818;stroke-width:0.6999999999999998;"/><text fill="#000000" font-family="sans-serif" font-size="9.1" font-weight="bold" lengthAdjust="spacing" textLength="9.8" x="888.65" y="380.1649">12</text><text fill="#000000" font-family="sans-serif" font-size="9.1" lengthAdjust="spacing" textLength="109.9" x="901.25" y="380.1649">(historicalEventsResponse)</text><polygon fill="#181818" points="333.55,408.5525,326.55,411.3525,333.55,414.1525,330.75,411.3525" style="stroke:#181818;stroke-width:0.6999999999999998;"/><line style="stroke:#181818;stroke-width:0.6999999999999998;stroke-dasharray:2.0,2.0;" x1="329.35" x2="876.05" y1="411.3525" y2="411.3525"/><text fill="#000000" font-family="sans-serif" font-size="9.1" font-weight="bold" lengthAdjust="spacing" textLength="9.8" x="337.75" y="407.6687">13</text><text fill="#000000" font-family="sans-serif" font-size="9.1" lengthAdjust="spacing" textLength="64.4" x="350.35" y="407.6687">(historicalEvent)</text><polygon fill="#181818" points="1090.95,430.4562,1097.95,433.2562,1090.95,436.0562,1093.75,433.2562" style="stroke:#181818;stroke-width:0.6999999999999998;"/><line style="stroke:#181818;stroke-width:0.6999999999999998;" x1="325.85" x2="1095.15" y1="433.2562" y2="433.2562"/><text fill="#000000" font-family="sans-serif" font-size="9.1" font-weight="bold" lengthAdjust="spacing" textLength="9.8" x="330.75" y="429.5724">14</text><text fill="#000000" font-family="sans-serif" font-size="9.1" lengthAdjust="spacing" textLength="101.5" x="343.35" y="429.5724">setQuote(historicalEvent)</text><polygon fill="#181818" points="179.55,473.36,172.55,476.16,179.55,478.96,176.75,476.16" style="stroke:#181818;stroke-width:0.6999999999999998;"/><line style="stroke:#181818;stroke-width:0.6999999999999998;stroke-dasharray:2.0,2.0;" x1="175.35" x2="321.65" y1="476.16" y2="476.16"/><text fill="#000000" font-family="sans-serif" font-size="9.1" font-weight="bold" lengthAdjust="spacing" textLength="9.8" x="183.75" y="472.4761">15</text><text fill="#000000" font-family="sans-serif" font-size="9.1" lengthAdjust="spacing" textLength="74.9" x="196.35" y="472.4761">(readerQuoteView)</text><polygon fill="#181818" points="50.75,519.4711,43.75,522.2711,50.75,525.0711,47.95,522.2711" style="stroke:#181818;stroke-width:0.6999999999999998;"/><line style="stroke:#181818;stroke-width:0.6999999999999998;stroke-dasharray:2.0,2.0;" x1="46.55" x2="167.65" y1="522.2711" y2="522.2711"/><text fill="#000000" font-family="sans-serif" font-size="9.1" font-weight="bold" lengthAdjust="spacing" textLength="9.8" x="54.95" y="506.4835">16</text><text fill="#000000" font-family="sans-serif" font-size="9.1" lengthAdjust="spacing" textLength="89.6" x="67.55" y="494.3798">shows reader's details</text><text fill="#000000" font-family="sans-serif" font-size="9.1" lengthAdjust="spacing" textLength="92.4" x="67.55" y="506.4835">including an event from</text><text fill="#000000" font-family="sans-serif" font-size="9.1" lengthAdjust="spacing" textLength="80.5" x="67.55" y="518.5872">his/hers birth month</text><!--SRC=[ZLF1Rjim3BthAuXScW3D3EomWmy3jcv53ss19UY00RamDXjhioLFebFuxqjBJkBO7h0RQRttI3xIDmLpxTCagKiqt5JbXynMYQU_3PcCrhd6WyDAOSCMCzP7P09hGcwQQazEATPS4hniuUCdk6-CQU57OvcK4e9ri7ZKUuTEeqasX3cv1Q27nWkrHiSwqxLKXiMszKnLU8pXzNCQoNVMiBDbsSlSiIjdSLjoHvrHb8lnB6v3jVLQ-cm3zF9n5lrJqziJrdLVFOOZv9TQFslp6_sm1Vbuwa9reyFwSpybfFB-nmDRE8ewx0o22yLK3n1eDwO0NxN9lxQnbUVW_h8bTBUohfKAc4usrfc7kq6oKYUei2w3_mznW5vVbUnntuXHbtvGuJB4679kFBef2BPHFvnHP_cOaaakTxZe34j7s61t5wXUJvIlqaadP-fAvNG-yi0vztRPd_0En1iqkQs-7ydmlRFLBzd2arnciTnhnqMNteA4HVYuKWFwZDY3zdA0EiCo2FfhnR1XgAP2OwLbCTBPaA-jyJIXdUOV4GQxwAPFmHC7SwR0VnWrlEgfkwTx5bJu1wH0OTzyV-ut7lAuu9tH9YkRN9i3e07gIiAhcB8pqaXIaFCGV8wkl0C0]--></g></svg>