<?xml version="1.0" encoding="us-ascii" standalone="no"?><svg xmlns="http://www.w3.org/2000/svg" xmlns:xlink="http://www.w3.org/1999/xlink" contentStyleType="text/css" height="658.8px" preserveAspectRatio="none" style="width:952px;height:658px;background:#FFFFFF;" version="1.1" viewBox="0 0 952 658" width="952.2px" zoomAndPan="magnify"><defs/><g><!--class ReaderController--><g id="elem_ReaderController"><rect codeLine="5" fill="#F1F1F1" height="39.9727" id="ReaderController" rx="1.5" ry="1.5" style="stroke:#181818;stroke-width:0.3;" width="377.4" x="171.6" y="284.1"/><ellipse cx="325.05" cy="293.7" fill="#ADD1B2" rx="6.6" ry="6.6" style="stroke:#181818;stroke-width:0.6;"/><path d="M326.7094,291.225 Q326.8031,291.0938 326.9156,291.0281 Q327.0281,290.9625 327.1594,290.9625 Q327.3844,290.9625 327.525,291.1219 Q327.6656,291.2719 327.6656,291.6375 L327.6656,292.5094 Q327.6656,292.875 327.525,293.0344 Q327.3844,293.1937 327.1594,293.1937 Q326.9531,293.1937 326.8313,293.0719 Q326.7094,292.9594 326.6438,292.65 Q326.6156,292.4344 326.5031,292.3219 Q326.3063,292.0969 325.9406,291.9656 Q325.575,291.8344 325.2,291.8344 Q324.7406,291.8344 324.3563,292.0313 Q323.9813,292.2281 323.6813,292.6781 Q323.3906,293.1281 323.3906,293.7469 L323.3906,294.4031 Q323.3906,295.1438 323.925,295.6406 Q324.4594,296.1281 325.4156,296.1281 Q325.9781,296.1281 326.3719,295.9781 Q326.6063,295.8844 326.8594,295.6219 Q327.0188,295.4625 327.1031,295.4156 Q327.1969,295.3688 327.3187,295.3688 Q327.5156,295.3688 327.6656,295.5281 Q327.825,295.6781 327.825,295.8844 Q327.825,296.0906 327.6188,296.3344 Q327.3187,296.6813 326.8406,296.8781 Q326.1937,297.15 325.4156,297.15 Q324.5062,297.15 323.7844,296.775 Q323.1937,296.475 322.7813,295.8375 Q322.3688,295.1906 322.3688,294.4219 L322.3688,293.7281 Q322.3688,292.9313 322.7344,292.2469 Q323.1094,291.5531 323.7656,291.1875 Q324.4219,290.8125 325.1625,290.8125 Q325.6031,290.8125 325.9875,290.9156 Q326.3812,291.0094 326.7094,291.225 Z " fill="#000000"/><text fill="#000000" font-family="sans-serif" font-size="8.4" lengthAdjust="spacing" textLength="65.4" x="337.35" y="297.1781">ReaderController</text><line style="stroke:#181818;stroke-width:0.3;" x1="172.2" x2="548.4" y1="303.3" y2="303.3"/><line style="stroke:#181818;stroke-width:0.3;" x1="172.2" x2="548.4" y1="308.1" y2="308.1"/><text fill="#000000" font-family="sans-serif" font-size="8.4" lengthAdjust="spacing" textLength="370.2" x="175.2" y="319.5645">+findByReaderNumber(Integer year, Integer seq) : ListResponse&lt;ReaderLendingsPerMonthView&gt;</text></g><!--class ApiNinjasService--><g id="elem_ApiNinjasService"><rect codeLine="9" fill="#F1F1F1" height="51.1453" id="ApiNinjasService" rx="1.5" ry="1.5" style="stroke:#181818;stroke-width:0.3;" width="345.6" x="452.7" y="180.6"/><ellipse cx="591.45" cy="190.2" fill="#ADD1B2" rx="6.6" ry="6.6" style="stroke:#181818;stroke-width:0.6;"/><path d="M593.1094,187.725 Q593.2031,187.5938 593.3156,187.5281 Q593.4281,187.4625 593.5594,187.4625 Q593.7844,187.4625 593.925,187.6219 Q594.0656,187.7719 594.0656,188.1375 L594.0656,189.0094 Q594.0656,189.375 593.925,189.5344 Q593.7844,189.6938 593.5594,189.6938 Q593.3531,189.6938 593.2312,189.5719 Q593.1094,189.4594 593.0437,189.15 Q593.0156,188.9344 592.9031,188.8219 Q592.7063,188.5969 592.3406,188.4656 Q591.975,188.3344 591.6,188.3344 Q591.1406,188.3344 590.7563,188.5313 Q590.3813,188.7281 590.0813,189.1781 Q589.7906,189.6281 589.7906,190.2469 L589.7906,190.9031 Q589.7906,191.6437 590.325,192.1406 Q590.8594,192.6281 591.8156,192.6281 Q592.3781,192.6281 592.7719,192.4781 Q593.0063,192.3844 593.2594,192.1219 Q593.4187,191.9625 593.5031,191.9156 Q593.5969,191.8688 593.7188,191.8688 Q593.9156,191.8688 594.0656,192.0281 Q594.225,192.1781 594.225,192.3844 Q594.225,192.5906 594.0188,192.8344 Q593.7188,193.1813 593.2406,193.3781 Q592.5938,193.65 591.8156,193.65 Q590.9063,193.65 590.1844,193.275 Q589.5938,192.975 589.1813,192.3375 Q588.7688,191.6906 588.7688,190.9219 L588.7688,190.2281 Q588.7688,189.4313 589.1344,188.7469 Q589.5094,188.0531 590.1656,187.6875 Q590.8219,187.3125 591.5625,187.3125 Q592.0031,187.3125 592.3875,187.4156 Q592.7813,187.5094 593.1094,187.725 Z " fill="#000000"/><text fill="#000000" font-family="sans-serif" font-size="8.4" lengthAdjust="spacing" textLength="63" x="603.75" y="193.6781">ApiNinjasService</text><line style="stroke:#181818;stroke-width:0.3;" x1="453.3" x2="797.7" y1="199.8" y2="199.8"/><line style="stroke:#181818;stroke-width:0.3;" x1="453.3" x2="797.7" y1="204.6" y2="204.6"/><text fill="#000000" font-family="sans-serif" font-size="8.4" lengthAdjust="spacing" textLength="338.4" x="456.3" y="216.0645">-getHistoricalEventsFromYearMonth(int year, int month) : List&lt;HistoricalEventsResponse&gt;</text><text fill="#000000" font-family="sans-serif" font-size="8.4" lengthAdjust="spacing" textLength="234.6" x="456.3" y="227.2371">+getRandomEventFromYearMonth(int year, int month) : String</text></g><!--class HistoricalEventsResponse--><g id="elem_HistoricalEventsResponse"><rect codeLine="14" fill="#F1F1F1" height="73.4906" id="HistoricalEventsResponse" rx="1.5" ry="1.5" style="stroke:#181818;stroke-width:0.3;" width="117.6" x="570.3" y="267.6"/><ellipse cx="579.3" cy="277.2" fill="#ADD1B2" rx="6.6" ry="6.6" style="stroke:#181818;stroke-width:0.6;"/><path d="M580.9594,274.725 Q581.0531,274.5938 581.1656,274.5281 Q581.2781,274.4625 581.4094,274.4625 Q581.6344,274.4625 581.775,274.6219 Q581.9156,274.7719 581.9156,275.1375 L581.9156,276.0094 Q581.9156,276.375 581.775,276.5344 Q581.6344,276.6937 581.4094,276.6937 Q581.2031,276.6937 581.0813,276.5719 Q580.9594,276.4594 580.8938,276.15 Q580.8656,275.9344 580.7531,275.8219 Q580.5563,275.5969 580.1906,275.4656 Q579.825,275.3344 579.45,275.3344 Q578.9906,275.3344 578.6062,275.5313 Q578.2312,275.7281 577.9313,276.1781 Q577.6406,276.6281 577.6406,277.2469 L577.6406,277.9031 Q577.6406,278.6438 578.175,279.1406 Q578.7094,279.6281 579.6656,279.6281 Q580.2281,279.6281 580.6219,279.4781 Q580.8562,279.3844 581.1094,279.1219 Q581.2688,278.9625 581.3531,278.9156 Q581.4469,278.8688 581.5688,278.8688 Q581.7656,278.8688 581.9156,279.0281 Q582.075,279.1781 582.075,279.3844 Q582.075,279.5906 581.8688,279.8344 Q581.5688,280.1813 581.0906,280.3781 Q580.4438,280.65 579.6656,280.65 Q578.7563,280.65 578.0344,280.275 Q577.4438,279.975 577.0313,279.3375 Q576.6188,278.6906 576.6188,277.9219 L576.6188,277.2281 Q576.6188,276.4313 576.9844,275.7469 Q577.3594,275.0531 578.0156,274.6875 Q578.6719,274.3125 579.4125,274.3125 Q579.8531,274.3125 580.2375,274.4156 Q580.6313,274.5094 580.9594,274.725 Z " fill="#000000"/><text fill="#000000" font-family="sans-serif" font-size="8.4" lengthAdjust="spacing" textLength="98.4" x="587.7" y="280.6781">HistoricalEventsResponse</text><line style="stroke:#181818;stroke-width:0.3;" x1="570.9" x2="687.3" y1="286.8" y2="286.8"/><text fill="#000000" font-family="sans-serif" font-size="8.4" lengthAdjust="spacing" textLength="49.2" x="573.9" y="298.2645">-year : String</text><text fill="#000000" font-family="sans-serif" font-size="8.4" lengthAdjust="spacing" textLength="55.8" x="573.9" y="309.4371">-month : String</text><text fill="#000000" font-family="sans-serif" font-size="8.4" lengthAdjust="spacing" textLength="46.2" x="573.9" y="320.6098">-day : String</text><text fill="#000000" font-family="sans-serif" font-size="8.4" lengthAdjust="spacing" textLength="53.4" x="573.9" y="331.7824">-event : String</text><line style="stroke:#181818;stroke-width:0.3;" x1="570.9" x2="687.3" y1="336.2906" y2="336.2906"/></g><!--class ReaderRepository--><g id="elem_ReaderRepository"><rect codeLine="21" fill="#F1F1F1" height="39.9727" id="ReaderRepository" rx="1.5" ry="1.5" style="stroke:#181818;stroke-width:0.3;" width="256.8" x="298.5" y="609"/><ellipse cx="389.85" cy="618.6" fill="#B4A7E5" rx="6.6" ry="6.6" style="stroke:#181818;stroke-width:0.6;"/><path d="M390.4219,616.5844 L390.4219,620.5781 L391.4531,620.5781 Q391.8187,620.5781 391.9781,620.7188 Q392.1375,620.8594 392.1375,621.0938 Q392.1375,621.3188 391.9781,621.4594 Q391.8187,621.6 391.4531,621.6 L388.3688,621.6 Q388.0031,621.6 387.8438,621.4594 Q387.6844,621.3188 387.6844,621.0844 Q387.6844,620.8594 387.8438,620.7188 Q388.0031,620.5781 388.3688,620.5781 L389.4,620.5781 L389.4,616.5844 L388.3688,616.5844 Q388.0031,616.5844 387.8438,616.4438 Q387.6844,616.3031 387.6844,616.0688 Q387.6844,615.8438 387.8438,615.7031 Q388.0031,615.5625 388.3688,615.5625 L391.4531,615.5625 Q391.8187,615.5625 391.9781,615.7031 Q392.1375,615.8438 392.1375,616.0688 Q392.1375,616.3031 391.9781,616.4438 Q391.8187,616.5844 391.4531,616.5844 L390.4219,616.5844 Z " fill="#000000"/><text fill="#000000" font-family="sans-serif" font-size="8.4" font-style="italic" lengthAdjust="spacing" textLength="69" x="402.15" y="622.0781">ReaderRepository</text><line style="stroke:#181818;stroke-width:0.3;" x1="299.1" x2="554.7" y1="628.2" y2="628.2"/><line style="stroke:#181818;stroke-width:0.3;" x1="299.1" x2="554.7" y1="633" y2="633"/><text fill="#000000" font-family="sans-serif" font-size="8.4" lengthAdjust="spacing" textLength="249.6" x="302.1" y="644.4645">+findByReaderNumber(ReaderNumber): Optional&lt;ReaderDetails&gt;</text></g><!--class ReaderService--><g id="elem_ReaderService"><rect codeLine="25" fill="#F1F1F1" height="39.9727" id="ReaderService" rx="1.5" ry="1.5" style="stroke:#181818;stroke-width:0.3;" width="256.8" x="276.3" y="376.8"/><ellipse cx="374.25" cy="386.4" fill="#B4A7E5" rx="6.6" ry="6.6" style="stroke:#181818;stroke-width:0.6;"/><path d="M374.8219,384.3844 L374.8219,388.3781 L375.8531,388.3781 Q376.2188,388.3781 376.3781,388.5188 Q376.5375,388.6594 376.5375,388.8938 Q376.5375,389.1188 376.3781,389.2594 Q376.2188,389.4 375.8531,389.4 L372.7688,389.4 Q372.4031,389.4 372.2438,389.2594 Q372.0844,389.1188 372.0844,388.8844 Q372.0844,388.6594 372.2438,388.5188 Q372.4031,388.3781 372.7688,388.3781 L373.8,388.3781 L373.8,384.3844 L372.7688,384.3844 Q372.4031,384.3844 372.2438,384.2438 Q372.0844,384.1031 372.0844,383.8688 Q372.0844,383.6438 372.2438,383.5031 Q372.4031,383.3625 372.7688,383.3625 L375.8531,383.3625 Q376.2188,383.3625 376.3781,383.5031 Q376.5375,383.6438 376.5375,383.8688 Q376.5375,384.1031 376.3781,384.2438 Q376.2188,384.3844 375.8531,384.3844 L374.8219,384.3844 Z " fill="#000000"/><text fill="#000000" font-family="sans-serif" font-size="8.4" font-style="italic" lengthAdjust="spacing" textLength="55.8" x="386.55" y="389.8781">ReaderService</text><line style="stroke:#181818;stroke-width:0.3;" x1="276.9" x2="532.5" y1="396" y2="396"/><line style="stroke:#181818;stroke-width:0.3;" x1="276.9" x2="532.5" y1="400.8" y2="400.8"/><text fill="#000000" font-family="sans-serif" font-size="8.4" lengthAdjust="spacing" textLength="249.6" x="279.9" y="412.2645">+findByReaderNumber(ReaderNumber): Optional&lt;ReaderDetails&gt;</text></g><!--class ReaderServiceImpl--><g id="elem_ReaderServiceImpl"><rect codeLine="29" fill="#F1F1F1" height="28.8" id="ReaderServiceImpl" rx="1.5" ry="1.5" style="stroke:#181818;stroke-width:0.3;" width="90.6" x="381.6" y="495.9"/><ellipse cx="390.6" cy="505.5" fill="#ADD1B2" rx="6.6" ry="6.6" style="stroke:#181818;stroke-width:0.6;"/><path d="M392.2594,503.025 Q392.3531,502.8937 392.4656,502.8281 Q392.5781,502.7625 392.7094,502.7625 Q392.9344,502.7625 393.075,502.9219 Q393.2156,503.0719 393.2156,503.4375 L393.2156,504.3094 Q393.2156,504.675 393.075,504.8344 Q392.9344,504.9938 392.7094,504.9938 Q392.5031,504.9938 392.3812,504.8719 Q392.2594,504.7594 392.1937,504.45 Q392.1656,504.2344 392.0531,504.1219 Q391.8563,503.8969 391.4906,503.7656 Q391.125,503.6344 390.75,503.6344 Q390.2906,503.6344 389.9063,503.8312 Q389.5313,504.0281 389.2313,504.4781 Q388.9406,504.9281 388.9406,505.5469 L388.9406,506.2031 Q388.9406,506.9437 389.475,507.4406 Q390.0094,507.9281 390.9656,507.9281 Q391.5281,507.9281 391.9219,507.7781 Q392.1563,507.6844 392.4094,507.4219 Q392.5687,507.2625 392.6531,507.2156 Q392.7469,507.1688 392.8688,507.1688 Q393.0656,507.1688 393.2156,507.3281 Q393.375,507.4781 393.375,507.6844 Q393.375,507.8906 393.1688,508.1344 Q392.8688,508.4813 392.3906,508.6781 Q391.7438,508.95 390.9656,508.95 Q390.0563,508.95 389.3344,508.575 Q388.7438,508.275 388.3313,507.6375 Q387.9188,506.9906 387.9188,506.2219 L387.9188,505.5281 Q387.9188,504.7313 388.2844,504.0469 Q388.6594,503.3531 389.3156,502.9875 Q389.9719,502.6125 390.7125,502.6125 Q391.1531,502.6125 391.5375,502.7156 Q391.9313,502.8094 392.2594,503.025 Z " fill="#000000"/><text fill="#000000" font-family="sans-serif" font-size="8.4" lengthAdjust="spacing" textLength="71.4" x="399" y="508.9781">ReaderServiceImpl</text><line style="stroke:#181818;stroke-width:0.3;" x1="382.2" x2="471.6" y1="515.1" y2="515.1"/><line style="stroke:#181818;stroke-width:0.3;" x1="382.2" x2="471.6" y1="519.9" y2="519.9"/></g><!--class ReaderDetails--><g id="elem_ReaderDetails"><rect codeLine="33" fill="#F1F1F1" height="114.5578" id="ReaderDetails" rx="1.5" ry="1.5" style="stroke:#181818;stroke-width:0.3;" width="146.4" x="663.3" y="453"/><ellipse cx="706.95" cy="466.3746" fill="#ADD1B2" rx="6.6" ry="6.6" style="stroke:#181818;stroke-width:0.6;"/><path d="M708.6094,463.8996 Q708.7031,463.7684 708.8156,463.7027 Q708.9281,463.6371 709.0594,463.6371 Q709.2844,463.6371 709.425,463.7965 Q709.5656,463.9465 709.5656,464.3121 L709.5656,465.184 Q709.5656,465.5496 709.425,465.709 Q709.2844,465.8684 709.0594,465.8684 Q708.8531,465.8684 708.7312,465.7465 Q708.6094,465.634 708.5437,465.3246 Q708.5156,465.109 708.4031,464.9965 Q708.2063,464.7715 707.8406,464.6402 Q707.475,464.509 707.1,464.509 Q706.6406,464.509 706.2563,464.7059 Q705.8813,464.9027 705.5813,465.3527 Q705.2906,465.8027 705.2906,466.4215 L705.2906,467.0777 Q705.2906,467.8184 705.825,468.3152 Q706.3594,468.8027 707.3156,468.8027 Q707.8781,468.8027 708.2719,468.6527 Q708.5063,468.559 708.7594,468.2965 Q708.9187,468.1371 709.0031,468.0902 Q709.0969,468.0434 709.2188,468.0434 Q709.4156,468.0434 709.5656,468.2027 Q709.725,468.3527 709.725,468.559 Q709.725,468.7652 709.5188,469.009 Q709.2188,469.3559 708.7406,469.5527 Q708.0938,469.8246 707.3156,469.8246 Q706.4063,469.8246 705.6844,469.4496 Q705.0938,469.1496 704.6813,468.5121 Q704.2688,467.8652 704.2688,467.0965 L704.2688,466.4027 Q704.2688,465.6059 704.6344,464.9215 Q705.0094,464.2277 705.6656,463.8621 Q706.3219,463.4871 707.0625,463.4871 Q707.5031,463.4871 707.8875,463.5902 Q708.2813,463.684 708.6094,463.8996 Z " fill="#000000"/><text fill="#000000" font-family="sans-serif" font-size="7.2" font-style="italic" lengthAdjust="spacing" textLength="25.8" x="733.35" y="463.7695">&#171;entity&#187;</text><text fill="#000000" font-family="sans-serif" font-size="8.4" lengthAdjust="spacing" textLength="54" x="719.25" y="474.641">ReaderDetails</text><line style="stroke:#181818;stroke-width:0.3;" x1="663.9" x2="809.1" y1="479.7492" y2="479.7492"/><text fill="#000000" font-family="sans-serif" font-size="8.4" lengthAdjust="spacing" textLength="38.4" x="666.9" y="491.2137">-pk : Long</text><text fill="#000000" font-family="sans-serif" font-size="8.4" lengthAdjust="spacing" textLength="57" x="666.9" y="502.3863">-version : Long</text><text fill="#000000" font-family="sans-serif" font-size="8.4" lengthAdjust="spacing" textLength="90.6" x="666.9" y="513.559">-gdprConsent - boolean</text><text fill="#000000" font-family="sans-serif" font-size="8.4" lengthAdjust="spacing" textLength="110.4" x="666.9" y="524.7316">-marketingConsent - boolean</text><text fill="#000000" font-family="sans-serif" font-size="8.4" lengthAdjust="spacing" textLength="139.2" x="666.9" y="535.9043">-thirdPartySharingConsent - boolean</text><line style="stroke:#181818;stroke-width:0.3;" x1="663.9" x2="809.1" y1="540.4125" y2="540.4125"/><text fill="#000000" font-family="sans-serif" font-size="8.4" lengthAdjust="spacing" textLength="103.8" x="666.9" y="551.877">+getBirthDate() : LocalDate</text><text fill="#000000" font-family="sans-serif" font-size="8.4" lengthAdjust="spacing" textLength="78" x="666.9" y="563.0496">+getVersion() : Long</text></g><!--class User--><g id="elem_User"><rect codeLine="43" fill="#F1F1F1" height="47.5219" id="User" rx="1.5" ry="1.5" style="stroke:#181818;stroke-width:0.3;" width="78" x="708.9" y="280.5"/><ellipse cx="733.83" cy="293.8746" fill="#ADD1B2" rx="6.6" ry="6.6" style="stroke:#181818;stroke-width:0.6;"/><path d="M735.4894,291.3996 Q735.5831,291.2684 735.6956,291.2027 Q735.8081,291.1371 735.9394,291.1371 Q736.1644,291.1371 736.305,291.2965 Q736.4456,291.4465 736.4456,291.8121 L736.4456,292.684 Q736.4456,293.0496 736.305,293.209 Q736.1644,293.3684 735.9394,293.3684 Q735.7331,293.3684 735.6112,293.2465 Q735.4894,293.134 735.4237,292.8246 Q735.3956,292.609 735.2831,292.4965 Q735.0863,292.2715 734.7206,292.1402 Q734.355,292.009 733.98,292.009 Q733.5206,292.009 733.1362,292.2059 Q732.7612,292.4027 732.4613,292.8527 Q732.1706,293.3027 732.1706,293.9215 L732.1706,294.5777 Q732.1706,295.3184 732.705,295.8152 Q733.2394,296.3027 734.1956,296.3027 Q734.7581,296.3027 735.1519,296.1527 Q735.3862,296.059 735.6394,295.7965 Q735.7987,295.6371 735.8831,295.5902 Q735.9769,295.5434 736.0988,295.5434 Q736.2956,295.5434 736.4456,295.7027 Q736.605,295.8527 736.605,296.059 Q736.605,296.2652 736.3988,296.509 Q736.0988,296.8559 735.6206,297.0527 Q734.9738,297.3246 734.1956,297.3246 Q733.2863,297.3246 732.5644,296.9496 Q731.9738,296.6496 731.5613,296.0121 Q731.1488,295.3652 731.1488,294.5965 L731.1488,293.9027 Q731.1488,293.1059 731.5144,292.4215 Q731.8894,291.7277 732.5456,291.3621 Q733.2019,290.9871 733.9425,290.9871 Q734.3831,290.9871 734.7675,291.0902 Q735.1613,291.184 735.4894,291.3996 Z " fill="#000000"/><text fill="#000000" font-family="sans-serif" font-size="7.2" font-style="italic" lengthAdjust="spacing" textLength="25.8" x="744.57" y="291.2695">&#171;entity&#187;</text><text fill="#000000" font-family="sans-serif" font-size="8.4" lengthAdjust="spacing" textLength="17.4" x="748.77" y="302.141">User</text><line style="stroke:#181818;stroke-width:0.3;" x1="709.5" x2="786.3" y1="307.2492" y2="307.2492"/><text fill="#000000" font-family="sans-serif" font-size="8.4" lengthAdjust="spacing" textLength="70.8" x="712.5" y="318.7137">-userName : String</text><line style="stroke:#181818;stroke-width:0.3;" x1="709.5" x2="786.3" y1="323.2219" y2="323.2219"/></g><!--class Reader--><g id="elem_Reader"><rect codeLine="47" fill="#F1F1F1" height="28.8" id="Reader" rx="1.5" ry="1.5" style="stroke:#181818;stroke-width:0.3;" width="47.4" x="718.2" y="382.5"/><ellipse cx="727.2" cy="392.1" fill="#ADD1B2" rx="6.6" ry="6.6" style="stroke:#181818;stroke-width:0.6;"/><path d="M728.8594,389.625 Q728.9531,389.4938 729.0656,389.4281 Q729.1781,389.3625 729.3094,389.3625 Q729.5344,389.3625 729.675,389.5219 Q729.8156,389.6719 729.8156,390.0375 L729.8156,390.9094 Q729.8156,391.275 729.675,391.4344 Q729.5344,391.5938 729.3094,391.5938 Q729.1031,391.5938 728.9812,391.4719 Q728.8594,391.3594 728.7937,391.05 Q728.7656,390.8344 728.6531,390.7219 Q728.4563,390.4969 728.0906,390.3656 Q727.725,390.2344 727.35,390.2344 Q726.8906,390.2344 726.5063,390.4313 Q726.1313,390.6281 725.8313,391.0781 Q725.5406,391.5281 725.5406,392.1469 L725.5406,392.8031 Q725.5406,393.5438 726.075,394.0406 Q726.6094,394.5281 727.5656,394.5281 Q728.1281,394.5281 728.5219,394.3781 Q728.7563,394.2844 729.0094,394.0219 Q729.1687,393.8625 729.2531,393.8156 Q729.3469,393.7688 729.4688,393.7688 Q729.6656,393.7688 729.8156,393.9281 Q729.975,394.0781 729.975,394.2844 Q729.975,394.4906 729.7688,394.7344 Q729.4688,395.0813 728.9906,395.2781 Q728.3438,395.55 727.5656,395.55 Q726.6563,395.55 725.9344,395.175 Q725.3438,394.875 724.9313,394.2375 Q724.5188,393.5906 724.5188,392.8219 L724.5188,392.1281 Q724.5188,391.3313 724.8844,390.6469 Q725.2594,389.9531 725.9156,389.5875 Q726.5719,389.2125 727.3125,389.2125 Q727.7531,389.2125 728.1375,389.3156 Q728.5313,389.4094 728.8594,389.625 Z " fill="#000000"/><text fill="#000000" font-family="sans-serif" font-size="8.4" lengthAdjust="spacing" textLength="28.2" x="735.6" y="395.5781">Reader</text><line style="stroke:#181818;stroke-width:0.3;" x1="718.8" x2="765" y1="401.7" y2="401.7"/><line style="stroke:#181818;stroke-width:0.3;" x1="718.8" x2="765" y1="406.5" y2="406.5"/></g><!--class ReaderViewMapper--><g id="elem_ReaderViewMapper"><rect codeLine="49" fill="#F1F1F1" height="39.9727" id="ReaderViewMapper" rx="1.5" ry="1.5" style="stroke:#181818;stroke-width:0.3;" width="277.8" x="4.2" y="186"/><ellipse cx="103.35" cy="195.6" fill="#ADD1B2" rx="6.6" ry="6.6" style="stroke:#181818;stroke-width:0.6;"/><path d="M105.0094,193.125 Q105.1031,192.9938 105.2156,192.9281 Q105.3281,192.8625 105.4594,192.8625 Q105.6844,192.8625 105.825,193.0219 Q105.9656,193.1719 105.9656,193.5375 L105.9656,194.4094 Q105.9656,194.775 105.825,194.9344 Q105.6844,195.0938 105.4594,195.0938 Q105.2531,195.0938 105.1313,194.9719 Q105.0094,194.8594 104.9438,194.55 Q104.9156,194.3344 104.8031,194.2219 Q104.6063,193.9969 104.2406,193.8656 Q103.875,193.7344 103.5,193.7344 Q103.0406,193.7344 102.6563,193.9313 Q102.2813,194.1281 101.9813,194.5781 Q101.6906,195.0281 101.6906,195.6469 L101.6906,196.3031 Q101.6906,197.0438 102.225,197.5406 Q102.7594,198.0281 103.7156,198.0281 Q104.2781,198.0281 104.6719,197.8781 Q104.9063,197.7844 105.1594,197.5219 Q105.3188,197.3625 105.4031,197.3156 Q105.4969,197.2687 105.6187,197.2687 Q105.8156,197.2687 105.9656,197.4281 Q106.125,197.5781 106.125,197.7844 Q106.125,197.9906 105.9188,198.2344 Q105.6187,198.5812 105.1406,198.7781 Q104.4937,199.05 103.7156,199.05 Q102.8062,199.05 102.0844,198.675 Q101.4937,198.375 101.0813,197.7375 Q100.6688,197.0906 100.6688,196.3219 L100.6688,195.6281 Q100.6688,194.8312 101.0344,194.1469 Q101.4094,193.4531 102.0656,193.0875 Q102.7219,192.7125 103.4625,192.7125 Q103.9031,192.7125 104.2875,192.8156 Q104.6812,192.9094 105.0094,193.125 Z " fill="#000000"/><text fill="#000000" font-family="sans-serif" font-size="8.4" lengthAdjust="spacing" textLength="74.4" x="115.65" y="199.0781">ReaderViewMapper</text><line style="stroke:#181818;stroke-width:0.3;" x1="4.8" x2="281.4" y1="205.2" y2="205.2"/><line style="stroke:#181818;stroke-width:0.3;" x1="4.8" x2="281.4" y1="210" y2="210"/><text fill="#000000" font-family="sans-serif" font-size="8.4" lengthAdjust="spacing" textLength="270.6" x="7.8" y="221.4645">+toReaderQuoteView(ReaderDetails readerDetails) : ReaderQuoteView</text></g><!--class ReaderView--><g id="elem_ReaderView"><rect codeLine="53" fill="#F1F1F1" height="140.5266" id="ReaderView" rx="1.5" ry="1.5" style="stroke:#181818;stroke-width:0.3;" width="145.8" x="291" y="4.2"/><ellipse cx="338.55" cy="13.8" fill="#ADD1B2" rx="6.6" ry="6.6" style="stroke:#181818;stroke-width:0.6;"/><path d="M340.2094,11.325 Q340.3031,11.1938 340.4156,11.1281 Q340.5281,11.0625 340.6594,11.0625 Q340.8844,11.0625 341.025,11.2219 Q341.1656,11.3719 341.1656,11.7375 L341.1656,12.6094 Q341.1656,12.975 341.025,13.1344 Q340.8844,13.2938 340.6594,13.2938 Q340.4531,13.2938 340.3313,13.1719 Q340.2094,13.0594 340.1438,12.75 Q340.1156,12.5344 340.0031,12.4219 Q339.8063,12.1969 339.4406,12.0656 Q339.075,11.9344 338.7,11.9344 Q338.2406,11.9344 337.8563,12.1313 Q337.4813,12.3281 337.1813,12.7781 Q336.8906,13.2281 336.8906,13.8469 L336.8906,14.5031 Q336.8906,15.2437 337.425,15.7406 Q337.9594,16.2281 338.9156,16.2281 Q339.4781,16.2281 339.8719,16.0781 Q340.1063,15.9844 340.3594,15.7219 Q340.5188,15.5625 340.6031,15.5156 Q340.6969,15.4688 340.8187,15.4688 Q341.0156,15.4688 341.1656,15.6281 Q341.325,15.7781 341.325,15.9844 Q341.325,16.1906 341.1188,16.4344 Q340.8187,16.7813 340.3406,16.9781 Q339.6937,17.25 338.9156,17.25 Q338.0062,17.25 337.2844,16.875 Q336.6937,16.575 336.2813,15.9375 Q335.8688,15.2906 335.8688,14.5219 L335.8688,13.8281 Q335.8688,13.0313 336.2344,12.3469 Q336.6094,11.6531 337.2656,11.2875 Q337.9219,10.9125 338.6625,10.9125 Q339.1031,10.9125 339.4875,11.0156 Q339.8812,11.1094 340.2094,11.325 Z " fill="#000000"/><text fill="#000000" font-family="sans-serif" font-size="8.4" lengthAdjust="spacing" textLength="45.6" x="350.85" y="17.2781">ReaderView</text><line style="stroke:#181818;stroke-width:0.3;" x1="291.6" x2="436.2" y1="23.4" y2="23.4"/><text fill="#000000" font-family="sans-serif" font-size="8.4" lengthAdjust="spacing" textLength="87" x="294.6" y="34.8645">-readerNumber : String</text><text fill="#000000" font-family="sans-serif" font-size="8.4" lengthAdjust="spacing" textLength="52.2" x="294.6" y="46.0371">-email : String</text><text fill="#000000" font-family="sans-serif" font-size="8.4" lengthAdjust="spacing" textLength="64.8" x="294.6" y="57.2098">-fullName : String</text><text fill="#000000" font-family="sans-serif" font-size="8.4" lengthAdjust="spacing" textLength="67.2" x="294.6" y="68.3824">-birthDate : String</text><text fill="#000000" font-family="sans-serif" font-size="8.4" lengthAdjust="spacing" textLength="85.8" x="294.6" y="79.5551">-phoneNumber : String</text><text fill="#000000" font-family="sans-serif" font-size="8.4" lengthAdjust="spacing" textLength="54" x="294.6" y="90.7277">-photo : String</text><text fill="#000000" font-family="sans-serif" font-size="8.4" lengthAdjust="spacing" textLength="90" x="294.6" y="101.9004">-gdprConsent : boolean</text><text fill="#000000" font-family="sans-serif" font-size="8.4" lengthAdjust="spacing" textLength="109.8" x="294.6" y="113.073">-marketingConsent : boolean</text><text fill="#000000" font-family="sans-serif" font-size="8.4" lengthAdjust="spacing" textLength="138.6" x="294.6" y="124.2457">-thirdPartySharingConsent : boolean</text><text fill="#000000" font-family="sans-serif" font-size="8.4" lengthAdjust="spacing" textLength="96.6" x="294.6" y="135.4184">-interestList : List&lt;String&gt;</text><line style="stroke:#181818;stroke-width:0.3;" x1="291.6" x2="436.2" y1="139.9266" y2="139.9266"/></g><!--class ReaderQuoteView--><g id="elem_ReaderQuoteView"><rect codeLine="66" fill="#F1F1F1" height="51.1453" id="ReaderQuoteView" rx="1.5" ry="1.5" style="stroke:#181818;stroke-width:0.3;" width="121.8" x="303" y="180.6"/><ellipse cx="327.12" cy="190.2" fill="#ADD1B2" rx="6.6" ry="6.6" style="stroke:#181818;stroke-width:0.6;"/><path d="M328.7794,187.725 Q328.8731,187.5938 328.9856,187.5281 Q329.0981,187.4625 329.2294,187.4625 Q329.4544,187.4625 329.595,187.6219 Q329.7356,187.7719 329.7356,188.1375 L329.7356,189.0094 Q329.7356,189.375 329.595,189.5344 Q329.4544,189.6938 329.2294,189.6938 Q329.0231,189.6938 328.9013,189.5719 Q328.7794,189.4594 328.7138,189.15 Q328.6856,188.9344 328.5731,188.8219 Q328.3763,188.5969 328.0106,188.4656 Q327.645,188.3344 327.27,188.3344 Q326.8106,188.3344 326.4263,188.5313 Q326.0513,188.7281 325.7513,189.1781 Q325.4606,189.6281 325.4606,190.2469 L325.4606,190.9031 Q325.4606,191.6437 325.995,192.1406 Q326.5294,192.6281 327.4856,192.6281 Q328.0481,192.6281 328.4419,192.4781 Q328.6763,192.3844 328.9294,192.1219 Q329.0888,191.9625 329.1731,191.9156 Q329.2669,191.8688 329.3888,191.8688 Q329.5856,191.8688 329.7356,192.0281 Q329.895,192.1781 329.895,192.3844 Q329.895,192.5906 329.6888,192.8344 Q329.3888,193.1813 328.9106,193.3781 Q328.2638,193.65 327.4856,193.65 Q326.5763,193.65 325.8544,193.275 Q325.2638,192.975 324.8513,192.3375 Q324.4388,191.6906 324.4388,190.9219 L324.4388,190.2281 Q324.4388,189.4313 324.8044,188.7469 Q325.1794,188.0531 325.8356,187.6875 Q326.4919,187.3125 327.2325,187.3125 Q327.6731,187.3125 328.0575,187.4156 Q328.4513,187.5094 328.7794,187.725 Z " fill="#000000"/><text fill="#000000" font-family="sans-serif" font-size="8.4" lengthAdjust="spacing" textLength="69" x="338.88" y="193.6781">ReaderQuoteView</text><line style="stroke:#181818;stroke-width:0.3;" x1="303.6" x2="424.2" y1="199.8" y2="199.8"/><text fill="#000000" font-family="sans-serif" font-size="8.4" lengthAdjust="spacing" textLength="54" x="306.6" y="211.2645">-quote : String</text><line style="stroke:#181818;stroke-width:0.3;" x1="303.6" x2="424.2" y1="215.7727" y2="215.7727"/><text fill="#000000" font-family="sans-serif" font-size="8.4" lengthAdjust="spacing" textLength="114.6" x="306.6" y="227.2371">+setQuote(String quote) : void</text></g><!--class BirthDate--><g id="elem_BirthDate"><rect codeLine="71" fill="#F1F1F1" height="51.1453" id="BirthDate" rx="1.5" ry="1.5" style="stroke:#181818;stroke-width:0.3;" width="90.6" x="588" y="603.6"/><ellipse cx="613.2" cy="613.2" fill="#ADD1B2" rx="6.6" ry="6.6" style="stroke:#181818;stroke-width:0.6;"/><path d="M614.8594,610.725 Q614.9531,610.5938 615.0656,610.5281 Q615.1781,610.4625 615.3094,610.4625 Q615.5344,610.4625 615.675,610.6219 Q615.8156,610.7719 615.8156,611.1375 L615.8156,612.0094 Q615.8156,612.375 615.675,612.5344 Q615.5344,612.6938 615.3094,612.6938 Q615.1031,612.6938 614.9812,612.5719 Q614.8594,612.4594 614.7937,612.15 Q614.7656,611.9344 614.6531,611.8219 Q614.4563,611.5969 614.0906,611.4656 Q613.725,611.3344 613.35,611.3344 Q612.8906,611.3344 612.5063,611.5313 Q612.1313,611.7281 611.8313,612.1781 Q611.5406,612.6281 611.5406,613.2469 L611.5406,613.9031 Q611.5406,614.6438 612.075,615.1406 Q612.6094,615.6281 613.5656,615.6281 Q614.1281,615.6281 614.5219,615.4781 Q614.7563,615.3844 615.0094,615.1219 Q615.1687,614.9625 615.2531,614.9156 Q615.3469,614.8688 615.4688,614.8688 Q615.6656,614.8688 615.8156,615.0281 Q615.975,615.1781 615.975,615.3844 Q615.975,615.5906 615.7688,615.8344 Q615.4688,616.1813 614.9906,616.3781 Q614.3438,616.65 613.5656,616.65 Q612.6563,616.65 611.9344,616.275 Q611.3438,615.975 610.9313,615.3375 Q610.5188,614.6906 610.5188,613.9219 L610.5188,613.2281 Q610.5188,612.4313 610.8844,611.7469 Q611.2594,611.0531 611.9156,610.6875 Q612.5719,610.3125 613.3125,610.3125 Q613.7531,610.3125 614.1375,610.4156 Q614.5313,610.5094 614.8594,610.725 Z " fill="#000000"/><text fill="#000000" font-family="sans-serif" font-size="8.4" lengthAdjust="spacing" textLength="35.4" x="625.2" y="616.6781">BirthDate</text><line style="stroke:#181818;stroke-width:0.3;" x1="588.6" x2="678" y1="622.8" y2="622.8"/><text fill="#000000" font-family="sans-serif" font-size="8.4" lengthAdjust="spacing" textLength="83.4" x="591.6" y="634.2645">-birthDate : LocalDate</text><line style="stroke:#181818;stroke-width:0.3;" x1="588.6" x2="678" y1="638.7727" y2="638.7727"/><text fill="#000000" font-family="sans-serif" font-size="8.4" lengthAdjust="spacing" textLength="58.2" x="591.6" y="650.2371">+getBirthDate()</text></g><!--class ReaderNumber--><g id="elem_ReaderNumber"><rect codeLine="76" fill="#F1F1F1" height="51.1453" id="ReaderNumber" rx="1.5" ry="1.5" style="stroke:#181818;stroke-width:0.3;" width="117" x="831" y="484.8"/><ellipse cx="858.15" cy="494.4" fill="#ADD1B2" rx="6.6" ry="6.6" style="stroke:#181818;stroke-width:0.6;"/><path d="M859.8094,491.925 Q859.9031,491.7938 860.0156,491.7281 Q860.1281,491.6625 860.2594,491.6625 Q860.4844,491.6625 860.625,491.8219 Q860.7656,491.9719 860.7656,492.3375 L860.7656,493.2094 Q860.7656,493.575 860.625,493.7344 Q860.4844,493.8937 860.2594,493.8937 Q860.0531,493.8937 859.9313,493.7719 Q859.8094,493.6594 859.7438,493.35 Q859.7156,493.1344 859.6031,493.0219 Q859.4063,492.7969 859.0406,492.6656 Q858.675,492.5344 858.3,492.5344 Q857.8406,492.5344 857.4563,492.7313 Q857.0813,492.9281 856.7813,493.3781 Q856.4906,493.8281 856.4906,494.4469 L856.4906,495.1031 Q856.4906,495.8438 857.025,496.3406 Q857.5594,496.8281 858.5156,496.8281 Q859.0781,496.8281 859.4719,496.6781 Q859.7063,496.5844 859.9594,496.3219 Q860.1188,496.1625 860.2031,496.1156 Q860.2969,496.0687 860.4187,496.0687 Q860.6156,496.0687 860.7656,496.2281 Q860.925,496.3781 860.925,496.5844 Q860.925,496.7906 860.7188,497.0344 Q860.4187,497.3812 859.9406,497.5781 Q859.2937,497.85 858.5156,497.85 Q857.6062,497.85 856.8844,497.475 Q856.2937,497.175 855.8813,496.5375 Q855.4688,495.8906 855.4688,495.1219 L855.4688,494.4281 Q855.4688,493.6312 855.8344,492.9469 Q856.2094,492.2531 856.8656,491.8875 Q857.5219,491.5125 858.2625,491.5125 Q858.7031,491.5125 859.0875,491.6156 Q859.4812,491.7094 859.8094,491.925 Z " fill="#000000"/><text fill="#000000" font-family="sans-serif" font-size="8.4" lengthAdjust="spacing" textLength="57.6" x="870.45" y="497.8781">ReaderNumber</text><line style="stroke:#181818;stroke-width:0.3;" x1="831.6" x2="947.4" y1="504" y2="504"/><text fill="#000000" font-family="sans-serif" font-size="8.4" lengthAdjust="spacing" textLength="87" x="834.6" y="515.4645">-readerNumber : String</text><line style="stroke:#181818;stroke-width:0.3;" x1="831.6" x2="947.4" y1="519.9727" y2="519.9727"/><text fill="#000000" font-family="sans-serif" font-size="8.4" lengthAdjust="spacing" textLength="109.8" x="834.6" y="531.4371">+getReaderNumber() : String</text></g><!--class PhoneNumber--><g id="elem_PhoneNumber"><rect fill="#F1F1F1" height="28.8" id="PhoneNumber" rx="1.5" ry="1.5" style="stroke:#181818;stroke-width:0.3;" width="73.2" x="699.9" y="614.7"/><ellipse cx="708.9" cy="624.3" fill="#ADD1B2" rx="6.6" ry="6.6" style="stroke:#181818;stroke-width:0.6;"/><path d="M710.5594,621.825 Q710.6531,621.6938 710.7656,621.6281 Q710.8781,621.5625 711.0094,621.5625 Q711.2344,621.5625 711.375,621.7219 Q711.5156,621.8719 711.5156,622.2375 L711.5156,623.1094 Q711.5156,623.475 711.375,623.6344 Q711.2344,623.7937 711.0094,623.7937 Q710.8031,623.7937 710.6813,623.6719 Q710.5594,623.5594 710.4938,623.25 Q710.4656,623.0344 710.3531,622.9219 Q710.1563,622.6969 709.7906,622.5656 Q709.425,622.4344 709.05,622.4344 Q708.5906,622.4344 708.2063,622.6313 Q707.8313,622.8281 707.5313,623.2781 Q707.2406,623.7281 707.2406,624.3469 L707.2406,625.0031 Q707.2406,625.7438 707.775,626.2406 Q708.3094,626.7281 709.2656,626.7281 Q709.8281,626.7281 710.2219,626.5781 Q710.4563,626.4844 710.7094,626.2219 Q710.8688,626.0625 710.9531,626.0156 Q711.0469,625.9688 711.1687,625.9688 Q711.3656,625.9688 711.5156,626.1281 Q711.675,626.2781 711.675,626.4844 Q711.675,626.6906 711.4688,626.9344 Q711.1687,627.2813 710.6906,627.4781 Q710.0437,627.75 709.2656,627.75 Q708.3562,627.75 707.6344,627.375 Q707.0437,627.075 706.6313,626.4375 Q706.2188,625.7906 706.2188,625.0219 L706.2188,624.3281 Q706.2188,623.5313 706.5844,622.8469 Q706.9594,622.1531 707.6156,621.7875 Q708.2719,621.4125 709.0125,621.4125 Q709.4531,621.4125 709.8375,621.5156 Q710.2312,621.6094 710.5594,621.825 Z " fill="#000000"/><text fill="#000000" font-family="sans-serif" font-size="8.4" lengthAdjust="spacing" textLength="54" x="717.3" y="627.7781">PhoneNumber</text><line style="stroke:#181818;stroke-width:0.3;" x1="700.5" x2="772.5" y1="633.9" y2="633.9"/><line style="stroke:#181818;stroke-width:0.3;" x1="700.5" x2="772.5" y1="638.7" y2="638.7"/></g><!--class Genre--><g id="elem_Genre"><rect fill="#F1F1F1" height="28.8" id="Genre" rx="1.5" ry="1.5" style="stroke:#181818;stroke-width:0.3;" width="43.2" x="794.1" y="614.7"/><ellipse cx="803.1" cy="624.3" fill="#ADD1B2" rx="6.6" ry="6.6" style="stroke:#181818;stroke-width:0.6;"/><path d="M804.7594,621.825 Q804.8531,621.6938 804.9656,621.6281 Q805.0781,621.5625 805.2094,621.5625 Q805.4344,621.5625 805.575,621.7219 Q805.7156,621.8719 805.7156,622.2375 L805.7156,623.1094 Q805.7156,623.475 805.575,623.6344 Q805.4344,623.7937 805.2094,623.7937 Q805.0031,623.7937 804.8813,623.6719 Q804.7594,623.5594 804.6938,623.25 Q804.6656,623.0344 804.5531,622.9219 Q804.3562,622.6969 803.9906,622.5656 Q803.625,622.4344 803.25,622.4344 Q802.7906,622.4344 802.4063,622.6313 Q802.0313,622.8281 801.7312,623.2781 Q801.4406,623.7281 801.4406,624.3469 L801.4406,625.0031 Q801.4406,625.7438 801.975,626.2406 Q802.5094,626.7281 803.4656,626.7281 Q804.0281,626.7281 804.4219,626.5781 Q804.6563,626.4844 804.9094,626.2219 Q805.0688,626.0625 805.1531,626.0156 Q805.2469,625.9688 805.3688,625.9688 Q805.5656,625.9688 805.7156,626.1281 Q805.875,626.2781 805.875,626.4844 Q805.875,626.6906 805.6687,626.9344 Q805.3688,627.2813 804.8906,627.4781 Q804.2438,627.75 803.4656,627.75 Q802.5563,627.75 801.8344,627.375 Q801.2438,627.075 800.8313,626.4375 Q800.4187,625.7906 800.4187,625.0219 L800.4187,624.3281 Q800.4187,623.5313 800.7844,622.8469 Q801.1594,622.1531 801.8156,621.7875 Q802.4719,621.4125 803.2125,621.4125 Q803.6531,621.4125 804.0375,621.5156 Q804.4313,621.6094 804.7594,621.825 Z " fill="#000000"/><text fill="#000000" font-family="sans-serif" font-size="8.4" lengthAdjust="spacing" textLength="24" x="811.5" y="627.7781">Genre</text><line style="stroke:#181818;stroke-width:0.3;" x1="794.7" x2="836.7" y1="633.9" y2="633.9"/><line style="stroke:#181818;stroke-width:0.3;" x1="794.7" x2="836.7" y1="638.7" y2="638.7"/></g><!--reverse link ReaderService to ReaderServiceImpl--><g id="link_ReaderService_ReaderServiceImpl"><path d="M410.662,427.6363 C415.126,450.1783 420.246,476.07 424.164,495.864 " fill="none" id="ReaderService-backto-ReaderServiceImpl" style="stroke:#181818;stroke-width:0.6;stroke-dasharray:7.0,7.0;"/><polygon fill="none" points="408.564,417.042,407.1306,428.3356,414.1934,426.9369,408.564,417.042" style="stroke:#181818;stroke-width:0.6;"/></g><!--reverse link User to Reader--><g id="link_User_Reader"><path d="M745.6651,338.905 C744.5431,356.059 743.754,368.022 742.812,382.416 " fill="none" id="User-backto-Reader" style="stroke:#181818;stroke-width:0.6;"/><polygon fill="none" points="746.37,328.128,742.0728,338.67,749.2574,339.1399,746.37,328.128" style="stroke:#181818;stroke-width:0.6;"/></g><!--reverse link ReaderView to ReaderQuoteView--><g id="link_ReaderView_ReaderQuoteView"><path d="M363.9,155.442 C363.9,168.318 363.9,170.166 363.9,180.564 " fill="none" id="ReaderView-backto-ReaderQuoteView" style="stroke:#181818;stroke-width:0.6;"/><polygon fill="none" points="363.9,144.642,360.3,155.442,367.5,155.442,363.9,144.642" style="stroke:#181818;stroke-width:0.6;"/></g><!--link ReaderServiceImpl to ReaderDetails--><g id="link_ReaderServiceImpl_ReaderDetails"><path codeLine="82" d="M472.254,510.3 C535.908,510.3 595.956,510.3 659.61,510.3 " fill="none" id="ReaderServiceImpl-to-ReaderDetails" style="stroke:#181818;stroke-width:0.6;stroke-dasharray:7.0,7.0;"/><polygon fill="#181818" points="663.21,510.3,657.81,507.9,660.21,510.3,657.81,512.7,663.21,510.3" style="stroke:#181818;stroke-width:0.6;"/></g><!--link ReaderController to ReaderService--><g id="link_ReaderController_ReaderService"><path codeLine="84" d="M369.822,324.432 C377.316,339.87 386.1304,358.0331 393.6184,373.4651 " fill="none" id="ReaderController-to-ReaderService" style="stroke:#181818;stroke-width:0.6;stroke-dasharray:7.0,7.0;"/><polygon fill="#181818" points="395.19,376.704,394.9919,370.798,393.8804,374.005,390.6734,372.8934,395.19,376.704" style="stroke:#181818;stroke-width:0.6;"/></g><!--reverse link ReaderQuoteView to ReaderController--><g id="link_ReaderQuoteView_ReaderController"><path codeLine="85" d="M362.8364,235.2515 C362.2304,251.5715 361.584,268.98 361.026,284.082 " fill="none" id="ReaderQuoteView-backto-ReaderController" style="stroke:#181818;stroke-width:0.6;stroke-dasharray:7.0,7.0;"/><polygon fill="#181818" points="362.97,231.654,360.3713,236.9612,362.8587,234.6519,365.168,237.1393,362.97,231.654" style="stroke:#181818;stroke-width:0.6;"/></g><!--reverse link ApiNinjasService to ReaderController--><g id="link_ApiNinjasService_ReaderController"><path codeLine="86" d="M553.8207,232.8897 C509.1627,249.2097 455.046,268.98 413.724,284.082 " fill="none" id="ApiNinjasService-backto-ReaderController" style="stroke:#181818;stroke-width:0.6;stroke-dasharray:7.0,7.0;"/><polygon fill="#181818" points="557.202,231.654,551.3063,231.2533,554.3843,232.6837,552.9538,235.7617,557.202,231.654" style="stroke:#181818;stroke-width:0.6;"/></g><!--link ApiNinjasService to HistoricalEventsResponse--><g id="link_ApiNinjasService_HistoricalEventsResponse"><path codeLine="87" d="M626.43,231.654 C626.832,242.586 627.1844,252.0325 627.6284,263.9905 " fill="none" id="ApiNinjasService-to-HistoricalEventsResponse" style="stroke:#181818;stroke-width:0.6;stroke-dasharray:7.0,7.0;"/><polygon fill="#181818" points="627.762,267.588,629.96,262.1027,627.6507,264.5901,625.1633,262.2808,627.762,267.588" style="stroke:#181818;stroke-width:0.6;"/></g><!--link ReaderController to HistoricalEventsResponse--><g id="link_ReaderController_HistoricalEventsResponse"><path codeLine="88" d="M549.036,304.2 C556.074,304.2 559.512,304.2 566.55,304.2 " fill="none" id="ReaderController-to-HistoricalEventsResponse" style="stroke:#181818;stroke-width:0.6;stroke-dasharray:7.0,7.0;"/><polygon fill="#181818" points="570.15,304.2,564.75,301.8,567.15,304.2,564.75,306.6,570.15,304.2" style="stroke:#181818;stroke-width:0.6;"/></g><!--link ReaderServiceImpl to ReaderRepository--><g id="link_ReaderServiceImpl_ReaderRepository"><path codeLine="90" d="M426.9,524.85 C426.9,545.718 426.9,581.544 426.9,605.298 " fill="none" id="ReaderServiceImpl-to-ReaderRepository" style="stroke:#181818;stroke-width:0.6;stroke-dasharray:7.0,7.0;"/><polygon fill="#181818" points="426.9,608.898,429.3,603.498,426.9,605.898,424.5,603.498,426.9,608.898" style="stroke:#181818;stroke-width:0.6;"/></g><!--reverse link ReaderViewMapper to ReaderController--><g id="link_ReaderViewMapper_ReaderController"><path codeLine="92" d="M190.3436,227.7749 C228.0236,244.5869 278.748,267.216 316.41,284.022 " fill="none" id="ReaderViewMapper-backto-ReaderController" style="stroke:#181818;stroke-width:0.6;stroke-dasharray:7.0,7.0;"/><polygon fill="#181818" points="187.056,226.308,191.0095,230.7,189.7957,227.5304,192.9653,226.3166,187.056,226.308" style="stroke:#181818;stroke-width:0.6;"/></g><!--link ReaderViewMapper to ReaderQuoteView--><g id="link_ReaderViewMapper_ReaderQuoteView"><path codeLine="93" d="M282.18,206.1 C289.092,206.1 292.41,206.1 299.328,206.1 " fill="none" id="ReaderViewMapper-to-ReaderQuoteView" style="stroke:#181818;stroke-width:0.6;stroke-dasharray:7.0,7.0;"/><polygon fill="#181818" points="302.928,206.1,297.528,203.7,299.928,206.1,297.528,208.5,302.928,206.1" style="stroke:#181818;stroke-width:0.6;"/></g><!--link Reader to ReaderDetails--><g id="link_Reader_ReaderDetails"><path codeLine="95" d="M741.228,411.486 C740.718,422.118 740.3203,430.3163 739.5763,445.7663 " fill="none" id="Reader-to-ReaderDetails" style="stroke:#181818;stroke-width:0.6;"/><polygon fill="none" points="739.23,452.958,741.8004,449.4776,739.5763,445.7663,737.0059,449.2467,739.23,452.958" style="stroke:#181818;stroke-width:0.6;"/><text fill="#000000" font-family="sans-serif" font-size="7.8" lengthAdjust="spacing" textLength="4.2" x="736.387" y="424.4756">1</text><text fill="#000000" font-family="sans-serif" font-size="7.8" lengthAdjust="spacing" textLength="4.2" x="735.0802" y="446.2078">1</text></g><!--reverse link ReaderDetails to ReaderNumber--><g id="link_ReaderDetails_ReaderNumber"><path codeLine="96" d="M816.912,510.3 C823.98,510.3 823.842,510.3 830.904,510.3 " fill="none" id="ReaderDetails-backto-ReaderNumber" style="stroke:#181818;stroke-width:0.6;"/><polygon fill="#181818" points="809.712,510.3,813.312,512.7,816.912,510.3,813.312,507.9,809.712,510.3" style="stroke:#181818;stroke-width:0.6;"/><text fill="#000000" font-family="sans-serif" font-size="7.8" lengthAdjust="spacing" textLength="4.2" x="814.5367" y="508.1972">1</text><text fill="#000000" font-family="sans-serif" font-size="7.8" lengthAdjust="spacing" textLength="4.2" x="822.057" y="508.1276">1</text></g><!--reverse link ReaderDetails to BirthDate--><g id="link_ReaderDetails_BirthDate"><path codeLine="97" d="M681.9624,573.0472 C670.9344,585.6112 664.542,592.896 655.308,603.42 " fill="none" id="ReaderDetails-backto-BirthDate" style="stroke:#181818;stroke-width:0.6;"/><polygon fill="#181818" points="686.712,567.636,682.5335,568.7584,681.9624,573.0472,686.1409,571.9248,686.712,567.636" style="stroke:#181818;stroke-width:0.6;"/><text fill="#000000" font-family="sans-serif" font-size="7.8" lengthAdjust="spacing" textLength="4.2" x="678.5393" y="580.8415">1</text><text fill="#000000" font-family="sans-serif" font-size="7.8" lengthAdjust="spacing" textLength="4.2" x="654.1564" y="596.926">1</text></g><!--reverse link ReaderDetails to PhoneNumber--><g id="link_ReaderDetails_PhoneNumber"><path codeLine="98" d="M736.5,574.836 C736.5,592.338 736.5,602.886 736.5,614.664 " fill="none" id="ReaderDetails-backto-PhoneNumber" style="stroke:#181818;stroke-width:0.6;"/><polygon fill="#181818" points="736.5,567.636,734.1,571.236,736.5,574.836,738.9,571.236,736.5,567.636" style="stroke:#181818;stroke-width:0.6;"/><text fill="#000000" font-family="sans-serif" font-size="7.8" lengthAdjust="spacing" textLength="4.2" x="732.1392" y="580.8415">1</text><text fill="#000000" font-family="sans-serif" font-size="7.8" lengthAdjust="spacing" textLength="4.2" x="731.7619" y="607.8973">1</text></g><!--reverse link ReaderDetails to Genre--><g id="link_ReaderDetails_Genre"><path codeLine="99" d="M778.7306,573.6075 C790.5206,591.1095 798.45,602.886 806.382,614.664 " fill="none" id="ReaderDetails-backto-Genre" style="stroke:#181818;stroke-width:0.6;"/><polygon fill="#181818" points="774.708,567.636,774.7288,571.9626,778.7306,573.6075,778.7098,569.2809,774.708,567.636" style="stroke:#181818;stroke-width:0.6;"/><text fill="#000000" font-family="sans-serif" font-size="7.8" lengthAdjust="spacing" textLength="4.2" x="773.2725" y="580.8415">1</text><text fill="#000000" font-family="sans-serif" font-size="7.8" lengthAdjust="spacing" textLength="12" x="790.4568" y="607.8973">1..*</text></g><!--SRC=[fLLRRzem57xFhx3wCbe6sbuHGchNNP1Qna2hj4T33eb7Ohls2Hsh-jzdnxcQX5OQ3oWvv_DtZhzpoRkOXK2sJ6qJ2FIUSKaLJSaseLfV8ogsoH3cMy7Nx2-G3q6GUyWAQ0Zga-2eH9A08iy1CRyXsJ4UtXoTUv6b6r23EKU83EG8LBqdvPk6nqio8NTCumgq55p3r1sx0nuo7kabg7iJ87vWy3GBNihGrv8j6FzDzHhKWMsX23qY4U0tmoOKszBaym4uwYzAfBzCs9ndm3WMITYdrDhA5AR-oJAdMN4lGxwYF1HfxduJxzgenwCwyRuGrGKiHttEsN8stnZIesy2IzaAQd81jQD682Vh2gJGp6HmF5UivilbX7oNo0IdIL6QMq3A4Zthuc-Nup_9crrM4CzJcH1c_Y2rwhMTpu5_gc0Zqwb1CppEPgNCSc-BBYhf3g2qoQDjZ49fsrjRLKTa8qG2b9SreMeFQ6Jk0s3CLBYa2e_hcAfUODvLDqnXV4iH1dal2jCUzgq6FBZq2dUpeNvgCqUdzykCUK5Jw6X19ms1FsXcp16qNNRMxgcKe0pRaA1mvX-PGB2-GLjSrNop2NfmFxArbMcgHZEST7Dg27tZBakIzhsSVLCgw3jaB3Xq1p0k5BwnMVF9QpMVlBNcFZ2V6z1erqwvVLmQ9vrVwLXLh9QnsXgF5jI-oj1iLymF3vpLWMo13eA5TPYg-IgsffWTpTZeLZ_PGkZNo-kMQNCljBTbS3hsOyMY6CUpzcoNoCPdQ5nXYkCTa4nMeBfHUs3-noOu-VhOY7sRlOFr3BZhtg5uubMszGOFpb-hdkB0D_XIrWe4xT6- -7X1n2YJe_p9-JeWLqs_AsSdoi6gzZc3MTPJsuiQZwyko5VWogZs3m00]--></g></svg>