<?xml version="1.0" encoding="us-ascii" standalone="no"?><svg xmlns="http://www.w3.org/2000/svg" xmlns:xlink="http://www.w3.org/1999/xlink" contentStyleType="text/css" height="1134.7px" preserveAspectRatio="none" style="width:1107px;height:1134px;background:#FFFFFF;" version="1.1" viewBox="0 0 1107 1134" width="1107.4px" zoomAndPan="magnify"><defs/><g><!--class LendingController--><g id="elem_LendingController"><rect codeLine="5" fill="#F1F1F1" height="98.7738" id="LendingController" rx="1.75" ry="1.75" style="stroke:#181818;stroke-width:0.3499999999999999;" width="375.2" x="373.8" y="93.8"/><ellipse cx="518.875" cy="105" fill="#ADD1B2" rx="7.7" ry="7.7" style="stroke:#181818;stroke-width:0.6999999999999998;"/><path d="M520.8109,102.1125 Q520.9203,101.9594 521.0516,101.8828 Q521.1828,101.8062 521.3359,101.8062 Q521.5984,101.8062 521.7625,101.9922 Q521.9266,102.1672 521.9266,102.5937 L521.9266,103.6109 Q521.9266,104.0375 521.7625,104.2234 Q521.5984,104.4094 521.3359,104.4094 Q521.0953,104.4094 520.9531,104.2672 Q520.8109,104.1359 520.7344,103.775 Q520.7016,103.5234 520.5703,103.3922 Q520.3406,103.1297 519.9141,102.9766 Q519.4875,102.8234 519.05,102.8234 Q518.5141,102.8234 518.0656,103.0531 Q517.6281,103.2828 517.2781,103.8078 Q516.9391,104.3328 516.9391,105.0547 L516.9391,105.8203 Q516.9391,106.6844 517.5625,107.2641 Q518.1859,107.8328 519.3016,107.8328 Q519.9578,107.8328 520.4172,107.6578 Q520.6906,107.5484 520.9859,107.2422 Q521.1719,107.0562 521.2703,107.0016 Q521.3797,106.9469 521.5219,106.9469 Q521.7516,106.9469 521.9266,107.1328 Q522.1125,107.3078 522.1125,107.5484 Q522.1125,107.7891 521.8719,108.0734 Q521.5219,108.4781 520.9641,108.7078 Q520.2094,109.025 519.3016,109.025 Q518.2406,109.025 517.3984,108.5875 Q516.7094,108.2375 516.2281,107.4937 Q515.7469,106.7391 515.7469,105.8422 L515.7469,105.0328 Q515.7469,104.1031 516.1734,103.3047 Q516.6109,102.4953 517.3766,102.0687 Q518.1422,101.6312 519.0062,101.6312 Q519.5203,101.6312 519.9687,101.7516 Q520.4281,101.8609 520.8109,102.1125 Z " fill="#000000"/><text fill="#000000" font-family="sans-serif" font-size="9.8" lengthAdjust="spacing" textLength="79.1" x="533.225" y="109.0578">LendingController</text><line style="stroke:#181818;stroke-width:0.3499999999999999;" x1="374.5" x2="748.3" y1="116.2" y2="116.2"/><line style="stroke:#181818;stroke-width:0.3499999999999999;" x1="374.5" x2="748.3" y1="121.8" y2="121.8"/><text fill="#000000" font-family="sans-serif" font-size="9.8" lengthAdjust="spacing" textLength="205.8" x="378" y="135.1752">+create(createLendingRequest) : LendingView</text><text fill="#000000" font-family="sans-serif" font-size="9.8" lengthAdjust="spacing" textLength="238" x="378" y="148.21">+findByLendingNumber(readerNumber) : LendingView</text><text fill="#000000" font-family="sans-serif" font-size="9.8" lengthAdjust="spacing" textLength="366.8" x="378" y="161.2447">+setLendingReturned(lendingNumber, setLendingReturnedRequest) : LendingView</text><text fill="#000000" font-family="sans-serif" font-size="9.8" lengthAdjust="spacing" textLength="225.4" x="378" y="174.2795">+getAvgDuration() : LendingsAverageDurationView</text><text fill="#000000" font-family="sans-serif" font-size="9.8" lengthAdjust="spacing" textLength="219.1" x="378" y="187.3143">+getOverdueLendings(page) : List&lt;LendingView&gt;</text></g><!--class MapperInterface--><g id="elem_MapperInterface"><rect codeLine="13" fill="#F1F1F1" height="72.7043" id="MapperInterface" rx="1.75" ry="1.75" style="stroke:#181818;stroke-width:0.3499999999999999;" width="246.4" x="773.5" y="106.75"/><ellipse cx="856.975" cy="117.95" fill="#B4A7E5" rx="7.7" ry="7.7" style="stroke:#181818;stroke-width:0.6999999999999998;"/><path d="M857.6422,115.5984 L857.6422,120.2578 L858.8453,120.2578 Q859.2719,120.2578 859.4578,120.4219 Q859.6437,120.5859 859.6437,120.8594 Q859.6437,121.1219 859.4578,121.2859 Q859.2719,121.45 858.8453,121.45 L855.2469,121.45 Q854.8203,121.45 854.6344,121.2859 Q854.4484,121.1219 854.4484,120.8484 Q854.4484,120.5859 854.6344,120.4219 Q854.8203,120.2578 855.2469,120.2578 L856.45,120.2578 L856.45,115.5984 L855.2469,115.5984 Q854.8203,115.5984 854.6344,115.4344 Q854.4484,115.2703 854.4484,114.9969 Q854.4484,114.7344 854.6344,114.5703 Q854.8203,114.4062 855.2469,114.4062 L858.8453,114.4062 Q859.2719,114.4062 859.4578,114.5703 Q859.6437,114.7344 859.6437,114.9969 Q859.6437,115.2703 859.4578,115.4344 Q859.2719,115.5984 858.8453,115.5984 L857.6422,115.5984 Z " fill="#000000"/><text fill="#000000" font-family="sans-serif" font-size="9.8" font-style="italic" lengthAdjust="spacing" textLength="73.5" x="871.325" y="122.0078">MapperInterface</text><line style="stroke:#181818;stroke-width:0.3499999999999999;" x1="774.2" x2="1019.2" y1="129.15" y2="129.15"/><line style="stroke:#181818;stroke-width:0.3499999999999999;" x1="774.2" x2="1019.2" y1="134.75" y2="134.75"/><text fill="#000000" font-family="sans-serif" font-size="9.8" lengthAdjust="spacing" textLength="213.5" x="777.7" y="148.1252">+mapLendingLink(lending) : Map&lt;String, String&gt;</text><text fill="#000000" font-family="sans-serif" font-size="9.8" lengthAdjust="spacing" textLength="189.7" x="777.7" y="161.16">+mapBookLink(book) : Map&lt;String, String&gt;</text><text fill="#000000" font-family="sans-serif" font-size="9.8" lengthAdjust="spacing" textLength="238" x="777.7" y="174.1947">+mapReaderLink(readerDetails) : Map&lt;String, String&gt;</text></g><!--class LendingViewMapper--><g id="elem_LendingViewMapper"><rect codeLine="19" fill="#F1F1F1" height="72.7043" id="LendingViewMapper" rx="1.75" ry="1.75" style="stroke:#181818;stroke-width:0.3499999999999999;" width="421.4" x="681.1" y="238.7"/><ellipse cx="843.675" cy="249.9" fill="#A9DCDF" rx="7.7" ry="7.7" style="stroke:#181818;stroke-width:0.6999999999999998;"/><path d="M845.2062,251.1359 L842.3078,251.1359 L842.0125,251.8578 L842.3078,251.8578 Q842.7344,251.8578 842.9203,252.0219 Q843.1062,252.1859 843.1062,252.4594 Q843.1062,252.7219 842.9203,252.8859 Q842.7344,253.05 842.3078,253.05 L840.7,253.05 Q840.2734,253.05 840.0984,252.8859 Q839.9125,252.7219 839.9125,252.4484 Q839.9125,252.1859 840.1094,252.0219 Q840.2953,251.8469 840.7328,251.8578 L842.6031,247.1984 L841.8266,247.1984 Q841.4,247.1984 841.2141,247.0344 Q841.0281,246.8703 841.0281,246.5969 Q841.0281,246.3344 841.2141,246.1703 Q841.4,246.0062 841.8266,246.0062 L844.3969,246.0062 L846.7703,251.8578 Q847.1859,251.8578 847.3172,251.9562 Q847.5906,252.1422 847.5906,252.4594 Q847.5906,252.7219 847.4047,252.8859 Q847.2297,253.05 846.8031,253.05 L845.1953,253.05 Q844.7687,253.05 844.5828,252.8859 Q844.3969,252.7219 844.3969,252.4484 Q844.3969,252.1859 844.5828,252.0219 Q844.7687,251.8578 845.1953,251.8578 L845.4906,251.8578 L845.2062,251.1359 Z M844.7031,249.9437 L843.7516,247.5812 L842.7891,249.9437 L844.7031,249.9437 Z " fill="#000000"/><text fill="#000000" font-family="sans-serif" font-size="9.8" font-style="italic" lengthAdjust="spacing" textLength="90.3" x="858.025" y="253.9578">LendingViewMapper</text><line style="stroke:#181818;stroke-width:0.3499999999999999;" x1="681.8" x2="1101.8" y1="261.1" y2="261.1"/><line style="stroke:#181818;stroke-width:0.3499999999999999;" x1="681.8" x2="1101.8" y1="266.7" y2="266.7"/><text fill="#000000" font-family="sans-serif" font-size="9.8" lengthAdjust="spacing" textLength="173.6" x="685.3" y="280.0752">+toLendingView(lending) : LendingView</text><text fill="#000000" font-family="sans-serif" font-size="9.8" lengthAdjust="spacing" textLength="215.6" x="685.3" y="293.11">+toLendingView(lendingList) : List&lt;LendingView&gt;</text><text fill="#000000" font-family="sans-serif" font-size="9.8" lengthAdjust="spacing" textLength="413" x="685.3" y="306.1447">+toLendingsAverageDurationView(lendingsAverageDuration) : LendingsAverageDurationView</text></g><!--class LendingView--><g id="elem_LendingView"><rect codeLine="25" fill="#F1F1F1" height="124.8434" id="LendingView" rx="1.75" ry="1.75" style="stroke:#181818;stroke-width:0.3499999999999999;" width="126" x="844.9" y="357.7"/><ellipse cx="876.925" cy="368.9" fill="#ADD1B2" rx="7.7" ry="7.7" style="stroke:#181818;stroke-width:0.6999999999999998;"/><path d="M878.8609,366.0125 Q878.9703,365.8594 879.1016,365.7828 Q879.2328,365.7062 879.3859,365.7062 Q879.6484,365.7062 879.8125,365.8922 Q879.9766,366.0672 879.9766,366.4937 L879.9766,367.5109 Q879.9766,367.9375 879.8125,368.1234 Q879.6484,368.3094 879.3859,368.3094 Q879.1453,368.3094 879.0031,368.1672 Q878.8609,368.0359 878.7844,367.675 Q878.7516,367.4234 878.6203,367.2922 Q878.3906,367.0297 877.9641,366.8766 Q877.5375,366.7234 877.1,366.7234 Q876.5641,366.7234 876.1156,366.9531 Q875.6781,367.1828 875.3281,367.7078 Q874.9891,368.2328 874.9891,368.9547 L874.9891,369.7203 Q874.9891,370.5844 875.6125,371.1641 Q876.2359,371.7328 877.3516,371.7328 Q878.0078,371.7328 878.4672,371.5578 Q878.7406,371.4484 879.0359,371.1422 Q879.2219,370.9562 879.3203,370.9016 Q879.4297,370.8469 879.5719,370.8469 Q879.8016,370.8469 879.9766,371.0328 Q880.1625,371.2078 880.1625,371.4484 Q880.1625,371.6891 879.9219,371.9734 Q879.5719,372.3781 879.0141,372.6078 Q878.2594,372.925 877.3516,372.925 Q876.2906,372.925 875.4484,372.4875 Q874.7594,372.1375 874.2781,371.3937 Q873.7969,370.6391 873.7969,369.7422 L873.7969,368.9328 Q873.7969,368.0031 874.2234,367.2047 Q874.6609,366.3953 875.4266,365.9687 Q876.1922,365.5312 877.0562,365.5312 Q877.5703,365.5312 878.0187,365.6516 Q878.4781,365.7609 878.8609,366.0125 Z " fill="#000000"/><text fill="#000000" font-family="sans-serif" font-size="9.8" lengthAdjust="spacing" textLength="56" x="891.275" y="372.9578">LendingView</text><line style="stroke:#181818;stroke-width:0.3499999999999999;" x1="845.6" x2="970.2" y1="380.1" y2="380.1"/><text fill="#000000" font-family="sans-serif" font-size="9.8" lengthAdjust="spacing" textLength="104.3" x="849.1" y="393.4752">-lendingNumber : String</text><text fill="#000000" font-family="sans-serif" font-size="9.8" lengthAdjust="spacing" textLength="78.4" x="849.1" y="406.51">-bookTitle : String</text><text fill="#000000" font-family="sans-serif" font-size="9.8" lengthAdjust="spacing" textLength="97.3" x="849.1" y="419.5447">-startDate : LocalDate</text><text fill="#000000" font-family="sans-serif" font-size="9.8" lengthAdjust="spacing" textLength="94.5" x="849.1" y="432.5795">-limitDate : LocalDate</text><text fill="#000000" font-family="sans-serif" font-size="9.8" lengthAdjust="spacing" textLength="112.7" x="849.1" y="445.6143">-daysUntilReturn : Integer</text><text fill="#000000" font-family="sans-serif" font-size="9.8" lengthAdjust="spacing" textLength="102.2" x="849.1" y="458.649">-daysOverdue : Integer</text><text fill="#000000" font-family="sans-serif" font-size="9.8" lengthAdjust="spacing" textLength="117.6" x="849.1" y="471.6838">-fineValueInCents : Integer</text><line style="stroke:#181818;stroke-width:0.3499999999999999;" x1="845.6" x2="970.2" y1="476.9434" y2="476.9434"/></g><!--class LendingLinksView--><g id="elem_LendingLinksView"><rect codeLine="35" fill="#F1F1F1" height="72.7043" id="LendingLinksView" rx="1.75" ry="1.75" style="stroke:#181818;stroke-width:0.3499999999999999;" width="137.2" x="839.3" y="550.2"/><ellipse cx="865.865" cy="561.4" fill="#ADD1B2" rx="7.7" ry="7.7" style="stroke:#181818;stroke-width:0.6999999999999998;"/><path d="M867.8009,558.5125 Q867.9103,558.3594 868.0416,558.2828 Q868.1728,558.2062 868.3259,558.2062 Q868.5884,558.2062 868.7525,558.3922 Q868.9166,558.5672 868.9166,558.9937 L868.9166,560.0109 Q868.9166,560.4375 868.7525,560.6234 Q868.5884,560.8094 868.3259,560.8094 Q868.0853,560.8094 867.9431,560.6672 Q867.8009,560.5359 867.7244,560.175 Q867.6916,559.9234 867.5603,559.7922 Q867.3306,559.5297 866.9041,559.3766 Q866.4775,559.2234 866.04,559.2234 Q865.5041,559.2234 865.0556,559.4531 Q864.6181,559.6828 864.2681,560.2078 Q863.9291,560.7328 863.9291,561.4547 L863.9291,562.2203 Q863.9291,563.0844 864.5525,563.6641 Q865.1759,564.2328 866.2916,564.2328 Q866.9478,564.2328 867.4072,564.0578 Q867.6806,563.9484 867.9759,563.6422 Q868.1619,563.4562 868.2603,563.4016 Q868.3697,563.3469 868.5119,563.3469 Q868.7416,563.3469 868.9166,563.5328 Q869.1025,563.7078 869.1025,563.9484 Q869.1025,564.1891 868.8619,564.4734 Q868.5119,564.8781 867.9541,565.1078 Q867.1994,565.425 866.2916,565.425 Q865.2306,565.425 864.3884,564.9875 Q863.6994,564.6375 863.2181,563.8937 Q862.7369,563.1391 862.7369,562.2422 L862.7369,561.4328 Q862.7369,560.5031 863.1634,559.7047 Q863.6009,558.8953 864.3666,558.4687 Q865.1322,558.0312 865.9962,558.0312 Q866.5103,558.0312 866.9587,558.1516 Q867.4181,558.2609 867.8009,558.5125 Z " fill="#000000"/><text fill="#000000" font-family="sans-serif" font-size="9.8" lengthAdjust="spacing" textLength="79.1" x="879.235" y="565.4578">LendingLinksView</text><line style="stroke:#181818;stroke-width:0.3499999999999999;" x1="840" x2="975.8" y1="572.6" y2="572.6"/><text fill="#000000" font-family="sans-serif" font-size="9.8" lengthAdjust="spacing" textLength="114.8" x="843.5" y="585.9752">-self : Map&lt;String, String&gt;</text><text fill="#000000" font-family="sans-serif" font-size="9.8" lengthAdjust="spacing" textLength="121.1" x="843.5" y="599.01">-book : Map&lt;String, String&gt;</text><text fill="#000000" font-family="sans-serif" font-size="9.8" lengthAdjust="spacing" textLength="128.8" x="843.5" y="612.0447">-reader : Map&lt;String, String&gt;</text><line style="stroke:#181818;stroke-width:0.3499999999999999;" x1="840" x2="975.8" y1="617.3043" y2="617.3043"/></g><!--class LendingsAverageDurationView--><g id="elem_LendingsAverageDurationView"><rect codeLine="43" fill="#F1F1F1" height="46.6348" id="LendingsAverageDurationView" rx="1.75" ry="1.75" style="stroke:#181818;stroke-width:0.3499999999999999;" width="158.2" x="662.2" y="396.55"/><ellipse cx="672.7" cy="407.75" fill="#ADD1B2" rx="7.7" ry="7.7" style="stroke:#181818;stroke-width:0.6999999999999998;"/><path d="M674.6359,404.8625 Q674.7453,404.7094 674.8766,404.6328 Q675.0078,404.5562 675.1609,404.5562 Q675.4234,404.5562 675.5875,404.7422 Q675.7516,404.9172 675.7516,405.3437 L675.7516,406.3609 Q675.7516,406.7875 675.5875,406.9734 Q675.4234,407.1594 675.1609,407.1594 Q674.9203,407.1594 674.7781,407.0172 Q674.6359,406.8859 674.5594,406.525 Q674.5266,406.2734 674.3953,406.1422 Q674.1656,405.8797 673.7391,405.7266 Q673.3125,405.5734 672.875,405.5734 Q672.3391,405.5734 671.8906,405.8031 Q671.4531,406.0328 671.1031,406.5578 Q670.7641,407.0828 670.7641,407.8047 L670.7641,408.5703 Q670.7641,409.4344 671.3875,410.0141 Q672.0109,410.5828 673.1266,410.5828 Q673.7828,410.5828 674.2422,410.4078 Q674.5156,410.2984 674.8109,409.9922 Q674.9969,409.8062 675.0953,409.7516 Q675.2047,409.6969 675.3469,409.6969 Q675.5766,409.6969 675.7516,409.8828 Q675.9375,410.0578 675.9375,410.2984 Q675.9375,410.5391 675.6969,410.8234 Q675.3469,411.2281 674.7891,411.4578 Q674.0344,411.775 673.1266,411.775 Q672.0656,411.775 671.2234,411.3375 Q670.5344,410.9875 670.0531,410.2437 Q669.5719,409.4891 669.5719,408.5922 L669.5719,407.7828 Q669.5719,406.8531 669.9984,406.0547 Q670.4359,405.2453 671.2016,404.8187 Q671.9672,404.3812 672.8312,404.3812 Q673.3453,404.3812 673.7937,404.5016 Q674.2531,404.6109 674.6359,404.8625 Z " fill="#000000"/><text fill="#000000" font-family="sans-serif" font-size="9.8" lengthAdjust="spacing" textLength="135.8" x="682.5" y="411.8078">LendingsAverageDurationView</text><line style="stroke:#181818;stroke-width:0.3499999999999999;" x1="662.9" x2="819.7" y1="418.95" y2="418.95"/><text fill="#000000" font-family="sans-serif" font-size="9.8" lengthAdjust="spacing" textLength="149.8" x="666.4" y="432.3252">-lendingsAverageDuration : String</text><line style="stroke:#181818;stroke-width:0.3499999999999999;" x1="662.9" x2="819.7" y1="437.5848" y2="437.5848"/></g><!--class LendingService--><g id="elem_LendingService"><rect codeLine="47" fill="#F1F1F1" height="98.7738" id="LendingService" rx="1.75" ry="1.75" style="stroke:#181818;stroke-width:0.3499999999999999;" width="391.3" x="246.05" y="370.65"/><ellipse cx="404.775" cy="381.85" fill="#B4A7E5" rx="7.7" ry="7.7" style="stroke:#181818;stroke-width:0.6999999999999998;"/><path d="M405.4422,379.4984 L405.4422,384.1578 L406.6453,384.1578 Q407.0719,384.1578 407.2578,384.3219 Q407.4437,384.4859 407.4437,384.7594 Q407.4437,385.0219 407.2578,385.1859 Q407.0719,385.35 406.6453,385.35 L403.0469,385.35 Q402.6203,385.35 402.4344,385.1859 Q402.2484,385.0219 402.2484,384.7484 Q402.2484,384.4859 402.4344,384.3219 Q402.6203,384.1578 403.0469,384.1578 L404.25,384.1578 L404.25,379.4984 L403.0469,379.4984 Q402.6203,379.4984 402.4344,379.3344 Q402.2484,379.1703 402.2484,378.8969 Q402.2484,378.6344 402.4344,378.4703 Q402.6203,378.3062 403.0469,378.3062 L406.6453,378.3062 Q407.0719,378.3062 407.2578,378.4703 Q407.4437,378.6344 407.4437,378.8969 Q407.4437,379.1703 407.2578,379.3344 Q407.0719,379.4984 406.6453,379.4984 L405.4422,379.4984 Z " fill="#000000"/><text fill="#000000" font-family="sans-serif" font-size="9.8" font-style="italic" lengthAdjust="spacing" textLength="67.9" x="419.125" y="385.9078">LendingService</text><line style="stroke:#181818;stroke-width:0.3499999999999999;" x1="246.75" x2="636.65" y1="393.05" y2="393.05"/><line style="stroke:#181818;stroke-width:0.3499999999999999;" x1="246.75" x2="636.65" y1="398.65" y2="398.65"/><text fill="#000000" font-family="sans-serif" font-size="9.8" lengthAdjust="spacing" textLength="185.5" x="250.25" y="412.0252">+create(createLendingRequest) : Lending</text><text fill="#000000" font-family="sans-serif" font-size="9.8" lengthAdjust="spacing" textLength="268.8" x="250.25" y="425.06">+findByLendingNumber(lendingNumber) : Optional&lt;Lending&gt;</text><text fill="#000000" font-family="sans-serif" font-size="9.8" lengthAdjust="spacing" textLength="382.9" x="250.25" y="438.0947">+setReturned(lendingNumber, setLendingReturnedRequest, desiredVersion) : Lending</text><text fill="#000000" font-family="sans-serif" font-size="9.8" lengthAdjust="spacing" textLength="135.8" x="250.25" y="451.1295">+getAverageDuration() : String</text><text fill="#000000" font-family="sans-serif" font-size="9.8" lengthAdjust="spacing" textLength="158.2" x="250.25" y="464.1643">+getOverdue(page) : List&lt;Lending&gt;</text></g><!--class LendingServiceImpl--><g id="elem_LendingServiceImpl"><rect codeLine="55" fill="#F1F1F1" height="33.6" id="LendingServiceImpl" rx="1.75" ry="1.75" style="stroke:#181818;stroke-width:0.3499999999999999;" width="108.5" x="479.15" y="569.8"/><ellipse cx="489.65" cy="581" fill="#ADD1B2" rx="7.7" ry="7.7" style="stroke:#181818;stroke-width:0.6999999999999998;"/><path d="M491.5859,578.1125 Q491.6953,577.9594 491.8266,577.8828 Q491.9578,577.8062 492.1109,577.8062 Q492.3734,577.8062 492.5375,577.9922 Q492.7016,578.1672 492.7016,578.5937 L492.7016,579.6109 Q492.7016,580.0375 492.5375,580.2234 Q492.3734,580.4094 492.1109,580.4094 Q491.8703,580.4094 491.7281,580.2672 Q491.5859,580.1359 491.5094,579.775 Q491.4766,579.5234 491.3453,579.3922 Q491.1156,579.1297 490.6891,578.9766 Q490.2625,578.8234 489.825,578.8234 Q489.2891,578.8234 488.8406,579.0531 Q488.4031,579.2828 488.0531,579.8078 Q487.7141,580.3328 487.7141,581.0547 L487.7141,581.8203 Q487.7141,582.6844 488.3375,583.2641 Q488.9609,583.8328 490.0766,583.8328 Q490.7328,583.8328 491.1922,583.6578 Q491.4656,583.5484 491.7609,583.2422 Q491.9469,583.0562 492.0453,583.0016 Q492.1547,582.9469 492.2969,582.9469 Q492.5266,582.9469 492.7016,583.1328 Q492.8875,583.3078 492.8875,583.5484 Q492.8875,583.7891 492.6469,584.0734 Q492.2969,584.4781 491.7391,584.7078 Q490.9844,585.025 490.0766,585.025 Q489.0156,585.025 488.1734,584.5875 Q487.4844,584.2375 487.0031,583.4937 Q486.5219,582.7391 486.5219,581.8422 L486.5219,581.0328 Q486.5219,580.1031 486.9484,579.3047 Q487.3859,578.4953 488.1516,578.0687 Q488.9172,577.6312 489.7812,577.6312 Q490.2953,577.6312 490.7437,577.7516 Q491.2031,577.8609 491.5859,578.1125 Z " fill="#000000"/><text fill="#000000" font-family="sans-serif" font-size="9.8" lengthAdjust="spacing" textLength="86.1" x="499.45" y="585.0578">LendingServiceImpl</text><line style="stroke:#181818;stroke-width:0.3499999999999999;" x1="479.85" x2="586.95" y1="592.2" y2="592.2"/><line style="stroke:#181818;stroke-width:0.3499999999999999;" x1="479.85" x2="586.95" y1="597.8" y2="597.8"/></g><!--class UserService--><g id="elem_UserService"><rect codeLine="58" fill="#F1F1F1" height="46.6348" id="UserService" rx="1.75" ry="1.75" style="stroke:#181818;stroke-width:0.3499999999999999;" width="207.2" x="451.5" y="4.9"/><ellipse cx="525.525" cy="16.1" fill="#B4A7E5" rx="7.7" ry="7.7" style="stroke:#181818;stroke-width:0.6999999999999998;"/><path d="M526.1922,13.7484 L526.1922,18.4078 L527.3953,18.4078 Q527.8219,18.4078 528.0078,18.5719 Q528.1937,18.7359 528.1937,19.0094 Q528.1937,19.2719 528.0078,19.4359 Q527.8219,19.6 527.3953,19.6 L523.7969,19.6 Q523.3703,19.6 523.1844,19.4359 Q522.9984,19.2719 522.9984,18.9984 Q522.9984,18.7359 523.1844,18.5719 Q523.3703,18.4078 523.7969,18.4078 L525,18.4078 L525,13.7484 L523.7969,13.7484 Q523.3703,13.7484 523.1844,13.5844 Q522.9984,13.4203 522.9984,13.1469 Q522.9984,12.8844 523.1844,12.7203 Q523.3703,12.5562 523.7969,12.5562 L527.3953,12.5562 Q527.8219,12.5562 528.0078,12.7203 Q528.1937,12.8844 528.1937,13.1469 Q528.1937,13.4203 528.0078,13.5844 Q527.8219,13.7484 527.3953,13.7484 L526.1922,13.7484 Z " fill="#000000"/><text fill="#000000" font-family="sans-serif" font-size="9.8" font-style="italic" lengthAdjust="spacing" textLength="53.2" x="539.875" y="20.1578">UserService</text><line style="stroke:#181818;stroke-width:0.3499999999999999;" x1="452.2" x2="658" y1="27.3" y2="27.3"/><line style="stroke:#181818;stroke-width:0.3499999999999999;" x1="452.2" x2="658" y1="32.9" y2="32.9"/><text fill="#000000" font-family="sans-serif" font-size="9.8" lengthAdjust="spacing" textLength="198.8" x="455.7" y="46.2752">+getAuthenticatedUser(authentication) : User</text></g><!--class ReaderService--><g id="elem_ReaderService"><rect codeLine="62" fill="#F1F1F1" height="46.6348" id="ReaderService" rx="1.75" ry="1.75" style="stroke:#181818;stroke-width:0.3499999999999999;" width="256.9" x="164.15" y="4.9"/><ellipse cx="257.075" cy="16.1" fill="#B4A7E5" rx="7.7" ry="7.7" style="stroke:#181818;stroke-width:0.6999999999999998;"/><path d="M257.7422,13.7484 L257.7422,18.4078 L258.9453,18.4078 Q259.3719,18.4078 259.5578,18.5719 Q259.7437,18.7359 259.7437,19.0094 Q259.7437,19.2719 259.5578,19.4359 Q259.3719,19.6 258.9453,19.6 L255.3469,19.6 Q254.9203,19.6 254.7344,19.4359 Q254.5484,19.2719 254.5484,18.9984 Q254.5484,18.7359 254.7344,18.5719 Q254.9203,18.4078 255.3469,18.4078 L256.55,18.4078 L256.55,13.7484 L255.3469,13.7484 Q254.9203,13.7484 254.7344,13.5844 Q254.5484,13.4203 254.5484,13.1469 Q254.5484,12.8844 254.7344,12.7203 Q254.9203,12.5562 255.3469,12.5562 L258.9453,12.5562 Q259.3719,12.5562 259.5578,12.7203 Q259.7437,12.8844 259.7437,13.1469 Q259.7437,13.4203 259.5578,13.5844 Q259.3719,13.7484 258.9453,13.7484 L257.7422,13.7484 Z " fill="#000000"/><text fill="#000000" font-family="sans-serif" font-size="9.8" font-style="italic" lengthAdjust="spacing" textLength="65.1" x="271.425" y="20.1578">ReaderService</text><line style="stroke:#181818;stroke-width:0.3499999999999999;" x1="164.85" x2="420.35" y1="27.3" y2="27.3"/><line style="stroke:#181818;stroke-width:0.3499999999999999;" x1="164.85" x2="420.35" y1="32.9" y2="32.9"/><text fill="#000000" font-family="sans-serif" font-size="9.8" lengthAdjust="spacing" textLength="248.5" x="168.35" y="46.2752">+findByUsername(username) : Optional&lt;ReaderDetails&gt;</text></g><!--class ConcurrencyService--><g id="elem_ConcurrencyService"><rect codeLine="66" fill="#F1F1F1" height="46.6348" id="ConcurrencyService" rx="1.75" ry="1.75" style="stroke:#181818;stroke-width:0.3499999999999999;" width="249.9" x="683.55" y="4.9"/><ellipse cx="760.725" cy="16.1" fill="#ADD1B2" rx="7.7" ry="7.7" style="stroke:#181818;stroke-width:0.6999999999999998;"/><path d="M762.6609,13.2125 Q762.7703,13.0594 762.9016,12.9828 Q763.0328,12.9062 763.1859,12.9062 Q763.4484,12.9062 763.6125,13.0922 Q763.7766,13.2672 763.7766,13.6937 L763.7766,14.7109 Q763.7766,15.1375 763.6125,15.3234 Q763.4484,15.5094 763.1859,15.5094 Q762.9453,15.5094 762.8031,15.3672 Q762.6609,15.2359 762.5844,14.875 Q762.5516,14.6234 762.4203,14.4922 Q762.1906,14.2297 761.7641,14.0766 Q761.3375,13.9234 760.9,13.9234 Q760.3641,13.9234 759.9156,14.1531 Q759.4781,14.3828 759.1281,14.9078 Q758.7891,15.4328 758.7891,16.1547 L758.7891,16.9203 Q758.7891,17.7844 759.4125,18.3641 Q760.0359,18.9328 761.1516,18.9328 Q761.8078,18.9328 762.2672,18.7578 Q762.5406,18.6484 762.8359,18.3422 Q763.0219,18.1562 763.1203,18.1016 Q763.2297,18.0469 763.3719,18.0469 Q763.6016,18.0469 763.7766,18.2328 Q763.9625,18.4078 763.9625,18.6484 Q763.9625,18.8891 763.7219,19.1734 Q763.3719,19.5781 762.8141,19.8078 Q762.0594,20.125 761.1516,20.125 Q760.0906,20.125 759.2484,19.6875 Q758.5594,19.3375 758.0781,18.5937 Q757.5969,17.8391 757.5969,16.9422 L757.5969,16.1328 Q757.5969,15.2031 758.0234,14.4047 Q758.4609,13.5953 759.2266,13.1687 Q759.9922,12.7312 760.8562,12.7312 Q761.3703,12.7312 761.8187,12.8516 Q762.2781,12.9609 762.6609,13.2125 Z " fill="#000000"/><text fill="#000000" font-family="sans-serif" font-size="9.8" lengthAdjust="spacing" textLength="89.6" x="775.075" y="20.1578">ConcurrencyService</text><line style="stroke:#181818;stroke-width:0.3499999999999999;" x1="684.25" x2="932.75" y1="27.3" y2="27.3"/><line style="stroke:#181818;stroke-width:0.3499999999999999;" x1="684.25" x2="932.75" y1="32.9" y2="32.9"/><text fill="#000000" font-family="sans-serif" font-size="9.8" lengthAdjust="spacing" textLength="241.5" x="687.75" y="46.2752">+getVersionFromIfMatchHeader(ifMatchHeader) : Long</text></g><!--class LendingRepository--><g id="elem_LendingRepository"><rect codeLine="71" fill="#F1F1F1" height="124.8434" id="LendingRepository" rx="1.75" ry="1.75" style="stroke:#181818;stroke-width:0.3499999999999999;" width="299.6" x="154.7" y="524.3"/><ellipse cx="259.875" cy="535.5" fill="#B4A7E5" rx="7.7" ry="7.7" style="stroke:#181818;stroke-width:0.6999999999999998;"/><path d="M260.5422,533.1484 L260.5422,537.8078 L261.7453,537.8078 Q262.1719,537.8078 262.3578,537.9719 Q262.5437,538.1359 262.5437,538.4094 Q262.5437,538.6719 262.3578,538.8359 Q262.1719,539 261.7453,539 L258.1469,539 Q257.7203,539 257.5344,538.8359 Q257.3484,538.6719 257.3484,538.3984 Q257.3484,538.1359 257.5344,537.9719 Q257.7203,537.8078 258.1469,537.8078 L259.35,537.8078 L259.35,533.1484 L258.1469,533.1484 Q257.7203,533.1484 257.5344,532.9844 Q257.3484,532.8203 257.3484,532.5469 Q257.3484,532.2844 257.5344,532.1203 Q257.7203,531.9562 258.1469,531.9562 L261.7453,531.9562 Q262.1719,531.9562 262.3578,532.1203 Q262.5437,532.2844 262.5437,532.5469 Q262.5437,532.8203 262.3578,532.9844 Q262.1719,533.1484 261.7453,533.1484 L260.5422,533.1484 Z " fill="#000000"/><text fill="#000000" font-family="sans-serif" font-size="9.8" font-style="italic" lengthAdjust="spacing" textLength="83.3" x="274.225" y="539.5578">LendingRepository</text><line style="stroke:#181818;stroke-width:0.3499999999999999;" x1="155.4" x2="453.6" y1="546.7" y2="546.7"/><line style="stroke:#181818;stroke-width:0.3499999999999999;" x1="155.4" x2="453.6" y1="552.3" y2="552.3"/><text fill="#000000" font-family="sans-serif" font-size="9.8" lengthAdjust="spacing" textLength="185.5" x="158.9" y="565.6752">+create(createLendingRequest) : Lending</text><text fill="#000000" font-family="sans-serif" font-size="9.8" lengthAdjust="spacing" textLength="268.8" x="158.9" y="578.71">+findByLendingNumber(lendingNumber) : Optional&lt;Lending&gt;</text><text fill="#000000" font-family="sans-serif" font-size="9.8" lengthAdjust="spacing" textLength="291.2" x="158.9" y="591.7447">+listOutstandingByReaderNumber(readerNumber) : List&lt;Lending&gt;</text><text fill="#000000" font-family="sans-serif" font-size="9.8" lengthAdjust="spacing" textLength="109.9" x="158.9" y="604.7795">+save(lending) : Lending</text><text fill="#000000" font-family="sans-serif" font-size="9.8" lengthAdjust="spacing" textLength="149.8" x="158.9" y="617.8143">+getCountFromCurrentYear() : int</text><text fill="#000000" font-family="sans-serif" font-size="9.8" lengthAdjust="spacing" textLength="141.4" x="158.9" y="630.849">+getAverageDuration() : Double</text><text fill="#000000" font-family="sans-serif" font-size="9.8" lengthAdjust="spacing" textLength="158.2" x="158.9" y="643.8838">+getOverdue(page) : List&lt;Lending&gt;</text></g><!--class ReaderRepository--><g id="elem_ReaderRepository"><rect codeLine="82" fill="#F1F1F1" height="46.6348" id="ReaderRepository" rx="1.75" ry="1.75" style="stroke:#181818;stroke-width:0.3499999999999999;" width="119.7" x="344.05" y="812.35"/><ellipse cx="362.11" cy="823.55" fill="#B4A7E5" rx="7.7" ry="7.7" style="stroke:#181818;stroke-width:0.6999999999999998;"/><path d="M362.7772,821.1984 L362.7772,825.8578 L363.9803,825.8578 Q364.4069,825.8578 364.5928,826.0219 Q364.7787,826.1859 364.7787,826.4594 Q364.7787,826.7219 364.5928,826.8859 Q364.4069,827.05 363.9803,827.05 L360.3819,827.05 Q359.9553,827.05 359.7694,826.8859 Q359.5834,826.7219 359.5834,826.4484 Q359.5834,826.1859 359.7694,826.0219 Q359.9553,825.8578 360.3819,825.8578 L361.585,825.8578 L361.585,821.1984 L360.3819,821.1984 Q359.9553,821.1984 359.7694,821.0344 Q359.5834,820.8703 359.5834,820.5969 Q359.5834,820.3344 359.7694,820.1703 Q359.9553,820.0062 360.3819,820.0062 L363.9803,820.0062 Q364.4069,820.0062 364.5928,820.1703 Q364.7787,820.3344 364.7787,820.5969 Q364.7787,820.8703 364.5928,821.0344 Q364.4069,821.1984 363.9803,821.1984 L362.7772,821.1984 Z " fill="#000000"/><text fill="#000000" font-family="sans-serif" font-size="9.8" font-style="italic" lengthAdjust="spacing" textLength="80.5" x="373.59" y="827.6078">ReaderRepository</text><line style="stroke:#181818;stroke-width:0.3499999999999999;" x1="344.75" x2="463.05" y1="834.75" y2="834.75"/><line style="stroke:#181818;stroke-width:0.3499999999999999;" x1="344.75" x2="463.05" y1="840.35" y2="840.35"/><text fill="#000000" font-family="sans-serif" font-size="9.8" lengthAdjust="spacing" textLength="111.3" x="348.25" y="853.7252">+findById(readerNumber)</text></g><!--class BookRepository--><g id="elem_BookRepository"><rect codeLine="86" fill="#F1F1F1" height="46.6348" id="BookRepository" rx="1.75" ry="1.75" style="stroke:#181818;stroke-width:0.3499999999999999;" width="93.1" x="612.15" y="563.15"/><ellipse cx="622.65" cy="574.35" fill="#B4A7E5" rx="7.7" ry="7.7" style="stroke:#181818;stroke-width:0.6999999999999998;"/><path d="M623.3172,571.9984 L623.3172,576.6578 L624.5203,576.6578 Q624.9469,576.6578 625.1328,576.8219 Q625.3187,576.9859 625.3187,577.2594 Q625.3187,577.5219 625.1328,577.6859 Q624.9469,577.85 624.5203,577.85 L620.9219,577.85 Q620.4953,577.85 620.3094,577.6859 Q620.1234,577.5219 620.1234,577.2484 Q620.1234,576.9859 620.3094,576.8219 Q620.4953,576.6578 620.9219,576.6578 L622.125,576.6578 L622.125,571.9984 L620.9219,571.9984 Q620.4953,571.9984 620.3094,571.8344 Q620.1234,571.6703 620.1234,571.3969 Q620.1234,571.1344 620.3094,570.9703 Q620.4953,570.8062 620.9219,570.8062 L624.5203,570.8062 Q624.9469,570.8062 625.1328,570.9703 Q625.3187,571.1344 625.3187,571.3969 Q625.3187,571.6703 625.1328,571.8344 Q624.9469,571.9984 624.5203,571.9984 L623.3172,571.9984 Z " fill="#000000"/><text fill="#000000" font-family="sans-serif" font-size="9.8" font-style="italic" lengthAdjust="spacing" textLength="70.7" x="632.45" y="578.4078">BookRepository</text><line style="stroke:#181818;stroke-width:0.3499999999999999;" x1="612.85" x2="704.55" y1="585.55" y2="585.55"/><line style="stroke:#181818;stroke-width:0.3499999999999999;" x1="612.85" x2="704.55" y1="591.15" y2="591.15"/><text fill="#000000" font-family="sans-serif" font-size="9.8" lengthAdjust="spacing" textLength="65.8" x="616.35" y="604.5252">+findById(isbn)</text></g><!--class FineRepository--><g id="elem_FineRepository"><rect codeLine="90" fill="#F1F1F1" height="46.6348" id="FineRepository" rx="1.75" ry="1.75" style="stroke:#181818;stroke-width:0.3499999999999999;" width="89.6" x="488.6" y="812.35"/><ellipse cx="499.1" cy="823.55" fill="#B4A7E5" rx="7.7" ry="7.7" style="stroke:#181818;stroke-width:0.6999999999999998;"/><path d="M499.7672,821.1984 L499.7672,825.8578 L500.9703,825.8578 Q501.3969,825.8578 501.5828,826.0219 Q501.7687,826.1859 501.7687,826.4594 Q501.7687,826.7219 501.5828,826.8859 Q501.3969,827.05 500.9703,827.05 L497.3719,827.05 Q496.9453,827.05 496.7594,826.8859 Q496.5734,826.7219 496.5734,826.4484 Q496.5734,826.1859 496.7594,826.0219 Q496.9453,825.8578 497.3719,825.8578 L498.575,825.8578 L498.575,821.1984 L497.3719,821.1984 Q496.9453,821.1984 496.7594,821.0344 Q496.5734,820.8703 496.5734,820.5969 Q496.5734,820.3344 496.7594,820.1703 Q496.9453,820.0062 497.3719,820.0062 L500.9703,820.0062 Q501.3969,820.0062 501.5828,820.1703 Q501.7687,820.3344 501.7687,820.5969 Q501.7687,820.8703 501.5828,821.0344 Q501.3969,821.1984 500.9703,821.1984 L499.7672,821.1984 Z " fill="#000000"/><text fill="#000000" font-family="sans-serif" font-size="9.8" font-style="italic" lengthAdjust="spacing" textLength="67.2" x="508.9" y="827.6078">FineRepository</text><line style="stroke:#181818;stroke-width:0.3499999999999999;" x1="489.3" x2="577.5" y1="834.75" y2="834.75"/><line style="stroke:#181818;stroke-width:0.3499999999999999;" x1="489.3" x2="577.5" y1="840.35" y2="840.35"/><text fill="#000000" font-family="sans-serif" font-size="9.8" lengthAdjust="spacing" textLength="77.7" x="492.8" y="853.7252">+save(fine) : Fine</text></g><!--class Lending--><g id="elem_Lending"><rect codeLine="94" fill="#F1F1F1" height="290.068" id="Lending" rx="1.75" ry="1.75" style="stroke:#181818;stroke-width:0.3499999999999999;" width="228.2" x="4.9" y="690.9"/><ellipse cx="98.175" cy="706.5037" fill="#ADD1B2" rx="7.7" ry="7.7" style="stroke:#181818;stroke-width:0.6999999999999998;"/><path d="M100.1109,703.6162 Q100.2203,703.4631 100.3516,703.3865 Q100.4828,703.31 100.6359,703.31 Q100.8984,703.31 101.0625,703.4959 Q101.2266,703.6709 101.2266,704.0975 L101.2266,705.1146 Q101.2266,705.5412 101.0625,705.7271 Q100.8984,705.9131 100.6359,705.9131 Q100.3953,705.9131 100.2531,705.7709 Q100.1109,705.6396 100.0344,705.2787 Q100.0016,705.0271 99.8703,704.8959 Q99.6406,704.6334 99.2141,704.4803 Q98.7875,704.3271 98.35,704.3271 Q97.8141,704.3271 97.3656,704.5568 Q96.9281,704.7865 96.5781,705.3115 Q96.2391,705.8365 96.2391,706.5584 L96.2391,707.324 Q96.2391,708.1881 96.8625,708.7678 Q97.4859,709.3365 98.6016,709.3365 Q99.2578,709.3365 99.7172,709.1615 Q99.9906,709.0521 100.2859,708.7459 Q100.4719,708.56 100.5703,708.5053 Q100.6797,708.4506 100.8219,708.4506 Q101.0516,708.4506 101.2266,708.6365 Q101.4125,708.8115 101.4125,709.0521 Q101.4125,709.2928 101.1719,709.5771 Q100.8219,709.9818 100.2641,710.2115 Q99.5094,710.5287 98.6016,710.5287 Q97.5406,710.5287 96.6984,710.0912 Q96.0094,709.7412 95.5281,708.9975 Q95.0469,708.2428 95.0469,707.3459 L95.0469,706.5365 Q95.0469,705.6068 95.4734,704.8084 Q95.9109,703.999 96.6766,703.5725 Q97.4422,703.135 98.3062,703.135 Q98.8203,703.135 99.2687,703.2553 Q99.7281,703.3646 100.1109,703.6162 Z " fill="#000000"/><text fill="#000000" font-family="sans-serif" font-size="8.4" font-style="italic" lengthAdjust="spacing" textLength="30.1" x="115.325" y="703.4645">&#171;entity&#187;</text><text fill="#000000" font-family="sans-serif" font-size="9.8" lengthAdjust="spacing" textLength="35.7" x="112.525" y="716.1479">Lending</text><line style="stroke:#181818;stroke-width:0.3499999999999999;" x1="5.6" x2="232.4" y1="722.1074" y2="722.1074"/><text fill="#000000" font-family="sans-serif" font-size="9.8" lengthAdjust="spacing" textLength="44.8" x="9.1" y="735.4826">-pk : Long</text><text fill="#000000" font-family="sans-serif" font-size="9.8" lengthAdjust="spacing" textLength="73.5" x="9.1" y="748.5174">-startDate : Date</text><text fill="#000000" font-family="sans-serif" font-size="9.8" lengthAdjust="spacing" textLength="70.7" x="9.1" y="761.5521">-limitDate : Date</text><text fill="#000000" font-family="sans-serif" font-size="9.8" lengthAdjust="spacing" textLength="80.5" x="9.1" y="774.5869">-returnDate : Date</text><text fill="#000000" font-family="sans-serif" font-size="9.8" lengthAdjust="spacing" textLength="63" x="9.1" y="787.6217">-version : long</text><text fill="#000000" font-family="sans-serif" font-size="9.8" lengthAdjust="spacing" textLength="91.7" x="9.1" y="800.6564">-commentary : String</text><text fill="#000000" font-family="sans-serif" font-size="9.8" lengthAdjust="spacing" textLength="112.7" x="9.1" y="813.6912">-daysUntilReturn : Integer</text><text fill="#000000" font-family="sans-serif" font-size="9.8" lengthAdjust="spacing" textLength="102.2" x="9.1" y="826.726">-daysOverdue : Integer</text><text fill="#000000" font-family="sans-serif" font-size="9.8" lengthAdjust="spacing" textLength="97.3" x="9.1" y="839.7607">-fineValueInCents : int</text><line style="stroke:#181818;stroke-width:0.3499999999999999;" x1="5.6" x2="232.4" y1="845.0203" y2="845.0203"/><text fill="#000000" font-family="sans-serif" font-size="9.8" lengthAdjust="spacing" textLength="112.7" x="9.1" y="858.3955">-setReturnedDate() : void</text><text fill="#000000" font-family="sans-serif" font-size="9.8" lengthAdjust="spacing" textLength="121.8" x="9.1" y="871.4303">-setDaysUntilReturn() : void</text><text fill="#000000" font-family="sans-serif" font-size="9.8" lengthAdjust="spacing" textLength="111.3" x="9.1" y="884.465">-setDaysOverdue() : void</text><text fill="#000000" font-family="sans-serif" font-size="9.8" lengthAdjust="spacing" textLength="104.3" x="9.1" y="897.4998">+getDaysDelayed() : int</text><text fill="#000000" font-family="sans-serif" font-size="9.8" lengthAdjust="spacing" textLength="185.5" x="9.1" y="910.5346">+getDaysUntilReturn() : Optional&lt;Integer&gt;</text><text fill="#000000" font-family="sans-serif" font-size="9.8" lengthAdjust="spacing" textLength="175" x="9.1" y="923.5693">+getDaysOverdue() : Optional&lt;Integer&gt;</text><text fill="#000000" font-family="sans-serif" font-size="9.8" lengthAdjust="spacing" textLength="192.5" x="9.1" y="936.6041">+getFineValueInCents() : Optional&lt;Integer&gt;</text><text fill="#000000" font-family="sans-serif" font-size="9.8" lengthAdjust="spacing" textLength="130.9" x="9.1" y="949.6389">+getLendingNumber() : String</text><text fill="#000000" font-family="sans-serif" font-size="9.8" lengthAdjust="spacing" textLength="219.8" x="9.1" y="962.6736">+setReturned(desiredVersion, commentary) : void</text><text fill="#000000" font-family="sans-serif" font-size="9.8" lengthAdjust="spacing" textLength="161" x="9.1" y="975.7084">+getReaderDetails() : ReaderDetails</text></g><!--class LendingNumber--><g id="elem_LendingNumber"><rect codeLine="117" fill="#F1F1F1" height="81.5117" id="LendingNumber" rx="1.75" ry="1.75" style="stroke:#181818;stroke-width:0.3499999999999999;" width="92.4" x="72.8" y="1036"/><ellipse cx="83.3" cy="1051.6037" fill="#ADD1B2" rx="7.7" ry="7.7" style="stroke:#181818;stroke-width:0.6999999999999998;"/><path d="M85.2359,1048.7162 Q85.3453,1048.5631 85.4766,1048.4865 Q85.6078,1048.41 85.7609,1048.41 Q86.0234,1048.41 86.1875,1048.5959 Q86.3516,1048.7709 86.3516,1049.1975 L86.3516,1050.2146 Q86.3516,1050.6412 86.1875,1050.8271 Q86.0234,1051.0131 85.7609,1051.0131 Q85.5203,1051.0131 85.3781,1050.8709 Q85.2359,1050.7396 85.1594,1050.3787 Q85.1266,1050.1271 84.9953,1049.9959 Q84.7656,1049.7334 84.3391,1049.5803 Q83.9125,1049.4271 83.475,1049.4271 Q82.9391,1049.4271 82.4906,1049.6568 Q82.0531,1049.8865 81.7031,1050.4115 Q81.3641,1050.9365 81.3641,1051.6584 L81.3641,1052.424 Q81.3641,1053.2881 81.9875,1053.8678 Q82.6109,1054.4365 83.7266,1054.4365 Q84.3828,1054.4365 84.8422,1054.2615 Q85.1156,1054.1521 85.4109,1053.8459 Q85.5969,1053.66 85.6953,1053.6053 Q85.8047,1053.5506 85.9469,1053.5506 Q86.1766,1053.5506 86.3516,1053.7365 Q86.5375,1053.9115 86.5375,1054.1521 Q86.5375,1054.3928 86.2969,1054.6771 Q85.9469,1055.0818 85.3891,1055.3115 Q84.6344,1055.6287 83.7266,1055.6287 Q82.6656,1055.6287 81.8234,1055.1912 Q81.1344,1054.8412 80.6531,1054.0975 Q80.1719,1053.3428 80.1719,1052.4459 L80.1719,1051.6365 Q80.1719,1050.7068 80.5984,1049.9084 Q81.0359,1049.099 81.8016,1048.6725 Q82.5672,1048.235 83.4312,1048.235 Q83.9453,1048.235 84.3937,1048.3553 Q84.8531,1048.4646 85.2359,1048.7162 Z " fill="#000000"/><text fill="#000000" font-family="sans-serif" font-size="8.4" font-style="italic" lengthAdjust="spacing" textLength="30.8" x="112.7" y="1048.5645">&#171;value&#187;</text><text fill="#000000" font-family="sans-serif" font-size="9.8" lengthAdjust="spacing" textLength="70" x="93.1" y="1061.2479">LendingNumber</text><line style="stroke:#181818;stroke-width:0.3499999999999999;" x1="73.5" x2="164.5" y1="1067.2074" y2="1067.2074"/><text fill="#000000" font-family="sans-serif" font-size="9.8" lengthAdjust="spacing" textLength="73.5" x="77" y="1080.5826">-registryYear :int</text><text fill="#000000" font-family="sans-serif" font-size="9.8" lengthAdjust="spacing" textLength="53.2" x="77" y="1093.6174">-number :int</text><line style="stroke:#181818;stroke-width:0.3499999999999999;" x1="73.5" x2="164.5" y1="1098.877" y2="1098.877"/><text fill="#000000" font-family="sans-serif" font-size="9.8" lengthAdjust="spacing" textLength="81.2" x="77" y="1112.2521">+toString() : String</text></g><!--class Isbn--><g id="elem_Isbn"><rect codeLine="123" fill="#F1F1F1" height="55.4422" id="Isbn" rx="1.75" ry="1.75" style="stroke:#181818;stroke-width:0.3499999999999999;" width="60.2" x="257.6" y="808.15"/><ellipse cx="272.51" cy="823.7537" fill="#ADD1B2" rx="7.7" ry="7.7" style="stroke:#181818;stroke-width:0.6999999999999998;"/><path d="M274.4459,820.8662 Q274.5553,820.7131 274.6866,820.6365 Q274.8178,820.56 274.9709,820.56 Q275.2334,820.56 275.3975,820.7459 Q275.5616,820.9209 275.5616,821.3475 L275.5616,822.3646 Q275.5616,822.7912 275.3975,822.9771 Q275.2334,823.1631 274.9709,823.1631 Q274.7303,823.1631 274.5881,823.0209 Q274.4459,822.8896 274.3694,822.5287 Q274.3366,822.2771 274.2053,822.1459 Q273.9756,821.8834 273.5491,821.7303 Q273.1225,821.5771 272.685,821.5771 Q272.1491,821.5771 271.7006,821.8068 Q271.2631,822.0365 270.9131,822.5615 Q270.5741,823.0865 270.5741,823.8084 L270.5741,824.574 Q270.5741,825.4381 271.1975,826.0178 Q271.8209,826.5865 272.9366,826.5865 Q273.5928,826.5865 274.0522,826.4115 Q274.3256,826.3021 274.6209,825.9959 Q274.8069,825.81 274.9053,825.7553 Q275.0147,825.7006 275.1569,825.7006 Q275.3866,825.7006 275.5616,825.8865 Q275.7475,826.0615 275.7475,826.3021 Q275.7475,826.5428 275.5069,826.8271 Q275.1569,827.2318 274.5991,827.4615 Q273.8444,827.7787 272.9366,827.7787 Q271.8756,827.7787 271.0334,827.3412 Q270.3444,826.9912 269.8631,826.2475 Q269.3819,825.4928 269.3819,824.5959 L269.3819,823.7865 Q269.3819,822.8568 269.8084,822.0584 Q270.2459,821.249 271.0116,820.8225 Q271.7772,820.385 272.6412,820.385 Q273.1553,820.385 273.6037,820.5053 Q274.0631,820.6146 274.4459,820.8662 Z " fill="#000000"/><text fill="#000000" font-family="sans-serif" font-size="8.4" font-style="italic" lengthAdjust="spacing" textLength="30.8" x="281.89" y="820.7145">&#171;value&#187;</text><text fill="#000000" font-family="sans-serif" font-size="9.8" lengthAdjust="spacing" textLength="18.2" x="288.19" y="833.3979">Isbn</text><line style="stroke:#181818;stroke-width:0.3499999999999999;" x1="258.3" x2="317.1" y1="839.3574" y2="839.3574"/><text fill="#000000" font-family="sans-serif" font-size="9.8" lengthAdjust="spacing" textLength="51.8" x="261.8" y="852.7326">-isbn: string</text><line style="stroke:#181818;stroke-width:0.3499999999999999;" x1="258.3" x2="317.1" y1="857.9922" y2="857.9922"/></g><!--class ReaderDetails--><g id="elem_ReaderDetails"><rect codeLine="127" fill="#F1F1F1" height="55.4422" id="ReaderDetails" rx="1.75" ry="1.75" style="stroke:#181818;stroke-width:0.3499999999999999;" width="136.5" x="212.45" y="115.5"/><ellipse cx="246.225" cy="131.1037" fill="#ADD1B2" rx="7.7" ry="7.7" style="stroke:#181818;stroke-width:0.6999999999999998;"/><path d="M248.1609,128.2162 Q248.2703,128.0631 248.4016,127.9865 Q248.5328,127.91 248.6859,127.91 Q248.9484,127.91 249.1125,128.0959 Q249.2766,128.2709 249.2766,128.6975 L249.2766,129.7146 Q249.2766,130.1412 249.1125,130.3271 Q248.9484,130.5131 248.6859,130.5131 Q248.4453,130.5131 248.3031,130.3709 Q248.1609,130.2396 248.0844,129.8787 Q248.0516,129.6271 247.9203,129.4959 Q247.6906,129.2334 247.2641,129.0803 Q246.8375,128.9271 246.4,128.9271 Q245.8641,128.9271 245.4156,129.1568 Q244.9781,129.3865 244.6281,129.9115 Q244.2891,130.4365 244.2891,131.1584 L244.2891,131.924 Q244.2891,132.7881 244.9125,133.3678 Q245.5359,133.9365 246.6516,133.9365 Q247.3078,133.9365 247.7672,133.7615 Q248.0406,133.6521 248.3359,133.3459 Q248.5219,133.16 248.6203,133.1053 Q248.7297,133.0506 248.8719,133.0506 Q249.1016,133.0506 249.2766,133.2365 Q249.4625,133.4115 249.4625,133.6521 Q249.4625,133.8928 249.2219,134.1771 Q248.8719,134.5818 248.3141,134.8115 Q247.5594,135.1287 246.6516,135.1287 Q245.5906,135.1287 244.7484,134.6912 Q244.0594,134.3412 243.5781,133.5975 Q243.0969,132.8428 243.0969,131.9459 L243.0969,131.1365 Q243.0969,130.2068 243.5234,129.4084 Q243.9609,128.599 244.7266,128.1725 Q245.4922,127.735 246.3562,127.735 Q246.8703,127.735 247.3187,127.8553 Q247.7781,127.9646 248.1609,128.2162 Z " fill="#000000"/><text fill="#000000" font-family="sans-serif" font-size="8.4" font-style="italic" lengthAdjust="spacing" textLength="30.1" x="277.025" y="128.0645">&#171;entity&#187;</text><text fill="#000000" font-family="sans-serif" font-size="9.8" lengthAdjust="spacing" textLength="63" x="260.575" y="140.7479">ReaderDetails</text><line style="stroke:#181818;stroke-width:0.3499999999999999;" x1="213.15" x2="348.25" y1="146.7074" y2="146.7074"/><line style="stroke:#181818;stroke-width:0.3499999999999999;" x1="213.15" x2="348.25" y1="152.3074" y2="152.3074"/><text fill="#000000" font-family="sans-serif" font-size="9.8" lengthAdjust="spacing" textLength="128.1" x="216.65" y="165.6826">+getReaderNumber() : String</text></g><!--class ReaderNumber--><g id="elem_ReaderNumber"><rect codeLine="131" fill="#F1F1F1" height="81.5117" id="ReaderNumber" rx="1.75" ry="1.75" style="stroke:#181818;stroke-width:0.3499999999999999;" width="89.6" x="73.5" y="234.5"/><ellipse cx="84" cy="250.1037" fill="#ADD1B2" rx="7.7" ry="7.7" style="stroke:#181818;stroke-width:0.6999999999999998;"/><path d="M85.9359,247.2162 Q86.0453,247.0631 86.1766,246.9865 Q86.3078,246.91 86.4609,246.91 Q86.7234,246.91 86.8875,247.0959 Q87.0516,247.2709 87.0516,247.6975 L87.0516,248.7146 Q87.0516,249.1412 86.8875,249.3271 Q86.7234,249.5131 86.4609,249.5131 Q86.2203,249.5131 86.0781,249.3709 Q85.9359,249.2396 85.8594,248.8787 Q85.8266,248.6271 85.6953,248.4959 Q85.4656,248.2334 85.0391,248.0803 Q84.6125,247.9271 84.175,247.9271 Q83.6391,247.9271 83.1906,248.1568 Q82.7531,248.3865 82.4031,248.9115 Q82.0641,249.4365 82.0641,250.1584 L82.0641,250.924 Q82.0641,251.7881 82.6875,252.3678 Q83.3109,252.9365 84.4266,252.9365 Q85.0828,252.9365 85.5422,252.7615 Q85.8156,252.6521 86.1109,252.3459 Q86.2969,252.16 86.3953,252.1053 Q86.5047,252.0506 86.6469,252.0506 Q86.8766,252.0506 87.0516,252.2365 Q87.2375,252.4115 87.2375,252.6521 Q87.2375,252.8928 86.9969,253.1771 Q86.6469,253.5818 86.0891,253.8115 Q85.3344,254.1287 84.4266,254.1287 Q83.3656,254.1287 82.5234,253.6912 Q81.8344,253.3412 81.3531,252.5975 Q80.8719,251.8428 80.8719,250.9459 L80.8719,250.1365 Q80.8719,249.2068 81.2984,248.4084 Q81.7359,247.599 82.5016,247.1725 Q83.2672,246.735 84.1312,246.735 Q84.6453,246.735 85.0937,246.8553 Q85.5531,246.9646 85.9359,247.2162 Z " fill="#000000"/><text fill="#000000" font-family="sans-serif" font-size="8.4" font-style="italic" lengthAdjust="spacing" textLength="30.8" x="112" y="247.0645">&#171;value&#187;</text><text fill="#000000" font-family="sans-serif" font-size="9.8" lengthAdjust="spacing" textLength="67.2" x="93.8" y="259.7479">ReaderNumber</text><line style="stroke:#181818;stroke-width:0.3499999999999999;" x1="74.2" x2="162.4" y1="265.7074" y2="265.7074"/><text fill="#000000" font-family="sans-serif" font-size="9.8" lengthAdjust="spacing" textLength="73.5" x="77.7" y="279.0826">-registryYear :int</text><text fill="#000000" font-family="sans-serif" font-size="9.8" lengthAdjust="spacing" textLength="53.2" x="77.7" y="292.1174">-number :int</text><line style="stroke:#181818;stroke-width:0.3499999999999999;" x1="74.2" x2="162.4" y1="297.377" y2="297.377"/><text fill="#000000" font-family="sans-serif" font-size="9.8" lengthAdjust="spacing" textLength="81.2" x="77.7" y="310.7521">+toString() : String</text></g><!--class Fine--><g id="elem_Fine"><rect codeLine="137" fill="#F1F1F1" height="107.5812" id="Fine" rx="1.75" ry="1.75" style="stroke:#181818;stroke-width:0.3499999999999999;" width="176.4" x="189.7" y="1022.7"/><ellipse cx="261.275" cy="1038.3037" fill="#ADD1B2" rx="7.7" ry="7.7" style="stroke:#181818;stroke-width:0.6999999999999998;"/><path d="M263.2109,1035.4162 Q263.3203,1035.2631 263.4516,1035.1865 Q263.5828,1035.11 263.7359,1035.11 Q263.9984,1035.11 264.1625,1035.2959 Q264.3266,1035.4709 264.3266,1035.8975 L264.3266,1036.9146 Q264.3266,1037.3412 264.1625,1037.5271 Q263.9984,1037.7131 263.7359,1037.7131 Q263.4953,1037.7131 263.3531,1037.5709 Q263.2109,1037.4396 263.1344,1037.0787 Q263.1016,1036.8271 262.9703,1036.6959 Q262.7406,1036.4334 262.3141,1036.2803 Q261.8875,1036.1271 261.45,1036.1271 Q260.9141,1036.1271 260.4656,1036.3568 Q260.0281,1036.5865 259.6781,1037.1115 Q259.3391,1037.6365 259.3391,1038.3584 L259.3391,1039.124 Q259.3391,1039.9881 259.9625,1040.5678 Q260.5859,1041.1365 261.7016,1041.1365 Q262.3578,1041.1365 262.8172,1040.9615 Q263.0906,1040.8521 263.3859,1040.5459 Q263.5719,1040.36 263.6703,1040.3053 Q263.7797,1040.2506 263.9219,1040.2506 Q264.1516,1040.2506 264.3266,1040.4365 Q264.5125,1040.6115 264.5125,1040.8521 Q264.5125,1041.0928 264.2719,1041.3771 Q263.9219,1041.7818 263.3641,1042.0115 Q262.6094,1042.3287 261.7016,1042.3287 Q260.6406,1042.3287 259.7984,1041.8912 Q259.1094,1041.5412 258.6281,1040.7975 Q258.1469,1040.0428 258.1469,1039.1459 L258.1469,1038.3365 Q258.1469,1037.4068 258.5734,1036.6084 Q259.0109,1035.799 259.7766,1035.3725 Q260.5422,1034.935 261.4062,1034.935 Q261.9203,1034.935 262.3687,1035.0553 Q262.8281,1035.1646 263.2109,1035.4162 Z " fill="#000000"/><text fill="#000000" font-family="sans-serif" font-size="8.4" font-style="italic" lengthAdjust="spacing" textLength="30.1" x="274.225" y="1035.2645">&#171;entity&#187;</text><text fill="#000000" font-family="sans-serif" font-size="9.8" lengthAdjust="spacing" textLength="19.6" x="279.475" y="1047.9479">Fine</text><line style="stroke:#181818;stroke-width:0.3499999999999999;" x1="190.4" x2="365.4" y1="1053.9074" y2="1053.9074"/><text fill="#000000" font-family="sans-serif" font-size="9.8" lengthAdjust="spacing" textLength="71.4" x="193.9" y="1067.2826">-centsValue : int</text><text fill="#000000" font-family="sans-serif" font-size="9.8" lengthAdjust="spacing" textLength="46.9" x="193.9" y="1080.3174">-paid :bool</text><line style="stroke:#181818;stroke-width:0.3499999999999999;" x1="190.4" x2="365.4" y1="1085.577" y2="1085.577"/><text fill="#000000" font-family="sans-serif" font-size="9.8" lengthAdjust="spacing" textLength="168" x="193.9" y="1098.9521">+updateValue(int daysOverdue) : void</text><text fill="#000000" font-family="sans-serif" font-size="9.8" lengthAdjust="spacing" textLength="70.7" x="193.9" y="1111.9869">+getValue() : int</text><text fill="#000000" font-family="sans-serif" font-size="9.8" lengthAdjust="spacing" textLength="66.5" x="193.9" y="1125.0217">+isPaid() : bool</text></g><!--class SetLendingReturnedRequest--><g id="elem_SetLendingReturnedRequest"><rect codeLine="145" fill="#F1F1F1" height="46.6348" id="SetLendingReturnedRequest" rx="1.75" ry="1.75" style="stroke:#181818;stroke-width:0.3499999999999999;" width="151.2" x="600.6" y="1053.15"/><ellipse cx="611.1" cy="1064.35" fill="#ADD1B2" rx="7.7" ry="7.7" style="stroke:#181818;stroke-width:0.6999999999999998;"/><path d="M613.0359,1061.4625 Q613.1453,1061.3094 613.2766,1061.2328 Q613.4078,1061.1562 613.5609,1061.1562 Q613.8234,1061.1562 613.9875,1061.3422 Q614.1516,1061.5172 614.1516,1061.9437 L614.1516,1062.9609 Q614.1516,1063.3875 613.9875,1063.5734 Q613.8234,1063.7594 613.5609,1063.7594 Q613.3203,1063.7594 613.1781,1063.6172 Q613.0359,1063.4859 612.9594,1063.125 Q612.9266,1062.8734 612.7953,1062.7422 Q612.5656,1062.4797 612.1391,1062.3266 Q611.7125,1062.1734 611.275,1062.1734 Q610.7391,1062.1734 610.2906,1062.4031 Q609.8531,1062.6328 609.5031,1063.1578 Q609.1641,1063.6828 609.1641,1064.4047 L609.1641,1065.1703 Q609.1641,1066.0344 609.7875,1066.6141 Q610.4109,1067.1828 611.5266,1067.1828 Q612.1828,1067.1828 612.6422,1067.0078 Q612.9156,1066.8984 613.2109,1066.5922 Q613.3969,1066.4062 613.4953,1066.3516 Q613.6047,1066.2969 613.7469,1066.2969 Q613.9766,1066.2969 614.1516,1066.4828 Q614.3375,1066.6578 614.3375,1066.8984 Q614.3375,1067.1391 614.0969,1067.4234 Q613.7469,1067.8281 613.1891,1068.0578 Q612.4344,1068.375 611.5266,1068.375 Q610.4656,1068.375 609.6234,1067.9375 Q608.9344,1067.5875 608.4531,1066.8437 Q607.9719,1066.0891 607.9719,1065.1922 L607.9719,1064.3828 Q607.9719,1063.4531 608.3984,1062.6547 Q608.8359,1061.8453 609.6016,1061.4187 Q610.3672,1060.9812 611.2312,1060.9812 Q611.7453,1060.9812 612.1937,1061.1016 Q612.6531,1061.2109 613.0359,1061.4625 Z " fill="#000000"/><text fill="#000000" font-family="sans-serif" font-size="9.8" lengthAdjust="spacing" textLength="128.8" x="620.9" y="1068.4078">SetLendingReturnedRequest</text><line style="stroke:#181818;stroke-width:0.3499999999999999;" x1="601.3" x2="751.1" y1="1075.55" y2="1075.55"/><text fill="#000000" font-family="sans-serif" font-size="9.8" lengthAdjust="spacing" textLength="91.7" x="604.8" y="1088.9252">-commentary : String</text><line style="stroke:#181818;stroke-width:0.3499999999999999;" x1="601.3" x2="751.1" y1="1094.1848" y2="1094.1848"/></g><!--class LendingMapper--><g id="elem_LendingMapper"><rect codeLine="149" fill="#F1F1F1" height="46.6348" id="LendingMapper" rx="1.75" ry="1.75" style="stroke:#181818;stroke-width:0.3499999999999999;" width="146.3" x="603.05" y="812.35"/><ellipse cx="638.575" cy="823.55" fill="#ADD1B2" rx="7.7" ry="7.7" style="stroke:#181818;stroke-width:0.6999999999999998;"/><path d="M640.5109,820.6625 Q640.6203,820.5094 640.7516,820.4328 Q640.8828,820.3562 641.0359,820.3562 Q641.2984,820.3562 641.4625,820.5422 Q641.6266,820.7172 641.6266,821.1437 L641.6266,822.1609 Q641.6266,822.5875 641.4625,822.7734 Q641.2984,822.9594 641.0359,822.9594 Q640.7953,822.9594 640.6531,822.8172 Q640.5109,822.6859 640.4344,822.325 Q640.4016,822.0734 640.2703,821.9422 Q640.0406,821.6797 639.6141,821.5266 Q639.1875,821.3734 638.75,821.3734 Q638.2141,821.3734 637.7656,821.6031 Q637.3281,821.8328 636.9781,822.3578 Q636.6391,822.8828 636.6391,823.6047 L636.6391,824.3703 Q636.6391,825.2344 637.2625,825.8141 Q637.8859,826.3828 639.0016,826.3828 Q639.6578,826.3828 640.1172,826.2078 Q640.3906,826.0984 640.6859,825.7922 Q640.8719,825.6062 640.9703,825.5516 Q641.0797,825.4969 641.2219,825.4969 Q641.4516,825.4969 641.6266,825.6828 Q641.8125,825.8578 641.8125,826.0984 Q641.8125,826.3391 641.5719,826.6234 Q641.2219,827.0281 640.6641,827.2578 Q639.9094,827.575 639.0016,827.575 Q637.9406,827.575 637.0984,827.1375 Q636.4094,826.7875 635.9281,826.0437 Q635.4469,825.2891 635.4469,824.3922 L635.4469,823.5828 Q635.4469,822.6531 635.8734,821.8547 Q636.3109,821.0453 637.0766,820.6187 Q637.8422,820.1812 638.7062,820.1812 Q639.2203,820.1812 639.6687,820.3016 Q640.1281,820.4109 640.5109,820.6625 Z " fill="#000000"/><text fill="#000000" font-family="sans-serif" font-size="9.8" lengthAdjust="spacing" textLength="69.3" x="652.925" y="827.6078">LendingMapper</text><line style="stroke:#181818;stroke-width:0.3499999999999999;" x1="603.75" x2="748.65" y1="834.75" y2="834.75"/><line style="stroke:#181818;stroke-width:0.3499999999999999;" x1="603.75" x2="748.65" y1="840.35" y2="840.35"/><text fill="#000000" font-family="sans-serif" font-size="9.8" lengthAdjust="spacing" textLength="137.9" x="607.25" y="853.7252">+create(lendingDTO) : Lending</text></g><!--reverse link MapperInterface to LendingViewMapper--><g id="link_MapperInterface_LendingViewMapper"><path d="M894.876,192.4631 C894.19,210.7261 893.83,220.248 893.151,238.497 " fill="none" id="MapperInterface-backto-LendingViewMapper" style="stroke:#181818;stroke-width:0.6999999999999998;"/><polygon fill="none" points="895.349,179.872,890.679,192.3055,899.0731,192.6208,895.349,179.872" style="stroke:#181818;stroke-width:0.6999999999999998;"/></g><!--reverse link LendingView to LendingLinksView--><g id="link_LendingView_LendingLinksView"><path codeLine="41" d="M907.9,490.847 C907.9,513.667 907.9,530.362 907.9,550.116 " fill="none" id="LendingView-backto-LendingLinksView" style="stroke:#181818;stroke-width:0.6999999999999998;"/><polygon fill="#181818" points="907.9,482.447,905.1,486.647,907.9,490.847,910.7,486.647,907.9,482.447" style="stroke:#181818;stroke-width:0.6999999999999998;"/></g><!--reverse link LendingService to LendingServiceImpl--><g id="link_LendingService_LendingServiceImpl"><path d="M474.8345,480.388 C493.6925,514.366 511.581,546.595 524.391,569.667 " fill="none" id="LendingService-backto-LendingServiceImpl" style="stroke:#181818;stroke-width:0.6999999999999998;stroke-dasharray:7.0,7.0;"/><polygon fill="none" points="468.72,469.371,471.1622,482.4261,478.5068,478.3498,468.72,469.371" style="stroke:#181818;stroke-width:0.6999999999999998;"/></g><!--reverse link Lending to Isbn--><g id="link_Lending_Isbn"><path codeLine="154" d="M241.731,835.8 C249.802,835.8 249.473,835.8 257.544,835.8 " fill="none" id="Lending-backto-Isbn" style="stroke:#181818;stroke-width:0.6999999999999998;"/><polygon fill="none" points="233.331,835.8,237.531,838.6,241.731,835.8,237.531,833,233.331,835.8" style="stroke:#181818;stroke-width:0.6999999999999998;"/></g><!--link ReaderNumber to Lending--><g id="link_ReaderNumber_Lending"><path codeLine="155" d="M118.349,315.798 C118.447,392.931 118.6537,557.249 118.8077,682.36 " fill="none" id="ReaderNumber-to-Lending" style="stroke:#181818;stroke-width:0.6999999999999998;"/><polygon fill="none" points="118.818,690.76,121.6128,686.5566,118.8077,682.36,116.0128,686.5634,118.818,690.76" style="stroke:#181818;stroke-width:0.6999999999999998;"/></g><!--reverse link Lending to LendingNumber--><g id="link_Lending_LendingNumber"><path codeLine="156" d="M119,989.338 C119,1009.386 119,1020.061 119,1035.79 " fill="none" id="Lending-backto-LendingNumber" style="stroke:#181818;stroke-width:0.6999999999999998;"/><polygon fill="#181818" points="119,980.938,116.2,985.138,119,989.338,121.8,985.138,119,980.938" style="stroke:#181818;stroke-width:0.6999999999999998;"/></g><!--link LendingNumber to Fine--><g id="link_LendingNumber_Fine"><path codeLine="157" d="M165.242,1076.6 C173.383,1076.6 173.124,1076.6 181.265,1076.6 " fill="none" id="LendingNumber-to-Fine" style="stroke:#181818;stroke-width:0.6999999999999998;"/><polygon fill="none" points="189.665,1076.6,185.465,1073.8,181.265,1076.6,185.465,1079.4,189.665,1076.6" style="stroke:#181818;stroke-width:0.6999999999999998;"/></g><!--reverse link ReaderDetails to ReaderNumber--><g id="link_ReaderDetails_ReaderNumber"><path codeLine="158" d="M240.5044,176.1613 C216.2564,195.6563 189.819,216.909 163.31,238.217 " fill="none" id="ReaderDetails-backto-ReaderNumber" style="stroke:#181818;stroke-width:0.6999999999999998;"/><polygon fill="#181818" points="247.051,170.898,242.0233,171.3475,240.5044,176.1613,245.5322,175.7118,247.051,170.898" style="stroke:#181818;stroke-width:0.6999999999999998;"/></g><!--link LendingController to LendingViewMapper--><g id="link_LendingController_LendingViewMapper"><path codeLine="160" d="M684.663,192.556 C723.359,207.844 761.4318,222.8908 797.4188,237.1078 " fill="none" id="LendingController-to-LendingViewMapper" style="stroke:#181818;stroke-width:0.6999999999999998;stroke-dasharray:7.0,7.0;"/><polygon fill="#181818" points="801.325,238.651,796.4945,233.7321,798.0698,237.365,794.4369,238.9404,801.325,238.651" style="stroke:#181818;stroke-width:0.6999999999999998;"/></g><!--link LendingController to LendingView--><g id="link_LendingController_LendingView"><path codeLine="161" d="M591.325,192.514 C622.202,242.571 666.26,313.558 669.2,315.7 C729.89,360.024 765.982,323.687 833,357.7 C836.976,359.716 837.376,359.7516 841.275,362.1876 " fill="none" id="LendingController-to-LendingView" style="stroke:#181818;stroke-width:0.6999999999999998;stroke-dasharray:7.0,7.0;"/><polygon fill="#181818" points="844.837,364.413,840.9777,358.7002,841.8687,362.5585,838.0105,363.4495,844.837,364.413" style="stroke:#181818;stroke-width:0.6999999999999998;"/></g><!--link LendingController to LendingsAverageDurationView--><g id="link_LendingController_LendingsAverageDurationView"><path codeLine="162" d="M569.464,192.654 C577.192,228.949 591.521,278.432 616.7,315.7 C639.38,349.265 672.4821,375.5117 700.1601,394.0967 " fill="none" id="LendingController-to-LendingsAverageDurationView" style="stroke:#181818;stroke-width:0.6999999999999998;stroke-dasharray:7.0,7.0;"/><polygon fill="#181818" points="703.647,396.438,699.9776,390.6014,700.7413,394.4869,696.8558,395.2506,703.647,396.438" style="stroke:#181818;stroke-width:0.6999999999999998;"/></g><!--link LendingController to LendingService--><g id="link_LendingController_LendingService"><path codeLine="163" d="M540.141,192.78 C518.336,242.942 486.3048,316.6569 464.5418,366.7419 " fill="none" id="LendingController-to-LendingService" style="stroke:#181818;stroke-width:0.6999999999999998;stroke-dasharray:7.0,7.0;"/><polygon fill="#181818" points="462.868,370.594,467.9467,365.9318,464.2628,367.3839,462.8107,363.7,462.868,370.594" style="stroke:#181818;stroke-width:0.6999999999999998;"/></g><!--reverse link UserService to LendingController--><g id="link_UserService_LendingController"><path codeLine="164" d="M556.6081,56.1895 C557.2801,68.2295 557.893,79.268 558.698,93.779 " fill="none" id="UserService-backto-LendingController" style="stroke:#181818;stroke-width:0.6999999999999998;stroke-dasharray:7.0,7.0;"/><polygon fill="#181818" points="556.374,51.996,553.9294,58.4422,556.569,55.4906,559.5207,58.1302,556.374,51.996" style="stroke:#181818;stroke-width:0.6999999999999998;"/></g><!--reverse link ReaderService to LendingController--><g id="link_ReaderService_LendingController"><path codeLine="165" d="M350.5447,53.4956 C379.1327,65.5566 411.516,79.219 446.054,93.793 " fill="none" id="ReaderService-backto-LendingController" style="stroke:#181818;stroke-width:0.6999999999999998;stroke-dasharray:7.0,7.0;"/><polygon fill="#181818" points="346.675,51.863,351.3912,56.8917,349.8998,53.2235,353.568,51.7321,346.675,51.863" style="stroke:#181818;stroke-width:0.6999999999999998;"/></g><!--reverse link ConcurrencyService to LendingController--><g id="link_ConcurrencyService_LendingController"><path codeLine="166" d="M754.9757,53.6146 C728.6907,65.6756 699.181,79.219 667.429,93.793 " fill="none" id="ConcurrencyService-backto-LendingController" style="stroke:#181818;stroke-width:0.6999999999999998;stroke-dasharray:7.0,7.0;"/><polygon fill="#181818" points="758.793,51.863,751.8993,51.9455,755.6119,53.3227,754.2348,57.0353,758.793,51.863" style="stroke:#181818;stroke-width:0.6999999999999998;"/></g><!--link LendingServiceImpl to Lending--><g id="link_LendingServiceImpl_Lending"><path codeLine="168" d="M520.275,603.645 C507.878,617.904 487.984,637.973 466.2,648.9 C376.747,693.756 331.835,641.165 245,690.9 C241.031,693.175 240.6129,693.2678 236.7769,695.8578 " fill="none" id="LendingServiceImpl-to-Lending" style="stroke:#181818;stroke-width:0.6999999999999998;stroke-dasharray:7.0,7.0;"/><polygon fill="#181818" points="233.296,698.208,240.0841,697.0032,236.1967,696.2495,236.9505,692.3621,233.296,698.208" style="stroke:#181818;stroke-width:0.6999999999999998;"/></g><!--link LendingServiceImpl to FineRepository--><g id="link_LendingServiceImpl_FineRepository"><path codeLine="169" d="M533.4,603.561 C533.4,646.464 533.4,758.646 533.4,808.136 " fill="none" id="LendingServiceImpl-to-FineRepository" style="stroke:#181818;stroke-width:0.6999999999999998;stroke-dasharray:7.0,7.0;"/><polygon fill="#181818" points="533.4,812.336,536.2,806.036,533.4,808.836,530.6,806.036,533.4,812.336" style="stroke:#181818;stroke-width:0.6999999999999998;"/></g><!--link ReaderService to ReaderDetails--><g id="link_ReaderService_ReaderDetails"><path codeLine="171" d="M290.192,51.996 C288.267,70.315 286.0107,91.842 283.9807,111.169 " fill="none" id="ReaderService-to-ReaderDetails" style="stroke:#181818;stroke-width:0.6999999999999998;stroke-dasharray:7.0,7.0;"/><polygon fill="#181818" points="283.542,115.346,286.9848,109.373,283.9076,111.8651,281.4154,108.788,283.542,115.346" style="stroke:#181818;stroke-width:0.6999999999999998;"/></g><!--reverse link ReaderDetails to LendingController--><g id="link_ReaderDetails_LendingController"><path codeLine="172" d="M353.157,143.15 C361.389,143.15 365.414,143.15 373.646,143.15 " fill="none" id="ReaderDetails-backto-LendingController" style="stroke:#181818;stroke-width:0.6999999999999998;stroke-dasharray:7.0,7.0;"/><polygon fill="#181818" points="348.957,143.15,355.257,145.95,352.457,143.15,355.257,140.35,348.957,143.15" style="stroke:#181818;stroke-width:0.6999999999999998;"/></g><!--reverse link LendingRepository to LendingServiceImpl--><g id="link_LendingRepository_LendingServiceImpl"><path codeLine="174" d="M458.689,586.6 C466.809,586.6 470.729,586.6 478.842,586.6 " fill="none" id="LendingRepository-backto-LendingServiceImpl" style="stroke:#181818;stroke-width:0.6999999999999998;stroke-dasharray:7.0,7.0;"/><polygon fill="#181818" points="454.489,586.6,460.789,589.4,457.989,586.6,460.789,583.8,454.489,586.6" style="stroke:#181818;stroke-width:0.6999999999999998;"/></g><!--link LendingServiceImpl to ReaderRepository--><g id="link_LendingServiceImpl_ReaderRepository"><path codeLine="175" d="M524.139,603.512 C512.61,623.805 492.436,659.701 476,690.9 C453.628,733.369 430.7146,779.8808 416.8056,808.4478 " fill="none" id="LendingServiceImpl-to-ReaderRepository" style="stroke:#181818;stroke-width:0.6999999999999998;stroke-dasharray:7.0,7.0;"/><polygon fill="#181818" points="414.967,812.224,420.2423,807.7854,416.4992,809.0772,415.2074,805.334,414.967,812.224" style="stroke:#181818;stroke-width:0.6999999999999998;"/></g><!--link LendingServiceImpl to BookRepository--><g id="link_LendingServiceImpl_BookRepository"><path codeLine="176" d="M587.727,586.6 C595.861,586.6 599.795,586.6 607.922,586.6 " fill="none" id="LendingServiceImpl-to-BookRepository" style="stroke:#181818;stroke-width:0.6999999999999998;stroke-dasharray:7.0,7.0;"/><polygon fill="#181818" points="612.122,586.6,605.822,583.8,608.622,586.6,605.822,589.4,612.122,586.6" style="stroke:#181818;stroke-width:0.6999999999999998;"/></g><!--link LendingServiceImpl to LendingMapper--><g id="link_LendingServiceImpl_LendingMapper"><path codeLine="178" d="M542.773,603.561 C567.497,646.464 632.467,759.2069 660.985,808.6969 " fill="none" id="LendingServiceImpl-to-LendingMapper" style="stroke:#181818;stroke-width:0.6999999999999998;stroke-dasharray:7.0,7.0;"/><polygon fill="#181818" points="663.082,812.336,662.3626,805.4794,661.3345,809.3035,657.5105,808.2754,663.082,812.336" style="stroke:#181818;stroke-width:0.6999999999999998;"/></g><!--link LendingMapper to SetLendingReturnedRequest--><g id="link_LendingMapper_SetLendingReturnedRequest"><path codeLine="179" d="M676.2,859.453 C676.2,905.212 676.2,1003.114 676.2,1048.817 " fill="none" id="LendingMapper-to-SetLendingReturnedRequest" style="stroke:#181818;stroke-width:0.6999999999999998;stroke-dasharray:7.0,7.0;"/><polygon fill="#181818" points="676.2,1053.017,679,1046.717,676.2,1049.517,673.4,1046.717,676.2,1053.017" style="stroke:#181818;stroke-width:0.6999999999999998;"/></g><!--link LendingViewMapper to LendingView--><g id="link_LendingViewMapper_LendingView"><path codeLine="181" d="M895.818,311.64 C897.386,325.584 898.7587,337.7972 900.5227,353.5192 " fill="none" id="LendingViewMapper-to-LendingView" style="stroke:#181818;stroke-width:0.6999999999999998;stroke-dasharray:7.0,7.0;"/><polygon fill="#181818" points="900.991,357.693,903.0711,351.1201,900.6008,354.2148,897.506,351.7445,900.991,357.693" style="stroke:#181818;stroke-width:0.6999999999999998;"/></g><!--link LendingViewMapper to LendingsAverageDurationView--><g id="link_LendingViewMapper_LendingsAverageDurationView"><path codeLine="182" d="M854.21,311.64 C826.35,338.205 792.2472,370.7192 768.3142,393.5462 " fill="none" id="LendingViewMapper-to-LendingsAverageDurationView" style="stroke:#181818;stroke-width:0.6999999999999998;stroke-dasharray:7.0,7.0;"/><polygon fill="#181818" points="765.275,396.445,771.7664,394.123,767.8077,394.0293,767.9013,390.0706,765.275,396.445" style="stroke:#181818;stroke-width:0.6999999999999998;"/></g><!--SRC=[nLTBR-Cs4BxhL-XMDus2dWD3G18ZM0ExJU7i1kYHbiOE4PfKISfRDzZ_Nf8Y9RvaTu45DeVOvdmpciStCzGlhxY5ii6y8L28DqmxnD6XR0WIuavAZhUzX7N3w3F-5yhVYy98oez0Mqpt3unApWW1NhuNfVhxhMmu80cBuSF2Dl1t3qB-MjuwnHSCNwt23jFs_cJF_-WFM-0BfTm27txajGJ8qRZiEOLsGNmJrnd4MJVs8E-E-rNFaSICBZoGk3i2Htjmib3fIGdRtaKg5fr26cKivD9xJ5ryAmfC9V0TQg3yXBeE-7hyxT9tG9rL-eZfcuj96rGQosTL4Bg_BeVFUjAvP-pDA6pLbuleZKclmG-PNe54c8WvHUKvsWh9KIFBeFuwi26I4lwHwap4WRcu9FDK_B3IIcIXEftvj4PAkMev8x7iKf6_HNJNXxPILHdGJHaQacM5kWoViIGG2uH4NAvKQ-X7imOH_TrPn0Sy9slHINoX4fE1p0gXKxm7xiaj5HEPwZ1uGQI7DNq0AeK7Y2FKd111c0B8xWoVXb3F0WQApLFBJ-vLLIMkH2xcAXKN9SPCLGYQq5fy1dx4NW_-ln5sPdm5rD0gJvts0X77t7gQOjyzlgxB5WJcqBu05o69_L4Mn6_6cST3Vt9b9rQTCCCcQNteI8dLFpWOAeNIzp2_NmJmEBdQkLw-AcNSgFIs6hD0qucDI1-7neQX5PiRqg_H51rWqTilGT8t_epp8bFRg-av1zgSCbxQz3voTbZlFY7Pl7umTXRO_sKInmPYfSpQGCS4beoVVWAvYAhdKo_Ln377zwUDjrNJ5HjKtz8J7I4pgwSSFR2UIfsX1vD7-HSWRhYcCd6UZ2lMRmby1naJ9cHoEwHhtOR1XJJIc_ASAXPR6gayglcPKJ7PqRDL-winIS-KowLcjJpLjHjGtPiZJBeFPbQ1TypDA4ZFZmDNrI6PJ3Vie7iKAPUZ9VI3buakzhWjne6ctJEbFZBSJk9L-EmPXAD383L4qT8L47HI8pDXMixus1usZZg4-qyw0tsCmhw43tis6R_-u0_7-RLNjpJwO9GPiy59ma1xErakZzhtkXuN9OUzwZ1-qXrRtheaLYMrrvafhP8Ddlj1Z8zPgswPh3lZkeTk5RL3RE1fqXfUU6dI8XjnL3yuA5thJEiskkw60nxjL4SZt9QtwXP4hEs-QnNr3N2XO7utfGKTO26HiVXJsJI7nkpesFFSdU3zJCl7b1WkwD4wiaD-zVd9d_DwxBfHnYfJREytWPsiWegCmgkgPLzf5RAm23bPSRn_bHKRHcT8Zgl8Rf6-RzxSrEbRo6NSUKJsBI2dCQdOcqCErNSAvjs1SXYTH8KABZUpjj8BovWP_thcUJSd3bTQKOINgvlH8pTNBddkSDddMMHo9vfpBjxlMPnXZmA7-pplW2RZv4185VlwwZ2pBHQyfpYbFBVoY2ot_WC0]--></g></svg>