<?xml version="1.0" encoding="us-ascii" standalone="no"?><svg xmlns="http://www.w3.org/2000/svg" xmlns:xlink="http://www.w3.org/1999/xlink" contentStyleType="text/css" height="481px" preserveAspectRatio="none" style="width:918px;height:481px;background:#FFFFFF;" version="1.1" viewBox="0 0 918 481" width="918px" zoomAndPan="magnify"><defs/><g><text fill="#000000" font-family="sans-serif" font-size="14" font-weight="bold" lengthAdjust="spacing" textLength="256" x="330" y="29.9659">Register a new reader as anonymous</text><rect fill="#FFFFFF" height="254.6481" style="stroke:#181818;stroke-width:1.0;" width="10" x="33.5" y="134.1358"/><rect fill="#FFFFFF" height="221.9421" style="stroke:#181818;stroke-width:1.0;" width="10" x="204.5" y="157.8419"/><rect fill="#FFFFFF" height="158.5301" style="stroke:#181818;stroke-width:1.0;" width="10" x="438.5" y="189.5479"/><rect fill="#FFFFFF" height="95.118" style="stroke:#181818;stroke-width:1.0;" width="10" x="608" y="221.2539"/><rect fill="#FFFFFF" height="31.706" style="stroke:#181818;stroke-width:1.0;" width="10" x="803" y="252.9599"/><line style="stroke:#181818;stroke-width:0.5;stroke-dasharray:5.0,5.0;" x1="38" x2="38" y1="124.1358" y2="397.784"/><line style="stroke:#181818;stroke-width:0.5;stroke-dasharray:5.0,5.0;" x1="209.5" x2="209.5" y1="124.1358" y2="397.784"/><line style="stroke:#181818;stroke-width:0.5;stroke-dasharray:5.0,5.0;" x1="443" x2="443" y1="124.1358" y2="397.784"/><line style="stroke:#181818;stroke-width:0.5;stroke-dasharray:5.0,5.0;" x1="613" x2="613" y1="124.1358" y2="397.784"/><line style="stroke:#181818;stroke-width:0.5;stroke-dasharray:5.0,5.0;" x1="808" x2="808" y1="124.1358" y2="397.784"/><text fill="#000000" font-family="sans-serif" font-size="14" lengthAdjust="spacing" textLength="61" x="5" y="120.0339">Librarian</text><ellipse cx="38.5" cy="53.5679" fill="#E2E2F0" rx="8" ry="8" style="stroke:#181818;stroke-width:0.5;"/><path d="M38.5,61.5679 L38.5,88.5679 M25.5,69.5679 L51.5,69.5679 M38.5,88.5679 L25.5,103.5679 M38.5,88.5679 L51.5,103.5679 " fill="none" style="stroke:#181818;stroke-width:0.5;"/><text fill="#000000" font-family="sans-serif" font-size="14" lengthAdjust="spacing" textLength="61" x="5" y="411.7499">Librarian</text><ellipse cx="38.5" cy="424.3519" fill="#E2E2F0" rx="8" ry="8" style="stroke:#181818;stroke-width:0.5;"/><path d="M38.5,432.3519 L38.5,459.3519 M25.5,440.3519 L51.5,440.3519 M38.5,459.3519 L25.5,474.3519 M38.5,459.3519 L51.5,474.3519 " fill="none" style="stroke:#181818;stroke-width:0.5;"/><rect fill="#E2E2F0" height="33.0679" rx="2.5" ry="2.5" style="stroke:#181818;stroke-width:0.5;" width="66" x="176.5" y="90.0679"/><text fill="#000000" font-family="sans-serif" font-size="14" lengthAdjust="spacing" textLength="52" x="183.5" y="112.0339">:System</text><rect fill="#E2E2F0" height="33.0679" rx="2.5" ry="2.5" style="stroke:#181818;stroke-width:0.5;" width="66" x="176.5" y="396.784"/><text fill="#000000" font-family="sans-serif" font-size="14" lengthAdjust="spacing" textLength="52" x="183.5" y="418.7499">:System</text><rect fill="#E2E2F0" height="33.0679" rx="2.5" ry="2.5" style="stroke:#181818;stroke-width:0.5;" width="157" x="365" y="90.0679"/><text fill="#000000" font-family="sans-serif" font-size="14" lengthAdjust="spacing" textLength="143" x="372" y="112.0339">Ctrl:ReaderController</text><rect fill="#E2E2F0" height="33.0679" rx="2.5" ry="2.5" style="stroke:#181818;stroke-width:0.5;" width="157" x="365" y="396.784"/><text fill="#000000" font-family="sans-serif" font-size="14" lengthAdjust="spacing" textLength="143" x="372" y="418.7499">Ctrl:ReaderController</text><rect fill="#E2E2F0" height="33.0679" rx="2.5" ry="2.5" style="stroke:#181818;stroke-width:0.5;" width="162" x="532" y="90.0679"/><text fill="#000000" font-family="sans-serif" font-size="14" lengthAdjust="spacing" textLength="148" x="539" y="112.0339">Service:ReaderService</text><rect fill="#E2E2F0" height="33.0679" rx="2.5" ry="2.5" style="stroke:#181818;stroke-width:0.5;" width="162" x="532" y="396.784"/><text fill="#000000" font-family="sans-serif" font-size="14" lengthAdjust="spacing" textLength="148" x="539" y="418.7499">Service:ReaderService</text><rect fill="#E2E2F0" height="33.0679" rx="2.5" ry="2.5" style="stroke:#181818;stroke-width:0.5;" width="208" x="704" y="90.0679"/><text fill="#000000" font-family="sans-serif" font-size="14" lengthAdjust="spacing" textLength="194" x="711" y="112.0339">Repository:ReaderRepository</text><rect fill="#E2E2F0" height="33.0679" rx="2.5" ry="2.5" style="stroke:#181818;stroke-width:0.5;" width="208" x="704" y="396.784"/><text fill="#000000" font-family="sans-serif" font-size="14" lengthAdjust="spacing" textLength="194" x="711" y="418.7499">Repository:ReaderRepository</text><rect fill="#FFFFFF" height="254.6481" style="stroke:#181818;stroke-width:1.0;" width="10" x="33.5" y="134.1358"/><rect fill="#FFFFFF" height="221.9421" style="stroke:#181818;stroke-width:1.0;" width="10" x="204.5" y="157.8419"/><rect fill="#FFFFFF" height="158.5301" style="stroke:#181818;stroke-width:1.0;" width="10" x="438.5" y="189.5479"/><rect fill="#FFFFFF" height="95.118" style="stroke:#181818;stroke-width:1.0;" width="10" x="608" y="221.2539"/><rect fill="#FFFFFF" height="31.706" style="stroke:#181818;stroke-width:1.0;" width="10" x="803" y="252.9599"/><polygon fill="#181818" points="192.5,153.8419,202.5,157.8419,192.5,161.8419,196.5,157.8419" style="stroke:#181818;stroke-width:1.0;"/><line style="stroke:#181818;stroke-width:1.0;" x1="43.5" x2="198.5" y1="157.8419" y2="157.8419"/><text fill="#000000" font-family="sans-serif" font-size="13" font-weight="bold" lengthAdjust="spacing" textLength="7" x="50.5" y="152.0328">1</text><text fill="#000000" font-family="sans-serif" font-size="13" lengthAdjust="spacing" textLength="131" x="61.5" y="152.0328">requests top5 readers</text><polygon fill="#181818" points="426.5,185.5479,436.5,189.5479,426.5,193.5479,430.5,189.5479" style="stroke:#181818;stroke-width:1.0;"/><line style="stroke:#181818;stroke-width:1.0;" x1="214.5" x2="432.5" y1="189.5479" y2="189.5479"/><text fill="#000000" font-family="sans-serif" font-size="13" font-weight="bold" lengthAdjust="spacing" textLength="7" x="221.5" y="183.7389">2</text><text fill="#000000" font-family="sans-serif" font-size="13" lengthAdjust="spacing" textLength="194" x="232.5" y="183.7389">getTop(RegisterReaderRequest);</text><polygon fill="#181818" points="596,217.2539,606,221.2539,596,225.2539,600,221.2539" style="stroke:#181818;stroke-width:1.0;"/><line style="stroke:#181818;stroke-width:1.0;" x1="448.5" x2="602" y1="221.2539" y2="221.2539"/><text fill="#000000" font-family="sans-serif" font-size="13" font-weight="bold" lengthAdjust="spacing" textLength="7" x="455.5" y="215.4449">3</text><text fill="#000000" font-family="sans-serif" font-size="13" lengthAdjust="spacing" textLength="109" x="466.5" y="215.4449">findTopReaders(5)</text><polygon fill="#181818" points="791,248.9599,801,252.9599,791,256.9599,795,252.9599" style="stroke:#181818;stroke-width:1.0;"/><line style="stroke:#181818;stroke-width:1.0;" x1="618" x2="797" y1="252.9599" y2="252.9599"/><text fill="#000000" font-family="sans-serif" font-size="13" font-weight="bold" lengthAdjust="spacing" textLength="7" x="625" y="247.1509">4</text><text fill="#000000" font-family="sans-serif" font-size="13" lengthAdjust="spacing" textLength="102" x="636" y="247.1509">findTopReaders()</text><polygon fill="#181818" points="629,280.6659,619,284.6659,629,288.6659,625,284.6659" style="stroke:#181818;stroke-width:1.0;"/><line style="stroke:#181818;stroke-width:1.0;stroke-dasharray:2.0,2.0;" x1="623" x2="807" y1="284.6659" y2="284.6659"/><text fill="#000000" font-family="sans-serif" font-size="13" font-weight="bold" lengthAdjust="spacing" textLength="7" x="635" y="278.8569">5</text><text fill="#000000" font-family="sans-serif" font-size="13" lengthAdjust="spacing" textLength="54" x="646" y="278.8569">Top5 List</text><polygon fill="#181818" points="459.5,312.3719,449.5,316.3719,459.5,320.3719,455.5,316.3719" style="stroke:#181818;stroke-width:1.0;"/><line style="stroke:#181818;stroke-width:1.0;stroke-dasharray:2.0,2.0;" x1="453.5" x2="612" y1="316.3719" y2="316.3719"/><text fill="#000000" font-family="sans-serif" font-size="13" font-weight="bold" lengthAdjust="spacing" textLength="7" x="465.5" y="310.5629">6</text><text fill="#000000" font-family="sans-serif" font-size="13" lengthAdjust="spacing" textLength="54" x="476.5" y="310.5629">Top5 List</text><polygon fill="#181818" points="225.5,344.0779,215.5,348.0779,225.5,352.0779,221.5,348.0779" style="stroke:#181818;stroke-width:1.0;"/><line style="stroke:#181818;stroke-width:1.0;stroke-dasharray:2.0,2.0;" x1="219.5" x2="442.5" y1="348.0779" y2="348.0779"/><text fill="#000000" font-family="sans-serif" font-size="13" font-weight="bold" lengthAdjust="spacing" textLength="7" x="231.5" y="342.2689">7</text><text fill="#000000" font-family="sans-serif" font-size="13" lengthAdjust="spacing" textLength="54" x="242.5" y="342.2689">Top5 List</text><polygon fill="#181818" points="54.5,375.784,44.5,379.784,54.5,383.784,50.5,379.784" style="stroke:#181818;stroke-width:1.0;"/><line style="stroke:#181818;stroke-width:1.0;stroke-dasharray:2.0,2.0;" x1="48.5" x2="208.5" y1="379.784" y2="379.784"/><text fill="#000000" font-family="sans-serif" font-size="13" font-weight="bold" lengthAdjust="spacing" textLength="7" x="60.5" y="373.975">8</text><text fill="#000000" font-family="sans-serif" font-size="13" lengthAdjust="spacing" textLength="54" x="71.5" y="373.975">Top5 List</text><!--SRC=[PL2xSiCW4EpvYXiriGj7bHjb9erRLx9_04iNXHbUWPCp-li0UY2SZhlTvNRtxPl8-gQkhUIQHYNVEwDgZpyZwWvFlU23uuhnaGplI3mv8HYTPZsg1ph6I914Q74Gdj011us_u93tSV30jT6JCgDdBFnW75HNyN3S2QwhY6yJizoHw8GDHg1gRbFuJYNA_2pn2pdPjEdAnMXoHafqYHsHadj3znGTBlHbIjnYKufQjCQBO7XQT7cna-PbYZSNb2EnxGcdpoL74ye9zNhoGCQUbwf2FJCSYIaS34XtOmzhi-l1f3r-C1PPaLs4QE1Bw3xevgq_d8-i86J5Bk6hQDLa2fp-Nxf7-zTWxlN25Y4pPhEx4ZAqvWxWLjSU_mC0]--></g></svg>