<?xml version="1.0" encoding="us-ascii" standalone="no"?><svg xmlns="http://www.w3.org/2000/svg" xmlns:xlink="http://www.w3.org/1999/xlink" contentStyleType="text/css" height="640px" preserveAspectRatio="none" style="width:1001px;height:640px;background:#FFFFFF;" version="1.1" viewBox="0 0 1001 640" width="1001px" zoomAndPan="magnify"><defs/><g><!--class AuthorsController--><g id="elem_AuthorsController"><rect codeLine="3" fill="#F1F1F1" height="80.5938" id="AuthorsController" rx="2.5" ry="2.5" style="stroke:#181818;stroke-width:0.5;" width="525" x="7" y="7"/><ellipse cx="202.25" cy="23" fill="#ADD1B2" rx="11" ry="11" style="stroke:#181818;stroke-width:1.0;"/><path d="M201.7188,29.9219 Q199.9688,29.9219 198.8281,29.1875 Q197.7031,28.4375 197.1406,27.0938 Q196.5938,25.7344 196.5938,23.9375 Q196.5938,21.9063 197.25,20.4531 Q197.9063,19 199.1875,18.2188 Q200.4688,17.4375 202.3438,17.4375 Q203.2344,17.4375 203.9063,17.625 Q204.5781,17.7969 205.2656,18.1406 L204.4531,20.1563 Q203.8281,19.8438 203.2813,19.7188 Q202.75,19.5938 202.2656,19.5938 Q201.0938,19.5938 200.3906,20.125 Q199.6875,20.6563 199.3906,21.6094 Q199.0938,22.5625 199.0938,23.8281 Q199.0938,25.8438 199.8125,26.8125 Q200.5313,27.7656 202.125,27.7656 Q202.7188,27.7656 203.3438,27.6094 Q203.9688,27.4531 204.7969,27.0781 L204.7969,29.2969 Q204.0625,29.6094 203.2656,29.7656 Q202.4844,29.9219 201.7188,29.9219 Z " fill="#000000"/><text fill="#000000" font-family="sans-serif" font-size="14" lengthAdjust="spacing" textLength="126" x="222.75" y="27.8467">AuthorsController</text><line style="stroke:#181818;stroke-width:0.5;" x1="8" x2="531" y1="39" y2="39"/><line style="stroke:#181818;stroke-width:0.5;" x1="8" x2="531" y1="47" y2="47"/><text fill="#000000" font-family="sans-serif" font-size="14" lengthAdjust="spacing" textLength="513" x="13" y="63.9951">+create(CreateAuthorRequest resource): ResponseEntity&lt;AuthorView&gt;</text><text fill="#000000" font-family="sans-serif" font-size="14" lengthAdjust="spacing" textLength="192" x="13" y="80.292">-saveCreatedAuthor(): void</text></g><!--class AuthorsService--><g id="elem_AuthorsService"><rect codeLine="8" fill="#F1F1F1" height="64.2969" id="AuthorsService" rx="2.5" ry="2.5" style="stroke:#181818;stroke-width:0.5;" width="424" x="567.5" y="15.5"/><ellipse cx="721.25" cy="31.5" fill="#ADD1B2" rx="11" ry="11" style="stroke:#181818;stroke-width:1.0;"/><path d="M720.7188,38.4219 Q718.9688,38.4219 717.8281,37.6875 Q716.7031,36.9375 716.1406,35.5938 Q715.5938,34.2344 715.5938,32.4375 Q715.5938,30.4063 716.25,28.9531 Q716.9063,27.5 718.1875,26.7188 Q719.4688,25.9375 721.3438,25.9375 Q722.2344,25.9375 722.9063,26.125 Q723.5781,26.2969 724.2656,26.6406 L723.4531,28.6563 Q722.8281,28.3438 722.2813,28.2188 Q721.75,28.0938 721.2656,28.0938 Q720.0938,28.0938 719.3906,28.625 Q718.6875,29.1563 718.3906,30.1094 Q718.0938,31.0625 718.0938,32.3281 Q718.0938,34.3438 718.8125,35.3125 Q719.5313,36.2656 721.125,36.2656 Q721.7188,36.2656 722.3438,36.1094 Q722.9688,35.9531 723.7969,35.5781 L723.7969,37.7969 Q723.0625,38.1094 722.2656,38.2656 Q721.4844,38.4219 720.7188,38.4219 Z " fill="#000000"/><text fill="#000000" font-family="sans-serif" font-size="14" lengthAdjust="spacing" textLength="108" x="741.75" y="36.3467">AuthorsService</text><line style="stroke:#181818;stroke-width:0.5;" x1="568.5" x2="990.5" y1="47.5" y2="47.5"/><line style="stroke:#181818;stroke-width:0.5;" x1="568.5" x2="990.5" y1="55.5" y2="55.5"/><text fill="#000000" font-family="sans-serif" font-size="14" lengthAdjust="spacing" textLength="412" x="573.5" y="72.4951">+create(name: String, bio: String, photo?: Byte[]): Authors</text></g><!--class AuthorsServiceImpl--><g id="elem_AuthorsServiceImpl"><rect codeLine="12" fill="#F1F1F1" height="48" id="AuthorsServiceImpl" rx="2.5" ry="2.5" style="stroke:#181818;stroke-width:0.5;" width="171" x="694" y="148"/><ellipse cx="709" cy="164" fill="#ADD1B2" rx="11" ry="11" style="stroke:#181818;stroke-width:1.0;"/><path d="M708.4688,170.9219 Q706.7188,170.9219 705.5781,170.1875 Q704.4531,169.4375 703.8906,168.0938 Q703.3438,166.7344 703.3438,164.9375 Q703.3438,162.9063 704,161.4531 Q704.6563,160 705.9375,159.2188 Q707.2188,158.4375 709.0938,158.4375 Q709.9844,158.4375 710.6563,158.625 Q711.3281,158.7969 712.0156,159.1406 L711.2031,161.1563 Q710.5781,160.8438 710.0313,160.7188 Q709.5,160.5938 709.0156,160.5938 Q707.8438,160.5938 707.1406,161.125 Q706.4375,161.6563 706.1406,162.6094 Q705.8438,163.5625 705.8438,164.8281 Q705.8438,166.8438 706.5625,167.8125 Q707.2813,168.7656 708.875,168.7656 Q709.4688,168.7656 710.0938,168.6094 Q710.7188,168.4531 711.5469,168.0781 L711.5469,170.2969 Q710.8125,170.6094 710.0156,170.7656 Q709.2344,170.9219 708.4688,170.9219 Z " fill="#000000"/><text fill="#000000" font-family="sans-serif" font-size="14" lengthAdjust="spacing" textLength="139" x="723" y="168.8467">AuthorsServiceImpl</text><line style="stroke:#181818;stroke-width:0.5;" x1="695" x2="864" y1="180" y2="180"/><line style="stroke:#181818;stroke-width:0.5;" x1="695" x2="864" y1="188" y2="188"/></g><!--class AuthorsRepository--><g id="elem_AuthorsRepository"><rect codeLine="15" fill="#F1F1F1" height="64.2969" id="AuthorsRepository" rx="2.5" ry="2.5" style="stroke:#181818;stroke-width:0.5;" width="424" x="567.5" y="256"/><ellipse cx="709.75" cy="272" fill="#B4A7E5" rx="11" ry="11" style="stroke:#181818;stroke-width:1.0;"/><path d="M705.7813,278.5 L705.7813,276.7969 L708.1406,276.5313 L708.1406,268.3281 L705.7813,268.0625 L705.7813,266.3594 L712.9219,266.3594 L712.9219,268.0625 L710.5,268.3281 L710.5,276.5313 L712.9219,276.7969 L712.9219,278.5 L705.7813,278.5 Z " fill="#000000"/><text fill="#000000" font-family="sans-serif" font-size="14" font-style="italic" lengthAdjust="spacing" textLength="131" x="730.25" y="276.8467">AuthorsRepository</text><line style="stroke:#181818;stroke-width:0.5;" x1="568.5" x2="990.5" y1="288" y2="288"/><line style="stroke:#181818;stroke-width:0.5;" x1="568.5" x2="990.5" y1="296" y2="296"/><text fill="#000000" font-family="sans-serif" font-size="14" lengthAdjust="spacing" textLength="412" x="573.5" y="312.9951">+create(name: String, bio: String, photo?: Byte[]): Authors</text></g><!--class Authors--><g id="elem_Authors"><rect codeLine="19" fill="#F1F1F1" height="113.1875" id="Authors" rx="2.5" ry="2.5" style="stroke:#181818;stroke-width:0.5;" width="167" x="696" y="380"/><ellipse cx="747.75" cy="396" fill="#ADD1B2" rx="11" ry="11" style="stroke:#181818;stroke-width:1.0;"/><path d="M747.2188,402.9219 Q745.4688,402.9219 744.3281,402.1875 Q743.2031,401.4375 742.6406,400.0938 Q742.0938,398.7344 742.0938,396.9375 Q742.0938,394.9063 742.75,393.4531 Q743.4063,392 744.6875,391.2188 Q745.9688,390.4375 747.8438,390.4375 Q748.7344,390.4375 749.4063,390.625 Q750.0781,390.7969 750.7656,391.1406 L749.9531,393.1563 Q749.3281,392.8438 748.7813,392.7188 Q748.25,392.5938 747.7656,392.5938 Q746.5938,392.5938 745.8906,393.125 Q745.1875,393.6563 744.8906,394.6094 Q744.5938,395.5625 744.5938,396.8281 Q744.5938,398.8438 745.3125,399.8125 Q746.0313,400.7656 747.625,400.7656 Q748.2188,400.7656 748.8438,400.6094 Q749.4688,400.4531 750.2969,400.0781 L750.2969,402.2969 Q749.5625,402.6094 748.7656,402.7656 Q747.9844,402.9219 747.2188,402.9219 Z " fill="#000000"/><text fill="#000000" font-family="sans-serif" font-size="14" lengthAdjust="spacing" textLength="55" x="768.25" y="400.8467">Authors</text><line style="stroke:#181818;stroke-width:0.5;" x1="697" x2="862" y1="412" y2="412"/><text fill="#000000" font-family="sans-serif" font-size="14" lengthAdjust="spacing" textLength="143" x="702" y="428.9951">-authorsNumber: int</text><text fill="#000000" font-family="sans-serif" font-size="14" lengthAdjust="spacing" textLength="97" x="702" y="445.292">-name: Name</text><text fill="#000000" font-family="sans-serif" font-size="14" lengthAdjust="spacing" textLength="155" x="702" y="461.5889">-authorBio: AuthorBio</text><text fill="#000000" font-family="sans-serif" font-size="14" lengthAdjust="spacing" textLength="95" x="702" y="477.8857">-photo: Photo</text><line style="stroke:#181818;stroke-width:0.5;" x1="697" x2="862" y1="485.1875" y2="485.1875"/></g><!--class Name--><g id="elem_Name"><rect codeLine="26" fill="#F1F1F1" height="80.5938" id="Name" rx="2.5" ry="2.5" style="stroke:#181818;stroke-width:0.5;" width="141" x="533" y="553"/><ellipse cx="578.25" cy="569" fill="#ADD1B2" rx="11" ry="11" style="stroke:#181818;stroke-width:1.0;"/><path d="M577.7188,575.9219 Q575.9688,575.9219 574.8281,575.1875 Q573.7031,574.4375 573.1406,573.0938 Q572.5938,571.7344 572.5938,569.9375 Q572.5938,567.9063 573.25,566.4531 Q573.9063,565 575.1875,564.2188 Q576.4688,563.4375 578.3438,563.4375 Q579.2344,563.4375 579.9063,563.625 Q580.5781,563.7969 581.2656,564.1406 L580.4531,566.1563 Q579.8281,565.8438 579.2813,565.7188 Q578.75,565.5938 578.2656,565.5938 Q577.0938,565.5938 576.3906,566.125 Q575.6875,566.6563 575.3906,567.6094 Q575.0938,568.5625 575.0938,569.8281 Q575.0938,571.8438 575.8125,572.8125 Q576.5313,573.7656 578.125,573.7656 Q578.7188,573.7656 579.3438,573.6094 Q579.9688,573.4531 580.7969,573.0781 L580.7969,575.2969 Q580.0625,575.6094 579.2656,575.7656 Q578.4844,575.9219 577.7188,575.9219 Z " fill="#000000"/><text fill="#000000" font-family="sans-serif" font-size="14" lengthAdjust="spacing" textLength="42" x="598.75" y="573.8467">Name</text><line style="stroke:#181818;stroke-width:0.5;" x1="534" x2="673" y1="585" y2="585"/><text fill="#000000" font-family="sans-serif" font-size="14" lengthAdjust="spacing" textLength="97" x="539" y="601.9951">-name: String</text><line style="stroke:#181818;stroke-width:0.5;" x1="534" x2="673" y1="609.2969" y2="609.2969"/><text fill="#000000" font-family="sans-serif" font-size="14" lengthAdjust="spacing" textLength="129" x="539" y="626.292">+toString(): String</text></g><!--class AuthorBio--><g id="elem_AuthorBio"><rect codeLine="31" fill="#F1F1F1" height="80.5938" id="AuthorBio" rx="2.5" ry="2.5" style="stroke:#181818;stroke-width:0.5;" width="141" x="709" y="553"/><ellipse cx="741.1" cy="569" fill="#ADD1B2" rx="11" ry="11" style="stroke:#181818;stroke-width:1.0;"/><path d="M740.5688,575.9219 Q738.8188,575.9219 737.6781,575.1875 Q736.5531,574.4375 735.9906,573.0938 Q735.4438,571.7344 735.4438,569.9375 Q735.4438,567.9063 736.1,566.4531 Q736.7563,565 738.0375,564.2188 Q739.3188,563.4375 741.1938,563.4375 Q742.0844,563.4375 742.7563,563.625 Q743.4281,563.7969 744.1156,564.1406 L743.3031,566.1563 Q742.6781,565.8438 742.1313,565.7188 Q741.6,565.5938 741.1156,565.5938 Q739.9438,565.5938 739.2406,566.125 Q738.5375,566.6563 738.2406,567.6094 Q737.9438,568.5625 737.9438,569.8281 Q737.9438,571.8438 738.6625,572.8125 Q739.3813,573.7656 740.975,573.7656 Q741.5688,573.7656 742.1938,573.6094 Q742.8188,573.4531 743.6469,573.0781 L743.6469,575.2969 Q742.9125,575.6094 742.1156,575.7656 Q741.3344,575.9219 740.5688,575.9219 Z " fill="#000000"/><text fill="#000000" font-family="sans-serif" font-size="14" lengthAdjust="spacing" textLength="71" x="758.9" y="573.8467">AuthorBio</text><line style="stroke:#181818;stroke-width:0.5;" x1="710" x2="849" y1="585" y2="585"/><text fill="#000000" font-family="sans-serif" font-size="14" lengthAdjust="spacing" textLength="115" x="715" y="601.9951">-shortBio: String</text><line style="stroke:#181818;stroke-width:0.5;" x1="710" x2="849" y1="609.2969" y2="609.2969"/><text fill="#000000" font-family="sans-serif" font-size="14" lengthAdjust="spacing" textLength="129" x="715" y="626.292">+toString(): String</text></g><!--class Photo--><g id="elem_Photo"><rect codeLine="36" fill="#F1F1F1" height="64.2969" id="Photo" rx="2.5" ry="2.5" style="stroke:#181818;stroke-width:0.5;" width="109" x="885" y="561.5"/><ellipse cx="916.65" cy="577.5" fill="#ADD1B2" rx="11" ry="11" style="stroke:#181818;stroke-width:1.0;"/><path d="M916.1188,584.4219 Q914.3688,584.4219 913.2281,583.6875 Q912.1031,582.9375 911.5406,581.5938 Q910.9938,580.2344 910.9938,578.4375 Q910.9938,576.4063 911.65,574.9531 Q912.3063,573.5 913.5875,572.7188 Q914.8688,571.9375 916.7438,571.9375 Q917.6344,571.9375 918.3063,572.125 Q918.9781,572.2969 919.6656,572.6406 L918.8531,574.6563 Q918.2281,574.3438 917.6813,574.2188 Q917.15,574.0938 916.6656,574.0938 Q915.4938,574.0938 914.7906,574.625 Q914.0875,575.1563 913.7906,576.1094 Q913.4938,577.0625 913.4938,578.3281 Q913.4938,580.3438 914.2125,581.3125 Q914.9313,582.2656 916.525,582.2656 Q917.1188,582.2656 917.7438,582.1094 Q918.3688,581.9531 919.1969,581.5781 L919.1969,583.7969 Q918.4625,584.1094 917.6656,584.2656 Q916.8844,584.4219 916.1188,584.4219 Z " fill="#000000"/><text fill="#000000" font-family="sans-serif" font-size="14" lengthAdjust="spacing" textLength="40" x="934.35" y="582.3467">Photo</text><line style="stroke:#181818;stroke-width:0.5;" x1="886" x2="993" y1="593.5" y2="593.5"/><text fill="#000000" font-family="sans-serif" font-size="14" lengthAdjust="spacing" textLength="97" x="891" y="610.4951">-photo: Byte[]</text><line style="stroke:#181818;stroke-width:0.5;" x1="886" x2="993" y1="617.7969" y2="617.7969"/></g><!--reverse link AuthorsService to AuthorsServiceImpl--><g id="link_AuthorsService_AuthorsServiceImpl"><path d="M766.3089,97.6283 C764.0389,118.8883 766.31,128.68 769.28,147.95 " fill="none" id="AuthorsService-backto-AuthorsServiceImpl" style="stroke:#181818;stroke-width:1.0;stroke-dasharray:7.0,7.0;"/><polygon fill="none" points="768.22,79.73,760.3429,96.9912,772.275,98.2653,768.22,79.73" style="stroke:#181818;stroke-width:1.0;"/></g><!--reverse link AuthorsService to AuthorsServiceImpl--><g id="link_AuthorsService_AuthorsServiceImpl"><path codeLine="41" d="M792.1131,85.6921 C794.5131,106.9521 793.47,128.68 790.32,147.95 " fill="none" id="AuthorsService-backto-AuthorsServiceImpl-1" style="stroke:#181818;stroke-width:1.0;stroke-dasharray:7.0,7.0;"/><polygon fill="#181818" points="791.44,79.73,788.4748,89.1219,792.0009,84.6984,796.4243,88.2245,791.44,79.73" style="stroke:#181818;stroke-width:1.0;"/></g><!--link AuthorsController to AuthorsService--><g id="link_AuthorsController_AuthorsService"><path codeLine="40" d="M532.47,47.5 C544.05,47.5 549.63,47.5 561.21,47.5 " fill="none" id="AuthorsController-to-AuthorsService" style="stroke:#181818;stroke-width:1.0;"/><polygon fill="#181818" points="567.21,47.5,558.21,43.5,562.21,47.5,558.21,51.5,567.21,47.5" style="stroke:#181818;stroke-width:1.0;"/></g><!--link AuthorsServiceImpl to AuthorsRepository--><g id="link_AuthorsServiceImpl_AuthorsRepository"><path codeLine="42" d="M779.5,196.07 C779.5,213.25 779.5,230.88 779.5,249.75 " fill="none" id="AuthorsServiceImpl-to-AuthorsRepository" style="stroke:#181818;stroke-width:1.0;stroke-dasharray:7.0,7.0;"/><polygon fill="#181818" points="779.5,255.75,783.5,246.75,779.5,250.75,775.5,246.75,779.5,255.75" style="stroke:#181818;stroke-width:1.0;"/></g><!--link AuthorsRepository to Authors--><g id="link_AuthorsRepository_Authors"><path codeLine="43" d="M779.5,320.07 C779.5,337.46 779.5,353.65 779.5,373.93 " fill="none" id="AuthorsRepository-to-Authors" style="stroke:#181818;stroke-width:1.0;stroke-dasharray:7.0,7.0;"/><polygon fill="#181818" points="779.5,379.93,783.5,370.93,779.5,374.93,775.5,370.93,779.5,379.93" style="stroke:#181818;stroke-width:1.0;"/></g><!--link Authors to Name--><g id="link_Authors_Name"><path codeLine="44" d="M716.46,493.02 C693.97,512.83 678.1166,526.7902 657.4566,544.9802 " fill="none" id="Authors-to-Name" style="stroke:#181818;stroke-width:1.0;"/><polygon fill="none" points="648.45,552.91,655.5966,551.9473,657.4566,544.9802,650.31,545.9429,648.45,552.91" style="stroke:#181818;stroke-width:1.0;"/></g><!--link Authors to AuthorBio--><g id="link_Authors_AuthorBio"><path codeLine="45" d="M779.5,493.02 C779.5,512.83 779.5,522.72 779.5,540.91 " fill="none" id="Authors-to-AuthorBio" style="stroke:#181818;stroke-width:1.0;"/><polygon fill="none" points="779.5,552.91,783.5,546.91,779.5,540.91,775.5,546.91,779.5,552.91" style="stroke:#181818;stroke-width:1.0;"/></g><!--link Authors to Photo--><g id="link_Authors_Photo"><path codeLine="46" d="M836.81,493.02 C860.48,515.95 878.4312,533.3404 898.6012,552.8804 " fill="none" id="Authors-to-Photo" style="stroke:#181818;stroke-width:1.0;"/><polygon fill="none" points="907.22,561.23,905.6938,554.1823,898.6012,552.8804,900.1274,559.9281,907.22,561.23" style="stroke:#181818;stroke-width:1.0;"/></g><!--SRC=[jLB1JeD04Btp5NEiKHhFnDIKnaClZO74Y_6mqB7T23kuEs3G-EykxBOWhKalSbYOVM_VUpk3UPEg4bgKa1V2c2MpbbdDkCv9fV8JuJO8UWIMDUz9cnKfrbGKgE4h0FjSGwvHCCvM_SlH4dolqJ1eD5Jh7AyYID1Kf0m-A9RStZdUayIFHIyJWX4DEesj0sVsL4Do6tnFCgIe6vdZD80I9KQGsXketGraaeQYsXFJVGHno_ZyOdMzqb_Iwx8gGDe5IrHynjYUaufHlmfRUZJ1Yenaqkr_9FEQ8GXNR-eoGns1ZU41vxAnwozctDaj3vyUwcqZUEnUWrLtzkWp3kslm-JARZ8UcCIq3aS1OskEXyjU8DBdEGhuaAur7Udq7mmNaza4PmOvhwlvHRo1DSmoE9tkY7T08Gp9jNwyCNHzlEkQ_WC0]--></g></svg>
