<?xml version="1.0" encoding="us-ascii" standalone="no"?><svg xmlns="http://www.w3.org/2000/svg" xmlns:xlink="http://www.w3.org/1999/xlink" contentStyleType="text/css" height="399px" preserveAspectRatio="none" style="width:894px;height:399px;background:#FFFFFF;" version="1.1" viewBox="0 0 894 399" width="894px" zoomAndPan="magnify"><defs/><g><rect fill="#FFFFFF" height="196.7969" style="stroke:#181818;stroke-width:1.0;" width="10" x="307" y="112.4297"/><rect fill="#FFFFFF" height="34.1328" style="stroke:#181818;stroke-width:1.0;" width="10" x="312" y="266.0938"/><rect fill="#FFFFFF" height="87.3984" style="stroke:#181818;stroke-width:1.0;" width="10" x="559" y="141.5625"/><rect fill="#FFFFFF" height="29.1328" style="stroke:#181818;stroke-width:1.0;" width="10" x="811" y="170.6953"/><line style="stroke:#181818;stroke-width:0.5;stroke-dasharray:5.0,5.0;" x1="40" x2="40" y1="81.2969" y2="318.2266"/><line style="stroke:#181818;stroke-width:0.5;stroke-dasharray:5.0,5.0;" x1="312" x2="312" y1="81.2969" y2="318.2266"/><line style="stroke:#181818;stroke-width:0.5;stroke-dasharray:5.0,5.0;" x1="564" x2="564" y1="81.2969" y2="318.2266"/><line style="stroke:#181818;stroke-width:0.5;stroke-dasharray:5.0,5.0;" x1="815.5" x2="815.5" y1="81.2969" y2="318.2266"/><text fill="#000000" font-family="sans-serif" font-size="14" lengthAdjust="spacing" textLength="64" x="5" y="77.9951">Librarian</text><ellipse cx="40" cy="13.5" fill="#E2E2F0" rx="8" ry="8" style="stroke:#181818;stroke-width:0.5;"/><path d="M40,21.5 L40,48.5 M27,29.5 L53,29.5 M40,48.5 L27,63.5 M40,48.5 L53,63.5 " fill="none" style="stroke:#181818;stroke-width:0.5;"/><text fill="#000000" font-family="sans-serif" font-size="14" lengthAdjust="spacing" textLength="64" x="5" y="330.2217">Librarian</text><ellipse cx="40" cy="342.0234" fill="#E2E2F0" rx="8" ry="8" style="stroke:#181818;stroke-width:0.5;"/><path d="M40,350.0234 L40,377.0234 M27,358.0234 L53,358.0234 M40,377.0234 L27,392.0234 M40,377.0234 L53,392.0234 " fill="none" style="stroke:#181818;stroke-width:0.5;"/><rect fill="#E2E2F0" height="30.2969" rx="2.5" ry="2.5" style="stroke:#181818;stroke-width:0.5;" width="140" x="242" y="50"/><text fill="#000000" font-family="sans-serif" font-size="14" lengthAdjust="spacing" textLength="126" x="249" y="69.9951">AuthorsController</text><rect fill="#E2E2F0" height="30.2969" rx="2.5" ry="2.5" style="stroke:#181818;stroke-width:0.5;" width="140" x="242" y="317.2266"/><text fill="#000000" font-family="sans-serif" font-size="14" lengthAdjust="spacing" textLength="126" x="249" y="337.2217">AuthorsController</text><rect fill="#E2E2F0" height="30.2969" rx="2.5" ry="2.5" style="stroke:#181818;stroke-width:0.5;" width="122" x="503" y="50"/><text fill="#000000" font-family="sans-serif" font-size="14" lengthAdjust="spacing" textLength="108" x="510" y="69.9951">AuthorsService</text><rect fill="#E2E2F0" height="30.2969" rx="2.5" ry="2.5" style="stroke:#181818;stroke-width:0.5;" width="122" x="503" y="317.2266"/><text fill="#000000" font-family="sans-serif" font-size="14" lengthAdjust="spacing" textLength="108" x="510" y="337.2217">AuthorsService</text><rect fill="#E2E2F0" height="30.2969" rx="2.5" ry="2.5" style="stroke:#181818;stroke-width:0.5;" width="145" x="743.5" y="50"/><text fill="#000000" font-family="sans-serif" font-size="14" lengthAdjust="spacing" textLength="131" x="750.5" y="69.9951">AuthorsRepository</text><rect fill="#E2E2F0" height="30.2969" rx="2.5" ry="2.5" style="stroke:#181818;stroke-width:0.5;" width="145" x="743.5" y="317.2266"/><text fill="#000000" font-family="sans-serif" font-size="14" lengthAdjust="spacing" textLength="131" x="750.5" y="337.2217">AuthorsRepository</text><rect fill="#FFFFFF" height="196.7969" style="stroke:#181818;stroke-width:1.0;" width="10" x="307" y="112.4297"/><rect fill="#FFFFFF" height="34.1328" style="stroke:#181818;stroke-width:1.0;" width="10" x="312" y="266.0938"/><rect fill="#FFFFFF" height="87.3984" style="stroke:#181818;stroke-width:1.0;" width="10" x="559" y="141.5625"/><rect fill="#FFFFFF" height="29.1328" style="stroke:#181818;stroke-width:1.0;" width="10" x="811" y="170.6953"/><polygon fill="#181818" points="295,108.4297,305,112.4297,295,116.4297,299,112.4297" style="stroke:#181818;stroke-width:1.0;"/><line style="stroke:#181818;stroke-width:1.0;" x1="40" x2="301" y1="112.4297" y2="112.4297"/><text fill="#000000" font-family="sans-serif" font-size="13" lengthAdjust="spacing" textLength="248" x="47" y="107.3638">createAuthor(name, short bio, photo?)</text><polygon fill="#181818" points="547,137.5625,557,141.5625,547,145.5625,551,141.5625" style="stroke:#181818;stroke-width:1.0;"/><line style="stroke:#181818;stroke-width:1.0;" x1="317" x2="553" y1="141.5625" y2="141.5625"/><text fill="#000000" font-family="sans-serif" font-size="13" lengthAdjust="spacing" textLength="223" x="324" y="136.4966">create(name, short bio, opt photo)</text><polygon fill="#181818" points="799,166.6953,809,170.6953,799,174.6953,803,170.6953" style="stroke:#181818;stroke-width:1.0;"/><line style="stroke:#181818;stroke-width:1.0;" x1="569" x2="805" y1="170.6953" y2="170.6953"/><text fill="#000000" font-family="sans-serif" font-size="13" lengthAdjust="spacing" textLength="223" x="576" y="165.6294">create(name, short bio, opt photo)</text><polygon fill="#181818" points="580,195.8281,570,199.8281,580,203.8281,576,199.8281" style="stroke:#181818;stroke-width:1.0;"/><line style="stroke:#181818;stroke-width:1.0;stroke-dasharray:2.0,2.0;" x1="574" x2="815" y1="199.8281" y2="199.8281"/><text fill="#000000" font-family="sans-serif" font-size="13" lengthAdjust="spacing" textLength="50" x="586" y="194.7622">Authors</text><polygon fill="#181818" points="328,224.9609,318,228.9609,328,232.9609,324,228.9609" style="stroke:#181818;stroke-width:1.0;"/><line style="stroke:#181818;stroke-width:1.0;stroke-dasharray:2.0,2.0;" x1="322" x2="563" y1="228.9609" y2="228.9609"/><text fill="#000000" font-family="sans-serif" font-size="13" lengthAdjust="spacing" textLength="50" x="334" y="223.895">Authors</text><line style="stroke:#181818;stroke-width:1.0;" x1="317" x2="364" y1="253.0938" y2="253.0938"/><line style="stroke:#181818;stroke-width:1.0;" x1="364" x2="364" y1="253.0938" y2="266.0938"/><line style="stroke:#181818;stroke-width:1.0;" x1="323" x2="364" y1="266.0938" y2="266.0938"/><polygon fill="#181818" points="333,262.0938,323,266.0938,333,270.0938,329,266.0938" style="stroke:#181818;stroke-width:1.0;"/><text fill="#000000" font-family="sans-serif" font-size="13" lengthAdjust="spacing" textLength="135" x="329" y="248.0278">saveCreatedAuthor()</text><polygon fill="#181818" points="51,296.2266,41,300.2266,51,304.2266,47,300.2266" style="stroke:#181818;stroke-width:1.0;"/><line style="stroke:#181818;stroke-width:1.0;stroke-dasharray:2.0,2.0;" x1="45" x2="306" y1="300.2266" y2="300.2266"/><text fill="#000000" font-family="sans-serif" font-size="13" lengthAdjust="spacing" textLength="41" x="57" y="295.1606">Result</text><!--SRC=[bP712i8m38RlVOhWIS6zW0T5l7hI9uWrO64k9Sq6lhtTrgr51-Af2VpvykSlMcM1ixi9YiF6U1Hrrdbi55R7LXyiuSID2jSroGemG6uNrLUIpbaQfAbUr5t8St1n-skGvjQOsGvK-sBT3gmGAes0TODFsaA8fSBDyHRyWvKF6uDMNHTrfTDSzipaQm9-ezZhY2jeqp7fxJdPz7-eujXSGbKwIocPEorDpHu-0bgOccn_H51E1UpeDDY_fsn_XnWHypVjehNGrbgkBSRU]--></g></svg>
