<?xml version="1.0" encoding="us-ascii" standalone="no"?><svg xmlns="http://www.w3.org/2000/svg" xmlns:xlink="http://www.w3.org/1999/xlink" contentStyleType="text/css" height="578px" preserveAspectRatio="none" style="width:1413px;height:578px;background:#FFFFFF;" version="1.1" viewBox="0 0 1413 578" width="1413px" zoomAndPan="magnify"><defs/><g><text fill="#000000" font-family="sans-serif" font-size="14" font-weight="bold" lengthAdjust="spacing" textLength="256" x="577.75" y="29.9659">Register a new reader as anonymous</text><rect fill="#FFFFFF" height="351.7662" style="stroke:#181818;stroke-width:1.0;" width="10" x="57.5" y="134.1358"/><rect fill="#FFFFFF" height="79.412" style="stroke:#181818;stroke-width:1.0;" width="10" x="62.5" y="406.49"/><rect fill="#FFFFFF" height="328.0602" style="stroke:#181818;stroke-width:1.0;" width="10" x="388.5" y="157.8419"/><rect fill="#FFFFFF" height="102.118" style="stroke:#181818;stroke-width:1.0;" width="10" x="393.5" y="374.784"/><rect fill="#FFFFFF" height="255.6481" style="stroke:#181818;stroke-width:1.0;" width="10" x="545.5" y="189.5479"/><rect fill="#FFFFFF" height="95.118" style="stroke:#181818;stroke-width:1.0;" width="10" x="714.5" y="221.2539"/><rect fill="#FFFFFF" height="201.2361" style="stroke:#181818;stroke-width:1.0;" width="10" x="911.5" y="284.6659"/><rect fill="#FFFFFF" height="232.9421" style="stroke:#181818;stroke-width:1.0;" width="10" x="1097.5" y="252.9599"/><rect fill="none" height="83.118" style="stroke:#000000;stroke-width:1.5;" width="629" x="10" y="331.3719"/><line style="stroke:#181818;stroke-width:0.5;stroke-dasharray:5.0,5.0;" x1="62" x2="62" y1="124.1358" y2="494.902"/><line style="stroke:#181818;stroke-width:0.5;stroke-dasharray:5.0,5.0;" x1="393.5" x2="393.5" y1="124.1358" y2="494.902"/><line style="stroke:#181818;stroke-width:0.5;stroke-dasharray:5.0,5.0;" x1="550" x2="550" y1="124.1358" y2="494.902"/><line style="stroke:#181818;stroke-width:0.5;stroke-dasharray:5.0,5.0;" x1="719" x2="719" y1="124.1358" y2="494.902"/><line style="stroke:#181818;stroke-width:0.5;stroke-dasharray:5.0,5.0;" x1="916.5" x2="916.5" y1="124.1358" y2="494.902"/><line style="stroke:#181818;stroke-width:0.5;stroke-dasharray:5.0,5.0;" x1="1102.5" x2="1102.5" y1="124.1358" y2="494.902"/><line style="stroke:#181818;stroke-width:0.5;stroke-dasharray:5.0,5.0;" x1="1305.5" x2="1305.5" y1="124.1358" y2="494.902"/><text fill="#000000" font-family="sans-serif" font-size="14" lengthAdjust="spacing" textLength="79" x="20" y="120.0339">Anonymous</text><ellipse cx="62.5" cy="53.5679" fill="#E2E2F0" rx="8" ry="8" style="stroke:#181818;stroke-width:0.5;"/><path d="M62.5,61.5679 L62.5,88.5679 M49.5,69.5679 L75.5,69.5679 M62.5,88.5679 L49.5,103.5679 M62.5,88.5679 L75.5,103.5679 " fill="none" style="stroke:#181818;stroke-width:0.5;"/><text fill="#000000" font-family="sans-serif" font-size="14" lengthAdjust="spacing" textLength="79" x="20" y="508.868">Anonymous</text><ellipse cx="62.5" cy="521.4699" fill="#E2E2F0" rx="8" ry="8" style="stroke:#181818;stroke-width:0.5;"/><path d="M62.5,529.4699 L62.5,556.4699 M49.5,537.4699 L75.5,537.4699 M62.5,556.4699 L49.5,571.4699 M62.5,556.4699 L75.5,571.4699 " fill="none" style="stroke:#181818;stroke-width:0.5;"/><rect fill="#E2E2F0" height="33.0679" rx="2.5" ry="2.5" style="stroke:#181818;stroke-width:0.5;" width="66" x="360.5" y="90.0679"/><text fill="#000000" font-family="sans-serif" font-size="14" lengthAdjust="spacing" textLength="52" x="367.5" y="112.0339">:System</text><rect fill="#E2E2F0" height="33.0679" rx="2.5" ry="2.5" style="stroke:#181818;stroke-width:0.5;" width="66" x="360.5" y="493.902"/><text fill="#000000" font-family="sans-serif" font-size="14" lengthAdjust="spacing" textLength="52" x="367.5" y="515.868">:System</text><rect fill="#E2E2F0" height="33.0679" rx="2.5" ry="2.5" style="stroke:#181818;stroke-width:0.5;" width="157" x="472" y="90.0679"/><text fill="#000000" font-family="sans-serif" font-size="14" lengthAdjust="spacing" textLength="143" x="479" y="112.0339">Ctrl:ReaderController</text><rect fill="#E2E2F0" height="33.0679" rx="2.5" ry="2.5" style="stroke:#181818;stroke-width:0.5;" width="157" x="472" y="493.902"/><text fill="#000000" font-family="sans-serif" font-size="14" lengthAdjust="spacing" textLength="143" x="479" y="515.868">Ctrl:ReaderController</text><rect fill="#E2E2F0" height="33.0679" rx="2.5" ry="2.5" style="stroke:#181818;stroke-width:0.5;" width="161" x="639" y="90.0679"/><text fill="#000000" font-family="sans-serif" font-size="14" lengthAdjust="spacing" textLength="147" x="646" y="112.0339">service:ReaderService</text><rect fill="#E2E2F0" height="33.0679" rx="2.5" ry="2.5" style="stroke:#181818;stroke-width:0.5;" width="161" x="639" y="493.902"/><text fill="#000000" font-family="sans-serif" font-size="14" lengthAdjust="spacing" textLength="147" x="646" y="515.868">service:ReaderService</text><rect fill="#E2E2F0" height="33.0679" rx="2.5" ry="2.5" style="stroke:#181818;stroke-width:0.5;" width="168" x="832.5" y="90.0679"/><text fill="#000000" font-family="sans-serif" font-size="14" lengthAdjust="spacing" textLength="154" x="839.5" y="112.0339">repo:ReaderRepository</text><rect fill="#E2E2F0" height="33.0679" rx="2.5" ry="2.5" style="stroke:#181818;stroke-width:0.5;" width="168" x="832.5" y="493.902"/><text fill="#000000" font-family="sans-serif" font-size="14" lengthAdjust="spacing" textLength="154" x="839.5" y="515.868">repo:ReaderRepository</text><rect fill="#E2E2F0" height="33.0679" rx="2.5" ry="2.5" style="stroke:#181818;stroke-width:0.5;" width="184" x="1010.5" y="90.0679"/><text fill="#000000" font-family="sans-serif" font-size="14" lengthAdjust="spacing" textLength="170" x="1017.5" y="112.0339">userRepo:UserRepository</text><rect fill="#E2E2F0" height="33.0679" rx="2.5" ry="2.5" style="stroke:#181818;stroke-width:0.5;" width="184" x="1010.5" y="493.902"/><text fill="#000000" font-family="sans-serif" font-size="14" lengthAdjust="spacing" textLength="170" x="1017.5" y="515.868">userRepo:UserRepository</text><rect fill="#E2E2F0" height="33.0679" rx="2.5" ry="2.5" style="stroke:#181818;stroke-width:0.5;" width="203" x="1204.5" y="90.0679"/><text fill="#000000" font-family="sans-serif" font-size="14" lengthAdjust="spacing" textLength="189" x="1211.5" y="112.0339">readerDetails:ReaderDetails</text><rect fill="#E2E2F0" height="33.0679" rx="2.5" ry="2.5" style="stroke:#181818;stroke-width:0.5;" width="203" x="1204.5" y="493.902"/><text fill="#000000" font-family="sans-serif" font-size="14" lengthAdjust="spacing" textLength="189" x="1211.5" y="515.868">readerDetails:ReaderDetails</text><rect fill="#FFFFFF" height="351.7662" style="stroke:#181818;stroke-width:1.0;" width="10" x="57.5" y="134.1358"/><rect fill="#FFFFFF" height="79.412" style="stroke:#181818;stroke-width:1.0;" width="10" x="62.5" y="406.49"/><rect fill="#FFFFFF" height="328.0602" style="stroke:#181818;stroke-width:1.0;" width="10" x="388.5" y="157.8419"/><rect fill="#FFFFFF" height="102.118" style="stroke:#181818;stroke-width:1.0;" width="10" x="393.5" y="374.784"/><rect fill="#FFFFFF" height="255.6481" style="stroke:#181818;stroke-width:1.0;" width="10" x="545.5" y="189.5479"/><rect fill="#FFFFFF" height="95.118" style="stroke:#181818;stroke-width:1.0;" width="10" x="714.5" y="221.2539"/><rect fill="#FFFFFF" height="201.2361" style="stroke:#181818;stroke-width:1.0;" width="10" x="911.5" y="284.6659"/><rect fill="#FFFFFF" height="232.9421" style="stroke:#181818;stroke-width:1.0;" width="10" x="1097.5" y="252.9599"/><polygon fill="#181818" points="376.5,153.8419,386.5,157.8419,376.5,161.8419,380.5,157.8419" style="stroke:#181818;stroke-width:1.0;"/><line style="stroke:#181818;stroke-width:1.0;" x1="67.5" x2="382.5" y1="157.8419" y2="157.8419"/><text fill="#000000" font-family="sans-serif" font-size="13" font-weight="bold" lengthAdjust="spacing" textLength="7" x="74.5" y="152.0328">1</text><text fill="#000000" font-family="sans-serif" font-size="13" lengthAdjust="spacing" textLength="291" x="85.5" y="152.0328">requests reader registration based on given data</text><polygon fill="#181818" points="533.5,185.5479,543.5,189.5479,533.5,193.5479,537.5,189.5479" style="stroke:#181818;stroke-width:1.0;"/><line style="stroke:#181818;stroke-width:1.0;" x1="398.5" x2="539.5" y1="189.5479" y2="189.5479"/><text fill="#000000" font-family="sans-serif" font-size="13" font-weight="bold" lengthAdjust="spacing" textLength="7" x="405.5" y="183.7389">2</text><text fill="#000000" font-family="sans-serif" font-size="13" lengthAdjust="spacing" textLength="90" x="416.5" y="183.7389">createReader();</text><polygon fill="#181818" points="702.5,217.2539,712.5,221.2539,702.5,225.2539,706.5,221.2539" style="stroke:#181818;stroke-width:1.0;"/><line style="stroke:#181818;stroke-width:1.0;" x1="555.5" x2="708.5" y1="221.2539" y2="221.2539"/><text fill="#000000" font-family="sans-serif" font-size="13" font-weight="bold" lengthAdjust="spacing" textLength="7" x="562.5" y="215.4449">3</text><text fill="#000000" font-family="sans-serif" font-size="13" lengthAdjust="spacing" textLength="112" x="573.5" y="215.4449">create(readerData)</text><polygon fill="#181818" points="1085.5,248.9599,1095.5,252.9599,1085.5,256.9599,1089.5,252.9599" style="stroke:#181818;stroke-width:1.0;"/><line style="stroke:#181818;stroke-width:1.0;" x1="724.5" x2="1091.5" y1="252.9599" y2="252.9599"/><text fill="#000000" font-family="sans-serif" font-size="13" font-weight="bold" lengthAdjust="spacing" textLength="7" x="731.5" y="247.1509">4</text><text fill="#000000" font-family="sans-serif" font-size="13" lengthAdjust="spacing" textLength="90" x="742.5" y="247.1509">User(userData)</text><polygon fill="#181818" points="899.5,280.6659,909.5,284.6659,899.5,288.6659,903.5,284.6659" style="stroke:#181818;stroke-width:1.0;"/><line style="stroke:#181818;stroke-width:1.0;" x1="724.5" x2="905.5" y1="284.6659" y2="284.6659"/><text fill="#000000" font-family="sans-serif" font-size="13" font-weight="bold" lengthAdjust="spacing" textLength="7" x="731.5" y="278.8569">5</text><text fill="#000000" font-family="sans-serif" font-size="13" lengthAdjust="spacing" textLength="157" x="742.5" y="278.8569">ReaderDetails(readerData)</text><polygon fill="#181818" points="566.5,312.3719,556.5,316.3719,566.5,320.3719,562.5,316.3719" style="stroke:#181818;stroke-width:1.0;"/><line style="stroke:#181818;stroke-width:1.0;stroke-dasharray:2.0,2.0;" x1="560.5" x2="718.5" y1="316.3719" y2="316.3719"/><text fill="#000000" font-family="sans-serif" font-size="13" font-weight="bold" lengthAdjust="spacing" textLength="7" x="572.5" y="310.5629">6</text><text fill="#000000" font-family="sans-serif" font-size="13" lengthAdjust="spacing" textLength="120" x="583.5" y="310.5629">Reader or exception</text><path d="M10,331.3719 L73,331.3719 L73,341.0779 L63,351.0779 L10,351.0779 L10,331.3719 " fill="#EEEEEE" style="stroke:#000000;stroke-width:1.5;"/><rect fill="none" height="83.118" style="stroke:#000000;stroke-width:1.5;" width="629" x="10" y="331.3719"/><text fill="#000000" font-family="sans-serif" font-size="13" font-weight="bold" lengthAdjust="spacing" textLength="18" x="25" y="346.2689">alt</text><text fill="#000000" font-family="sans-serif" font-size="11" font-weight="bold" lengthAdjust="spacing" textLength="138" x="88" y="345.1308">[If exception is returned]</text><polygon fill="#181818" points="414.5,370.784,404.5,374.784,414.5,378.784,410.5,374.784" style="stroke:#181818;stroke-width:1.0;"/><line style="stroke:#181818;stroke-width:1.0;" x1="408.5" x2="544.5" y1="374.784" y2="374.784"/><text fill="#000000" font-family="sans-serif" font-size="13" font-weight="bold" lengthAdjust="spacing" textLength="7" x="420.5" y="368.975">7</text><text fill="#000000" font-family="sans-serif" font-size="13" lengthAdjust="spacing" textLength="112" x="431.5" y="368.975">Reader is duplicate</text><polygon fill="#181818" points="83.5,402.49,73.5,406.49,83.5,410.49,79.5,406.49" style="stroke:#181818;stroke-width:1.0;"/><line style="stroke:#181818;stroke-width:1.0;" x1="77.5" x2="392.5" y1="406.49" y2="406.49"/><text fill="#000000" font-family="sans-serif" font-size="13" font-weight="bold" lengthAdjust="spacing" textLength="7" x="89.5" y="400.681">8</text><text fill="#000000" font-family="sans-serif" font-size="13" lengthAdjust="spacing" textLength="112" x="100.5" y="400.681">Reader is duplicate</text><polygon fill="#181818" points="414.5,441.196,404.5,445.196,414.5,449.196,410.5,445.196" style="stroke:#181818;stroke-width:1.0;"/><line style="stroke:#181818;stroke-width:1.0;stroke-dasharray:2.0,2.0;" x1="408.5" x2="549.5" y1="445.196" y2="445.196"/><text fill="#000000" font-family="sans-serif" font-size="13" font-weight="bold" lengthAdjust="spacing" textLength="7" x="420.5" y="439.387">9</text><text fill="#000000" font-family="sans-serif" font-size="13" lengthAdjust="spacing" textLength="39" x="431.5" y="439.387">reader</text><polygon fill="#181818" points="83.5,472.902,73.5,476.902,83.5,480.902,79.5,476.902" style="stroke:#181818;stroke-width:1.0;"/><line style="stroke:#181818;stroke-width:1.0;stroke-dasharray:2.0,2.0;" x1="77.5" x2="387.5" y1="476.902" y2="476.902"/><text fill="#000000" font-family="sans-serif" font-size="13" font-weight="bold" lengthAdjust="spacing" textLength="14" x="89.5" y="471.093">10</text><text fill="#000000" font-family="sans-serif" font-size="13" lengthAdjust="spacing" textLength="103" x="107.5" y="471.093">registered reader</text><!--SRC=[RPFFJiCm3CRlUGfh5xO3x5ua93GkN3Vn05bYHgGqAOapsDlZ_6cdiFKKExz-jZ-t3rz4KnossybAHscqJygFsuZV2Pt2HstaASXHo4HUAZ9dIGZUbTYbyOX1239a4VPuCf4mW0I7Fn1GwXn4aCwxo-XJ588LV83LwvnPvVib4fCCP9IPk15O3OSBouq5gSV-VaV13ljIPUST1MyjXaBdcvwD6Cv6OSCFDQhAzTpZ0IVVs3qVe-6kBmNFOS-cMA7X8zxGVUf_ZIp_XYIDZQrOYrgbd2cMLTElDedb28ylpPk13UULHOgpyw7i8qWoti5HHjIyDpYPCphGagGGzSsiKRm4nMyIriBhpRCGELrADFiQiMwziyX6jBkCzUCE9LvdVsx8OXXqGzyNNNghBF3NWxyAfpmKUsC9tZ-l6J1vUah1eHR0pp90ywYfCARJP8tYOGftTMAnzYuC0fsUVUcyBykQPNgTq7uCNa3Z_W00]--></g></svg>