<?xml version="1.0" encoding="us-ascii" standalone="no"?><svg xmlns="http://www.w3.org/2000/svg" xmlns:xlink="http://www.w3.org/1999/xlink" contentStyleType="text/css" height="768px" preserveAspectRatio="none" style="width:808px;height:768px;background:#FFFFFF;" version="1.1" viewBox="0 0 808 768" width="808px" zoomAndPan="magnify"><defs/><g><!--class BookController--><g id="elem_BookController"><rect codeLine="5" fill="#F1F1F1" height="124.2717" id="BookController" rx="2.5" ry="2.5" style="stroke:#181818;stroke-width:0.5;" width="380" x="302" y="7"/><ellipse cx="438.25" cy="23" fill="#ADD1B2" rx="11" ry="11" style="stroke:#181818;stroke-width:1.0;"/><path d="M437.7188,29.9219 Q435.9688,29.9219 434.8281,29.1875 Q433.7031,28.4375 433.1406,27.0938 Q432.5938,25.7344 432.5938,23.9375 Q432.5938,21.9063 433.25,20.4531 Q433.9063,19 435.1875,18.2188 Q436.4688,17.4375 438.3438,17.4375 Q439.2344,17.4375 439.9063,17.625 Q440.5781,17.7969 441.2656,18.1406 L440.4531,20.1563 Q439.8281,19.8438 439.2813,19.7188 Q438.75,19.5938 438.2656,19.5938 Q437.0938,19.5938 436.3906,20.125 Q435.6875,20.6563 435.3906,21.6094 Q435.0938,22.5625 435.0938,23.8281 Q435.0938,25.8438 435.8125,26.8125 Q436.5313,27.7656 438.125,27.7656 Q438.7188,27.7656 439.3438,27.6094 Q439.9688,27.4531 440.7969,27.0781 L440.7969,29.2969 Q440.0625,29.6094 439.2656,29.7656 Q438.4844,29.9219 437.7188,29.9219 Z " fill="#000000"/><text fill="#000000" font-family="sans-serif" font-size="14" lengthAdjust="spacing" textLength="99" x="458.75" y="28.432">BookController</text><line style="stroke:#181818;stroke-width:0.5;" x1="303" x2="681" y1="39" y2="39"/><line style="stroke:#181818;stroke-width:0.5;" x1="303" x2="681" y1="47" y2="47"/><text fill="#000000" font-family="sans-serif" font-size="14" lengthAdjust="spacing" textLength="368" x="308" y="65.9659">+registerBook(isbn,  title, genre, description, author(s))</text><text fill="#000000" font-family="sans-serif" font-size="14" lengthAdjust="spacing" textLength="322" x="308" y="85.0339">+updateBook(title, genre, description, author(s))</text><text fill="#000000" font-family="sans-serif" font-size="14" lengthAdjust="spacing" textLength="117" x="308" y="104.1018">+getDetails(ISBN)</text><text fill="#000000" font-family="sans-serif" font-size="14" lengthAdjust="spacing" textLength="191" x="308" y="123.1697">+searchBookByGenre(Genre)</text></g><!--class BookRepository--><g id="elem_BookRepository"><rect codeLine="12" fill="#F1F1F1" height="105.2038" id="BookRepository" rx="2.5" ry="2.5" style="stroke:#181818;stroke-width:0.5;" width="203" x="598.5" y="356"/><ellipse cx="646.75" cy="372" fill="#B4A7E5" rx="11" ry="11" style="stroke:#181818;stroke-width:1.0;"/><path d="M642.7813,378.5 L642.7813,376.7969 L645.1406,376.5313 L645.1406,368.3281 L642.7813,368.0625 L642.7813,366.3594 L649.9219,366.3594 L649.9219,368.0625 L647.5,368.3281 L647.5,376.5313 L649.9219,376.7969 L649.9219,378.5 L642.7813,378.5 Z " fill="#000000"/><text fill="#000000" font-family="sans-serif" font-size="14" font-style="italic" lengthAdjust="spacing" textLength="98" x="667.25" y="377.432">BookRepository</text><line style="stroke:#181818;stroke-width:0.5;" x1="599.5" x2="800.5" y1="388" y2="388"/><line style="stroke:#181818;stroke-width:0.5;" x1="599.5" x2="800.5" y1="396" y2="396"/><text fill="#000000" font-family="sans-serif" font-size="14" lengthAdjust="spacing" textLength="106" x="604.5" y="414.9659">+findById(ISBN)</text><text fill="#000000" font-family="sans-serif" font-size="14" lengthAdjust="spacing" textLength="78" x="604.5" y="434.0339">+save(book)</text><text fill="#000000" font-family="sans-serif" font-size="14" lengthAdjust="spacing" textLength="191" x="604.5" y="453.1018">+searchBookByGenre(Genre)</text></g><!--class BookService--><g id="elem_BookService"><rect codeLine="18" fill="#F1F1F1" height="105.2038" id="BookService" rx="2.5" ry="2.5" style="stroke:#181818;stroke-width:0.5;" width="344" x="320" y="191"/><ellipse cx="450.25" cy="207" fill="#B4A7E5" rx="11" ry="11" style="stroke:#181818;stroke-width:1.0;"/><path d="M446.2813,213.5 L446.2813,211.7969 L448.6406,211.5313 L448.6406,203.3281 L446.2813,203.0625 L446.2813,201.3594 L453.4219,201.3594 L453.4219,203.0625 L451,203.3281 L451,211.5313 L453.4219,211.7969 L453.4219,213.5 L446.2813,213.5 Z " fill="#000000"/><text fill="#000000" font-family="sans-serif" font-size="14" font-style="italic" lengthAdjust="spacing" textLength="75" x="470.75" y="212.432">BookService</text><line style="stroke:#181818;stroke-width:0.5;" x1="321" x2="663" y1="223" y2="223"/><line style="stroke:#181818;stroke-width:0.5;" x1="321" x2="663" y1="231" y2="231"/><text fill="#000000" font-family="sans-serif" font-size="14" lengthAdjust="spacing" textLength="332" x="326" y="249.9659">+register(isbn, title, genre, description, author(s))</text><text fill="#000000" font-family="sans-serif" font-size="14" lengthAdjust="spacing" textLength="104" x="326" y="269.0339">+findBook(isbn)</text><text fill="#000000" font-family="sans-serif" font-size="14" lengthAdjust="spacing" textLength="290" x="326" y="288.1018">+update(title, genre, description, author(s))</text></g><!--class BookServiceImpl--><g id="elem_BookServiceImpl"><rect codeLine="24" fill="#F1F1F1" height="48" id="BookServiceImpl" rx="2.5" ry="2.5" style="stroke:#181818;stroke-width:0.5;" width="143" x="420.5" y="384.5"/><ellipse cx="435.5" cy="400.5" fill="#ADD1B2" rx="11" ry="11" style="stroke:#181818;stroke-width:1.0;"/><path d="M434.9688,407.4219 Q433.2188,407.4219 432.0781,406.6875 Q430.9531,405.9375 430.3906,404.5938 Q429.8438,403.2344 429.8438,401.4375 Q429.8438,399.4063 430.5,397.9531 Q431.1563,396.5 432.4375,395.7188 Q433.7188,394.9375 435.5938,394.9375 Q436.4844,394.9375 437.1563,395.125 Q437.8281,395.2969 438.5156,395.6406 L437.7031,397.6563 Q437.0781,397.3438 436.5313,397.2188 Q436,397.0938 435.5156,397.0938 Q434.3438,397.0938 433.6406,397.625 Q432.9375,398.1563 432.6406,399.1094 Q432.3438,400.0625 432.3438,401.3281 Q432.3438,403.3438 433.0625,404.3125 Q433.7813,405.2656 435.375,405.2656 Q435.9688,405.2656 436.5938,405.1094 Q437.2188,404.9531 438.0469,404.5781 L438.0469,406.7969 Q437.3125,407.1094 436.5156,407.2656 Q435.7344,407.4219 434.9688,407.4219 Z " fill="#000000"/><text fill="#000000" font-family="sans-serif" font-size="14" lengthAdjust="spacing" textLength="111" x="449.5" y="405.932">BookServiceImpl</text><line style="stroke:#181818;stroke-width:0.5;" x1="421.5" x2="562.5" y1="416.5" y2="416.5"/><line style="stroke:#181818;stroke-width:0.5;" x1="421.5" x2="562.5" y1="424.5" y2="424.5"/></g><!--class Book--><g id="elem_Book"><rect codeLine="27" fill="#F1F1F1" height="61.412" id="Book" rx="2.5" ry="2.5" style="stroke:#181818;stroke-width:0.5;" width="70" x="448" y="540.5"/><ellipse cx="463" cy="563.206" fill="#ADD1B2" rx="11" ry="11" style="stroke:#181818;stroke-width:1.0;"/><path d="M462.4688,570.1279 Q460.7188,570.1279 459.5781,569.3935 Q458.4531,568.6435 457.8906,567.2998 Q457.3438,565.9404 457.3438,564.1435 Q457.3438,562.1123 458,560.6591 Q458.6563,559.206 459.9375,558.4248 Q461.2188,557.6435 463.0938,557.6435 Q463.9844,557.6435 464.6563,557.831 Q465.3281,558.0029 466.0156,558.3466 L465.2031,560.3623 Q464.5781,560.0498 464.0313,559.9248 Q463.5,559.7998 463.0156,559.7998 Q461.8438,559.7998 461.1406,560.331 Q460.4375,560.8623 460.1406,561.8154 Q459.8438,562.7685 459.8438,564.0341 Q459.8438,566.0498 460.5625,567.0185 Q461.2813,567.9716 462.875,567.9716 Q463.4688,567.9716 464.0938,567.8154 Q464.7188,567.6591 465.5469,567.2841 L465.5469,569.5029 Q464.8125,569.8154 464.0156,569.9716 Q463.2344,570.1279 462.4688,570.1279 Z " fill="#000000"/><text fill="#000000" font-family="sans-serif" font-size="12" font-style="italic" lengthAdjust="spacing" textLength="42" x="475" y="558.3281">&#171;entity&#187;</text><text fill="#000000" font-family="sans-serif" font-size="14" lengthAdjust="spacing" textLength="32" x="480" y="576.81">Book</text><line style="stroke:#181818;stroke-width:0.5;" x1="449" x2="517" y1="585.912" y2="585.912"/><line style="stroke:#181818;stroke-width:0.5;" x1="449" x2="517" y1="593.912" y2="593.912"/></g><!--class Title--><g id="elem_Title"><rect codeLine="30" fill="#F1F1F1" height="80.4799" id="Title" rx="2.5" ry="2.5" style="stroke:#181818;stroke-width:0.5;" width="94" x="545" y="681"/><ellipse cx="571.25" cy="703.706" fill="#ADD1B2" rx="11" ry="11" style="stroke:#181818;stroke-width:1.0;"/><path d="M570.7188,710.6279 Q568.9688,710.6279 567.8281,709.8935 Q566.7031,709.1435 566.1406,707.7998 Q565.5938,706.4404 565.5938,704.6435 Q565.5938,702.6123 566.25,701.1591 Q566.9063,699.706 568.1875,698.9248 Q569.4688,698.1435 571.3438,698.1435 Q572.2344,698.1435 572.9063,698.331 Q573.5781,698.5029 574.2656,698.8466 L573.4531,700.8623 Q572.8281,700.5498 572.2813,700.4248 Q571.75,700.2998 571.2656,700.2998 Q570.0938,700.2998 569.3906,700.831 Q568.6875,701.3623 568.3906,702.3154 Q568.0938,703.2685 568.0938,704.5341 Q568.0938,706.5498 568.8125,707.5185 Q569.5313,708.4716 571.125,708.4716 Q571.7188,708.4716 572.3438,708.3154 Q572.9688,708.1591 573.7969,707.7841 L573.7969,710.0029 Q573.0625,710.3154 572.2656,710.4716 Q571.4844,710.6279 570.7188,710.6279 Z " fill="#000000"/><text fill="#000000" font-family="sans-serif" font-size="12" font-style="italic" lengthAdjust="spacing" textLength="41" x="585.75" y="698.8281">&#171;value&#187;</text><text fill="#000000" font-family="sans-serif" font-size="14" lengthAdjust="spacing" textLength="29" x="591.75" y="717.31">Title</text><line style="stroke:#181818;stroke-width:0.5;" x1="546" x2="638" y1="726.412" y2="726.412"/><text fill="#000000" font-family="sans-serif" font-size="14" lengthAdjust="spacing" textLength="82" x="551" y="745.378">-Title: string</text><line style="stroke:#181818;stroke-width:0.5;" x1="546" x2="638" y1="753.4799" y2="753.4799"/></g><!--class Isbn--><g id="elem_Isbn"><rect codeLine="34" fill="#F1F1F1" height="80.4799" id="Isbn" rx="2.5" ry="2.5" style="stroke:#181818;stroke-width:0.5;" width="94" x="416" y="681"/><ellipse cx="442.25" cy="703.706" fill="#ADD1B2" rx="11" ry="11" style="stroke:#181818;stroke-width:1.0;"/><path d="M441.7188,710.6279 Q439.9688,710.6279 438.8281,709.8935 Q437.7031,709.1435 437.1406,707.7998 Q436.5938,706.4404 436.5938,704.6435 Q436.5938,702.6123 437.25,701.1591 Q437.9063,699.706 439.1875,698.9248 Q440.4688,698.1435 442.3438,698.1435 Q443.2344,698.1435 443.9063,698.331 Q444.5781,698.5029 445.2656,698.8466 L444.4531,700.8623 Q443.8281,700.5498 443.2813,700.4248 Q442.75,700.2998 442.2656,700.2998 Q441.0938,700.2998 440.3906,700.831 Q439.6875,701.3623 439.3906,702.3154 Q439.0938,703.2685 439.0938,704.5341 Q439.0938,706.5498 439.8125,707.5185 Q440.5313,708.4716 442.125,708.4716 Q442.7188,708.4716 443.3438,708.3154 Q443.9688,708.1591 444.7969,707.7841 L444.7969,710.0029 Q444.0625,710.3154 443.2656,710.4716 Q442.4844,710.6279 441.7188,710.6279 Z " fill="#000000"/><text fill="#000000" font-family="sans-serif" font-size="12" font-style="italic" lengthAdjust="spacing" textLength="41" x="456.75" y="698.8281">&#171;value&#187;</text><text fill="#000000" font-family="sans-serif" font-size="14" lengthAdjust="spacing" textLength="30" x="462.25" y="717.31">Isbn</text><line style="stroke:#181818;stroke-width:0.5;" x1="417" x2="509" y1="726.412" y2="726.412"/><text fill="#000000" font-family="sans-serif" font-size="14" lengthAdjust="spacing" textLength="82" x="422" y="745.378">-isbn: string</text><line style="stroke:#181818;stroke-width:0.5;" x1="417" x2="509" y1="753.4799" y2="753.4799"/></g><!--class Description--><g id="elem_Description"><rect codeLine="38" fill="#F1F1F1" height="99.5479" id="Description" rx="2.5" ry="2.5" style="stroke:#181818;stroke-width:0.5;" width="142" x="553" y="521"/><ellipse cx="582.85" cy="543.706" fill="#ADD1B2" rx="11" ry="11" style="stroke:#181818;stroke-width:1.0;"/><path d="M582.3188,550.6279 Q580.5688,550.6279 579.4281,549.8935 Q578.3031,549.1435 577.7406,547.7998 Q577.1938,546.4404 577.1938,544.6435 Q577.1938,542.6123 577.85,541.1591 Q578.5063,539.706 579.7875,538.9248 Q581.0688,538.1435 582.9438,538.1435 Q583.8344,538.1435 584.5063,538.331 Q585.1781,538.5029 585.8656,538.8466 L585.0531,540.8623 Q584.4281,540.5498 583.8813,540.4248 Q583.35,540.2998 582.8656,540.2998 Q581.6938,540.2998 580.9906,540.831 Q580.2875,541.3623 579.9906,542.3154 Q579.6938,543.2685 579.6938,544.5341 Q579.6938,546.5498 580.4125,547.5185 Q581.1313,548.4716 582.725,548.4716 Q583.3188,548.4716 583.9438,548.3154 Q584.5688,548.1591 585.3969,547.7841 L585.3969,550.0029 Q584.6625,550.3154 583.8656,550.4716 Q583.0844,550.6279 582.3188,550.6279 Z " fill="#000000"/><text fill="#000000" font-family="sans-serif" font-size="12" font-style="italic" lengthAdjust="spacing" textLength="41" x="618.15" y="538.8281">&#171;value&#187;</text><text fill="#000000" font-family="sans-serif" font-size="14" lengthAdjust="spacing" textLength="77" x="600.15" y="557.31">Description</text><line style="stroke:#181818;stroke-width:0.5;" x1="554" x2="694" y1="566.412" y2="566.412"/><text fill="#000000" font-family="sans-serif" font-size="14" lengthAdjust="spacing" textLength="130" x="559" y="585.378">-Description: string</text><line style="stroke:#181818;stroke-width:0.5;" x1="554" x2="694" y1="593.4799" y2="593.4799"/><text fill="#000000" font-family="sans-serif" font-size="14" lengthAdjust="spacing" textLength="123" x="559" y="612.4459">+toString() : String</text></g><!--class Genre--><g id="elem_Genre"><rect codeLine="43" fill="#F1F1F1" height="80.4799" id="Genre" rx="2.5" ry="2.5" style="stroke:#181818;stroke-width:0.5;" width="106" x="77" y="681"/><ellipse cx="106.85" cy="703.706" fill="#ADD1B2" rx="11" ry="11" style="stroke:#181818;stroke-width:1.0;"/><path d="M106.3188,710.6279 Q104.5688,710.6279 103.4281,709.8935 Q102.3031,709.1435 101.7406,707.7998 Q101.1938,706.4404 101.1938,704.6435 Q101.1938,702.6123 101.85,701.1591 Q102.5063,699.706 103.7875,698.9248 Q105.0688,698.1435 106.9438,698.1435 Q107.8344,698.1435 108.5063,698.331 Q109.1781,698.5029 109.8656,698.8466 L109.0531,700.8623 Q108.4281,700.5498 107.8813,700.4248 Q107.35,700.2998 106.8656,700.2998 Q105.6938,700.2998 104.9906,700.831 Q104.2875,701.3623 103.9906,702.3154 Q103.6938,703.2685 103.6938,704.5341 Q103.6938,706.5498 104.4125,707.5185 Q105.1313,708.4716 106.725,708.4716 Q107.3188,708.4716 107.9438,708.3154 Q108.5688,708.1591 109.3969,707.7841 L109.3969,710.0029 Q108.6625,710.3154 107.8656,710.4716 Q107.0844,710.6279 106.3188,710.6279 Z " fill="#000000"/><text fill="#000000" font-family="sans-serif" font-size="12" font-style="italic" lengthAdjust="spacing" textLength="42" x="123.65" y="698.8281">&#171;entity&#187;</text><text fill="#000000" font-family="sans-serif" font-size="14" lengthAdjust="spacing" textLength="41" x="124.15" y="717.31">Genre</text><line style="stroke:#181818;stroke-width:0.5;" x1="78" x2="182" y1="726.412" y2="726.412"/><text fill="#000000" font-family="sans-serif" font-size="14" lengthAdjust="spacing" textLength="94" x="83" y="745.378">-Genre: genre</text><line style="stroke:#181818;stroke-width:0.5;" x1="78" x2="182" y1="753.4799" y2="753.4799"/></g><!--class GenreRepository--><g id="elem_GenreRepository"><rect codeLine="47" fill="#F1F1F1" height="86.1358" id="GenreRepository" rx="2.5" ry="2.5" style="stroke:#181818;stroke-width:0.5;" width="220" x="185" y="528"/><ellipse cx="238.75" cy="544" fill="#B4A7E5" rx="11" ry="11" style="stroke:#181818;stroke-width:1.0;"/><path d="M234.7813,550.5 L234.7813,548.7969 L237.1406,548.5313 L237.1406,540.3281 L234.7813,540.0625 L234.7813,538.3594 L241.9219,538.3594 L241.9219,540.0625 L239.5,540.3281 L239.5,548.5313 L241.9219,548.7969 L241.9219,550.5 L234.7813,550.5 Z " fill="#000000"/><text fill="#000000" font-family="sans-serif" font-size="14" font-style="italic" lengthAdjust="spacing" textLength="104" x="259.25" y="549.432">GenreRepository</text><line style="stroke:#181818;stroke-width:0.5;" x1="186" x2="404" y1="560" y2="560"/><line style="stroke:#181818;stroke-width:0.5;" x1="186" x2="404" y1="568" y2="568"/><text fill="#000000" font-family="sans-serif" font-size="14" lengthAdjust="spacing" textLength="129" x="191" y="586.9659">+listAll(): list(genre)</text><text fill="#000000" font-family="sans-serif" font-size="14" lengthAdjust="spacing" textLength="208" x="191" y="606.0339">+listByName(Name): list(genre)</text></g><!--class GenreService--><g id="elem_GenreService"><rect codeLine="52" fill="#F1F1F1" height="86.1358" id="GenreService" rx="2.5" ry="2.5" style="stroke:#181818;stroke-width:0.5;" width="136" x="15" y="200.5"/><ellipse cx="40.35" cy="216.5" fill="#B4A7E5" rx="11" ry="11" style="stroke:#181818;stroke-width:1.0;"/><path d="M36.3813,223 L36.3813,221.2969 L38.7406,221.0313 L38.7406,212.8281 L36.3813,212.5625 L36.3813,210.8594 L43.5219,210.8594 L43.5219,212.5625 L41.1,212.8281 L41.1,221.0313 L43.5219,221.2969 L43.5219,223 L36.3813,223 Z " fill="#000000"/><text fill="#000000" font-family="sans-serif" font-size="14" font-style="italic" lengthAdjust="spacing" textLength="81" x="56.65" y="221.932">GenreService</text><line style="stroke:#181818;stroke-width:0.5;" x1="16" x2="150" y1="232.5" y2="232.5"/><line style="stroke:#181818;stroke-width:0.5;" x1="16" x2="150" y1="240.5" y2="240.5"/><text fill="#000000" font-family="sans-serif" font-size="14" lengthAdjust="spacing" textLength="109" x="21" y="259.4659">+register(genre)</text><text fill="#000000" font-family="sans-serif" font-size="14" lengthAdjust="spacing" textLength="124" x="21" y="278.5339">+findGenre(genre)</text></g><!--class AuthorsRepository--><g id="elem_AuthorsRepository"><rect codeLine="57" fill="#F1F1F1" height="67.0679" id="AuthorsRepository" rx="2.5" ry="2.5" style="stroke:#181818;stroke-width:0.5;" width="191" x="194.5" y="375"/><ellipse cx="228.85" cy="391" fill="#B4A7E5" rx="11" ry="11" style="stroke:#181818;stroke-width:1.0;"/><path d="M224.8813,397.5 L224.8813,395.7969 L227.2406,395.5313 L227.2406,387.3281 L224.8813,387.0625 L224.8813,385.3594 L232.0219,385.3594 L232.0219,387.0625 L229.6,387.3281 L229.6,395.5313 L232.0219,395.7969 L232.0219,397.5 L224.8813,397.5 Z " fill="#000000"/><text fill="#000000" font-family="sans-serif" font-size="14" font-style="italic" lengthAdjust="spacing" textLength="116" x="247.15" y="396.432">AuthorsRepository</text><line style="stroke:#181818;stroke-width:0.5;" x1="195.5" x2="384.5" y1="407" y2="407"/><line style="stroke:#181818;stroke-width:0.5;" x1="195.5" x2="384.5" y1="415" y2="415"/><text fill="#000000" font-family="sans-serif" font-size="14" lengthAdjust="spacing" textLength="179" x="200.5" y="433.9659">+getAuthors(): list(authors)</text></g><!--class BookAuthor--><g id="elem_BookAuthor"><rect codeLine="61" fill="#F1F1F1" height="67.0679" id="BookAuthor" rx="2.5" ry="2.5" style="stroke:#181818;stroke-width:0.5;" width="144" x="237" y="687.5"/><ellipse cx="267.3" cy="703.5" fill="#ADD1B2" rx="11" ry="11" style="stroke:#181818;stroke-width:1.0;"/><path d="M266.7688,710.4219 Q265.0188,710.4219 263.8781,709.6875 Q262.7531,708.9375 262.1906,707.5938 Q261.6438,706.2344 261.6438,704.4375 Q261.6438,702.4063 262.3,700.9531 Q262.9563,699.5 264.2375,698.7188 Q265.5188,697.9375 267.3938,697.9375 Q268.2844,697.9375 268.9563,698.125 Q269.6281,698.2969 270.3156,698.6406 L269.5031,700.6563 Q268.8781,700.3438 268.3313,700.2188 Q267.8,700.0938 267.3156,700.0938 Q266.1438,700.0938 265.4406,700.625 Q264.7375,701.1563 264.4406,702.1094 Q264.1438,703.0625 264.1438,704.3281 Q264.1438,706.3438 264.8625,707.3125 Q265.5813,708.2656 267.175,708.2656 Q267.7688,708.2656 268.3938,708.1094 Q269.0188,707.9531 269.8469,707.5781 L269.8469,709.7969 Q269.1125,710.1094 268.3156,710.2656 Q267.5344,710.4219 266.7688,710.4219 Z " fill="#000000"/><text fill="#000000" font-family="sans-serif" font-size="14" lengthAdjust="spacing" textLength="78" x="284.7" y="708.932">BookAuthor</text><line style="stroke:#181818;stroke-width:0.5;" x1="238" x2="380" y1="719.5" y2="719.5"/><text fill="#000000" font-family="sans-serif" font-size="14" lengthAdjust="spacing" textLength="132" x="243" y="738.4659">-authorNumber :int</text><line style="stroke:#181818;stroke-width:0.5;" x1="238" x2="380" y1="746.5679" y2="746.5679"/></g><!--class GenreServiceImpl--><g id="elem_GenreServiceImpl"><rect fill="#F1F1F1" height="48" id="GenreServiceImpl" rx="2.5" ry="2.5" style="stroke:#181818;stroke-width:0.5;" width="152" x="7" y="384.5"/><ellipse cx="22" cy="400.5" fill="#ADD1B2" rx="11" ry="11" style="stroke:#181818;stroke-width:1.0;"/><path d="M21.4688,407.4219 Q19.7188,407.4219 18.5781,406.6875 Q17.4531,405.9375 16.8906,404.5938 Q16.3438,403.2344 16.3438,401.4375 Q16.3438,399.4063 17,397.9531 Q17.6563,396.5 18.9375,395.7188 Q20.2188,394.9375 22.0938,394.9375 Q22.9844,394.9375 23.6563,395.125 Q24.3281,395.2969 25.0156,395.6406 L24.2031,397.6563 Q23.5781,397.3438 23.0313,397.2188 Q22.5,397.0938 22.0156,397.0938 Q20.8438,397.0938 20.1406,397.625 Q19.4375,398.1563 19.1406,399.1094 Q18.8438,400.0625 18.8438,401.3281 Q18.8438,403.3438 19.5625,404.3125 Q20.2813,405.2656 21.875,405.2656 Q22.4688,405.2656 23.0938,405.1094 Q23.7188,404.9531 24.5469,404.5781 L24.5469,406.7969 Q23.8125,407.1094 23.0156,407.2656 Q22.2344,407.4219 21.4688,407.4219 Z " fill="#000000"/><text fill="#000000" font-family="sans-serif" font-size="14" lengthAdjust="spacing" textLength="120" x="36" y="405.932">GenreServiceImpl</text><line style="stroke:#181818;stroke-width:0.5;" x1="8" x2="158" y1="416.5" y2="416.5"/><line style="stroke:#181818;stroke-width:0.5;" x1="8" x2="158" y1="424.5" y2="424.5"/></g><!--reverse link BookService to BookServiceImpl--><g id="link_BookService_BookServiceImpl"><path d="M492,314.07 C492,343.73 492,361.53 492,384.41 " fill="none" id="BookService-backto-BookServiceImpl" style="stroke:#181818;stroke-width:1.0;stroke-dasharray:7.0,7.0;"/><polygon fill="none" points="492,296.07,486,314.07,498,314.07,492,296.07" style="stroke:#181818;stroke-width:1.0;"/></g><!--reverse link Book to Isbn--><g id="link_Book_Isbn"><path codeLine="65" d="M477.3922,613.4818 C474.3122,636.2618 471.64,656.05 468.28,680.91 " fill="none" id="Book-backto-Isbn" style="stroke:#181818;stroke-width:1.0;"/><polygon fill="#181818" points="479,601.59,474.2321,606.9999,477.3922,613.4818,482.16,608.0718,479,601.59" style="stroke:#181818;stroke-width:1.0;"/></g><!--reverse link Book to Title--><g id="link_Book_Title"><path codeLine="66" d="M511.9142,611.2538 C528.6842,634.0338 544.9,656.05 563.21,680.91 " fill="none" id="Book-backto-Title" style="stroke:#181818;stroke-width:1.0;"/><polygon fill="#181818" points="504.8,601.59,505.1358,608.7933,511.9142,611.2538,511.5783,604.0505,504.8,601.59" style="stroke:#181818;stroke-width:1.0;"/></g><!--reverse link Book to Description--><g id="link_Book_Description"><path codeLine="67" d="M530.25,571 C541.82,571 541.38,571 552.95,571 " fill="none" id="Book-backto-Description" style="stroke:#181818;stroke-width:1.0;"/><polygon fill="#181818" points="518.25,571,524.25,575,530.25,571,524.25,567,518.25,571" style="stroke:#181818;stroke-width:1.0;"/></g><!--reverse link Book to Genre--><g id="link_Book_Genre"><path codeLine="68" d="M441.38,609.2018 C432.52,616.2518 431.99,615.77 422,621 C338.64,664.62 307.37,648.72 219,681 C207.27,685.28 194.89,690.35 183.21,695.39 " fill="none" id="Book-backto-Genre" style="stroke:#181818;stroke-width:1.0;"/><polygon fill="none" points="450.77,601.73,443.5844,602.3359,441.38,609.2018,448.5656,608.5959,450.77,601.73" style="stroke:#181818;stroke-width:1.0;"/></g><!--reverse link BookAuthor to Isbn--><g id="link_BookAuthor_Isbn"><path codeLine="69" d="M393.19,721 C404.69,721 404.2,721 415.7,721 " fill="none" id="BookAuthor-backto-Isbn" style="stroke:#181818;stroke-width:1.0;"/><polygon fill="none" points="381.19,721,387.19,725,393.19,721,387.19,717,381.19,721" style="stroke:#181818;stroke-width:1.0;"/></g><!--link BookServiceImpl to Book--><g id="link_BookServiceImpl_Book"><path codeLine="71" d="M490.69,432.84 C489.1,461.27 486.736,503.3394 484.996,534.3594 " fill="none" id="BookServiceImpl-to-Book" style="stroke:#181818;stroke-width:1.0;stroke-dasharray:7.0,7.0;"/><polygon fill="#181818" points="484.66,540.35,489.1578,531.5881,484.94,535.3578,481.1703,531.1401,484.66,540.35" style="stroke:#181818;stroke-width:1.0;"/></g><!--link BookServiceImpl to GenreRepository--><g id="link_BookServiceImpl_GenreRepository"><path codeLine="73" d="M463.35,432.84 C432.83,457.7 388.5319,493.8006 351.2619,524.1606 " fill="none" id="BookServiceImpl-to-GenreRepository" style="stroke:#181818;stroke-width:1.0;stroke-dasharray:7.0,7.0;"/><polygon fill="#181818" points="346.61,527.95,356.1141,525.3671,350.4866,524.7921,351.0616,519.1646,346.61,527.95" style="stroke:#181818;stroke-width:1.0;"/></g><!--reverse link AuthorsRepository to BookServiceImpl--><g id="link_AuthorsRepository_BookServiceImpl"><path codeLine="74" d="M391.87,408.5 C403.34,408.5 408.81,408.5 420.28,408.5 " fill="none" id="AuthorsRepository-backto-BookServiceImpl" style="stroke:#181818;stroke-width:1.0;stroke-dasharray:7.0,7.0;"/><polygon fill="#181818" points="385.87,408.5,394.87,412.5,390.87,408.5,394.87,404.5,385.87,408.5" style="stroke:#181818;stroke-width:1.0;"/></g><!--link GenreServiceImpl to Genre--><g id="link_GenreServiceImpl_Genre"><path codeLine="75" d="M86.49,432.58 C94.48,485.36 113.2512,609.3877 123.1812,674.9277 " fill="none" id="GenreServiceImpl-to-Genre" style="stroke:#181818;stroke-width:1.0;stroke-dasharray:7.0,7.0;"/><polygon fill="#181818" points="124.08,680.86,126.6867,671.3624,123.331,675.9164,118.7769,672.5608,124.08,680.86" style="stroke:#181818;stroke-width:1.0;"/></g><!--link BookController to BookService--><g id="link_BookController_BookService"><path codeLine="76" d="M492,131.3 C492,150.77 492,166.09 492,184.8 " fill="none" id="BookController-to-BookService" style="stroke:#181818;stroke-width:1.0;stroke-dasharray:7.0,7.0;"/><polygon fill="#181818" points="492,190.8,496,181.8,492,185.8,488,181.8,492,190.8" style="stroke:#181818;stroke-width:1.0;"/></g><!--link BookServiceImpl to BookRepository--><g id="link_BookServiceImpl_BookRepository"><path codeLine="78" d="M563.91,408.5 C575.42,408.5 580.94,408.5 592.46,408.5 " fill="none" id="BookServiceImpl-to-BookRepository" style="stroke:#181818;stroke-width:1.0;stroke-dasharray:7.0,7.0;"/><polygon fill="#181818" points="598.46,408.5,589.46,404.5,593.46,408.5,589.46,412.5,598.46,408.5" style="stroke:#181818;stroke-width:1.0;"/></g><!--link GenreServiceImpl to GenreRepository--><g id="link_GenreServiceImpl_GenreRepository"><path codeLine="79" d="M113.83,432.84 C146.67,457.7 194.5659,493.9689 234.6759,524.3289 " fill="none" id="GenreServiceImpl-to-GenreRepository" style="stroke:#181818;stroke-width:1.0;stroke-dasharray:7.0,7.0;"/><polygon fill="#181818" points="239.46,527.95,234.698,519.3289,235.4733,524.9324,229.8698,525.7077,239.46,527.95" style="stroke:#181818;stroke-width:1.0;"/></g><!--reverse link GenreService to GenreServiceImpl--><g id="link_GenreService_GenreServiceImpl"><path codeLine="80" d="M83,304.9 C83,336.03 83,359.13 83,384.42 " fill="none" id="GenreService-backto-GenreServiceImpl" style="stroke:#181818;stroke-width:1.0;stroke-dasharray:7.0,7.0;"/><polygon fill="none" points="83,286.9,77,304.9,89,304.9,83,286.9" style="stroke:#181818;stroke-width:1.0;"/></g><!--SRC=[bLJBZfim5DtxAxohQIUeQpH22XsfOfD5wGyuS4EiCJQoJIewdN-l7oHWIAj95WHypdsTS-7JcJM0QwPg3aY_Cj5JHJjSSwhrtXZ5ZeE1ifQYOhy1VqN88xYGylMR54P9pa7XDuJjxmjMq39jG3cOC7qKJnWRPZWyuHQ4idyDw5gntZ1fCJgOirH49yaKF_GDDU2Z7mbhmRo0eOnhKbR5uNgiWQhwxB8LutUNX_XhWjuHOiAsUQ8r-55-G2yrCrADjr5EJ3J5M3PnHde1ShG1ZvUeG5sOlLzBDSdqoBY-jQl2iNGVbErzwUFKMTdr73DxWGw4YQ2tE00_Fri6CsEUBv2VhhA5BfGFu13NrouSPrZRLHBjp2vjwrko6sZBVPcds8Oim5jaKCJ8oZ-I16UuMkNqDaM3-6p-E0lonHvwvCwUSElYddEIPFwMjC7_6Ip60-s0kCkAiyt_poM9iZh_mxBTIxJtDkixhThNP09ltOQTqAkD2Aohme5p6BgZVTCpMyYH_HvytksyaVEJT_lwg5XxDf530P6xIMWq5xE78HLQhsJQo5yYpNrZ6pHDyvKnstWE9vFc6rdGKl70j5NclXQVjtGgFv7lzEX7dLWVAl5Vqj2dV_9e8_u2]--></g></svg>