<?xml version="1.0" encoding="us-ascii" standalone="no"?><svg xmlns="http://www.w3.org/2000/svg" xmlns:xlink="http://www.w3.org/1999/xlink" contentStyleType="text/css" height="563px" preserveAspectRatio="none" style="width:1400px;height:563px;background:#FFFFFF;" version="1.1" viewBox="0 0 1400 563" width="1400px" zoomAndPan="magnify"><defs/><g><text fill="#000000" font-family="sans-serif" font-size="14" font-weight="bold" lengthAdjust="spacing" textLength="159" x="619.5" y="30.1074">WP#4A.16 Return Book</text><rect fill="#FFFFFF" height="243.3281" style="stroke:#181818;stroke-width:1.0;" width="10" x="179.5" y="228.4063"/><rect fill="#FFFFFF" height="200.3916" style="stroke:#181818;stroke-width:1.0;" width="10" x="479.5" y="271.3428"/><rect fill="#FFFFFF" height="105.5186" style="stroke:#181818;stroke-width:1.0;" width="10" x="789.5" y="314.2793"/><rect fill="#FFFFFF" height="9" style="stroke:#181818;stroke-width:1.0;" width="10" x="789.5" y="462.7344"/><rect fill="#FFFFFF" height="31.291" style="stroke:#181818;stroke-width:1.0;" width="10" x="1049.5" y="345.5703"/><line style="stroke:#181818;stroke-width:0.5;stroke-dasharray:5.0,5.0;" x1="54" x2="54" y1="123.2422" y2="480.7344"/><line style="stroke:#181818;stroke-width:0.5;stroke-dasharray:5.0,5.0;" x1="184.5" x2="184.5" y1="123.2422" y2="480.7344"/><line style="stroke:#181818;stroke-width:0.5;stroke-dasharray:5.0,5.0;" x1="484" x2="484" y1="123.2422" y2="480.7344"/><line style="stroke:#181818;stroke-width:0.5;stroke-dasharray:5.0,5.0;" x1="794.5" x2="794.5" y1="123.2422" y2="480.7344"/><line style="stroke:#181818;stroke-width:0.5;stroke-dasharray:5.0,5.0;" x1="1054" x2="1054" y1="123.2422" y2="480.7344"/><line style="stroke:#181818;stroke-width:0.5;stroke-dasharray:5.0,5.0;" x1="1192" x2="1192" y1="123.2422" y2="480.7344"/><line style="stroke:#181818;stroke-width:0.5;stroke-dasharray:5.0,5.0;" x1="1327" x2="1327" y1="123.2422" y2="480.7344"/><text fill="#000000" font-family="sans-serif" font-size="14" lengthAdjust="spacing" textLength="47" x="28" y="119.7285">Reader</text><ellipse cx="54.5" cy="53.1211" fill="#E2E2F0" rx="8" ry="8" style="stroke:#181818;stroke-width:0.5;"/><path d="M54.5,61.1211 L54.5,88.1211 M41.5,69.1211 L67.5,69.1211 M54.5,88.1211 L41.5,103.1211 M54.5,88.1211 L67.5,103.1211 " fill="none" style="stroke:#181818;stroke-width:0.5;"/><text fill="#000000" font-family="sans-serif" font-size="14" lengthAdjust="spacing" textLength="47" x="28" y="494.8418">Reader</text><ellipse cx="54.5" cy="506.8555" fill="#E2E2F0" rx="8" ry="8" style="stroke:#181818;stroke-width:0.5;"/><path d="M54.5,514.8555 L54.5,541.8555 M41.5,522.8555 L67.5,522.8555 M54.5,541.8555 L41.5,556.8555 M54.5,541.8555 L67.5,556.8555 " fill="none" style="stroke:#181818;stroke-width:0.5;"/><rect fill="#E2E2F0" height="32.6211" rx="2.5" ry="2.5" style="stroke:#181818;stroke-width:0.5;" width="60" x="154.5" y="89.6211"/><text fill="#000000" font-family="sans-serif" font-size="14" lengthAdjust="spacing" textLength="46" x="161.5" y="111.7285">System</text><rect fill="#E2E2F0" height="32.6211" rx="2.5" ry="2.5" style="stroke:#181818;stroke-width:0.5;" width="60" x="154.5" y="479.7344"/><text fill="#000000" font-family="sans-serif" font-size="14" lengthAdjust="spacing" textLength="46" x="161.5" y="501.8418">System</text><rect fill="#E2E2F0" height="32.6211" rx="2.5" ry="2.5" style="stroke:#181818;stroke-width:0.5;" width="131" x="419" y="89.6211"/><text fill="#000000" font-family="sans-serif" font-size="14" lengthAdjust="spacing" textLength="117" x="426" y="111.7285">:LendingController</text><rect fill="#E2E2F0" height="32.6211" rx="2.5" ry="2.5" style="stroke:#181818;stroke-width:0.5;" width="131" x="419" y="479.7344"/><text fill="#000000" font-family="sans-serif" font-size="14" lengthAdjust="spacing" textLength="117" x="426" y="501.8418">:LendingController</text><rect fill="#E2E2F0" height="32.6211" rx="2.5" ry="2.5" style="stroke:#181818;stroke-width:0.5;" width="116" x="736.5" y="89.6211"/><text fill="#000000" font-family="sans-serif" font-size="14" lengthAdjust="spacing" textLength="102" x="743.5" y="111.7285">:LendingService</text><rect fill="#E2E2F0" height="32.6211" rx="2.5" ry="2.5" style="stroke:#181818;stroke-width:0.5;" width="116" x="736.5" y="479.7344"/><text fill="#000000" font-family="sans-serif" font-size="14" lengthAdjust="spacing" textLength="102" x="743.5" y="501.8418">:LendingService</text><rect fill="#E2E2F0" height="32.6211" rx="2.5" ry="2.5" style="stroke:#181818;stroke-width:0.5;" width="137" x="986" y="89.6211"/><text fill="#000000" font-family="sans-serif" font-size="14" lengthAdjust="spacing" textLength="123" x="993" y="111.7285">:LendingRepository</text><rect fill="#E2E2F0" height="32.6211" rx="2.5" ry="2.5" style="stroke:#181818;stroke-width:0.5;" width="137" x="986" y="479.7344"/><text fill="#000000" font-family="sans-serif" font-size="14" lengthAdjust="spacing" textLength="123" x="993" y="501.8418">:LendingRepository</text><rect fill="#E2E2F0" height="32.6211" rx="2.5" ry="2.5" style="stroke:#181818;stroke-width:0.5;" width="118" x="1133" y="89.6211"/><text fill="#000000" font-family="sans-serif" font-size="14" lengthAdjust="spacing" textLength="104" x="1140" y="111.7285">:BookRepository</text><rect fill="#E2E2F0" height="32.6211" rx="2.5" ry="2.5" style="stroke:#181818;stroke-width:0.5;" width="118" x="1133" y="479.7344"/><text fill="#000000" font-family="sans-serif" font-size="14" lengthAdjust="spacing" textLength="104" x="1140" y="501.8418">:BookRepository</text><rect fill="#E2E2F0" height="32.6211" rx="2.5" ry="2.5" style="stroke:#181818;stroke-width:0.5;" width="133" x="1261" y="89.6211"/><text fill="#000000" font-family="sans-serif" font-size="14" lengthAdjust="spacing" textLength="119" x="1268" y="111.7285">:ReaderRepository</text><rect fill="#E2E2F0" height="32.6211" rx="2.5" ry="2.5" style="stroke:#181818;stroke-width:0.5;" width="133" x="1261" y="479.7344"/><text fill="#000000" font-family="sans-serif" font-size="14" lengthAdjust="spacing" textLength="119" x="1268" y="501.8418">:ReaderRepository</text><rect fill="#FFFFFF" height="243.3281" style="stroke:#181818;stroke-width:1.0;" width="10" x="179.5" y="228.4063"/><rect fill="#FFFFFF" height="200.3916" style="stroke:#181818;stroke-width:1.0;" width="10" x="479.5" y="271.3428"/><rect fill="#FFFFFF" height="105.5186" style="stroke:#181818;stroke-width:1.0;" width="10" x="789.5" y="314.2793"/><rect fill="#FFFFFF" height="9" style="stroke:#181818;stroke-width:1.0;" width="10" x="789.5" y="462.7344"/><rect fill="#FFFFFF" height="31.291" style="stroke:#181818;stroke-width:1.0;" width="10" x="1049.5" y="345.5703"/><path d="M5,138.2422 L5,182.2422 L104,182.2422 L104,148.2422 L94,138.2422 L5,138.2422 " fill="#FEFFDD" style="stroke:#181818;stroke-width:0.5;"/><path d="M94,138.2422 L94,148.2422 L104,148.2422 L94,138.2422 " fill="#FEFFDD" style="stroke:#181818;stroke-width:0.5;"/><text fill="#000000" font-family="sans-serif" font-size="13" lengthAdjust="spacing" textLength="55" x="11" y="157.2705">Reader is</text><text fill="#000000" font-family="sans-serif" font-size="13" lengthAdjust="spacing" textLength="78" x="11" y="174.5615">authenticated</text><polygon fill="#181818" points="167.5,224.4063,177.5,228.4063,167.5,232.4063,171.5,228.4063" style="stroke:#181818;stroke-width:1.0;"/><line style="stroke:#181818;stroke-width:1.0;" x1="54.5" x2="173.5" y1="228.4063" y2="228.4063"/><text fill="#000000" font-family="sans-serif" font-size="13" font-weight="bold" lengthAdjust="spacing" textLength="7" x="61.5" y="214.498">1</text><text fill="#000000" font-family="sans-serif" font-size="13" lengthAdjust="spacing" textLength="95" x="72.5" y="205.8525">request to return</text><text fill="#000000" font-family="sans-serif" font-size="13" lengthAdjust="spacing" textLength="39" x="76.5" y="223.1436">a book</text><polygon fill="#181818" points="467.5,267.3428,477.5,271.3428,467.5,275.3428,471.5,271.3428" style="stroke:#181818;stroke-width:1.0;"/><line style="stroke:#181818;stroke-width:1.0;" x1="189.5" x2="473.5" y1="271.3428" y2="271.3428"/><text fill="#000000" font-family="sans-serif" font-size="13" font-weight="bold" lengthAdjust="spacing" textLength="7" x="196.5" y="266.0801">2</text><text fill="#000000" font-family="sans-serif" font-size="13" lengthAdjust="spacing" textLength="260" x="207.5" y="266.0801">setLendingReturned(SetLendingReturnedDto)</text><path d="M494,241.4063 L494,285.4063 L610,285.4063 L610,251.4063 L600,241.4063 L494,241.4063 " fill="#FEFFDD" style="stroke:#181818;stroke-width:0.5;"/><path d="M600,241.4063 L600,251.4063 L610,251.4063 L600,241.4063 " fill="#FEFFDD" style="stroke:#181818;stroke-width:0.5;"/><text fill="#000000" font-family="sans-serif" font-size="13" lengthAdjust="spacing" textLength="72" x="500" y="260.4346">Check if any</text><text fill="#000000" font-family="sans-serif" font-size="13" lengthAdjust="spacing" textLength="95" x="500" y="277.7256">user is logged in</text><polygon fill="#181818" points="777.5,310.2793,787.5,314.2793,777.5,318.2793,781.5,314.2793" style="stroke:#181818;stroke-width:1.0;"/><line style="stroke:#181818;stroke-width:1.0;" x1="489.5" x2="783.5" y1="314.2793" y2="314.2793"/><text fill="#000000" font-family="sans-serif" font-size="13" font-weight="bold" lengthAdjust="spacing" textLength="7" x="496.5" y="309.0166">3</text><text fill="#000000" font-family="sans-serif" font-size="13" lengthAdjust="spacing" textLength="220" x="507.5" y="309.0166">findByLendingNumber(lendingNumber)</text><polygon fill="#181818" points="1037.5,341.5703,1047.5,345.5703,1037.5,349.5703,1041.5,345.5703" style="stroke:#181818;stroke-width:1.0;"/><line style="stroke:#181818;stroke-width:1.0;" x1="799.5" x2="1043.5" y1="345.5703" y2="345.5703"/><text fill="#000000" font-family="sans-serif" font-size="13" font-weight="bold" lengthAdjust="spacing" textLength="7" x="806.5" y="340.3076">4</text><text fill="#000000" font-family="sans-serif" font-size="13" lengthAdjust="spacing" textLength="220" x="817.5" y="340.3076">findByLendingNumber(lendingNumber)</text><polygon fill="#181818" points="810.5,372.8613,800.5,376.8613,810.5,380.8613,806.5,376.8613" style="stroke:#181818;stroke-width:1.0;"/><line style="stroke:#181818;stroke-width:1.0;stroke-dasharray:2.0,2.0;" x1="804.5" x2="1053.5" y1="376.8613" y2="376.8613"/><text fill="#000000" font-family="sans-serif" font-size="13" font-weight="bold" lengthAdjust="spacing" textLength="7" x="816.5" y="371.5986">5</text><text fill="#000000" font-family="sans-serif" font-size="13" lengthAdjust="spacing" textLength="49" x="827.5" y="371.5986">(lending)</text><polygon fill="#181818" points="500.5,415.7979,490.5,419.7979,500.5,423.7979,496.5,419.7979" style="stroke:#181818;stroke-width:1.0;"/><line style="stroke:#181818;stroke-width:1.0;stroke-dasharray:2.0,2.0;" x1="494.5" x2="793.5" y1="419.7979" y2="419.7979"/><text fill="#000000" font-family="sans-serif" font-size="13" font-weight="bold" lengthAdjust="spacing" textLength="7" x="506.5" y="414.5352">6</text><text fill="#000000" font-family="sans-serif" font-size="13" lengthAdjust="spacing" textLength="49" x="517.5" y="414.5352">(lending)</text><path d="M302,389.8613 L302,433.8613 L474,433.8613 L474,399.8613 L464,389.8613 L302,389.8613 " fill="#FEFFDD" style="stroke:#181818;stroke-width:0.5;"/><path d="M464,389.8613 L464,399.8613 L474,399.8613 L464,389.8613 " fill="#FEFFDD" style="stroke:#181818;stroke-width:0.5;"/><text fill="#000000" font-family="sans-serif" font-size="13" lengthAdjust="spacing" textLength="103" x="308" y="408.8896">Get reader details</text><text fill="#000000" font-family="sans-serif" font-size="13" lengthAdjust="spacing" textLength="151" x="308" y="426.1807">from Authentication object</text><polygon fill="#181818" points="777.5,458.7344,787.5,462.7344,777.5,466.7344,781.5,462.7344" style="stroke:#181818;stroke-width:1.0;"/><line style="stroke:#181818;stroke-width:1.0;" x1="489.5" x2="783.5" y1="462.7344" y2="462.7344"/><text fill="#000000" font-family="sans-serif" font-size="13" font-weight="bold" lengthAdjust="spacing" textLength="7" x="496.5" y="457.4717">7</text><text fill="#000000" font-family="sans-serif" font-size="13" lengthAdjust="spacing" textLength="270" x="507.5" y="457.4717">setReturned(lendingNumber, resource, version)</text><!--SRC=[ZP8zJyCm48Rt-nMdCa0bsWe9CMH0WYAn88JQWON5JQwfgUCBzgLI_pssatwaBHAPdDVlVJtdwvL8xRF9f3RAIbEPSSxLnDDFGpQdKQ5LwLG5gX5MkUYD4aAswTysrO8SW6WnX9yVL_TFuxi7d94qpk8pyneWnB33mOnKGMw0ocDxX5evqRckGr4SpBTUg4hNxR5_dRsHBRGjfsp5iJ5TfgauSzau9xVHEILNNxhidr7DNeTEjySXKJtnnw5Ep3lfnDcEUU8zY02M8yaDkKx5R7VG_ii6lYko8L_WNG1qDwF7Za-6Bcx82mg7OmJ-PL7X8a5lFT4T4MNeIVOZHIiLD_CpwKLus7NbTBaImF1DLvIlKIzHsMqI6fyQHCDbIGLg2o4BnYY0M2mMxHFFSAbjyRpjrFVqQ6xCyTyG-Y57IIAhVsM0em0SNUXY5t1URC_fO6av65gs65v90kMqWe94QUEJl7HSuTDXKvejykARSZbG-GjAsCb-6RrHRaCbputBwHR3w_0XwH1-0G00]--></g></svg>